<?xml version="1.0" encoding="UTF-8"?>
<svg width="12px" height="12px" viewBox="0 0 12 12" version="1.1" xmlns="http://www.w3.org/2000/svg" xmlns:xlink="http://www.w3.org/1999/xlink">
    <title>Icon/密码备份 3</title>
    <g id="页面-1" stroke="none" stroke-width="1" fill="none" fill-rule="evenodd">
        <g id="个人资料-实名认证-4" transform="translate(-161, -518)" fill="#01A25E" fill-rule="nonzero">
            <g id="Icon/密码备份-3" transform="translate(161, 518)">
                <path d="M6,1.38 C8.15470341,1.38 10.1147341,2.77624438 11.8816033,5.56777877 C12.0391568,5.81729 12.0394887,6.13508911 11.8824568,6.38492893 L11.7166623,6.64311456 C9.99399099,9.26648219 8.08843691,10.578166 6,10.578166 C3.84529659,10.578166 1.88526595,9.18192163 0.11839667,6.39038724 C-0.0391567742,6.14087601 -0.0394887167,5.8230769 0.117543153,5.57323708 L0.28333775,5.31505145 C2.00600901,2.69168382 3.91156309,1.38 6,1.38 Z M6,2.52977075 C4.35460851,2.52977075 2.77325062,3.61780578 1.2469257,5.94225697 L1.22231927,5.97984952 L1.24771432,6.02006245 C2.72225597,8.26171176 4.2467201,9.35198704 5.83012367,9.42451299 L6,9.42839526 C7.64539149,9.42839526 9.22674938,8.34036023 10.7530743,6.01590904 L10.7769142,5.97754998 L10.7522857,5.93810356 C9.27774403,3.69645426 7.7532799,2.60617897 6.16987633,2.53365303 L6,2.52977075 Z M6,3.6795415 C7.2700017,3.6795415 8.2995415,4.7090813 8.2995415,5.97908301 C8.2995415,7.24908471 7.2700017,8.27862451 6,8.27862451 C4.7299983,8.27862451 3.7004585,7.24908471 3.7004585,5.97908301 C3.7004585,4.7090813 4.7299983,3.6795415 6,3.6795415 Z M6,4.82931225 C5.36499915,4.82931225 4.85022925,5.34408215 4.85022925,5.97908301 C4.85022925,6.61408386 5.36499915,7.12885376 6,7.12885376 C6.63500085,7.12885376 7.14977075,6.61408386 7.14977075,5.97908301 C7.14977075,5.34408215 6.63500085,4.82931225 6,4.82931225 Z" id="形状结合"></path>
            </g>
        </g>
    </g>
</svg>