<?xml version="1.0" encoding="UTF-8"?>
<svg width="12px" height="12px" viewBox="0 0 12 12" version="1.1" xmlns="http://www.w3.org/2000/svg" xmlns:xlink="http://www.w3.org/1999/xlink">
    <title>Icon/提醒</title>
    <g id="页面-1" stroke="none" stroke-width="1" fill="none" fill-rule="evenodd">
        <g id="银行卡管理-3" transform="translate(-12, -190)" fill="#FFBF3D" fill-rule="nonzero">
            <g id="Icon/提醒" transform="translate(12, 190)">
                <path d="M6,0 C9.25453513,0 11.9038609,2.59120912 11.9974419,5.82309183 L12,6 C12,9.3137085 9.3137085,12 6,12 C2.6862915,12 0,9.3137085 0,6 C0,2.6862915 2.6862915,0 6,0 Z M6,1.2 C3.3490332,1.2 1.2,3.3490332 1.2,6 C1.2,8.6509668 3.3490332,10.8 6,10.8 C8.6509668,10.8 10.8,8.6509668 10.8,6 L10.7979447,5.85782395 C10.7229459,3.26768979 8.59813082,1.2 6,1.2 Z M5.99431519,7.8161969 C6.31254565,7.8161969 6.5705224,8.07417366 6.5705224,8.39240411 L6.5705224,8.42379279 C6.5705224,8.74202325 6.31254565,9 5.99431519,9 C5.67608474,9 5.41810799,8.74202325 5.41810799,8.42379279 L5.41810799,8.39240411 C5.41810799,8.07417366 5.67608474,7.8161969 5.99431519,7.8161969 Z M6,3 C6.33137085,3 6.6,3.26862915 6.6,3.6 L6.6,6.6 C6.6,6.93137085 6.33137085,7.2 6,7.2 C5.66862915,7.2 5.4,6.93137085 5.4,6.6 L5.4,3.6 C5.4,3.26862915 5.66862915,3 6,3 Z" id="形状结合"></path>
            </g>
        </g>
    </g>
</svg>