<?xml version="1.0" encoding="UTF-8"?>
<svg width="17px" height="16px" viewBox="0 0 17 16" version="1.1" xmlns="http://www.w3.org/2000/svg" xmlns:xlink="http://www.w3.org/1999/xlink">
    <title>Icon/基金备份</title>
    <g id="页面-1" stroke="none" stroke-width="1" fill="none" fill-rule="evenodd">
        <g id="我的持有" transform="translate(-24, -299)" fill="#1DC554" fill-rule="nonzero">
            <g id="Icon/基金备份" transform="translate(24, 299)">
                <path d="M15.9733333,12.9813333 C15.6693333,11.952 15.3706667,10.9173333 15.0666667,9.888 C14.9706667,9.56266667 14.8746667,9.232 14.7626667,8.912 C14.672,8.65066667 14.4853333,8.496 14.2133333,8.448 C14.0693333,8.42133333 13.92,8.40533333 13.776,8.4 C12.7893333,8.39466667 11.7973333,8.39466667 10.8106667,8.4 C10.688,8.4 10.56,8.40533333 10.4373333,8.42666667 C10.0053333,8.50133334 9.65333333,8.688 9.52,9.14133333 C9.14666667,10.416 8.77333333,11.696 8.4,12.9706667 C8.25066667,13.4826667 8.45866667,13.968 8.93333333,14.2026667 C9.08266666,14.2773333 9.25333333,14.32 9.41333333,14.3786667 L15.136,14.3786667 C15.1573333,14.368 15.1786667,14.3626667 15.2,14.352 C15.7653333,14.1973333 16.1333333,13.536 15.9733333,12.9813333 L15.9733333,12.9813333 Z M6.512,9.184 C6.384,8.74133333 6.08533333,8.50666667 5.65866667,8.42666667 C5.42933334,8.384 5.19466667,8.4 4.96,8.4 C4.032,8.4 3.10933333,8.39466667 2.18133333,8.4 C1.664,8.40533333 1.30133333,8.688 1.15733333,9.17866667 C0.933333328,9.936 0.714666656,10.6986667 0.490666672,11.456 C0.330666672,12.0106667 0.165333344,12.5653333 0,13.1146667 L0,13.4666667 C0.0213333281,13.5253333 0.0373333281,13.584 0.0586666719,13.6373333 C0.213333344,14.0533333 0.549333344,14.2453333 0.949333328,14.352 C0.976,14.3573333 0.997333328,14.368 1.024,14.3786667 L6.74666667,14.3786667 C6.77333334,14.368 6.79466667,14.3573333 6.82133333,14.352 C7.40266666,14.192 7.76533333,13.5626667 7.60533333,12.992 C7.248,11.7226667 6.87466666,10.4586667 6.512,9.184 Z M10.7733333,7.20533333 C11.4986667,7.20533333 12.0266667,6.49066666 11.824,5.792 C11.456,4.544 11.0933333,3.29066667 10.7253333,2.04266667 C10.5813333,1.55733334 10.208,1.23733334 9.696,1.232 C8.64,1.22133333 7.58933333,1.22666667 6.53333333,1.22666667 C6.42133333,1.22666667 6.30933333,1.248 6.20266667,1.28 C5.79733334,1.40266667 5.48266667,1.61066667 5.35466667,2.05866667 C5.008,3.312 4.63466667,4.56 4.26666667,5.81333333 C4.208,6.02133333 4.208,6.22933333 4.27733333,6.432 C4.42133333,6.86933333 4.90666666,7.20533333 5.40266667,7.20533333 L8.10133333,7.20533333 C8.992,7.20533333 9.88266666,7.21066666 10.7733333,7.20533333 Z" id="形状"></path>
            </g>
        </g>
    </g>
</svg>