<?xml version="1.0" encoding="UTF-8"?>
<svg width="72px" height="36px" viewBox="0 0 72 36" version="1.1" xmlns="http://www.w3.org/2000/svg" xmlns:xlink="http://www.w3.org/1999/xlink">
    <title>编组</title>
    <g id="页面-1" stroke="none" stroke-width="1" fill="none" fill-rule="evenodd" stroke-linecap="round">
        <g id="我的持有" transform="translate(-294, -402)">
            <g id="编组" transform="translate(295, 402)">
                <line x1="0" y1="34.9659158" x2="70.4415283" y2="34.9659158" id="路径备份-2" stroke="#F3F1F0" stroke-width="0.5" stroke-dasharray="2,2"></line>
                <polyline id="路径备份" stroke="#F13A3C" stroke-linejoin="round" points="0 32.7389727 6.92487872 7.26930208 10.3197373 16.8561768 12.6284564 10.5272898 15.0330912 16.8561768 18.0391764 20.6564515 21.8052647 18.840856 24.0097726 11.9717298 28.2756923 5.33539386 29.0559802 16.8561768 30.8654187 9.71485714 33.2752382 18.840856 39.1852065 1 43.4863817 18.840856 44.518643 14.9659158 45.8894612 16.8694864 46.771368 14.9659158 47.5532114 16.8694864 48.6139882 14.9659158 50.7282833 13.1429394 53.2039477 10.5272898 53.2039477 14.9659158 55.2871351 13.1429394 56.2971025 15.7254074 58.6244862 19.6035162 62.3076527 16.8694864 65.4516169 23.4686634 70.4415283 16.8694864"></polyline>
            </g>
        </g>
    </g>
</svg>