<?xml version="1.0" encoding="UTF-8"?>
<svg width="16px" height="16px" viewBox="0 0 16 16" version="1.1" xmlns="http://www.w3.org/2000/svg" xmlns:xlink="http://www.w3.org/1999/xlink">
    <title>Icon/充值</title>
    <g id="页面-1" stroke="none" stroke-width="1" fill="none" fill-rule="evenodd">
        <g id="我的团队-2" transform="translate(-24, -180)" fill="#01A25E" fill-rule="nonzero">
            <g id="Icon/充值" transform="translate(24, 180)">
                <path d="M15.1257532,9.16320935 L14.5568053,9.16320935 C14.4581655,9.16320935 14.4124932,9.14574856 14.3962757,9.13739297 C14.3258291,8.77135606 14.1461931,8.23199097 13.6918832,7.70692365 C13.272056,7.22158649 12.7112809,6.85569584 12.0229048,6.61731476 C12.039104,6.02064901 12.2068008,5.5365917 12.568212,4.7004844 C12.6076313,4.6092677 12.5848317,4.50693462 12.5091195,4.43449513 C12.4333159,4.36212879 12.316941,4.3316501 12.2069471,4.35534558 C11.0177842,4.61127888 10.1807262,5.1553794 9.65542114,6.01565757 C9.03516959,5.90151329 8.38974155,5.84373724 7.73319712,5.84373724 C5.90083682,5.84373724 4.35980679,6.27758789 3.02196199,7.17006339 C2.43966711,7.5586988 1.99287171,8.06317883 1.69397204,8.66931548 C1.66268886,8.73266802 1.6332706,8.79709929 1.60538817,8.86237161 C1.49382188,8.82973544 1.31116909,8.76616351 1.13272152,8.65993601 C0.786924514,8.45386199 0.611566866,8.18096154 0.611566866,7.84878579 C0.611566866,7.50962571 0.803836804,7.22804057 1.11330438,7.11373175 C1.26838555,7.05652248 1.3399657,6.90241034 1.27310271,6.76945227 C1.20633115,6.6365125 1.02632947,6.57518943 0.871284873,6.6325084 C0.342012316,6.82792311 0,7.30527035 0,7.84878579 C0,8.36229791 0.277654174,8.79550863 0.802904336,9.10152061 C1.04265668,9.24129845 1.28282955,9.32291627 1.43045104,9.36476735 C1.30402022,9.82375789 1.25311877,10.3202114 1.27902658,10.8485515 C1.34603583,12.2213362 2.49855846,13.2097273 3.18102897,13.6774757 C3.18892746,13.6827962 3.19713679,13.6882995 3.2058032,13.694004 C3.30601539,13.7602819 3.32985717,13.7759875 3.29067548,13.879765 C3.18291216,14.1640927 2.98544969,14.5700061 2.98338366,14.574065 C2.9822318,14.5765333 2.9810068,14.579093 2.97989151,14.581671 C2.89366623,14.7753487 2.90092481,14.9863959 3.00022282,15.176033 C3.09959398,15.3659261 3.27908371,15.5109513 3.50579988,15.5847072 L4.63062291,15.9492083 C4.73394331,15.9829597 4.8420723,16 4.95213934,16 C5.32673295,16 5.66783109,15.7984969 5.80042347,15.4994326 C5.801941,15.4961416 5.95192106,15.1613513 6.07240974,14.8857449 C6.09312502,14.8391035 6.10868432,14.8109834 6.11914253,14.7945282 C6.17011711,14.7983128 6.25168008,14.8129763 6.34395721,14.829468 C6.62504868,14.8800038 7.04968442,14.9561183 7.73317883,14.9561183 C8.35028562,14.9561183 8.76897919,14.9177228 9.04606656,14.8923635 C9.18046903,14.8800769 9.28658682,14.8703684 9.35728936,14.8703684 C9.36941136,14.8703684 9.3789371,14.8706243 9.38639678,14.8710814 C9.39316169,14.8830023 9.40277884,14.9024926 9.41497399,14.9332455 C9.52070784,15.2029646 9.64799798,15.4644561 9.66695804,15.5031625 C9.80062917,15.8005629 10.1398624,16 10.5134321,16 C10.6235174,16 10.7317378,15.9829597 10.8351314,15.9493545 L11.9590037,15.5847254 C12.1862135,15.5110975 12.3662517,15.3657615 12.4658423,15.1756307 C12.5651586,14.9860302 12.5722343,14.774983 12.4863016,14.5824937 L12.3060257,14.1734904 C12.2999738,14.1598143 12.292569,14.146449 12.2839757,14.1338882 C12.2838843,14.1338517 12.2832809,14.1124599 12.2837746,14.1107778 C12.2872851,14.1001002 12.3104869,14.0738267 12.3757409,14.0434577 C13.1936195,13.6622089 13.8465255,13.0666767 14.2643049,12.3204149 C14.343747,12.1774191 14.389529,12.1233546 14.5568236,12.1233546 L15.1258629,12.1233546 C15.6078176,12.1233546 16,11.787577 16,11.3749719 L16,9.91283541 C16,9.49946233 15.6077993,9.16320935 15.1257532,9.16320935 Z M8.46686166,12.3432144 C8.38381771,12.400058 8.27846784,12.4285438 8.1507023,12.4285438 L6.80923735,12.4285438 L6.80923735,12.8077449 C6.80923735,12.9214869 6.76122472,13.0320476 6.66551027,13.139555 C6.56963126,13.2469343 6.44508364,13.2944351 6.29177598,13.2817463 C6.13852315,13.2817463 6.01066621,13.2469343 5.90851594,13.177402 C5.80625597,13.1078879 5.74877246,12.9846384 5.73608366,12.8077266 L5.73608366,12.4285255 L4.43288621,12.4285255 C4.30513897,12.4285255 4.19967937,12.3937319 4.11670857,12.3241813 C4.03368293,12.2546489 3.99846878,12.1693195 4.01126727,12.0682297 C4.01126727,11.9544876 4.05282581,11.8628321 4.13583317,11.7933363 C4.2188954,11.7237674 4.31795573,11.6890652 4.43288621,11.6890652 L5.73608366,11.6890652 L5.73608366,11.0254267 L4.43288621,11.0254267 C4.30513897,11.0254267 4.20289728,10.9874335 4.1262343,10.9116116 C4.04964445,10.8357531 4.01126727,10.7473155 4.01126727,10.6461708 C4.01126727,10.545081 4.05282581,10.4502076 4.13583317,10.3618249 C4.2188954,10.2732776 4.31795573,10.2290496 4.43288621,10.2290496 L5.73608366,10.2290496 L5.75517171,9.83088849 C5.5252742,9.603313 5.31446472,9.38840801 5.12285299,9.18617353 C4.95671027,9.00922522 4.80336602,8.84491085 4.66282029,8.69328527 L4.37543926,8.42778967 C4.31151994,8.35198603 4.25407297,8.24760516 4.20289728,8.11490308 C4.151813,7.98214614 4.17739171,7.8462627 4.27954198,7.7072162 C4.3945273,7.58084023 4.53507303,7.54611974 4.70119749,7.60298161 C4.86723053,7.65986178 5.00135873,7.73252064 5.10361869,7.82104965 C5.15470297,7.88427421 5.24416443,7.97901964 5.37191167,8.10541389 L5.77433286,8.50357502 L6.29175766,9.01560617 C6.50892981,8.81333513 6.70695906,8.63007899 6.88580888,8.46570976 C7.03913484,8.32660841 7.19247907,8.19072499 7.34584158,8.05804119 C7.49903955,7.92528425 7.60769875,7.83370188 7.67154496,7.78309297 C7.78651199,7.68202144 7.91427753,7.6314674 8.054805,7.6314674 C8.19536902,7.6314674 8.31028122,7.68831099 8.39976096,7.80205303 C8.56583055,7.99167186 8.50192951,8.21290296 8.20816751,8.46572806 C8.13152281,8.52889777 8.0165192,8.63949503 7.86319327,8.79753814 C7.70984903,8.95556296 7.55652308,9.11033332 7.40328855,9.26203204 C7.22432905,9.45165087 7.02631807,9.64755922 6.80921905,9.849812 L6.80921907,10.2101078 L8.05478674,10.2101078 C8.23365483,10.2101078 8.36454685,10.251191 8.44762735,10.333339 C8.53072615,10.4155237 8.57219326,10.5071243 8.57219326,10.608269 C8.57219326,10.7220293 8.53392576,10.8200292 8.45722623,10.9021407 C8.38059982,10.9842887 8.25279771,11.0191006 8.07400276,11.0064484 L6.82830711,11.0254267 L6.80921907,11.6700686 L8.03562556,11.6700686 C8.39338001,11.6700686 8.57221154,11.8028438 8.57221154,12.0682297 C8.58502832,12.1946605 8.54992388,12.286316 8.46686166,12.3432144 Z M12.0150794,10.292073 C11.6447641,10.292073 11.3450234,10.0145286 11.3450234,9.67246139 C11.3450234,9.33075989 11.6447824,9.05348968 12.0150794,9.05348968 C12.3842794,9.05348968 12.6831242,9.33074162 12.6831242,9.67246139 C12.6831242,10.0145469 12.3842977,10.292073 12.0150794,10.292073 Z M8.82019149,4.90372448 C9.03401775,4.45654512 9.15388477,3.95583148 9.15388477,3.42708915 C9.15388477,1.53435652 7.61949167,0 5.72672249,0 C3.83393501,0 2.29954192,1.53435652 2.29954192,3.42708915 C2.29954192,4.34956799 2.66413443,5.18680885 3.25692407,5.80287349 C4.13016529,5.30532291 5.94245024,4.58974086 8.82019149,4.90372448 Z M6.86904289,4.56983006 L4.5844021,4.56983006 L4.5844021,2.28434823 L6.86904289,2.28434823 L6.86904289,4.56983006 Z" id="形状"></path>
            </g>
        </g>
    </g>
</svg>