<?xml version="1.0" encoding="UTF-8"?>
<svg width="73px" height="30px" viewBox="0 0 73 30" version="1.1" xmlns="http://www.w3.org/2000/svg" xmlns:xlink="http://www.w3.org/1999/xlink">
    <title>编组</title>
    <g id="页面-1" stroke="none" stroke-width="1" fill="none" fill-rule="evenodd" stroke-linecap="round">
        <g id="首页-政企热门" transform="translate(-121, -724)">
            <g id="编组" transform="translate(122, 725.3034)">
                <line x1="0" y1="27.6966137" x2="70.4415283" y2="27.6966137" id="路径备份-6" stroke="#F3F1F0" stroke-width="0.5" stroke-dasharray="2,2"></line>
                <polyline id="路径备份-5" stroke="#F13A3C" stroke-linejoin="round" points="0 25.4696706 6.92487872 0 7.85380532 4.66147981 9.38718926 12.7348353 14.5249153 11.7783329 15.788031 13.6516906 17.6211931 10.8684511 21.712007 4.66147981 24.7053597 6.23865104 25.9392423 3.69171287 26.9465679 7.69661372 31.550789 3.69171287 33.712215 7.69661372 35.3964594 4.66147981 38.2189922 4.66147981 40.0564175 7.69661372 42.0661965 3.69171287 44.7854885 9.23626694 46.8464255 9.23626694 46.8464255 10.8684511 48.4128352 10.8684511 48.4128352 11.7783329 51.6528426 6.23865104 57.2004418 12.7348353 58.37464 15.5335746 59.976982 6.23865104 63.8972692 17.6966137 67.4600593 12.7348353 68.8863934 21.8716869 70.7929188 15.5335746"></polyline>
            </g>
        </g>
    </g>
</svg>