<?xml version="1.0" encoding="UTF-8"?>
<svg width="12px" height="12px" viewBox="0 0 12 12" version="1.1" xmlns="http://www.w3.org/2000/svg" xmlns:xlink="http://www.w3.org/1999/xlink">
    <title>Icon/热门</title>
    <g id="页面-1" stroke="none" stroke-width="1" fill="none" fill-rule="evenodd">
        <g id="首页-政企热门" transform="translate(-18, -104)" fill="#FFFFFF" fill-rule="nonzero">
            <g id="Icon/热门" transform="translate(18, 104)">
                <path d="M10.8145942,5.85018049 C10.1778927,4.38751341 9.51958725,3.59410701 9.28386789,2.96024883 C9.03333244,2.28655587 9.28038339,1.71279832 9.28038339,1.71279832 C8.75772253,1.60826337 8.36920094,2.10715994 8.07591766,2.61324852 C7.89443103,2.92640739 7.65737362,4.82458104 7.28626058,5.29061183 C7.22305177,5.36997476 7.0975262,5.35055914 7.06229095,5.25541839 C5.79457459,1.83216332 6.47420515,0 6.47420515,0 C4.48006839,0.752609879 3.98386185,2.69948289 3.88906955,3.00087808 C3.70593824,3.58313779 3.78337774,5.79711855 3.78337774,5.79711855 C3.77550277,5.94849911 3.5697501,5.98749761 3.50702912,5.84949753 C3.50702912,5.84949753 2.98152491,4.55412821 2.92037893,3.84324866 C2.87031365,3.26132345 2.8660765,3.38254219 2.8660765,3.38254219 C1.96281084,4.21780439 0.96,6.10921811 0.96,7.37979176 C0.96,9.93146223 3.21105581,12 5.98788064,12 C8.76470548,12 11.0157613,9.93146223 11.0157613,7.37979176 C11.0157613,6.83547126 11.0157613,6.31233652 10.8145942,5.85018049 Z" id="路径"></path>
            </g>
        </g>
    </g>
</svg>