<?xml version="1.0" encoding="UTF-8"?>
<svg width="72px" height="35px" viewBox="0 0 72 35" version="1.1" xmlns="http://www.w3.org/2000/svg" xmlns:xlink="http://www.w3.org/1999/xlink">
    <title>编组</title>
    <g id="页面-1" stroke="none" stroke-width="1" fill="none" fill-rule="evenodd" stroke-linecap="round">
        <g id="首页-政企热门" transform="translate(-121, -838)">
            <g id="编组" transform="translate(122, 838.1912)">
                <line x1="0" y1="33.8088473" x2="70.4415283" y2="33.8088473" id="路径备份-8" stroke="#F3F1F0" stroke-width="0.5" stroke-dasharray="2,2"></line>
                <polyline id="路径备份-7" stroke="#F13A3C" stroke-linejoin="round" points="0 31.5819042 6.92487872 6.11223355 7.85380532 10.7737134 10.2798571 2.62575064 11.2592741 6.30884727 13.4549416 4.16575125 14.9126922 7.5070859 16.6416929 4.16575125 18.0411101 7.5070859 20.7565279 4.16575125 22.9049454 7.5070859 25.8175298 10.7737134 28.4471976 10.7737134 29.612698 13.0598381 31.7605322 10.7737134 34.1743665 14.9370055 36.8238675 12.2624211 39.3182018 17.1038274 43.5806202 5.28983502 47.9795386 14.9370055 49.2821224 10.7737134 51.1966232 16.0138392 53.6442908 13.8088473 55.3242915 17.1038274 57.540959 13.8088473 59.2664597 1 64.9183786 10.7737134 66.3872125 10.7737134 68.0660465 12.2624211 70.4415283 9.91100351 70.4415283 13.8088473"></polyline>
            </g>
        </g>
    </g>
</svg>