<?xml version="1.0" encoding="UTF-8"?>
<svg width="72px" height="38px" viewBox="0 0 72 38" version="1.1" xmlns="http://www.w3.org/2000/svg" xmlns:xlink="http://www.w3.org/1999/xlink">
    <title>编组</title>
    <g id="页面-1" stroke="none" stroke-width="1" fill="none" fill-rule="evenodd" stroke-linecap="round">
        <g id="首页-政企热门" transform="translate(-121, -598)">
            <g id="编组" transform="translate(122, 599.1481)">
                <line x1="0" y1="35.8518528" x2="70.4415283" y2="35.8518528" id="路径备份-4" stroke="#F3F1F0" stroke-width="0.5" stroke-dasharray="2,2"></line>
                <path d="M0,33.6249097 L6.92487872,8.15523906 L7.85380532,12.8167189 L10.3421388,1.85265087 L12.685054,11.5732822 L15.024924,5.16025996 L18.9933241,17.7387803 L27.6134491,1.13686838e-13 L29.6110477,9.63536796 L31.6987818,6.06100638 L32.7262052,9.63536796 L33.6957713,13.8875732 L36.5935073,16.8124548 L38.4565116,17.7387803 L41.1971194,17.7387803 L42.153896,19.9144742 L43.8664713,17.7387803 L45.2446925,19.9144742 L47.1265766,18.6008096 L49.0620547,21.3274098 C49.9382371,19.5525404 50.3763284,18.3563306 50.3763284,17.7387803 C50.3763284,17.12123 51.2204356,17.4085731 52.90865,18.6008096 L55.9659502,18.6008096 L61.0098866,8.15523906 L65.5008292,16.8124548 L66.919855,12.8167189 L68.7377915,17.7387803 L70.4415283,13.8875732" id="路径备份-3" stroke="#F13A3C" stroke-linejoin="round"></path>
            </g>
        </g>
    </g>
</svg>