<?xml version="1.0" encoding="UTF-8"?>
<svg width="366px" height="74px" viewBox="0 0 366 74" version="1.1" xmlns="http://www.w3.org/2000/svg" xmlns:xlink="http://www.w3.org/1999/xlink">
    <title>形状结合</title>
    <g id="页面-1" stroke="none" stroke-width="1" fill="none" fill-rule="evenodd">
        <g id="收货地址-2备份-3" transform="translate(-12, -456)" fill="#FFFFFF" stroke="#F0EFF1">
            <path d="M370,456.5 C372.071068,456.5 373.946068,457.339466 375.303301,458.696699 C376.660534,460.053932 377.5,461.928932 377.5,464 L377.5,486.518945 C375.904398,486.640324 374.469824,487.337787 373.403806,488.403806 C372.227537,489.580075 371.5,491.205075 371.5,493 C371.5,494.794925 372.227537,496.419925 373.403806,497.596194 C374.469824,498.662213 375.904398,499.359676 377.5,499.481055 L377.5,522 C377.5,524.071068 376.660534,525.946068 375.303301,527.303301 C373.946068,528.660534 372.071068,529.5 370,529.5 L20,529.5 C17.9289322,529.5 16.0539322,528.660534 14.6966991,527.303301 C13.3394661,525.946068 12.5,524.071068 12.5,522 L12.5,499.481055 C14.0956015,499.359676 15.5301755,498.662213 16.5961941,497.596194 C17.7724627,496.419925 18.5,494.794925 18.5,493 C18.5,491.205075 17.7724627,489.580075 16.5961941,488.403806 C15.5301755,487.337787 14.0956015,486.640324 12.5,486.518945 L12.5,464 C12.5,461.928932 13.3394661,460.053932 14.6966991,458.696699 C16.0539322,457.339466 17.9289322,456.5 20,456.5 Z" id="形状结合"></path>
        </g>
    </g>
</svg>