<?xml version="1.0" encoding="UTF-8"?>
<svg width="20px" height="20px" viewBox="0 0 20 20" version="1.1" xmlns="http://www.w3.org/2000/svg" xmlns:xlink="http://www.w3.org/1999/xlink">
    <title>Icon/加息券</title>
    <g id="页面-1" stroke="none" stroke-width="1" fill="none" fill-rule="evenodd">
        <g id="收货地址-2备份-3" transform="translate(-24, -333)" fill="#FFFFFF" fill-rule="nonzero">
            <g id="Icon/加息券" transform="translate(24, 333)">
                <path d="M17.2962455,1 C18.7879988,1 20,2.21188959 20,3.70449782 L20,7.16312883 C20,8.07195249 19.7590546,8.64269897 18.9588539,9.17361455 L18.8786781,9.22157218 C18.1225338,9.62715995 18.0544502,9.71498821 18.0544598,10.0830808 C18.0544598,10.4483384 18.1400058,10.5596049 18.8383842,10.9187369 L18.9758426,11.0041479 C19.7021645,11.541527 20,12.0766772 20,13.0003896 L20,16.3772228 C20,17.8691153 18.7877649,19.0825673 17.2962662,19.0825673 L2.7036512,19.0825673 C1.21223015,19.0825673 0,17.8690898 0,16.3772228 L0,13.0003689 C0,12.2353219 0.297697246,11.4701278 1.0995359,10.9689131 L1.20712223,10.9104999 L1.26041875,10.8856585 L1.36152986,10.8450789 C1.82095776,10.6891718 1.94545761,10.5554738 1.94545761,10.0830808 C1.94545761,9.77285394 1.64918979,9.47351745 1.15382802,9.23867668 C0.271138585,8.76358973 0,8.12370899 0,7.16310819 L0,3.70449784 C0,2.21191479 1.21195532,1 2.70363054,1 L17.2962455,1 Z M17.2962455,3 L2.70363054,3 C2.31650985,3 2,3.31649926 2,3.70449784 L2,7.16310819 C2,7.46173141 1.97864088,7.41132439 2.05376872,7.45339667 C3.12902792,7.95969746 3.94545761,8.78458355 3.94545761,10.0830808 C3.94545761,11.5320952 3.19920126,12.3334858 2.00423247,12.738999 L2.117,12.698 L2.09972442,12.7129314 C2.04742127,12.7665953 2.01747786,12.8363807 2.0057751,12.9167191 L2,13.0003689 L2,16.3772228 C2,16.7649805 2.31726036,17.0825673 2.7036512,17.0825673 L17.2962662,17.0825673 C17.682746,17.0825673 18,16.7649948 18,16.3772228 L18.0005494,12.8681234 C17.9981306,12.7526017 17.9720493,12.749367 17.7862984,12.6119367 L17.847,12.656 L17.7128006,12.5847153 C16.6241345,11.9803068 16.1157421,11.3105291 16.0596983,10.2805259 L16.0544598,10.0831069 C16.054428,8.86945564 16.5885666,8.18041432 17.9333109,7.45910775 L17.895,7.48 L17.9041443,7.47443824 C18.0071599,7.4105233 18.0032877,7.41999944 18.0007101,7.24846672 L18,3.70449782 C18,3.31650031 17.6834706,3 17.2962455,3 Z" id="路径"></path>
                <path d="M13.1635446,9.29722642 C13.1635446,9.56662067 12.944783,9.78624944 12.6762354,9.78624944 L10.732595,9.78624944 L10.732595,10.2681484 L12.6762354,10.2681484 C12.944783,10.2681484 13.1635446,10.4877772 13.1635446,10.7571714 L13.1635446,11.242684 C13.1635446,11.5120783 12.944783,11.7335242 12.6762354,11.7335242 L10.732595,11.7335242 L10.732595,13.1890708 C10.732595,13.4593324 10.5138335,13.6771646 10.243572,13.6771646 L9.75634543,13.6771646 C9.4860013,13.6771646 9.26721915,13.4593324 9.26721915,13.1890708 L9.26721915,11.7335242 L7.3235787,11.7335242 C7.05513432,11.7335242 6.83635217,11.5120782 6.83635217,11.242684 L6.83635217,10.7571714 C6.83635217,10.4877772 7.05513432,10.2681484 7.3235787,10.2681484 L9.26721915,10.2681484 L9.26721915,9.78624944 L7.3235787,9.78624944 C7.05513432,9.78624944 6.83635217,9.56662065 6.83635217,9.29722642 L6.83635217,8.81173446 C6.83635217,8.54234021 7.05513432,8.32269077 7.3235787,8.32269077 L8.6022205,8.32269077 L6.98564854,6.58802394 C6.81493858,6.39856417 6.81493858,6.10337862 6.98564854,5.91581859 L7.29510295,5.57875572 C7.46581291,5.3938595 7.79659832,5.39032843 7.9673083,5.57875572 L9.99811055,7.75811097 L12.0289128,5.57706246 C12.1979295,5.392063 12.5322047,5.392063 12.7011182,5.57877637 L13.0141036,5.91850304 C13.1848136,6.10788021 13.1848136,6.40486228 13.0141036,6.59242229 L11.4030038,8.32269077 L12.6762354,8.32269077 C12.944783,8.32269077 13.1635446,8.54231956 13.1635446,8.81173446 L13.1635446,9.29722642 Z" id="路径"></path>
            </g>
        </g>
    </g>
</svg>