<?xml version="1.0" encoding="UTF-8"?>
<svg width="28px" height="28px" viewBox="0 0 28 28" version="1.1" xmlns="http://www.w3.org/2000/svg" xmlns:xlink="http://www.w3.org/1999/xlink">
    <title>Icon/签到</title>
    <g id="页面-1" stroke="none" stroke-width="1" fill="none" fill-rule="evenodd">
        <g id="收货地址备份-2" transform="translate(-181, -174)" fill="#FFBF3D" fill-rule="nonzero">
            <g id="Icon/签到" transform="translate(181, 174)">
                <path d="M4.20001367,2.5456 C4.20001367,1.1392 5.32002745,0 6.70002743,0 L21.7000275,0 C23.0808275,0 24.2000396,1.1392 24.2000396,2.5456 L24.2000396,5.29439999 C24.2000396,7.15279998 23.4032275,8.91839999 22.0176274,10.1264 L17.5800275,14 L22.0176274,17.8728 C23.4080441,19.0932525 24.2036264,20.8547325 24.2000396,22.7048 L24.2000396,25.4544 C24.2000396,26.86 23.0800275,28 21.7000275,28 L6.70002743,28 C6.03447058,27.9990238 5.3972938,27.730314 4.93202744,27.2544 C4.46175324,26.7733909 4.19892859,26.1271008 4.20001367,25.4544 L4.20001367,22.7056 C4.20001367,20.848 4.99762743,19.0832 6.38242745,17.8736 L10.8200274,14 L6.38242745,10.1272 C4.99180042,8.90656361 4.1961975,7.14474646 4.20001367,5.29439999 L4.20001367,2.5456 Z M12.8576274,17.2096 L10.1904274,20.0096 C9.80962742,20.4104 9.69522744,21.0128 9.90162745,21.5352 C10.1080275,22.0584 10.5936274,22.3992 11.1336274,22.3992 L16.4672275,22.3992 C17.0064275,22.3992 17.4920275,22.0584 17.6992274,21.5352 C17.9057719,21.0134459 17.7930007,20.4193718 17.4096274,20.0096 L14.7424274,17.2096 C14.4986708,16.9483036 14.1573692,16.7999403 13.8000274,16.7999403 C13.4426857,16.7999403 13.101384,16.9483036 12.8576274,17.2096 L12.8576274,17.2096 Z" id="形状"></path>
            </g>
        </g>
    </g>
</svg>