<?xml version="1.0" encoding="UTF-8"?>
<svg width="26px" height="26px" viewBox="0 0 26 26" version="1.1" xmlns="http://www.w3.org/2000/svg" xmlns:xlink="http://www.w3.org/1999/xlink">
    <title>编组</title>
    <defs>
        <rect id="path-1" x="0" y="0" width="16" height="16"></rect>
    </defs>
    <g id="页面-1" stroke="none" stroke-width="1" fill="none" fill-rule="evenodd">
        <g id="基金-购买-2" transform="translate(-12, -364)">
            <g id="Bar/home/TOP" transform="translate(0, 355)">
                <g id="编组" transform="translate(12, 9)">
                    <g transform="translate(-12, -9)">
                        <path d="M33.7928932,9.5 L37.5,13.2071068 L37.5,30.7928932 L33.7928932,34.5 L16.2071068,34.5 L12.5,30.7928932 L12.5,13.2071068 L16.2071068,9.5 L33.7928932,9.5 Z" id="矩形-5" stroke="#4297FE"></path>
                        <path d="M25,33 L17,33 L14,30 L14,23 L14,23" id="路径" stroke="#4297FE"></path>
                        <path d="M36,21 L28,21 L25,18 L25,11 L25,11" id="路径备份-2" stroke="#4297FE" transform="translate(30.5, 16) scale(-1, -1) translate(-30.5, -16)"></path>
                        <polygon id="矩形-6" fill="#4297FE" points="12 9 14 9 12 11"></polygon>
                        <polygon id="矩形-6备份" fill="#4297FE" points="36 9 38 9 38 11"></polygon>
                        <polygon id="矩形-6备份-3" fill="#4297FE" transform="translate(13, 34) scale(1, -1) translate(-13, -34)" points="12 33 14 33 12 35"></polygon>
                        <polygon id="矩形-6备份-2" fill="#4297FE" transform="translate(37, 34) scale(1, -1) translate(-37, -34)" points="36 33 38 33 38 35"></polygon>
                    </g>
                    <g id="Icon/客服备份" transform="translate(5, 5)">
                        <mask id="mask-2" fill="white">
                            <use xlink:href="#path-1"></use>
                        </mask>
                        <g id="矩形"></g>
                        <polygon id="路径" fill="#4297FE" fill-rule="nonzero" mask="url(#mask-2)" points="10.6343146 1.83431458 11.7656854 2.96568542 6.732 8 11.7656854 13.0343146 10.6343146 14.1656854 5.03431458 8.56568542 4.46862915 8 5.03431458 7.43431458"></polygon>
                    </g>
                </g>
            </g>
        </g>
    </g>
</svg>