<?xml version="1.0" encoding="UTF-8"?>
<svg width="26px" height="26px" viewBox="0 0 26 26" version="1.1" xmlns="http://www.w3.org/2000/svg" xmlns:xlink="http://www.w3.org/1999/xlink">
    <title>编组</title>
    <g id="页面-1" stroke="none" stroke-width="1" fill="none" fill-rule="evenodd">
        <g id="银行卡管理-2" transform="translate(-352, -53)">
            <g id="Bar/home/TOP" transform="translate(0, 44)">
                <g id="编组" transform="translate(352, 9)">
                    <g id="编组备份" transform="translate(-12, -9)">
                        <path d="M33.7928932,9.5 L37.5,13.2071068 L37.5,30.7928932 L33.7928932,34.5 L16.2071068,34.5 L12.5,30.7928932 L12.5,13.2071068 L16.2071068,9.5 L33.7928932,9.5 Z" id="矩形-5" stroke="#4297FE"></path>
                        <path d="M25,33 L17,33 L14,30 L14,23 L14,23" id="路径" stroke="#4297FE"></path>
                        <path d="M36,21 L28,21 L25,18 L25,11 L25,11" id="路径备份-2" stroke="#4297FE" transform="translate(30.5, 16) scale(-1, -1) translate(-30.5, -16)"></path>
                        <polygon id="矩形-6" fill="#4297FE" points="12 9 14 9 12 11"></polygon>
                        <polygon id="矩形-6备份" fill="#4297FE" points="36 9 38 9 38 11"></polygon>
                        <polygon id="矩形-6备份-3" fill="#4297FE" transform="translate(13, 34) scale(1, -1) translate(-13, -34)" points="12 33 14 33 12 35"></polygon>
                        <polygon id="矩形-6备份-2" fill="#4297FE" transform="translate(37, 34) scale(1, -1) translate(-37, -34)" points="36 33 38 33 38 35"></polygon>
                    </g>
                    <g id="Icon/客服" transform="translate(6, 6)" fill="#4297FE">
                        <path d="M7,0 C10.7969577,0 13.8878378,3.0230773 13.9970156,6.79360714 L14,7 C14,10.8659932 10.8659932,14 7,14 C3.13400675,14 0,10.8659932 0,7 C0,3.13400675 3.13400675,0 7,0 Z M7,1.4 C3.9072054,1.4 1.4,3.9072054 1.4,7 C1.4,10.0927946 3.9072054,12.6 7,12.6 C10.0927946,12.6 12.6,10.0927946 12.6,7 L12.5976021,6.83412794 C12.5101035,3.81230475 10.0311526,1.4 7,1.4 Z" id="路径" fill-rule="nonzero"></path>
                        <rect id="矩形" fill-rule="evenodd" x="3.5" y="6.3" width="7" height="1.4" rx="0.7"></rect>
                        <rect id="矩形备份" fill-rule="evenodd" x="6.3" y="3.5" width="1.4" height="7" rx="0.7"></rect>
                    </g>
                </g>
            </g>
        </g>
    </g>
</svg>