<?xml version="1.0" encoding="UTF-8"?>
<svg width="44px" height="44px" viewBox="0 0 44 44" version="1.1" xmlns="http://www.w3.org/2000/svg" xmlns:xlink="http://www.w3.org/1999/xlink">
    <title>编组</title>
    <defs>
        <linearGradient x1="7.61890551e-13%" y1="50%" x2="100%" y2="50%" id="linearGradient-1">
            <stop stop-color="#EF984B" offset="0%"></stop>
            <stop stop-color="#EF7A4E" offset="100%"></stop>
        </linearGradient>
    </defs>
    <g id="页面-1" stroke="none" stroke-width="1" fill="none" fill-rule="evenodd">
        <g id="银行卡管理-2" transform="translate(-79, -690)">
            <g id="编组" transform="translate(79, 690)">
                <rect id="矩形-3" fill="url(#linearGradient-1)" x="0" y="0" width="44" height="44" rx="12"></rect>
                <path d="M23.8479141,11 C26.0432073,11 27.7657783,11 29.1248547,11.1522022 C30.5125808,11.3097763 31.6388773,11.6356681 32.573578,12.3751919 C32.8529138,12.5954374 33.1125529,12.8407516 33.348914,13.1039719 C34.1439468,13.9974885 34.4984884,15.077229 34.6685968,16.4040742 C34.686503,16.5562765 34.6972466,16.6332729 34.6793405,16.6995256 C34.650235,16.8089418 34.5722661,16.8988042 34.468048,16.9430492 C34.4035859,16.9681178 34.3230082,16.9681178 34.1618529,16.9681178 L9.83814706,16.9681178 C9.67699177,16.9681178 9.59641412,16.9681178 9.53374262,16.9430492 C9.42798685,16.899929 9.3484855,16.8098274 9.31886889,16.6995256 C9.30546178,16.6010792 9.30970624,16.5010313 9.33140319,16.4040742 C9.49972094,15.0790196 9.85605321,13.9974885 10.651086,13.1039719 C10.8878965,12.8390093 11.147321,12.5951623 11.426422,12.3751919 C12.3611227,11.6356681 13.4856286,11.3097763 14.8733547,11.1522022 C16.2342217,11 17.9567927,11 20.1520859,11 L23.8479141,11 L23.8479141,11 Z M34.8333333,21.5073252 C34.8333333,23.5665318 34.8333333,25.1959909 34.6685968,26.4852332 C34.4984884,27.8102879 34.1439468,28.891819 33.348914,29.783545 C33.1121486,30.0490966 32.8527247,30.2935422 32.573578,30.5141156 C31.6388773,31.2536394 30.5143714,31.5795312 29.1266453,31.7371053 C27.7657783,31.8893075 26.0432073,31.8893075 23.8479141,31.8893075 L20.1520859,31.8893075 C17.9567927,31.8893075 16.232431,31.8893075 14.8733547,31.7371053 C13.4874192,31.5795312 12.3611227,31.2536394 11.426422,30.5141156 C11.1472634,30.2935559 10.8878384,30.0491093 10.651086,29.783545 C9.85605321,28.891819 9.49972094,27.8120785 9.33140319,26.4852332 C9.16666667,25.1959909 9.16666667,23.5665318 9.16666667,21.5073252 L9.16666667,21.3819822 C9.16666667,20.6943863 9.16666667,20.055137 9.17382912,19.4588624 C9.17741035,19.1311799 9.17741035,18.9664434 9.28126599,18.8625878 C9.38870285,18.7587322 9.55343937,18.7587322 9.88470304,18.7587322 L34.115297,18.7587322 C34.4465606,18.7587322 34.6112971,18.7587322 34.7169434,18.8625878 C34.820799,18.9664434 34.8243803,19.1311799 34.8261709,19.4588624 C34.8333333,20.055137 34.8333333,20.6943863 34.8333333,21.3801916 L34.8333333,21.5073252 Z M19.910353,26.2202223 C19.910353,26.7146868 20.3111957,27.1155295 20.8056602,27.1155295 L22.5962746,27.1155295 C23.0907391,27.1155295 23.4915818,26.7146868 23.4915818,26.2202223 C23.4915818,25.7257578 23.0907391,25.3249151 22.5962746,25.3249151 L20.8056602,25.3249151 C20.3111957,25.3249151 19.910353,25.7257578 19.910353,26.2202223 Z M26.1775034,25.3249151 C25.6830389,25.3249151 25.2821962,25.7257578 25.2821962,26.2202223 C25.2821962,26.7146868 25.6830389,27.1155295 26.1775034,27.1155295 L30.3567974,27.1155295 C30.8512619,27.1155295 31.2521046,26.7146868 31.2521046,26.2202223 C31.2521046,25.7257578 30.8512619,25.3249151 30.3567974,25.3249151 L26.1775034,25.3249151 Z" id="形状" fill="#FFFFFF" fill-rule="nonzero"></path>
            </g>
        </g>
    </g>
</svg>