<?xml version="1.0" encoding="UTF-8"?>
<svg width="26px" height="26px" viewBox="0 0 26 26" version="1.1" xmlns="http://www.w3.org/2000/svg" xmlns:xlink="http://www.w3.org/1999/xlink">
    <title>编组</title>
    <g id="页面-1" stroke="none" stroke-width="1" fill="none" fill-rule="evenodd">
        <g id="银行卡管理-2" transform="translate(-352, -615)">
            <g id="Bar/home/TOP" transform="translate(0, 606)">
                <g id="编组" transform="translate(352, 9)">
                    <g id="编组备份" transform="translate(-12, -9)">
                        <path d="M33.7928932,9.5 L37.5,13.2071068 L37.5,30.7928932 L33.7928932,34.5 L16.2071068,34.5 L12.5,30.7928932 L12.5,13.2071068 L16.2071068,9.5 L33.7928932,9.5 Z" id="矩形-5" stroke="#4297FE"></path>
                        <path d="M25,33 L17,33 L14,30 L14,23 L14,23" id="路径" stroke="#4297FE"></path>
                        <path d="M36,21 L28,21 L25,18 L25,11 L25,11" id="路径备份-2" stroke="#4297FE" transform="translate(30.5, 16) scale(-1, -1) translate(-30.5, -16)"></path>
                        <polygon id="矩形-6" fill="#4297FE" points="12 9 14 9 12 11"></polygon>
                        <polygon id="矩形-6备份" fill="#4297FE" points="36 9 38 9 38 11"></polygon>
                        <polygon id="矩形-6备份-3" fill="#4297FE" transform="translate(13, 34) scale(1, -1) translate(-13, -34)" points="12 33 14 33 12 35"></polygon>
                        <polygon id="矩形-6备份-2" fill="#4297FE" transform="translate(37, 34) scale(1, -1) translate(-37, -34)" points="36 33 38 33 38 35"></polygon>
                    </g>
                    <g id="Icon/客服" transform="translate(6, 6)" fill="#4297FE">
                        <path d="M2.1,6.3 L11.9,6.3 C12.2865993,6.3 12.6,6.61340068 12.6,7 C12.6,7.38659932 12.2865993,7.7 11.9,7.7 L2.1,7.7 C1.71340068,7.7 1.4,7.38659932 1.4,7 C1.4,6.61340068 1.71340068,6.3 2.1,6.3 Z" id="矩形" transform="translate(7, 7) rotate(45) translate(-7, -7)"></path>
                        <path d="M7,1.4 C7.38659932,1.4 7.7,1.71340068 7.7,2.1 L7.7,11.9 C7.7,12.2865993 7.38659932,12.6 7,12.6 C6.61340068,12.6 6.3,12.2865993 6.3,11.9 L6.3,2.1 C6.3,1.71340068 6.61340068,1.4 7,1.4 Z" id="矩形备份" transform="translate(7, 7) rotate(45) translate(-7, -7)"></path>
                    </g>
                </g>
            </g>
        </g>
    </g>
</svg>