<?xml version="1.0" encoding="UTF-8"?>
<svg width="16px" height="16px" viewBox="0 0 16 16" version="1.1" xmlns="http://www.w3.org/2000/svg" xmlns:xlink="http://www.w3.org/1999/xlink">
    <title>Icon/显示备份 2</title>
    <g id="页面-1" stroke="none" stroke-width="1" fill="none" fill-rule="evenodd">
        <g id="个人-安全设置-7" transform="translate(-350, -209)" fill="#A9AAAC" fill-rule="nonzero">
            <g id="Icon/显示备份-2" transform="translate(350, 209)">
                <path d="M8,1.84 C10.8729379,1.84 13.4863121,3.70165917 15.8421378,7.42370503 C16.052209,7.75638667 16.0526516,8.18011882 15.8432758,8.51323857 L15.6222163,8.85748608 C13.3253213,12.3553096 10.7845825,14.1042213 8,14.1042213 C5.12706212,14.1042213 2.51368793,12.2425622 0.157862227,8.52051632 C-0.0522090323,8.18783468 -0.0526516223,7.76410253 0.156724204,7.43098277 L0.377783666,7.08673527 C2.67467867,3.58891176 5.21541745,1.84 8,1.84 Z M8,3.37302767 C5.80614468,3.37302767 3.69766749,4.82374104 1.6625676,7.9230093 L1.629,7.974 L1.66361909,8.02674994 C3.62967463,11.0156157 5.66229347,12.4693161 7.77349823,12.5660173 L8,12.5711937 C10.1938553,12.5711937 12.3023325,11.1204803 14.3374324,8.02121205 L14.369219,7.97006664 L14.3363809,7.91747141 C12.3703254,4.92860567 10.3377065,3.47490529 8.22650177,3.37820403 L8,3.37302767 Z M8,4.90605534 C9.6933356,4.90605534 11.0660553,6.27877507 11.0660553,7.97211067 C11.0660553,9.66544628 9.6933356,11.038166 8,11.038166 C6.3066644,11.038166 4.93394466,9.66544628 4.93394466,7.97211067 C4.93394466,6.27877507 6.3066644,4.90605534 8,4.90605534 Z M8,6.43908301 C7.1533322,6.43908301 6.46697233,7.12544287 6.46697233,7.97211067 C6.46697233,8.81877848 7.1533322,9.50513834 8,9.50513834 C8.8466678,9.50513834 9.53302767,8.81877848 9.53302767,7.97211067 C9.53302767,7.12544287 8.8466678,6.43908301 8,6.43908301 Z" id="形状结合"></path>
            </g>
        </g>
    </g>
</svg>