<?xml version="1.0" encoding="UTF-8"?>
<svg width="234px" height="66px" viewBox="0 0 234 66" version="1.1" xmlns="http://www.w3.org/2000/svg" xmlns:xlink="http://www.w3.org/1999/xlink">
    <title>编组</title>
    <defs>
        <linearGradient x1="50%" y1="0%" x2="50%" y2="100%" id="linearGradient-1">
            <stop stop-color="#FFFFFF" offset="0%"></stop>
            <stop stop-color="#FFFFFF" stop-opacity="0" offset="99.7650787%"></stop>
        </linearGradient>
        <text id="text-2" font-family="YEFONTGJH" font-size="24" font-weight="normal" line-spacing="30" fill="#FFFFFF">
            <tspan x="46" y="53">大奖一触即发</tspan>
        </text>
        <filter x="-2.8%" y="-6.7%" width="105.6%" height="136.7%" filterUnits="objectBoundingBox" id="filter-3">
            <feOffset dx="0" dy="2" in="SourceAlpha" result="shadowOffsetOuter1"></feOffset>
            <feGaussianBlur stdDeviation="1" in="shadowOffsetOuter1" result="shadowBlurOuter1"></feGaussianBlur>
            <feColorMatrix values="0 0 0 0 0   0 0 0 0 0   0 0 0 0 0  0 0 0 0.128441871 0" type="matrix" in="shadowBlurOuter1"></feColorMatrix>
        </filter>
        <text id="text-4" font-family="YEFONTGJH" font-size="24" font-weight="normal" line-spacing="30" fill="#FFFFFF">
            <tspan x="70" y="24">总奖金池</tspan>
        </text>
        <filter x="-4.2%" y="-6.7%" width="108.3%" height="136.7%" filterUnits="objectBoundingBox" id="filter-5">
            <feOffset dx="0" dy="2" in="SourceAlpha" result="shadowOffsetOuter1"></feOffset>
            <feGaussianBlur stdDeviation="1" in="shadowOffsetOuter1" result="shadowBlurOuter1"></feGaussianBlur>
            <feColorMatrix values="0 0 0 0 0   0 0 0 0 0   0 0 0 0 0  0 0 0 0.128441871 0" type="matrix" in="shadowBlurOuter1"></feColorMatrix>
        </filter>
    </defs>
    <g id="页面-1" stroke="none" stroke-width="1" fill="none" fill-rule="evenodd">
        <g id="首页" transform="translate(-78, -182)">
            <g id="编组" transform="translate(77, 182)">
                <path d="M212.394935,6 C212.443168,6.14397953 212.578297,6.14797686 212.694057,6.19036371 C214.798232,6.9614725 217.701949,7.80732394 218.10952,10.4144922 C218.146675,10.6521452 218.058197,11.002704 218.154438,11.1981964 C218.199656,11.2900597 218.431628,11.3937642 218.533521,11.4968653 C219.901386,12.880547 221.270456,14.2328534 222.447348,15.7921163 C222.553687,15.7403772 222.437249,15.6050711 222.396251,15.5418679 C222.027342,14.9727377 221.507327,14.4831018 221.143919,13.856953 C220.116476,12.0867364 219.727369,9.72664872 219.846068,7.69170288 C219.85888,7.4729807 219.952031,6.5797646 220.038474,6.45283032 C220.139387,6.30455177 220.264416,6.42417017 220.371283,6.49484006 C222.361055,7.81049164 224.201229,12.3148108 223.37109,14.6078488 C223.280652,14.8577201 222.825527,15.4722539 222.817613,15.5251998 C222.804877,15.6111048 222.920034,16.3767833 222.957038,16.4874265 C223.108822,16.9407094 224.307644,18.502989 224.653718,19.0836587 C224.93347,19.5530063 225.182851,20.0468659 225.422134,20.5374824 C225.562085,20.5547539 225.48137,20.3841506 225.463132,20.3082766 C224.885915,17.9117604 224.565541,16.1899644 225.364028,13.7392201 C225.420099,13.567033 225.892558,12.3777877 225.95707,12.3375881 C226.276766,12.1384001 226.67876,13.0935372 226.789772,13.3310393 C227.721126,15.324805 228.585707,19.361813 227.466696,21.3415503 C227.25251,21.7204676 226.691799,22.1116032 226.693683,22.4575614 C226.697602,23.1929204 226.827756,23.4125476 227.060029,24.0584568 C227.497595,25.2752309 227.94315,26.499698 228.207905,27.7690408 C228.342732,27.7860106 228.280858,27.6001722 228.27302,27.515851 C228.226068,27.0112062 228.079786,26.4408692 228.057252,25.9231765 C227.952043,23.5044109 228.801702,21.2649976 230.327455,19.4232814 C230.597938,19.2623321 230.75432,19.9965598 230.821017,20.2205615 C231.505628,22.5202366 231.613776,27.3024083 229.598229,28.9728424 C229.473048,29.0765468 229.066834,29.263592 229.049576,29.2902158 C229.019279,29.3369771 228.819714,30.2863067 228.81376,30.3790751 C228.773139,31.013294 229.113334,32.4131159 229.185382,33.1558662 C229.246277,33.7839005 229.200154,34.4607325 229.337468,35.0755681 L229.660028,33.0270464 C230.166025,31.3390392 231.105669,29.6693593 232.422587,28.4839606 C232.54513,28.3736944 233.376852,27.6925634 233.440987,27.6970887 C233.659016,27.7123993 233.70627,29.0625184 233.702577,29.3132193 C233.669341,31.5576105 232.66722,35.944951 230.389405,36.9203765 C230.194889,37.0036418 229.860799,37.011561 229.749937,37.1092318 C229.715797,37.1392495 229.390374,37.8597505 229.371834,37.9362278 C229.222311,38.5523456 229.316969,39.7627843 229.260445,40.4612622 C229.190206,41.3289859 229.035181,42.1935418 228.960872,43.0604358 L229.681506,41.4850328 C230.358656,40.3914974 231.208993,39.3917862 232.2494,38.6304822 C232.960237,38.1103005 233.864761,37.5458465 234.75783,37.4866406 L234.75783,38.3905666 C234.567158,38.7838894 234.522618,39.2216354 234.382364,39.634417 C233.71049,41.6122688 231.828112,45.1398803 229.445164,45.247733 C229.243338,45.256859 229.058544,45.1560205 228.921833,45.1672583 C228.778791,45.1790241 228.323062,45.9015614 228.245135,46.0742765 C227.933428,46.765514 227.725196,47.7484062 227.435043,48.5029223 C227.058673,49.4817417 226.64462,50.448192 226.175175,51.3858314 C226.163343,51.61466 226.25672,51.4387772 226.312112,51.371803 C226.671375,50.9368475 227.009309,50.3834804 227.412961,49.9872916 C228.671095,48.7527181 231.056606,47.6695908 232.841463,47.8780557 C233.380319,47.9409571 232.942677,48.8333436 232.813126,49.1375937 C231.880114,51.3297932 229.039627,54.1407503 226.455757,53.7391311 C226.243681,53.7061719 225.676036,53.4023744 225.609942,53.406598 C225.567587,53.4092377 224.921035,53.7916244 224.875214,53.8309944 C224.644825,54.0288249 224.051179,55.1266593 223.794035,55.4814418 C223.396789,56.0295294 222.982661,56.5802567 222.558058,57.1073772 C222.426396,57.2708154 221.850687,57.8421328 221.807579,57.9388231 C221.792883,57.9717823 221.788361,58.0624388 221.844206,58.0504468 C223.597259,56.42157 226.185274,56.1735089 228.416514,56.8244713 C228.672226,56.8990631 229.544871,57.1589654 229.5665,57.4146441 C229.586999,57.6559927 228.767712,58.4668486 228.547874,58.6554022 C226.98165,59.9988843 223.675713,61.3679342 221.707118,60.3728238 C221.462334,60.2490572 220.844044,59.6619013 220.773503,59.643423 C220.091681,59.4649005 219.289803,60.4202639 218.789082,60.7942034 C217.947411,61.422841 217.060372,61.9918958 216.160068,62.53312 L218.001598,62.1155115 C219.635123,62.0619623 221.241366,62.5933064 222.599132,63.4727203 C222.785282,63.5933192 223.734799,64.2709808 223.746556,64.4144324 C223.776927,64.7836204 222.11695,65.4832296 221.771856,65.5860291 C219.535114,66.2526037 216.324965,66.3118096 214.81745,64.2524272 C214.735755,64.1409543 214.69227,63.8991532 214.604018,63.8446989 C213.919106,63.4224897 212.737316,64.0674184 212.018264,64.265098 C211.629081,64.372121 209.169035,64.9957055 209.006248,64.8305325 C208.986728,64.5609009 209.00052,64.2890066 209.232944,64.1150093 C210.01794,63.971784 210.799017,63.8046501 211.566529,63.5872101 C211.873714,63.5001737 214.022807,62.8064473 214.109401,62.7034217 C214.137889,62.669482 214.3211,61.9356314 214.326526,61.8439189 C214.356823,61.3319582 214.235712,60.6773755 214.274223,60.1192569 C214.431207,57.8474877 216.055537,55.3330878 218.067015,54.2716819 C218.249171,54.1755196 218.618607,53.9073963 218.640764,54.2385719 C218.096482,56.8399327 218.193552,59.9365107 215.933899,61.7411195 C216.791471,61.3486263 217.657937,60.7600374 218.412184,60.1912089 C218.741903,59.9425445 220.246027,58.7499052 220.299461,58.46353 C220.503322,57.3714276 219.85466,56.4647865 219.771307,55.3793966 C219.567446,52.7256178 220.392385,50.2265284 222.106324,48.2188851 C222.259766,48.1232508 222.389242,48.1973146 222.408309,48.3723678 C222.512613,50.6910491 223.351344,53.3839716 222.520602,55.6387709 C222.362638,56.0675418 222.059974,56.4294138 221.882943,56.8455893 C222.694091,55.9352526 223.457684,54.9408963 224.097076,53.901438 C224.588753,53.1022725 225.0637,52.5499613 224.647387,51.5558313 C224.548509,51.3196113 224.211404,50.9725219 224.065347,50.706963 C223.076189,48.9081617 222.800355,46.5592364 223.182829,44.5502355 C223.251788,44.1883635 223.855985,42.0968515 224.062936,41.9656936 C224.344497,41.7874728 224.295962,42.1151789 224.383913,42.3283199 C225.415501,44.8289932 226.802358,47.6255447 225.948931,50.3670386 L226.661502,48.7836409 C227.119718,47.4762102 227.53068,46.1573155 227.888737,44.8182833 C227.894163,44.7596809 227.464661,43.8063539 227.41281,43.7424719 C227.247988,43.539362 226.603697,43.1642912 226.359291,42.9132132 C225.109522,41.6287861 224.249613,39.2168085 224.141842,37.4481757 C224.123905,37.1538813 224.127372,34.6259809 224.404638,34.6256792 C226.025351,36.8599639 228.333086,39.0462806 228.358483,42.0058179 L228.499038,41.4320115 C228.589023,40.3057432 228.784293,39.1793994 228.812554,38.0546395 C228.820543,37.7387745 228.865837,36.8783667 228.79409,36.635736 C228.781881,36.594405 228.328262,35.9868099 228.284626,35.9401995 C228.122517,35.766881 227.359904,35.5386557 227.054603,35.3628483 C225.04501,34.2051293 223.66795,31.2632406 223.464391,29.0113827 C223.43515,28.6878247 223.516468,28.3571017 223.396412,28.0391249 L223.639237,27.9313477 C225.299289,29.4022166 227.380102,30.5784139 228.264579,32.7212125 L228.658133,34.0211764 C228.589626,33.0198813 228.4964,31.9875881 228.335799,30.9927039 C228.244834,30.4288532 227.988067,28.8288628 227.771997,28.3930023 C227.711706,28.2713476 227.201036,27.8409928 227.08181,27.8029804 C226.813889,27.7174525 226.45734,27.7929494 226.156033,27.7498837 C224.016436,27.4442761 222.206106,25.2728174 221.395335,23.3979913 C221.310701,23.2024235 220.883761,22.1152234 220.903431,22.0089546 C220.931768,21.856 221.098776,21.9240301 221.188611,21.9459777 C221.670642,22.063786 222.805027,22.5466341 223.311627,22.7614343 C224.686652,23.3445175 225.984051,24.0178801 226.851044,25.2836781 C226.460354,23.8370949 225.792927,22.4764921 225.187901,21.1103836 C225.110728,21.0226685 224.461764,20.777398 224.330555,20.7757387 C224.093081,20.7727218 223.709853,20.9608983 223.425202,20.9894076 C221.339867,21.1984004 218.615367,19.5098653 217.752745,17.6262148 C217.720414,17.5556203 217.578728,17.2409621 217.706622,17.222861 C219.899125,17.3976124 222.391352,17.152719 223.989757,18.9561965 C224.049068,18.8892222 223.194209,17.5721376 223.088548,17.4104341 C222.927344,17.1639568 221.847447,15.5825201 221.732742,15.5276887 C221.680816,15.502875 221.027858,15.4213445 220.957468,15.4305459 C220.798147,15.4513622 220.452752,15.701686 220.245274,15.7743922 C218.216689,16.485541 215.954474,15.6739309 214.539883,14.1362386 C214.429926,14.0166956 213.923477,13.462348 214.124323,13.3419754 C215.908049,13.1324546 217.58732,12.5533688 219.34188,13.2492824 C219.597818,13.3507997 219.82376,13.5916958 220.074799,13.5707286 C219.710186,13.1366782 219.32741,12.7092649 218.910042,12.3254452 C218.744993,12.1736973 218.019535,11.5160224 217.888627,11.4641324 C217.673235,11.3787553 217.43124,11.4467855 217.196857,11.4028902 C214.788812,10.9514175 212.975769,9.08149373 212.265459,6.76975121 C212.199063,6.55381963 212.068758,6.20899281 212.169068,6 L212.394935,6 Z" id="Fill-1" fill="url(#linearGradient-1)" opacity="0.453477823"></path>
                <path d="M4.39493507,6 C4.44316833,6.14397953 4.5782968,6.14797686 4.6940566,6.19036371 C6.79823222,6.9614725 9.70194935,7.80732394 10.1095203,10.4144922 C10.146675,10.6521452 10.0581971,11.002704 10.1544375,11.1981964 C10.1996562,11.2900597 10.431628,11.3937642 10.5335208,11.4968653 C11.9013856,12.880547 13.2704563,14.2328534 14.4473477,15.7921163 C14.5536869,15.7403772 14.4372489,15.6050711 14.3962506,15.5418679 C14.0273416,14.9727377 13.5073268,14.4831018 13.1439194,13.856953 C12.1164758,12.0867364 11.7273691,9.72664872 11.8460681,7.69170288 C11.8588801,7.4729807 11.9520306,6.5797646 12.0384736,6.45283032 C12.1393866,6.30455177 12.2644162,6.42417017 12.371283,6.49484006 C14.3610554,7.81049164 16.2012293,12.3148108 15.3710898,14.6078488 C15.2806525,14.8577201 14.8255265,15.4722539 14.8176133,15.5251998 C14.8048767,15.6111048 14.9200336,16.3767833 14.9570375,16.4874265 C15.1088215,16.9407094 16.3076439,18.502989 16.6537175,19.0836587 C16.9334704,19.5530063 17.1828514,20.0468659 17.4221335,20.5374824 C17.5620853,20.5547539 17.48137,20.3841506 17.4631318,20.3082766 C16.8859154,17.9117604 16.5655411,16.1899644 17.3640275,13.7392201 C17.4200987,13.567033 17.8925584,12.3777877 17.9570704,12.3375881 C18.2767664,12.1384001 18.6787605,13.0935372 18.7897723,13.3310393 C19.7211262,15.324805 20.5857073,19.361813 19.4666958,21.3415503 C19.2525101,21.7204676 18.6917985,22.1116032 18.6936826,22.4575614 C18.6976016,23.1929204 18.827756,23.4125476 19.0600292,24.0584568 C19.4975953,25.2752309 19.9431499,26.499698 20.2079053,27.7690408 C20.3427323,27.7860106 20.2808581,27.6001722 20.2730202,27.515851 C20.2260681,27.0112062 20.0797857,26.4408692 20.0572517,25.9231765 C19.9520429,23.5044109 20.8017018,21.2649976 22.3274552,19.4232814 C22.5979383,19.2623321 22.7543195,19.9965598 22.8210171,20.2205615 C23.5056278,22.5202366 23.6137758,27.3024083 21.5982288,28.9728424 C21.4730484,29.0765468 21.066834,29.263592 21.0495755,29.2902158 C21.019279,29.3369771 20.8197139,30.2863067 20.8137601,30.3790751 C20.7731387,31.013294 21.1133338,32.4131159 21.1853823,33.1558662 C21.2462767,33.7839005 21.2001537,34.4607325 21.3374677,35.0755681 L21.6600276,33.0270464 C22.1660246,31.3390392 23.1056686,29.6693593 24.4225871,28.4839606 C24.5451297,28.3736944 25.3768519,27.6925634 25.440987,27.6970887 C25.6590164,27.7123993 25.7062699,29.0625184 25.702577,29.3132193 C25.6693413,31.5576105 24.6672201,35.944951 22.3894048,36.9203765 C22.1948892,37.0036418 21.8607985,37.011561 21.7499374,37.1092318 C21.7157973,37.1392495 21.3903736,37.8597505 21.3718339,37.9362278 C21.2223109,38.5523456 21.3169686,39.7627843 21.2604453,40.4612622 C21.1902056,41.3289859 21.0351809,42.1935418 20.9608716,43.0604358 L21.6815065,41.4850328 C22.3586561,40.3914974 23.2089933,39.3917862 24.2493996,38.6304822 C24.9602371,38.1103005 25.8647614,37.5458465 26.7578302,37.4866406 L26.7578302,38.3905666 C26.5671581,38.7838894 26.5226177,39.2216354 26.3823644,39.634417 C25.7104903,41.6122688 23.8281123,45.1398803 21.4451635,45.247733 C21.2433375,45.256859 21.0585439,45.1560205 20.9218328,45.1672583 C20.778791,45.1790241 20.3230622,45.9015614 20.2451353,46.0742765 C19.9334279,46.765514 19.7251959,47.7484062 19.4350428,48.5029223 C19.0586727,49.4817417 18.6446204,50.448192 18.1751752,51.3858314 C18.1633429,51.61466 18.2567195,51.4387772 18.3121124,51.371803 C18.6713747,50.9368475 19.009309,50.3834804 19.412961,49.9872916 C20.6710952,48.7527181 23.0566064,47.6695908 24.8414628,47.8780557 C25.3803186,47.9409571 24.9426772,48.8333436 24.8131257,49.1375937 C23.8801138,51.3297932 21.0396274,54.1407503 18.455757,53.7391311 C18.2436814,53.7061719 17.6760364,53.4023744 17.6099417,53.406598 C17.5675869,53.4092377 16.9210352,53.7916244 16.8752137,53.8309944 C16.6448245,54.0288249 16.0511787,55.1266593 15.7940352,55.4814418 C15.3967891,56.0295294 14.9826614,56.5802567 14.5580581,57.1073772 C14.4263964,57.2708154 13.8506873,57.8421328 13.8075788,57.9388231 C13.7928828,57.9717823 13.7883609,58.0624388 13.844206,58.0504468 C15.5972586,56.42157 18.185274,56.1735089 20.4165141,56.8244713 C20.6722257,56.8990631 21.5448707,57.1589654 21.5665003,57.4146441 C21.5869995,57.6559927 20.7677125,58.4668486 20.5478743,58.6554022 C18.9816502,59.9988843 15.675713,61.3679342 13.707118,60.3728238 C13.4623343,60.2490572 12.8440443,59.6619013 12.7735031,59.643423 C12.0916809,59.4649005 11.2898031,60.4202639 10.7890816,60.7942034 C9.94741138,61.422841 9.06037173,61.9918958 8.16006794,62.53312 L10.0015984,62.1155115 C11.635123,62.0619623 13.2413657,62.5933064 14.5991317,63.4727203 C14.7852819,63.5933192 15.7347987,64.2709808 15.7465556,64.4144324 C15.7769274,64.7836204 14.1169499,65.4832296 13.7718561,65.5860291 C11.5351144,66.2526037 8.32496537,66.3118096 6.81745015,64.2524272 C6.73575508,64.1409543 6.69226979,63.8991532 6.60401801,63.8446989 C5.91910584,63.4224897 4.7373158,64.0674184 4.01826352,64.265098 C3.62908147,64.372121 1.16903489,64.9957055 1.00624767,64.8305325 C0.986728271,64.5609009 1.00051997,64.2890066 1.23294395,64.1150093 C2.01794013,63.971784 2.79901735,63.8046501 3.56652897,63.5872101 C3.87371449,63.5001737 6.02280733,62.8064473 6.10940109,62.7034217 C6.13788885,62.669482 6.32109984,61.9356314 6.32652609,61.8439189 C6.3568226,61.3319582 6.23571192,60.6773755 6.27422315,60.1192569 C6.43120732,57.8474877 8.05553744,55.3330878 10.0670148,54.2716819 C10.2491707,54.1755196 10.6186072,53.9073963 10.6407644,54.2385719 C10.0964823,56.8399327 10.1935517,59.9365107 7.93389921,61.7411195 C8.79147135,61.3486263 9.65793651,60.7600374 10.412184,60.1912089 C10.7419035,59.9425445 12.2460273,58.7499052 12.2994607,58.46353 C12.5033216,57.3714276 11.8546597,56.4647865 11.7713066,55.3793966 C11.5674457,52.7256178 12.3923851,50.2265284 14.1063235,48.2188851 C14.2597656,48.1232508 14.3892417,48.1973146 14.4083089,48.3723678 C14.5126133,50.6910491 15.3513443,53.3839716 14.5206019,55.6387709 C14.362638,56.0675418 14.0599744,56.4294138 13.8829433,56.8455893 C14.6940909,55.9352526 15.4576836,54.9408963 16.0970756,53.901438 C16.5887534,53.1022725 17.0637002,52.5499613 16.6473869,51.5558313 C16.5485087,51.3196113 16.2114035,50.9725219 16.0653472,50.706963 C15.0761887,48.9081617 14.8003548,46.5592364 15.1828294,44.5502355 C15.2517879,44.1883635 15.8559847,42.0968515 16.0629355,41.9656936 C16.3444972,41.7874728 16.2959624,42.1151789 16.3839128,42.3283199 C17.4155014,44.8289932 18.8023582,47.6255447 17.9489311,50.3670386 L18.661502,48.7836409 C19.1197179,47.4762102 19.5306803,46.1573155 19.8887368,44.8182833 C19.894163,44.7596809 19.464661,43.8063539 19.4128103,43.7424719 C19.2479882,43.539362 18.6036975,43.1642912 18.3592905,42.9132132 C17.1095217,41.6287861 16.2496133,39.2168085 16.1418421,37.4481757 C16.1239054,37.1538813 16.1273722,34.6259809 16.404638,34.6256792 C18.0253506,36.8599639 20.3330856,39.0462806 20.3584835,42.0058179 L20.4990382,41.4320115 C20.5890233,40.3057432 20.7842926,39.1793994 20.8125543,38.0546395 C20.8205429,37.7387745 20.865837,36.8783667 20.79409,36.635736 C20.781881,36.594405 20.3282623,35.9868099 20.2846263,35.9401995 C20.1225173,35.766881 19.3599044,35.5386557 19.054603,35.3628483 C17.0450098,34.2051293 15.6679504,31.2632406 15.464391,29.0113827 C15.4351496,28.6878247 15.5164679,28.3571017 15.3964123,28.0391249 L15.6392366,27.9313477 C17.2992894,29.4022166 19.3801021,30.5784139 20.2645793,32.7212125 L20.6581325,34.0211764 C20.5896262,33.0198813 20.4964004,31.9875881 20.3357988,30.9927039 C20.2448339,30.4288532 19.9880672,28.8288628 19.7719973,28.3930023 C19.7117057,28.2713476 19.2010361,27.8409928 19.0818096,27.8029804 C18.8138889,27.7174525 18.4573397,27.7929494 18.1560326,27.7498837 C16.0164357,27.4442761 14.2061061,25.2728174 13.3953353,23.3979913 C13.310701,23.2024235 12.8837613,22.1152234 12.9034314,22.0089546 C12.9317685,21.856 13.0987761,21.9240301 13.1886106,21.9459777 C13.6706416,22.063786 14.8050274,22.5466341 15.3116273,22.7614343 C16.6866518,23.3445175 17.9840509,24.0178801 18.8510436,25.2836781 C18.4603543,23.8370949 17.7929266,22.4764921 17.1879008,21.1103836 C17.1107276,21.0226685 16.4617642,20.777398 16.3305547,20.7757387 C16.0930813,20.7727218 15.7098531,20.9608983 15.4252015,20.9894076 C13.339867,21.1984004 10.6153666,19.5098653 9.75274499,17.6262148 C9.72041364,17.5556203 9.57872846,17.2409621 9.70662195,17.222861 C11.8991247,17.3976124 14.3913519,17.152719 15.9897567,18.9561965 C16.0490685,18.8892222 15.1942095,17.5721376 15.0885485,17.4104341 C14.9273439,17.1639568 13.8474466,15.5825201 13.7327419,15.5276887 C13.6808158,15.502875 13.0278582,15.4213445 12.9574678,15.4305459 C12.7981473,15.4513622 12.452752,15.701686 12.2452737,15.7743922 C10.2166886,16.485541 7.9544737,15.6739309 6.53988286,14.1362386 C6.42992612,14.0166956 5.92347697,13.462348 6.12432325,13.3419754 C7.9080492,13.1324546 9.58732001,12.5533688 11.3418799,13.2492824 C11.5978176,13.3507997 11.8237602,13.5916958 12.0747993,13.5707286 C11.710186,13.1366782 11.3274099,12.7092649 10.9100416,12.3254452 C10.7449934,12.1736973 10.0195352,11.5160224 9.88862711,11.4641324 C9.67323549,11.3787553 9.43124022,11.4467855 9.19685676,11.4028902 C6.78881166,10.9514175 4.97576894,9.08149373 4.26545894,6.76975121 C4.19906285,6.55381963 4.06875771,6.20899281 4.1690678,6 L4.39493507,6 Z" id="Fill-1备份" fill="url(#linearGradient-1)" opacity="0.453477823" transform="translate(13.8789, 36) scale(-1, 1) translate(-13.8789, -36)"></path>
                <g id="大奖一触即发" fill-rule="nonzero" fill="#FFFFFF" fill-opacity="1">
                    <use filter="url(#filter-3)" xlink:href="#text-2"></use>
                    <use xlink:href="#text-2"></use>
                </g>
                <g id="总奖金池" fill-rule="nonzero" fill="#FFFFFF" fill-opacity="1">
                    <use filter="url(#filter-5)" xlink:href="#text-4"></use>
                    <use xlink:href="#text-4"></use>
                </g>
            </g>
        </g>
    </g>
</svg>