<?xml version="1.0" encoding="UTF-8"?>
<svg width="18px" height="18px" viewBox="0 0 18 18" version="1.1" xmlns="http://www.w3.org/2000/svg" xmlns:xlink="http://www.w3.org/1999/xlink">
    <title>Icon/基金</title>
    <g id="页面-1" stroke="none" stroke-width="1" fill="none" fill-rule="evenodd">
        <g id="我的" transform="translate(-50, -576)" fill="#4297FE" fill-rule="nonzero">
            <g id="Icon/基金" transform="translate(50, 576)">
                <path d="M14.4,0.9 C16.3882251,0.9 18,2.5117749 18,4.5 L18,13.5 C18,15.4882251 16.3882251,17.1 14.4,17.1 L3.6,17.1 C1.6117749,17.1 0,15.4882251 0,13.5 L0,4.5 C0,2.5117749 1.6117749,0.9 3.6,0.9 L14.4,0.9 Z M16.2,6.3 L1.8,6.3 L1.8,13.5 C1.8,14.4941125 2.60588745,15.3 3.6,15.3 L14.4,15.3 C15.3941125,15.3 16.2,14.4941125 16.2,13.5 L16.2,6.3 Z M6.3,11.7 C6.79705627,11.7 7.2,12.1029437 7.2,12.6 C7.2,13.0970563 6.79705627,13.5 6.3,13.5 L4.5,13.5 C4.00294373,13.5 3.6,13.0970563 3.6,12.6 C3.6,12.1029437 4.00294373,11.7 4.5,11.7 L6.3,11.7 Z M10.8,11.7 C11.2970563,11.7 11.7,12.1029437 11.7,12.6 C11.7,13.0970563 11.2970563,13.5 10.8,13.5 L9,13.5 C8.50294373,13.5 8.1,13.0970563 8.1,12.6 C8.1,12.1029437 8.50294373,11.7 9,11.7 L10.8,11.7 Z M14.4,2.7 L3.6,2.7 C2.60588745,2.7 1.8,3.50588745 1.8,4.5 L16.2,4.5 C16.2,3.50588745 15.3941125,2.7 14.4,2.7 Z" id="形状结合"></path>
            </g>
        </g>
    </g>
</svg>