<?xml version="1.0" encoding="UTF-8"?>
<svg width="16px" height="16px" viewBox="0 0 16 16" version="1.1" xmlns="http://www.w3.org/2000/svg" xmlns:xlink="http://www.w3.org/1999/xlink">
    <title>Icon/基金备份 9</title>
    <g id="页面-1" stroke="none" stroke-width="1" fill="none" fill-rule="evenodd">
        <g id="我的" transform="translate(-12, -858)" fill-rule="nonzero">
            <g id="Icon/基金备份-9" transform="translate(12, 858)">
                <path d="M8,0 C12.418278,0 16,3.581722 16,8 C16,12.418278 12.418278,16 8,16 L2.4,16 C1.0745166,16 0,14.9254834 0,13.6 L0,8 C0,3.581722 3.581722,0 8,0 Z M8,1.6 C4.4653776,1.6 1.6,4.4653776 1.6,8 L1.6,13.6 C1.6,14.0418278 1.9581722,14.4 2.4,14.4 L8,14.4 C11.5346224,14.4 14.4,11.5346224 14.4,8 C14.4,4.4653776 11.5346224,1.6 8,1.6 Z" id="形状结合" fill="#212634"></path>
                <path d="M7.2,8.8 C7.6418278,8.8 8,9.1581722 8,9.6 C8,10.0418278 7.6418278,10.4 7.2,10.4 L4.8,10.4 C4.3581722,10.4 4,10.0418278 4,9.6 C4,9.1581722 4.3581722,8.8 4.8,8.8 L7.2,8.8 Z" id="路径" fill="#4297FE"></path>
                <path d="M11.2,5.6 C11.6418278,5.6 12,5.9581722 12,6.4 C12,6.8418278 11.6418278,7.2 11.2,7.2 L4.8,7.2 C4.3581722,7.2 4,6.8418278 4,6.4 C4,5.9581722 4.3581722,5.6 4.8,5.6 L11.2,5.6 Z" id="路径" fill="#4297FE"></path>
            </g>
        </g>
    </g>
</svg>