<?xml version="1.0" encoding="UTF-8"?>
<svg width="20px" height="20px" viewBox="0 0 20 20" version="1.1" xmlns="http://www.w3.org/2000/svg" xmlns:xlink="http://www.w3.org/1999/xlink">
    <title>Icon/基金备份 5</title>
    <g id="页面-1" stroke="none" stroke-width="1" fill="none" fill-rule="evenodd">
        <g id="我的" transform="translate(-68, -645)">
            <g id="Icon/基金备份-5" transform="translate(68, 645)">
                <path d="M10,0 C15.4242252,0 19.8397682,4.31868186 19.9957365,9.70515306 L20,10 C20,15.5228475 15.5228475,20 10,20 C4.4771525,20 0,15.5228475 0,10 C0,4.4771525 4.4771525,0 10,0 Z M10,2 C5.581722,2 2,5.581722 2,10 C2,14.418278 5.581722,18 10,18 C14.418278,18 18,14.418278 18,10 L17.9965744,9.76303992 C17.8715765,5.44614964 14.330218,2 10,2 Z" id="路径" fill="#212634" fill-rule="nonzero"></path>
                <path d="M10.0540836,10.0703125 C10.9520104,10.0703125 11.6774248,10.7802008 11.6774248,11.657426 C11.6774248,12.194802 11.4031301,12.6674858 10.9847877,12.956444 C11.8456243,13.3325209 12.5744889,14.2632249 12.5744889,15.0964595 C12.5744889,16.3989277 7.57421875,16.3989277 7.57421875,15.0723078 C7.57421875,14.3581067 8.28324447,13.348047 9.13200518,12.9598942 C8.70934995,12.6752488 8.43074252,12.1939394 8.43074252,11.6531132 C8.43074252,10.7802008 9.15615691,10.0703125 10.0540836,10.0703125 Z M10.4172221,12.1344227 L9.73234813,12.1344227 C9.70647128,12.1344227 9.68404467,12.1559867 9.68749492,12.1818635 C9.71078409,12.3750774 9.87553337,12.5243005 10.0747851,12.5243005 C10.2740369,12.5243005 10.4387862,12.3750774 10.4620753,12.1818635 C10.4655256,12.1568493 10.443099,12.1344227 10.4172221,12.1344227 Z" id="形状结合" fill="#212634" fill-rule="nonzero"></path>
                <polyline id="路径-4" stroke="#212634" stroke-width="2" stroke-linecap="square" stroke-linejoin="round" points="6.10761982 7.4769782 13.4433678 7.4769782 11.7423238 5.30864983"></polyline>
            </g>
        </g>
    </g>
</svg>