<?xml version="1.0" encoding="UTF-8"?>
<svg width="18px" height="18px" viewBox="0 0 18 18" version="1.1" xmlns="http://www.w3.org/2000/svg" xmlns:xlink="http://www.w3.org/1999/xlink">
    <title>Icon/基金备份 5</title>
    <g id="页面-1" stroke="none" stroke-width="1" fill="none" fill-rule="evenodd">
        <g id="我的" transform="translate(-50, -676)" fill="#4297FE" fill-rule="nonzero">
            <g id="Icon/基金备份-5" transform="translate(50, 676)">
                <path d="M1.80601869,9.28179602 C2.49316749,9.28179602 3.32439432,9.82189519 3.87735051,10.3797348 C4.77800076,11.54545 7.05766001,13.2067316 9.33801229,13.334299 C9.72414383,13.4281898 10.0774405,13.4540242 10.3868454,13.4615324 L10.0861766,13.0827306 C9.94453046,12.8020885 9.6560872,12.0585472 9.94826999,11.4698088 C10.2463212,11.1423592 10.5927357,10.942888 10.9738667,10.8537507 C12.2951616,10.8491137 14.5693354,12.3325592 14.7342547,12.4411923 C15.2378931,12.693655 15.9868846,12.9450152 16.7364775,13.1974663 C17.0344297,13.3399626 17.2874566,13.572977 17.4384922,13.7219085 L17.5416429,13.8249 L17.5448497,17.1699216 C17.5448497,17.4185963 17.4584688,17.6234878 17.3152462,17.7678799 C17.1714077,17.912893 16.9673073,18 16.720065,18 L7.88738264,18 C7.87209004,17.9975657 6.2858842,17.7321627 4.70143132,16.8005159 C3.79321706,16.2822178 2.98605942,15.6041761 2.32033723,14.8008454 C1.52545518,13.8675349 0.866429895,12.928798 0.598655359,11.5988505 C0.320980205,10.8842788 0.467163045,10.3128083 0.751130485,9.88357319 C1.06827886,9.55939705 1.36970564,9.28179602 1.80601869,9.28179602 Z M2.2712614,11.3871728 C2.67434928,12.9741399 3.68065944,14.1982101 5.4094031,15.1961743 C6.65794662,16.0767797 7.9061901,16.3401961 8.0311746,16.3401961 L15.7654058,16.3401961 L15.7654058,14.5496282 C15.0198671,14.2942044 14.3956358,14.0308239 13.8901787,13.6488084 C13.3243687,13.1748228 12.6239923,12.7712439 12.0437444,12.543538 L12.9771721,13.672287 C12.9880091,13.693086 12.9993368,13.7140563 13.0104511,13.7354069 L13.0424492,13.8008095 C13.1572557,14.0574986 13.150711,14.3921722 11.9519381,15.1230383 C11.4072505,15.1210146 10.5556403,15.105869 9.31206894,14.9920339 C6.15048906,14.8592458 3.50577441,12.5989316 2.2712614,11.3871728 Z M8.93888483,0 C10.5314297,0 11.9921706,0.53316489 13.3265074,1.47189034 C14.7848167,2.60823526 15.6815675,4.2102976 15.9671381,5.91336029 C16.254474,7.62695109 15.9229368,9.4426605 14.9225788,10.9887507 C14.7356138,11.1817087 14.5720783,11.3308707 14.2556247,11.3308707 C13.9131332,11.1793783 13.7450696,11.0771758 13.640406,10.9927034 C13.4011481,10.2931879 13.4519292,10.1508712 13.599888,9.99722285 C14.3500387,8.85456569 14.5956807,7.49086206 14.3696938,6.19268235 C14.1452461,4.90334504 13.4555128,3.67845797 12.3341545,2.79934171 C11.3280979,2.038982 10.1963541,1.65874519 8.93888483,1.65874519 C7.17769261,1.65874519 5.66886924,2.422494 4.53969018,3.81348122 C3.66058368,4.95269661 3.28521223,6.47145261 3.4075221,7.86350787 C3.47684356,8.22194077 3.43742893,8.50957916 3.33638917,8.71323956 C2.46054463,9.15409587 2.24878738,9.03026317 2.08040226,8.91711509 C1.49251936,6.31172255 2.02038421,4.29592042 3.22758627,2.67709 C4.6883051,0.936951304 6.68085953,0 8.93888483,0 Z M10.8848857,3.39897253 C11.6073828,3.7420209 11.7089647,4.0745293 11.7089647,4.22869805 C11.7089647,4.38409889 11.7101187,4.53975414 11.544529,4.86257951 L10.1415522,6.0590893 L10.894471,6.14332879 C11.1374183,6.14570863 11.337757,6.23237135 11.4794711,6.37524268 C11.6226933,6.51963431 11.7089647,6.72457299 11.7089647,6.97335689 C11.7089647,7.22203161 11.6225837,7.42692314 11.4793611,7.57131524 C11.3355226,7.71632827 11.1314221,7.80343532 10.8841799,7.80343532 L9.89354403,7.80343532 L10.3650346,7.97458035 C10.5452604,7.97458035 10.7772398,8.06829307 10.9485511,8.24100321 C11.0907622,8.38437551 11.1898192,8.57814601 11.1898192,8.80465878 C11.1898192,9.05333349 11.1034384,9.25822503 10.9602158,9.40261712 C10.8163773,9.54763015 10.6122768,9.6347372 10.3650346,9.6347372 L9.8931911,9.6347372 L9.8931911,10.1104628 C9.8931911,10.3591375 9.8068103,10.564029 9.66358769,10.7084211 C9.51974917,10.8534342 9.31564873,10.9405412 9.06840647,10.9405412 C8.82130153,10.9405412 8.61728911,10.8535245 8.47348267,10.708857 C8.3300615,10.564577 8.24362184,10.3599062 8.24362184,10.1118745 L8.24362184,9.6347372 L7.38250763,9.6347372 C7.13512132,9.6347372 6.93113331,9.54688534 6.78734077,9.40113591 C6.64398083,9.25582496 6.557723,9.04982533 6.557723,8.80112957 C6.557723,8.55245486 6.6441038,8.34756332 6.78732641,8.20317123 C6.93116494,8.0581582 7.13526538,7.97105115 7.38250763,7.97105115 L8.24362184,7.97105115 L6.99358978,7.80131781 C6.74600658,7.8013178 6.54200877,7.71423728 6.39829854,7.56935359 C6.25507639,7.42496196 6.16880515,7.22002328 6.16880515,6.97123937 C6.16880515,6.70606071 6.26820469,6.49302957 6.42369092,6.36767568 C6.57118303,6.2487667 6.77458508,6.19789971 7.02096614,6.27209426 L7.95117565,6.27209426 L6.35614171,4.87904394 C6.19104201,4.71915 6.17021683,4.3943987 6.17021683,4.22693344 C6.17021683,4.06704808 6.15972154,3.90367698 6.48079386,3.57998366 C7.19076547,3.37458002 7.34528845,3.54618949 7.49905073,3.70207147 L8.93423409,4.78675767 L10.2473033,3.70617058 C10.4090252,3.54441428 10.5724034,3.39897253 10.8848857,3.39897253 Z" id="形状"></path>
            </g>
        </g>
    </g>
</svg>