<?xml version="1.0" encoding="UTF-8"?>
<svg width="20px" height="20px" viewBox="0 0 20 20" version="1.1" xmlns="http://www.w3.org/2000/svg" xmlns:xlink="http://www.w3.org/1999/xlink">
    <title>Icon/基金备份 2</title>
    <g id="页面-1" stroke="none" stroke-width="1" fill="none" fill-rule="evenodd">
        <g id="我的" transform="translate(-302, -573)" fill="#212634" fill-rule="nonzero">
            <g id="Icon/基金备份-2" transform="translate(302, 573)">
                <path d="M14.4142136,0 L14.7071068,0.292893219 L19,4.58578644 L19,20 L1,20 L1,0 L14.4142136,0 Z M13.585,2 L3,2 L3,18 L17,18 L17,5.415 L13.585,2 Z M11.8807053,9.0703125 C13.0779409,9.0703125 14.0451601,10.0168302 14.0451601,11.1864639 C14.0451601,11.9029651 13.6794339,12.5332102 13.121644,12.9184878 C14.2694261,13.4199236 15.2412457,14.6608624 15.2412457,15.7718419 C15.2412457,17.5084661 8.57421875,17.5084661 8.57421875,15.7396396 C8.57421875,14.7873715 9.51958638,13.4406251 10.6512673,12.9230881 C10.087727,12.543561 9.71625044,11.901815 9.71625044,11.1807135 C9.71625044,10.0168302 10.6834696,9.0703125 11.8807053,9.0703125 Z M12.3648899,11.8224594 L11.4517246,11.8224594 C11.4172221,11.8224594 11.38732,11.8512114 11.3919203,11.8857139 C11.4229725,12.1433323 11.6426382,12.3422966 11.9083072,12.3422966 C12.1739763,12.3422966 12.393642,12.1433323 12.4246942,11.8857139 C12.4292945,11.8523615 12.3993924,11.8224594 12.3648899,11.8224594 Z M11,5 L11,7 L5,7 L5,5 L11,5 Z" id="形状结合"></path>
            </g>
        </g>
    </g>
</svg>