<?xml version="1.0" encoding="UTF-8"?>
<svg width="18px" height="18px" viewBox="0 0 18 18" version="1.1" xmlns="http://www.w3.org/2000/svg" xmlns:xlink="http://www.w3.org/1999/xlink">
    <title>Icon/基金备份 2</title>
    <g id="页面-1" stroke="none" stroke-width="1" fill="none" fill-rule="evenodd">
        <g id="我的" transform="translate(-232, -576)" fill="#4297FE" fill-rule="nonzero">
            <g id="Icon/基金备份-2" transform="translate(232, 576)">
                <path d="M15.566621,0.9 C16.909199,0.9 18,1.99070063 18,3.33404804 L18,6.44681595 C18,7.26475724 17.7831491,7.77842907 17.0629685,8.25625309 L16.9908103,8.29941497 C16.3102804,8.66444396 16.2490051,8.74348938 16.2490138,9.0747727 C16.2490138,9.40350459 16.3260053,9.50364444 16.9545458,9.82686317 L17.0782583,9.90373314 C17.7319481,10.3873743 18,10.8690095 18,11.7003506 L18,14.7395005 C18,16.0822038 16.9089885,17.1743105 15.5666396,17.1743105 L2.43328608,17.1743105 C1.09100714,17.1743105 0,16.0821808 0,14.7395005 L0,11.700332 C0,11.0117897 0.267927521,10.323115 0.989582312,9.87202183 L1.08641001,9.81944989 L1.13437688,9.79709262 L1.22537687,9.76057097 C1.63886198,9.62025462 1.75091185,9.49992638 1.75091185,9.0747727 C1.75091185,8.79556855 1.48427081,8.5261657 1.03844522,8.31480902 C0.244024726,7.88723076 0,7.31133809 0,6.44679737 L0,3.33404806 C0,1.99072331 1.09075979,0.9 2.43326748,0.9 L15.566621,0.9 Z M15.566621,2.7 L2.43326748,2.7 C2.08485886,2.7 1.8,2.98484934 1.8,3.33404806 L1.8,6.44679737 C1.8,6.71555827 1.78077679,6.67019195 1.84839185,6.70805701 C2.81612513,7.16372772 3.55091185,7.90612519 3.55091185,9.0747727 C3.55091185,10.3788857 2.87928113,11.1001372 1.80380922,11.4650991 L1.9053,11.4282 L1.88975198,11.4416383 C1.84267914,11.4899358 1.81573007,11.5527427 1.80519759,11.6250472 L1.8,11.700332 L1.8,14.7395005 C1.8,15.0884824 2.08553432,15.3743105 2.43328608,15.3743105 L15.5666396,15.3743105 C15.9144714,15.3743105 16.2,15.0884953 16.2,14.7395005 L16.2004945,11.581311 C16.1983176,11.4773416 16.1748444,11.4744303 16.0076686,11.350743 L16.0623,11.3904 L15.9415206,11.3262437 C14.961721,10.7822761 14.5041679,10.1794762 14.4537284,9.25247332 L14.4490138,9.07479623 C14.4489852,7.98251008 14.9297099,7.36237289 16.1399798,6.71319697 L16.1055,6.732 L16.1137299,6.72699442 C16.206444,6.66947097 16.202959,6.6779995 16.2006391,6.52362005 L16.2,3.33404804 C16.2,2.98485028 15.9151235,2.7 15.566621,2.7 Z" id="路径"></path>
                <path d="M11.8471901,8.36750378 C11.8471901,8.6099586 11.6503047,8.8076245 11.4086119,8.8076245 L9.65933548,8.8076245 L9.65933548,9.24133354 L11.4086119,9.24133354 C11.6503047,9.24133354 11.8471901,9.43899946 11.8471901,9.68145427 L11.8471901,10.1184156 C11.8471901,10.3608704 11.6503047,10.5601718 11.4086119,10.5601718 L9.65933548,10.5601718 L9.65933548,11.8701638 C9.65933548,12.1133991 9.46245012,12.3094482 9.21921476,12.3094482 L8.78071089,12.3094482 C8.53740117,12.3094482 8.34049723,12.1133991 8.34049723,11.8701638 L8.34049723,10.5601718 L6.59122083,10.5601718 C6.34962089,10.5601718 6.15271695,10.3608704 6.15271695,10.1184156 L6.15271695,9.68145427 C6.15271695,9.43899944 6.34962089,9.24133354 6.59122083,9.24133354 L8.34049723,9.24133354 L8.34049723,8.8076245 L6.59122083,8.8076245 C6.34962089,8.8076245 6.15271695,8.60995858 6.15271695,8.36750378 L6.15271695,7.93056101 C6.15271695,7.68810619 6.34962089,7.49042169 6.59122083,7.49042169 L7.74199845,7.49042169 L6.28708369,5.92922155 C6.13344472,5.75870776 6.13344472,5.49304076 6.28708369,5.32423674 L6.56559266,5.02088015 C6.71923162,4.85447355 7.01693848,4.85129559 7.17057747,5.02088015 L8.9982995,6.98229987 L10.8260215,5.01935621 C10.9781366,4.8528567 11.2789842,4.8528567 11.4310063,5.02089873 L11.7126933,5.32665274 C11.8663322,5.49709219 11.8663322,5.76437606 11.7126933,5.93318006 L10.2627034,7.49042169 L11.4086119,7.49042169 C11.6503047,7.49042169 11.8471901,7.68808761 11.8471901,7.93056101 L11.8471901,8.36750378 Z" id="路径"></path>
            </g>
        </g>
    </g>
</svg>