<?xml version="1.0" encoding="UTF-8"?>
<svg width="18px" height="18px" viewBox="0 0 18 18" version="1.1" xmlns="http://www.w3.org/2000/svg" xmlns:xlink="http://www.w3.org/1999/xlink">
    <title>Icon/基金备份 10</title>
    <g id="页面-1" stroke="none" stroke-width="1" fill="none" fill-rule="evenodd">
        <g id="我的" transform="translate(-141, -776)" fill="#4297FE" fill-rule="nonzero">
            <g id="Icon/基金备份-10" transform="translate(141, 776)">
                <path d="M9.6290509,0.156650012 L9.76166581,0.225576018 L16.0977481,3.88371486 C16.6186936,4.18448288 16.9396093,4.74032511 16.9396093,5.34186116 L16.9396093,12.6581388 C16.9396093,13.2596749 16.6186936,13.8155171 16.0977481,14.1162851 L9.76166581,17.774424 C9.24072031,18.075192 8.59888899,18.075192 8.07794349,17.774424 L1.74186116,14.1162851 C1.22091566,13.8155171 0.9,13.2596749 0.9,12.6581388 L0.9,5.34186116 C0.9,4.74032511 1.22091566,4.18448288 1.74186116,3.88371486 L8.07794349,0.225576018 C8.55547687,-0.0501280039 9.13458791,-0.0731033391 9.6290509,0.156650012 Z M8.9199,1.8171 L2.7,5.4081 L2.7,12.591 L8.9199,16.182 L15.1389,12.591 L15.1389,5.4081 L8.9199,1.8171 Z" id="多边形备份"></path>
                <path d="M9,5.4 C10.9882251,5.4 12.6,7.0117749 12.6,9 C12.6,10.9882251 10.9882251,12.6 9,12.6 C7.0117749,12.6 5.4,10.9882251 5.4,9 C5.4,7.0117749 7.0117749,5.4 9,5.4 Z M9,7.2 C8.00588745,7.2 7.2,8.00588745 7.2,9 C7.2,9.99411255 8.00588745,10.8 9,10.8 C9.99411255,10.8 10.8,9.99411255 10.8,9 C10.8,8.00588745 9.99411255,7.2 9,7.2 Z" id="椭圆形备份"></path>
            </g>
        </g>
    </g>
</svg>