<?xml version="1.0" encoding="UTF-8"?>
<svg width="18px" height="18px" viewBox="0 0 18 18" version="1.1" xmlns="http://www.w3.org/2000/svg" xmlns:xlink="http://www.w3.org/1999/xlink">
    <title>Icon/基金备份 11</title>
    <g id="页面-1" stroke="none" stroke-width="1" fill="none" fill-rule="evenodd">
        <g id="我的" transform="translate(-50, -776)" fill="#4297FE" fill-rule="nonzero">
            <g id="Icon/基金备份-11" transform="translate(50, 776)">
                <path d="M2.916,7.344 L8.388,10.62 C8.748,10.836 9.216,10.836 9.576,10.62 L15.12,7.308 C15.768,6.984 16.488,7.02 17.028,7.38 C17.568,7.74 17.892,8.352 17.892,9.108 L17.892,15.948 C17.928,17.064 16.992,18 15.84,18 L2.16,18 C1.008,18 0.072,17.064 0.072,15.912 L0.072,9.072 C0.072,8.316 0.468,7.668 1.044,7.308 C1.62,6.984 2.304,6.984 2.916,7.344 Z M1.98,8.676 C1.944,8.676 1.908,8.676 1.872,8.712 C1.764,8.784 1.692,8.928 1.692,9.108 L1.692,15.948 C1.692,16.2 1.908,16.416 2.16,16.416 L15.84,16.416 C16.092,16.416 16.308,16.2 16.308,15.948 L16.308,9.108 C16.308,8.928 16.272,8.784 16.2,8.748 C16.128,8.712 16.02,8.712 15.84,8.784 L10.404,12.06 C9.54,12.6 8.424,12.6 7.56,12.06 L2.124,8.712 C2.052,8.712 2.016,8.676 1.98,8.676 Z M9,3.456 C9.432,3.456 9.792,3.816 9.792,4.248 L9.792,4.932 L10.44,4.932 C10.872,4.932 11.232,5.292 11.232,5.724 C11.268,6.156 10.908,6.516 10.44,6.516 L9.792,6.516 L9.792,7.164 C9.792,7.596 9.432,7.956 9,7.956 C8.568,7.992 8.208,7.632 8.208,7.164 L8.208,6.516 L7.524,6.516 C7.092,6.516 6.732,6.156 6.732,5.724 C6.732,5.292 7.092,4.932 7.524,4.932 L8.208,4.932 L8.208,4.248 C8.208,3.816 8.568,3.456 9,3.456 Z M12.888,0 C14.112,0 15.12,0.972 15.12,2.196 L15.12,5.796 C15.12,6.264 14.76,6.624 14.328,6.624 C13.896,6.624 13.536,6.264 13.536,5.832 L13.536,2.232 C13.536,1.908 13.248,1.62 12.924,1.62 L5.076,1.62 C4.752,1.62 4.464,1.908 4.464,2.232 L4.464,5.832 C4.464,6.264 4.104,6.624 3.672,6.624 C3.24,6.624 2.88,6.264 2.88,5.832 L2.88,2.232 C2.88,0.972 3.852,0 5.076,0 L12.888,0 Z" id="形状结合"></path>
            </g>
        </g>
    </g>
</svg>