<?xml version="1.0" encoding="UTF-8"?>
<svg width="20px" height="20px" viewBox="0 0 20 20" version="1.1" xmlns="http://www.w3.org/2000/svg" xmlns:xlink="http://www.w3.org/1999/xlink">
    <title>Icon/资产</title>
    <g id="页面-1" stroke="none" stroke-width="1" fill="none" fill-rule="evenodd">
        <g id="我的" transform="translate(-24, -186)" fill="#F4D2A6" fill-rule="nonzero">
            <g id="Icon/资产" transform="translate(24, 186)">
                <path d="M12.1221759,4.23888575 L7.50607616,4.23888575 C3.93966527,5.49740302 1,9.44037689 1,13.2156943 C1,17.779294 3.60320652,20 9.81404793,20 C16.0244987,20 18.633825,17.7792159 18.633825,13.2156943 C18.633825,9.44037689 15.6940816,5.49740302 12.1221759,4.23888575 L12.1221759,4.23888575 Z M12.2554313,13.2445225 L12.2554313,13.2503298 C12.6670725,13.2503298 13.0035833,13.5866323 13.0035833,13.9982474 C13.0035833,14.4098885 12.6671506,14.7464775 12.2554313,14.7520504 L12.2554313,14.7520504 L10.7418616,14.7520504 L10.7418616,15.5058535 L10.730247,15.5058535 C10.7476689,15.5641348 10.7535543,15.6219214 10.7535543,15.6857235 C10.7535543,16.201818 10.3301684,16.6251518 9.81407394,16.6251518 C9.2979014,16.6251518 8.87464563,16.201818 8.87464563,15.6857235 C8.87464563,15.6219214 8.88610399,15.5641348 8.89803108,15.5058535 L8.88053105,15.5058535 L8.88053105,14.7520504 L7.37857597,14.7520504 L7.37857597,14.7520504 L7.37857597,14.7520504 C6.96097127,14.7520504 6.62477291,14.4098885 6.62477291,13.9982474 C6.62477291,13.5806687 6.9609973,13.2503298 7.37857597,13.2503298 L7.37857597,13.2503298 L7.37857597,13.2445225 L8.88053105,13.2445225 L8.88053105,12.5020996 L7.37857597,12.5020996 L7.37857597,12.5020996 L7.37857597,12.5020996 C6.96097127,12.5020996 6.62477291,12.1602242 6.62477291,11.7482966 C6.62477291,11.33077 6.9609973,10.9943373 7.37857597,10.9943373 L7.37857597,10.9943373 L7.37857597,10.9943373 L8.74727567,10.9943373 C8.75889027,10.9420716 8.78196321,10.9075403 8.81107783,10.861134 L7.12930481,9.17959531 C6.92055455,8.97076692 6.9902161,8.5647768 7.2799821,8.27495871 C7.57003455,7.97894269 7.97594654,7.91514052 8.18477496,8.12389081 L9.83162607,9.77089817 L11.3568103,8.14139084 C11.594545,7.88610404 12.0757696,7.94425516 12.36577,8.24584409 C12.6558224,8.54149551 12.8121768,8.8083188 12.5164473,9.13873589 L10.7478772,10.9420716 C10.7419918,10.9655872 10.7478772,10.9772018 10.7478772,10.9943373 L12.2556396,10.9943373 L12.2556396,10.9943373 C12.6672808,11.0004311 13.0037135,11.3367336 13.0037135,11.7482966 C13.0037135,12.1601461 12.6673589,12.4964486 12.2556396,12.5020997 L12.2556396,12.5020997 L10.7419918,12.5020997 L10.7419918,13.2445225 L12.2554313,13.2445225 L12.2554313,13.2445225 Z M7.19875806,3.23568131 L9.62844872,3.23568131 L12.0526185,3.23568131 C12.0526185,3.23568131 13.5135579,1.41500185 13.6761623,1.21190263 C13.838324,1.00880341 13.8905897,0.521901733 13.2699639,0.405911994 C12.5917859,0.272500353 11.2813936,0.00567709705 9.62842268,0 C7.97592054,0.00565103769 6.6594084,0.272500353 5.98667315,0.405911994 C5.36047441,0.52197986 5.41862553,1.00888154 5.58091741,1.21190263 C5.74912076,1.41500188 7.19875806,3.23568131 7.19875806,3.23568131 L7.19875806,3.23568131 Z" id="形状结合"></path>
            </g>
        </g>
    </g>
</svg>