<?xml version="1.0" encoding="UTF-8"?>
<svg width="18px" height="18px" viewBox="0 0 18 18" version="1.1" xmlns="http://www.w3.org/2000/svg" xmlns:xlink="http://www.w3.org/1999/xlink">
    <title>Icon/基金备份 6</title>
    <g id="页面-1" stroke="none" stroke-width="1" fill="none" fill-rule="evenodd">
        <g id="我的" transform="translate(-323, -576)" fill="#4297FE" fill-rule="nonzero">
            <g id="Icon/基金备份-6" transform="translate(323, 576)">
                <path d="M8.61607695,0 C12.8772804,0 16.3321539,3.45487345 16.3321539,7.71607695 C16.3321539,9.81935092 15.4878865,11.7239359 14.1221409,13.1160448 L14.0469091,13.1944916 L9.6841106,17.5572901 C9.09383071,18.14757 8.13703717,18.14757 7.54675728,17.5572901 L3.10551199,13.1160448 C1.74426742,11.7239359 0.9,9.81935092 0.9,7.71607695 C0.9,3.45487345 4.35487345,0 8.61607695,0 Z M8.61607695,1.8 C5.348986,1.8 2.7,4.448986 2.7,7.71607695 C2.7,9.28463343 3.313581,10.7542265 4.3783042,11.8432526 L8.6148,16.0794 L12.7477737,11.9485994 L12.8372403,11.8554772 C13.9181732,10.7536789 14.5321539,9.28529557 14.5321539,7.71607695 C14.5321539,4.448986 11.8831679,1.8 8.61607695,1.8 Z" id="路径"></path>
                <path d="M8.61800597,3.85803847 C10.7489292,3.85803847 12.4760444,5.5851537 12.4760444,7.71607695 C12.4760444,9.8470002 10.7489292,11.5741154 8.61800597,11.5741154 C6.48708272,11.5741154 4.75996749,9.8470002 4.75996749,7.71607695 C4.75996749,5.5851537 6.48708272,3.85803847 8.61800597,3.85803847 Z M8.61800597,5.65803847 C7.48119527,5.65803847 6.55996749,6.57926625 6.55996749,7.71607695 C6.55996749,8.85288765 7.48119527,9.77411542 8.61800597,9.77411542 C9.75481667,9.77411542 10.6760444,8.85288765 10.6760444,7.71607695 C10.6760444,6.57926625 9.75481667,5.65803847 8.61800597,5.65803847 Z" id="路径"></path>
            </g>
        </g>
    </g>
</svg>