<?xml version="1.0" encoding="UTF-8"?>
<svg width="20px" height="20px" viewBox="0 0 20 20" version="1.1" xmlns="http://www.w3.org/2000/svg" xmlns:xlink="http://www.w3.org/1999/xlink">
    <title>Icon/基金备份 6</title>
    <g id="页面-1" stroke="none" stroke-width="1" fill="none" fill-rule="evenodd">
        <g id="我的" transform="translate(-317, -573)" fill="#212634" fill-rule="nonzero">
            <g id="Icon/基金备份-6" transform="translate(317, 573)">
                <path d="M9.57341883,0 C14.3080894,0 18.1468377,3.83874828 18.1468377,8.57341883 C18.1468377,10.9103899 17.2087627,13.0265955 15.6912676,14.5733831 L15.6076768,14.6605462 L10.7601229,19.5081001 C10.1042563,20.1639666 9.04115241,20.1639666 8.38528587,19.5081001 L3.45056888,14.5733831 C1.93807491,13.0265955 1,10.9103899 1,8.57341883 C1,3.83874828 4.83874828,0 9.57341883,0 Z M9.57341883,2 C5.94331778,2 3,4.94331778 3,8.57341883 C3,10.3167852 3.68207421,11.9487067 4.88246787,13.173425 L5.077,13.372 L9.572,17.866 L14.059,13.38 L14.2636003,13.1727525 C15.3939877,12.020545 16.0647835,10.5075312 16.1397892,8.87988562 L16.1468377,8.57341883 C16.1468377,4.94331778 13.2035199,2 9.57341883,2 Z" id="路径"></path>
                <path d="M9.57556218,4.28670941 C11.9432547,4.28670941 13.8622716,6.20572633 13.8622716,8.57341883 C13.8622716,10.9411113 11.9432547,12.8601282 9.57556218,12.8601282 C7.20786968,12.8601282 5.28885277,10.9411113 5.28885277,8.57341883 C5.28885277,6.20572633 7.20786968,4.28670941 9.57556218,4.28670941 Z M9.57556218,6.28670941 C8.31243918,6.28670941 7.28885277,7.31029583 7.28885277,8.57341883 C7.28885277,9.83654183 8.31243918,10.8601282 9.57556218,10.8601282 C10.8386852,10.8601282 11.8622716,9.83654183 11.8622716,8.57341883 C11.8622716,7.31029583 10.8386852,6.28670941 9.57556218,6.28670941 Z" id="路径"></path>
            </g>
        </g>
    </g>
</svg>