<?xml version="1.0" encoding="UTF-8"?>
<svg width="18px" height="18px" viewBox="0 0 18 18" version="1.1" xmlns="http://www.w3.org/2000/svg" xmlns:xlink="http://www.w3.org/1999/xlink">
    <title>Icon/基金备份 4</title>
    <g id="页面-1" stroke="none" stroke-width="1" fill="none" fill-rule="evenodd">
        <g id="我的" transform="translate(-141, -676)" fill="#4297FE" fill-rule="nonzero">
            <g id="Icon/基金备份-4" transform="translate(141, 676)">
                <path d="M12.6,2.7 C14.0911688,2.7 15.3,3.90883118 15.3,5.4 L15.3,15.3 C15.3,16.7911688 14.0911688,18 12.6,18 L5.4,18 C3.90883118,18 2.7,16.7911688 2.7,15.3 L2.7,5.4 C2.7,3.90883118 3.90883118,2.7 5.4,2.7 L12.6,2.7 Z M12.6,4.5 L5.4,4.5 C4.90294373,4.5 4.5,4.90294373 4.5,5.4 L4.5,15.3 C4.5,15.7970563 4.90294373,16.2 5.4,16.2 L12.6,16.2 C13.0970563,16.2 13.5,15.7970563 13.5,15.3 L13.5,5.4 C13.5,4.90294373 13.0970563,4.5 12.6,4.5 Z M6.3,6.3 L11.7,6.3 C12.1970563,6.3 12.6,6.70294373 12.6,7.2 C12.6,7.69705627 12.1970563,8.1 11.7,8.1 L6.3,8.1 C5.80294373,8.1 5.4,7.69705627 5.4,7.2 C5.4,6.70294373 5.80294373,6.3 6.3,6.3 Z M6.3,9 L11.7,9 C12.1970563,9 12.6,9.40294373 12.6,9.9 C12.6,10.3970563 12.1970563,10.8 11.7,10.8 L6.3,10.8 C5.80294373,10.8 5.4,10.3970563 5.4,9.9 C5.4,9.40294373 5.80294373,9 6.3,9 Z M10.8,11.7 C11.2970563,11.7 11.7,12.1029437 11.7,12.6 C11.7,13.0970563 11.2970563,13.5 10.8,13.5 L7.2,13.5 C6.70294373,13.5 6.3,13.0970563 6.3,12.6 C6.3,12.1029437 6.70294373,11.7 7.2,11.7 L10.8,11.7 Z M15.3,0 C16.7911688,0 18,1.20883118 18,2.7 L18,4.5 C18,5.99116882 16.7911688,7.2 15.3,7.2 L14.4020833,7.2 L14.4020833,5.4 L15.3,5.4 C15.7970563,5.4 16.2,4.99705627 16.2,4.5 L16.2,2.7 C16.2,2.20294373 15.7970563,1.8 15.3,1.8 L2.7,1.8 C2.20294373,1.8 1.8,2.20294373 1.8,2.7 L1.8,4.5 C1.8,4.99705627 2.20294373,5.4 2.7,5.4 L3.41742896,5.4 L3.41742896,7.2 L2.7,7.2 C1.20883118,7.2 0,5.99116882 0,4.5 L0,2.7 C0,1.20883118 1.20883118,0 2.7,0 L15.3,0 Z" id="形状结合"></path>
            </g>
        </g>
    </g>
</svg>