<?xml version="1.0" encoding="UTF-8"?>
<svg width="20px" height="20px" viewBox="0 0 20 20" version="1.1" xmlns="http://www.w3.org/2000/svg" xmlns:xlink="http://www.w3.org/1999/xlink">
    <title>Icon/基金备份</title>
    <g id="页面-1" stroke="none" stroke-width="1" fill="none" fill-rule="evenodd">
        <g id="我的" transform="translate(-185, -573)" fill="#212634" fill-rule="nonzero">
            <g id="Icon/基金备份" transform="translate(185, 573)">
                <path d="M17.4142136,1 L17.7071068,1.29289322 L20,3.58578644 L20,16.4142136 L17.4142136,19 L2.58578644,19 L0.292893219,16.7071068 L0,16.4142136 L0,3.58578644 L2.58578644,1 L17.4142136,1 Z M16.585,3 L3.414,3 L2,4.414 L2,15.585 L3.415,17 L16.584,17 L18,15.584 L18,4.415 L16.585,3 Z M8.98519406,4.44407899 L8.98519406,16.0356785 L4.86387346,11.9143579 L6.27808702,10.5001443 L6.98498024,11.207079 L6.98519406,4.44407899 L8.98519406,4.44407899 Z M10.5709802,4.02986543 L14.6923008,8.15118603 L13.2780873,9.56539959 L12.5711941,8.85846489 L12.5709802,15.6214649 L10.5709802,15.6214649 L10.5709802,4.02986543 Z" id="形状结合"></path>
            </g>
        </g>
    </g>
</svg>