<?xml version="1.0" encoding="UTF-8"?>
<svg width="18px" height="18px" viewBox="0 0 18 18" version="1.1" xmlns="http://www.w3.org/2000/svg" xmlns:xlink="http://www.w3.org/1999/xlink">
    <title>Icon/基金备份</title>
    <g id="页面-1" stroke="none" stroke-width="1" fill="none" fill-rule="evenodd">
        <g id="我的" transform="translate(-141, -576)" fill="#4297FE" fill-rule="nonzero">
            <g id="Icon/基金备份" transform="translate(141, 576)">
                <path d="M13.05,0 L17.1,3.6 L17.1,14.4 C17.1,16.3882251 15.4882251,18 13.5,18 L4.5,18 C2.5117749,18 0.9,16.3882251 0.9,14.4 L0.9,3.6 C0.9,1.6117749 2.5117749,0 4.5,0 L13.05,0 Z M12.366,1.8 L4.5,1.8 C3.50588745,1.8 2.7,2.60588745 2.7,3.6 L2.7,14.4 C2.7,15.3941125 3.50588745,16.2 4.5,16.2 L13.5,16.2 C14.4941125,16.2 15.3,15.3941125 15.3,14.4 L15.3,4.4082 L12.366,1.8 Z M12.6,12.6 C13.0970563,12.6 13.5,13.0029437 13.5,13.5 C13.5,13.9970563 13.0970563,14.4 12.6,14.4 L4.5,14.4 C4.00294373,14.4 3.6,13.9970563 3.6,13.5 C3.6,13.0029437 4.00294373,12.6 4.5,12.6 Z M12.6,9 C13.0970563,9 13.5,9.40294373 13.5,9.9 C13.5,10.3970563 13.0970563,10.8 12.6,10.8 L4.5,10.8 C4.00294373,10.8 3.6,10.3970563 3.6,9.9 C3.6,9.40294373 4.00294373,9 4.5,9 Z M10.8,5.4 C11.2970563,5.4 11.7,5.80294373 11.7,6.3 C11.7,6.79705627 11.2970563,7.2 10.8,7.2 L4.5,7.2 C4.00294373,7.2 3.6,6.79705627 3.6,6.3 C3.6,5.80294373 4.00294373,5.4 4.5,5.4 Z" id="形状结合"></path>
            </g>
        </g>
    </g>
</svg>