<?xml version="1.0" encoding="UTF-8"?>
<svg width="16px" height="16px" viewBox="0 0 16 16" version="1.1" xmlns="http://www.w3.org/2000/svg" xmlns:xlink="http://www.w3.org/1999/xlink">
    <title>Icon/基金备份 8</title>
    <g id="页面-1" stroke="none" stroke-width="1" fill="none" fill-rule="evenodd">
        <g id="我的" transform="translate(-12, -813)" fill-rule="nonzero">
            <g id="Icon/基金备份-8" transform="translate(12, 813)">
                <path d="M8.55915635,0.139244455 L8.67703628,0.200512016 L14.3091095,3.45219099 C14.7721721,3.71954034 15.0574305,4.21362232 15.0574305,4.74832103 L15.0574305,11.251679 C15.0574305,11.7863777 14.7721721,12.2804597 14.3091095,12.547809 L8.67703628,15.799488 C8.21397361,16.0668373 7.64345688,16.0668373 7.18039422,15.799488 L1.54832103,12.547809 C1.08525837,12.2804597 0.8,11.7863777 0.8,11.251679 L0.8,4.74832103 C0.8,4.21362232 1.08525837,3.71954034 1.54832103,3.45219099 L7.18039422,0.200512016 C7.60486833,-0.0445582257 8.1196337,-0.0649807458 8.55915635,0.139244455 Z M7.9288,1.6152 L2.4,4.8072 L2.4,11.192 L7.9288,14.384 L13.4568,11.192 L13.4568,4.8072 L7.9288,1.6152 Z" id="多边形备份" fill="#303442"></path>
                <path d="M8,4.8 C9.7673112,4.8 11.2,6.2326888 11.2,8 C11.2,9.7673112 9.7673112,11.2 8,11.2 C6.2326888,11.2 4.8,9.7673112 4.8,8 C4.8,6.2326888 6.2326888,4.8 8,4.8 Z M8,6.4 C7.1163444,6.4 6.4,7.1163444 6.4,8 C6.4,8.8836556 7.1163444,9.6 8,9.6 C8.8836556,9.6 9.6,8.8836556 9.6,8 C9.6,7.1163444 8.8836556,6.4 8,6.4 Z" id="椭圆形备份" fill="#4297FE"></path>
            </g>
        </g>
    </g>
</svg>