<?xml version="1.0" encoding="UTF-8"?>
<svg width="108px" height="64px" viewBox="0 0 108 64" version="1.1" xmlns="http://www.w3.org/2000/svg" xmlns:xlink="http://www.w3.org/1999/xlink">
    <title>编组</title>
    <g id="页面-1" stroke="none" stroke-width="1" fill="none" fill-rule="evenodd">
        <g id="我的" transform="translate(-24, -561)" fill="#4297FE">
            <g id="编组" transform="translate(24, 561)">
                <path d="M103.792893,0.5 L107.5,4.20710678 L107.5,57.7928932 L103.792893,61.5 L72.7828769,61.5 L70.9142818,63.5 L6.20710678,63.5 L2.5,59.7928932 L2.5,32.690983 L0.5,31.690983 L0.5,6.20710678 L4.20710678,2.5 L49.2071068,2.5 L51.2071068,0.5 L103.792893,0.5 Z" id="矩形-2" stroke="#4297FE" fill-opacity="0.1"></path>
                <rect id="矩形-6" x="65" y="1" width="33" height="2"></rect>
                <polygon id="矩形-3" points="0 13 3 12 3 28 0 27"></polygon>
                <polygon id="矩形-3备份-2" points="105 24 108 23 108 39 105 38"></polygon>
                <polygon id="矩形-3备份" transform="translate(1.5, 48) scale(-1, 1) translate(-1.5, -48)" points="0 41 3 40 3 56 0 55"></polygon>
                <rect id="矩形-6备份-2" x="9" y="61" width="14" height="2"></rect>
                <rect id="矩形-6备份-3" x="24" y="61" width="14" height="2"></rect>
                <rect id="矩形-6备份-4" x="39" y="61" width="14" height="2"></rect>
                <path d="M48,0 L46,2 L44,2 L46,0 L48,0 Z M44,0 L42,2 L40,2 L42,0 L44,0 Z M40,0 L38,2 L36,2 L38,0 L40,0 Z M36,0 L34,2 L32,2 L34,0 L36,0 Z M32,0 L30,2 L28,2 L30,0 L32,0 Z M28,0 L26,2 L24,2 L26,0 L28,0 Z M24,0 L22,2 L20,2 L22,0 L24,0 Z M20,0 L18,2 L16,2 L18,0 L20,0 Z" id="形状结合"></path>
                <path d="M74,62 L76,62 L76,64 L74,64 L74,62 Z M80,62 L82,62 L82,64 L80,64 L80,62 Z M86,62 L88,62 L88,64 L86,64 L86,62 Z M92,62 L94,62 L94,64 L92,64 L92,62 Z M98,62 L100,62 L100,64 L98,64 L98,62 Z" id="形状结合"></path>
            </g>
        </g>
    </g>
</svg>