<?xml version="1.0" encoding="UTF-8"?>
<svg width="16px" height="16px" viewBox="0 0 16 16" version="1.1" xmlns="http://www.w3.org/2000/svg" xmlns:xlink="http://www.w3.org/1999/xlink">
    <title>Icon/基金备份 13</title>
    <g id="页面-1" stroke="none" stroke-width="1" fill="none" fill-rule="evenodd">
        <g id="我的" transform="translate(-12, -903)" fill-rule="nonzero">
            <g id="Icon/基金备份-13" transform="translate(12, 903)">
                <path d="M6.4,0 C8.609139,0 10.4,1.790861 10.4,4 L10.4,4.06632067 C10.4,4.50814847 10.0418278,4.86632067 9.6,4.86632067 C9.1581722,4.86632067 8.8,4.50814847 8.8,4.06632067 L8.8,4 C8.8,2.6745166 7.7254834,1.6 6.4,1.6 L4,1.6 C2.6745166,1.6 1.6,2.6745166 1.6,4 L1.6,12 C1.6,13.3254834 2.6745166,14.4 4,14.4 L6.4,14.4 C7.7254834,14.4 8.8,13.3254834 8.8,12 C8.8,11.5581722 9.1581722,11.2 9.6,11.2 C10.0418278,11.2 10.4,11.5581722 10.4,12 C10.4,14.209139 8.609139,16 6.4,16 L4,16 C1.790861,16 0,14.209139 0,12 L0,4 C0,1.790861 1.790861,0 4,0 L6.4,0 Z" id="路径" fill="#212634"></path>
                <path d="M11.4343146,3.83431458 C11.746734,3.52189514 12.253266,3.52189514 12.5656854,3.83431458 L15.7656854,7.03431458 C16.0781049,7.34673401 16.0781049,7.85326599 15.7656854,8.16568542 L12.5656854,11.3656854 C12.253266,11.6781049 11.746734,11.6781049 11.4343146,11.3656854 C11.1218951,11.053266 11.1218951,10.546734 11.4343146,10.2343146 L14.068,7.6 L11.4343146,4.96568542 C11.1459274,4.67729826 11.1237438,4.22351341 11.3677637,3.90968045 L11.4343146,3.83431458 Z" id="路径" fill="#4297FE"></path>
                <path d="M15.2,6.8 C15.6418278,6.8 16,7.1581722 16,7.6 C16,8.0418278 15.6418278,8.4 15.2,8.4 L5.37800868,8.4 C4.93618088,8.4 4.57800868,8.0418278 4.57800868,7.6 C4.57800868,7.1581722 4.93618088,6.8 5.37800868,6.8 L15.2,6.8 Z" id="路径-5" fill="#4297FE"></path>
            </g>
        </g>
    </g>
</svg>