<?xml version="1.0" encoding="UTF-8"?>
<svg width="18px" height="18px" viewBox="0 0 18 18" version="1.1" xmlns="http://www.w3.org/2000/svg" xmlns:xlink="http://www.w3.org/1999/xlink">
    <title>Icon/基金备份 7</title>
    <g id="页面-1" stroke="none" stroke-width="1" fill="none" fill-rule="evenodd">
        <g id="我的" transform="translate(-323, -676)" fill="#4297FE" fill-rule="nonzero">
            <g id="Icon/基金备份-7" transform="translate(323, 676)">
                <path d="M6.936975,1.8 C9.3564,1.8 11.3177475,3.7612125 11.3177475,6.18057 C11.3177475,7.46568053 10.7643253,8.62153309 9.8827988,9.42284023 C12.2309937,10.5320603 13.855815,12.9250121 13.855815,15.697665 C13.855815,16.194735 13.4528625,16.597665 12.955815,16.597665 C12.46374,16.597665 12.0638925,16.202745 12.0559275,15.71256 L12.055815,15.697665 C12.055815,12.8605275 9.75969,10.561095 6.9279075,10.561095 C4.1244525,10.561095 1.8459675,12.8147625 1.8006975,15.6127275 L1.8,15.697665 C1.8,16.194735 1.3970475,16.597665 0.9,16.597665 C0.4029525,16.597665 -1.07469589e-13,16.194735 -1.07469589e-13,15.697665 C-1.07469589e-13,12.9202712 1.63038256,10.523878 3.98538853,9.41603688 C3.1071469,8.61637318 2.5562025,7.4628046 2.5562025,6.1805475 C2.5562025,3.761235 4.51755,1.8 6.936975,1.8 Z M12.202335,8.6755725 C13.279635,8.6755725 14.1514425,7.807365 14.1514425,6.7382325 C14.1514425,5.6797875 13.2969825,4.8182625 12.2345775,4.80114 L12.202335,4.80087 C11.705265,4.80087 11.302335,4.3979175 11.302335,3.90087 C11.302335,3.4038225 11.705265,3.00087 12.202335,3.00087 C14.2720875,3.00087 15.9514425,4.673295 15.9514425,6.7382325 C15.9514425,7.75213068 15.546562,8.67140233 14.8893872,9.34452938 C16.738756,10.3183764 18,12.2603028 18,14.496795 C18,14.993865 17.5970475,15.396795 17.1,15.396795 C16.607925,15.396795 16.2080775,15.001875 16.2001125,14.51169 L16.2,14.496795 C16.2,12.2981625 14.43546,10.51164 12.2452875,10.4761125 L12.1787775,10.4755725 C11.68173,10.4755725 11.2787775,10.0726425 11.2787775,9.5755725 C11.2787775,9.078525 11.68173,8.6755725 12.1787775,8.6755725 L12.202335,8.6755725 Z M6.9369525,3.6 C5.511645,3.6 4.3562025,4.755375 4.3562025,6.18057 C4.3562025,7.60572 5.511645,8.761095 6.936975,8.761095 C8.362305,8.761095 9.5177475,7.6057425 9.5177475,6.1805475 C9.5177475,4.755375 8.362305,3.6 6.936975,3.6 Z" id="形状结合"></path>
            </g>
        </g>
    </g>
</svg>