<?xml version="1.0" encoding="UTF-8"?>
<svg width="20px" height="20px" viewBox="0 0 20 20" version="1.1" xmlns="http://www.w3.org/2000/svg" xmlns:xlink="http://www.w3.org/1999/xlink">
    <title>Icon/基金备份 3</title>
    <g id="页面-1" stroke="none" stroke-width="1" fill="none" fill-rule="evenodd">
        <g id="我的" transform="translate(-229, -645)" fill="#212634" fill-rule="nonzero">
            <g id="Icon/基金备份-3" transform="translate(229, 645)">
                <path d="M14.52,0 L14.52,1.8 L18.75,1.8 L18.75,20 L1.25,20 L1.25,1.8 L5.48,1.8 L5.48,0 L14.52,0 Z M5.48,3.84 L3.285,3.84 L3.285,17.965 L16.72,17.965 L16.715,3.84 L14.52,3.84 L14.52,5.95 L5.48,5.95 L5.48,3.84 Z M14.18,12.97 L14.18,15.005 L5.82,15.005 L5.82,12.97 L14.18,12.97 Z M14.18,8.445 L14.18,10.48 L5.82,10.48 L5.82,8.445 L14.18,8.445 Z M12.49,2.035 L7.52,2.035 L7.515,3.915 L12.49,3.915 L12.49,2.035 Z" id="形状结合"></path>
            </g>
        </g>
    </g>
</svg>