<?xml version="1.0" encoding="UTF-8"?>
<svg width="18px" height="18px" viewBox="0 0 18 18" version="1.1" xmlns="http://www.w3.org/2000/svg" xmlns:xlink="http://www.w3.org/1999/xlink">
    <title>Icon/基金备份 3</title>
    <g id="页面-1" stroke="none" stroke-width="1" fill="none" fill-rule="evenodd">
        <g id="我的" transform="translate(-232, -676)" fill="#4297FE" fill-rule="nonzero">
            <g id="Icon/基金备份-3" transform="translate(232, 676)">
                <path d="M8.99237688,0 C10.0481932,0 10.9396525,0.42656263 11.3764581,1.04926252 L12.9810978,1.04926252 L12.9809743,2.7150671 L14.2078252,2.71526389 C14.8768496,2.71526389 15.4835584,2.98734714 15.922979,3.42679529 C16.3623845,3.86622836 16.6344538,4.47295542 16.6344538,5.14203363 L16.6344538,15.5732303 C16.6344538,16.2423108 16.3623871,16.8490396 15.9229813,17.2884729 C15.4835635,17.7279183 14.8768568,18 14.2078252,18 L3.77662857,18 C3.10760415,18 2.50089531,17.7279167 2.06147473,17.2884686 C1.62206923,16.8490355 1.35,16.2423085 1.35,15.5732303 L1.35,5.14203365 C1.35,4.47295543 1.62206923,3.86622837 2.06147473,3.4267953 C2.50089531,2.98734715 3.10760415,2.71526389 3.77660023,2.71526389 L5.00279293,2.7150671 L5.00347686,1.04926252 L6.60826495,1.04926252 C7.04483832,0.426577137 7.93628652,0 8.99237688,0 Z M12.9809761,4.428912 L12.9810996,5.89509033 L5.00348672,5.89509033 L5.00280285,4.428912 L3.77671636,4.42952155 C3.58022368,4.42952158 3.40218521,4.50950178 3.27321559,4.63849189 C3.14422509,4.76750287 3.06425769,4.94559802 3.06425769,5.14203363 L3.06425769,15.5732303 C3.06425769,15.7696659 3.14422509,15.947761 3.27321559,16.076772 C3.40218521,16.2057621 3.58022368,16.2857423 3.77662857,16.2857423 L14.2078252,16.2857423 C14.4042301,16.2857423 14.5822686,16.2057621 14.7112382,16.076772 C14.8402287,15.947761 14.9201961,15.7696659 14.9201961,15.5732303 L14.9201961,5.14203365 C14.9201961,4.94559803 14.8402287,4.76750288 14.7112382,4.63849191 C14.5822685,4.5095018 14.4042301,4.42952159 14.2078252,4.42952159 L12.9809761,4.428912 Z M12.5697411,12.843394 C12.8064569,12.843394 13.0207386,12.9393251 13.1758431,13.0944296 C13.3309476,13.2495341 13.4268788,13.4638158 13.4268788,13.7005316 C13.4268788,13.9372474 13.3309476,14.1515291 13.1758431,14.3066336 C13.0207386,14.4617382 12.8064569,14.5576693 12.5697411,14.5576693 L5.41473032,14.5576693 C5.17801452,14.5576693 4.96373283,14.4617382 4.8086283,14.3066336 C4.65352378,14.1515291 4.55759265,13.9372474 4.55759265,13.7005316 C4.55759265,13.4638158 4.65352377,13.2495341 4.8086283,13.0944296 C4.96373283,12.9393251 5.17801451,12.843394 5.41473032,12.843394 L12.5697411,12.843394 Z M12.5697411,10.1032657 C12.8064569,10.1032657 13.0207386,10.1991968 13.1758431,10.3543013 C13.3309476,10.5094059 13.4268788,10.7236875 13.4268788,10.9604033 C13.4268788,11.1971191 13.3309476,11.4114008 13.1758431,11.5665053 C13.0207386,11.7216099 12.8064569,11.817541 12.5697411,11.817541 L5.41473032,11.817541 C5.17801452,11.817541 4.96373283,11.7216099 4.8086283,11.5665053 C4.65352378,11.4114008 4.55759265,11.1971191 4.55759265,10.9604033 C4.55759265,10.7236875 4.65352377,10.5094058 4.8086283,10.3543013 C4.96373283,10.1991968 5.17801451,10.1032657 5.41473032,10.1032657 L12.5697411,10.1032657 Z M12.5697411,7.36301386 C12.8064569,7.36301386 13.0207386,7.45894499 13.1758431,7.61404952 C13.3309476,7.76915405 13.4268788,7.98343573 13.4268788,8.22015154 C13.4268788,8.45686734 13.3309476,8.67114902 13.1758431,8.82625355 C13.0207386,8.98135808 12.8064569,9.07728921 12.5697411,9.07728921 L5.41473032,9.07728921 C5.17801452,9.07728921 4.96373283,8.98135808 4.8086283,8.82625355 C4.65352378,8.67114902 4.55759265,8.45686734 4.55759265,8.22015154 C4.55759265,7.98343573 4.65352377,7.76915405 4.8086283,7.61404952 C4.96373283,7.45894499 5.17801451,7.36301386 5.41473032,7.36301386 L12.5697411,7.36301386 Z M8.99235924,1.71425767 C8.7348585,1.71425767 8.52250042,1.76512666 8.01657243,2.07022129 L7.95573392,2.76352019 L6.71766206,2.76352019 L6.71766206,4.180815 L11.2667917,4.180815 L11.2667917,2.7635202 L10.0836306,2.7635202 L9.58537893,1.80186573 C9.4264086,1.75025924 9.22755307,1.71425767 8.99235924,1.71425767 Z" id="形状结合"></path>
            </g>
        </g>
    </g>
</svg>