<?xml version="1.0" encoding="UTF-8"?>
<svg width="18px" height="18px" viewBox="0 0 18 18" version="1.1" xmlns="http://www.w3.org/2000/svg" xmlns:xlink="http://www.w3.org/1999/xlink">
    <title>Icon/基金备份 9</title>
    <g id="页面-1" stroke="none" stroke-width="1" fill="none" fill-rule="evenodd">
        <g id="我的" transform="translate(-232, -776)" fill="#4297FE" fill-rule="nonzero">
            <g id="Icon/基金备份-9" transform="translate(232, 776)">
                <path d="M9,0 C13.9705627,0 18,4.02943725 18,9 C18,13.9705627 13.9705627,18 9,18 L2.7,18 C1.20883118,18 0,16.7911688 0,15.3 L0,9 C0,4.02943725 4.02943725,0 9,0 Z M9,1.8 C5.0235498,1.8 1.8,5.0235498 1.8,9 L1.8,15.3 C1.8,15.7970563 2.20294373,16.2 2.7,16.2 L9,16.2 C12.9764502,16.2 16.2,12.9764502 16.2,9 C16.2,5.0235498 12.9764502,1.8 9,1.8 Z" id="形状结合"></path>
                <path d="M8.1,9.9 C8.59705627,9.9 9,10.3029437 9,10.8 C9,11.2970563 8.59705627,11.7 8.1,11.7 L5.4,11.7 C4.90294373,11.7 4.5,11.2970563 4.5,10.8 C4.5,10.3029437 4.90294373,9.9 5.4,9.9 L8.1,9.9 Z" id="路径"></path>
                <path d="M12.6,6.3 C13.0970563,6.3 13.5,6.70294373 13.5,7.2 C13.5,7.69705627 13.0970563,8.1 12.6,8.1 L5.4,8.1 C4.90294373,8.1 4.5,7.69705627 4.5,7.2 C4.5,6.70294373 4.90294373,6.3 5.4,6.3 L12.6,6.3 Z" id="路径"></path>
            </g>
        </g>
    </g>
</svg>