<?xml version="1.0" encoding="UTF-8"?>
<svg width="18px" height="18px" viewBox="0 0 18 18" version="1.1" xmlns="http://www.w3.org/2000/svg" xmlns:xlink="http://www.w3.org/1999/xlink">
    <title>Icon/基金备份 8</title>
    <g id="页面-1" stroke="none" stroke-width="1" fill="none" fill-rule="evenodd">
        <g id="我的" transform="translate(-323, -776)" fill="#4297FE" fill-rule="nonzero">
            <g id="Icon/基金备份-8" transform="translate(323, 776)">
                <path d="M7.2,0 C9.68528137,0 11.7,2.01471863 11.7,4.5 L11.7,4.57461076 C11.7,5.07166703 11.2970563,5.47461076 10.8,5.47461076 C10.3029437,5.47461076 9.9,5.07166703 9.9,4.57461076 L9.9,4.5 C9.9,3.00883118 8.69116882,1.8 7.2,1.8 L4.5,1.8 C3.00883118,1.8 1.8,3.00883118 1.8,4.5 L1.8,13.5 C1.8,14.9911688 3.00883118,16.2 4.5,16.2 L7.2,16.2 C8.69116882,16.2 9.9,14.9911688 9.9,13.5 C9.9,13.0029437 10.3029437,12.6 10.8,12.6 C11.2970563,12.6 11.7,13.0029437 11.7,13.5 C11.7,15.9852814 9.68528137,18 7.2,18 L4.5,18 C2.01471863,18 0,15.9852814 0,13.5 L0,4.5 C0,2.01471863 2.01471863,0 4.5,0 L7.2,0 Z" id="路径"></path>
                <path d="M12.8636039,4.3136039 C13.2150758,3.96213203 13.7849242,3.96213203 14.1363961,4.3136039 L17.7363961,7.9136039 C18.087868,8.26507576 18.087868,8.83492424 17.7363961,9.1863961 L14.1363961,12.7863961 C13.7849242,13.137868 13.2150758,13.137868 12.8636039,12.7863961 C12.512132,12.4349242 12.512132,11.8650758 12.8636039,11.5136039 L15.8265,8.55 L12.8636039,5.5863961 C12.5391683,5.26196054 12.5142117,4.75145259 12.7887342,4.3983905 L12.8636039,4.3136039 Z" id="路径"></path>
                <path d="M17.1,7.65 C17.5970563,7.65 18,8.05294373 18,8.55 C18,9.04705627 17.5970563,9.45 17.1,9.45 L6.05025976,9.45 C5.55320348,9.45 5.15025976,9.04705627 5.15025976,8.55 C5.15025976,8.05294373 5.55320348,7.65 6.05025976,7.65 L17.1,7.65 Z" id="路径-5"></path>
            </g>
        </g>
    </g>
</svg>