<?xml version="1.0" encoding="UTF-8"?>
<svg width="68px" height="68px" viewBox="0 0 68 68" version="1.1" xmlns="http://www.w3.org/2000/svg" xmlns:xlink="http://www.w3.org/1999/xlink">
    <title>编组</title>
    <defs>
        <polygon id="path-1" points="0 0 20 0 20 20 0 20"></polygon>
    </defs>
    <g id="页面-1" stroke="none" stroke-width="1" fill="none" fill-rule="evenodd">
        <g id="个人资料-实名认证" transform="translate(-161, -100)">
            <g id="编组" transform="translate(161, 100)">
                <circle id="椭圆形" fill="#01A25E" opacity="0.049999997" cx="34" cy="34" r="34"></circle>
                <circle id="椭圆形" fill="#01A25E" opacity="0.5" cx="34" cy="34" r="28"></circle>
                <g id="Icon/密码备份-3" transform="translate(24, 24)">
                    <mask id="mask-2" fill="white">
                        <use xlink:href="#path-1"></use>
                    </mask>
                    <g id="矩形"></g>
                    <path d="M10,0 C4.47625,0 0,4.478125 0,10 C0,15.52375 4.476875,20 10,20 C15.52125,20 20,15.523125 20,10 C20,4.47875 15.5225,0 10,0 L10,0 Z M6.875,6.25 C7.91,6.25 8.75,7.089375 8.75,8.124375 C8.75,9.159375 7.91,9.99875 6.875,9.99875 C5.84,9.99875 5,9.16 5,8.124375 C5,7.089375 5.839375,6.25 6.875,6.25 L6.875,6.25 Z M3.75,13.749375 C3.75,12.625 3.891875,12.395 4.37375,11.908125 C4.906875,11.368125 5.91875,11.25 6.825,11.25 C7.643125,11.25 8.82625,11.3875 9.383125,11.908125 C9.99875,12.485 9.99500027,12.83375 9.99500027,13.749375 L3.75,13.749375 L3.75,13.749375 Z M14.999375,12.5 L11.24875,12.5 L11.24875,11.25 L14.999375,11.25 L14.999375,12.5 Z M16.249375,9.99875 L11.25,9.99875 L11.25,8.74875 L16.249375,8.74875 L16.249375,9.99875 Z M16.249375,7.499375 L11.25,7.499375 L11.25,6.25 L16.249375,6.25 L16.249375,7.499375 Z" id="形状" fill="#FFFFFF" fill-rule="nonzero" mask="url(#mask-2)"></path>
                </g>
            </g>
        </g>
    </g>
</svg>