<?xml version="1.0" encoding="UTF-8"?>
<svg width="16px" height="16px" viewBox="0 0 16 16" version="1.1" xmlns="http://www.w3.org/2000/svg" xmlns:xlink="http://www.w3.org/1999/xlink">
    <title>Icon/复制备份 2</title>
    <g id="页面-1" stroke="none" stroke-width="1" fill="none" fill-rule="evenodd">
        <g id="个人-推荐返佣" transform="translate(-24, -270)" fill="#212634" fill-rule="nonzero">
            <g id="Icon/复制备份-2" transform="translate(24, 270)">
                <path d="M6.29607392,6.29267111 C6.61007127,5.97867376 7.11916156,5.97867376 7.43315891,6.29267111 C7.74715626,6.60666846 7.74715626,7.11575875 7.43315891,7.4297561 C6.48946546,8.37344955 6.48946546,9.90072043 7.43145751,10.8427125 L10.27417,13.6854249 C11.216162,14.627417 12.7434329,14.627417 13.6854249,13.6854249 C14.627417,12.7434329 14.627417,11.216162 13.6854249,10.27417 L11.411255,8 C11.0972576,7.68600265 11.0972576,7.17691236 11.411255,6.86291501 C11.7252523,6.54891766 12.2343426,6.54891766 12.54834,6.86291501 L14.8225099,9.13708499 C16.3924967,10.7070717 16.3924967,13.2525232 14.8225099,14.8225099 C13.2525232,16.3924967 10.7070717,16.3924967 9.13708499,14.8225099 L6.29437252,11.9797975 C4.77196112,10.4573861 4.72582744,8.0177333 6.15597148,6.43973153 L6.29607392,6.29267111 Z M1.17749006,1.17749006 C2.74747681,-0.392496687 5.29292826,-0.392496687 6.86291501,1.17749006 L9.70562748,4.02020254 C11.2756142,5.59018928 11.2756142,8.13564074 9.70562748,9.70562748 C9.3921024,10.0191526 8.8837778,10.0191526 8.57025272,9.70562748 C8.27741206,9.41278683 8.25661703,8.9536915 8.5061574,8.63856608 L8.56854249,8.56854249 C9.51053454,7.62655045 9.51053454,6.09927957 8.56854249,5.15728753 L5.72583002,2.31457505 C4.78383797,1.372583 3.2565671,1.372583 2.31457505,2.31457505 C1.372583,3.2565671 1.372583,4.78383797 2.31457505,5.72583002 L4.58874503,8 C4.90274238,8.31399735 4.90274238,8.82308764 4.58874503,9.13708499 C4.27474768,9.45108234 3.76565739,9.45108234 3.45166004,9.13708499 L1.17749006,6.86291501 C-0.392496687,5.29292826 -0.392496687,2.74747681 1.17749006,1.17749006 Z" id="形状"></path>
            </g>
        </g>
    </g>
</svg>