<?xml version="1.0" encoding="UTF-8"?>
<svg width="16px" height="16px" viewBox="0 0 16 16" version="1.1" xmlns="http://www.w3.org/2000/svg" xmlns:xlink="http://www.w3.org/1999/xlink">
    <title>Icon/复制</title>
    <g id="页面-1" stroke="none" stroke-width="1" fill="none" fill-rule="evenodd">
        <g id="个人-推荐返佣" transform="translate(-350, -303)" fill="#4297FE">
            <g id="Icon/复制" transform="translate(350, 303)">
                <path d="M9.6,0 C10.9254834,0 12,1.0745166 12,2.4 L12,10.4 C12,11.7254834 10.9254834,12.8 9.6,12.8 L2.4,12.8 C1.0745166,12.8 0,11.7254834 0,10.4 L0,2.4 C0,1.0745166 1.0745166,0 2.4,0 L9.6,0 Z M9.6,1.6 L2.4,1.6 C1.9581722,1.6 1.6,1.9581722 1.6,2.4 L1.6,10.4 C1.6,10.8418278 1.9581722,11.2 2.4,11.2 L9.6,11.2 C10.0418278,11.2 10.4,10.8418278 10.4,10.4 L10.4,2.4 C10.4,1.9581722 10.0418278,1.6 9.6,1.6 Z" id="矩形" fill-rule="nonzero"></path>
                <path d="M13.6,3.2 C14.9254834,3.2 16,4.2745166 16,5.6 L16,13.6 C16,14.9254834 14.9254834,16 13.6,16 L7.2,16 C5.8745166,16 4.8,14.9254834 4.8,13.6 L4.8,5.6 C4.8,4.2745166 5.8745166,3.2 7.2,3.2 L13.6,3.2 Z" id="路径" fill-rule="evenodd"></path>
            </g>
        </g>
    </g>
</svg>