<?xml version="1.0" encoding="UTF-8"?>
<svg width="16px" height="16px" viewBox="0 0 16 16" version="1.1" xmlns="http://www.w3.org/2000/svg" xmlns:xlink="http://www.w3.org/1999/xlink">
    <title>Icon/人名币备份 2</title>
    <g id="页面-1" stroke="none" stroke-width="1" fill="none" fill-rule="evenodd">
        <g id="我的持有-提现-usdt" transform="translate(-28, -160)" fill="#189C73" fill-rule="nonzero">
            <g id="Icon/人名币备份-2" transform="translate(28, 160)">
                <path d="M8.02547264,0.0370149219 C12.4218905,0.0370149219 15.9856716,3.60087563 15.9856716,7.99721394 C15.9856716,12.3936318 12.4218905,15.9574129 8.02547264,15.9574129 C3.62921394,15.9574129 0.065273625,12.3936318 0.065273625,7.99721394 C0.065273625,3.60087563 3.62921392,0.0370149219 8.02547264,0.0370149219 Z M11.7614328,4.05102487 L4.22392039,4.05102487 L4.22392039,5.87072637 L7.08282588,5.87072637 L7.08212865,7.07557461 C4.87054217,7.17250271 3.20151244,7.60931533 3.20151244,8.13357214 C3.20151244,8.65791045 4.87084577,9.09476617 7.08290547,9.19156219 L7.08290547,13.0310846 L8.90244777,13.0310846 L8.90244777,9.19307463 C11.1315423,9.09930348 12.8183085,8.66061691 12.8183085,8.13357214 C12.8183085,7.60659138 11.1320144,7.16796585 8.90327351,7.07409131 L8.90252736,5.87072637 L11.7614328,5.87072637 L11.7614328,4.05102487 Z M12.2922189,7.99418906 C12.2922189,8.4559602 10.3749254,8.83024875 8.00995025,8.83024875 C5.64497512,8.83024875 3.72760198,8.45596019 3.72760198,7.99418906 C3.72760198,7.59465891 5.16336867,7.26052095 7.08260586,7.17778785 L7.08282588,8.54535323 L8.90252736,8.54535323 L8.90341317,7.17635666 C10.8395434,7.25659964 12.2922189,7.5923132 12.2922189,7.99418906 Z" id="形状结合"></path>
            </g>
        </g>
    </g>
</svg>