<?xml version="1.0" encoding="UTF-8"?>
<svg width="24px" height="24px" viewBox="0 0 24 24" version="1.1" xmlns="http://www.w3.org/2000/svg" xmlns:xlink="http://www.w3.org/1999/xlink">
    <title>编组</title>
    <g id="页面-1" stroke="none" stroke-width="1" fill="none" fill-rule="evenodd">
        <g id="我的持有-提现-usdt" transform="translate(-36, -433)">
            <g id="编组" transform="translate(36, 433)">
                <rect id="矩形-2备份-3" fill="#389D7D" x="0" y="0" width="24" height="24" rx="4"></rect>
                <g id="Icon/银行备份" transform="translate(6, 6)" fill="#F4F9FE" fill-rule="nonzero">
                    <path d="M6.01910448,0.0277611914 C9.31641791,0.0277611914 11.9892537,2.70065672 11.9892537,5.99791045 C11.9892537,9.29522388 9.31641791,11.9680597 6.01910448,11.9680597 C2.72191045,11.9680597 0.0489552187,9.29522388 0.0489552187,5.99791045 C0.0489552187,2.70065672 2.72191044,0.0277611914 6.01910448,0.0277611914 Z M8.82107462,3.03826866 L3.16794029,3.03826866 L3.16794029,4.40304478 L5.31211941,4.40304478 L5.31183304,5.30667059 C3.65302564,5.37934588 2.40113433,5.70696781 2.40113433,6.10017911 C2.40113433,6.49343284 3.65313432,6.82107463 5.3121791,6.89367164 L5.3121791,9.77331343 L6.67683582,9.77331343 L6.67683582,6.89480597 C8.34865672,6.82447761 9.61373134,6.49546268 9.61373134,6.10017911 C9.61373134,5.7049047 8.34876225,5.37590975 6.67696247,5.30554774 L6.67689552,4.40304478 L8.82107462,4.40304478 L8.82107462,3.03826866 Z M9.21916418,5.9956418 C9.21916418,6.34197015 7.78119403,6.62268656 6.00746269,6.62268656 C4.23373134,6.62268656 2.79570149,6.34197014 2.79570149,5.9956418 C2.79570149,5.69600231 3.87246811,5.4454043 5.31183732,5.38334593 L5.31211941,6.40901493 L6.67689552,6.40901493 L6.67691255,5.38224068 C8.12933378,5.4423749 9.21916418,5.69419012 9.21916418,5.9956418 Z" id="形状结合"></path>
                </g>
            </g>
        </g>
    </g>
</svg>