<?xml version="1.0" encoding="UTF-8"?>
<svg width="14px" height="14px" viewBox="0 0 14 14" version="1.1" xmlns="http://www.w3.org/2000/svg" xmlns:xlink="http://www.w3.org/1999/xlink">
    <title>Icon/多选</title>
    <g id="页面-1" stroke="none" stroke-width="1" fill="none" fill-rule="evenodd">
        <g id="提现-2" transform="translate(-348, -496)" fill="#BE5828" fill-rule="nonzero">
            <g id="Icon/多选" transform="translate(348, 496)">
                <path d="M7,0 C10.862963,0 14,3.13703704 14,7 C14,10.862963 10.862963,14 7,14 C3.13703704,14 0,10.862963 0,7 C0,3.13703704 3.13703704,0 7,0 Z M7,1.4 C3.91023569,1.4 1.4,3.91023569 1.4,7 C1.4,10.0897643 3.91023569,12.6 7,12.6 C10.0897643,12.6 12.6,10.0897643 12.6,7 C12.6,3.91023569 10.0897643,1.4 7,1.4 Z M7,3.5 C8.93299662,3.5 10.5,5.06700338 10.5,7 C10.5,8.93299662 8.93299662,10.5 7,10.5 C5.06700338,10.5 3.5,8.93299662 3.5,7 C3.5,5.06700338 5.06700338,3.5 7,3.5 Z" id="形状结合"></path>
            </g>
        </g>
    </g>
</svg>