<?xml version="1.0" encoding="UTF-8"?>
<svg width="83px" height="82px" viewBox="0 0 83 82" version="1.1" xmlns="http://www.w3.org/2000/svg" xmlns:xlink="http://www.w3.org/1999/xlink">
    <title>形状结合@2x</title>
    <g id="页面-1" stroke="none" stroke-width="1" fill="none" fill-rule="evenodd">
        <g id="启动图" transform="translate(-153, -178)" fill="#FFBF3D">
            <path d="M175.686334,237.591873 C174.851867,237.635221 174.904157,238.872806 175.747962,238.837509 C176.582429,238.802521 176.413107,237.554098 175.686334,237.591873 L175.686334,237.591873 Z M171.136762,233.277819 C170.555032,233.407553 170.592694,234.314145 171.137074,234.434591 C172.236105,234.677959 172.232992,233.033522 171.136762,233.277819 L171.136762,233.277819 Z M175.393757,230.154286 C174.646441,230.288665 174.808914,231.48445 175.59327,231.404876 C176.433339,231.319728 176.233515,230.003187 175.393757,230.154286 L175.393757,230.154286 Z M178.901568,209.738619 C178.326374,209.166425 177.342506,210.074256 178.021969,210.650475 C178.666572,211.197279 179.428517,210.26251 178.901568,209.738619 L178.901568,209.738619 Z M173.976626,205.200083 C173.215615,205.324244 173.33109,206.47018 174.09926,206.446648 C174.937461,206.420949 174.834437,205.060441 173.976626,205.200083 L173.976626,205.200083 Z M178.898766,200.902749 C178.324506,200.278228 177.36336,201.256654 178.019479,201.814295 C178.608368,202.314655 179.435676,201.487018 178.898766,200.902749 L178.898766,200.902749 Z M192.958333,260 C189.794456,259.854165 186.667307,259.282281 183.626063,258.440401 L183.626063,238.535311 L176.906753,238.535311 C176.885277,238.535311 176.826139,238.820169 176.744902,238.931636 C175.866549,240.13671 174.081518,239.216804 174.493305,237.805517 C174.760359,236.889945 176.043651,236.687138 176.671135,237.395569 C176.791901,237.532115 176.880297,237.866823 176.906753,237.866823 L183.626063,237.866823 L183.626063,236.01029 L178.138689,236.01029 C177.467629,235.443361 176.969937,234.666812 176.270554,234.154996 L172.574124,234.188126 C172.237972,235.28514 170.699765,235.478658 170.195536,234.405176 C169.614117,233.167591 171.112174,232.015153 172.167007,232.889544 C172.397333,233.080276 172.437174,233.344079 172.623614,233.549363 L176.63005,233.574443 L178.362479,235.341802 L183.626063,235.341802 L183.626063,231.108251 L176.794702,231.108251 C176.743657,231.108251 176.475669,231.720697 176.152589,231.879846 C174.616249,232.636268 173.521576,230.597984 174.821364,229.739074 C175.127948,229.536577 175.454451,229.496016 175.81955,229.553607 C176.419644,229.647734 176.72685,230.439763 176.794702,230.439763 L183.626063,230.439763 L183.626063,228.91701 L178.213389,223.383948 L163.878676,223.383948 C163.853775,223.383948 163.760089,223.480862 163.797128,223.535976 C164.87655,230.92588 168.631495,237.864346 174.293792,242.731707 L174.293792,254.355472 L172.58284,253.346392 C158.784724,244.345181 151.687866,227.990292 154.607099,211.709404 C156.701514,200.029906 164.02154,189.602855 174.293792,183.648079 L174.293792,195.271844 C172.275634,197.061497 170.446405,199.068509 168.931853,201.30155 C168.525669,201.900682 168.112949,202.537588 167.798273,203.181925 L171.344679,203.181925 L173.098273,201.064375 L177.158245,201.01824 C177.521165,200.198654 178.420683,199.73483 179.216866,200.32653 C180.324301,201.149213 179.414822,203.059931 177.930461,202.497646 C177.48008,202.32704 177.289593,201.732863 177.093816,201.696017 L173.45061,201.711808 L171.629163,203.836479 L167.365632,203.865894 L166.528987,205.484322 L172.875105,205.484322 C172.904363,205.484322 172.98809,205.118961 173.133133,204.96105 C173.808239,204.224754 175.203582,204.578659 175.332129,205.602291 C175.535377,207.21979 173.342606,207.659463 172.824994,206.149714 L166.342547,206.152501 C166.214934,206.156836 166.192523,206.231456 166.138988,206.321558 C165.869133,206.775783 165.644097,207.573077 165.483803,208.083654 L171.64317,208.083654 C172.274078,208.662659 172.829662,209.364278 173.511304,209.864637 L177.094749,209.867734 C177.296752,209.828101 177.348109,209.478531 177.504668,209.310093 C178.12406,208.643153 179.315222,208.862679 179.617447,209.731187 C180.043551,210.956078 178.644162,211.975685 177.651891,211.167554 C177.432769,210.989208 177.268739,210.567494 177.093816,210.534364 L173.226509,210.519502 C172.535218,209.951953 171.985236,209.194601 171.268422,208.679689 L165.230755,208.673187 C164.58833,210.478321 164.13079,212.352503 163.841325,214.248358 L178.213389,214.248358 C180.031101,212.397089 181.8927,210.549845 183.624506,208.639128 L183.629175,179.566246 C186.623731,178.769572 189.672445,178.227722 192.772516,178.0005 C192.835389,177.992714 192.958333,178.077862 192.958333,178.115017 L192.958333,213.022848 L186.763172,218.890619 L192.958333,224.460836 L192.958333,260 Z M196.998735,200 L210.633733,213.564515 L210.633733,225.28475 C209.243901,226.690615 207.703949,227.948301 206.295352,229.338858 L206.295352,248.76349 C216.903974,244.942979 224.969184,235.093964 226.453456,223.918073 L226.550357,223.79408 L235.958333,223.79408 C235.25019,230.668796 232.69755,237.290934 228.713241,242.911638 C221.517675,253.062828 209.573978,259.678231 196.997812,260 L196.99289,250.92464 L197.150699,250.347537 L197.145162,225.078707 L197.220529,224.93359 L203.194839,219.498109 C201.900985,218.289409 200.661579,217.026824 199.398179,215.787508 C199.04503,215.44094 197.266673,213.904959 197.163004,213.605539 C197.120245,213.481853 197.079639,213.115997 197.068872,212.964756 C196.813547,209.399272 197.094405,205.375474 196.995043,201.728859 C196.979354,201.153593 197.01227,200.574347 196.998735,200 Z M196.958333,178 C204.771908,178.249582 212.442947,180.902672 218.812957,185.394835 C228.232378,192.037505 234.772074,202.770769 235.958333,214.38332 L226.485847,214.38332 C225.724111,209.668305 224.021082,205.051817 221.231445,201.186872 L221.231445,232.388648 C218.645431,235.732672 215.461506,238.6226 211.981093,241 L211.981093,192.277451 C207.794169,189.585199 202.858159,187.938518 197.882659,187.543787 C197.713899,187.530423 196.958333,187.606882 196.958333,187.431274 L196.958333,178 Z" id="形状结合"></path>
        </g>
    </g>
</svg>