<?xml version="1.0" encoding="UTF-8"?>
<svg width="114px" height="37px" viewBox="0 0 114 37" version="1.1" xmlns="http://www.w3.org/2000/svg" xmlns:xlink="http://www.w3.org/1999/xlink">
    <title>形状结合@2x</title>
    <g id="页面-1" stroke="none" stroke-width="1" fill="none" fill-rule="evenodd">
        <g id="启动图" transform="translate(-138, -268)" fill="#FFBF3D">
            <path d="M183.379786,268.512352 L186.998382,268.878888 L186.398166,272.215547 L188.586374,272.215547 L187.904997,271.956157 L188.964498,268.657938 L192.736608,269.602578 L191.378258,272.215547 L193.566781,272.215547 L193.566781,275.192328 L185.417311,275.192328 L185.040131,276.281342 L194.245641,276.281342 L194.245641,279.330765 L192.359428,279.330765 C193.083273,280.062626 194.063185,280.524201 195,280.963984 C194.094014,281.774843 193.317949,282.701322 192.61581,283.681072 C191.640617,283.278518 190.825229,282.593874 190.020852,281.944642 L189.416547,284.77614 L193.113788,284.77614 C193.041749,286.112741 192.97034,287.471739 192.811478,288.80501 C192.698544,289.75086 192.564219,290.751192 192.322623,291.674342 C191.691893,294.082705 190.36972,294.445609 187.948724,294.508564 C187.301636,294.525211 186.662412,294.484653 186.020672,294.432594 C186.048355,293.701338 185.804871,292.93255 185.529301,292.255473 C185.429894,292.011216 185.185781,291.701583 185.116574,291.490317 C185.087633,291.401937 185.113113,291.352299 185.215037,291.394673 C186.056849,291.436442 187.03739,291.614413 187.869765,291.528454 C189.39893,291.370762 189.123989,288.734487 189.416547,287.68028 L179.078869,287.68028 L179.903694,283.646265 L183.256157,283.842396 C183.522605,283.928658 183.297052,284.566994 183.229103,284.77614 L185.681557,284.77614 C185.922524,284.326672 185.991417,283.752805 186.096486,283.251278 L179.758044,283.251278 C179.736967,283.251278 179.804916,282.982807 179.720924,282.961318 L178.361001,283.818788 L176.739664,281.944642 L176.739664,291.564472 C176.739664,292.049656 176.448679,292.917417 176.1341,293.30514 C175.228743,294.422 173.648301,294.317881 172.327701,294.435318 L172.148077,294.312736 C172.050872,293.19981 171.684073,292.135312 171.306894,291.092606 L173.155671,291.092606 C173.168884,291.092606 173.344104,290.924018 173.344104,290.911003 L173.344104,285.574589 L171.457891,285.574589 C171.315073,288.564991 170.886617,291.559327 170.023414,294.432594 L167,292.93709 C167.09343,292.362619 167.306399,291.818717 167.435062,291.251509 C168.281593,287.522588 168.310219,283.605101 168.367158,279.805657 C168.418749,276.357616 168.322173,272.904126 168.364012,269.45669 L176.739664,269.45669 L176.739664,280.637703 C177.335161,280.232728 178.013707,279.884655 178.475193,279.330765 L177.041659,279.330765 L177.041659,276.281342 L181.116394,276.281342 L181.644571,275.192328 L177.645335,275.192328 L177.645335,272.215547 L178.852687,272.215547 C178.714902,271.269393 178.33615,270.366825 177.947331,269.495432 L180.927962,268.655819 C181.120169,268.677611 181.434118,269.396155 181.528806,269.604394 C181.835835,270.279958 182.0595,271.029374 182.227485,271.747918 L182.123674,271.839325 L180.889898,272.215547 L182.663176,272.215547 L183.379786,268.512352 Z M188,288.512352 L188,290.512352 L178,290.512352 L178,288.512352 L188,288.512352 Z M173.344104,279.258123 L171.684073,279.258123 L171.608575,281.872 L173.344104,281.872 L173.344104,279.258123 Z M187.798984,279.326225 L183.356193,279.344385 L182.323432,280.565062 L188.812871,280.565062 C188.536985,280.324135 188.251977,279.591063 188.020133,279.404011 C187.949353,279.346806 187.894931,279.31775 187.798984,279.326225 Z M173.344104,273.08694 L171.684073,273.08694 L171.684073,275.628176 L173.344104,275.628176 L173.344104,273.08694 Z M207.878798,285.461844 L202.619466,285.461844 C202.437747,285.91924 201.983901,286.210564 201.754725,286.648786 L207.878798,286.648786 L207.878798,285.461844 Z M204.204474,277.227474 L215.083573,277.227474 L215.083573,276.337113 L204.204474,276.337113 L204.204474,277.227474 Z M204.204474,273.44429 L215.083573,273.44429 L215.083573,272.628152 L204.204474,272.628152 L204.204474,273.44429 Z M219.262204,269.512352 L219.262204,280.269051 L203.19586,280.269051 C203.235808,280.382859 203.51154,280.417187 203.628681,280.453989 C204.198467,280.632432 204.779066,280.79232 205.357262,280.937363 L204.852955,282.123686 L207.878798,282.123686 L207.878798,280.714077 L212.057429,280.714077 L212.057429,282.123686 L220.270818,282.123686 L220.270818,285.461844 L212.057429,285.461844 L212.057429,286.648786 L218.974157,286.648786 L218.974157,289.764585 L212.057429,289.764585 L212.057429,291.02575 L222,291.02575 L222,294.512352 L197.720267,294.512352 L197.720267,291.02575 L207.878798,291.02575 L207.878798,289.764585 L201.178331,289.764585 L201.178331,287.242257 C200.976488,287.390083 200.443346,288.086847 200.240301,288.030252 L197,285.573487 C198.756515,284.143157 200.274543,282.360271 201.250418,280.269051 L200.241803,280.269051 L200.241803,269.512352 L219.262204,269.512352 Z M236.633245,290.085614 L236.633245,291.309556 L240.5664,290.813027 C239.900551,290.345199 239.481853,289.605668 238.916807,289.027181 C238.163514,289.388496 237.443316,289.870675 236.633245,290.085614 L236.633245,290.085614 Z M247.047879,287.790802 L242.022585,287.790802 C242.292507,288.208881 243.847977,289.499474 244.238439,289.472686 C244.450673,289.458336 245.654241,288.735068 245.931754,288.568921 C246.304606,288.34569 246.766723,288.116081 247.047879,287.790802 L247.047879,287.790802 Z M244.061729,284.8837 L233.647095,284.8837 C233.647095,285.011261 233.604587,285.572208 233.756399,285.572208 L244.061729,285.572208 L244.061729,284.8837 Z M248.067451,282.512352 L248.067451,287.178831 C248.317942,287.104208 248.537159,286.731732 248.791293,286.832823 L251.56278,289.053969 L247.922319,291.004687 L252,291.768773 L249.926243,294.988717 C246.814392,294.543531 243.729564,293.473299 241.22223,291.462628 L240.849986,293.979395 C238.025668,294.461574 235.127569,294.642709 232.381283,295.512352 L232.299304,295.441238 C232.075836,294.508452 231.715737,293.619675 231.243601,292.802969 C231.856923,292.518829 232.7262,292.271043 232.845829,291.462947 L228.070721,292.354595 L226,289.321527 C228.214336,289.171644 230.450836,288.860715 232.614467,288.350473 C233.128503,288.229291 233.751238,288.089293 234.245235,287.920914 C234.32266,287.894445 234.464756,287.902099 234.44836,287.790802 L229.932852,287.790802 L229.932852,282.512352 L248.067451,282.512352 Z M153.553247,283.512352 L153.553247,286.512352 L164,286.512352 L164,290.390238 L153.661376,290.390238 C153.653567,290.390238 153.553247,290.492424 153.553247,290.500049 L153.553247,295.512352 L149.374667,295.512352 L149.374667,290.500049 C149.374667,290.492424 149.274047,290.390238 149.266538,290.390238 L139,290.390238 L139,286.512352 L149.374667,286.512352 L149.374667,283.512352 L153.553247,283.512352 Z M156.588219,269.512352 C156.596142,269.512352 156.697922,269.610771 156.697922,269.618137 L156.697922,272.692966 C158.422697,271.973983 160.051482,271.061701 161.626633,270.078698 L164.445695,273.152643 C162.050818,274.571455 159.46518,275.679395 156.819205,276.591972 C156.728091,276.619376 156.713159,276.674184 156.697008,276.756395 C156.643376,277.033086 156.661355,278.358488 156.715292,278.649323 C156.766182,278.923067 156.969437,279.08248 157.251008,279.120492 C157.886371,279.206534 159.88906,279.20123 160.537222,279.12668 C161.586409,279.006162 161.345977,277.307419 161.523025,276.58048 C162.56886,277.272354 163.806066,277.610629 165,277.990452 L164.952405,278.378318 C164.715409,280.185804 164.236549,281.927509 162.110545,282.344716 C160.82184,282.597833 156.164035,282.568072 154.912811,282.229796 C152.729722,281.639877 152.653235,279.806472 152.603868,277.923563 L149.395666,278.765126 C149.254271,278.29543 149.090935,277.830449 148.889508,277.381085 C148.625916,276.793523 148.273953,276.243678 148,275.66201 L152.604478,274.283272 L152.604478,269.618137 C152.604478,269.610771 152.706562,269.512352 152.714181,269.512352 L156.588219,269.512352 Z M145.28988,268.512352 L148.994771,269.778269 C149.122785,269.952288 146.860905,272.797651 146.544176,273.138021 L146.544176,282.512352 L142.687833,282.512352 C142.68002,282.512352 142.579652,282.41384 142.579652,282.406171 L142.579652,276.923089 L140.74088,278.254779 L138,275.223009 C140.922683,273.594601 143.48206,271.300201 145.28988,268.512352 Z M247,273.512352 L247,278.512352 L230,278.512352 L230,273.512352 L247,273.512352 Z M243.888237,275.644832 L242.142676,275.644832 L242.142676,276.306614 L243.888237,276.306614 L243.888237,275.644832 Z M239.25872,275.644832 L237.589094,275.644832 L237.589094,276.306614 L239.25872,276.306614 L239.25872,275.644832 Z M234.629202,275.644832 L233.035511,275.644832 L233.035511,276.306614 L234.629202,276.306614 L234.629202,275.644832 Z M240.358879,268.512352 C240.499289,268.512659 240.523721,268.52801 240.606297,268.634545 C240.910002,269.025379 241.171337,269.881651 241.355972,270.357221 L251,270.357221 L251,275.512352 L247.142451,275.512352 L247.142451,273.303054 L229.709099,273.303054 L229.709099,275.512352 L226,275.512352 L226,270.357221 L236.385662,270.357221 C236.288551,270.079984 236.167316,269.800291 236.076081,269.520905 C236.052886,269.44937 235.966908,269.450598 236.086905,269.361256 L240.358879,268.512352 Z M251,282.512352 L226,282.512352 L226,279.512352 L250.888662,279.512352 C250.896703,279.512352 251,279.619461 251,279.627799 L251,282.512352 Z M178.916734,298.512352 L181.375101,302.579702 L181.250029,298.512352 L183,298.512352 L183,304.512352 L181.083613,304.512352 L178.541865,300.311602 C178.704459,301.707035 178.803474,303.105525 178.749971,304.512352 L177,304.512352 L177,298.512352 L178.916734,298.512352 Z M207.916734,298.512352 L210.375101,302.579702 L210.250029,298.512352 L212,298.512352 L212,304.512352 L210.083613,304.512352 L207.541865,300.311602 C207.712102,301.706757 207.802085,303.104969 207.749971,304.512352 L206,304.512352 L206,298.512352 L207.916734,298.512352 Z M247.816911,298.512352 L250.436759,302.646402 L250.225367,298.512352 L252,298.512352 L252,304.512352 L250.183089,304.512352 L247.563241,300.378303 L247.690076,304.512352 L246,304.512352 L246,298.512352 L247.816911,298.512352 Z M140.808224,298.512352 L140.808224,300.779062 L143.191776,300.779062 L143.191776,298.512352 L145,298.512352 L145,304.512352 L143.191776,304.512352 L143.191776,302.045541 L140.808224,302.045541 L140.808224,304.512352 L139,304.512352 L139,298.512352 L140.808224,298.512352 Z M223.833353,298.512352 L223.833353,300.779062 L226.250029,300.779062 L226.250029,298.512352 L228,298.512352 L228,304.512352 L226.250029,304.512352 L226.250029,302.045541 L223.833353,302.045541 L223.833353,304.412302 C223.833353,304.419249 223.717313,304.512352 223.70828,304.512352 L222,304.512352 L222,298.512352 L223.833353,298.512352 Z M220,303.65272 C219.859721,304.114538 218.025695,304.516039 217.545123,304.512352 C212.433004,304.473662 213.056204,296.913824 218.087444,297.550409 C218.460626,297.597736 219.841264,298.058935 219.841935,298.458889 C219.841935,298.635203 219.057649,299.207449 219.032144,299.460475 C217.057168,298.078732 215.486919,299.590699 215.867148,301.600676 C216.104749,302.857143 217.203151,303.295762 218.470694,302.947775 L218.470694,301.834833 L217.34343,301.834833 L217.34343,300.499179 L220,300.499179 L220,303.65272 Z M190,303.65272 C189.859772,304.114538 188.026413,304.516039 187.546015,304.512352 C182.43173,304.473352 183.057052,296.913826 188.08814,297.550411 C188.461186,297.597737 189.841321,298.058937 189.841992,298.45889 C189.841992,298.635204 189.057992,299.20745 189.032496,299.460476 C187.639612,298.392386 185.974996,299.008556 185.816988,300.686011 C185.66267,302.327584 186.628832,303.442691 188.47125,302.947775 L188.47125,301.834833 L187.344396,301.834833 L187.344396,300.49918 L190,300.49918 L190,303.65272 Z M231.808224,297.512352 L231.808224,301.964938 C231.808224,302.289847 232.165277,302.845111 232.528498,302.971711 C233.886465,303.445748 234.21028,302.248281 234.277441,301.283073 C234.362764,300.057367 234.206853,298.746626 234.274015,297.512352 L236,297.512352 L236,301.660336 C236,303.756379 234.170188,304.879917 232.050828,304.403976 C230.920731,304.150141 230,302.955847 230,301.888787 L230,297.512352 L231.808224,297.512352 Z M147.82387,297.512352 C147.896585,298.770922 147.7276,300.119163 147.820456,301.367557 C147.891464,302.321501 148.186077,303.372111 149.479574,302.981948 C149.884454,302.859844 150.280457,302.355843 150.280457,301.974584 L150.280457,297.512352 L152,297.512352 L152,302.050899 C152,302.433431 151.593414,303.323778 151.330549,303.639216 C150.537177,304.592524 148.861331,304.69555 147.720773,304.282492 C146.271263,303.757823 146.088624,302.256951 146.018982,300.98598 C145.956509,299.844109 146.072579,298.658357 146.022396,297.512352 L147.82387,297.512352 Z M158.629523,301.980994 L157.999846,299.648756 L157.370168,301.980994 L158.629523,301.980994 Z M155,304.512352 L157.007309,298.523739 L158.891708,298.512352 L161,304.512352 L159.296258,304.512352 L158.930002,303.142947 L157.044984,303.109344 L156.629626,304.512352 L155,304.512352 Z M242.585358,301.984385 L241.963396,299.655272 L241.341434,301.984385 L242.585358,301.984385 Z M245,304.512352 L243.317133,304.512352 L242.906558,303.111224 L241.044637,303.144782 C240.89517,303.240187 240.813421,304.335409 240.57336,304.512352 L239,304.512352 L241.045857,298.555613 C241.344179,298.53509 242.862633,298.452442 242.988917,298.590558 L245,304.512352 Z M174.915206,298.512352 L174.915206,299.712408 L171.864401,299.712408 L171.864401,300.779062 L174.406798,300.779062 L174.406798,302.045541 L171.864401,302.045541 L171.864401,303.245596 L175,303.245596 L175,304.512352 L170,304.512352 L170,298.512352 L174.915206,298.512352 Z M194.05277,298.512352 C194.351618,299.099874 194.628744,299.801342 194.984531,300.358848 C195.024026,300.420824 195.061547,300.505312 195.157323,300.51226 L196.02655,298.512352 L197.921009,298.512352 L196.111465,301.478863 L198,304.512352 L196.144707,304.512352 C195.626001,303.853406 195.404169,302.997692 194.843006,302.379044 L193.776303,304.512352 L192,304.512352 L193.889194,301.41244 L192.078991,298.512352 L194.05277,298.512352 Z M168,298.512352 L168,299.712408 L165.942827,299.712408 L165.942827,304.512352 L164.057173,304.512352 L164.057173,299.712408 L162,299.712408 L162,298.512352 L168,298.512352 Z M201,304.512352 L203,304.512352 L203,298.512352 L201,298.512352 L201,304.512352 Z" id="形状结合"></path>
        </g>
    </g>
</svg>