<?xml version="1.0" encoding="UTF-8"?>
<svg width="26px" height="26px" viewBox="0 0 26 26" version="1.1" xmlns="http://www.w3.org/2000/svg" xmlns:xlink="http://www.w3.org/1999/xlink">
    <title>编组</title>
    <g id="页面-1" stroke="none" stroke-width="1" fill="none" fill-rule="evenodd">
        <g id="银行卡管理-4" transform="translate(-352, -53)">
            <g id="Bar/home/TOP" transform="translate(0, 44)">
                <g id="编组" transform="translate(352, 9)">
                    <g id="编组备份" transform="translate(-12, -9)">
                        <path d="M33.7928932,9.5 L37.5,13.2071068 L37.5,30.7928932 L33.7928932,34.5 L16.2071068,34.5 L12.5,30.7928932 L12.5,13.2071068 L16.2071068,9.5 L33.7928932,9.5 Z" id="矩形-5" stroke="#4297FE"></path>
                        <path d="M25,33 L17,33 L14,30 L14,23 L14,23" id="路径" stroke="#4297FE"></path>
                        <path d="M36,21 L28,21 L25,18 L25,11 L25,11" id="路径备份-2" stroke="#4297FE" transform="translate(30.5, 16) scale(-1, -1) translate(-30.5, -16)"></path>
                        <polygon id="矩形-6" fill="#4297FE" points="12 9 14 9 12 11"></polygon>
                        <polygon id="矩形-6备份" fill="#4297FE" points="36 9 38 9 38 11"></polygon>
                        <polygon id="矩形-6备份-3" fill="#4297FE" transform="translate(13, 34) scale(1, -1) translate(-13, -34)" points="12 33 14 33 12 35"></polygon>
                        <polygon id="矩形-6备份-2" fill="#4297FE" transform="translate(37, 34) scale(1, -1) translate(-37, -34)" points="36 33 38 33 38 35"></polygon>
                    </g>
                    <g id="Icon/客服" transform="translate(6, 6)" fill="#4297FE">
                        <rect id="矩形" fill-rule="evenodd" x="0.7" y="2.8" width="12.6" height="1.4" rx="0.7"></rect>
                        <path d="M10.8496225,5.02533365 L10.9390813,5.0299479 C11.4198195,5.07914612 11.7696519,5.50874453 11.7204536,5.98948279 L11.1491417,11.5720324 C11.0303563,12.7327387 10.0527309,13.6154211 8.88596227,13.6154211 L4.87062095,13.6154211 C3.70385231,13.6154211 2.7262269,12.7327387 2.6074415,11.5720324 L2.03612959,5.98948279 C1.98693137,5.50874453 2.33676369,5.07914612 2.81750196,5.0299479 C3.29824023,4.98074968 3.72783863,5.33058201 3.77703685,5.81132028 L4.34834877,11.3938699 C4.37576079,11.6617252 4.60136665,11.8654211 4.87062095,11.8654211 L8.88596227,11.8654211 C9.15521657,11.8654211 9.38082243,11.6617252 9.40823445,11.3938699 L9.97954637,5.81132028 C10.0287446,5.33058201 10.458343,4.98074968 10.9390813,5.0299479 L10.8496225,5.02533365 Z" id="路径-3" fill-rule="nonzero"></path>
                        <path d="M7,5.35005582 C7.48324916,5.35005582 7.875,5.74180667 7.875,6.22505582 L7.875,10.0192769 C7.875,10.5025261 7.48324916,10.8942769 7,10.8942769 C6.51675084,10.8942769 6.125,10.5025261 6.125,10.0192769 L6.125,6.22505582 C6.125,5.74180667 6.51675084,5.35005582 7,5.35005582 Z" id="路径-4" fill-rule="nonzero"></path>
                        <path d="M7.7,0 C9.2463973,0 10.5,1.2536027 10.5,2.8 L10.5,3.5 L9.1,3.5 L9.1,2.8 C9.1,2.02680135 8.47319865,1.4 7.7,1.4 L6.3,1.4 C5.52680135,1.4 4.9,2.02680135 4.9,2.8 L4.9,3.5 L3.5,3.5 L3.5,2.8 C3.5,1.2536027 4.7536027,0 6.3,0 L7.7,0 Z" id="形状结合" fill-rule="nonzero"></path>
                    </g>
                </g>
            </g>
        </g>
    </g>
</svg>