<?xml version="1.0" encoding="UTF-8"?>
<svg width="366px" height="176px" viewBox="0 0 366 176" version="1.1" xmlns="http://www.w3.org/2000/svg" xmlns:xlink="http://www.w3.org/1999/xlink">
    <title>编组</title>
    <defs>
        <linearGradient x1="50%" y1="0%" x2="50%" y2="99.5356206%" id="linearGradient-1">
            <stop stop-color="#FFFFFF" offset="0%"></stop>
            <stop stop-color="#E4F0FF" offset="98.6396416%"></stop>
        </linearGradient>
    </defs>
    <g id="页面-1" stroke="none" stroke-width="1" fill="none" fill-rule="evenodd">
        <g id="基金-购买" transform="translate(-12, -100)">
            <g id="编组" transform="translate(11, 100)">
                <path d="M354.896447,5.25 L362.75,13.1035534 L362.75,163.896447 L354.896447,171.75 L13.1035534,171.75 L5.25,163.896447 L5.25,13.1035534 L13.1035534,5.25 L354.896447,5.25 Z" id="蒙版" stroke="#4297FE" stroke-width="0.5" fill="url(#linearGradient-1)"></path>
                <g id="编组备份-7" transform="translate(1, 109)">
                    <path d="M-110,32 L-110,1 L-106,-2 L-106,31 L-101,36 L-68,36 L-71,40 L-102,40 L-110,32 Z" id="形状结合备份" fill="#4297FE" transform="translate(19.5, 20.5) rotate(90) translate(-19.5, -20.5)"></path>
                    <path d="M271.207107,-108.5 L357.792893,-108.5 L365.5,-100.792893 L365.5,58.7928932 L357.792893,66.5 L155.207107,66.5 L152.207107,63.5 L109.792893,63.5 L106.792893,66.5 L8.20710678,66.5 L0.5,58.7928932 L0.5,-97.7928932 L8.20710678,-105.5 L268.207107,-105.5 L271.207107,-108.5 Z" id="蒙版" stroke="#4297FE"></path>
                    <polygon id="矩形" fill="#4297FE" points="44 63 50 63 47 67 41 67"></polygon>
                    <polygon id="矩形备份" fill="#4297FE" points="52 63 56 63 53 67 49 67"></polygon>
                    <polygon id="矩形备份-2" fill="#4297FE" points="58 63 61 63 58 67 55 67"></polygon>
                    <polygon id="矩形-5" fill="#4297FE" points="110 65 152 65 154.046997 67 108.14663 67"></polygon>
                    <rect id="矩形-6" fill="#4297FE" x="286" y="-109" width="33" height="4"></rect>
                    <polygon id="矩形-6备份" fill="#4297FE" points="84 -109 117 -109 120 -105 81 -105"></polygon>
                    <path d="M269,-109 L267,-107 L265,-107 L267,-109 L269,-109 Z M265,-109 L263,-107 L261,-107 L263,-109 L265,-109 Z M261,-109 L259,-107 L257,-107 L259,-109 L261,-109 Z M257,-109 L255,-107 L253,-107 L255,-109 L257,-109 Z M253,-109 L251,-107 L249,-107 L251,-109 L253,-109 Z M249,-109 L247,-107 L245,-107 L247,-109 L249,-109 Z M245,-109 L243,-107 L241,-107 L243,-109 L245,-109 Z M241,-109 L239,-107 L237,-107 L239,-109 L241,-109 Z" id="形状结合" fill="#4297FE"></path>
                    <path d="M49,-109 L51,-109 L51,-107 L49,-107 L49,-109 Z M55,-109 L57,-109 L57,-107 L55,-107 L55,-109 Z M61,-109 L63,-109 L63,-107 L61,-107 L61,-109 Z M67,-109 L69,-109 L69,-107 L67,-107 L67,-109 Z M73,-109 L75,-109 L75,-107 L73,-107 L73,-109 Z" id="形状结合" fill="#4297FE"></path>
                    <rect id="矩形" fill="#4297FE" x="290" y="64" width="65" height="1"></rect>
                    <polygon id="矩形-5" fill="#4297FE" points="362 -99 363 -99 363 59 362 59"></polygon>
                </g>
            </g>
        </g>
    </g>
</svg>