<?xml version="1.0" encoding="UTF-8"?>
<svg width="16px" height="16px" viewBox="0 0 16 16" version="1.1" xmlns="http://www.w3.org/2000/svg" xmlns:xlink="http://www.w3.org/1999/xlink">
    <title>Icon/公告</title>
    <g id="页面-1" stroke="none" stroke-width="1" fill="none" fill-rule="evenodd">
        <g id="首页" transform="translate(-24, -360)" fill="#BE5828" fill-rule="nonzero">
            <g id="Icon/公告" transform="translate(24, 360)">
                <path d="M9.22812271,0.587353116 L12.6222525,4.65198536 C12.6483625,4.68325329 12.6716796,4.71592688 12.6922312,4.74970308 C14.571666,5.07718495 16,6.71648836 16,8.68939705 L16,12 C16,14.209139 14.209139,16 12,16 L4,16 C1.790861,16 0,14.209139 0,12 L0,8.68939705 C0,6.71648836 1.42833396,5.07718495 3.30733604,4.74915265 C3.32832039,4.71592688 3.35163753,4.68325329 3.3777475,4.65198536 L6.77187729,0.587353116 C6.83321344,0.513900141 6.90101565,0.446097933 6.97446863,0.384761774 C7.65274207,-0.181623564 8.66173738,-0.0909203308 9.22812271,0.587353116 Z M12,6.28939705 L4,6.28939705 C2.6745166,6.28939705 1.6,7.36391365 1.6,8.68939705 L1.6,12 C1.6,13.3254834 2.6745166,14.4 4,14.4 L12,14.4 C13.3254834,14.4 14.4,13.3254834 14.4,12 L14.4,8.68939705 C14.4,7.36391365 13.3254834,6.28939705 12,6.28939705 Z M4,9.08939705 C4.4418278,9.08939705 4.8,9.44756925 4.8,9.88939705 C4.8,10.3312248 4.4418278,10.8 4,10.8 C3.5581722,10.8 3.2,10.3312248 3.2,9.88939705 C3.2,9.44756925 3.5581722,9.08939705 4,9.08939705 Z M12,9.08939705 C12.4418278,9.08939705 12.8,9.44756925 12.8,9.88939705 C12.8,10.3312248 12.4418278,10.8 12,10.8 L6.4,10.8 C5.9581722,10.8 5.6,10.3312248 5.6,9.88939705 C5.6,9.44756925 5.9581722,9.08939705 6.4,9.08939705 L12,9.08939705 Z M8,1.61288449 L5.431,4.68844818 L10.568,4.68844818 L8,1.61288449 Z" id="形状结合"></path>
            </g>
        </g>
    </g>
</svg>