<?xml version="1.0" encoding="UTF-8"?>
<svg width="24px" height="24px" viewBox="0 0 24 24" version="1.1" xmlns="http://www.w3.org/2000/svg" xmlns:xlink="http://www.w3.org/1999/xlink">
    <title>Icon/公告</title>
    <g id="页面-1" stroke="none" stroke-width="1" fill="none" fill-rule="evenodd">
        <g id="首页" transform="translate(-138, -477)" fill="#BE5828" fill-rule="nonzero">
            <g id="首页/金刚区备份-8" transform="translate(104, 465)">
                <g id="Icon/公告" transform="translate(34, 12)">
                    <path d="M13.8421841,0.881029673 L18.9333788,6.97797804 C18.9721583,7.02441839 19.0068306,7.07292593 19.0374355,7.1230594 C21.8558362,7.61386937 24,10.0735843 24,13.0340956 L24,18 C24,21.3137085 21.3137085,24 18,24 L6,24 C2.6862915,24 0,21.3137085 0,18 L0,13.0340956 C0,10.0735843 2.14416382,7.61386937 4.96428507,7.12315713 C4.99316935,7.07292593 5.02784171,7.02441839 5.06662125,6.97797804 L10.1578159,0.881029673 C10.2498202,0.770850212 10.3515235,0.669146899 10.4617029,0.577142661 C11.4791131,-0.272435346 12.9926061,-0.136380496 13.8421841,0.881029673 Z M6,13.6340956 C5.3372583,13.6340956 4.8,14.1713539 4.8,14.8340956 C4.8,15.4968373 5.3372583,16.2 6,16.2 C6.6627417,16.2 7.2,15.4968373 7.2,14.8340956 C7.2,14.1713539 6.6627417,13.6340956 6,13.6340956 Z M18,13.6340956 L9.6,13.6340956 C8.9372583,13.6340956 8.4,14.1713539 8.4,14.8340956 C8.4,15.4968373 8.9372583,16.2 9.6,16.2 L18,16.2 C18.6627417,16.2 19.2,15.4968373 19.2,14.8340956 C19.2,14.1713539 18.6627417,13.6340956 18,13.6340956 Z M12,2.41932673 L8.146,7.03317228 L15.852,7.03317228 L12,2.41932673 Z" id="形状结合"></path>
                </g>
            </g>
        </g>
    </g>
</svg>