<?xml version="1.0" encoding="UTF-8"?>
<svg width="16px" height="16px" viewBox="0 0 16 16" version="1.1" xmlns="http://www.w3.org/2000/svg" xmlns:xlink="http://www.w3.org/1999/xlink">
    <title>Icon/公告备份</title>
    <g id="页面-1" stroke="none" stroke-width="1" fill="none" fill-rule="evenodd">
        <g id="首页" transform="translate(-12, -561)" fill="#1E0D00">
            <g id="Icon/公告备份" transform="translate(12, 561)">
                <path d="M1.2,13.6 L14.8,13.6 C15.4627417,13.6 16,14.1372583 16,14.8 C16,15.4627417 15.4627417,16 14.8,16 L1.2,16 C0.5372583,16 0,15.4627417 0,14.8 C0,14.1762431 0.475910467,13.6636411 1.08443199,13.6054933 L1.2,13.6 Z M2,8 C2.6627417,8 3.2,8.5372583 3.2,9.2 L3.2,11.6 C3.2,12.2627417 2.6627417,12.8 2,12.8 C1.3372583,12.8 0.8,12.2627417 0.8,11.6 L0.8,9.2 C0.8,8.5372583 1.3372583,8 2,8 Z M6,5.6 C6.6627417,5.6 7.2,6.1372583 7.2,6.8 L7.2,11.6 C7.2,12.2627417 6.6627417,12.8 6,12.8 C5.3372583,12.8 4.8,12.2627417 4.8,11.6 L4.8,6.8 C4.8,6.1372583 5.3372583,5.6 6,5.6 Z M10,4 C10.6627417,4 11.2,4.5372583 11.2,5.2 L11.2,11.6 C11.2,12.2627417 10.6627417,12.8 10,12.8 C9.3372583,12.8 8.8,12.2627417 8.8,11.6 L8.8,5.2 C8.8,4.5372583 9.3372583,4 10,4 Z M5.65348855,-0.000416863318 L5.75334792,0.0112938659 L8.95334792,0.589541101 C9.47891949,0.684513073 9.76562078,1.25797939 9.52621295,1.73539854 L8.21150211,4.35715131 C8.01344874,4.75210278 7.53272332,4.91172023 7.13777185,4.71366685 C6.74282038,4.51561348 6.58320293,4.03488807 6.78125631,3.6399366 L7.037,3.12781342 L1.75638183,5.69493613 C1.35898532,5.88803668 0.88029288,5.72242208 0.687192336,5.32502557 C0.494091791,4.92762906 0.659706391,4.44893662 1.0571029,4.25583608 L6.259,1.72781342 L5.46883218,1.58579404 C5.06510212,1.5128391 4.78727134,1.14880061 4.81254609,0.749053145 L4.82383996,0.656286081 C4.89636321,0.254944958 5.25653543,-0.0219824097 5.65348855,-0.000416863318 Z M14,1.6 C14.6627417,1.6 15.2,2.1372583 15.2,2.8 L15.2,11.6 C15.2,12.2627417 14.6627417,12.8 14,12.8 C13.3372583,12.8 12.8,12.2627417 12.8,11.6 L12.8,2.8 C12.8,2.1372583 13.3372583,1.6 14,1.6 Z" id="形状结合"></path>
            </g>
        </g>
    </g>
</svg>