<?xml version="1.0" encoding="UTF-8"?>
<svg width="20px" height="20px" viewBox="0 0 20 20" version="1.1" xmlns="http://www.w3.org/2000/svg" xmlns:xlink="http://www.w3.org/1999/xlink">
    <title>Icon/公司资料介绍</title>
    <g id="页面-1" stroke="none" stroke-width="1" fill="none" fill-rule="evenodd">
        <g id="首页" transform="translate(-29, -7)" fill="#BE5828">
            <g id="Icon/公司资料介绍" transform="translate(29, 7)">
                <path d="M15,0 C17.209139,0 19,1.790861 19,4 L19,18 C19,19.1045695 18.1045695,20 17,20 C16.7850358,20 16.5714774,19.9653442 16.3675445,19.8973666 L11.2649111,18.1964888 C10.4438438,17.9227997 9.55615617,17.9227997 8.73508894,18.1964888 L3.63245553,19.8973666 C2.5845689,20.2466621 1.45192895,19.6803422 1.1026334,18.6324555 C1.03465576,18.4285226 1,18.2149642 1,18 L1,4 C1,1.790861 2.790861,0 5,0 L15,0 Z M12,8 L5,8 C4.44771525,8 4,8.44771525 4,9 C4,9.55228475 4.44771525,10 5,10 L12,10 C12.5522847,10 13,9.55228475 13,9 C13,8.44771525 12.5522847,8 12,8 Z M15,4 L8,4 C7.44771525,4 7,4.44771525 7,5 C7,5.55228475 7.44771525,6 8,6 L15,6 C15.5522847,6 16,5.55228475 16,5 C16,4.44771525 15.5522847,4 15,4 Z M5,4 C4.44771525,4 4,4.44771525 4,5 C4,5.55228475 4.44771525,6 5,6 C5.55228475,6 6,5.55228475 6,5 C6,4.44771525 5.55228475,4 5,4 Z" id="形状结合"></path>
            </g>
        </g>
    </g>
</svg>