<?xml version="1.0" encoding="UTF-8"?>
<svg width="20px" height="20px" viewBox="0 0 20 20" version="1.1" xmlns="http://www.w3.org/2000/svg" xmlns:xlink="http://www.w3.org/1999/xlink">
    <title>Icon/公司资料介绍</title>
    <g id="页面-1" stroke="none" stroke-width="1" fill="none" fill-rule="evenodd">
        <g id="首页" transform="translate(-107, -7)" fill="#A7A6A5" fill-rule="nonzero">
            <g id="Top/底部/all/单一备份" transform="translate(78, 0)">
                <g id="Icon/公司资料介绍" transform="translate(29, 7)">
                    <path d="M10,0 C15.5228475,0 20,4.4771525 20,10 C20,15.5228475 15.5228475,20 10,20 C4.4771525,20 0,15.5228475 0,10 C0,4.4771525 4.4771525,0 10,0 Z M10,2 C5.581722,2 2,5.581722 2,10 C2,14.418278 5.581722,18 10,18 C14.418278,18 18,14.418278 18,10 C18,5.581722 14.418278,2 10,2 Z M6.66138587,6.5980465 C9.78174822,7.36138624 11.6673663,8.06849302 12.3182401,8.71936684 C13.2945508,9.69567757 13.2945508,11.27859 12.3182401,12.2549007 C11.3419294,13.2312115 9.75901694,13.2312115 8.78270621,12.2549007 C8.13183239,11.6040269 7.42472561,9.71840884 6.66138587,6.5980465 Z" id="形状结合"></path>
                </g>
            </g>
        </g>
    </g>
</svg>