<?xml version="1.0" encoding="UTF-8"?>
<svg width="24px" height="24px" viewBox="0 0 24 24" version="1.1" xmlns="http://www.w3.org/2000/svg" xmlns:xlink="http://www.w3.org/1999/xlink">
    <title>Icon/公告</title>
    <g id="页面-1" stroke="none" stroke-width="1" fill="none" fill-rule="evenodd">
        <g id="首页" transform="translate(-229, -409)" fill="#BE5828">
            <g id="首页/金刚区备份-3" transform="translate(195, 397)">
                <g id="Icon/公告" transform="translate(34, 12)">
                    <path d="M14.4695796,0.684033957 L24,6.40228618 L22.8,6.402 L22.8,19.2 C22.8,21.8509668 20.6509668,24 18,24 L6,24 C3.3490332,24 1.2,21.8509668 1.2,19.2 L1.2,6.402 L0,6.40228618 L9.53042037,0.684033957 C11.0504958,-0.228011319 12.9495042,-0.228011319 14.4695796,0.684033957 Z M15.8522004,6.05045193 C15.2782492,5.71908108 14.5443407,5.91573126 14.2129699,6.48968241 L12.4176,9.59892814 L11.4864,9.59892814 L9.69143085,6.48968241 C9.36006,5.91573126 8.62615152,5.71908108 8.05220037,6.05045193 L7.93504078,6.12741626 C7.45285032,6.48585074 7.30526838,7.15672777 7.61296989,7.68968241 L8.7156,9.59892814 L7.2,9.6 C6.5372583,9.6 6,10.1372583 6,10.8 C6,11.4627417 6.5372583,12 7.2,12 L10.8,11.9989281 L10.8,13.1989281 L7.2,13.2 C6.5372583,13.2 6,13.7372583 6,14.4 C6,15.0627417 6.5372583,15.6 7.2,15.6 L10.8,15.5989281 L10.8,19.2 C10.8,19.8627417 11.3372583,20.4 12,20.4 C12.6627417,20.4 13.2,19.8627417 13.2,19.2 L13.2,15.5989281 L16.8,15.6 C17.4627417,15.6 18,15.0627417 18,14.4 C18,13.7372583 17.4627417,13.2 16.8,13.2 L13.2,13.1989281 L13.2,11.9989281 L16.8,12 C17.4627417,12 18,11.4627417 18,10.8 C18,10.1372583 17.4627417,9.6 16.8,9.6 L15.1884,9.59892814 L16.2914309,7.68968241 C16.6228017,7.11573126 16.4261515,6.38182278 15.8522004,6.05045193 Z" id="形状"></path>
                </g>
            </g>
        </g>
    </g>
</svg>