<?xml version="1.0" encoding="UTF-8"?>
<svg width="24px" height="24px" viewBox="0 0 24 24" version="1.1" xmlns="http://www.w3.org/2000/svg" xmlns:xlink="http://www.w3.org/1999/xlink">
    <title>Icon/公告</title>
    <g id="页面-1" stroke="none" stroke-width="1" fill="none" fill-rule="evenodd">
        <g id="首页" transform="translate(-321, -477)" fill="#BE5828" fill-rule="nonzero">
            <g id="首页/金刚区备份-6" transform="translate(287, 465)">
                <g id="Icon/公告" transform="translate(34, 12)">
                    <path d="M17.0105912,1.20220098 C20.8562107,1.20220098 23.98944,4.45152 23.98944,8.4435278 C23.98944,8.57563317 23.9787629,8.68633756 23.9697717,8.76840585 C23.9733307,8.80413659 23.9751337,8.84698537 23.9751337,8.89517268 C23.9751337,9.52181854 23.8340371,10.1931161 23.5466459,10.9465288 C23.44128,11.2393288 23.309198,11.5392468 23.1431649,11.8624156 C23.1324644,11.8766985 23.1217639,11.8945639 23.1128195,11.9106263 L23.1038751,11.9302712 C23.0806712,11.9713639 23.0610263,12.0141893 23.0396254,12.0570146 C22.9699902,12.1909698 22.8914107,12.346279 22.7860917,12.5069268 C20.0152507,17.2613151 13.0328195,22.2870322 12.734681,22.5190946 C12.5169249,22.6887102 12.2580293,22.7743844 11.9955746,22.7743844 C11.7366556,22.7743844 11.4796098,22.6922459 11.2635629,22.5261893 C10.9154576,22.2566634 2.72970146,16.3882537 0.603371707,11.2875161 C0.590868293,11.2608 0.580167805,11.2322107 0.569443902,11.2018888 C0.23201561,10.3770146 0.0606439024,9.60039805 0.0606439024,8.89344 C0.0606439024,8.8595122 0.0624234146,8.82738732 0.0642029268,8.79523902 C0.053502439,8.69703805 0.0409990244,8.5774361 0.0409990244,8.4435278 C0.0409990244,4.44974049 3.17244878,1.20220098 7.0198478,1.20220098 C8.91589463,1.20220098 10.7154966,2.02168976 12.0152195,3.41959024 C13.3131863,2.02166634 15.1109854,1.20220098 17.0105912,1.20220098 Z M15.9639788,6.96001589 C15.3213603,6.79794151 14.6690279,7.18749943 14.5069535,7.83011787 L14.4805578,7.96778829 C14.4199913,8.42597063 14.629989,8.87088853 15.0017419,9.12033644 L15.1046044,9.1807795 L13.3814044,11.3251795 L11.1177496,9.8556517 C10.7036161,9.58672831 10.1670265,9.59894293 9.76555888,9.88643221 L6.8867497,11.9479353 C6.34791628,12.3337916 6.22390385,13.0834008 6.60976019,13.6222342 L6.7049996,13.7391734 C7.10969381,14.1771295 7.78667439,14.2553988 8.28405909,13.8992237 L10.4978044,12.3139795 L12.985327,13.9300042 C13.5020612,14.2655528 14.1889471,14.155251 14.574644,13.6747877 L18.1211855,9.25685648 C18.6684205,8.5751651 18.3264909,7.55586357 17.478866,7.34208465 Z" id="形状结合"></path>
                </g>
            </g>
        </g>
    </g>
</svg>