<?xml version="1.0" encoding="UTF-8"?>
<svg width="24px" height="24px" viewBox="0 0 24 24" version="1.1" xmlns="http://www.w3.org/2000/svg" xmlns:xlink="http://www.w3.org/1999/xlink">
    <title>Icon/公告</title>
    <g id="页面-1" stroke="none" stroke-width="1" fill="none" fill-rule="evenodd">
        <g id="首页" transform="translate(-138, -409)" fill="#BE5828">
            <g id="首页/金刚区备份-2" transform="translate(104, 397)">
                <g id="Icon/公告" transform="translate(34, 12)">
                    <path d="M14.4183634,0.514220107 L14.67197,0.650809823 L20.857374,4.2219545 C22.3603549,5.08970093 23.2862293,6.69336246 23.2862293,8.42885532 L23.2862293,15.5711447 C23.2862293,17.3066375 22.3603549,18.9102991 20.857374,19.7780455 L14.67197,23.3491902 C13.1689891,24.2169366 11.3172402,24.2169366 9.81425934,23.3491902 L3.62885532,19.7780455 C2.12587442,18.9102991 1.2,17.3066375 1.2,15.5711447 L1.2,8.42885532 C1.2,6.69336246 2.12587442,5.08970093 3.62885532,4.2219545 L9.81425934,0.650809823 C11.2337413,-0.168728473 12.9643157,-0.214258378 14.4183634,0.514220107 Z M15.3810576,7.97241527 L15.2587215,7.98363348 L10.308974,8.69074026 C10.0519393,8.72745951 9.81374773,8.8465553 9.63015152,9.03015152 C9.16152237,9.49878067 9.16152237,10.2585786 9.63015152,10.7272078 L10.9029437,12 L8.35735931,14.5455844 C7.88873016,15.0142136 7.88873016,15.7740115 8.35735931,16.2426407 C8.82598846,16.7112698 9.58578644,16.7112698 10.0544156,16.2426407 L12.6,13.6970563 L13.8727922,14.9698485 C14.0563884,15.1534447 14.29458,15.2725405 14.5516147,15.3092597 C15.2076955,15.4029856 15.8155339,14.9471068 15.9092597,14.291026 L16.6163665,9.3412785 C16.6324473,9.22871283 16.6324473,9.11443292 16.6163665,9.00186725 C16.5226407,8.34578644 15.9148023,7.88990765 15.2587215,7.98363348 Z" id="形状结合"></path>
                </g>
            </g>
        </g>
    </g>
</svg>