<?xml version="1.0" encoding="UTF-8"?>
<svg width="16px" height="16px" viewBox="0 0 16 16" version="1.1" xmlns="http://www.w3.org/2000/svg" xmlns:xlink="http://www.w3.org/1999/xlink">
    <title>Icon/公告备份 2</title>
    <g id="页面-1" stroke="none" stroke-width="1" fill="none" fill-rule="evenodd">
        <g id="首页" transform="translate(-12, -1097)" fill="#1E0D00" fill-rule="nonzero">
            <g id="Icon/公告备份-2" transform="translate(12, 1097)">
                <path d="M8,0 C12.418278,0 16,3.581722 16,8 C16,10.0071795 15.2608063,11.8417112 14.039795,13.2462188 C13.8269582,13.4910412 15.7649062,13.9656262 15.5241529,14.1829532 C14.1058007,15.4632934 10.0612232,16 8,16 C3.581722,16 0,12.418278 0,8 C0,3.581722 3.581722,0 8,0 Z M8,1.6 C4.4653776,1.6 1.6,4.4653776 1.6,8 C1.6,11.5346224 4.4653776,14.4 8,14.4 C9.38812148,14.4 11.0606433,14.1781479 12.3812243,13.8459015 L12.5072,13.8128 L12.5013659,13.7950556 C12.3451162,13.320276 12.3965835,12.7771451 12.7402466,12.3112579 L12.8322986,12.1964795 C13.8380011,11.0396379 14.4,9.56546727 14.4,8 C14.4,4.4653776 11.5346224,1.6 8,1.6 Z M9.8426525,5.4400106 L10.8525774,5.6947231 C11.4176606,5.83724238 11.6456137,6.51677673 11.2807903,6.97123766 L8.91642935,9.91652515 C8.65929803,10.236834 8.20137411,10.3103685 7.85688465,10.0866695 L6.19853626,9.00931967 L4.72270606,10.0661491 C4.39111626,10.3035992 3.93979587,10.2514196 3.66999973,9.95944895 L3.60650679,9.88148946 C3.34926924,9.52226718 3.43194419,9.02252775 3.79116647,8.7652902 L5.71037259,7.39095481 C5.97801768,7.19929528 6.33574404,7.1911522 6.61183305,7.37043447 L8.12093626,8.35011967 L9.26973626,6.92051967 L9.20116123,6.88022429 C8.953326,6.71392568 8.81332755,6.41731375 8.85370522,6.11185886 L8.87130234,6.02007858 C8.97935193,5.59166629 9.41424021,5.33196101 9.8426525,5.4400106 Z" id="形状结合"></path>
            </g>
        </g>
    </g>
</svg>