<?xml version="1.0" encoding="UTF-8"?>
<svg width="366px" height="246px" viewBox="0 0 366 246" version="1.1" xmlns="http://www.w3.org/2000/svg" xmlns:xlink="http://www.w3.org/1999/xlink">
    <title>编组</title>
    <defs>
        <linearGradient x1="64.3136294%" y1="48.648109%" x2="63.2267211%" y2="50.9463039%" id="linearGradient-1">
            <stop stop-color="#FEE5D9" offset="0%"></stop>
            <stop stop-color="#FCF4F0" stop-opacity="0" offset="100%"></stop>
        </linearGradient>
    </defs>
    <g id="页面-1" stroke="none" stroke-width="1" fill="none" fill-rule="evenodd">
        <g id="首页" transform="translate(-12, -96)">
            <g id="编组" transform="translate(12, 96)">
                <path d="M12,0 L221.447055,7.10542736e-15 C231.545343,3.55271368e-15 240.729581,5.84910141 245,15 C249.270419,24.1508986 258.454657,30 268.552945,30 L354,30 C360.627417,30 366,35.372583 366,42 L366,234 C366,240.627417 360.627417,246 354,246 L12,246 C5.372583,246 0,240.627417 0,234 L0,12 C0,5.372583 5.372583,0 12,0 Z" id="矩形-6" fill="#FFFFFF"></path>
                <path d="M221.447055,0.5 C226.399068,0.5 231.126964,1.93414534 235.140391,4.49014835 C239.153817,7.04615136 242.452774,10.724012 244.546908,15.2114427 C246.723193,19.8749106 250.151565,23.69705 254.322434,26.3533223 C258.493303,29.0095946 263.40667,30.5 268.552945,30.5 L354,30.5 C357.175637,30.5 360.050637,31.7871813 362.131728,33.868272 C364.212819,35.9493627 365.5,38.8243627 365.5,42 L365.5,70.5 L0.5,70.5 L0.5,12 C0.5,8.82436269 1.78718134,5.94936269 3.86827202,3.86827202 C5.94936269,1.78718134 8.82436269,0.5 12,0.5 Z" id="矩形-6" stroke="#FFFFFF" fill="url(#linearGradient-1)"></path>
            </g>
        </g>
    </g>
</svg>