<?xml version="1.0" encoding="UTF-8"?>
<svg width="24px" height="24px" viewBox="0 0 24 24" version="1.1" xmlns="http://www.w3.org/2000/svg" xmlns:xlink="http://www.w3.org/1999/xlink">
    <title>Icon/公告</title>
    <g id="页面-1" stroke="none" stroke-width="1" fill="none" fill-rule="evenodd">
        <g id="首页" transform="translate(-321, -409)" fill="#BE5828">
            <g id="首页/金刚区备份" transform="translate(287, 397)">
                <g id="Icon/公告" transform="translate(34, 12)">
                    <path d="M14.4183634,0.514220107 L14.67197,0.650809823 L20.857374,4.2219545 C22.3603549,5.08970093 23.2862293,6.69336246 23.2862293,8.42885532 L23.2862293,15.5711447 C23.2862293,17.3066375 22.3603549,18.9102991 20.857374,19.7780455 L14.67197,23.3491902 C13.1689891,24.2169366 11.3172402,24.2169366 9.81425934,23.3491902 L3.62885532,19.7780455 C2.12587442,18.9102991 1.2,17.3066375 1.2,15.5711447 L1.2,8.42885532 C1.2,6.69336246 2.12587442,5.08970093 3.62885532,4.2219545 L9.81425934,0.650809823 C11.2337413,-0.168728473 12.9643157,-0.214258378 14.4183634,0.514220107 Z M13.5525392,9.3381543 C12.94663,9.18466304 12.3572431,9.16653738 11.7527808,9.37769053 C11.4057341,9.49882154 11.0279109,9.54263988 10.6599229,9.58997775 C10.4191274,9.62098885 10.1694156,9.61432128 9.92674301,9.59144423 C9.59471304,9.56010072 9.42741731,9.69468422 9.38940623,10.0692616 L10.4373703,10.0692616 C10.3473482,10.3368448 10.2607674,10.5497382 10.2047675,10.7703354 C10.1097789,11.144815 10.0178992,11.521641 9.96105858,11.902925 C9.94592453,12.0049332 10.0373154,12.1924076 10.1237593,12.2254718 C10.306893,12.2955107 10.5330628,12.347776 10.7166853,12.3038599 C11.2234412,12.1826506 11.5125523,11.8243023 11.653295,11.3240576 C11.8036186,10.7894583 12.397581,10.5988162 12.8159962,10.9577707 C13.8653681,11.8580508 14.9048658,12.7698476 15.9424472,13.6835411 C16.2256533,13.9328031 16.2603599,14.1909813 16.0606844,14.4151176 C15.8277101,14.6765416 15.5919787,14.5909189 15.3483089,14.4147266 C14.7239612,13.962993 14.0945687,13.518142 13.4654109,13.0729782 C13.3765229,13.0101934 13.2830789,12.9455902 13.1817356,12.9120959 C13.1247581,12.8932859 13.0473476,12.9364394 12.979088,12.9516712 C12.996412,13.0277912 12.9946327,13.1173636 13.0361829,13.1764137 C13.0829146,13.2427767 13.1685178,13.282137 13.2376377,13.3325838 C13.8600106,13.7872699 14.4831265,14.241037 15.1046,14.6969745 C15.3128593,14.8497032 15.3818424,15.0452531 15.2208623,15.2656157 C15.0635777,15.480875 14.8642346,15.4317382 14.6704054,15.3090821 C14.608481,15.269976 14.5507213,15.2242024 14.4907522,15.1818701 C13.9612953,14.807762 13.4357099,14.4278075 12.8982558,14.0653726 C12.8073733,14.0040934 12.6655943,14.0180738 12.5472399,13.9973085 C12.6029464,14.1131602 12.6285022,14.267942 12.7194043,14.3381765 C13.1743055,14.6893684 13.644067,15.0216134 14.1132028,15.3540931 C14.344828,15.518319 14.4621461,15.7204387 14.2799901,15.9717733 C14.0993592,16.2209962 13.882653,16.1286081 13.6731032,15.9787929 C13.2254366,15.6585729 12.7764796,15.3397217 12.3180197,15.035457 C12.2455366,14.9873175 12.1202995,15.0187196 12.019445,15.0134207 C12.0541711,15.1062194 12.0623638,15.2301856 12.1283553,15.2862637 C12.3795335,15.4999978 12.6574212,15.6826036 12.907172,15.8978237 C12.9802417,15.9607845 13.0542499,16.1340439 13.020208,16.1854097 C12.9595545,16.2769765 12.8133761,16.3673897 12.7094322,16.3605657 C12.5774102,16.3519624 12.4449775,16.2565045 12.3250392,16.1792505 C12.1641569,16.0755803 12.004702,15.9647147 11.8639006,15.8358015 C11.7335797,15.7167041 11.6383564,15.5595759 11.5099908,15.4378583 C11.3782816,15.3129145 11.2390054,15.1491579 11.0780644,15.1127501 C10.8327717,15.0572977 10.7158837,14.9560717 10.6143057,14.7232733 C10.5393394,14.5514804 10.3352058,14.371358 10.1556112,14.3261905 C9.92476815,14.2682353 9.81421533,14.2082075 9.80920975,13.9589259 C9.80232709,13.6176669 9.63192246,13.4303294 9.26424731,13.405849 C9.11844038,13.3961311 8.95304132,13.2915811 8.84524547,13.1822014 C8.63747498,12.9716349 8.46433293,12.7269092 8.27685849,12.4963008 L8.14477779,12.5368146 C8.16221908,12.7061634 8.11482255,12.9394506 8.20811004,13.0340286 C8.64629341,13.4784494 8.78521767,13.8842529 8.27715179,14.3848691 C8.17911291,14.4814611 8.19485308,14.8082704 8.28440596,14.9480941 C8.37397838,15.0882893 8.61530186,15.1514064 8.80260031,15.2011298 C8.90570342,15.2284649 9.03459698,15.1585042 9.1525213,15.132264 C9.23982558,16.0260134 9.59322701,16.0011224 10.129723,15.8551982 C10.2117871,16.6188026 10.4021945,16.7284364 11.0869806,16.4618309 C11.2418602,16.6743332 11.3860246,16.8722685 11.5301891,17.0701256 L11.8241884,17.0701256 C12.0462326,16.8091513 12.2545701,16.600716 12.6736306,16.7250342 C12.8451107,16.7758916 13.0945096,16.5570932 13.3110789,16.4670906 C13.4074753,16.4270265 13.5239332,16.3537417 13.6076983,16.3777137 C14.2711521,16.5679256 14.518713,16.4553588 14.7710253,15.8070586 C15.1604825,15.7816788 15.5293895,15.6858494 15.6442635,15.243775 C15.6989143,15.0334235 15.7856906,14.9308092 16.0036482,14.8673792 C16.4252701,14.7447621 16.6640908,14.3059335 16.5112839,13.9201327 C16.3843065,13.5995608 16.2975106,13.3126592 16.5011554,12.9937689 C16.5392252,12.9341517 16.5019571,12.8025598 16.4632617,12.7213561 C16.0001091,11.7509002 15.5345124,10.7815002 15.0550526,9.81906103 C15.0069912,9.72242997 14.873796,9.63653351 14.7639862,9.60810341 C14.3636575,9.504707 13.9533959,9.43965408 13.5525392,9.3381543 Z M8.29729141,8.4 L8.15033085,8.4 C7.84127568,9.01681985 7.53570096,9.63532124 7.22230503,10.2498925 C6.89887839,10.8843491 6.56778696,11.5149734 6.24,12.1472401 L6.24,12.3677201 C6.5044547,12.5157169 6.76554629,12.6701272 7.03434177,12.8097749 C7.23998095,12.9165344 7.41044425,12.8727552 7.51636301,12.6509066 C8.06150145,11.5094985 8.60562311,10.3675039 9.15430064,9.22767968 C9.25527247,9.01805167 9.19616367,8.88495421 8.99844344,8.7828874 C8.76187137,8.66079829 8.53077413,8.52811144 8.29729141,8.4 Z M16.3061922,8.4 L16.159173,8.4 C15.9630952,8.51524555 15.7755621,8.65000502 15.568828,8.74077018 C15.2689041,8.87222519 15.2468287,9.05154602 15.3828787,9.32350908 C15.8577435,10.2735712 16.3194883,11.2302031 16.7870403,12.183902 C17.1652545,12.9555036 17.1610115,12.9449059 17.9338254,12.5931274 C18.2517967,12.4484349 18.3165172,12.2849912 18.1539338,11.968369 C17.6464936,10.9801198 17.1647852,9.97863329 16.6653813,8.9861998 C16.5627084,8.78220305 16.4267953,8.59504146 16.3061922,8.4 Z" id="形状结合"></path>
                </g>
            </g>
        </g>
    </g>
</svg>