<?xml version="1.0" encoding="UTF-8"?>
<svg width="24px" height="24px" viewBox="0 0 24 24" version="1.1" xmlns="http://www.w3.org/2000/svg" xmlns:xlink="http://www.w3.org/1999/xlink">
    <title>Icon/公告</title>
    <g id="页面-1" stroke="none" stroke-width="1" fill="none" fill-rule="evenodd">
        <g id="首页" transform="translate(-46, -409)" fill="#BE5828">
            <g id="首页/金刚区" transform="translate(12, 397)">
                <g id="Icon/公告" transform="translate(34, 12)">
                    <path d="M14.28,2.88 L14.28,5.16 C14.28,6.41920923 15.3007908,7.44 16.56,7.44 C17.8192092,7.44 18.84,6.41920923 18.84,5.16 L18.8408736,2.8859387 C21.3799301,3.0114244 23.4,5.1098059 23.4,7.68 L23.4,18.6 C23.4,21.2509668 21.2509668,23.4 18.6,23.4 L5.4,23.4 C2.7490332,23.4 0.6,21.2509668 0.6,18.6 L0.6,7.68 C0.6,5.10936553 2.62076217,3.01070535 5.16043159,2.88587437 L5.16,5.16 C5.16,6.41920923 6.18079077,7.44 7.44,7.44 C8.69920923,7.44 9.72,6.41920923 9.72,5.16 L9.72,2.88 L14.28,2.88 Z M17.9225973,9.54965088 L10.0686405,16.2876155 L7.10036527,12.8392507 C6.68965883,12.3620482 5.96986644,12.3081425 5.49266398,12.718849 C5.01546152,13.1295554 4.96155585,13.8493478 5.37226229,14.3265503 L9.08310144,18.6381982 C9.49336185,19.1148824 10.2121607,19.1692688 10.6894746,18.7597411 L19.4072406,11.2800364 C19.8850734,10.8700635 19.9400846,10.1503548 19.5301117,9.672522 C19.1201388,9.19468922 18.40043,9.13967794 17.9225973,9.54965088 Z M7.58,0.6 C8.13228475,0.6 8.58,1.04771525 8.58,1.6 L8.58,5.3 C8.58,5.85228475 8.13228475,6.3 7.58,6.3 L7.3,6.3 C6.74771525,6.3 6.3,5.85228475 6.3,5.3 L6.3,1.6 C6.3,1.04771525 6.74771525,0.6 7.3,0.6 L7.58,0.6 Z M16.7,0.6 C17.2522847,0.6 17.7,1.04771525 17.7,1.6 L17.7,5.3 C17.7,5.85228475 17.2522847,6.3 16.7,6.3 L16.42,6.3 C15.8677153,6.3 15.42,5.85228475 15.42,5.3 L15.42,1.6 C15.42,1.04771525 15.8677153,0.6 16.42,0.6 L16.7,0.6 Z" id="形状结合"></path>
                </g>
            </g>
        </g>
    </g>
</svg>