<?xml version="1.0" encoding="UTF-8"?>
<svg width="24px" height="24px" viewBox="0 0 24 24" version="1.1" xmlns="http://www.w3.org/2000/svg" xmlns:xlink="http://www.w3.org/1999/xlink">
    <title>Icon/公告</title>
    <g id="页面-1" stroke="none" stroke-width="1" fill="none" fill-rule="evenodd">
        <g id="首页" transform="translate(-229, -477)" fill="#BE5828" fill-rule="nonzero">
            <g id="首页/金刚区备份-7" transform="translate(195, 465)">
                <g id="Icon/公告" transform="translate(34, 12)">
                    <path d="M12,0 C18.6222222,0 24,5.37777778 24,12 C24,18.6222222 18.6222222,24 12,24 C5.37777778,24 0,18.6222222 0,12 C0,5.37777778 5.37777778,0 12,0 Z M13.3511066,6.35800935 L13.3511066,8.37467601 C13.3511066,8.37467601 6.9711066,10.0613427 5.65110661,16.9180093 C8.16457066,13.6769636 12.4081488,13.4785322 13.2160643,13.470776 L13.328863,13.4709004 C13.3435505,13.4711171 13.3511066,13.4713427 13.3511066,13.4713427 L13.3511066,15.5980093 L18.8511066,10.904676 L13.3511066,6.35800935 Z" id="形状结合"></path>
                </g>
            </g>
        </g>
    </g>
</svg>