<?xml version="1.0" encoding="UTF-8"?>
<svg width="20px" height="20px" viewBox="0 0 20 20" version="1.1" xmlns="http://www.w3.org/2000/svg" xmlns:xlink="http://www.w3.org/1999/xlink">
    <title>编组</title>
    <g id="页面-1" stroke="none" stroke-width="1" fill="none" fill-rule="evenodd">
        <g id="详情页-2" transform="translate(-24, -534)">
            <g id="编组" transform="translate(24, 534)">
                <circle id="椭圆形" fill="#BE5828" cx="10" cy="10" r="10"></circle>
                <g id="Icon/客服-2" transform="translate(5, 6)" fill="#FFFFFF" fill-rule="nonzero">
                    <path d="M7.3784637,0.300500356 C8.65806151,0.289686854 9.71158954,1.30356537 9.75,2.58259998 L9.75,6.00811486 C9.71158954,7.28906437 8.6552455,8.30361872 7.37373279,8.29021449 L6.63965366,8.29021449 C6.45680055,8.29074933 6.28394111,8.37372352 6.16915365,8.51605899 L5.47280914,9.40062604 C5.35658175,9.5404843 5.18415835,9.62138577 5.00230913,9.62138577 C4.82045991,9.62138577 4.64803652,9.5404843 4.53180913,9.40062604 L3.83073371,8.51605899 C3.71595288,8.37368121 3.54304948,8.29077769 3.3602337,8.29021449 L2.64969646,8.29021449 C1.35917251,8.3165724 0.288410463,7.2983009 0.25,6.00811486 L0.25,2.58259998 C0.288297822,1.29241394 1.35905987,0.274142444 2.64958382,0.300500356 Z M3.1,3.074 C2.83766474,3.074 2.625,3.28666474 2.625,3.549 L2.625,4.974 C2.625,5.23633526 2.83766474,5.449 3.1,5.449 C3.36233526,5.449 3.575,5.23633526 3.575,4.974 L3.575,3.549 C3.575,3.28666474 3.36233526,3.074 3.1,3.074 Z M5,3.074 C4.73766474,3.074 4.525,3.28666474 4.525,3.549 L4.525,4.974 C4.525,5.23633526 4.73766474,5.449 5,5.449 C5.26233526,5.449 5.475,5.23633526 5.475,4.974 L5.475,3.549 C5.475,3.28666474 5.26233526,3.074 5,3.074 Z M6.9,3.074 C6.63766474,3.074 6.425,3.28666474 6.425,3.549 L6.425,4.974 C6.425,5.23633526 6.63766474,5.449 6.9,5.449 C7.16233526,5.449 7.375,5.23633526 7.375,4.974 L7.375,3.549 C7.375,3.28666474 7.16233526,3.074 6.9,3.074 Z" id="形状结合"></path>
                </g>
            </g>
        </g>
    </g>
</svg>