<?xml version="1.0" encoding="UTF-8"?>
<svg width="20px" height="20px" viewBox="0 0 20 20" version="1.1" xmlns="http://www.w3.org/2000/svg" xmlns:xlink="http://www.w3.org/1999/xlink">
    <title>Icon/公司资料介绍</title>
    <g id="页面-1" stroke="none" stroke-width="1" fill="none" fill-rule="evenodd">
        <g id="产品" transform="translate(-341, -7)" fill="#A7A6A5" fill-rule="nonzero">
            <g id="Top/底部/all/单一备份-4" transform="translate(312, 0)">
                <g id="Icon/公司资料介绍" transform="translate(29, 7)">
                    <path d="M15,9 C17.7614237,9 20,11.2385763 20,14 L20,18 C20,19.1045695 19.1045695,20 18,20 L2,20 C0.8954305,20 0,19.1045695 0,18 L0,14 C0,11.3112453 2.12230671,9.11818189 4.78311038,9.00461951 L5,9 L15,9 Z M5.04258817,10.9995465 L4.86839219,11.0028004 C3.26878793,11.0710711 2,12.3918618 2,14 L2,18 L18,18 L18,14 C18,12.3431458 16.6568542,11 15,11 L5,11 L5.04258817,10.9995465 Z M10,0 C12.209139,0 14,1.790861 14,4 C14,6.209139 12.209139,8 10,8 C7.790861,8 6,6.209139 6,4 C6,1.790861 7.790861,0 10,0 Z M10,2 C8.8954305,2 8,2.8954305 8,4 C8,5.1045695 8.8954305,6 10,6 C11.1045695,6 12,5.1045695 12,4 C12,2.8954305 11.1045695,2 10,2 Z" id="形状"></path>
                </g>
            </g>
        </g>
    </g>
</svg>