<?xml version="1.0" encoding="UTF-8"?>
<svg width="366px" height="74px" viewBox="0 0 366 74" version="1.1" xmlns="http://www.w3.org/2000/svg" xmlns:xlink="http://www.w3.org/1999/xlink">
    <title>形状结合</title>
    <defs>
        <linearGradient x1="1.77650019%" y1="48.0958754%" x2="97.6452741%" y2="51.7261179%" id="linearGradient-1">
            <stop stop-color="#6C93FC" offset="0%"></stop>
            <stop stop-color="#3552F2" offset="100%"></stop>
        </linearGradient>
    </defs>
    <g id="页面-1" stroke="none" stroke-width="1" fill="none" fill-rule="evenodd">
        <g id="收货地址备份-5" transform="translate(-12, -96)" fill="url(#linearGradient-1)">
            <path d="M44,96 C44,99.8659932 47.1340068,103 51,103 C54.8659932,103 58,99.8659932 58,96 L332,96 C332,99.8659932 335.134007,103 339,103 C342.865993,103 346,99.8659932 346,96 L370,96 C374.418278,96 378,99.581722 378,104 L378,105 C375.238576,105 373,107.238576 373,110 C373,112.761424 375.238576,115 378,115 L378,120 C375.238576,120 373,122.238576 373,125 C373,127.761424 375.238576,130 378,130 L378,135 C375.238576,135 373,137.238576 373,140 C373,142.761424 375.238576,145 378,145 L378,150 C375.238576,150 373,152.238576 373,155 C373,157.761424 375.238576,160 378,160 L378,162 C378,166.418278 374.418278,170 370,170 L346,170 C346,166.134007 342.865993,163 339,163 C335.134007,163 332,166.134007 332,170 L58,170 C58,166.134007 54.8659932,163 51,163 C47.1340068,163 44,166.134007 44,170 L20,170 C15.581722,170 12,166.418278 12,162 L12,160 C14.7614237,160 17,157.761424 17,155 C17,152.238576 14.7614237,150 12,150 L12,145 C14.7614237,145 17,142.761424 17,140 C17,137.238576 14.7614237,135 12,135 L12,130 C14.7614237,130 17,127.761424 17,125 C17,122.238576 14.7614237,120 12,120 L12,115 C14.7614237,115 17,112.761424 17,110 C17,107.238576 14.7614237,105 12,105 L12,104 C12,99.581722 15.581722,96 20,96 L44,96 Z M51,156.517333 C50.7238576,156.517333 50.5,156.741191 50.5,157.017333 L50.5,158.994192 C50.5,159.270335 50.7238576,159.494192 51,159.494192 C51.2761424,159.494192 51.5,159.270335 51.5,158.994192 L51.5,157.017333 C51.5,156.741191 51.2761424,156.517333 51,156.517333 Z M339,156.517333 C338.723858,156.517333 338.5,156.741191 338.5,157.017333 L338.5,158.994192 C338.5,159.270335 338.723858,159.494192 339,159.494192 C339.276142,159.494192 339.5,159.270335 339.5,158.994192 L339.5,157.017333 C339.5,156.741191 339.276142,156.517333 339,156.517333 Z M51,151.517333 C50.7238576,151.517333 50.5,151.741191 50.5,152.017333 L50.5,154.017333 C50.5,154.293476 50.7238576,154.517333 51,154.517333 C51.2761424,154.517333 51.5,154.293476 51.5,154.017333 L51.5,152.017333 C51.5,151.741191 51.2761424,151.517333 51,151.517333 Z M339,151.517333 C338.723858,151.517333 338.5,151.741191 338.5,152.017333 L338.5,154.017333 C338.5,154.293476 338.723858,154.517333 339,154.517333 C339.276142,154.517333 339.5,154.293476 339.5,154.017333 L339.5,152.017333 C339.5,151.741191 339.276142,151.517333 339,151.517333 Z M51,146.517333 C50.7238576,146.517333 50.5,146.741191 50.5,147.017333 L50.5,149.017333 C50.5,149.293476 50.7238576,149.517333 51,149.517333 C51.2761424,149.517333 51.5,149.293476 51.5,149.017333 L51.5,147.017333 C51.5,146.741191 51.2761424,146.517333 51,146.517333 Z M339,146.517333 C338.723858,146.517333 338.5,146.741191 338.5,147.017333 L338.5,149.017333 C338.5,149.293476 338.723858,149.517333 339,149.517333 C339.276142,149.517333 339.5,149.293476 339.5,149.017333 L339.5,147.017333 C339.5,146.741191 339.276142,146.517333 339,146.517333 Z M51,141.517333 C50.7238576,141.517333 50.5,141.741191 50.5,142.017333 L50.5,144.017333 C50.5,144.293476 50.7238576,144.517333 51,144.517333 C51.2761424,144.517333 51.5,144.293476 51.5,144.017333 L51.5,142.017333 C51.5,141.741191 51.2761424,141.517333 51,141.517333 Z M339,141.517333 C338.723858,141.517333 338.5,141.741191 338.5,142.017333 L338.5,144.017333 C338.5,144.293476 338.723858,144.517333 339,144.517333 C339.276142,144.517333 339.5,144.293476 339.5,144.017333 L339.5,142.017333 C339.5,141.741191 339.276142,141.517333 339,141.517333 Z M51,136.517333 C50.7238576,136.517333 50.5,136.741191 50.5,137.017333 L50.5,139.017333 C50.5,139.293476 50.7238576,139.517333 51,139.517333 C51.2761424,139.517333 51.5,139.293476 51.5,139.017333 L51.5,137.017333 C51.5,136.741191 51.2761424,136.517333 51,136.517333 Z M339,136.517333 C338.723858,136.517333 338.5,136.741191 338.5,137.017333 L338.5,139.017333 C338.5,139.293476 338.723858,139.517333 339,139.517333 C339.276142,139.517333 339.5,139.293476 339.5,139.017333 L339.5,137.017333 C339.5,136.741191 339.276142,136.517333 339,136.517333 Z M51,131.517333 C50.7238576,131.517333 50.5,131.741191 50.5,132.017333 L50.5,134.017333 C50.5,134.293476 50.7238576,134.517333 51,134.517333 C51.2761424,134.517333 51.5,134.293476 51.5,134.017333 L51.5,132.017333 C51.5,131.741191 51.2761424,131.517333 51,131.517333 Z M339,131.517333 C338.723858,131.517333 338.5,131.741191 338.5,132.017333 L338.5,134.017333 C338.5,134.293476 338.723858,134.517333 339,134.517333 C339.276142,134.517333 339.5,134.293476 339.5,134.017333 L339.5,132.017333 C339.5,131.741191 339.276142,131.517333 339,131.517333 Z M51,126.517333 C50.7238576,126.517333 50.5,126.741191 50.5,127.017333 L50.5,129.017333 C50.5,129.293476 50.7238576,129.517333 51,129.517333 C51.2761424,129.517333 51.5,129.293476 51.5,129.017333 L51.5,127.017333 C51.5,126.741191 51.2761424,126.517333 51,126.517333 Z M339,126.517333 C338.723858,126.517333 338.5,126.741191 338.5,127.017333 L338.5,129.017333 C338.5,129.293476 338.723858,129.517333 339,129.517333 C339.276142,129.517333 339.5,129.293476 339.5,129.017333 L339.5,127.017333 C339.5,126.741191 339.276142,126.517333 339,126.517333 Z M339,121.517333 C338.723858,121.517333 338.5,121.741191 338.5,122.017333 L338.5,124.017333 C338.5,124.293476 338.723858,124.517333 339,124.517333 C339.276142,124.517333 339.5,124.293476 339.5,124.017333 L339.5,122.017333 C339.5,121.741191 339.276142,121.517333 339,121.517333 Z M51,121.517333 C50.7238576,121.517333 50.5,121.741191 50.5,122.017333 L50.5,124.017333 C50.5,124.293476 50.7238576,124.517333 51,124.517333 C51.2761424,124.517333 51.5,124.293476 51.5,124.017333 L51.5,122.017333 C51.5,121.741191 51.2761424,121.517333 51,121.517333 Z M51,116.517333 C50.7238576,116.517333 50.5,116.741191 50.5,117.017333 L50.5,119.017333 C50.5,119.293476 50.7238576,119.517333 51,119.517333 C51.2761424,119.517333 51.5,119.293476 51.5,119.017333 L51.5,117.017333 C51.5,116.741191 51.2761424,116.517333 51,116.517333 Z M339,116.517333 C338.723858,116.517333 338.5,116.741191 338.5,117.017333 L338.5,119.017333 C338.5,119.293476 338.723858,119.517333 339,119.517333 C339.276142,119.517333 339.5,119.293476 339.5,119.017333 L339.5,117.017333 C339.5,116.741191 339.276142,116.517333 339,116.517333 Z M339,111.517333 C338.723858,111.517333 338.5,111.741191 338.5,112.017333 L338.5,114.017333 C338.5,114.293476 338.723858,114.517333 339,114.517333 C339.276142,114.517333 339.5,114.293476 339.5,114.017333 L339.5,112.017333 C339.5,111.741191 339.276142,111.517333 339,111.517333 Z M51,111.517333 C50.7238576,111.517333 50.5,111.741191 50.5,112.017333 L50.5,114.017333 C50.5,114.293476 50.7238576,114.517333 51,114.517333 C51.2761424,114.517333 51.5,114.293476 51.5,114.017333 L51.5,112.017333 C51.5,111.741191 51.2761424,111.517333 51,111.517333 Z M339,106.517333 C338.723858,106.517333 338.5,106.741191 338.5,107.017333 L338.5,109.017333 C338.5,109.293476 338.723858,109.517333 339,109.517333 C339.276142,109.517333 339.5,109.293476 339.5,109.017333 L339.5,107.017333 C339.5,106.741191 339.276142,106.517333 339,106.517333 Z M51,106.517333 C50.7238576,106.517333 50.5,106.741191 50.5,107.017333 L50.5,109.017333 C50.5,109.293476 50.7238576,109.517333 51,109.517333 C51.2761424,109.517333 51.5,109.293476 51.5,109.017333 L51.5,107.017333 C51.5,106.741191 51.2761424,106.517333 51,106.517333 Z" id="形状结合"></path>
        </g>
    </g>
</svg>