<?xml version="1.0" encoding="UTF-8"?>
<svg width="366px" height="117px" viewBox="0 0 366 117" version="1.1" xmlns="http://www.w3.org/2000/svg" xmlns:xlink="http://www.w3.org/1999/xlink">
    <title>编组备份 3</title>
    <g id="页面-1" stroke="none" stroke-width="1" fill="none" fill-rule="evenodd">
        <g id="收货地址备份-5" transform="translate(-12, -866)">
            <g id="编组备份-3" transform="translate(12, 866)">
                <path d="M358,0 C362.418278,0 366,3.581722 366,8 L366,68 C362.686292,68 360,70.6862915 360,74 C360,77.3137085 362.686292,80 366,80 L366,109 C366,113.418278 362.418278,117 358,117 L8,117 C3.581722,117 0,113.418278 0,109 L0,80 C3.3137085,80 6,77.3137085 6,74 C6,70.6862915 3.3137085,68 0,68 L0,8 C0,3.581722 3.581722,8.8817842e-16 8,0 L358,0 Z" id="形状结合" fill="#FFFFFF"></path>
                <path d="M358,74 C358.692893,74 359.365213,74.0880884 360.00637,74.2536773 C360.135411,77.3658797 362.63412,79.8645888 365.744957,79.9946773 C365.911912,80.6347874 366,81.3071066 366,82 L366,109 C366,113.418278 362.418278,117 358,117 L8,117 C3.581722,117 0,113.418278 0,109 L0,82 C0,81.3071066 0.088088382,80.6347874 0.253677272,79.9936301 C3.36587966,79.8645888 5.86458882,77.3658797 5.99467732,74.2550428 C6.63478737,74.0880884 7.30710661,74 8,74 L358,74 Z" id="形状结合" fill="#F0EFF1"></path>
                <path d="M358,0.5 C360.071068,0.5 361.946068,1.33946609 363.303301,2.69669914 C364.660534,4.05393219 365.5,5.92893219 365.5,8 L365.5,67.5189448 C363.904398,67.6403244 362.469824,68.3377874 361.403806,69.4038059 C360.227537,70.5800746 359.5,72.2050746 359.5,74 C359.5,75.7949254 360.227537,77.4199254 361.403806,78.5961941 C362.469824,79.6622126 363.904398,80.3596756 365.5,80.4810552 L365.5,109 C365.5,111.071068 364.660534,112.946068 363.303301,114.303301 C361.946068,115.660534 360.071068,116.5 358,116.5 L8,116.5 C5.92893219,116.5 4.05393219,115.660534 2.69669914,114.303301 C1.33946609,112.946068 0.5,111.071068 0.5,109 L0.5,80.4810552 C2.09560152,80.3596756 3.53017555,79.6622126 4.59619408,78.5961941 C5.77246272,77.4199254 6.5,75.7949254 6.5,74 C6.5,72.2050746 5.77246272,70.5800746 4.59619408,69.4038059 C3.53017555,68.3377874 2.09560152,67.6403244 0.5,67.5189448 L0.5,8 C0.5,5.92893219 1.33946609,4.05393219 2.69669914,2.69669914 C4.05393219,1.33946609 5.92893219,0.5 8,0.5 Z" id="形状结合" stroke="#F0EFF1"></path>
            </g>
        </g>
    </g>
</svg>