<?xml version="1.0" encoding="UTF-8"?>
<svg width="24px" height="24px" viewBox="0 0 24 24" version="1.1" xmlns="http://www.w3.org/2000/svg" xmlns:xlink="http://www.w3.org/1999/xlink">
    <title>Icon/明细备份</title>
    <defs>
        <linearGradient x1="50%" y1="0%" x2="50%" y2="100%" id="linearGradient-1">
            <stop stop-color="#17E1FF" offset="0%"></stop>
            <stop stop-color="#0583E1" offset="100%"></stop>
        </linearGradient>
    </defs>
    <g id="页面-1" stroke="none" stroke-width="1" fill="none" fill-rule="evenodd">
        <g id="发现备份-5" transform="translate(-338, -360)">
            <g id="Icon/明细备份" transform="translate(338, 360)">
                <path d="M12,0 C18.627417,0 24,5.372583 24,12 C24,18.627417 18.627417,24 12,24 C5.372583,24 0,18.627417 0,12 C0,5.4849121 5.19200495,0.182481939 11.6641142,0.00461015704 L12,0 Z" id="矩形" fill="url(#linearGradient-1)" fill-rule="evenodd"></path>
                <path d="M18.6083438,12.1653807 C18.4614899,12.8702507 18.2517748,13.5029963 17.9749559,14.0636267 C17.0312696,15.9747995 15.4184905,16.9775205 13.1367725,17.0700166 C12.0545636,17.1125693 11.033262,16.9719933 10.0706513,16.6500345 L10.0706513,16.6370987 L9.64494313,17.6305836 C9.55932205,17.7881572 9.48927831,17.8393217 9.39649276,17.9027347 C9.32329193,17.9527685 9.19560662,17.9873607 9.11003076,17.9962078 C9.02258237,18.0052539 8.95925987,17.9992201 8.84468231,17.9660572 C8.75403162,17.9398146 8.71631854,17.8977413 8.68486534,17.8755965 C8.6534212,17.8533612 8.58103451,17.7716028 8.56425405,17.7549852 L6.41310701,14.3688954 C6.35862251,14.2763812 6.32717836,14.1875759 6.31663064,14.1005889 C6.30619147,14.0154835 6.31243326,13.9433139 6.33137573,13.8841254 C6.35020966,13.8249551 6.38166285,13.7694031 6.42785211,13.7176325 C6.47010279,13.6710686 6.51640449,13.6283481 6.56621179,13.5899743 C6.61238294,13.5548303 6.66267911,13.527086 6.71724501,13.501169 C6.77172951,13.475252 6.80951496,13.4604436 6.82630447,13.4567347 C6.84515649,13.4530349 6.85774861,13.4475077 6.86819683,13.4382717 L10.6348006,12.5095114 C10.836139,12.4669586 11.0288385,12.4528829 11.1484185,12.4751001 C11.2679443,12.4973173 11.2940241,12.5046536 11.371558,12.5323889 C11.4491914,12.5620057 11.5373996,12.634908 11.5764244,12.7074394 C11.6137214,12.7767685 11.6288554,12.840679 11.6394032,12.8924588 C11.6498423,12.9442928 11.6498423,13.0034812 11.6394032,13.0700603 C11.6288645,13.1366575 11.6204697,13.1829101 11.612075,13.203318 C11.6016177,13.2254628 11.5974203,13.2384439 11.5974203,13.24768 L11.1569942,14.2412463 C11.9371999,14.5057716 12.671153,14.6685828 13.3632228,14.7315253 C14.055374,14.7944136 14.6446171,14.7796052 15.1291067,14.687091 C15.6135962,14.5945768 16.0665331,14.4410017 16.4838374,14.228238 C16.9012323,14.0154925 17.2304912,13.8045562 17.4737944,13.597383 C17.7170252,13.3901465 17.9351441,13.1607653 18.1260253,12.9090764 C18.3189419,12.657478 18.4384676,12.4854579 18.4909077,12.3929527 C18.5412491,12.3022749 18.581088,12.2245691 18.6083438,12.1653807 Z M6,11.5884674 C6.20133845,10.755903 6.48448956,10.025116 6.85149779,9.39607023 C7.90636937,7.63848163 9.57784841,6.78005454 11.8700237,6.82260727 C12.8872094,6.839243 13.8120437,7.00392676 14.646752,7.32022269 L15.0997069,6.33973696 C15.1633641,6.23293903 15.2292738,6.15914116 15.3005659,6.10365255 C15.3739838,6.04810966 15.4478812,6.02706849 15.5107514,6.01406929 C15.5757746,6.0011334 15.6446242,5.99524441 15.7117823,6.00452568 C15.7809214,6.01375267 15.8124198,6.01809479 15.8704685,6.0373177 C15.9227367,6.05463189 15.9339177,6.05706528 15.9842952,6.08480959 C16.0345823,6.11443547 16.0804097,6.14888292 16.1267709,6.19411328 L16.2111979,6.29362007 L18.2475683,9.66620405 C18.2937305,9.76792713 18.3209863,9.86044132 18.329381,9.94741932 C18.3399016,10.0325248 18.3335784,10.1046943 18.3147264,10.1638828 C18.2958925,10.2230532 18.2622954,10.2786051 18.2119268,10.3285665 C18.1616216,10.3803282 18.113406,10.4210807 18.0672168,10.448816 C18.0190196,10.4802348 17.9685647,10.5080459 17.916265,10.5320218 L17.8072055,10.5838558 C17.7883535,10.5930828 17.7757614,10.5967917 17.7652318,10.5967917 L13.9713812,11.4386011 C13.7134324,11.473727 13.507978,11.4682179 13.3527474,11.4256652 C13.1975801,11.3831125 13.092121,11.2808105 13.0480757,11.2086318 C13.001986,11.1365256 12.9825641,11.0891332 12.9741964,10.9877539 C12.9668781,10.8990843 12.9726948,10.8584312 12.9832425,10.8158785 C12.9936817,10.7733258 13.0192911,10.7004054 13.0381431,10.6744884 L13.5058251,9.69391218 C12.73614,9.41456945 12.0042494,9.23507729 11.3058564,9.15927119 C10.6095892,9.08339273 10.020319,9.08339273 9.54005392,9.15927119 C9.05976173,9.23507727 8.60468096,9.37571657 8.17897278,9.57925321 C7.7532646,9.78271748 7.41553852,9.98625411 7.16811033,10.191609 C6.92060977,10.3969549 6.69624003,10.620818 6.49490159,10.8669074 C6.29356315,11.1129786 6.16566978,11.2831896 6.10903231,11.3757037 C6.05662842,11.4663363 6.01885202,11.538515 6,11.5884674 L6,11.5884674 Z" id="形状结合" fill="#FFFFFF" fill-rule="nonzero"></path>
            </g>
        </g>
    </g>
</svg>