<?xml version="1.0" encoding="UTF-8"?>
<svg width="24px" height="24px" viewBox="0 0 24 24" version="1.1" xmlns="http://www.w3.org/2000/svg" xmlns:xlink="http://www.w3.org/1999/xlink">
    <title>编组</title>
    <defs>
        <linearGradient x1="7.61890551e-13%" y1="50%" x2="100%" y2="50%" id="linearGradient-1">
            <stop stop-color="#EF984B" offset="0%"></stop>
            <stop stop-color="#EF7A4E" offset="100%"></stop>
        </linearGradient>
    </defs>
    <g id="页面-1" stroke="none" stroke-width="1" fill="none" fill-rule="evenodd">
        <g id="资讯备份-6" transform="translate(-28, -120)">
            <g id="编组" transform="translate(28, 120)">
                <rect id="矩形-3" fill="url(#linearGradient-1)" x="0" y="0" width="24" height="24" rx="4"></rect>
                <path d="M13.0079531,6 C14.2053858,6 15.14497,6 15.8862844,6.08301939 C16.6432259,6.16896889 17.2575694,6.34672806 17.7674062,6.75010465 C17.9197712,6.87023859 18.0613925,7.00404632 18.1903167,7.14762104 C18.623971,7.63499372 18.8173573,8.22394307 18.9101437,8.94767685 C18.9199107,9.03069625 18.9257709,9.07269429 18.9160039,9.10883215 C18.9001282,9.16851369 18.8575997,9.21752956 18.8007535,9.24166318 C18.7655923,9.25533696 18.7216409,9.25533696 18.633738,9.25533696 L5.36626203,9.25533696 C5.27835915,9.25533696 5.2344077,9.25533696 5.20022325,9.24166318 C5.14253828,9.21814306 5.09917391,9.16899677 5.08301939,9.10883215 C5.07570643,9.05513412 5.07802158,9.00056255 5.08985629,8.94767685 C5.18166597,8.22491977 5.37602902,7.63499372 5.80968327,7.14762104 C5.93885266,7.00309598 6.08035688,6.87008854 6.23259383,6.75010465 C6.74243058,6.34672806 7.3557974,6.16896889 8.11273894,6.08301939 C8.85503,6 9.7946142,6 10.9920469,6 L13.0079531,6 L13.0079531,6 Z M19,11.7312683 C19,12.8544719 19,13.7432678 18.9101437,14.4464909 C18.8173573,15.1692479 18.623971,15.759174 18.1903167,16.24557 C18.0611719,16.3904163 17.919668,16.5237503 17.7674062,16.6440631 C17.2575694,17.0474397 16.6442026,17.2251988 15.8872611,17.3111483 C15.14497,17.3941677 14.2053858,17.3941677 13.0079531,17.3941677 L10.9920469,17.3941677 C9.7946142,17.3941677 8.8540533,17.3941677 8.11273894,17.3111483 C7.3567741,17.2251988 6.74243058,17.0474397 6.23259383,16.6440631 C6.08032549,16.5237578 5.93882097,16.3904232 5.80968327,16.24557 C5.37602902,15.759174 5.18166597,15.1702246 5.08985629,14.4464909 C5,13.7432678 5,12.8544719 5,11.7312683 L5,11.6628994 C5,11.2878471 5,10.9391656 5.0039068,10.6139249 C5.00586019,10.4351891 5.00586019,10.3453328 5.06250872,10.2886842 C5.12111065,10.2320357 5.21096693,10.2320357 5.3916562,10.2320357 L18.6083438,10.2320357 C18.7890331,10.2320357 18.8788894,10.2320357 18.9365146,10.2886842 C18.9931631,10.3453328 18.9951165,10.4351891 18.9960932,10.6139249 C19,10.9391656 19,11.2878471 19,11.6619227 L19,11.7312683 Z M10.8601925,14.3019394 C10.8601925,14.5716474 11.078834,14.7902888 11.3485419,14.7902888 L12.3252407,14.7902888 C12.5949486,14.7902888 12.8135901,14.5716474 12.8135901,14.3019394 C12.8135901,14.0322315 12.5949486,13.8135901 12.3252407,13.8135901 L11.3485419,13.8135901 C11.078834,13.8135901 10.8601925,14.0322315 10.8601925,14.3019394 Z M14.2786382,13.8135901 C14.0089303,13.8135901 13.7902888,14.0322315 13.7902888,14.3019394 C13.7902888,14.5716474 14.0089303,14.7902888 14.2786382,14.7902888 L16.5582531,14.7902888 C16.827961,14.7902888 17.0466025,14.5716474 17.0466025,14.3019394 C17.0466025,14.0322315 16.827961,13.8135901 16.5582531,13.8135901 L14.2786382,13.8135901 Z" id="形状" fill="#FFFFFF" fill-rule="nonzero"></path>
            </g>
        </g>
    </g>
</svg>