<?xml version="1.0" encoding="UTF-8"?>
<svg width="24px" height="24px" viewBox="0 0 24 24" version="1.1" xmlns="http://www.w3.org/2000/svg" xmlns:xlink="http://www.w3.org/1999/xlink">
    <title>编组</title>
    <g id="页面-1" stroke="none" stroke-width="1" fill="none" fill-rule="evenodd">
        <g id="我的持有-提现-人名币" transform="translate(-36, -421)">
            <g id="编组" transform="translate(36, 421)">
                <rect id="矩形-2备份-2" fill="#DD3233" x="0" y="0" width="24" height="24" rx="4"></rect>
                <g id="Icon/银行" transform="translate(6, 6)" fill="#FFFFFF" fill-rule="nonzero">
                    <path d="M11.9716312,3.1858156 L11.9716312,2.33475178 C11.9716312,1.71063831 11.4609929,1.2 10.8368794,1.2 L1.13475177,1.2 C0.510638298,1.2 0,1.7106383 0,2.33475178 L0,3.1858156 L11.9716312,3.1858156 Z M0,4.60425532 L0,9.88085106 C0,10.5049645 0.510638298,11.0156028 1.13475177,11.0156028 L10.8652482,11.0156028 C11.4893617,11.0156028 12,10.5049645 12,9.88085106 L12,4.60425532 L0,4.60425532 Z M3.82978723,8.74609929 L1.0212766,8.74609929 L1.0212766,8.17872341 L3.82978723,8.17872341 L3.82978723,8.74609929 Z M6.15602836,6.95886525 L1.0212766,6.95886525 L1.0212766,6.39148937 L6.15602836,6.39148937 L6.15602836,6.95886525 Z" id="形状"></path>
                </g>
            </g>
        </g>
    </g>
</svg>