<?xml version="1.0" encoding="UTF-8"?>
<svg width="16px" height="16px" viewBox="0 0 16 16" version="1.1" xmlns="http://www.w3.org/2000/svg" xmlns:xlink="http://www.w3.org/1999/xlink">
    <title>Icon/人名币备份</title>
    <g id="页面-1" stroke="none" stroke-width="1" fill="none" fill-rule="evenodd">
        <g id="我的持有-提现-人名币" transform="translate(-28, -160)" fill="#FF4444">
            <g id="Icon/人名币备份" transform="translate(28, 160)">
                <path d="M8,0 C12.418278,0 16,3.581722 16,8 C16,12.418278 12.418278,16 8,16 C3.581722,16 0,12.418278 0,8 C0,3.581722 3.581722,0 8,0 Z M6.04406485,3.22433706 C5.74056467,3.18895139 5.02141896,3.19521193 4.71111385,3.22352046 C4.46232537,3.24638505 4.42476212,3.43882866 4.54888416,3.63290545 L6.68182352,7.46299602 L5.20134149,7.46326822 C5.15588451,7.46326822 5.04401135,7.55853733 5.03067368,7.61842077 C5.00182075,7.74771457 5.00998667,8.25291307 5.02359654,8.40180508 C5.0284961,8.45760556 5.02686291,8.50279034 5.06633155,8.54906391 C5.07912483,8.56403477 5.19344776,8.63153975 5.20134149,8.63153975 L7.19818211,8.63153975 L7.19818211,9.17484589 L5.22856124,9.17484589 C5.15234595,9.17484589 5.03421225,9.29352399 5.02332435,9.37708861 C5.0067203,9.50393263 5.00535931,10.0744585 5.03067368,10.1876927 C5.04401135,10.2473039 5.15561232,10.3428452 5.20134149,10.3428452 L7.19763772,10.3428452 L7.19763772,12.6655062 C7.19763772,12.6753053 7.31087186,12.7896283 7.34761852,12.7871785 C7.74176045,12.7610475 8.18272035,12.8241973 8.57087394,12.7890839 C8.64872242,12.7820067 8.8006086,12.7278394 8.8006086,12.6382865 L8.8006086,10.342573 L10.7974492,10.342573 C10.8742089,10.342573 10.9602233,10.2426766 10.9724722,10.1642837 C10.994248,10.0230132 10.994248,9.52053667 10.9754664,9.37654421 C10.9645785,9.29297959 10.8461726,9.1743015 10.7702295,9.1743015 L8.8006086,9.1743015 L8.8006086,8.63099535 L10.7974492,8.63099535 C10.9117722,8.63099535 10.966756,8.50006837 10.9754664,8.40126069 C10.988804,8.25073549 10.9975144,7.74798677 10.9683892,7.61787638 C10.9550516,7.55826513 10.8434506,7.46272382 10.7977214,7.46272382 L9.31723939,7.46272382 C9.9509151,6.23892401 10.6608061,5.05023767 11.2874047,3.82289929 C11.3908397,3.62038437 11.6096865,3.34383174 11.2852271,3.22651464 C10.8505277,3.25618416 10.3537674,3.18160205 9.92696172,3.22324827 C9.72199703,3.24339088 9.71818626,3.44672239 9.61992298,3.5956144 L8.05397095,7.05578861 C7.49678273,5.77237755 6.8233662,4.5412284 6.19350126,3.29238642 C6.14886087,3.24447967 6.10748686,3.23168639 6.04406485,3.22433706 Z" id="形状结合"></path>
            </g>
        </g>
    </g>
</svg>