<?xml version="1.0" encoding="UTF-8"?>
<svg width="12px" height="12px" viewBox="0 0 12 12" version="1.1" xmlns="http://www.w3.org/2000/svg" xmlns:xlink="http://www.w3.org/1999/xlink">
    <title>Icon/警告</title>
    <defs>
        <rect id="path-1" x="0" y="0" width="12" height="12"></rect>
    </defs>
    <g id="页面-1" stroke="none" stroke-width="1" fill="none" fill-rule="evenodd">
        <g id="我的持有-提现-人名币" transform="translate(-24, -732)">
            <g id="Icon/警告" transform="translate(24, 732)">
                <mask id="mask-2" fill="white">
                    <use xlink:href="#path-1"></use>
                </mask>
                <g id="矩形"></g>
                <path d="M6,0 C9.3137085,0 12,2.6862915 12,6 C12,9.3137085 9.3137085,12 6,12 C2.6862915,12 0,9.3137085 0,6 C0,2.6862915 2.6862915,0 6,0 Z M6,1.2 C3.3490332,1.2 1.2,3.3490332 1.2,6 C1.2,8.6509668 3.3490332,10.8 6,10.8 C8.6509668,10.8 10.8,8.6509668 10.8,6 C10.8,3.3490332 8.6509668,1.2 6,1.2 Z" id="椭圆形" fill="#F9A02D" fill-rule="nonzero" mask="url(#mask-2)"></path>
                <path d="M6,2.52790853 C6.41421356,2.52790853 6.75,2.86369496 6.75,3.27790853 L6.75,6.75108356 C6.75,7.16529713 6.41421356,7.50108356 6,7.50108356 C5.58578644,7.50108356 5.25,7.16529713 5.25,6.75108356 L5.25,3.27790853 C5.25,2.86369496 5.58578644,2.52790853 6,2.52790853 Z" id="路径-2" fill="#F9A02D" fill-rule="nonzero" mask="url(#mask-2)"></path>
                <path d="M6,7.92790853 C6.41421356,7.92790853 6.75,8.26369496 6.75,8.67790853 C6.75,9.09212209 6.41421356,9.42790853 6,9.42790853 C5.58578644,9.42790853 5.25,9.09212209 5.25,8.67790853 C5.25,8.26369496 5.58578644,7.92790853 6,7.92790853 Z" id="路径-2备份" fill="#F9A02D" fill-rule="nonzero" mask="url(#mask-2)"></path>
            </g>
        </g>
    </g>
</svg>