<?xml version="1.0" encoding="UTF-8"?>
<svg width="14px" height="14px" viewBox="0 0 14 14" version="1.1" xmlns="http://www.w3.org/2000/svg" xmlns:xlink="http://www.w3.org/1999/xlink">
    <title>Icon/提醒</title>
    <g id="页面-1" stroke="none" stroke-width="1" fill="none" fill-rule="evenodd">
        <g id="基金详情" transform="translate(-28, -454)" fill="#FFBF3D" fill-rule="nonzero">
            <g id="Icon/提醒" transform="translate(28, 454)">
                <path d="M7,0 C10.7969577,0 13.8878378,3.0230773 13.9970156,6.79360714 L14,7 C14,10.8659932 10.8659932,14 7,14 C3.13400675,14 0,10.8659932 0,7 C0,3.13400675 3.13400675,0 7,0 Z M7,1.4 C3.9072054,1.4 1.4,3.9072054 1.4,7 C1.4,10.0927946 3.9072054,12.6 7,12.6 C10.0927946,12.6 12.6,10.0927946 12.6,7 L12.5976021,6.83412794 C12.5101035,3.81230475 10.0311526,1.4 7,1.4 Z M6.99336773,9.11889639 C7.36463659,9.11889639 7.66560947,9.41986927 7.66560947,9.79113813 L7.66560947,9.82775826 C7.66560947,10.1990271 7.36463659,10.5 6.99336773,10.5 C6.62209886,10.5 6.32112598,10.1990271 6.32112598,9.82775826 L6.32112598,9.79113813 C6.32112598,9.41986927 6.62209886,9.11889639 6.99336773,9.11889639 Z M7,3.5 C7.38659932,3.5 7.7,3.81340068 7.7,4.2 L7.7,7.7 C7.7,8.08659932 7.38659932,8.4 7,8.4 C6.61340068,8.4 6.3,8.08659932 6.3,7.7 L6.3,4.2 C6.3,3.81340068 6.61340068,3.5 7,3.5 Z" id="形状结合"></path>
            </g>
        </g>
    </g>
</svg>