<?xml version="1.0" encoding="UTF-8"?>
<svg width="44px" height="44px" viewBox="0 0 44 44" version="1.1" xmlns="http://www.w3.org/2000/svg" xmlns:xlink="http://www.w3.org/1999/xlink">
    <title>编组</title>
    <g id="页面-1" stroke="none" stroke-width="1" fill="none" fill-rule="evenodd">
        <g id="最新公告" transform="translate(-24, -164)" fill="#BE5828">
            <g id="编组" transform="translate(24, 164)">
                <rect id="矩形-4" opacity="0.100000001" x="0" y="0" width="44" height="44" rx="22"></rect>
                <g id="Icon/公告" transform="translate(12, 12)" fill-rule="nonzero">
                    <path d="M11.4811111,0.0116666602 C11.1327371,0.0132287062 10.7913967,0.109848968 10.4938889,0.291111113 L5.80333334,4.87111111 C5.65333334,4.96055557 5.48333334,5.00888889 5.30944445,5.01111111 L3.08777777,5.01111111 C1.99722223,5.01111111 1.11277777,5.90555557 1.11277777,7.00833334 L1.11277777,12.9966667 C1.11277777,13.5261111 1.32111111,14.0344444 1.69166666,14.4088889 C2.06013565,14.782661 2.56292098,14.9933386 3.08777777,14.9938889 L5.29,14.9938889 C5.46388889,14.9961111 5.63444445,15.0438889 5.78388889,15.1338889 L10.4938889,19.7088889 C10.7916667,19.89 11.1327778,19.9866667 11.4811111,19.9883333 C12.5716667,19.9883333 13.4561111,19.0938889 13.4561111,17.9905555 L13.4561111,2.00944445 C13.4555555,0.905555547 12.5716667,0.0111111133 11.4811111,0.0111111133 L11.4811111,0.0116666602 Z M18.1461111,9.00111111 L15.6777778,9.00111111 C15.4801443,9.00213907 15.2910308,9.08171239 15.1521172,9.22229344 C15.0132035,9.36287449 14.9358922,9.5529239 14.9372053,9.75055555 C14.9360402,9.94809127 15.0134171,10.1379978 15.1523147,10.2784584 C15.2912124,10.4189191 15.4802412,10.4984161 15.6777778,10.4994445 L18.1461111,10.4994445 C18.3437442,10.4985631 18.5329157,10.4191308 18.6719334,10.2786542 C18.8109511,10.1381775 18.8884041,9.94818707 18.8872391,9.75055555 C18.8885522,9.55282809 18.8111648,9.36269469 18.672131,9.22209762 C18.5330973,9.08150054 18.3438411,9.00199201 18.1461111,9.00111111 L18.1461111,9.00111111 Z M17.9783333,3.38330815 C17.8505556,3.38444445 17.7244445,3.41888889 17.6133333,3.48333334 L15.4705555,4.73166666 C15.1788889,4.90166666 15.0372222,5.24833332 15.125,5.57722223 C15.2133333,5.90555557 15.5094445,6.13277777 15.8455555,6.13002519 C15.9738889,6.12888889 16.0994444,6.09444445 16.2111111,6.03 L18.3538889,4.78166666 C18.6455555,4.61166666 18.7872222,4.265 18.6988889,3.93611111 C18.6111111,3.60777777 18.315,3.38055557 17.9783333,3.38330815 Z M15.8455555,13.371659 C15.5074485,13.3701425 15.2111071,13.5974823 15.125,13.9244445 C15.0364835,14.2519623 15.1779897,14.5982202 15.4705555,14.77 L17.6133333,16.0183333 C17.7244445,16.0827778 17.8505556,16.1172222 17.9783333,16.118341 C18.3164403,16.1198575 18.6127818,15.8925177 18.6988889,15.5655555 C18.7875067,15.2381668 18.6462432,14.8919461 18.3538889,14.72 L16.2111111,13.4966667 C16.0999363,13.4323321 15.9739973,13.3978807 15.8455555,13.3966667 L15.8455555,13.371659 L15.8455555,13.371659 Z" id="形状"></path>
                </g>
            </g>
        </g>
    </g>
</svg>