<?xml version="1.0" encoding="UTF-8"?>
<svg width="14px" height="14px" viewBox="0 0 14 14" version="1.1" xmlns="http://www.w3.org/2000/svg" xmlns:xlink="http://www.w3.org/1999/xlink">
    <title>Icon/显示</title>
    <g id="页面-1" stroke="none" stroke-width="1" fill="none" fill-rule="evenodd">
        <g id="个人资料-登录密码" transform="translate(-324, -384)" fill="#B3B3B3" fill-rule="nonzero">
            <g id="List/密码输入框备份-2" transform="translate(36, 369)">
                <g id="Icon/显示" transform="translate(288, 15)">
                    <path d="M7,1.61 C9.51382065,1.61 11.8005231,3.23895178 13.8618706,6.4957419 C14.0456829,6.78683833 14.0460702,7.15760397 13.8628663,7.44908375 L13.6694393,7.75030032 C11.6596562,10.8108959 9.43650973,12.3411937 7,12.3411937 C4.48617935,12.3411937 2.19947694,10.7122419 0.138129448,7.45545178 C-0.0456829033,7.16435535 -0.0460701695,6.79358971 0.137133679,6.50210993 L0.330560708,6.20089336 C2.34034384,3.14029779 4.56349027,1.61 7,1.61 Z M1.45566671,7.02340619 C3.1759653,9.63866371 4.95450678,10.9106515 6.80181095,10.9952651 L7,10.9997945 C8.9196234,10.9997945 10.7645409,9.73042027 12.5452533,7.01856055 L12.5730666,6.97380831 L12.5443333,6.92778749 C10.8240347,4.31252997 9.04549322,3.04054213 7.19818905,2.95592853 L7,2.95139921 C5.0803766,2.95139921 3.23545906,4.22077341 1.45474665,6.93263313 L1.42603915,6.97649111 L1.45566671,7.02340619 Z M7,4.29279842 C8.48166865,4.29279842 9.68279842,5.49392819 9.68279842,6.97559684 C9.68279842,8.45726549 8.48166865,9.65839526 7,9.65839526 C5.51833135,9.65839526 4.31720158,8.45726549 4.31720158,6.97559684 C4.31720158,5.49392819 5.51833135,4.29279842 7,4.29279842 Z M7,5.63419763 C6.25916567,5.63419763 5.65860079,6.23476251 5.65860079,6.97559684 C5.65860079,7.71643117 6.25916567,8.31699605 7,8.31699605 C7.74083433,8.31699605 8.34139921,7.71643117 8.34139921,6.97559684 C8.34139921,6.23476251 7.74083433,5.63419763 7,5.63419763 Z" id="形状结合"></path>
                </g>
            </g>
        </g>
    </g>
</svg>