<?xml version="1.0" encoding="UTF-8"?>
<svg width="14px" height="14px" viewBox="0 0 14 14" version="1.1" xmlns="http://www.w3.org/2000/svg" xmlns:xlink="http://www.w3.org/1999/xlink">
    <title>Icon/显示</title>
    <g id="页面-1" stroke="none" stroke-width="1" fill="none" fill-rule="evenodd">
        <g id="个人资料-登录密码" transform="translate(-324, -292)" fill="#B3B3B3" fill-rule="nonzero">
            <g id="List/密码输入框备份" transform="translate(36, 277)">
                <g id="Icon/显示" transform="translate(288, 15)">
                    <path d="M3.07139328,0.94279856 L11.9629734,11.6739922 C12.1993065,11.9592212 12.1596685,12.3820307 11.8744396,12.6183638 C11.5892106,12.8546969 11.1664011,12.815059 10.930068,12.52983 L2.0384879,1.79863634 C1.80215482,1.51340739 1.84179276,1.09059783 2.1270217,0.854264758 C2.41225065,0.617931681 2.83506021,0.657569614 3.07139328,0.94279856 Z M2.62851252,3.21116138 L3.48468785,4.24283253 C2.79865208,4.86309652 2.12218933,5.67689733 1.45474665,6.69335058 L1.42603915,6.73720856 L1.45566671,6.78412364 C3.1759653,9.39938116 4.95450678,10.671369 6.80181095,10.7559826 L7,10.7605119 C7.54710625,10.7605119 8.08814421,10.6574019 8.62335698,10.4471741 L9.51459614,11.5231628 C8.70329495,11.908995 7.86509624,12.1019111 7,12.1019111 C4.48617935,12.1019111 2.19947694,10.4729594 0.138129448,7.21616923 C-0.0456829033,6.9250728 -0.0460701695,6.55430716 0.137133679,6.26282738 L0.330560708,5.96161081 C1.06783183,4.83885846 1.83381577,3.92204198 2.62851252,3.21116138 Z M7,1.37071745 C9.51382065,1.37071745 11.8005231,2.99966923 13.8618706,6.25645935 C14.0456829,6.54755578 14.0460702,6.91832142 13.8628663,7.2098012 L13.6694393,7.51101777 C12.9324776,8.63329897 12.1668271,9.5498171 11.3724879,10.2605722 L10.5163127,9.2288913 C11.2020056,8.60874076 11.8781351,7.79523711 12.5452533,6.779278 L12.5730666,6.73452576 L12.5443333,6.68850494 C10.8240347,4.07324742 9.04549322,2.80125958 7.19818905,2.71664598 L7,2.71211666 C6.45323315,2.71211666 5.91252706,2.81509881 5.37763908,3.02506332 L4.48640548,1.94898954 C5.29739493,1.56347481 6.13525977,1.37071745 7,1.37071745 Z M4.58288053,5.5708765 L5.66606204,6.87864051 C5.72334095,7.4217599 6.10473288,7.86825268 6.61323376,8.02111481 L7.69581293,9.3279984 C7.47390566,9.38742645 7.24065319,9.41911271 7,9.41911271 C5.51833135,9.41911271 4.31720158,8.21798294 4.31720158,6.73631429 C4.31720158,6.31867342 4.41263351,5.92332188 4.58288053,5.5708765 Z M7,4.05351587 C8.48166865,4.05351587 9.68279842,5.25464564 9.68279842,6.73631429 C9.68279842,7.15355665 9.58754852,7.5485522 9.41760661,7.90074305 L8.33372357,6.59196977 C8.27579127,6.05048709 7.89565472,5.6053772 7.38880102,5.45212722 L6.30519125,4.14436147 C6.52679799,4.08510662 6.75970979,4.05351587 7,4.05351587 Z" id="形状结合备份-2"></path>
                </g>
            </g>
        </g>
    </g>
</svg>