<?xml version="1.0" encoding="UTF-8"?>
<svg width="26px" height="26px" viewBox="0 0 26 26" version="1.1" xmlns="http://www.w3.org/2000/svg" xmlns:xlink="http://www.w3.org/1999/xlink">
    <title>编组</title>
    <g id="页面-1" stroke="none" stroke-width="1" fill="none" fill-rule="evenodd">
        <g id="银行卡管理-7备份" transform="translate(-352, -531)">
            <g id="Bar/home/TOP备份" transform="translate(0, 522)">
                <g id="编组" transform="translate(352, 9)">
                    <g id="编组备份" transform="translate(-12, -9)">
                        <path d="M33.7928932,9.5 L37.5,13.2071068 L37.5,30.7928932 L33.7928932,34.5 L16.2071068,34.5 L12.5,30.7928932 L12.5,13.2071068 L16.2071068,9.5 L33.7928932,9.5 Z" id="矩形-5" stroke="#4297FE"></path>
                        <path d="M25,33 L17,33 L14,30 L14,23 L14,23" id="路径" stroke="#4297FE"></path>
                        <path d="M36,21 L28,21 L25,18 L25,11 L25,11" id="路径备份-2" stroke="#4297FE" transform="translate(30.5, 16) scale(-1, -1) translate(-30.5, -16)"></path>
                        <polygon id="矩形-6" fill="#4297FE" points="12 9 14 9 12 11"></polygon>
                        <polygon id="矩形-6备份" fill="#4297FE" points="36 9 38 9 38 11"></polygon>
                        <polygon id="矩形-6备份-3" fill="#4297FE" transform="translate(13, 34) scale(1, -1) translate(-13, -34)" points="12 33 14 33 12 35"></polygon>
                        <polygon id="矩形-6备份-2" fill="#4297FE" transform="translate(37, 34) scale(1, -1) translate(-37, -34)" points="36 33 38 33 38 35"></polygon>
                    </g>
                    <g id="Icon/客服" transform="translate(6, 6)" fill="#4297FE">
                        <path d="M7,0 C10.7969577,0 13.8878378,3.0230773 13.9970156,6.79360714 L14,7 C14,10.8659932 10.8659932,14 7,14 C3.13400675,14 0,10.8659932 0,7 C0,3.13400675 3.13400675,0 7,0 Z M7,1.4 C3.9072054,1.4 1.4,3.9072054 1.4,7 C1.4,10.0927946 3.9072054,12.6 7,12.6 C10.0927946,12.6 12.6,10.0927946 12.6,7 L12.5976021,6.83412794 C12.5101035,3.81230475 10.0311526,1.4 7,1.4 Z" id="路径" fill-rule="nonzero"></path>
                        <path d="M3.5,6.3 L10.5,6.3 C10.8865993,6.3 11.2,6.61340068 11.2,7 C11.2,7.38659932 10.8865993,7.7 10.5,7.7 L3.5,7.7 C3.11340068,7.7 2.8,7.38659932 2.8,7 C2.8,6.61340068 3.11340068,6.3 3.5,6.3 Z" id="矩形" fill-rule="evenodd" transform="translate(7, 7) rotate(45) translate(-7, -7)"></path>
                        <path d="M7,2.8 C7.38659932,2.8 7.7,3.11340068 7.7,3.5 L7.7,10.5 C7.7,10.8865993 7.38659932,11.2 7,11.2 C6.61340068,11.2 6.3,10.8865993 6.3,10.5 L6.3,3.5 C6.3,3.11340068 6.61340068,2.8 7,2.8 Z" id="矩形备份" fill-rule="evenodd" transform="translate(7, 7) rotate(45) translate(-7, -7)"></path>
                    </g>
                </g>
            </g>
        </g>
    </g>
</svg>