<?xml version="1.0" encoding="UTF-8"?>
<svg width="14px" height="14px" viewBox="0 0 14 14" version="1.1" xmlns="http://www.w3.org/2000/svg" xmlns:xlink="http://www.w3.org/1999/xlink">
    <title>Icon/基金备份 4</title>
    <g id="页面-1" stroke="none" stroke-width="1" fill="none" fill-rule="evenodd">
        <g id="发现备份-2" transform="translate(-246, -406)" fill="#212634" fill-rule="nonzero">
            <g id="Icon/基金备份-4" transform="translate(246, 406)">
                <path d="M0.478515625,1.21679688 L2.33789062,1.21679688 L2.33789062,3.08984375 L0.478515625,3.08984375 L0.478515625,1.21679688 Z M4.22460938,1.21679688 L13.5214844,1.21679688 L13.5214844,3.08984375 L4.22460938,3.08984375 L4.22460938,1.21679688 Z M0.478515625,6.02929688 L2.33789062,6.02929688 L2.33789062,7.88867188 L0.478515625,7.88867188 L0.478515625,6.02929688 Z M4.22460938,6.02929688 L13.5214844,6.02929688 L13.5214844,7.88867188 L4.22460938,7.88867188 L4.22460938,6.02929688 Z M0.478515625,10.8554688 L2.33789062,10.8554688 L2.33789062,12.7011719 L0.478515625,12.7011719 L0.478515625,10.8554688 Z M4.22460938,10.8554688 L13.5214844,10.8554688 L13.5214844,12.7011719 L4.22460938,12.7011719 L4.22460938,10.8554688 Z" id="形状"></path>
            </g>
        </g>
    </g>
</svg>