<?xml version="1.0" encoding="UTF-8"?>
<svg width="14px" height="14px" viewBox="0 0 14 14" version="1.1" xmlns="http://www.w3.org/2000/svg" xmlns:xlink="http://www.w3.org/1999/xlink">
    <title>Icon/基金备份 5</title>
    <g id="页面-1" stroke="none" stroke-width="1" fill="none" fill-rule="evenodd">
        <g id="发现备份-2" transform="translate(-75, -406)" fill="#212634" fill-rule="nonzero">
            <g id="Icon/基金备份-5" transform="translate(75, 406)">
                <path d="M12.4117778,6.22222222 L6.21522222,6.22222222 L3.08544444,6.22222222 L6.21522222,3.11111112 L6.21522222,4.66666666 L11.9178889,4.66666666 C11.0366667,2.83422222 9.17311112,1.55555556 6.99766666,1.55555556 C4.24355556,1.55555556 1.96466666,3.58788888 1.58355556,6.22222222 L0.00233333789,6.22222222 C0.391222221,2.72222222 3.37322222,0 6.99766666,0 C10.6213333,0 13.6033333,2.72222222 13.993,6.22222222 L12.474,6.22222222 L12.4117778,6.22222222 Z M1.58355556,7.77777778 L6.99766666,7.77777778 L10.1266667,7.77777778 L6.99766666,10.8888889 L6.99766666,9.33333334 L2.07744444,9.33333334 C2.95788888,11.1657778 4.82144444,12.4444444 6.99766666,12.4444444 C9.751,12.4444444 12.0298889,10.4113333 12.4117778,7.77777778 L13.993,7.77777778 C13.6033333,11.277 10.6213333,14 6.99766666,14 C3.37322222,14 0.391222221,11.277 0.00233333789,7.77777778 L0.738111117,7.77777778 L1.58355556,7.77777778 Z" id="形状"></path>
            </g>
        </g>
    </g>
</svg>