<?xml version="1.0" encoding="UTF-8"?>
<svg width="16px" height="16px" viewBox="0 0 16 16" version="1.1" xmlns="http://www.w3.org/2000/svg" xmlns:xlink="http://www.w3.org/1999/xlink">
    <title>Icon/资产</title>
    <g id="页面-1" stroke="none" stroke-width="1" fill="none" fill-rule="evenodd">
        <g id="个人-资产管理-2" transform="translate(-24, -180)" fill="#FFFFFF" fill-rule="nonzero">
            <g id="Icon/资产" transform="translate(24, 180)">
                <path d="M9.69774075,3.3911086 L6.00486093,3.3911086 C3.15173221,4.39792242 0.8,7.55230151 0.8,10.5725554 C0.8,14.2234352 2.88256522,16 7.85123835,16 C12.819599,16 14.90706,14.2233727 14.90706,10.5725554 C14.90706,7.55230151 12.5552653,4.39792242 9.69774075,3.3911086 L9.69774075,3.3911086 Z M9.80434504,10.595618 L9.80434504,10.6002638 C10.133658,10.6002638 10.4028667,10.8693058 10.4028667,11.1985979 C10.4028667,11.5279108 10.1337205,11.797182 9.80434504,11.8016404 L9.80434504,11.8016404 L8.59348929,11.8016404 L8.59348929,12.4046828 L8.5841976,12.4046828 C8.59813512,12.4513079 8.60284346,12.4975371 8.60284346,12.5485788 C8.60284346,12.9614544 8.26413469,13.3001215 7.85125915,13.3001215 C7.43832112,13.3001215 7.09971651,12.9614544 7.09971651,12.5485788 C7.09971651,12.4975371 7.10888319,12.4513079 7.11842486,12.4046828 L7.10442484,12.4046828 L7.10442484,11.8016404 L5.90286078,11.8016404 L5.90286078,11.8016404 L5.90286078,11.8016404 C5.56877701,11.8016404 5.29981833,11.5279108 5.29981833,11.1985979 C5.29981833,10.864535 5.56879784,10.6002638 5.90286078,10.6002638 L5.90286078,10.6002638 L5.90286078,10.595618 L7.10442484,10.595618 L7.10442484,10.0016797 L5.90286078,10.0016797 L5.90286078,10.0016797 L5.90286078,10.0016797 C5.56877701,10.0016797 5.29981833,9.72817934 5.29981833,9.39863726 C5.29981833,9.06461599 5.56879784,8.79546981 5.90286078,8.79546981 L5.90286078,8.79546981 L5.90286078,8.79546981 L6.99782053,8.79546981 C7.00711222,8.75365724 7.02557057,8.72603221 7.04886226,8.68890717 L5.70344385,7.34367625 C5.53644364,7.17661354 5.59217288,6.85182144 5.82398568,6.61996697 C6.05602764,6.38315415 6.38075724,6.33211242 6.54781996,6.49911265 L7.86530085,7.81671854 L9.08544827,6.51311267 C9.27563601,6.30888323 9.66061569,6.35540413 9.89261598,6.59667528 C10.1246579,6.83319641 10.2497414,7.04665504 10.0131578,7.31098871 L8.5983018,8.75365726 C8.59359346,8.77246978 8.5983018,8.78176147 8.5983018,8.79546983 L9.8045117,8.79546983 L9.8045117,8.79546983 C10.1338246,8.80034484 10.4029708,9.06938685 10.4029708,9.39863728 C10.4029708,9.72811688 10.1338871,9.99715889 9.8045117,10.0016797 L9.8045117,10.0016797 L8.59359346,10.0016797 L8.59359346,10.595618 L9.80434504,10.595618 L9.80434504,10.595618 Z M5.75900645,2.58854505 L7.70275897,2.58854505 L9.64209482,2.58854505 C9.64209482,2.58854505 10.8108463,1.13200148 10.9409299,0.969522104 C11.0706592,0.807042726 11.1124717,0.417521386 10.6159711,0.324729595 C10.0734287,0.218000282 9.02511485,0.00454167764 7.70273815,0 C6.38073643,0.00452083015 5.32752672,0.218000282 4.78933852,0.324729595 C4.28837953,0.417583888 4.33490043,0.807105228 4.46473393,0.969522104 C4.59929661,1.1320015 5.75900645,2.58854505 5.75900645,2.58854505 L5.75900645,2.58854505 Z" id="形状结合"></path>
            </g>
        </g>
    </g>
</svg>