<?xml version="1.0" encoding="UTF-8"?>
<svg width="16px" height="16px" viewBox="0 0 16 16" version="1.1" xmlns="http://www.w3.org/2000/svg" xmlns:xlink="http://www.w3.org/1999/xlink">
    <title>Icon/提醒</title>
    <g id="页面-1" stroke="none" stroke-width="1" fill="none" fill-rule="evenodd">
        <g id="个人-资产管理-3" transform="translate(-12, -753)" fill="#FFBF3D" fill-rule="nonzero">
            <g id="Icon/提醒" transform="translate(12, 753)">
                <path d="M8,0 C12.3393802,0 15.8718146,3.45494549 15.9965892,7.76412244 L16,8 C16,12.418278 12.418278,16 8,16 C3.581722,16 0,12.418278 0,8 C0,3.581722 3.581722,0 8,0 Z M8,1.6 C4.4653776,1.6 1.6,4.4653776 1.6,8 C1.6,11.5346224 4.4653776,14.4 8,14.4 C11.5346224,14.4 14.4,11.5346224 14.4,8 L14.3972596,7.81043193 C14.2972612,4.35691971 11.4641744,1.6 8,1.6 Z M7.99242026,10.4215959 C8.41672753,10.4215959 8.76069654,10.7655649 8.76069654,11.1898721 L8.76069654,11.2317237 C8.76069654,11.656031 8.41672753,12 7.99242026,12 C7.56811299,12 7.22414398,11.656031 7.22414398,11.2317237 L7.22414398,11.1898721 C7.22414398,10.7655649 7.56811299,10.4215959 7.99242026,10.4215959 Z M8,4 C8.4418278,4 8.8,4.3581722 8.8,4.8 L8.8,8.8 C8.8,9.2418278 8.4418278,9.6 8,9.6 C7.5581722,9.6 7.2,9.2418278 7.2,8.8 L7.2,4.8 C7.2,4.3581722 7.5581722,4 8,4 Z" id="形状结合"></path>
            </g>
        </g>
    </g>
</svg>