<?xml version="1.0" encoding="UTF-8"?>
<svg width="12px" height="12px" viewBox="0 0 12 12" version="1.1" xmlns="http://www.w3.org/2000/svg" xmlns:xlink="http://www.w3.org/1999/xlink">
    <title>Icon/密码备份</title>
    <g id="页面-1" stroke="none" stroke-width="1" fill="none" fill-rule="evenodd">
        <g id="注册" transform="translate(-36, -334)" fill="#313334" fill-rule="nonzero">
            <g id="Icon/密码备份" transform="translate(36, 334)">
                <path d="M6,0 C7.82253967,0 9.3,1.47746033 9.3,3.3 C9.3,5.12253967 7.82253967,6.6 6,6.6 C4.17746033,6.6 2.7,5.12253967 2.7,3.3 C2.7,1.47746033 4.17746033,0 6,0 Z M6,1.2 C4.84020203,1.2 3.9,2.14020203 3.9,3.3 C3.9,4.45979797 4.84020203,5.4 6,5.4 C7.15979797,5.4 8.1,4.45979797 8.1,3.3 C8.1,2.14020203 7.15979797,1.2 6,1.2 Z" id="椭圆形"></path>
                <path d="M6,5.4 C8.6509668,5.4 10.8,7.5490332 10.8,10.2 L10.8,12 L9.6,12 L9.6,10.2 C9.6,8.2117749 7.9882251,6.6 6,6.6 C4.0117749,6.6 2.4,8.2117749 2.4,10.2 L2.4,12 L1.2,12 L1.2,10.2 C1.2,7.5490332 3.3490332,5.4 6,5.4 Z" id="路径"></path>
            </g>
        </g>
    </g>
</svg>