<?xml version="1.0" encoding="UTF-8"?>
<svg width="12px" height="12px" viewBox="0 0 12 12" version="1.1" xmlns="http://www.w3.org/2000/svg" xmlns:xlink="http://www.w3.org/1999/xlink">
    <title>Icon/密码备份 3</title>
    <defs>
        <polygon id="path-1" points="0 0 12 0 12 12 0 12"></polygon>
    </defs>
    <g id="页面-1" stroke="none" stroke-width="1" fill="none" fill-rule="evenodd">
        <g id="注册" transform="translate(-36, -422)">
            <g id="Icon/密码备份-3" transform="translate(36, 422)">
                <mask id="mask-2" fill="white">
                    <use xlink:href="#path-1"></use>
                </mask>
                <g id="矩形"></g>
                <path d="M6,0 C7.9882251,0 9.6,1.6117749 9.6,3.6 L9.60019016,4.32427328 C10.9851958,4.71609338 12,5.98953658 12,7.5 L12,8.7 C12,10.5225397 10.5225397,12 8.7,12 L3.3,12 C1.47746033,12 0,10.5225397 0,8.7 L0,7.5 C0,5.98917746 1.01528684,4.71548786 2.40079778,4.32399396 L2.4,3.6 C2.4,1.6117749 4.0117749,0 6,0 Z M8.7,5.4 L3.3,5.4 C2.14020203,5.4 1.2,6.34020203 1.2,7.5 L1.2,8.7 C1.2,9.85979797 2.14020203,10.8 3.3,10.8 L8.7,10.8 C9.85979797,10.8 10.8,9.85979797 10.8,8.7 L10.8,7.5 C10.8,6.34020203 9.85979797,5.4 8.7,5.4 Z M6,6.6 C6.33137085,6.6 6.6,6.86862915 6.6,7.2 L6.6,9 C6.6,9.33137085 6.33137085,9.6 6,9.6 C5.66862915,9.6 5.4,9.33137085 5.4,9 L5.4,7.2 C5.4,6.86862915 5.66862915,6.6 6,6.6 Z M6,1.2 C4.6745166,1.2 3.6,2.2745166 3.6,3.6 L3.6,4.199 L8.4,4.199 L8.4,3.6 C8.4,2.31468276 7.38961892,1.26535267 6.11978421,1.20293718 L6,1.2 Z" id="形状结合" fill="#313334" fill-rule="nonzero" mask="url(#mask-2)"></path>
            </g>
        </g>
    </g>
</svg>