<?xml version="1.0" encoding="UTF-8"?>
<svg width="12px" height="12px" viewBox="0 0 12 12" version="1.1" xmlns="http://www.w3.org/2000/svg" xmlns:xlink="http://www.w3.org/1999/xlink">
    <title>Icon/复制</title>
    <g id="页面-1" stroke="none" stroke-width="1" fill="none" fill-rule="evenodd">
        <g id="个人资料-实名认证-2" transform="translate(-24, -450)" fill="#A7A6A5">
            <g id="Icon/复制" transform="translate(24, 450)">
                <path d="M6,0 C9.3137085,0 12,2.6862915 12,6 C12,9.3137085 9.3137085,12 6,12 C2.6862915,12 0,9.3137085 0,6 C0,2.6862915 2.6862915,0 6,0 Z M6,7.8 C5.66862915,7.8 5.4,8.06862915 5.4,8.4 C5.4,8.73137085 5.66862915,9 6,9 C6.33137085,9 6.6,8.73137085 6.6,8.4 C6.6,8.06862915 6.33137085,7.8 6,7.8 Z M6,3 C5.95075268,3 5.90156745,3.00349549 5.85281509,3.01046011 C5.28379922,3.09174809 4.88841765,3.61892352 4.96970563,4.18793939 L5.32640754,6.68485281 C5.36863458,6.98044206 5.62178702,7.2 5.92037724,7.2 L6.07962276,7.2 C6.37821298,7.2 6.63136542,6.98044206 6.67359246,6.68485281 L7.03029437,4.18793939 C7.037259,4.13918703 7.04075448,4.09000181 7.04075448,4.04075448 C7.04075448,3.46596165 6.57479283,3 6,3 Z" id="形状结合"></path>
            </g>
        </g>
    </g>
</svg>