<?xml version="1.0" encoding="UTF-8"?>
<svg width="14px" height="14px" viewBox="0 0 14 14" version="1.1" xmlns="http://www.w3.org/2000/svg" xmlns:xlink="http://www.w3.org/1999/xlink">
    <title>Icon/基金</title>
    <g id="页面-1" stroke="none" stroke-width="1" fill="none" fill-rule="evenodd">
        <g id="个人-资产管理" transform="translate(-58, -232)" fill="#212634">
            <g id="Icon/基金" transform="translate(58, 232)">
                <g id="编组" transform="translate(0, 1.05)">
                    <polygon id="路径" fill-rule="nonzero" points="3.11881188 7.83168317 3.95049505 8.59405941 6.02970297 6.51485149 3.95049505 4.43564357 3.11881188 5.19801981 3.74257426 5.82178218 0 5.82178218 0 7.2079208 3.74257426 7.2079208"></polygon>
                    <path d="M11.019802,2.00990099 L11.019802,0 L0,0 L0,4.5049505 L1.38613861,4.5049505 L1.38613861,3.3960396 L12.6138614,3.3960396 L12.6138614,5.26732673 L9.14851486,5.26732673 L9.14851486,8.73267327 L12.6138614,8.73267327 L12.6138614,10.5346535 L1.38613861,10.5346535 L1.38613861,8.59405941 L0,8.59405941 L0,11.9207921 L14,11.9207921 L14,2.00990099 L11.019802,2.00990099 Z M1.38613861,2.00990099 L1.38613861,1.38613862 L9.63366337,1.38613862 L9.63366337,2.00990099 L1.38613861,2.00990099 Z M10.4653465,7.34653466 L10.4653465,6.65346535 L12.5445545,6.65346535 L12.5445545,7.34653466 L10.4653465,7.34653466 Z" id="形状" fill-rule="nonzero"></path>
                </g>
            </g>
        </g>
    </g>
</svg>