<?xml version="1.0" encoding="UTF-8"?>
<svg width="14px" height="14px" viewBox="0 0 14 14" version="1.1" xmlns="http://www.w3.org/2000/svg" xmlns:xlink="http://www.w3.org/1999/xlink">
    <title>Icon/基金备份</title>
    <g id="页面-1" stroke="none" stroke-width="1" fill="none" fill-rule="evenodd">
        <g id="个人-资产管理" transform="translate(-172, -232)" fill="#212634" fill-rule="nonzero">
            <g id="Icon/基金备份" transform="translate(172, 232)">
                <polygon id="路径" points="8.39728243 4.43737424 9.28566272 5.32575453 8.06338029 6.54803696 8.98671141 6.54803696 8.98671141 7.80389268 7.62792786 7.80389268 7.62792786 8.23604216 8.98671141 8.23604216 8.98671141 9.49189786 7.62792786 9.49189786 7.62792786 10.5214598 6.37207214 10.5214598 6.37207214 9.49189786 5.01328859 9.49189786 5.01328859 8.23604216 6.37207214 8.23604216 6.37207214 7.80389268 5.01328859 7.80389268 5.01328859 6.54803696 5.93661971 6.54803696 4.71433728 5.32575453 5.60271757 4.43737424 7 5.83465667"></polygon>
                <path d="M14,0 L14,5.24004781 L11.7902471,5.24004781 L11.7902471,14 L2.2097529,14 L2.2097529,5.24004781 L0,5.24004781 L0,0 L14,0 Z M10.5648286,2.99322079 L3.43517137,2.99322079 L3.43517137,12.7767913 L10.5648286,12.7767913 L10.5648286,2.99322079 Z M12.7745815,1.22541846 L1.22541846,1.22541846 L1.22541846,4.01462934 L2.2097529,4.01462934 L2.2097529,2.99322079 L1.76780231,2.99322079 L1.76780231,1.76780231 L12.2344074,1.76780231 L12.2344074,2.99322079 L11.7902471,2.99322079 L11.7902471,4.01462934 L12.7745815,4.01462934 L12.7745815,1.22541846 Z" id="形状"></path>
            </g>
        </g>
    </g>
</svg>