<?xml version="1.0" encoding="UTF-8"?>
<svg width="177px" height="14px" viewBox="0 0 177 14" version="1.1" xmlns="http://www.w3.org/2000/svg" xmlns:xlink="http://www.w3.org/1999/xlink">
    <title>编组备份 10</title>
    <defs>
        <linearGradient x1="8.10931417%" y1="49.5061267%" x2="84.6194205%" y2="50%" id="linearGradient-1">
            <stop stop-color="#1114F7" offset="0%"></stop>
            <stop stop-color="#1114F7" stop-opacity="0" offset="100%"></stop>
        </linearGradient>
        <linearGradient x1="8.10931417%" y1="49.5061267%" x2="84.6194205%" y2="50%" id="linearGradient-2">
            <stop stop-color="#4297FE" offset="0%"></stop>
            <stop stop-color="#4297FE" stop-opacity="0" offset="100%"></stop>
        </linearGradient>
        <linearGradient x1="100%" y1="-7.21644966e-14%" x2="56.5945725%" y2="-7.21644966e-14%" id="linearGradient-3">
            <stop stop-color="#1114F7" stop-opacity="0" offset="0%"></stop>
            <stop stop-color="#1114F7" offset="100%"></stop>
        </linearGradient>
        <linearGradient x1="100%" y1="-7.21644966e-14%" x2="56.5945725%" y2="-7.21644966e-14%" id="linearGradient-4">
            <stop stop-color="#4297FE" stop-opacity="0" offset="0%"></stop>
            <stop stop-color="#4297FE" offset="100%"></stop>
        </linearGradient>
    </defs>
    <g id="页面-1" stroke="none" stroke-width="1" fill="none" fill-rule="evenodd" opacity="0.246748992">
        <g id="我的团队" transform="translate(-24, -223)">
            <g id="编组备份-10" transform="translate(24, 223)">
                <path d="M117,4 L109,14 L105,14 L113,4 L117,4 Z M125,4 L117,14 L113,14 L121,4 L125,4 Z M141,4 L133,14 L129,14 L137,4 L141,4 Z M133,4 L125,14 L121,14 L129,4 L133,4 Z" id="形状结合" fill="url(#linearGradient-2)"></path>
                <polygon id="矩形-7" fill="url(#linearGradient-4)" points="6.98836822e-13 12 100 12 110 8.95283847e-13 177 2.98427949e-13 177 2 111 2 101 14 6.98836822e-13 14"></polygon>
            </g>
        </g>
    </g>
</svg>