<?xml version="1.0" encoding="UTF-8"?>
<svg width="16px" height="16px" viewBox="0 0 16 16" version="1.1" xmlns="http://www.w3.org/2000/svg" xmlns:xlink="http://www.w3.org/1999/xlink">
    <title>Icon/邀请好友</title>
    <g id="页面-1" stroke="none" stroke-width="1" fill="none" fill-rule="evenodd">
        <g id="我的团队" transform="translate(-265, -140)" fill="#0B5EC2" fill-rule="nonzero">
            <g id="Icon/邀请好友" transform="translate(265, 140)">
                <path d="M2.592,6.528 L7.456,9.44 C7.776,9.632 8.192,9.632 8.512,9.44 L13.44,6.496 C14.016,6.208 14.656,6.24 15.136,6.56 C15.616,6.88 15.904,7.424 15.904,8.096 L15.904,14.176 C15.936,15.168 15.104,16 14.08,16 L1.92,16 C0.896,16 0.064,15.168 0.064,14.144 L0.064,8.064 C0.064,7.392 0.416,6.816 0.928,6.496 C1.44,6.208 2.048,6.208 2.592,6.528 Z M1.76,7.712 C1.728,7.712 1.696,7.712 1.664,7.744 C1.568,7.808 1.504,7.936 1.504,8.096 L1.504,14.176 C1.504,14.4 1.696,14.592 1.92,14.592 L14.08,14.592 C14.304,14.592 14.496,14.4 14.496,14.176 L14.496,8.096 C14.496,7.936 14.464,7.808 14.4,7.776 C14.336,7.744 14.24,7.744 14.08,7.808 L9.248,10.72 C8.48,11.2 7.488,11.2 6.72,10.72 L1.888,7.744 C1.824,7.744 1.792,7.712 1.76,7.712 Z M8,3.072 C8.384,3.072 8.704,3.392 8.704,3.776 L8.704,4.384 L9.28,4.384 C9.664,4.384 9.984,4.704 9.984,5.088 C10.016,5.472 9.696,5.792 9.28,5.792 L8.704,5.792 L8.704,6.368 C8.704,6.752 8.384,7.072 8,7.072 C7.616,7.104 7.296,6.784 7.296,6.368 L7.296,5.792 L6.688,5.792 C6.304,5.792 5.984,5.472 5.984,5.088 C5.984,4.704 6.304,4.384 6.688,4.384 L7.296,4.384 L7.296,3.776 C7.296,3.392 7.616,3.072 8,3.072 Z M11.456,0 C12.544,0 13.44,0.864 13.44,1.952 L13.44,5.152 C13.44,5.568 13.12,5.888 12.736,5.888 C12.352,5.888 12.032,5.568 12.032,5.184 L12.032,1.984 C12.032,1.696 11.776,1.44 11.488,1.44 L4.512,1.44 C4.224,1.44 3.968,1.696 3.968,1.984 L3.968,5.184 C3.968,5.568 3.648,5.888 3.264,5.888 C2.88,5.888 2.56,5.568 2.56,5.184 L2.56,1.984 C2.56,0.864 3.424,0 4.512,0 L11.456,0 Z" id="形状结合"></path>
            </g>
        </g>
    </g>
</svg>