<?xml version="1.0" encoding="UTF-8"?>
<svg width="70px" height="59px" viewBox="0 0 70 59" version="1.1" xmlns="http://www.w3.org/2000/svg" xmlns:xlink="http://www.w3.org/1999/xlink">
    <title>形状结合</title>
    <defs>
        <linearGradient x1="-3.68628739e-14%" y1="50%" x2="100%" y2="50%" id="linearGradient-1">
            <stop stop-color="#E89C7A" offset="0%"></stop>
            <stop stop-color="#BE5828" offset="100%"></stop>
        </linearGradient>
    </defs>
    <g id="页面-1" stroke="none" stroke-width="1" fill="none" fill-rule="evenodd">
        <g id="编组" transform="translate(-160, -174)" fill="url(#linearGradient-1)">
            <path d="M229.999554,174 C228.98831,178.099036 228.630168,182.311754 228.334702,186.522471 L228.21019,188.326605 C228.604384,200.345993 227.428231,212.73136 228.849918,224.658248 C229.165273,227.303589 229.646788,229.932411 230,232.571323 L219.999617,232.66034 L219.821047,232.66034 C219.075338,227.93537 218.602126,223.161383 218.392485,218.374717 L197.008693,218.374717 C196.999228,218.374717 196.874765,218.250254 196.874765,218.240789 L196.874765,210.517624 L218.3032,210.517624 L218.3032,190.874892 L197.008693,190.874892 C196.741819,190.874892 196.962621,189.956148 196.968246,189.763114 C197.024496,187.832501 196.991996,185.799032 196.968336,183.862526 C196.967621,183.804223 196.958557,183.745191 196.946683,183.68605 L196.90817,183.508913 C196.872308,183.332683 196.861015,183.161031 197.023871,183.010657 L218.708911,182.995657 L218.825339,182.870568 C219.097302,180.960848 219.290961,179.006932 219.687834,177.123998 C219.9081,176.079094 220.295865,175.056958 220.446043,174 L229.999554,174 Z M169.553511,174 C170.41663,176.935517 170.926984,179.972551 171.250375,183.017889 L193.124789,183.0178 L193.124789,190.874892 L171.696354,190.874892 L171.696354,210.517624 L193.124789,210.517624 L193.124789,218.374717 L171.696354,218.374717 C171.459838,223.131919 170.955109,227.864924 170.26806,232.571501 L160,232.571501 L160,232.48177 C160.117499,232.376413 160.122946,232.199361 160.15107,232.052398 C161.954963,222.609218 161.994313,213.008807 161.90357,203.398541 L161.881064,201.180679 L161.855885,198.696756 C161.824971,195.385153 161.810261,192.075234 161.878649,188.773031 C161.621508,184.762074 161.398205,180.710404 160.690085,176.747393 C160.526514,175.832399 160.254016,174.916066 160.089285,174 L169.553511,174 Z M214.999649,194.446298 L214.999649,205.606941 L208.928259,205.606941 L208.928259,202.303391 L211.338958,202.303391 L211.338958,197.705206 C211.338958,197.677974 211.451993,197.636635 211.428243,197.571278 L206.696131,197.571278 L206.696131,207.928355 L203.169368,207.928355 C203.159903,207.928355 203.03544,207.803892 203.03544,207.794427 L203.03544,194.446298 L214.999649,194.446298 Z M200.937239,194.446298 C201.17322,194.516119 200.982685,194.922724 200.977596,195.112276 C200.887596,198.500558 201.016346,201.912143 201.02706,205.299533 C201.058131,205.430157 200.859025,205.606941 200.758669,205.606941 L195.044419,205.606941 C194.946652,205.606941 194.916474,205.388996 194.905938,205.298997 C194.829064,204.643644 194.925313,203.751685 194.914599,203.058833 C194.910492,202.794906 194.770135,202.581425 194.910492,202.303391 L197.321191,202.303391 L197.321191,197.571278 L192.901576,197.571278 C192.872022,197.571278 192.766041,197.689581 192.678363,197.660563 L192.678363,207.928355 L189.106957,207.928355 L189.106957,194.446298 L200.937239,194.446298 Z M187.053399,194.446298 L187.053399,205.517656 L180.892724,205.517656 L180.892724,202.303391 L183.392708,202.303391 L183.392708,197.571278 L178.74988,197.571278 L178.74988,207.928355 L175.089189,207.928355 L175.089189,194.446298 L187.053399,194.446298 Z" id="形状结合"></path>
        </g>
    </g>
</svg>