<?xml version="1.0" encoding="UTF-8"?>
<svg width="32px" height="32px" viewBox="0 0 32 32" version="1.1" xmlns="http://www.w3.org/2000/svg" xmlns:xlink="http://www.w3.org/1999/xlink">
    <title>编组</title>
    <g id="页面-1" stroke="none" stroke-width="1" fill="none" fill-rule="evenodd">
        <g id="个人-已登录" transform="translate(-225, -435)">
            <g id="首页/金刚区备份-10" transform="translate(195, 423)">
                <g id="编组" transform="translate(30, 12)">
                    <rect id="矩形" stroke="#F3F1F0" stroke-width="0.5" fill-opacity="0.5" fill="#F2F4F5" x="0.25" y="0.25" width="31.5" height="31.5" rx="11"></rect>
                    <g id="Icon/公告" transform="translate(8, 8)" fill="#1E0D00" fill-rule="nonzero">
                        <path d="M12,0 C14.209139,0 16,1.790861 16,4 L16,12 C16,14.209139 14.209139,16 12,16 L4,16 C1.790861,16 0,14.209139 0,12 L0,4 C0,1.790861 1.790861,0 4,0 L12,0 Z M12,1.6 L4,1.6 C2.6745166,1.6 1.6,2.6745166 1.6,4 L1.6,12 C1.6,13.3254834 2.6745166,14.4 4,14.4 L12,14.4 C13.3254834,14.4 14.4,13.3254834 14.4,12 L14.4,4 C14.4,2.6745166 13.3254834,1.6 12,1.6 Z M12.7010717,4.90710118 C13.0395664,5.19106098 13.0837756,5.69566002 12.7998159,6.03415469 L9.8891332,9.50383803 C9.66420369,9.77196556 9.29109818,9.86276107 8.96811761,9.72796788 L6.4813459,8.6896 L4.58209321,10.8242126 C4.3109205,11.128843 3.85918661,11.1773125 3.53172693,10.9519085 L3.45262747,10.8898415 C3.1226112,10.596071 3.09322815,10.090392 3.38699859,9.76037574 L5.66583267,7.20037575 C5.89278321,6.94542371 6.25649719,6.86254725 6.57149675,6.99400964 L9.0413459,8.0248 L11.5740182,5.00584531 C11.857978,4.66735064 12.3625771,4.62314139 12.7010717,4.90710118 Z" id="形状结合"></path>
                    </g>
                </g>
            </g>
        </g>
    </g>
</svg>