<?xml version="1.0" encoding="UTF-8"?>
<svg width="14px" height="14px" viewBox="0 0 14 14" version="1.1" xmlns="http://www.w3.org/2000/svg" xmlns:xlink="http://www.w3.org/1999/xlink">
    <title>Icon/认证备份 2</title>
    <g id="页面-1" stroke="none" stroke-width="1" fill="none" fill-rule="evenodd">
        <g id="个人-已登录" transform="translate(-146, -97)" fill="#BE5828" fill-rule="nonzero">
            <g id="Icon/认证备份-2" transform="translate(146, 97)">
                <path d="M3.684687,13.7511927 C3.34353342,13.7511927 3.01112737,13.6462223 2.73120648,13.4362817 C2.22384986,13.0688855 1.9789191,12.4565586 2.08388942,11.8442316 L2.48627571,9.48239915 C2.53876087,9.17623568 2.43379054,8.8700722 2.21510234,8.66013154 L0.491839376,6.98060622 C0.045715462,6.54322984 -0.111740043,5.90466032 0.0807055742,5.30982843 C0.273151191,4.71499654 0.780507785,4.28636768 1.40158226,4.19889242 L3.77216228,3.85773882 C4.07832575,3.81400118 4.34075159,3.62155558 4.47196449,3.35038223 L5.53041534,1.19849041 C5.81033623,0.629901106 6.370178,0.28 7,0.28 C7.629822,0.28 8.18966377,0.629901106 8.46083714,1.18974288 L9.52803551,3.3416347 C9.66799596,3.61280806 9.93042178,3.80525367 10.2278377,3.8489913 L12.5984177,4.19014489 C13.2194922,4.27762017 13.7268488,4.70624903 13.9192944,5.3010809 C14.11174,5.8959128 13.9542845,6.53448231 13.5081606,6.9718587 L11.7936452,8.64263649 C11.574957,8.85257716 11.4699867,9.16748816 11.5224718,9.46490409 L11.9248581,11.8267366 C12.0298284,12.4478111 11.7848977,13.0513905 11.2775411,13.4187866 C10.7701844,13.7861828 10.1141199,13.8299204 9.56302562,13.541252 L7.43737639,12.447811 C7.16620303,12.3078506 6.84254449,12.3078506 6.57137114,12.447811 L4.44572191,13.5674946 C4.20079114,13.68996 3.9383653,13.7511927 3.684687,13.7511927 Z" id="路径"></path>
            </g>
        </g>
    </g>
</svg>