<?xml version="1.0" encoding="UTF-8"?>
<svg width="32px" height="32px" viewBox="0 0 32 32" version="1.1" xmlns="http://www.w3.org/2000/svg" xmlns:xlink="http://www.w3.org/1999/xlink">
    <title>编组</title>
    <g id="页面-1" stroke="none" stroke-width="1" fill="none" fill-rule="evenodd">
        <g id="个人-已登录" transform="translate(-225, -511)">
            <g id="首页/金刚区备份-13" transform="translate(195, 499)">
                <g id="编组" transform="translate(30, 12)">
                    <rect id="矩形" stroke="#F3F1F0" stroke-width="0.5" fill-opacity="0.5" fill="#F2F4F5" x="0.25" y="0.25" width="31.5" height="31.5" rx="11"></rect>
                    <g id="Icon/公告" transform="translate(8, 8)" fill="#1E0D00" fill-rule="nonzero">
                        <path d="M12.6350129,0.799999606 C13.2141865,0.799999606 13.7429649,1.12927657 13.9986472,1.64890028 L15.8441851,5.39938218 C16.1207616,5.96223343 16.0232649,6.63716428 15.6268578,7.06643318 L9.11897699,14.9483192 C8.83113434,15.2614877 8.42523888,15.439718 7.99988268,15.439718 C7.57452647,15.439718 7.16863101,15.2614877 6.85283799,14.9162375 L0.400798329,7.09845002 C-0.0235054201,6.63671182 -0.120697895,5.96179759 0.156110672,5.39903549 L2.000695,1.64976151 C2.25610204,1.12915081 2.78580994,0.799572955 3.36570161,0.799999606 L12.6350129,0.799999606 Z M12.5848,2.3999998 L3.4136,2.3999998 L1.6144,6.0567998 L7.9992,13.7927998 L14.3848,6.0583998 L12.5848,2.3999998 Z M10.2842382,6.907152 C10.5516855,7.15020382 10.5939775,7.54851884 10.3985874,7.83996193 L10.3328274,7.92392656 L8.53249695,9.90411983 C8.3960408,10.0542485 8.20257922,10.1398403 7.99970268,10.1398403 C7.79682614,10.1398403 7.60336456,10.0542485 7.46690841,9.90411983 L5.66699834,7.92407691 C5.42389201,7.6566408 5.41972161,7.25607713 5.64199408,6.98454327 L5.71552721,6.907152 C6.00979184,6.63972907 6.46512237,6.66146046 6.73258111,6.95569256 L7.99970268,8.34965651 L9.26712975,6.95564302 C9.5346266,6.66142947 9.9899647,6.63972106 10.2842382,6.907152 Z" id="形状结合"></path>
                    </g>
                </g>
            </g>
        </g>
    </g>
</svg>