<?xml version="1.0" encoding="UTF-8"?>
<svg width="10px" height="10px" viewBox="0 0 10 10" version="1.1" xmlns="http://www.w3.org/2000/svg" xmlns:xlink="http://www.w3.org/1999/xlink">
    <title>Icon/认证备份</title>
    <g id="页面-1" stroke="none" stroke-width="1" fill="none" fill-rule="evenodd">
        <g id="个人-已登录" transform="translate(-89, -124)" fill="#FFFFFF" fill-rule="nonzero">
            <g id="Icon/认证备份" transform="translate(89, 124)">
                <path d="M5,1.0658141e-14 L5.25655643,0.107248363 L5.33061713,0.161961584 L5.41534678,0.222089901 L5.55967402,0.321014434 L5.66678907,0.391386442 L5.78228197,0.464662517 L5.90563323,0.540129592 L6.03722359,0.617148871 L6.17635866,0.695226642 L6.24791923,0.734015116 L6.39702376,0.811752045 L6.55456022,0.889225151 C7.21544445,1.20594649 8.04198562,1.48456563 8.93098555,1.50513189 L9.13752473,1.50788575 L9.13752473,4.93942324 C9.11112663,6.91296549 8.17559455,8.14857803 7.1987295,8.90399344 L7.07228144,8.99866219 L7.00798105,9.04498812 L6.88132727,9.13204757 L6.75604316,9.21389635 C6.71407233,9.24049758 6.6721026,9.26621392 6.62967274,9.29166303 L6.50595117,9.36381348 L6.38400816,9.43185314 L6.2645555,9.49465513 L6.14815986,9.55298307 L6.09028398,9.58071274 L5.92404183,9.65701972 L5.81788409,9.70253734 L5.66775735,9.76344919 L5.57328998,9.79955931 L5.44218637,9.84687807 L5.32537986,9.88579683 L5.23569299,9.91390161 L5.15788311,9.93683567 L5.06700711,9.96161222 L4.96896008,9.98564709 L4.8209588,9.94997626 L4.67744005,9.90939945 L4.56917811,9.87565822 L4.44639281,9.8347153 L4.35641113,9.80302847 L4.26053376,9.76738416 L4.10904337,9.70735631 L4.00199881,9.66251831 L3.94644683,9.63814923 L3.83342303,9.58678248 L3.71689706,9.53115379 L3.59769812,9.47094215 L3.47629097,9.40655066 L3.41385934,9.37217703 L3.29024658,9.30099036 C3.22617336,9.26315618 3.16280977,9.22413288 3.09905963,9.18320513 L2.9716129,9.09888954 L2.84366003,9.00931172 L2.71647017,8.91529761 C1.75575885,8.18030452 0.840638131,6.98169723 0.801167042,5.0686708 L0.8,4.94188092 L0.8,1.50668954 C1.74830107,1.52687639 2.61891714,1.2531436 3.31025985,0.929205318 L3.46804725,0.852924588 L3.61970822,0.775087143 L3.69196526,0.736701411 L3.83259233,0.658664412 L3.96567572,0.581074576 L4.09128679,0.504814484 L4.20888769,0.430070317 L4.31789271,0.358375292 L4.41849801,0.289604063 L4.55301466,0.194125992 L5,1.0658141e-14 Z M6.69656211,3.22968911 C6.55970455,3.22900967 6.4225852,3.28053287 6.31764285,3.38442811 L4.19144734,5.48940854 L3.57084872,4.87429387 C3.46431997,4.79113908 3.33357048,4.75389381 3.20536191,4.76270128 C3.08094643,4.77124818 2.95894411,4.82308921 2.86387754,4.91824546 C2.75948993,5.02273155 2.70736894,5.15963367 2.70736894,5.29651863 C2.70736894,5.43340358 2.75966995,5.57027137 2.86412625,5.6746888 L4.18787019,6.99794019 L7.07010288,4.14469083 C7.17507044,4.04077881 7.22798556,3.90415817 7.22868147,3.76726328 C7.22936365,3.63038633 7.17784021,3.49323314 7.07392269,3.38823213 C6.97001547,3.28327768 6.83341968,3.23038207 6.69656211,3.22968911 Z" id="形状结合"></path>
            </g>
        </g>
    </g>
</svg>