<?xml version="1.0" encoding="UTF-8"?>
<svg width="32px" height="32px" viewBox="0 0 32 32" version="1.1" xmlns="http://www.w3.org/2000/svg" xmlns:xlink="http://www.w3.org/1999/xlink">
    <title>编组</title>
    <g id="页面-1" stroke="none" stroke-width="1" fill="none" fill-rule="evenodd">
        <g id="个人-已登录" transform="translate(-42, -511)">
            <g id="首页/金刚区备份-6" transform="translate(12, 499)">
                <g id="编组" transform="translate(30, 12)">
                    <rect id="矩形" stroke="#F3F1F0" stroke-width="0.5" fill-opacity="0.5" fill="#F2F4F5" x="0.25" y="0.25" width="31.5" height="31.5" rx="11"></rect>
                    <g id="Icon/公告" transform="translate(8, 8)" fill="#1E0D00" fill-rule="nonzero">
                        <path d="M12.8,0 C14.5673112,0 16,1.4326888 16,3.2 C16,4.69072934 14.9806498,5.94337669 13.6009502,6.29894129 L13.6,12.3764706 C13.6,14.3725841 12.0190817,16 10.0571429,16 L5.94285714,16 C3.98091828,16 2.4,14.3725841 2.4,12.3764706 L2.3990498,6.29894129 C1.01935018,5.94337669 0,4.69072934 0,3.2 C0,1.4326888 1.4326888,0 3.2,0 L12.8,0 Z M11.4285714,4 L4.57142857,4 C4.26111018,4 4,4.26878989 4,4.61176471 L4,12.3764706 C4,13.4991415 4.87511967,14.4 5.94285714,14.4 L10.0571429,14.4 C11.1248803,14.4 12,13.4991415 12,12.3764706 L12,4.61176471 C12,4.26878989 11.7388898,4 11.4285714,4 Z M8.88518795,5.76640151 C9.01773629,5.53682105 9.31129969,5.45816097 9.54088015,5.59070931 C9.77046061,5.72325765 9.84912068,6.01682105 9.71657234,6.24640151 L9.27536,7.0100998 L9.92,7.01052854 C10.1850967,7.01052854 10.4,7.22543186 10.4,7.49052854 C10.4,7.75562522 10.1850967,7.97052854 9.92,7.97052854 L8.48,7.9700998 L8.48,8.4500998 L9.92,8.45052854 C10.1850967,8.45052854 10.4,8.66543186 10.4,8.93052854 C10.4,9.19562522 10.1850967,9.41052854 9.92,9.41052854 L8.48,9.4100998 L8.48,10.8505285 C8.48,11.1156252 8.26509668,11.3305285 8,11.3305285 C7.73490332,11.3305285 7.52,11.1156252 7.52,10.8505285 L7.52,9.4100998 L6.08,9.41052854 C5.81490332,9.41052854 5.6,9.19562522 5.6,8.93052854 C5.6,8.66543186 5.81490332,8.45052854 6.08,8.45052854 L7.52,8.4500998 L7.52,7.9700998 L6.08,7.97052854 C5.81490332,7.97052854 5.6,7.75562522 5.6,7.49052854 C5.6,7.22543186 5.81490332,7.01052854 6.08,7.01052854 L6.68624,7.0100998 L6.24518795,6.24640151 C6.12210735,6.03321965 6.18114013,5.76486884 6.37401631,5.62149505 L6.42088015,5.59070931 C6.65046061,5.45816097 6.944024,5.53682105 7.07657234,5.76640151 L7.79456,7.0100998 L8.16704,7.0100998 Z M12.8,1.6 L3.2,1.6 C2.3163444,1.6 1.6,2.3163444 1.6,3.2 C1.6,3.79232288 1.92186431,4.30947032 2.40023499,4.5860844 L2.4,4.61176471 C2.4,3.39534728 3.36690879,2.4 4.57142857,2.4 L11.4285714,2.4 C12.6244184,2.4 13.5860638,3.38106544 13.5998499,4.58552395 C14.0781357,4.30947032 14.4,3.79232288 14.4,3.2 C14.4,2.3163444 13.6836556,1.6 12.8,1.6 Z" id="形状结合"></path>
                    </g>
                </g>
            </g>
        </g>
    </g>
</svg>