<?xml version="1.0" encoding="UTF-8"?>
<svg width="32px" height="32px" viewBox="0 0 32 32" version="1.1" xmlns="http://www.w3.org/2000/svg" xmlns:xlink="http://www.w3.org/1999/xlink">
    <title>编组</title>
    <g id="页面-1" stroke="none" stroke-width="1" fill="none" fill-rule="evenodd">
        <g id="个人-已登录" transform="translate(-134, -511)">
            <g id="首页/金刚区备份-7" transform="translate(104, 499)">
                <g id="编组" transform="translate(30, 12)">
                    <rect id="矩形" stroke="#F3F1F0" stroke-width="0.5" fill-opacity="0.5" fill="#F2F4F5" x="0.25" y="0.25" width="31.5" height="31.5" rx="11"></rect>
                    <g id="Icon/公告" transform="translate(8, 8)" fill="#1E0D00" fill-rule="nonzero">
                        <path d="M9.6122423,0.342813405 L9.78131333,0.433873215 L13.904916,2.81463633 C14.9069033,3.39313395 15.5241529,4.46224164 15.5241529,5.61923688 L15.5241529,10.3807631 C15.5241529,11.5377584 14.9069033,12.606866 13.904916,13.1853637 L9.78131333,15.5661268 C8.77932606,16.1446244 7.54482683,16.1446244 6.54283956,15.5661268 L2.41923688,13.1853637 C1.41724961,12.606866 0.8,11.5377584 0.8,10.3807631 L0.8,5.61923688 C0.8,4.46224164 1.41724961,3.39313395 2.41923688,2.81463633 L6.54283956,0.433873215 C7.48916087,-0.112485648 8.64287711,-0.142838919 9.6122423,0.342813405 Z M7.34283956,1.81951386 L3.21923688,4.20027698 C2.71229134,4.49296213 2.4,5.03386659 2.4,5.61923688 L2.4,10.3807631 C2.4,10.9661334 2.71229134,11.5070379 3.21923688,11.799723 L7.34283956,14.1804861 C7.84978511,14.4731713 8.47436778,14.4731713 8.98131333,14.1804861 L13.104916,11.799723 C13.6118616,11.5070379 13.9241529,10.9661334 13.9241529,10.3807631 L13.9241529,5.61923688 C13.9241529,5.03386659 13.6118616,4.49296213 13.104916,4.20027698 L8.9952,1.8272 L8.89555594,1.77332403 C8.40404456,1.52707665 7.82028699,1.54385946 7.34283956,1.81951386 Z M12,8.8 C12.4418278,8.8 12.8,9.1581722 12.8,9.6 C12.8,10.0418278 12.4418278,10.4 12,10.4 L8,10.401 L8,12 L4,8.8 L12,8.8 Z M8.8,4 L12.8,7.2 L4.8,7.2 C4.3581722,7.2 4,6.8418278 4,6.4 C4,5.9581722 4.3581722,5.6 4.8,5.6 L8.8,5.6 L8.8,4 Z" id="形状结合"></path>
                    </g>
                </g>
            </g>
        </g>
    </g>
</svg>