<?xml version="1.0" encoding="UTF-8"?>
<svg width="12px" height="12px" viewBox="0 0 12 12" version="1.1" xmlns="http://www.w3.org/2000/svg" xmlns:xlink="http://www.w3.org/1999/xlink">
    <title>Icon/复制</title>
    <g id="页面-1" stroke="none" stroke-width="1" fill="none" fill-rule="evenodd">
        <g id="个人-已登录" transform="translate(-232, -123)" fill="#676563" fill-rule="nonzero">
            <g id="Icon/复制" transform="translate(232, 123)">
                <path d="M7.2,0 C8.85685425,0 10.2,1.34314575 10.2,3 L10.2005395,3.6757494 C11.2354021,3.94236265 12,4.88189062 12,6 L12,9.6 C12,10.9254834 10.9254834,12 9.6,12 L6,12 C4.88189062,12 3.94236265,11.2354021 3.6757494,10.2005395 L3,10.2 C1.34314575,10.2 0,8.85685425 0,7.2 L0,3 C0,1.34314575 1.34314575,0 3,0 L7.2,0 Z M10.2011508,4.96120519 L10.2,7.2 C10.2,8.85685425 8.85685425,10.2 7.2,10.2 L4.96147602,10.2016176 C5.16919092,10.5594062 5.55649861,10.8 6,10.8 L9.6,10.8 C10.2627417,10.8 10.8,10.2627417 10.8,9.6 L10.8,6 C10.8,5.55630578 10.5591969,5.16885414 10.2011508,4.96120519 Z M7.2,1.2 L3,1.2 C2.00588745,1.2 1.2,2.00588745 1.2,3 L1.2,7.2 C1.2,8.19411255 2.00588745,9 3,9 L7.2,9 C8.19411255,9 9,8.19411255 9,7.2 L9,3 C9,2.00588745 8.19411255,1.2 7.2,1.2 Z M5.1,2.4 C5.43137085,2.4 5.7,2.66862915 5.7,3 L5.7,4.5 L7.2,4.5 C7.53137085,4.5 7.8,4.76862915 7.8,5.1 C7.8,5.43137085 7.53137085,5.7 7.2,5.7 L5.7,5.7 L5.7,7.2 C5.7,7.53137085 5.43137085,7.8 5.1,7.8 C4.76862915,7.8 4.5,7.53137085 4.5,7.2 L4.5,5.7 L3,5.7 C2.66862915,5.7 2.4,5.43137085 2.4,5.1 C2.4,4.76862915 2.66862915,4.5 3,4.5 L4.5,4.5 L4.5,3 C4.5,2.66862915 4.76862915,2.4 5.1,2.4 Z" id="形状结合"></path>
            </g>
        </g>
    </g>
</svg>