<?xml version="1.0" encoding="UTF-8"?>
<svg width="16px" height="17px" viewBox="0 0 16 17" version="1.1" xmlns="http://www.w3.org/2000/svg" xmlns:xlink="http://www.w3.org/1999/xlink">
    <title>Icon/播放</title>
    <g id="页面-1" stroke="none" stroke-width="1" fill="none" fill-rule="evenodd">
        <g id="我的团队" transform="translate(-24, -320)" fill="#7B8189" fill-rule="nonzero">
            <g id="Icon/播放" transform="translate(24, 320)">
                <path d="M13.71793,12.6039289 L15.7638815,14.6498803 C16.0763009,14.9622997 16.0763009,15.4688317 15.7638815,15.7812511 C15.451462,16.0936706 14.9449301,16.0936706 14.6325106,15.7812511 L12.5865592,13.7352997 C12.2741398,13.4228803 12.2741398,12.9163483 12.5865592,12.6039289 C12.8989786,12.2915094 13.4055106,12.2915094 13.71793,12.6039289 Z M7.2,0 C11.1764502,0 14.4,3.2235498 14.4,7.2 C14.4,11.1764502 11.1764502,14.4 7.2,14.4 C3.2235498,14.4 0,11.1764502 0,7.2 C0,3.2235498 3.2235498,0 7.2,0 Z M7.2,1.6 C4.1072054,1.6 1.6,4.1072054 1.6,7.2 C1.6,10.2927946 4.1072054,12.8 7.2,12.8 C10.2927946,12.8 12.8,10.2927946 12.8,7.2 C12.8,4.1072054 10.2927946,1.6 7.2,1.6 Z" id="形状结合"></path>
            </g>
        </g>
    </g>
</svg>