<?xml version="1.0" encoding="UTF-8"?>
<svg width="286px" height="47px" viewBox="0 0 286 47" version="1.1" xmlns="http://www.w3.org/2000/svg" xmlns:xlink="http://www.w3.org/1999/xlink">
    <title>编组</title>
    <g id="页面-1" stroke="none" stroke-width="1" fill="none" fill-rule="evenodd">
        <g id="基金" transform="translate(-52, -437)">
            <g id="编组" transform="translate(53, 437)">
                <path d="M96,3 L278,3 L282,7 L282,39 L278,43 L86,43 L86,43 L96,3 Z" id="矩形-4" fill="#4297FE"></path>
                <path d="M6,3 L96,3 L96,3 L86,43 L6,43 L2,39 L2,7 L6,3 Z" id="矩形-4" fill="#4297FE" opacity="0.200000003"></path>
                <g id="编组备份-8" transform="translate(0, 7)">
                    <path d="M5,-6 L279,-6 L284,-1 L284,33 L279,38 L255,38 L255,38 L254,39 L245,39 L244,38 L5,38 L0,33 L0,-1 L5,-6 Z" id="矩形" stroke="#4297FE" stroke-width="0.5"></path>
                    <polygon id="矩形-6" fill="#4297FE" points="245 37 247 37 248 38 246 38"></polygon>
                    <polygon id="矩形-6备份" fill="#4297FE" points="248 37 250 37 251 38 249 38"></polygon>
                    <polygon id="矩形-6备份-2" fill="#4297FE" points="251 37 253 37 254 38 252 38"></polygon>
                    <polygon id="矩形-5" fill="#4297FE" points="11 -7 17 -7 16 -5 10 -5"></polygon>
                    <polygon id="矩形-5备份" fill="#4297FE" points="18 -7 24 -7 23 -5 17 -5"></polygon>
                    <polygon id="矩形-5备份-2" fill="#4297FE" points="25 -7 31 -7 30 -5 24 -5"></polygon>
                    <polygon id="矩形-5备份-5" fill="#4297FE" transform="translate(260.5, 38) scale(1, -1) translate(-260.5, -38)" points="258 37 264 37 263 39 257 39"></polygon>
                    <polygon id="矩形-5备份-4" fill="#4297FE" transform="translate(267.5, 38) scale(1, -1) translate(-267.5, -38)" points="265 37 271 37 270 39 264 39"></polygon>
                    <polygon id="矩形-5备份-3" fill="#4297FE" transform="translate(274.5, 38) scale(1, -1) translate(-274.5, -38)" points="272 37 278 37 277 39 271 39"></polygon>
                    <path d="M283.027048,0.0455550499 L283.027048,32.2571508 L278.385586,37 L278.385586,37.8193568" id="路径" stroke="#4297FE" stroke-width="0.5" stroke-dasharray="2,2"></path>
                    <path d="M5.53528813,-6 L5.53528813,25.6949341 L1.20621607,30 L1,31" id="路径备份" stroke="#4297FE" stroke-width="0.5" stroke-dasharray="2,2" transform="translate(3.2676, 12.5) scale(-1, -1) translate(-3.2676, -12.5)"></path>
                </g>
            </g>
        </g>
    </g>
</svg>