<?xml version="1.0" encoding="UTF-8"?>
<svg width="366px" height="238px" viewBox="0 0 366 238" version="1.1" xmlns="http://www.w3.org/2000/svg" xmlns:xlink="http://www.w3.org/1999/xlink">
    <title>编组备份 7</title>
    <g id="页面-1" stroke="none" stroke-width="1" fill="none" fill-rule="evenodd">
        <g id="基金" transform="translate(-12, -260)">
            <g id="编组备份-7" transform="translate(12, 369)">
                <path d="M0,121 L0,90 L4,87 L4,120 L9,125 L42,125 L39,129 L8,129 L0,121 Z" id="形状结合" fill="#4297FE"></path>
                <path d="M-110,32 L-110,1 L-106,-2 L-106,31 L-101,36 L-68,36 L-71,40 L-102,40 L-110,32 Z" id="形状结合备份" fill="#4297FE" transform="translate(19.5, 20.5) rotate(90) translate(-19.5, -20.5)"></path>
                <path d="M357.792893,-108.5 L365.5,-100.792893 L365.5,120.792893 L357.792893,128.5 L155.207107,128.5 L152.207107,125.5 L109.792893,125.5 L106.792893,128.5 L8.20710678,128.5 L0.5,120.792893 L0.5,-97.7928932 L8.20710678,-105.5 L268.207107,-105.5 L271.207107,-108.5 L357.792893,-108.5 Z" id="蒙版" stroke="#4297FE"></path>
                <polygon id="矩形" fill="#4297FE" points="44 125 50 125 47 129 41 129"></polygon>
                <polygon id="矩形备份" fill="#4297FE" points="52 125 56 125 53 129 49 129"></polygon>
                <polygon id="矩形备份-2" fill="#4297FE" points="58 125 61 125 58 129 55 129"></polygon>
                <polygon id="矩形-5" fill="#4297FE" points="110 127 152 127 154.046997 129 108.14663 129"></polygon>
                <rect id="矩形-6" fill="#4297FE" x="286" y="-109" width="33" height="4"></rect>
                <polygon id="矩形-6备份" fill="#4297FE" points="84 -109 117 -109 120 -105 81 -105"></polygon>
                <path d="M269,-109 L267,-107 L265,-107 L267,-109 L269,-109 Z M265,-109 L263,-107 L261,-107 L263,-109 L265,-109 Z M261,-109 L259,-107 L257,-107 L259,-109 L261,-109 Z M257,-109 L255,-107 L253,-107 L255,-109 L257,-109 Z M253,-109 L251,-107 L249,-107 L251,-109 L253,-109 Z M249,-109 L247,-107 L245,-107 L247,-109 L249,-109 Z M245,-109 L243,-107 L241,-107 L243,-109 L245,-109 Z M241,-109 L239,-107 L237,-107 L239,-109 L241,-109 Z" id="形状结合" fill="#4297FE"></path>
                <path d="M49,-109 L51,-109 L51,-107 L49,-107 L49,-109 Z M55,-109 L57,-109 L57,-107 L55,-107 L55,-109 Z M61,-109 L63,-109 L63,-107 L61,-107 L61,-109 Z M67,-109 L69,-109 L69,-107 L67,-107 L67,-109 Z M73,-109 L75,-109 L75,-107 L73,-107 L73,-109 Z" id="形状结合" fill="#4297FE"></path>
                <rect id="矩形" fill="#4297FE" x="290" y="126" width="65" height="1"></rect>
                <polygon id="矩形-5" fill="#4297FE" points="362 -99 363 -99 363 59 362 59"></polygon>
            </g>
        </g>
    </g>
</svg>