<?xml version="1.0" encoding="UTF-8"?>
<svg width="20px" height="20px" viewBox="0 0 20 20" version="1.1" xmlns="http://www.w3.org/2000/svg" xmlns:xlink="http://www.w3.org/1999/xlink">
    <title>形状结合备份 2@2x</title>
    <g id="页面-1" stroke="none" stroke-width="1" fill="none" fill-rule="evenodd">
        <g id="首页备份" transform="translate(-60, -210)" fill="#D0FBFF">
            <g id="编组" transform="translate(45, 203)">
                <path d="M20.2995123,21.5346032 C20.0959838,21.5451759 20.1087376,21.8470259 20.3145435,21.8384167 C20.518072,21.8298831 20.4767742,21.5253898 20.2995123,21.5346032 L20.2995123,21.5346032 Z M19.1898608,20.4823948 C19.0479754,20.5140373 19.0571611,20.7351574 19.1899367,20.7645343 C19.457993,20.8238924 19.4572339,20.4228102 19.1898608,20.4823948 L19.1898608,20.4823948 Z M20.2281521,19.7205575 C20.0458799,19.7533328 20.0855076,20.0449878 20.2768137,20.0255794 C20.4817087,20.0048116 20.4329711,19.6837042 20.2281521,19.7205575 L20.2281521,19.7205575 Z M21.0837157,14.7411265 C20.9434245,14.6015671 20.7034568,14.8229892 20.8691795,14.9635304 C21.0263998,15.0968972 21.21224,14.8689049 21.0837157,14.7411265 L21.0837157,14.7411265 Z M19.8825105,13.6341667 C19.696898,13.6644499 19.7250625,13.9439463 19.912421,13.9382068 C20.1168605,13.9319387 20.0917326,13.6001075 19.8825105,13.6341667 L19.8825105,13.6341667 Z M21.0830325,12.5860363 C20.942969,12.4337142 20.7085431,12.6723547 20.8685722,12.8083647 C21.0122036,12.9304037 21.2139861,12.728541 21.0830325,12.5860363 L21.0830325,12.5860363 Z M24.5121951,27 C23.7405178,26.9644305 22.9777984,26.8249466 22.2360316,26.61961 L22.2360316,21.76471 L20.5971756,21.76471 C20.5919374,21.76471 20.5775136,21.8341877 20.5576997,21.8613746 C20.3434672,22.1552951 19.9080939,21.9309277 20.0085296,21.5867114 C20.0736648,21.3634012 20.3866629,21.3139362 20.5397078,21.486724 C20.5691629,21.520028 20.5907228,21.6016642 20.5971756,21.6016642 L22.2360316,21.6016642 L22.2360316,21.1488513 L20.8976477,21.1488513 C20.7339747,21.0105757 20.6125864,20.8211737 20.442005,20.6963405 L19.5404369,20.7044211 C19.4584485,20.9719855 19.0832759,21.0191849 18.9602934,20.75736 C18.8184839,20.45551 19.1838635,20.1744277 19.4411399,20.3876938 C19.4973171,20.4342136 19.5070342,20.4985559 19.5525074,20.5486251 L20.529687,20.5547421 L20.9522307,20.9858055 L22.2360316,20.9858055 L22.2360316,19.953232 L20.5698461,19.953232 C20.557396,19.953232 20.4920331,20.1026089 20.4132332,20.1414258 C20.0385161,20.3259191 19.7715225,19.8287765 20.0885442,19.6192863 C20.1633206,19.5698968 20.2429555,19.5600038 20.332004,19.5740504 C20.4783684,19.5970082 20.5532966,19.7901862 20.5698461,19.7901862 L22.2360316,19.7901862 L22.2360316,19.418783 L20.9158673,18.0692557 L17.4195957,18.0692557 C17.4135225,18.0692557 17.390672,18.0928932 17.3997059,18.1063356 C17.6629796,19.9087513 18.5788198,21.60106 19.959868,22.7882212 L19.959868,25.6232858 L19.5425625,25.3771689 C16.1771685,23.1817515 14.4462275,19.1927541 15.1582356,15.2218059 C15.6690685,12.3731478 17.4544407,9.82996473 19.959868,8.37758032 L19.959868,11.212645 C19.4676343,11.6491457 19.021481,12.1386608 18.6520779,12.683305 C18.5530087,12.8294346 18.4523452,12.9847775 18.375595,13.1419328 L19.2405721,13.1419328 L19.668278,12.6254573 L20.658515,12.614205 C20.7470321,12.4143058 20.9664268,12.3011781 21.1606177,12.4454952 C21.4307238,12.6461496 21.2088998,13.1121783 20.8468605,12.9750355 C20.7370113,12.9334244 20.6905512,12.7885032 20.6428006,12.7795164 L19.7542139,12.7833679 L19.3099585,13.3015803 L18.270073,13.3087546 L18.0660131,13.7034933 L19.6138468,13.7034933 C19.6209828,13.7034933 19.641404,13.6143807 19.6767805,13.5758659 C19.8414404,13.3962813 20.1817679,13.4825997 20.2131209,13.7322661 C20.2626935,14.1267781 19.7278713,14.2340153 19.6016245,13.8657839 L18.0205399,13.8664636 C17.9894147,13.8675209 17.9839488,13.885721 17.9708914,13.9076971 C17.905073,14.0184837 17.8501863,14.2129455 17.81109,14.3374766 L19.3133747,14.3374766 C19.4672547,14.4786974 19.6027632,14.6498238 19.7690173,14.7718628 L20.6430283,14.772618 C20.6922972,14.7629515 20.7048232,14.6776904 20.7430086,14.636608 C20.8940797,14.4739397 21.1846069,14.5274828 21.2583205,14.739314 C21.3622483,15.0380678 21.0209339,15.2867524 20.7789164,15.0896474 C20.7254722,15.0461483 20.6854649,14.9432912 20.6428006,14.9352107 L19.699555,14.9315858 C19.5309475,14.7931592 19.3968054,14.6084393 19.2219729,14.482851 L17.749371,14.4812651 C17.5926822,14.9215417 17.4810869,15.3786592 17.4104859,15.841063 L20.9158673,15.841063 C21.3592117,15.3895339 21.8132602,14.9389867 22.235652,14.4729579 L22.2367907,7.38201129 C22.9671702,7.1877005 23.710759,7.05554198 24.4668738,7.00012198 C24.4822086,6.99822294 24.5121951,7.01899071 24.5121951,7.02805301 L24.5121951,15.5421582 L23.0011802,16.9733217 L24.5121951,18.3319113 L24.5121951,27 Z M25.4976588,12.3658537 L28.8232682,15.6742718 L28.8232682,18.5328658 C28.4842847,18.8757597 28.1086868,19.1825123 27.7651266,19.5216726 L27.7651266,24.2593878 C30.3525953,23.3275558 32.3197197,20.9253571 32.6817373,18.19953 L32.7053716,18.1692878 L35,18.1692878 C34.827282,19.8460478 34.2046869,21.4612035 33.2329043,22.8321069 C31.4778883,25.3080069 28.5647914,26.9215197 25.4974337,27 L25.4962333,24.7864975 L25.5347234,24.6457408 L25.5333729,18.4826116 L25.5517551,18.447217 L27.0089038,17.1214901 C26.6933296,16.826685 26.3910356,16.5187376 26.0828892,16.2164653 C25.9967553,16.1319366 25.5630096,15.7573071 25.5377246,15.6842779 C25.5272955,15.6541104 25.5173916,15.5648773 25.5147656,15.5279894 C25.452491,14.6583591 25.520993,13.6769449 25.4967585,12.7875265 C25.492932,12.6472178 25.5009601,12.5059384 25.4976588,12.3658537 Z M25.4878049,7 C27.3935548,7.06087363 29.2645399,7.70796866 30.8182009,8.8036182 C33.1156207,10.4237816 34.7106685,13.0416509 35,15.8739804 L32.6896375,15.8739804 C32.5038483,14.7239767 32.0884752,13.5980041 31.4080759,12.6553346 L31.4080759,20.2655239 C30.7773409,21.0811396 30.0007737,21.7860001 29.1518925,22.3658537 L29.1518925,10.4823052 C28.1306917,9.8256584 26.9267868,9.42402889 25.7132501,9.32775304 C25.6720891,9.32449331 25.4878049,9.34314202 25.4878049,9.30031063 L25.4878049,7 Z" id="形状结合备份-2"></path>
            </g>
        </g>
    </g>
</svg>