<?xml version="1.0" encoding="UTF-8"?>
<svg width="51px" height="16px" viewBox="0 0 51 16" version="1.1" xmlns="http://www.w3.org/2000/svg" xmlns:xlink="http://www.w3.org/1999/xlink">
    <title>形状结合备份@2x</title>
    <g id="页面-1" stroke="none" stroke-width="1" fill="none" fill-rule="evenodd">
        <g id="首页备份" transform="translate(-84, -212)" fill="#D0FBFF">
            <g id="编组" transform="translate(45, 203)">
                <path d="M59.1687797,9 L60.7770435,9.16290479 L60.5102812,10.645863 L61.4828173,10.645863 L61.1799833,10.5305786 L61.650872,9.06470454 L63.3273643,9.48454421 L62.7236537,10.645863 L63.6963296,10.645863 L63.6963296,11.9688758 L60.0743456,11.9688758 L59.9067104,12.452882 L63.9980451,12.452882 L63.9980451,13.8081798 L63.159729,13.8081798 C63.4814377,14.1334513 63.9169538,14.3385957 64.3333156,14.5340545 C63.9306555,14.894436 63.5857379,15.3062044 63.2736763,15.7416485 C62.8402574,15.5627357 62.4778632,15.2584495 62.1203625,14.9699022 L61.8517826,16.228345 L63.4949995,16.228345 C63.4629825,16.8223892 63.431245,17.426388 63.3606397,18.0189524 C63.310447,18.4393302 63.250747,18.8839217 63.143371,19.2942104 C62.8630468,20.364593 62.2754146,20.5258836 61.1994172,20.5538639 C60.9118228,20.5612626 60.6277237,20.5432368 60.3425061,20.5200992 C60.3548096,20.1950967 60.2465947,19.8534137 60.1241189,19.5524905 C60.0799381,19.4439321 59.9714436,19.3063173 59.9406848,19.2124217 C59.9278221,19.1731416 59.9391469,19.1510802 59.9844461,19.1699131 C60.3585845,19.188477 60.7943803,19.2675753 61.1643243,19.2293713 C61.8439531,19.159286 61.7217569,17.9876091 61.8517826,17.5190729 L57.2572625,17.5190729 L57.623851,15.7261786 L59.1138334,15.8133481 C59.2322546,15.8516865 59.132009,16.1353911 59.1018095,16.228345 L60.1917882,16.228345 C60.2988846,16.0285815 60.3295035,15.7735299 60.3762009,15.5506288 L57.5591178,15.5506288 C57.5497503,15.5506288 57.5799499,15.4313088 57.5426199,15.4217578 L56.9382102,15.8028555 L56.2176163,14.9699022 L56.2176163,19.2453793 C56.2176163,19.4610163 56.0882897,19.8466877 55.9484772,20.0190089 C55.5460966,20.515391 54.8436784,20.4691158 54.2567453,20.5213099 L54.1769123,20.4668289 C54.1337102,19.9721956 53.9706888,19.4990857 53.8030535,19.0356613 L54.6247319,19.0356613 C54.630604,19.0356613 54.7084796,18.9607331 54.7084796,18.9549487 L54.7084796,16.5832111 L53.8701636,16.5832111 C53.8066887,17.9122774 53.616264,19.2430925 53.2326183,20.5200992 L51.8888799,19.8554315 C51.9304042,19.6001109 52.0250573,19.3583769 52.0822406,19.1062847 C52.4584762,17.4489875 52.4711992,15.7078837 52.4965052,14.0192431 C52.5194345,12.4867812 52.476512,10.951898 52.4951071,9.41970515 L56.2176163,9.41970515 L56.2176163,14.389041 C56.4822815,14.2090521 56.7838572,14.0543531 56.9889622,13.8081798 L56.3518364,13.8081798 L56.3518364,12.452882 L58.1628284,12.452882 L58.3975737,11.9688758 L56.6201367,11.9688758 L56.6201367,10.645863 L57.1567373,10.645863 C57.0954994,10.2253507 56.927165,9.82420944 56.7543567,9.43692382 L58.0790807,9.0637629 C58.1645061,9.0734484 58.3040391,9.39280097 58.3461226,9.48535134 C58.4825797,9.78560194 58.5819864,10.1186756 58.6566463,10.4380282 L58.6105082,10.4786535 L58.0621633,10.645863 L58.8502867,10.645863 L59.1687797,9 Z M61.2222067,17.8888827 L61.2222067,18.7777709 L56.7777653,18.7777709 L56.7777653,17.8888827 L61.2222067,17.8888827 Z M54.7084796,13.7758948 L53.9706888,13.7758948 L53.9371338,14.9376172 L54.7084796,14.9376172 L54.7084796,13.7758948 Z M61.1328665,13.806162 L59.1582938,13.8142333 L58.6992892,14.356756 L61.5834823,14.356756 C61.4608667,14.2496774 61.3341965,13.9238678 61.2311547,13.8407339 C61.1996969,13.8153094 61.1755093,13.8023954 61.1328665,13.806162 Z M54.7084796,11.0331486 L53.9706888,11.0331486 L53.9706888,12.1625859 L54.7084796,12.1625859 L54.7084796,11.0331486 Z M70.0572219,16.5331021 L67.7197425,16.5331021 C67.6389787,16.7363892 67.4372693,16.8658662 67.3354134,17.0606314 L70.0572219,17.0606314 L70.0572219,16.5331021 Z M68.4241902,12.8733847 L73.2593416,12.8733847 L73.2593416,12.477669 L68.4241902,12.477669 L68.4241902,12.8733847 Z M68.4241902,11.1919709 L73.2593416,11.1919709 L73.2593416,10.8292429 L68.4241902,10.8292429 L68.4241902,11.1919709 Z M75.1165097,9.44444413 L75.1165097,14.2251957 L67.9759174,14.2251957 C67.9936721,14.275777 68.1162196,14.2910338 68.1682822,14.3073902 C68.4215203,14.3866983 68.6795641,14.4577594 68.93654,14.522223 L68.7124036,15.0494774 L70.0572219,15.0494774 L70.0572219,14.4229848 L71.9143899,14.4229848 L71.9143899,15.0494774 L75.5647824,15.0494774 L75.5647824,16.5331021 L71.9143899,16.5331021 L71.9143899,17.0606314 L74.988489,17.0606314 L74.988489,18.4454302 L71.9143899,18.4454302 L71.9143899,19.0059473 L76.3333072,19.0059473 L76.3333072,20.5555475 L65.5423224,20.5555475 L65.5423224,19.0059473 L70.0572219,19.0059473 L70.0572219,18.4454302 L67.0792384,18.4454302 L67.0792384,17.3243961 C66.9895305,17.3900967 66.7525787,17.6997693 66.6623368,17.6746162 L65.2222039,16.5827212 C66.0028766,15.9470195 66.6775551,15.1546259 67.111277,14.2251957 L66.6630043,14.2251957 L66.6630043,9.44444413 L75.1165097,9.44444413 Z M78.1110837,15.2222179 L78.1110837,13.8888855 L89.1727036,13.8888855 C89.1762774,13.8888855 89.2221871,13.9364892 89.2221871,13.9401949 L89.2221871,15.2222179 L87.9188331,15.2222179 L87.9188331,17.2962069 C88.0301621,17.2630412 88.1275919,17.0974963 88.2405402,17.1424259 L89.4723115,18.129601 L87.8543297,18.9965859 L89.6666312,19.3361799 L88.7449619,20.7672649 C87.3619181,20.5694047 85.9908843,20.0937464 84.8765146,19.2001155 L84.7110729,20.3186778 C83.4558213,20.5329791 82.1677783,20.6134838 80.9472074,20.9999916 L80.9107725,20.968385 C80.8114535,20.553814 80.6514096,20.1588022 80.4415712,19.7958222 C80.7141587,19.6695375 81.1005041,19.5594104 81.1536721,19.2002573 L79.0314036,19.5965446 L78.1110837,18.2485155 C79.0952323,18.1819007 80.0892318,18.0437104 81.0508446,17.8169365 C81.2793052,17.7630777 81.5560759,17.7008566 81.7756303,17.6260212 C81.8100411,17.6142573 81.873195,17.6176589 81.865908,17.5681939 L79.8590168,17.5681939 L79.8590168,15.2222179 L78.1110837,15.2222179 Z M83.8518828,18.1176954 C83.517086,18.2782796 83.1969982,18.492581 82.8369669,18.5881095 L82.8369669,19.1320833 L84.585035,18.911404 C84.2891022,18.7034807 84.103014,18.3748003 83.8518828,18.1176954 Z M87.4656902,17.5681939 L85.2322277,17.5681939 C85.3521931,17.7540067 86.0435126,18.3276029 86.2170509,18.3156973 C86.311377,18.3093193 86.846296,17.9878673 86.9696351,17.914024 C87.1353467,17.8148105 87.3407318,17.7127622 87.4656902,17.5681939 Z M86.1385134,16.2761496 L81.5097901,16.2761496 C81.5097901,16.332843 81.4908979,16.5821526 81.55837,16.5821526 L86.1385134,16.5821526 L86.1385134,16.2761496 Z M45.9125496,15.666662 L45.9125496,16.9999944 L50.5555475,16.9999944 L50.5555475,18.7234977 L45.9606068,18.7234977 C45.957136,18.7234977 45.9125496,18.7689137 45.9125496,18.7723029 L45.9125496,20.9999916 L44.0554038,20.9999916 L44.0554038,18.7723029 C44.0554038,18.7689137 44.0106839,18.7234977 44.0073466,18.7234977 L39.4444441,18.7234977 L39.4444441,16.9999944 L44.0554038,16.9999944 L44.0554038,15.666662 L45.9125496,15.666662 Z M42.2399446,9 L43.8865614,9.56262923 C43.9434564,9.63997109 42.9381774,10.904576 42.797409,11.0558514 L42.797409,15.2222179 L41.0834798,15.2222179 C41.0800073,15.2222179 41.0353995,15.1784345 41.0353995,15.1750262 L41.0353995,12.7381023 L40.2181679,13.3299642 L39,11.9825117 C40.2989695,11.2587755 41.4364693,10.2390428 42.2399446,9 Z M47.2614251,9.44444413 C47.2649464,9.44444413 47.3101819,9.48818548 47.3101819,9.49145953 L47.3101819,10.8580491 C48.0767479,10.5385015 48.8006516,10.1330429 49.5007186,9.69615329 L50.7536341,11.0623499 C49.6892451,11.6929325 48.5400734,12.18535 47.3640853,12.5909396 C47.3235901,12.6031191 47.3169537,12.627478 47.3097756,12.6640164 C47.285939,12.7869899 47.2939297,13.3760574 47.3179018,13.505317 C47.3405195,13.6269808 47.4308551,13.6978313 47.5559977,13.7147254 C47.8383811,13.7529663 48.7284644,13.750609 49.0165361,13.7174756 C49.4828411,13.6639121 49.3759824,12.9089156 49.4546705,12.5858321 C49.9194858,12.8933311 50.4693546,13.0436756 50.9999916,13.2124857 C50.9001755,14.0746092 50.7281722,14.9490432 49.7157905,15.1477127 C49.143033,15.2602092 47.0728986,15.246982 46.5167997,15.0966375 C45.5465385,14.8344514 45.5125442,14.0196052 45.4906036,13.1827573 L44.0647367,13.5567851 C44.0018946,13.3480315 43.9293011,13.1413733 43.8397781,12.9416561 C43.7226262,12.6805177 43.566198,12.4361424 43.4444413,12.1776232 L45.4908745,11.5648515 L45.4908745,9.49145953 C45.4908745,9.48818548 45.5362454,9.44444413 45.5396313,9.44444413 L47.2614251,9.44444413 Z M87.4444106,11.2222207 L87.4444106,13.4444413 L79.8888603,13.4444413 L79.8888603,11.2222207 L87.4444106,11.2222207 Z M86.061406,12.1699885 L85.2856015,12.1699885 L85.2856015,12.464114 L86.061406,12.464114 L86.061406,12.1699885 Z M84.0038439,12.1699885 L83.2617884,12.1699885 L83.2617884,12.464114 L84.0038439,12.464114 L84.0038439,12.1699885 Z M81.9462818,12.1699885 L81.2379753,12.1699885 L81.2379753,12.464114 L81.9462818,12.464114 L81.9462818,12.1699885 Z M84.4928034,9 C84.5552075,9.00013645 84.5660664,9.00695906 84.6027667,9.05430795 C84.7377466,9.22801154 84.8538953,9.60857657 84.9359554,9.81994095 L89.2221871,9.81994095 L89.2221871,12.1111089 L87.5077219,12.1111089 L87.5077219,11.1291993 L79.7595709,11.1291993 L79.7595709,12.1111089 L78.1110837,12.1111089 L78.1110837,9.81994095 L82.7269304,9.81994095 C82.6837698,9.69672466 82.6298878,9.57241675 82.5893388,9.4482453 C82.5790297,9.41645195 82.5408175,9.41699776 82.5941497,9.37729018 L84.4928034,9 Z M57.1852025,22.333324 L58.2778093,24.1410335 L58.2222216,22.333324 L58.999986,22.333324 L58.999986,24.9999888 L58.1482591,24.9999888 L57.0185938,23.1329899 C57.0908578,23.7531819 57.1348647,24.3747326 57.1110856,24.9999888 L56.3333212,24.9999888 L56.3333212,22.333324 L57.1852025,22.333324 Z M70.0740824,22.333324 L71.1666892,24.1410335 L71.1111015,22.333324 L71.8888659,22.333324 L71.8888659,24.9999888 L71.037139,24.9999888 L69.9074737,23.1329899 C69.9831347,23.7530584 70.023127,24.3744855 69.9999654,24.9999888 L69.2222011,24.9999888 L69.2222011,22.333324 L70.0740824,22.333324 Z M87.807482,22.333324 L88.9718578,24.1706782 L88.877906,22.333324 L89.6666312,22.333324 L89.6666312,24.9999888 L88.8591156,24.9999888 L87.6947399,23.1626346 L87.7511109,24.9999888 L86.9999664,24.9999888 L86.9999664,22.333324 L87.807482,22.333324 Z M40.2480986,22.333324 L40.2480986,23.3407499 L41.3074544,23.3407499 L41.3074544,22.333324 L42.1111089,22.333324 L42.1111089,24.9999888 L41.3074544,24.9999888 L41.3074544,23.9036288 L40.2480986,23.9036288 L40.2480986,24.9999888 L39.4444441,24.9999888 L39.4444441,22.333324 L40.2480986,22.333324 Z M77.14813,22.333324 L77.14813,23.3407499 L78.2222076,23.3407499 L78.2222076,22.333324 L78.999972,22.333324 L78.999972,24.9999888 L78.2222076,24.9999888 L78.2222076,23.9036288 L77.14813,23.9036288 L77.14813,24.9555217 C77.14813,24.9586097 77.096557,24.9999888 77.0925424,24.9999888 L76.3333072,24.9999888 L76.3333072,22.333324 L77.14813,22.333324 Z M75.4444189,24.6179303 C75.3820729,24.8231827 74.5669506,25.0016272 74.3533631,24.9999888 C72.0813121,24.9827929 72.3582897,21.6228674 74.5943947,21.9057941 C74.7602531,21.926828 75.3738695,22.1318054 75.3741678,22.3095625 C75.3741678,22.3879241 75.0255967,22.6422556 75.0142611,22.7547114 C74.1364944,22.1406039 73.4386064,22.812589 73.607597,23.7059112 C73.7131975,24.2643407 74.201376,24.4592824 74.7647277,24.3046214 L74.7647277,23.8099809 L74.2637221,23.8099809 L74.2637221,23.2163574 L75.4444189,23.2163574 L75.4444189,24.6179303 Z M62.1110949,24.6179304 C62.0487716,24.8231827 61.2339456,25.0016272 61.0204359,24.9999888 C58.7474219,24.9826554 59.0253424,21.6228681 61.2613798,21.9057947 C61.4271779,21.9268286 62.0405711,22.131806 62.0408693,22.3095631 C62.0408693,22.3879247 61.692425,22.6422561 61.6810935,22.7547119 C61.0620345,22.2800056 60.3222054,22.5538587 60.2519797,23.2993936 C60.1833942,24.0289812 60.6127993,24.5245838 61.4316509,24.3046215 L61.4316509,23.8099812 L60.9308274,23.8099812 L60.9308274,23.2163578 L62.1110949,23.2163578 L62.1110949,24.6179304 Z M80.6925148,21.8888799 L80.6925148,23.8678053 C80.6925148,24.0122092 80.8512049,24.2589931 81.0126364,24.3152599 C81.6161768,24.5259429 81.7600945,23.9937356 81.789944,23.5647546 C81.8278652,23.0199966 81.7585715,22.4374454 81.7884211,21.8888799 L82.5555251,21.8888799 L82.5555251,23.7324266 C82.5555251,24.6640009 81.7422761,25.1633506 80.8003388,24.9518215 C80.2980738,24.839006 79.8888603,24.3082089 79.8888603,23.8339606 L79.8888603,21.8888799 L80.6925148,21.8888799 Z M43.3661614,21.8888799 C43.3984789,22.4482439 43.3233749,23.0474615 43.3646442,23.6023031 C43.3962031,24.0262779 43.527142,24.4932154 44.1020295,24.3198097 C44.2819758,24.2655409 44.4579772,24.041541 44.4579772,23.8720924 L44.4579772,21.8888799 L45.2222179,21.8888799 L45.2222179,23.9060104 C45.2222179,24.0760242 45.041513,24.471734 44.9246844,24.6119283 C44.5720747,25.0356204 43.8272548,25.0814097 43.3203404,24.8978286 C42.6761145,24.6646425 42.5949414,23.9975889 42.5639894,23.4327132 C42.5362237,22.9252155 42.5878103,22.3982149 42.5655067,21.8888799 L43.3661614,21.8888799 Z M48.1686704,23.8749414 L47.888814,22.8383919 L47.6089577,23.8749414 L48.1686704,23.8749414 Z M46.5555503,24.9999888 L47.4476868,22.3383846 L48.2851972,22.333324 L49.2222151,24.9999888 L48.464997,24.9999888 L48.3022164,24.3913647 L47.4644315,24.3764299 L47.2798279,24.9999888 L46.5555503,24.9999888 Z M85.482349,23.8764487 L85.2059215,22.841288 L84.9294939,23.8764487 L85.482349,23.8764487 Z M86.5555223,24.9999888 L85.8075818,24.9999888 L85.6251044,24.3772653 L84.7975842,24.3921801 C84.7311548,24.4345825 84.694822,24.9213472 84.5881283,24.9999888 L83.8888575,24.9999888 L84.7981265,22.3525511 C84.9307141,22.3434297 85.6055823,22.3066974 85.6617083,22.3680822 L86.5555223,24.9999888 Z M55.4067469,22.333324 L55.4067469,22.8666817 L54.0508343,22.8666817 L54.0508343,23.3407499 L55.1807876,23.3407499 L55.1807876,23.9036288 L54.0508343,23.9036288 L54.0508343,24.4369864 L55.4444329,24.4369864 L55.4444329,24.9999888 L53.2222123,24.9999888 L53.2222123,22.333324 L55.4067469,22.333324 Z M63.9123249,22.333324 C64.0451461,22.5944445 64.168313,22.9062079 64.3264405,23.1539883 C64.343994,23.1815331 64.3606698,23.2190831 64.4032369,23.2221711 L64.7895596,22.333324 L65.6315411,22.333324 L64.8272995,23.6517723 L65.666648,24.9999888 L64.8420737,24.9999888 C64.6115381,24.7071238 64.5129461,24.3268069 64.2635406,24.0518523 L63.7894506,24.9999888 L62.9999832,24.9999888 L63.8396242,23.6222511 L63.0350902,22.333324 L63.9123249,22.333324 Z M52.333324,22.333324 L52.333324,22.8666817 L51.4190253,22.8666817 L51.4190253,24.9999888 L50.5809579,24.9999888 L50.5809579,22.8666817 L49.6666592,22.8666817 L49.6666592,22.333324 L52.333324,22.333324 Z M66.9999804,24.9999888 L67.8888687,24.9999888 L67.8888687,22.333324 L66.9999804,22.333324 L66.9999804,24.9999888 Z" id="形状结合备份"></path>
            </g>
        </g>
    </g>
</svg>