<?xml version="1.0" encoding="UTF-8"?>
<svg width="72px" height="36px" viewBox="0 0 72 36" version="1.1" xmlns="http://www.w3.org/2000/svg" xmlns:xlink="http://www.w3.org/1999/xlink">
    <title>编组</title>
    <g id="页面-1" stroke="none" stroke-width="1" fill="none" fill-rule="evenodd" stroke-linecap="round">
        <g id="发现" transform="translate(-283, -693)">
            <g id="编组" transform="translate(284, 694)">
                <line x1="0" y1="33.9659158" x2="70.4415283" y2="33.9659158" id="路径备份-2" stroke="#FFFFFF" stroke-width="0.5" stroke-dasharray="2,2"></line>
                <polyline id="路径备份" stroke="#F13A3C" stroke-linejoin="round" points="0 31.7389727 6.92487872 6.26930208 10.3197373 15.8561768 12.6284564 9.52728983 15.0330912 15.8561768 18.0391764 19.6564515 21.8052647 17.840856 24.0097726 10.9717298 28.2756923 4.33539386 29.0559802 15.8561768 30.8654187 8.71485714 33.2752382 17.840856 39.1852065 -5.68434189e-14 43.4863817 17.840856 44.518643 13.9659158 45.8894612 15.8694864 46.771368 13.9659158 47.5532114 15.8694864 48.6139882 13.9659158 50.7282833 12.1429394 53.2039477 9.52728983 53.2039477 13.9659158 55.2871351 12.1429394 56.2971025 14.7254074 58.6244862 18.6035162 62.3076527 15.8694864 65.4516169 22.4686634 70.4415283 15.8694864"></polyline>
            </g>
        </g>
    </g>
</svg>