<?xml version="1.0" encoding="UTF-8"?>
<svg width="73px" height="34px" viewBox="0 0 73 34" version="1.1" xmlns="http://www.w3.org/2000/svg" xmlns:xlink="http://www.w3.org/1999/xlink">
    <title>编组</title>
    <g id="页面-1" stroke="none" stroke-width="1" fill="none" fill-rule="evenodd" stroke-linecap="round">
        <g id="发现" transform="translate(-283, -541)">
            <g id="编组" transform="translate(284, 542)">
                <line x1="0" y1="32.1841402" x2="70.4415283" y2="32.1841402" id="路径" stroke="#FFFFFF" stroke-width="0.5" stroke-dasharray="2,2"></line>
                <path d="M0,29.9571971 L6.92487872,4.48752646 L7.85380532,9.14900627 L13.9754747,0 L16.6521624,8.33134714 L18.1534895,7.19085565 L19.3660698,9.14900627 C20.4656849,11.2901232 21.0154924,12.1645915 21.0154924,11.7724109 C21.0154924,11.3802304 21.6934142,10.5057622 23.0492579,9.14900627 L24.1317649,13.9096082 L27.6805701,14.9785985 L28.3027276,10.6785421 L29.7958273,5.60803682 L33.3246513,17.7632235 L41.2183302,0.964396136 L44.4870078,5.94322329 L46.0161519,1.73073119 L48.5921503,6.54853396 L54.4348675,5.94322329 L57.7364552,0.322649293 L62.6463278,17.2819262 L66.3914182,12.0327661 L69.60838,20.4518735 L70.7929188,15.3034027" id="路径" stroke="#F13A3C" stroke-linejoin="round"></path>
            </g>
        </g>
    </g>
</svg>