<?xml version="1.0" encoding="UTF-8"?>
<svg width="16px" height="16px" viewBox="0 0 16 16" version="1.1" xmlns="http://www.w3.org/2000/svg" xmlns:xlink="http://www.w3.org/1999/xlink">
    <title>Icon/人名币备份 3</title>
    <g id="页面-1" stroke="none" stroke-width="1" fill="none" fill-rule="evenodd">
        <g id="我的持有" transform="translate(-24, -448)" fill="#F18707" fill-rule="nonzero">
            <g id="Icon/人名币备份-3" transform="translate(24, 448)">
                <path d="M11.0936015,15.6232215 C12.0935375,15.2212563 13.0160596,14.5877295 13.7399623,13.8104391 C16.233572,11.1299546 16.4759829,7.05755888 14.3759239,4.06731119 L8.40144402,8.55968293 L11.0936015,15.6232215 L11.0936015,15.6232215 Z M14.6744438,2.67328737 C14.4183547,2.31969688 14.1384185,1.99335523 13.8330953,1.69275855 C13.0484646,0.922163998 12.1124076,0.359426961 11.0686443,0 L8.72066014,7.18807406 L14.6744438,2.67328737 Z M10.0615111,15.4841127 L7.39556409,8.39393403 L9.74272466,1.20589577 C7.02131317,0.274601068 4.02737738,1.02521551 2.05701001,3.14228266 C-0.760828741,6.171667 -0.681588655,10.9736945 2.28226956,13.8884618 C4.35164227,15.9256085 7.39509862,16.5561275 10.0615111,15.4841127 L10.0615111,15.4841127 Z" id="形状"></path>
            </g>
        </g>
    </g>
</svg>