<?xml version="1.0" encoding="UTF-8"?>
<svg width="16px" height="16px" viewBox="0 0 16 16" version="1.1" xmlns="http://www.w3.org/2000/svg" xmlns:xlink="http://www.w3.org/1999/xlink">
    <title>Icon/人名币备份 5</title>
    <g id="页面-1" stroke="none" stroke-width="1" fill="none" fill-rule="evenodd">
        <g id="我的持有" transform="translate(-24, -709)" fill="#FF7700" fill-rule="nonzero">
            <g id="Icon/人名币备份-5" transform="translate(24, 709)">
                <path d="M8,0 L10.4,1.6 L13.6,0.8 L12.52,4.496 C14.1599815,5.30333579 15.199063,6.97206961 15.2,8.8 L15.2,14.4 C15.2,15.2836556 14.4836556,16 13.6,16 L2.4,16 C1.5163444,16 0.8,15.2836556 0.8,14.4 L0.8,8.8 C0.800937033,6.97206961 1.8400185,5.30333579 3.48,4.496 L2.4,0.8 L5.6,1.6 L8,0 Z M6.34338737,5.62028088 C6.09047056,5.59079282 5.49118247,5.59600994 5.23259488,5.61960039 C5.02527114,5.63865421 4.99396843,5.79902388 5.09740347,5.96075455 L6.87485293,9.15272351 L5.64111791,9.15272351 C5.60323709,9.15272351 5.51000946,9.23211444 5.49889473,9.28201731 C5.47485062,9.38976214 5.48165556,9.81076089 5.49299712,9.93483757 C5.49708008,9.98133797 5.4957191,10.018992 5.52860962,10.0575533 C5.53927069,10.070029 5.6345398,10.1262831 5.64111791,10.1262831 L7.30515176,10.1262831 L7.30515176,10.5790382 L5.66380103,10.5790382 C5.60028829,10.5790382 5.50184354,10.6779367 5.49277029,10.7475738 C5.47893358,10.8532772 5.47779943,11.3287154 5.49889473,11.4230772 C5.51000946,11.4727533 5.60301026,11.552371 5.64111791,11.552371 L7.3046981,11.552371 L7.3046981,13.4879218 C7.3046981,13.4960878 7.39905989,13.5913569 7.4296821,13.5893154 C7.75813371,13.5675396 8.12560029,13.6201644 8.44906162,13.5909032 C8.51393535,13.5850056 8.64050717,13.5398662 8.64050717,13.4652387 L8.64050717,11.5521442 L10.304541,11.5521442 C10.3685074,11.5521442 10.4401861,11.4688971 10.4503935,11.4035697 C10.46854,11.2858443 10.46854,10.8671139 10.4528886,10.7471202 C10.4438154,10.677483 10.3451438,10.5785846 10.2818579,10.5785846 L8.64050717,10.5785846 L8.64050717,10.1258295 L10.304541,10.1258295 C10.3998101,10.1258295 10.44563,10.0167236 10.4528886,9.93438391 C10.4640034,9.80894624 10.471262,9.38998897 10.446991,9.28156365 C10.4358763,9.23188761 10.3428755,9.15226985 10.3047678,9.15226985 L9.07103283,9.15226985 C9.59909592,8.13243667 10.1906717,7.14186472 10.7128372,6.11908274 C10.7990331,5.95032031 10.9814054,5.71985979 10.7110226,5.62209553 C10.3487731,5.64682013 9.93480613,5.58466838 9.57913477,5.61937356 C9.40833086,5.63615907 9.40515522,5.80560199 9.32326915,5.92967867 L8.01830912,8.81315717 C7.55398561,7.74364796 6.99280517,6.71769034 6.46791772,5.67698869 C6.4307174,5.63706639 6.39623905,5.62640532 6.34338737,5.62028088 Z" id="形状结合"></path>
            </g>
        </g>
    </g>
</svg>