<?xml version="1.0" encoding="UTF-8"?>
<svg width="16px" height="16px" viewBox="0 0 16 16" version="1.1" xmlns="http://www.w3.org/2000/svg" xmlns:xlink="http://www.w3.org/1999/xlink">
    <title>Icon/人名币备份 4</title>
    <g id="页面-1" stroke="none" stroke-width="1" fill="none" fill-rule="evenodd">
        <g id="我的持有" transform="translate(-24, -580)" fill="#01A25E" fill-rule="nonzero">
            <g id="Icon/人名币备份-4" transform="translate(24, 580)">
                <path d="M16,14.0433437 C16,14.2665449 15.9618209,14.4750618 15.8854626,14.6688944 C15.8091043,14.862727 15.7004405,15.0330647 15.5594714,15.1799076 C15.4185022,15.3267505 15.2540382,15.4412879 15.0660793,15.5235199 C14.8781204,15.6057519 14.6725404,15.6468679 14.4493392,15.6468679 L1.65638767,15.6468679 C1.43318649,15.6468679 1.22173275,15.6057519 1.02202643,15.5235199 C0.822320117,15.4412879 0.646108664,15.3267505 0.49339207,15.1799076 C0.340675477,15.0330647 0.220264317,14.862727 0.13215859,14.6688944 C0.0440528634,14.4750618 0,14.2665449 0,14.0433437 L0,5.25039218 C0,4.80398983 0.155653451,4.4251352 0.466960352,4.1138283 C0.778267254,3.8025214 1.15712188,3.64686795 1.60352423,3.64686795 L14.3964758,3.64686795 C14.8428781,3.64686795 15.2217327,3.8025214 15.5330396,4.1138283 C15.8443465,4.4251352 16,4.80398983 16,5.25039218 L16,7.64686795 L12,7.64686795 C11.5535977,7.64686795 11.174743,7.79958454 10.8634361,8.10501773 C10.5521292,8.41045092 10.3964758,8.78636868 10.3964758,9.23277103 C10.4082232,9.53820422 10.4728341,9.80839511 10.5903084,10.0433437 C10.6842878,10.24305 10.8399413,10.4251352 11.0572687,10.5895992 C11.2745962,10.7540632 11.5888399,10.8362953 12,10.8362953 L16,10.8362953 L16,14.0433437 L16,14.0433437 Z M13.6035242,2.83629526 L5.60352423,2.83629526 C6.23788546,2.50736721 6.83700441,2.1901866 7.40088106,1.88475341 C7.89427313,1.62630995 8.38179148,1.36786648 8.86343612,1.10942301 C9.34508076,0.850979549 9.72099853,0.651273235 9.99118943,0.510304072 C10.4023495,0.287102897 10.7694567,0.184312883 11.092511,0.201934028 C11.4155653,0.219555174 11.6886931,0.275355467 11.9118943,0.369334909 C12.1703377,0.498556642 12.3935389,0.668894381 12.5814978,0.880348125 L13.6035242,2.83629526 Z M11.2070485,9.23277103 C11.2070485,9.00956986 11.2834068,8.82161097 11.4361233,8.66889438 C11.5888399,8.51617779 11.7767988,8.43981949 12,8.43981949 C12.2232012,8.43981949 12.4111601,8.51617779 12.5638767,8.66889438 C12.7165932,8.82161097 12.7929515,9.00956986 12.7929515,9.23277103 C12.7929515,9.45597221 12.7165932,9.64686795 12.5638767,9.80545826 C12.4111601,9.96404857 12.2232012,10.0433437 12,10.0433437 C11.7767988,10.0433437 11.5888399,9.96404857 11.4361233,9.80545826 C11.2834068,9.64686795 11.2070485,9.45597221 11.2070485,9.23277103 Z" id="形状"></path>
            </g>
        </g>
    </g>
</svg>