<?xml version="1.0" encoding="UTF-8"?>
<svg width="16px" height="16px" viewBox="0 0 16 16" version="1.1" xmlns="http://www.w3.org/2000/svg" xmlns:xlink="http://www.w3.org/1999/xlink">
    <title>Icon/人名币备份 7</title>
    <g id="页面-1" stroke="none" stroke-width="1" fill="none" fill-rule="evenodd">
        <g id="我的持有" transform="translate(-24, -1034)" fill="#FF7700" fill-rule="nonzero">
            <g id="Icon/人名币备份-7" transform="translate(24, 1034)">
                <path d="M13.7853281,1.35629688 C15.0083906,1.35629688 15.999875,2.34778125 15.999875,3.57085938 L15.999875,12.4291406 C15.999875,13.6521875 15.008375,14.6437031 13.7853125,14.6437031 L2.21465625,14.6437031 C0.99159375,14.6437031 9.375e-05,13.6521875 9.375e-05,12.4291406 L9.375e-05,3.57085938 C9.375e-05,2.34779688 0.991578125,1.35629688 2.21465625,1.35629688 L13.7853281,1.35629688 Z M14.7490937,5.37329688 L1.24909375,5.37329688 L1.25009375,6.73153125 L6.67371875,6.73153125 L7.99998437,8.05779688 L8.07626562,7.98153125 L9.32626562,6.73153125 L14.749875,6.73153125 L14.7490937,5.37329688 Z M13.7853125,2.60629688 L2.21465625,2.60629688 C1.68279687,2.60629688 1.25009375,3.039 1.25009375,3.57085938 L1.24909375,4.12329687 L14.7490937,4.12329687 L14.749875,3.57085938 C14.749875,3.039 14.3171719,2.60629688 13.7853125,2.60629688 Z" id="形状结合"></path>
            </g>
        </g>
    </g>
</svg>