<?xml version="1.0" encoding="UTF-8"?>
<svg width="16px" height="16px" viewBox="0 0 16 16" version="1.1" xmlns="http://www.w3.org/2000/svg" xmlns:xlink="http://www.w3.org/1999/xlink">
    <title>Icon/人名币备份 6</title>
    <g id="页面-1" stroke="none" stroke-width="1" fill="none" fill-rule="evenodd">
        <g id="我的持有" transform="translate(-24, -894)" fill="#FF7700">
            <g id="Icon/人名币备份-6" transform="translate(24, 894)">
                <g id="编组" transform="translate(1.2, 0)">
                    <path d="M11.8091566,1.04481928 L9.94698795,1.04481928 C9.94698795,1.04481928 9.35325301,2.50987952 8.66313253,2.43662651 L5.11036145,2.43662651 C4.41831325,2.50987952 3.82650602,1.04481928 3.82650602,1.04481928 L1.9026506,1.04481928 C0.855903614,1.04481928 0,1.92192771 0,2.99566265 L0,14.0491566 C0,15.1228916 0.855903614,16 1.9026506,16 L11.8110843,16 C12.8559036,16 13.7098795,15.126747 13.7137349,14.0568675 L13.7137349,2.9860241 C13.7079518,1.91807229 12.8539759,1.04481928 11.8091566,1.04481928 L11.8091566,1.04481928 Z M10.7855422,12.173494 L2.98987952,12.173494 C2.7026506,12.173494 2.4713253,11.940241 2.4713253,11.6510843 C2.4713253,11.3619277 2.70457831,11.1286747 2.98987952,11.1286747 L10.7855422,11.1286747 C11.0727711,11.1286747 11.3060241,11.3619277 11.3060241,11.6510843 C11.3040964,11.940241 11.0727711,12.173494 10.7855422,12.173494 L10.7855422,12.173494 Z M10.7855422,9.04481928 L2.98987952,9.04481928 C2.7026506,9.04481928 2.4713253,8.81156627 2.4713253,8.52240964 C2.4713253,8.23325301 2.70457831,8 2.98987952,8 L10.7855422,8 C11.0727711,8 11.3060241,8.23325301 11.3060241,8.52240964 C11.3040964,8.80963855 11.0727711,9.04481928 10.7855422,9.04481928 L10.7855422,9.04481928 Z M10.7855422,6.26120482 L2.98987952,6.26120482 C2.7026506,6.26120482 2.4713253,6.02795181 2.4713253,5.73879518 C2.4713253,5.44963855 2.70457831,5.21638554 2.98987952,5.21638554 L10.7855422,5.21638554 C11.0727711,5.21638554 11.3060241,5.44963855 11.3060241,5.73879518 C11.3040964,6.02795181 11.0727711,6.26120482 10.7855422,6.26120482 L10.7855422,6.26120482 Z" id="形状" fill-rule="nonzero"></path>
                    <path d="M4.45493976,1.28771084 L4.45493976,0.8 C4.45493976,0.3581722 4.81311196,7.63833441e-15 5.25493976,7.63833441e-15 L8.45493976,7.63833441e-15 C8.89676756,7.63833441e-15 9.25493976,0.3581722 9.25493976,0.8 L9.25493976,1.28771084 C9.25493976,1.72953864 8.89676756,2.08771084 8.45493976,2.08771084 L5.25493976,2.08771084 C4.81311196,2.08771084 4.45493976,1.72953864 4.45493976,1.28771084 Z" id="路径" fill-rule="nonzero"></path>
                </g>
            </g>
        </g>
    </g>
</svg>