<?xml version="1.0" encoding="UTF-8"?>
<svg width="179px" height="291px" viewBox="0 0 179 291" version="1.1" xmlns="http://www.w3.org/2000/svg" xmlns:xlink="http://www.w3.org/1999/xlink">
    <title>编组备份 11</title>
    <defs>
        <linearGradient x1="50%" y1="0%" x2="50%" y2="99.5356206%" id="linearGradient-1">
            <stop stop-color="#FFFFFF" offset="0%"></stop>
            <stop stop-color="#E4F0FF" offset="98.6396416%"></stop>
        </linearGradient>
    </defs>
    <g id="页面-1" stroke="none" stroke-width="1" fill="none" fill-rule="evenodd">
        <g id="收货地址备份" transform="translate(-12, -99)">
            <g id="编组备份-11" transform="translate(12, 99)">
                <path d="M166.896447,3.25 L174.75,11.1035534 L174.75,278.896447 L166.896447,286.75 L12.1035534,286.75 L4.25,278.896447 L4.25,11.1035534 L12.1035534,3.25 L166.896447,3.25 Z" id="蒙版" stroke="#4297FE" stroke-width="0.5" fill="url(#linearGradient-1)"></path>
                <g id="编组备份-9">
                    <path d="M0,283 L0,196 L4,193 L4,282 L9,287 L30,287 L27,291 L8,291 L0,283 Z" id="形状结合" fill="#4297FE"></path>
                    <path d="M-21,43 L-21,24 L-17,21 L-17,42 L-12,47 L51,47 L48,51 L-13,51 L-21,43 Z" id="形状结合备份" fill="#4297FE" transform="translate(15, 36) rotate(90) translate(-15, -36)"></path>
                    <path d="M170.792893,0.5 L178.5,8.20710678 L178.5,282.792893 L170.792893,290.5 L103.207107,290.5 L100.207107,287.5 L67.7928932,287.5 L64.7928932,290.5 L8.20710678,290.5 L0.5,282.792893 L0.5,11.2071068 L8.20710678,3.5 L115.207107,3.5 L118.207107,0.5 L170.792893,0.5 Z" id="蒙版" stroke="#4297FE"></path>
                    <polygon id="矩形" fill="#4297FE" points="32 287 38 287 35 291 29 291"></polygon>
                    <polygon id="矩形备份" fill="#4297FE" points="40 287 44 287 41 291 37 291"></polygon>
                    <polygon id="矩形备份-2" fill="#4297FE" points="46 287 49 287 46 291 43 291"></polygon>
                    <polygon id="矩形-5" fill="#4297FE" points="68 289 100 289 102.046997 291 66.1466296 291"></polygon>
                    <polygon id="矩形-6" fill="#4297FE" points="133 0 164 0 164 4 133 4"></polygon>
                    <polygon id="矩形-6备份" fill="#4297FE" points="72 0 95 0 98 4 69 4"></polygon>
                    <path d="M37,0 L39,0 L39,2 L37,2 L37,0 Z M43,0 L45,0 L45,2 L43,2 L43,0 Z M49,0 L51,0 L51,2 L49,2 L49,0 Z M55,0 L57,0 L57,2 L55,2 L55,0 Z M61,0 L63,0 L63,2 L61,2 L61,0 Z" id="形状结合" fill="#4297FE"></path>
                    <polygon id="矩形" fill="#4297FE" points="137 288 168 288 168 289 137 289"></polygon>
                    <polygon id="矩形-5" fill="#4297FE" points="175 12 176 12 176 199 175 199"></polygon>
                </g>
            </g>
        </g>
    </g>
</svg>