<?xml version="1.0" encoding="UTF-8"?>
<svg width="14px" height="14px" viewBox="0 0 14 14" version="1.1" xmlns="http://www.w3.org/2000/svg" xmlns:xlink="http://www.w3.org/1999/xlink">
    <title>Icon/多选备份</title>
    <g id="页面-1" stroke="none" stroke-width="1" fill="none" fill-rule="evenodd">
        <g id="个人资料-修改登录密码" transform="translate(-332, -299)" fill="#A7A6A5" fill-rule="nonzero">
            <g id="Icon/多选备份" transform="translate(332, 299)">
                <path d="M7,0.7 C9.57732883,0.7 11.9106622,2.8 14,7 C11.9106622,11.2 9.57732883,13.3 7,13.3 C4.42267117,13.3 2.08933783,11.2 0,7 C2.08933783,2.8 4.42267117,0.7 7,0.7 Z M7,2.1 C5.2051818,2.1 3.39644962,3.6177224 1.63851511,6.87946009 L1.5743,7 L1.63851511,7.12053991 C3.35357317,10.302723 5.11698118,11.8249273 6.86864795,11.8972881 L7,11.9 C8.7948182,11.9 10.6035504,10.3822776 12.3614849,7.12053991 L12.425,7 L12.3614849,6.87946009 C10.6464268,3.69727697 8.88301882,2.17507273 7.13135205,2.10271189 L7,2.1 Z M7,4.2 C8.5463973,4.2 9.8,5.4536027 9.8,7 C9.8,8.5463973 8.5463973,9.8 7,9.8 C5.4536027,9.8 4.2,8.5463973 4.2,7 C4.2,5.4536027 5.4536027,4.2 7,4.2 Z M7,5.6 C6.22680135,5.6 5.6,6.22680135 5.6,7 C5.6,7.77319865 6.22680135,8.4 7,8.4 C7.77319865,8.4 8.4,7.77319865 8.4,7 C8.4,6.22680135 7.77319865,5.6 7,5.6 Z" id="形状结合"></path>
            </g>
        </g>
    </g>
</svg>