<?xml version="1.0" encoding="UTF-8"?>
<svg width="340px" height="418px" viewBox="0 0 340 418" version="1.1" xmlns="http://www.w3.org/2000/svg" xmlns:xlink="http://www.w3.org/1999/xlink">
    <title>编组</title>
    <g id="页面-1" stroke="none" stroke-width="1" fill="none" fill-rule="evenodd">
        <g id="推广分享" transform="translate(-22, -224)">
            <g id="编组" transform="translate(22, 224)">
                <path d="M327.509817,0.5 C327.637781,3.75295492 329.008849,6.68651874 331.161165,8.83883476 C333.313481,10.9911508 336.247045,12.362219 339.5,12.4901828 L339.5,405.509817 C336.247045,405.637781 333.313481,407.008849 331.161165,409.161165 C329.008849,411.313481 327.637781,414.247045 327.509817,417.5 L12.4901828,417.5 C12.362219,414.247045 10.9911508,411.313481 8.83883476,409.161165 C6.68651874,407.008849 3.75295492,405.637781 0.5,405.509817 L0.5,12.4901828 C3.75295492,12.362219 6.68651874,10.9911508 8.83883476,8.83883476 C10.9911508,6.68651874 12.362219,3.75295492 12.4901828,0.5 Z" id="矩形备份-2" stroke="#FFFFFF" fill-opacity="0.638166521" fill="#FFFFFF"></path>
                <path d="M24,12 L316,12 C316,18.627417 321.372583,24 328,24 L328,394 C321.372583,394 316,399.372583 316,406 L24,406 C24,399.372583 18.627417,394 12,394 L12,24 C18.627417,24 24,18.627417 24,12 Z" id="矩形备份" stroke="#02B879" opacity="0.196622984" stroke-linecap="round" stroke-linejoin="round" stroke-dasharray="2,3"></path>
            </g>
        </g>
    </g>
</svg>