<?xml version="1.0" encoding="UTF-8"?>
<svg width="340px" height="108px" viewBox="0 0 340 108" version="1.1" xmlns="http://www.w3.org/2000/svg" xmlns:xlink="http://www.w3.org/1999/xlink">
    <title>编组</title>
    <g id="页面-1" stroke="none" stroke-width="1" fill="none" fill-rule="evenodd">
        <g id="推广分享" transform="translate(-22, -108)">
            <g id="编组" transform="translate(22, 108)">
                <path d="M327.509817,0.5 C327.637781,3.75295492 329.008849,6.68651874 331.161165,8.83883476 C333.313481,10.9911508 336.247045,12.362219 339.5,12.4901828 L339.5,95.5098172 C336.247045,95.637781 333.313481,97.0088492 331.161165,99.1611652 C329.008849,101.313481 327.637781,104.247045 327.509817,107.5 L12.4901828,107.5 C12.362219,104.247045 10.9911508,101.313481 8.83883476,99.1611652 C6.68651874,97.0088492 3.75295492,95.637781 0.5,95.5098172 L0.5,12.4901828 C3.75295492,12.362219 6.68651874,10.9911508 8.83883476,8.83883476 C10.9911508,6.68651874 12.362219,3.75295492 12.4901828,0.5 Z" id="矩形" stroke="#FFFFFF" fill-opacity="0.638166521" fill="#FFFFFF"></path>
                <path d="M24,12 L316,12 C316,18.627417 321.372583,24 328,24 L328,84 C321.372583,84 316,89.372583 316,96 L24,96 C24,89.372583 18.627417,84 12,84 L12,24 C18.627417,24 24,18.627417 24,12 Z" id="矩形" stroke="#02B879" opacity="0.196622984" stroke-linecap="round" stroke-linejoin="round" stroke-dasharray="2,3"></path>
            </g>
        </g>
    </g>
</svg>