<?xml version="1.0" encoding="UTF-8"?>
<svg width="366px" height="105px" viewBox="0 0 366 105" version="1.1" xmlns="http://www.w3.org/2000/svg" xmlns:xlink="http://www.w3.org/1999/xlink">
    <title>形状结合备份</title>
    <defs>
        <rect id="path-1" x="0" y="0" width="366" height="105" rx="8"></rect>
        <linearGradient x1="50%" y1="0%" x2="50%" y2="100%" id="linearGradient-3">
            <stop stop-color="#4297FE" offset="0%"></stop>
            <stop stop-color="#4297FE" stop-opacity="0" offset="100%"></stop>
        </linearGradient>
    </defs>
    <g id="页面-1" stroke="none" stroke-width="1" fill="none" fill-rule="evenodd">
        <g id="首页" transform="translate(-12, -1064)">
            <g id="形状结合备份" transform="translate(12, 1064)">
                <mask id="mask-2" fill="white">
                    <use xlink:href="#path-1"></use>
                </mask>
                <rect stroke-opacity="0.205638112" stroke="#4297FE" x="0.5" y="0.5" width="365" height="104" rx="8"></rect>
                <path d="M320.527796,125.667048 C319.393777,125.725726 319.464838,127.400994 320.611546,127.353213 C321.745565,127.305851 321.515462,125.615914 320.527796,125.667048 L320.527796,125.667048 Z M314.345045,119.827291 C313.554488,120.002907 313.605669,121.230124 314.345468,121.393166 C315.839023,121.722603 315.834793,119.496596 314.345045,119.827291 L314.345045,119.827291 Z M320.130191,115.599094 C319.114607,115.780997 319.335405,117.399682 320.401324,117.291966 C321.542956,117.176705 321.271401,115.394558 320.130191,115.599094 L320.130191,115.599094 Z M324.897216,87.9632519 C324.115542,87.1886972 322.778491,88.4175902 323.701864,89.1975936 C324.577863,89.9377795 325.613327,88.6724221 324.897216,87.9632519 L324.897216,87.9632519 Z M318.204347,81.8196251 C317.170152,81.9876967 317.327079,83.5389017 318.371002,83.5070478 C319.510097,83.4722599 319.37009,81.6305969 318.204347,81.8196251 L318.204347,81.8196251 Z M324.893409,76.0025016 C324.113004,75.1571137 322.806831,76.4815687 323.69848,77.2364242 C324.498765,77.9137404 325.623056,76.7934024 324.893409,76.0025016 L324.893409,76.0025016 Z M344,156 C339.700372,155.802589 335.450656,155.028454 331.317684,153.888836 L331.317684,126.944141 L322.186314,126.944141 C322.157128,126.944141 322.076761,127.329742 321.966363,127.480629 C320.772703,129.111888 318.346892,127.866649 318.9065,125.956248 C319.269419,124.716877 321.013381,124.442346 321.866116,125.401318 C322.030233,125.586155 322.150361,126.039236 322.186314,126.039236 L331.317684,126.039236 L331.317684,123.526125 L323.860483,123.526125 C322.948531,122.758695 322.27218,121.707514 321.321736,121.01469 L316.298383,121.059537 C315.841561,122.544519 313.751176,122.806476 313.065942,121.353348 C312.275809,119.67808 314.311629,118.118073 315.74512,119.3017 C316.058128,119.559885 316.11227,119.916985 316.365637,120.194869 L321.810282,120.228819 L324.164608,122.62122 L331.317684,122.62122 L331.317684,116.890438 L322.03404,116.890438 C321.964671,116.890438 321.600482,117.71948 321.161425,117.934913 C319.073578,118.958851 317.585945,116.199709 319.352324,115.037039 C319.768963,114.762927 320.212673,114.708021 320.708833,114.78598 C321.524345,114.913395 321.94183,115.985533 322.03404,115.985533 L331.317684,115.985533 L331.317684,113.924246 L323.961999,106.434369 L304.481491,106.434369 C304.447652,106.434369 304.320334,106.565557 304.370669,106.640162 C305.837576,116.64357 310.94045,126.035883 318.635367,132.624627 L318.635367,148.359236 L316.310226,146.993287 C297.558942,134.808721 287.914493,112.669786 291.881656,90.6310227 C294.727913,74.8209704 304.67564,60.7063042 318.635367,52.6455708 L318.635367,68.3801795 C315.892742,70.8027585 313.406867,73.5195677 311.348629,76.5423427 C310.796636,77.3533618 310.235759,78.2155149 309.808123,79.0877272 L314.627598,79.0877272 L317.010687,76.2212881 L322.528085,76.1588375 C323.021284,75.049397 324.243706,74.4215382 325.325698,75.2224982 C326.830674,76.3361301 325.594716,78.9225894 323.577507,78.161447 C322.96545,77.9305056 322.706584,77.1261926 322.440527,77.076316 L317.489505,77.0976917 L315.014205,79.9737708 L309.220176,80.0135883 L308.083196,82.2043876 L316.707408,82.2043876 C316.747168,82.2043876 316.860951,81.7098127 317.058061,81.4960557 C317.975513,80.4993614 319.871748,80.9784285 320.04644,82.3640767 C320.322649,84.5536187 317.342729,85.1487851 316.639308,83.1051008 L307.829829,83.108873 C307.656405,83.1147409 307.625951,83.2157515 307.553198,83.3377187 C307.186471,83.9525843 306.880654,85.0318475 306.662817,85.722995 L315.033239,85.722995 C315.890627,86.5067706 316.645652,87.4565221 317.571986,88.1338383 L322.441796,88.1380297 C322.716313,88.0843809 322.786105,87.6111816 322.998866,87.3831742 C323.840603,86.4803653 325.459361,86.7775294 325.870078,87.9531928 C326.449143,89.6112762 324.547408,90.9914757 323.198937,89.8975429 C322.901156,89.6561233 322.678244,89.0852664 322.440527,89.0404194 L317.184956,89.0203011 C316.24551,88.2520334 315.498098,87.2268382 314.523967,86.5298228 L306.318931,86.521021 C305.445893,88.9645566 304.824107,91.5015585 304.430733,94.0678995 L323.961999,94.0678995 C326.432223,91.5619134 328.962088,89.0613759 331.315569,86.4749166 L331.321913,47.1201627 C335.391438,46.0417378 339.534562,45.308258 343.747479,45.000677 C343.832921,44.9901373 344,45.1053984 344,45.1556942 L344,92.4089778 L335.580935,100.351935 L344,107.892108 L344,156 Z M349.054904,75 L367.584517,93.3120947 L367.584517,109.134412 C365.695771,111.03233 363.603017,112.730206 361.688769,114.607458 L361.688769,140.830711 C376.105614,135.673021 387.066028,122.376852 389.083116,107.289398 L389.214801,107.122008 L402,107.122008 C401.037651,116.402875 397.568678,125.342761 392.154105,132.930712 C382.375516,146.634818 366.144338,155.565612 349.05365,156 L349.046961,143.748264 L349.261421,142.969175 L349.253896,108.856255 L349.356318,108.660346 L357.475251,101.322448 C355.716936,99.6907016 354.032616,97.9862128 352.315688,96.3131356 C351.835768,95.8452691 349.419025,93.7716949 349.278142,93.3674781 C349.220034,93.2005011 349.164851,92.7065961 349.150219,92.5024212 C348.803239,87.6890177 349.184918,82.2568898 349.049888,77.3339593 C349.028567,76.5573505 349.073298,75.7753688 349.054904,75 Z M349,45 C359.618448,45.3367375 370.043193,48.9163028 378.699873,54.9771578 C391.500625,63.9394904 400.387904,78.4208787 402,94.088606 L389.127134,94.088606 C388.091955,87.7270776 385.777581,81.4984829 381.986536,76.2838748 L381.986536,118.381509 C378.472209,122.893288 374.145337,126.792397 369.415545,130 L369.415545,64.263228 C363.725623,60.6308246 357.017712,58.4091122 350.256135,57.8765386 C350.026794,57.8585066 349,57.9616665 349,57.7247342 L349,45 Z" fill="url(#linearGradient-3)" opacity="0.100000001" mask="url(#mask-2)"></path>
                <path d="M-2.4722044,27.6670476 C-3.60622336,27.725726 -3.53516212,29.4009939 -2.38845365,29.3532129 C-1.25443469,29.305851 -1.48453776,27.6159136 -2.4722044,27.6670476 L-2.4722044,27.6670476 Z M-8.65495528,21.827291 C-9.44551157,22.002907 -9.39433056,23.2301235 -8.65453229,23.3931656 C-7.1609773,23.7226028 -7.16520713,21.4965964 -8.65495528,21.827291 L-8.65495528,21.827291 Z M-2.86980896,17.5990943 C-3.88539251,17.7809973 -3.66459509,19.3996824 -2.59867649,19.2919657 C-1.45704382,19.1767046 -1.72859928,17.3945582 -2.86980896,17.5990943 L-2.86980896,17.5990943 Z M1.8972159,-10.0367481 C1.11554226,-10.8113028 -0.22150881,-9.58240975 0.701864329,-8.80240637 C1.57786331,-8.06222047 2.61332709,-9.32757791 1.8972159,-10.0367481 L1.8972159,-10.0367481 Z M-4.79565316,-16.1803749 C-5.829848,-16.0123033 -5.67292109,-14.4610983 -4.62899763,-14.4929522 C-3.48990287,-14.5277401 -3.62991044,-16.3694031 -4.79565316,-16.1803749 L-4.79565316,-16.1803749 Z M1.89340905,-21.9974984 C1.11300436,-22.8428863 -0.193168911,-21.5184313 0.69848046,-20.7635758 C1.49876538,-20.0862596 2.62305571,-21.2065976 1.89340905,-21.9974984 L1.89340905,-21.9974984 Z M21,58 C16.700372,57.8025892 12.450656,57.0284536 8.31768355,55.8888356 L8.31768355,28.9441407 L-0.813685811,28.9441407 C-0.842871678,28.9441407 -0.923238557,29.3297415 -1.03363727,29.4806288 C-2.22729691,31.1118879 -4.6531077,29.8666487 -4.09350043,27.9562482 C-3.73058053,26.7168769 -1.98661926,26.4423459 -1.13388438,27.4013184 C-0.969766749,27.5861553 -0.849639415,28.0392362 -0.813685811,28.0392362 L8.31768355,28.0392362 L8.31768355,25.5261248 L0.860483168,25.5261248 C-0.0514694138,24.7586954 -0.727820146,23.7075141 -1.67826423,23.01469 L-6.70161714,23.0595371 C-7.1584394,24.5445193 -9.24882421,24.8064764 -9.9340576,23.3533481 C-10.7241909,21.6780802 -8.68837098,20.1180735 -7.25487965,21.3017003 C-6.94187181,21.5598852 -6.88772991,21.9169851 -6.63436275,22.1948692 L-1.18971821,22.2288188 L1.16460836,24.6212203 L8.31768355,24.6212203 L8.31768355,18.8904379 L-0.965959897,18.8904379 C-1.0353292,18.8904379 -1.39951806,19.7194796 -1.83857501,19.9349131 C-3.92642192,20.9588509 -5.41405514,18.1997095 -3.64767575,17.0370392 C-3.23103693,16.7629273 -2.78732716,16.7080211 -2.29116743,16.7859795 C-1.4756551,16.9133955 -1.05817032,17.9855334 -0.965959897,17.9855334 L8.31768355,17.9855334 L8.31768355,15.9242456 L0.961999226,8.43436895 L-18.5185092,8.43436895 C-18.5523479,8.43436895 -18.6796659,8.56555706 -18.6293309,8.64016243 C-17.1624239,18.6435695 -12.0595501,28.0358832 -4.3646329,34.6246274 L-4.3646329,50.3592361 L-6.6897736,48.9932872 C-25.4410583,36.8087207 -35.0855068,14.6697855 -31.1183439,-7.36897728 C-28.2720874,-23.1790296 -18.3243597,-37.2936958 -4.3646329,-45.3544292 L-4.3646329,-29.6198205 C-7.10725838,-27.1972415 -9.59313284,-24.4804323 -11.6513709,-21.4576573 C-12.2033645,-20.6466382 -12.7642407,-19.7844851 -13.1918771,-18.9122728 L-8.37240225,-18.9122728 L-5.9893128,-21.7787119 L-0.471915085,-21.8411625 C0.0212837606,-22.950603 1.24370628,-23.5784618 2.32569826,-22.7775018 C3.83067381,-21.6638699 2.59471581,-19.0774106 0.577507158,-19.838553 C-0.034550071,-20.0694944 -0.293416017,-20.8738074 -0.559472684,-20.923684 L-5.5104954,-20.9023083 L-7.98579526,-18.0262292 L-13.7798242,-17.9864117 L-14.9168041,-15.7956124 L-6.29259202,-15.7956124 C-6.25283157,-15.7956124 -6.13904899,-16.2901873 -5.94193864,-16.5039443 C-5.02448727,-17.5006386 -3.12825192,-17.0215715 -2.9535597,-15.6359233 C-2.67735143,-13.4463813 -5.6572707,-12.8512149 -6.36069238,-14.8948992 L-15.1701712,-14.891127 C-15.3435945,-14.8852591 -15.3740493,-14.7842485 -15.4468025,-14.6622813 C-15.8135293,-14.0474157 -16.1193464,-12.9681525 -16.3371829,-12.277005 L-7.966761,-12.277005 C-7.1093733,-11.4932294 -6.35434763,-10.5434779 -5.4280136,-9.86616165 L-0.558203734,-9.86197034 C-0.283687395,-9.91561915 -0.213895106,-10.3888184 -0.00113436873,-10.6168258 C0.84060294,-11.5196347 2.45936107,-11.2224706 2.87007812,-10.0468072 C3.44914263,-8.38872377 1.54740849,-7.00852435 0.198936861,-8.10245708 C-0.098843574,-8.34387672 -0.321755917,-8.91473357 -0.559472684,-8.95958062 L-5.81504357,-8.97969892 C-6.75449009,-9.74796662 -7.50190206,-10.7731618 -8.47603322,-11.4701772 L-16.6810686,-11.478979 C-17.5541067,-9.03544339 -18.1758925,-6.49844154 -18.5692672,-3.93210049 L0.961999226,-3.93210049 C3.43222329,-6.43808663 5.96208803,-8.93862405 8.31556863,-11.5250834 L8.32191339,-50.8798373 C12.3914383,-51.9582622 16.5345624,-52.691742 20.7474788,-52.999323 C20.8329215,-53.0098627 21,-52.8946016 21,-52.8443058 L21,-5.59102224 L12.580935,2.35193531 L21,9.89210767 L21,58 Z M26.0549042,-23 L44.5845172,-4.68790534 L44.5845172,11.1344124 C42.6957709,13.03233 40.6030166,14.7302058 38.6887693,16.6074579 L38.6887693,42.8307115 C53.1056142,37.6730211 64.0660282,24.3768516 66.0831156,9.28939835 L66.2148011,9.12200797 L79,9.12200797 C78.0376507,18.4028748 74.5686784,27.3427612 69.1541051,34.930712 C59.3755161,48.634818 43.1443377,57.5656116 26.0536501,58 L26.0469613,45.7482638 L26.2614205,44.9691753 L26.2538956,10.856255 L26.3563177,10.6603463 L34.4752513,3.32244781 C32.7169364,1.69070155 31.0326161,-0.0137871915 29.315688,-1.68686441 C28.8357675,-2.15473086 26.4190251,-4.22830507 26.2781425,-4.63252185 C26.2200336,-4.79949893 26.1648512,-5.29340389 26.1502194,-5.49757882 C25.8032386,-10.3109823 26.1849175,-15.7431102 26.0498876,-20.6660407 C26.0285671,-21.4426495 26.0732984,-22.2246312 26.0549042,-23 Z M26,-53 C36.6184479,-52.6632625 47.0431928,-49.0836972 55.6998734,-43.0228422 C68.500625,-34.0605096 77.3879044,-19.5791213 79,-3.91139397 L66.1271339,-3.91139397 C65.0919548,-10.2729224 62.7775809,-16.5015171 58.9865359,-21.7161252 L58.9865359,20.3815092 C55.4722095,24.8932879 51.1453366,28.7923974 46.4155447,32 L46.4155447,-33.736772 C40.725623,-37.3691754 34.0177122,-39.5908878 27.2561348,-40.1234614 C27.0267938,-40.1414934 26,-40.0383335 26,-40.2752658 L26,-53 Z" id="形状结合备份-2" fill="url(#linearGradient-3)" opacity="0.100000001" mask="url(#mask-2)" transform="translate(23.5, 2.5) rotate(-21) translate(-23.5, -2.5)"></path>
            </g>
        </g>
    </g>
</svg>