<?xml version="1.0" encoding="UTF-8"?>
<svg width="111px" height="111px" viewBox="0 0 111 111" version="1.1" xmlns="http://www.w3.org/2000/svg" xmlns:xlink="http://www.w3.org/1999/xlink">
    <title>形状结合备份@2x</title>
    <defs>
        <linearGradient x1="50%" y1="0%" x2="50%" y2="100%" id="linearGradient-1">
            <stop stop-color="#4297FE" offset="0%"></stop>
            <stop stop-color="#4297FE" stop-opacity="0" offset="100%"></stop>
        </linearGradient>
    </defs>
    <g id="页面-1" stroke="none" stroke-width="1" fill="none" fill-rule="evenodd" opacity="0.100000001">
        <g id="首页" transform="translate(-303, -1109)" fill="url(#linearGradient-1)">
            <g id="形状结合备份" transform="translate(12, 1064)">
                <path d="M320.527796,125.667048 C319.393777,125.725726 319.464838,127.400994 320.611546,127.353213 C321.745565,127.305851 321.515462,125.615914 320.527796,125.667048 L320.527796,125.667048 Z M314.345045,119.827291 C313.554488,120.002907 313.605669,121.230124 314.345468,121.393166 C315.839023,121.722603 315.834793,119.496596 314.345045,119.827291 L314.345045,119.827291 Z M320.130191,115.599094 C319.114607,115.780997 319.335405,117.399682 320.401324,117.291966 C321.542956,117.176705 321.271401,115.394558 320.130191,115.599094 L320.130191,115.599094 Z M324.897216,87.9632519 C324.115542,87.1886972 322.778491,88.4175902 323.701864,89.1975936 C324.577863,89.9377795 325.613327,88.6724221 324.897216,87.9632519 L324.897216,87.9632519 Z M318.204347,81.8196251 C317.170152,81.9876967 317.327079,83.5389017 318.371002,83.5070478 C319.510097,83.4722599 319.37009,81.6305969 318.204347,81.8196251 L318.204347,81.8196251 Z M324.893409,76.0025016 C324.113004,75.1571137 322.806831,76.4815687 323.69848,77.2364242 C324.498765,77.9137404 325.623056,76.7934024 324.893409,76.0025016 L324.893409,76.0025016 Z M344,156 C339.700372,155.802589 335.450656,155.028454 331.317684,153.888836 L331.317684,126.944141 L322.186314,126.944141 C322.157128,126.944141 322.076761,127.329742 321.966363,127.480629 C320.772703,129.111888 318.346892,127.866649 318.9065,125.956248 C319.269419,124.716877 321.013381,124.442346 321.866116,125.401318 C322.030233,125.586155 322.150361,126.039236 322.186314,126.039236 L331.317684,126.039236 L331.317684,123.526125 L323.860483,123.526125 C322.948531,122.758695 322.27218,121.707514 321.321736,121.01469 L316.298383,121.059537 C315.841561,122.544519 313.751176,122.806476 313.065942,121.353348 C312.275809,119.67808 314.311629,118.118073 315.74512,119.3017 C316.058128,119.559885 316.11227,119.916985 316.365637,120.194869 L321.810282,120.228819 L324.164608,122.62122 L331.317684,122.62122 L331.317684,116.890438 L322.03404,116.890438 C321.964671,116.890438 321.600482,117.71948 321.161425,117.934913 C319.073578,118.958851 317.585945,116.199709 319.352324,115.037039 C319.768963,114.762927 320.212673,114.708021 320.708833,114.78598 C321.524345,114.913395 321.94183,115.985533 322.03404,115.985533 L331.317684,115.985533 L331.317684,113.924246 L323.961999,106.434369 L304.481491,106.434369 C304.447652,106.434369 304.320334,106.565557 304.370669,106.640162 C305.837576,116.64357 310.94045,126.035883 318.635367,132.624627 L318.635367,148.359236 L316.310226,146.993287 C297.558942,134.808721 287.914493,112.669786 291.881656,90.6310227 C294.727913,74.8209704 304.67564,60.7063042 318.635367,52.6455708 L318.635367,68.3801795 C315.892742,70.8027585 313.406867,73.5195677 311.348629,76.5423427 C310.796636,77.3533618 310.235759,78.2155149 309.808123,79.0877272 L314.627598,79.0877272 L317.010687,76.2212881 L322.528085,76.1588375 C323.021284,75.049397 324.243706,74.4215382 325.325698,75.2224982 C326.830674,76.3361301 325.594716,78.9225894 323.577507,78.161447 C322.96545,77.9305056 322.706584,77.1261926 322.440527,77.076316 L317.489505,77.0976917 L315.014205,79.9737708 L309.220176,80.0135883 L308.083196,82.2043876 L316.707408,82.2043876 C316.747168,82.2043876 316.860951,81.7098127 317.058061,81.4960557 C317.975513,80.4993614 319.871748,80.9784285 320.04644,82.3640767 C320.322649,84.5536187 317.342729,85.1487851 316.639308,83.1051008 L307.829829,83.108873 C307.656405,83.1147409 307.625951,83.2157515 307.553198,83.3377187 C307.186471,83.9525843 306.880654,85.0318475 306.662817,85.722995 L315.033239,85.722995 C315.890627,86.5067706 316.645652,87.4565221 317.571986,88.1338383 L322.441796,88.1380297 C322.716313,88.0843809 322.786105,87.6111816 322.998866,87.3831742 C323.840603,86.4803653 325.459361,86.7775294 325.870078,87.9531928 C326.449143,89.6112762 324.547408,90.9914757 323.198937,89.8975429 C322.901156,89.6561233 322.678244,89.0852664 322.440527,89.0404194 L317.184956,89.0203011 C316.24551,88.2520334 315.498098,87.2268382 314.523967,86.5298228 L306.318931,86.521021 C305.445893,88.9645566 304.824107,91.5015585 304.430733,94.0678995 L323.961999,94.0678995 C326.432223,91.5619134 328.962088,89.0613759 331.315569,86.4749166 L331.321913,47.1201627 C335.391438,46.0417378 339.534562,45.308258 343.747479,45.000677 C343.832921,44.9901373 344,45.1053984 344,45.1556942 L344,92.4089778 L335.580935,100.351935 L344,107.892108 L344,156 Z M349.054904,75 L367.584517,93.3120947 L367.584517,109.134412 C365.695771,111.03233 363.603017,112.730206 361.688769,114.607458 L361.688769,140.830711 C376.105614,135.673021 387.066028,122.376852 389.083116,107.289398 L389.214801,107.122008 L402,107.122008 C401.037651,116.402875 397.568678,125.342761 392.154105,132.930712 C382.375516,146.634818 366.144338,155.565612 349.05365,156 L349.046961,143.748264 L349.261421,142.969175 L349.253896,108.856255 L349.356318,108.660346 L357.475251,101.322448 C355.716936,99.6907016 354.032616,97.9862128 352.315688,96.3131356 C351.835768,95.8452691 349.419025,93.7716949 349.278142,93.3674781 C349.220034,93.2005011 349.164851,92.7065961 349.150219,92.5024212 C348.803239,87.6890177 349.184918,82.2568898 349.049888,77.3339593 C349.028567,76.5573505 349.073298,75.7753688 349.054904,75 Z M349,45 C359.618448,45.3367375 370.043193,48.9163028 378.699873,54.9771578 C391.500625,63.9394904 400.387904,78.4208787 402,94.088606 L389.127134,94.088606 C388.091955,87.7270776 385.777581,81.4984829 381.986536,76.2838748 L381.986536,118.381509 C378.472209,122.893288 374.145337,126.792397 369.415545,130 L369.415545,64.263228 C363.725623,60.6308246 357.017712,58.4091122 350.256135,57.8765386 C350.026794,57.8585066 349,57.9616665 349,57.7247342 L349,45 Z"></path>
            </g>
        </g>
    </g>
</svg>