<?xml version="1.0" encoding="UTF-8"?>
<svg width="14px" height="14px" viewBox="0 0 14 14" version="1.1" xmlns="http://www.w3.org/2000/svg" xmlns:xlink="http://www.w3.org/1999/xlink">
    <title>编组</title>
    <defs>
        <linearGradient x1="50%" y1="0%" x2="50%" y2="100%" id="linearGradient-1">
            <stop stop-color="#FEDB99" offset="0%"></stop>
            <stop stop-color="#FF9E26" offset="100%"></stop>
        </linearGradient>
        <rect id="path-2" x="0" y="0" width="10" height="10"></rect>
    </defs>
    <g id="页面-1" stroke="none" stroke-width="1" fill="none" fill-rule="evenodd">
        <g id="首页" transform="translate(-24, -353)">
            <g id="编组" transform="translate(24, 353)">
                <circle id="椭圆形" fill="url(#linearGradient-1)" cx="7" cy="7" r="7"></circle>
                <g id="Icon/箭头右" transform="translate(2, 2)">
                    <mask id="mask-3" fill="white">
                        <use xlink:href="#path-2"></use>
                    </mask>
                    <g id="矩形"></g>
                    <path d="M6.18709201,1.63853058 C6.37305596,1.45382314 6.67456309,1.45382314 6.86052704,1.63853058 C7.04649099,1.82323801 7.04649099,2.12270793 6.86052704,2.30741537 L4.14933333,5 L6.86052704,7.69258463 C7.03409339,7.86497824 7.04566448,8.13734272 6.89524031,8.32306578 L6.86052704,8.36146942 C6.67456309,8.54617686 6.37305596,8.54617686 6.18709201,8.36146942 L3.13947296,5.3344424 C2.95350901,5.14973496 2.95350901,4.85026504 3.13947296,4.6655576 L6.18709201,1.63853058 Z" id="路径备份" fill="#FFFFFF" fill-rule="nonzero" mask="url(#mask-3)" transform="translate(5, 5) scale(-1, 1) translate(-5, -5)"></path>
                </g>
            </g>
        </g>
    </g>
</svg>