<?xml version="1.0" encoding="UTF-8"?>
<svg width="145px" height="145px" viewBox="0 0 145 145" version="1.1" xmlns="http://www.w3.org/2000/svg" xmlns:xlink="http://www.w3.org/1999/xlink">
    <title>形状结合备份 2@2x</title>
    <defs>
        <linearGradient x1="50%" y1="0%" x2="50%" y2="100%" id="linearGradient-1">
            <stop stop-color="#4297FE" offset="0%"></stop>
            <stop stop-color="#4297FE" stop-opacity="0" offset="100%"></stop>
        </linearGradient>
    </defs>
    <g id="页面-1" stroke="none" stroke-width="1" fill="none" fill-rule="evenodd" opacity="0.100000001">
        <g id="首页" transform="translate(37, -994)" fill="url(#linearGradient-1)">
            <g id="形状结合备份" transform="translate(12, 1064)">
                <path d="M-2.4722044,27.6670476 C-3.60622336,27.725726 -3.53516212,29.4009939 -2.38845365,29.3532129 C-1.25443469,29.305851 -1.48453776,27.6159136 -2.4722044,27.6670476 L-2.4722044,27.6670476 Z M-8.65495528,21.827291 C-9.44551157,22.002907 -9.39433056,23.2301235 -8.65453229,23.3931656 C-7.1609773,23.7226028 -7.16520713,21.4965964 -8.65495528,21.827291 L-8.65495528,21.827291 Z M-2.86980896,17.5990943 C-3.88539251,17.7809973 -3.66459509,19.3996824 -2.59867649,19.2919657 C-1.45704382,19.1767046 -1.72859928,17.3945582 -2.86980896,17.5990943 L-2.86980896,17.5990943 Z M1.8972159,-10.0367481 C1.11554226,-10.8113028 -0.22150881,-9.58240975 0.701864329,-8.80240637 C1.57786331,-8.06222047 2.61332709,-9.32757791 1.8972159,-10.0367481 L1.8972159,-10.0367481 Z M-4.79565316,-16.1803749 C-5.829848,-16.0123033 -5.67292109,-14.4610983 -4.62899763,-14.4929522 C-3.48990287,-14.5277401 -3.62991044,-16.3694031 -4.79565316,-16.1803749 L-4.79565316,-16.1803749 Z M1.89340905,-21.9974984 C1.11300436,-22.8428863 -0.193168911,-21.5184313 0.69848046,-20.7635758 C1.49876538,-20.0862596 2.62305571,-21.2065976 1.89340905,-21.9974984 L1.89340905,-21.9974984 Z M21,58 C16.700372,57.8025892 12.450656,57.0284536 8.31768355,55.8888356 L8.31768355,28.9441407 L-0.813685811,28.9441407 C-0.842871678,28.9441407 -0.923238557,29.3297415 -1.03363727,29.4806288 C-2.22729691,31.1118879 -4.6531077,29.8666487 -4.09350043,27.9562482 C-3.73058053,26.7168769 -1.98661926,26.4423459 -1.13388438,27.4013184 C-0.969766749,27.5861553 -0.849639415,28.0392362 -0.813685811,28.0392362 L8.31768355,28.0392362 L8.31768355,25.5261248 L0.860483168,25.5261248 C-0.0514694138,24.7586954 -0.727820146,23.7075141 -1.67826423,23.01469 L-6.70161714,23.0595371 C-7.1584394,24.5445193 -9.24882421,24.8064764 -9.9340576,23.3533481 C-10.7241909,21.6780802 -8.68837098,20.1180735 -7.25487965,21.3017003 C-6.94187181,21.5598852 -6.88772991,21.9169851 -6.63436275,22.1948692 L-1.18971821,22.2288188 L1.16460836,24.6212203 L8.31768355,24.6212203 L8.31768355,18.8904379 L-0.965959897,18.8904379 C-1.0353292,18.8904379 -1.39951806,19.7194796 -1.83857501,19.9349131 C-3.92642192,20.9588509 -5.41405514,18.1997095 -3.64767575,17.0370392 C-3.23103693,16.7629273 -2.78732716,16.7080211 -2.29116743,16.7859795 C-1.4756551,16.9133955 -1.05817032,17.9855334 -0.965959897,17.9855334 L8.31768355,17.9855334 L8.31768355,15.9242456 L0.961999226,8.43436895 L-18.5185092,8.43436895 C-18.5523479,8.43436895 -18.6796659,8.56555706 -18.6293309,8.64016243 C-17.1624239,18.6435695 -12.0595501,28.0358832 -4.3646329,34.6246274 L-4.3646329,50.3592361 L-6.6897736,48.9932872 C-25.4410583,36.8087207 -35.0855068,14.6697855 -31.1183439,-7.36897728 C-28.2720874,-23.1790296 -18.3243597,-37.2936958 -4.3646329,-45.3544292 L-4.3646329,-29.6198205 C-7.10725838,-27.1972415 -9.59313284,-24.4804323 -11.6513709,-21.4576573 C-12.2033645,-20.6466382 -12.7642407,-19.7844851 -13.1918771,-18.9122728 L-8.37240225,-18.9122728 L-5.9893128,-21.7787119 L-0.471915085,-21.8411625 C0.0212837606,-22.950603 1.24370628,-23.5784618 2.32569826,-22.7775018 C3.83067381,-21.6638699 2.59471581,-19.0774106 0.577507158,-19.838553 C-0.034550071,-20.0694944 -0.293416017,-20.8738074 -0.559472684,-20.923684 L-5.5104954,-20.9023083 L-7.98579526,-18.0262292 L-13.7798242,-17.9864117 L-14.9168041,-15.7956124 L-6.29259202,-15.7956124 C-6.25283157,-15.7956124 -6.13904899,-16.2901873 -5.94193864,-16.5039443 C-5.02448727,-17.5006386 -3.12825192,-17.0215715 -2.9535597,-15.6359233 C-2.67735143,-13.4463813 -5.6572707,-12.8512149 -6.36069238,-14.8948992 L-15.1701712,-14.891127 C-15.3435945,-14.8852591 -15.3740493,-14.7842485 -15.4468025,-14.6622813 C-15.8135293,-14.0474157 -16.1193464,-12.9681525 -16.3371829,-12.277005 L-7.966761,-12.277005 C-7.1093733,-11.4932294 -6.35434763,-10.5434779 -5.4280136,-9.86616165 L-0.558203734,-9.86197034 C-0.283687395,-9.91561915 -0.213895106,-10.3888184 -0.00113436873,-10.6168258 C0.84060294,-11.5196347 2.45936107,-11.2224706 2.87007812,-10.0468072 C3.44914263,-8.38872377 1.54740849,-7.00852435 0.198936861,-8.10245708 C-0.098843574,-8.34387672 -0.321755917,-8.91473357 -0.559472684,-8.95958062 L-5.81504357,-8.97969892 C-6.75449009,-9.74796662 -7.50190206,-10.7731618 -8.47603322,-11.4701772 L-16.6810686,-11.478979 C-17.5541067,-9.03544339 -18.1758925,-6.49844154 -18.5692672,-3.93210049 L0.961999226,-3.93210049 C3.43222329,-6.43808663 5.96208803,-8.93862405 8.31556863,-11.5250834 L8.32191339,-50.8798373 C12.3914383,-51.9582622 16.5345624,-52.691742 20.7474788,-52.999323 C20.8329215,-53.0098627 21,-52.8946016 21,-52.8443058 L21,-5.59102224 L12.580935,2.35193531 L21,9.89210767 L21,58 Z M26.0549042,-23 L44.5845172,-4.68790534 L44.5845172,11.1344124 C42.6957709,13.03233 40.6030166,14.7302058 38.6887693,16.6074579 L38.6887693,42.8307115 C53.1056142,37.6730211 64.0660282,24.3768516 66.0831156,9.28939835 L66.2148011,9.12200797 L79,9.12200797 C78.0376507,18.4028748 74.5686784,27.3427612 69.1541051,34.930712 C59.3755161,48.634818 43.1443377,57.5656116 26.0536501,58 L26.0469613,45.7482638 L26.2614205,44.9691753 L26.2538956,10.856255 L26.3563177,10.6603463 L34.4752513,3.32244781 C32.7169364,1.69070155 31.0326161,-0.0137871915 29.315688,-1.68686441 C28.8357675,-2.15473086 26.4190251,-4.22830507 26.2781425,-4.63252185 C26.2200336,-4.79949893 26.1648512,-5.29340389 26.1502194,-5.49757882 C25.8032386,-10.3109823 26.1849175,-15.7431102 26.0498876,-20.6660407 C26.0285671,-21.4426495 26.0732984,-22.2246312 26.0549042,-23 Z M26,-53 C36.6184479,-52.6632625 47.0431928,-49.0836972 55.6998734,-43.0228422 C68.500625,-34.0605096 77.3879044,-19.5791213 79,-3.91139397 L66.1271339,-3.91139397 C65.0919548,-10.2729224 62.7775809,-16.5015171 58.9865359,-21.7161252 L58.9865359,20.3815092 C55.4722095,24.8932879 51.1453366,28.7923974 46.4155447,32 L46.4155447,-33.736772 C40.725623,-37.3691754 34.0177122,-39.5908878 27.2561348,-40.1234614 C27.0267938,-40.1414934 26,-40.0383335 26,-40.2752658 L26,-53 Z" id="形状结合备份-2" transform="translate(23.5, 2.5) rotate(-21) translate(-23.5, -2.5)"></path>
            </g>
        </g>
    </g>
</svg>