<?xml version="1.0" encoding="UTF-8"?>
<svg width="24px" height="24px" viewBox="0 0 24 24" version="1.1" xmlns="http://www.w3.org/2000/svg" xmlns:xlink="http://www.w3.org/1999/xlink">
    <title>形状结合备份@2x</title>
    <g id="页面-1" stroke="none" stroke-width="1" fill="none" fill-rule="evenodd">
        <g id="首页" transform="translate(-12, -54)" fill="#FFBF3D">
            <g id="Bar/home/home" transform="translate(-0, 44)">
                <path d="M18.3594148,27.4415238 C18.1151806,27.454211 18.1304851,27.8164311 18.3774522,27.8061001 C18.6216864,27.7958597 18.572129,27.4304678 18.3594148,27.4415238 L18.3594148,27.4415238 Z M17.0278329,26.1788737 C16.8575704,26.2168448 16.8685933,26.4821889 17.027924,26.5174412 C17.3495916,26.5886709 17.3486807,26.1073722 17.0278329,26.1788737 L17.0278329,26.1788737 Z M18.2737825,25.264669 C18.0550558,25.3039994 18.1026091,25.6539854 18.3321764,25.6306953 C18.5780504,25.605774 18.5195654,25.220445 18.2737825,25.264669 L18.2737825,25.264669 Z M19.3004588,19.2893518 C19.1321094,19.1218805 18.8441481,19.3875871 19.0430154,19.5562365 C19.2316797,19.7162767 19.454688,19.4426859 19.3004588,19.2893518 L19.3004588,19.2893518 Z M17.8590126,17.961 C17.6362776,17.9973398 17.670075,18.3327355 17.8949052,18.3258482 C18.1402326,18.3183265 18.1100791,17.9201291 17.8590126,17.961 L17.8590126,17.961 Z M19.2996389,16.7032436 C19.1315628,16.520457 18.8502517,16.8068257 19.0422866,16.9700377 C19.2146444,17.1164844 19.4567833,16.8742492 19.2996389,16.7032436 L19.2996389,16.7032436 Z M23.4146341,34 C22.4886213,33.9573166 21.573358,33.7899359 20.6832379,33.543532 L20.6832379,27.717652 L18.7166107,27.717652 C18.7103249,27.717652 18.6930163,27.8010252 18.6692396,27.8336495 C18.4121606,28.1863541 17.8897127,27.9171132 18.0102355,27.5040537 C18.0883978,27.2360815 18.4639955,27.1767234 18.6476494,27.3840688 C18.6829955,27.4240336 18.7088674,27.521997 18.7166107,27.521997 L20.6832379,27.521997 L20.6832379,26.9786216 L19.0771772,26.9786216 C18.8807696,26.8126909 18.7351036,26.5854084 18.530406,26.4356087 L17.4485242,26.4453053 C17.3501382,26.7663826 16.8999311,26.8230219 16.7523521,26.508832 C16.5821807,26.1466119 17.0206362,25.8093132 17.3293678,26.0652325 C17.3967805,26.1210563 17.4084411,26.198267 17.4630089,26.2583501 L18.6356244,26.2656905 L19.1426768,26.7829666 L20.6832379,26.7829666 L20.6832379,25.5438785 L18.6838154,25.5438785 C18.6688753,25.5438785 18.5904397,25.7231307 18.4958798,25.7697109 C18.0462193,25.9911029 17.7258271,25.3945318 18.106253,25.1431436 C18.1959847,25.0838762 18.2915467,25.0720046 18.3984048,25.0888604 C18.5740421,25.1164098 18.663956,25.3482234 18.6838154,25.3482234 L20.6832379,25.3482234 L20.6832379,24.9025396 L19.0990408,23.2831068 L14.9035148,23.2831068 C14.896227,23.2831068 14.8688064,23.3114718 14.8796471,23.3276027 C15.1955755,25.4905015 16.2945838,27.521272 17.9518416,28.9458654 L17.9518416,32.3479429 L17.451075,32.0526026 C13.4126023,29.4181018 11.335473,24.631305 12.1898827,19.8661671 C12.8028822,16.4477774 14.9453289,13.3959577 17.9518416,11.6530964 L17.9518416,15.0551739 C17.3611611,15.5789748 16.8257772,16.166393 16.3824935,16.819966 C16.2636104,16.9953215 16.1428142,17.181733 16.050714,17.3703194 L17.0886865,17.3703194 L17.6019336,16.7505488 L18.790218,16.737046 C18.8964385,16.4971669 19.1597122,16.3614137 19.3927413,16.5345942 C19.7168685,16.7753795 19.4506797,17.3346139 19.0162326,17.1700426 C18.8844135,17.1201093 18.8286614,16.9462038 18.7713607,16.9354197 L17.7050567,16.9400414 L17.1719502,17.5618964 L15.9240876,17.5705056 L15.6792157,18.0441919 L17.5366162,18.0441919 C17.5451794,18.0441919 17.5696848,17.9372568 17.6121365,17.8910391 C17.8097285,17.6755376 18.2181215,17.7791197 18.2557451,18.0787193 C18.3152322,18.5521338 17.6734456,18.6808184 17.5219494,18.2389407 L15.6246479,18.2397563 C15.5872976,18.241025 15.5807386,18.2628652 15.5650697,18.2892365 C15.4860876,18.4221804 15.4202236,18.6555346 15.3733081,18.8049719 L17.1760496,18.8049719 C17.3607056,18.9744369 17.5233158,19.1797886 17.7228208,19.3262353 L18.771634,19.3271415 C18.8307567,19.3155418 18.8457879,19.2132285 18.8916103,19.1639295 C19.0728956,18.9687276 19.4215283,19.0329793 19.5099846,19.2871768 C19.634698,19.6456813 19.2251207,19.9441028 18.9346997,19.7075768 C18.8705666,19.655378 18.8225579,19.5319495 18.7713607,19.5222528 L17.639466,19.5179029 C17.437137,19.351791 17.2761665,19.1301272 17.0663674,18.9794211 L15.2992452,18.9775181 C15.1112186,19.5058501 14.9773043,20.054391 14.892583,20.6092756 L19.0990408,20.6092756 C19.6310541,20.0674407 20.1759122,19.526784 20.6827824,18.9675495 L20.6841489,10.4584135 C21.5606043,10.2252406 22.4529108,10.0666504 23.3602485,10.0001464 C23.3786504,9.99786753 23.4146341,10.0227888 23.4146341,10.0336636 L23.4146341,20.2505898 L21.6014163,21.967986 L23.4146341,23.5982935 L23.4146341,34 Z M24.5971906,16.4390244 L28.5879218,20.4091262 L28.5879218,23.839439 C28.1811416,24.2509117 27.7304242,24.6190148 27.3181519,25.0260071 L27.3181519,30.7112654 C30.4231143,29.5930669 32.7836637,26.7104285 33.2180847,23.439436 L33.2464459,23.4031454 L36,23.4031454 C35.7927384,25.4152574 35.0456243,27.3534442 33.8794851,28.9985283 C31.773466,31.9696082 28.2777497,33.9058237 24.5969205,34 L24.5954799,31.343797 L24.6416681,31.1748889 L24.6400475,23.7791339 L24.6621062,23.7366604 L26.4106846,22.1457881 C26.0319955,21.792022 25.6692427,21.4224852 25.2994671,21.0597584 C25.1961064,20.9583239 24.6756115,20.5087685 24.6452695,20.4211335 C24.6327546,20.3849325 24.6208699,20.2778528 24.6177187,20.2335872 C24.5429893,19.1900309 24.6251916,18.0123338 24.5961102,16.9450318 C24.5915184,16.7766614 24.6011522,16.607126 24.5971906,16.4390244 Z M24.5853659,10 C26.8722658,10.0730484 29.1174479,10.8495624 30.9818411,12.1643418 C33.7387448,14.1085379 35.6528022,17.2499811 36,20.6487765 L33.227565,20.6487765 C33.004618,19.2687721 32.5061702,17.9176049 31.6896911,16.7864015 L31.6896911,25.9186287 C30.932809,26.8973675 30.0009285,27.7432001 28.982271,28.4390244 L28.982271,14.1787662 C27.75683,13.3907901 26.3121442,12.9088347 24.8559002,12.7933036 C24.8065069,12.789392 24.5853659,12.8117704 24.5853659,12.7603728 L24.5853659,10 Z" id="形状结合备份"></path>
            </g>
        </g>
    </g>
</svg>