<?xml version="1.0" encoding="UTF-8"?>
<svg width="99px" height="22px" viewBox="0 0 99 22" version="1.1" xmlns="http://www.w3.org/2000/svg" xmlns:xlink="http://www.w3.org/1999/xlink">
    <title>编组</title>
    <defs>
        <linearGradient x1="50%" y1="0%" x2="50%" y2="99.7650787%" id="linearGradient-1">
            <stop stop-color="#4297FE" offset="0%"></stop>
            <stop stop-color="#4297FE" stop-opacity="0.243280157" offset="100%"></stop>
        </linearGradient>
    </defs>
    <g id="页面-1" stroke="none" stroke-width="1" fill="none" fill-rule="evenodd">
        <g id="首页" transform="translate(-146, -1080)">
            <g id="编组" transform="translate(146, 1080)">
                <text id="关于我们" fill-rule="nonzero" font-family="PingFangSC-Semibold, PingFang SC" font-size="18" font-weight="500" line-spacing="18" fill="#4297FE">
                    <tspan x="13" y="21">关于我们</tspan>
                </text>
                <g fill="url(#linearGradient-1)">
                    <path d="M90.8450425,0 C90.8626314,0.0527924932 90.911908,0.0542581832 90.9541215,0.0698000277 C91.72144,0.352539918 92.780323,0.662685445 92.9289498,1.61864716 C92.9424988,1.70578657 92.910234,1.83432482 92.9453295,1.90600535 C92.9618191,1.93968857 93.046411,1.97771354 93.0835677,2.01551728 C93.5823797,2.52286725 94.0816314,3.01871293 94.5108021,3.59044263 C94.5495803,3.57147162 94.5071194,3.5218594 94.4921688,3.49868491 C94.3576407,3.29000384 94.1680097,3.11047065 94.0354879,2.88088276 C93.6608155,2.23180334 93.518922,1.36643786 93.5622074,0.620291054 C93.5668794,0.540092924 93.6008481,0.212580354 93.6323708,0.166037784 C93.6691702,0.111668983 93.7147641,0.155529063 93.7537347,0.181441356 C94.4793343,0.663846935 95.1503807,2.31543063 94.8476582,3.15621124 C94.8146789,3.24783069 94.6487106,3.47315978 94.6458249,3.49257326 C94.6411803,3.52407176 94.6831739,3.80482053 94.696668,3.84538972 C94.7520182,4.01159343 95.1891864,4.58442932 95.3153872,4.79734152 C95.4174032,4.96943565 95.5083436,5.1505175 95.5956014,5.3304102 C95.6466368,5.33674309 95.6172028,5.27418854 95.610552,5.24636809 C95.4000616,4.36764547 95.2832324,3.73632026 95.5744122,2.83771404 C95.5948593,2.77457876 95.7671487,2.33852216 95.7906739,2.3237823 C95.9072558,2.25074669 96.0538488,2.60096363 96.0943309,2.68804774 C96.4339628,3.41909518 96.7492449,4.89933142 96.341181,5.62523512 C96.263075,5.76417146 96.0586033,5.90758784 96.0592904,6.03443916 C96.0607195,6.30407081 96.1081822,6.38460079 96.192884,6.62143417 C96.3524489,7.06758466 96.514927,7.51655592 96.6114739,7.98198162 C96.6606405,7.98820388 96.6380772,7.92006313 96.635219,7.88914537 C96.6180972,7.70410892 96.5647532,7.49498538 96.5565358,7.30516471 C96.5181699,6.41828401 96.8280105,5.59716577 97.3843988,4.92186986 C97.4830344,4.8628551 97.5400612,5.13207193 97.5643834,5.21420587 C97.8140367,6.05742007 97.8534745,7.81088305 97.1184757,8.42337553 C97.0728269,8.46140051 96.9246948,8.52998373 96.9184013,8.53974578 C96.9073532,8.55689159 96.8345789,8.90497913 96.8324077,8.9389942 C96.8175945,9.17154112 96.9416517,9.68480915 96.9679252,9.95715094 C96.9901312,10.1874302 96.9733118,10.4356019 97.0233854,10.6610416 L97.1410116,9.90991701 C97.3255308,9.29098103 97.6681858,8.67876509 98.1484194,8.24411888 C98.1931063,8.20368796 98.496406,7.95393992 98.5197938,7.9555992 C98.5993014,7.96121306 98.6165331,8.45625676 98.6151865,8.54818041 C98.6030666,9.37112385 98.2376284,10.9798154 97.4069897,11.3374714 C97.3360567,11.368002 97.2142256,11.3709057 97.1737985,11.4067183 C97.1613488,11.4177248 97.0426783,11.6819085 97.0359175,11.7099502 C96.9813917,11.93586 97.0159101,12.3796876 96.995298,12.6357961 C96.9696841,12.9539615 96.9131521,13.2709653 96.8860541,13.5888265 L97.1488442,13.0111787 C97.3957767,12.6102157 97.7058646,12.2436549 98.085264,11.9645101 C98.3444814,11.7737769 98.6743294,11.5668104 99,11.5451016 L99,11.8765411 C98.9304686,12.0207594 98.9142263,12.1812663 98.8630809,12.3326196 C98.6180722,13.0578319 97.9316354,14.3512895 97.0626582,14.3908354 C96.9890594,14.3941816 96.9216717,14.3572075 96.871818,14.361328 C96.8196557,14.3656422 96.6534675,14.6305725 96.6250503,14.6939014 C96.5113817,14.9473551 96.4354468,15.3077489 96.3296382,15.5844048 C96.1923894,15.9433053 96.0413991,16.2976704 95.870209,16.6414715 C95.8658942,16.7253753 95.8999454,16.660885 95.9201452,16.6363278 C96.0511555,16.4768441 96.1743882,16.2739428 96.3215858,16.1286736 C96.7803829,15.6759966 97.6502945,15.27885 98.3011685,15.3552871 C98.4976702,15.378351 98.3380779,15.7055593 98.290835,15.8171177 C97.9505985,16.6209242 96.9147735,17.6516084 95.9725273,17.5043481 C95.8951909,17.492263 95.6881908,17.3808706 95.6640884,17.3824193 C95.6486431,17.3833872 95.4128685,17.5235956 95.396159,17.5380313 C95.3121442,17.6105691 95.0956626,18.0131084 95.0018914,18.1431953 C94.8570298,18.3441608 94.7060121,18.5460941 94.5511743,18.7393716 C94.5031619,18.799299 94.2932211,19.008782 94.277501,19.0442351 C94.2721419,19.0563202 94.2704929,19.0895609 94.2908576,19.0851638 C94.930134,18.487909 95.8738917,18.3969533 96.6875461,18.6356395 C96.7807951,18.6629898 97.0990179,18.7582873 97.1069055,18.8520362 C97.1143808,18.9405307 96.8156158,19.2378445 96.7354486,19.3069808 C96.164302,19.7995909 94.9587435,20.3015759 94.2408665,19.936702 C94.1516025,19.891321 93.926134,19.6760305 93.9004101,19.6692551 C93.6517737,19.6037968 93.3593572,19.9540967 93.1767617,20.0912079 C92.8698344,20.3217084 92.5463623,20.5303618 92.2180534,20.7288107 L92.8895945,20.5756876 C93.4852831,20.5560529 94.0710231,20.750879 94.5661524,21.0733308 C94.6340348,21.1175504 94.98029,21.3660263 94.9845773,21.4186252 C94.9956528,21.5539941 94.3903177,21.8105175 94.2644742,21.8482107 C93.4488135,22.0926214 92.2781856,22.1143302 91.7284481,21.3592233 C91.6986568,21.3183499 91.6827992,21.2296895 91.6506169,21.2097229 C91.4008537,21.0549129 90.9698966,21.2913867 90.7076837,21.3638693 C90.5657627,21.403111 89.6686707,21.6317587 89.6093079,21.5711953 C89.6021899,21.4723303 89.6072192,21.3726357 89.691976,21.3088367 C89.9782364,21.2563208 90.2630677,21.1950384 90.542952,21.1153104 C90.6549717,21.083397 91.4386699,20.8290307 91.4702476,20.7912546 C91.4806361,20.7788101 91.5474467,20.5097315 91.5494254,20.4761036 C91.5604735,20.2883847 91.5163087,20.048371 91.5303524,19.8437275 C91.587599,19.0107455 92.1799348,18.0887989 92.9134495,17.6996167 C92.9798753,17.6643572 93.1145958,17.5660453 93.1226757,17.6874764 C92.9241952,18.6413087 92.959593,19.7767206 92.1355776,20.4384105 C92.4483039,20.2944963 92.7642731,20.0786804 93.0393205,19.8701099 C93.1595575,19.778933 93.7080583,19.3416319 93.7275436,19.2366277 C93.8018845,18.8361901 93.5653404,18.503755 93.5349445,18.1057787 C93.4606036,17.1327265 93.7614299,16.2163938 94.3864426,15.4802579 C94.4423975,15.4451919 94.4896129,15.4723487 94.496566,15.5365349 C94.5346022,16.386718 94.8404577,17.3741229 94.5375153,18.2008827 C94.4799115,18.3580986 94.3695407,18.4907851 94.3049838,18.6433828 C94.6007806,18.3095926 94.8792359,17.9449953 95.1123996,17.5638606 C95.2916971,17.2708332 95.4648934,17.0683191 95.3130786,16.7038048 C95.2770213,16.6171908 95.1540909,16.4899247 95.1008293,16.3925531 C94.7401182,15.7329926 94.6395313,14.87172 94.7790063,14.1350864 C94.804153,14.0023999 95.0244822,13.2355122 95.0999499,13.187421 C95.2026255,13.1220734 95.1849266,13.2422323 95.2169989,13.320384 C95.5931829,14.2372975 96.0989205,15.2626997 95.7877058,16.2679141 L96.0475552,15.687335 C96.2146504,15.2079438 96.3645138,14.724349 96.4950844,14.2333705 C96.4970632,14.211883 96.3404389,13.8623297 96.3215308,13.8389064 C96.261426,13.7644327 96.026476,13.6269068 95.9373494,13.5348448 C95.4816029,13.0638882 95.1680247,12.1794964 95.1287243,11.5309978 C95.1221834,11.4230898 95.1234476,10.496193 95.2245567,10.4960824 C95.8155733,11.3153201 96.6571227,12.1169695 96.6663844,13.2021332 L96.7176397,12.9917376 C96.7504542,12.5787725 96.821662,12.1657798 96.831968,11.7533678 C96.8348812,11.6375507 96.8513983,11.3220678 96.8252347,11.2331032 C96.8207825,11.2179485 96.6553638,10.9951636 96.6394513,10.9780731 C96.5803359,10.914523 96.3022379,10.8308404 96.1909053,10.7663777 C95.4580777,10.3418807 94.9559128,9.26318823 94.8816819,8.43750699 C94.8710186,8.31886907 94.9006724,8.19760397 94.8568924,8.08101248 L94.9454418,8.04149416 C95.5508045,8.58081276 96.3096033,9.01208511 96.6321409,9.7977779 L96.7756558,10.2744313 C96.750674,9.90728983 96.7166778,9.52878231 96.6581121,9.16399143 C96.6249404,8.95724619 96.5313067,8.37058304 96.4525136,8.21076752 C96.4305274,8.16616077 96.2443043,8.00836403 96.2008266,7.99442615 C96.1031254,7.96306592 95.9731045,7.9907481 95.8632284,7.97495737 C95.082993,7.86290122 94.4228298,7.06669971 94.1271703,6.37926347 C94.0963072,6.30755528 93.9406174,5.90891526 93.9477904,5.86995003 C93.9581239,5.81386665 94.0190257,5.83881103 94.0517851,5.8468585 C94.2275648,5.89005487 94.6412352,6.06709916 94.8259743,6.14585925 C95.3273972,6.35965641 95.8005128,6.60655603 96.1166744,7.07068197 C95.9742038,6.54026813 95.7308165,6.04138045 95.510185,5.54047399 C95.4820426,5.50831177 95.2453886,5.41837925 95.1975412,5.41777085 C95.110943,5.41666467 94.9711932,5.48566272 94.8673908,5.49611613 C94.106943,5.57274682 93.113414,4.95361726 92.7988464,4.26294543 C92.7870563,4.23706079 92.7353887,4.12168611 92.782027,4.11504902 C93.5815552,4.17912456 94.4903824,4.08933031 95.0732641,4.75060537 C95.0948931,4.72604815 94.7831562,4.24311714 94.7446254,4.18382583 C94.6858398,4.09345083 94.2920394,3.5135907 94.2502106,3.49348586 C94.231275,3.48438752 93.9931644,3.45449297 93.9674955,3.45786682 C93.909397,3.46549947 93.7834435,3.55728485 93.7077835,3.58394382 C92.9680302,3.84469836 92.1430804,3.54710798 91.6272291,2.98328748 C91.5871318,2.93945505 91.4024477,2.73619427 91.4756892,2.69205765 C92.126151,2.61523337 92.7385218,2.4029019 93.3783477,2.65807023 C93.4716792,2.69529323 93.5540725,2.78362179 93.6456175,2.77593383 C93.512656,2.61678202 93.3730711,2.46006381 93.2208716,2.31932992 C93.1606843,2.26368901 92.8961353,2.02254153 92.8483978,2.00351522 C92.7698521,1.97221029 92.681605,1.99715468 92.5961336,1.98105974 C91.7180047,1.81551974 91.056852,1.12988103 90.7978271,0.282242109 C90.7736148,0.203067196 90.7260971,0.076630696 90.7626767,0 L90.8450425,0 Z" id="Fill-1"></path>
                    <path d="M1.23801284,0 C1.25560181,0.0527924932 1.30487838,0.0542581832 1.34709189,0.0698000277 C2.11441038,0.352539918 3.1732934,0.662685445 3.32192013,1.61864716 C3.33546913,1.70578657 3.30320438,1.83432482 3.33829986,1.90600535 C3.35478951,1.93968857 3.43938142,1.97771354 3.47653811,2.01551728 C3.97535009,2.52286725 4.47460179,3.01871293 4.90377248,3.59044263 C4.94255064,3.57147162 4.90008979,3.5218594 4.88513917,3.49868491 C4.75061109,3.29000384 4.56098009,3.11047065 4.42845825,2.88088276 C4.05378587,2.23180334 3.91189241,1.36643786 3.95517775,0.620291054 C3.95984982,0.540092924 3.9938185,0.212580354 4.02534122,0.166037784 C4.06214062,0.111668983 4.10773451,0.155529063 4.14670506,0.181441356 C4.87230472,0.663846935 5.54335112,2.31543063 5.24062859,3.15621124 C5.20764929,3.24783069 5.04168094,3.47315978 5.03879525,3.49257326 C5.03415066,3.52407176 5.07614431,3.80482053 5.08963834,3.84538972 C5.14498861,4.01159343 5.58215677,4.58442932 5.70835758,4.79734152 C5.81037356,4.96943565 5.90131399,5.1505175 5.98857173,5.3304102 C6.03960721,5.33674309 6.01017318,5.27418854 6.00352235,5.24636809 C5.79303194,4.36764547 5.67620276,3.73632026 5.96738253,2.83771404 C5.9878297,2.77457876 6.16011908,2.33852216 6.18364432,2.3237823 C6.30022616,2.25074669 6.44681917,2.60096363 6.48730127,2.68804774 C6.82693314,3.41909518 7.14221529,4.89933142 6.73415136,5.62523512 C6.65604538,5.76417146 6.45157369,5.90758784 6.45226076,6.03443916 C6.45368986,6.30407081 6.50115258,6.38460079 6.58585442,6.62143417 C6.74541929,7.06758466 6.90789733,7.51655592 7.00444425,7.98198162 C7.05361089,7.98820388 7.03104755,7.92006313 7.02818935,7.88914537 C7.01106759,7.70410892 6.95772356,7.49498538 6.94950622,7.30516471 C6.9111403,6.41828401 7.22098086,5.59716577 7.77736921,4.92186986 C7.87600482,4.8628551 7.93303153,5.13207193 7.95735377,5.21420587 C8.2070071,6.05742007 8.24644486,7.81088305 7.51144609,8.42337553 C7.46579723,8.46140051 7.31766519,8.52998373 7.31137164,8.53974578 C7.30032357,8.55689159 7.22754924,8.90497913 7.2253781,8.9389942 C7.2105649,9.17154112 7.33462205,9.68480915 7.36089556,9.95715094 C7.38310163,10.1874302 7.36628218,10.4356019 7.41635576,10.6610416 L7.53398195,9.90991701 C7.71850116,9.29098103 8.06115613,8.67876509 8.54138977,8.24411888 C8.58607673,8.20368796 8.8893764,7.95393992 8.91276422,7.9555992 C8.99227183,7.96121306 9.00950351,8.45625676 9.00815686,8.54818041 C8.99603697,9.37112385 8.63059879,10.9798154 7.79996004,11.3374714 C7.72902705,11.368002 7.607196,11.3709057 7.56676887,11.4067183 C7.55431918,11.4177248 7.43564865,11.6819085 7.4288879,11.7099502 C7.37436211,11.93586 7.40888045,12.3796876 7.38826839,12.6357961 C7.36265446,12.9539615 7.30612243,13.2709653 7.27902444,13.5888265 L7.54181453,13.0111787 C7.78874707,12.6102157 8.09883499,12.2436549 8.4782344,11.9645101 C8.73745174,11.7737769 9.06729975,11.5668104 9.39297038,11.5451016 L9.39297038,11.8765411 C9.32343901,12.0207594 9.3071967,12.1812663 9.2560513,12.3326196 C9.01104255,13.0578319 8.32460581,14.3512895 7.45562862,14.3908354 C7.3820298,14.3941816 7.31464209,14.3572075 7.26478837,14.361328 C7.21262611,14.3656422 7.04643789,14.6305725 7.01802073,14.6939014 C6.90435206,14.9473551 6.82841721,15.3077489 6.72260861,15.5844048 C6.58535973,15.9433053 6.43436948,16.2976704 6.26317941,16.6414715 C6.25886462,16.7253753 6.29291575,16.660885 6.31311557,16.6363278 C6.44412586,16.4768441 6.56735853,16.2739428 6.71455616,16.1286736 C7.17335325,15.6759966 8.04326486,15.27885 8.69413892,15.3552871 C8.8906406,15.378351 8.73104825,15.7055593 8.6838054,15.8171177 C8.34356891,16.6209242 7.30774392,17.6516084 6.3654977,17.5043481 C6.28816123,17.492263 6.08116113,17.3808706 6.05705876,17.3824193 C6.04161345,17.3833872 5.8058389,17.5235956 5.78912939,17.5380313 C5.70511461,17.6105691 5.48863296,18.0131084 5.3948618,18.1431953 C5.25000021,18.3441608 5.09898248,18.5460941 4.94414464,18.7393716 C4.89613227,18.799299 4.68619152,19.008782 4.67047138,19.0442351 C4.66511224,19.0563202 4.66346328,19.0895609 4.683828,19.0851638 C5.32310433,18.487909 6.2668621,18.3969533 7.08051651,18.6356395 C7.17376549,18.6629898 7.4919883,18.7582873 7.49987585,18.8520362 C7.50735116,18.9405307 7.20858614,19.2378445 7.12841895,19.3069808 C6.55727236,19.7995909 5.35171388,20.3015759 4.63383687,19.936702 C4.54457288,19.891321 4.31910437,19.6760305 4.29338052,19.6692551 C4.04474404,19.6037968 3.75232754,19.9540967 3.56973212,20.0912079 C3.26280473,20.3217084 2.93933272,20.5303618 2.61102374,20.7288107 L3.28256483,20.5756876 C3.87825352,20.5560529 4.46399345,20.750879 4.95912274,21.0733308 C5.02700514,21.1175504 5.37326036,21.3660263 5.37754767,21.4186252 C5.38862322,21.5539941 4.78328808,21.8105175 4.65744455,21.8482107 C3.8417839,22.0926214 2.67115601,22.1143302 2.12141848,21.3592233 C2.09162718,21.3183499 2.07576963,21.2296895 2.04358732,21.2097229 C1.79382406,21.0549129 1.362867,21.2913867 1.10065404,21.3638693 C0.9587331,21.403111 0.061641051,21.6317587 0.00227830284,21.5711953 C-0.00483973039,21.4723303 0.000189613555,21.3726357 0.0849464263,21.3088367 C0.37120679,21.2563208 0.65603805,21.1950384 0.935922415,21.1153104 C1.04794212,21.083397 1.83164033,20.8290307 1.86321801,20.7912546 C1.87360649,20.7788101 1.94041707,20.5097315 1.94239582,20.4761036 C1.95344389,20.2883847 1.90927911,20.048371 1.92332279,19.8437275 C1.98056937,19.0107455 2.57290516,18.0887989 3.30641986,17.6996167 C3.37284568,17.6643572 3.50756614,17.5660453 3.51564607,17.6874764 C3.31716562,18.6413087 3.3525634,19.7767206 2.528548,20.4384105 C2.84127425,20.2944963 3.15724347,20.0786804 3.43229087,19.8701099 C3.55252792,19.778933 4.10102872,19.3416319 4.12051399,19.2366277 C4.19485484,18.8361901 3.95831078,18.503755 3.92791486,18.1057787 C3.85357401,17.1327265 4.15440023,16.2163938 4.77941302,15.4802579 C4.8353679,15.4451919 4.88258327,15.4723487 4.88953641,15.5365349 C4.92757254,16.386718 5.23342811,17.3741229 4.93048571,18.2008827 C4.87288186,18.3580986 4.76251112,18.4907851 4.69795413,18.6433828 C4.99375101,18.3095926 5.27220627,17.9449953 5.50536996,17.5638606 C5.68466744,17.2708332 5.85786376,17.0683191 5.70604903,16.7038048 C5.66999165,16.6171908 5.5470613,16.4899247 5.49379972,16.3925531 C5.13308857,15.7329926 5.0325017,14.87172 5.17197667,14.1350864 C5.19712339,14.0023999 5.41745263,13.2355122 5.49292027,13.187421 C5.59559584,13.1220734 5.57789694,13.2422323 5.60996932,13.320384 C5.98615325,14.2372975 6.49189089,15.2626997 6.18067618,16.2679141 L6.44052562,15.687335 C6.60762076,15.2079438 6.75748422,14.724349 6.88805478,14.2333705 C6.89003354,14.211883 6.73340933,13.8623297 6.71450119,13.8389064 C6.65439641,13.7644327 6.41944635,13.6269068 6.33031978,13.5348448 C5.87457327,13.0638882 5.56099505,12.1794964 5.52169471,11.5309978 C5.51515382,11.4230898 5.51641802,10.496193 5.61752708,10.4960824 C6.2085437,11.3153201 7.0500931,12.1169695 7.05935479,13.2021332 L7.11061012,12.9917376 C7.14342453,12.5787725 7.21463235,12.1657798 7.22493838,11.7533678 C7.22785155,11.6375507 7.24436869,11.3220678 7.21820511,11.2331032 C7.2137529,11.2179485 7.0483342,10.9951636 7.03242169,10.9780731 C6.97330629,10.914523 6.6952083,10.8308404 6.58387566,10.7663777 C5.85104803,10.3418807 5.34888316,9.26318823 5.27465224,8.43750699 C5.26398893,8.31886907 5.29364282,8.19760397 5.2498628,8.08101248 L5.33841223,8.04149416 C5.94377485,8.58081276 6.70257368,9.01208511 7.02511128,9.7977779 L7.16862622,10.2744313 C7.14364439,9.90728983 7.10964823,9.52878231 7.05108248,9.16399143 C7.0179108,8.95724619 6.92427705,8.37058304 6.845484,8.21076752 C6.8234978,8.16616077 6.63727466,8.00836403 6.59379694,7.99442615 C6.49609575,7.96306592 6.36607484,7.9907481 6.25619879,7.97495737 C5.47596341,7.86290122 4.81580018,7.06669971 4.52014072,6.37926347 C4.48927758,6.30755528 4.33358778,5.90891526 4.34076078,5.86995003 C4.3510943,5.81386665 4.41199608,5.83881103 4.44475552,5.8468585 C4.62053522,5.89005487 5.03420563,6.06709916 5.2189447,6.14585925 C5.72036754,6.35965641 6.19348315,6.60655603 6.50964475,7.07068197 C6.36717415,6.54026813 6.12378688,6.04138045 5.90315534,5.54047399 C5.875013,5.50831177 5.638359,5.41837925 5.59051153,5.41777085 C5.50391337,5.41666467 5.36416357,5.48566272 5.26036121,5.49611613 C4.49991341,5.57274682 3.50638438,4.95361726 3.19181678,4.26294543 C3.18002668,4.23706079 3.1283591,4.12168611 3.17499733,4.11504902 C3.97452561,4.17912456 4.88335279,4.08933031 5.46623452,4.75060537 C5.48786344,4.72604815 5.17612657,4.24311714 5.13759575,4.18382583 C5.07881014,4.09345083 4.68500976,3.5135907 4.64318101,3.49348586 C4.62424539,3.48438752 4.38613481,3.45449297 4.36046592,3.45786682 C4.30236738,3.46549947 4.17641391,3.55728485 4.10075389,3.58394382 C3.36100061,3.84469836 2.53605079,3.54710798 2.0201995,2.98328748 C1.98010216,2.93945505 1.79541806,2.73619427 1.8686596,2.69205765 C2.51912141,2.61523337 3.13149213,2.4029019 3.77131812,2.65807023 C3.86464956,2.69529323 3.94704285,2.78362179 4.0385879,2.77593383 C3.90562634,2.61678202 3.76604144,2.46006381 3.61384194,2.31932992 C3.55365471,2.26368901 3.28910573,2.02254153 3.24136818,2.00351522 C3.16282247,1.97221029 3.07457535,1.99715468 2.98910399,1.98105974 C2.11097504,1.81551974 1.44982243,1.12988103 1.19079747,0.282242109 C1.16658517,0.203067196 1.11906749,0.076630696 1.15564703,0 L1.23801284,0 Z" id="Fill-1备份" transform="translate(4.6965, 11) scale(-1, 1) translate(-4.6965, -11)"></path>
                </g>
            </g>
        </g>
    </g>
</svg>