<?xml version="1.0" encoding="UTF-8"?>
<svg width="20px" height="20px" viewBox="0 0 20 20" version="1.1" xmlns="http://www.w3.org/2000/svg" xmlns:xlink="http://www.w3.org/1999/xlink">
    <title>Icon/通知</title>
    <g id="页面-1" stroke="none" stroke-width="1" fill="none" fill-rule="evenodd">
        <g id="首页" transform="translate(-21, -106)" fill="#FFFFFF" fill-rule="nonzero">
            <g id="Icon/通知" transform="translate(21, 106)">
                <path d="M18.4550817,16.0993997 C18.3823243,14.492523 17.5979083,13.0014674 16.3149169,12.0312718 L16.3149169,7.54292894 C16.3149169,4.95043976 14.4595491,2.76839313 12.0080623,2.25324585 L12.0080623,2.14993718 C12.0080623,0.96747173 11.0377984,0 9.85254083,0 C8.66728326,0 7.69701941,0.96747173 7.69701941,2.15133324 L7.69701941,2.25464191 C5.2455326,2.76839313 3.39016474,4.9490437 3.39016474,7.54292894 L3.39016474,12.0326679 C2.1068685,13.0026047 1.32237141,14.4938144 1.25,16.1007958 L3.39016474,16.1007958 L3.39016474,16.1147564 L16.3149169,16.1147564 L16.3149169,16.1007958 L18.4550817,16.1007958 L18.4550817,16.0993997 L18.4550817,16.0993997 Z M9.39742426,20 L9.93211643,20 C11.3351598,20 12.5008725,18.9417842 12.6711922,17.5862069 L7.03947368,17.5862069 C7.21685338,18.9644504 8.38894105,19.9973452 9.77854949,20 L9.39742426,20 L9.39742426,20 Z" id="形状"></path>
            </g>
        </g>
    </g>
</svg>