<?xml version="1.0" encoding="UTF-8"?>
<svg width="16px" height="16px" viewBox="0 0 16 16" version="1.1" xmlns="http://www.w3.org/2000/svg" xmlns:xlink="http://www.w3.org/1999/xlink">
    <title>Icon/客服</title>
    <g id="页面-1" stroke="none" stroke-width="1" fill="none" fill-rule="evenodd">
        <g id="首页" transform="translate(-362, -58)" fill="#FFFFFF" fill-rule="nonzero">
            <g id="Bar/home/home" transform="translate(-0, 44)">
                <g id="Icon/客服" transform="translate(362, 14)">
                    <path d="M1.59963997,10.8002699 C0.71618321,10.8002699 0,10.0840867 0,9.20062991 L0,7.59978991 C0,6.71656784 0.716417902,6.00014993 1.59963997,6.00014993 L1.60324006,6.00014993 L1.60324006,6.03255074 C1.60324006,2.70246753 4.41131023,0 7.99939989,0 C11.5766893,0 14.3763592,2.68566711 14.3955597,6.00014993 L14.4003598,6.00014993 C15.2835819,6.00014993 16,6.71656784 16,7.59978991 L16,9.20062991 C16,10.083852 15.2835819,10.8002699 14.4003598,10.8002699 L14.3547587,10.8002699 C14.047551,14.6151652 11.9990998,16 8.79981989,16 L8.79981989,15.9495986 C8.66926494,15.9831308 8.53500235,16 8.40020991,16 L7.59978991,16 C6.71633314,16 6.00014993,15.2838166 6.00014993,14.4003598 C6.00014993,13.5169031 6.71633314,12.8007199 7.59978991,12.8007199 L8.40020991,12.8007199 C9.19942988,12.8007199 9.86184643,13.3863345 9.9806494,14.1519536 C11.844296,13.8675465 12.7947197,12.7443185 12.7947197,9.74784358 L12.7947197,7.59978991 L12.7971198,7.59978991 L12.7971198,6.03255074 C12.7971198,3.68289203 10.7858695,1.59963997 8.00059992,1.59963997 C5.21533032,1.59963997 3.20047997,3.68289203 3.20047997,6.03255074 L3.20047997,9.20423 C3.20031411,9.43857869 3.14869772,9.67003314 3.0492762,9.88224694 L3.01927545,9.94104841 C3.00517958,9.96924314 2.98996716,9.99686569 2.97367431,10.0238505 L2.94727365,10.0658515 C2.87527185,10.1786543 2.79006972,10.2806569 2.69286729,10.3706591 L2.65206627,10.40666 C2.63281309,10.425092 2.61279498,10.4427079 2.59206477,10.4594614 C2.57286429,10.4714617 2.55366381,10.485862 2.53566336,10.4990624 C2.51162151,10.5173319 2.4867975,10.5345485 2.4612615,10.5506636 L2.4252606,10.5734642 C2.39411545,10.5929452 2.36207995,10.6109652 2.3292582,10.6274656 L2.31125775,10.6346657 C2.27525685,10.6538662 2.23805593,10.6706666 2.19845494,10.686267 L2.16125401,10.7006674 C2.03405083,10.7486686 1.89724741,10.7810694 1.7568439,10.7942697 L1.60204003,10.8014699 L1.59963997,10.8014699 L1.59963997,10.8002699 Z" id="路径"></path>
                </g>
            </g>
        </g>
    </g>
</svg>