<?xml version="1.0" encoding="UTF-8"?>
<svg width="12px" height="12px" viewBox="0 0 12 12" version="1.1" xmlns="http://www.w3.org/2000/svg" xmlns:xlink="http://www.w3.org/1999/xlink">
    <title>Icon/充值</title>
    <g id="页面-1" stroke="none" stroke-width="1" fill="none" fill-rule="evenodd">
        <g id="团队" transform="translate(-24, -385)" fill="#676563">
            <g id="Icon/充值" transform="translate(24, 385)">
                <path d="M7.20918172,0.257110053 L7.335985,0.325404911 L10.428687,2.11097725 C11.1801775,2.54485046 11.6431147,3.34668123 11.6431147,4.21442766 L11.6431147,7.78557234 C11.6431147,8.65331877 11.1801775,9.45514954 10.428687,9.88902275 L7.335985,11.6745951 C6.58449454,12.1084683 5.65862012,12.1084683 4.90712967,11.6745951 L1.81442766,9.88902275 C1.06293721,9.45514954 0.6,8.65331877 0.6,7.78557234 L0.6,4.21442766 C0.6,3.34668123 1.06293721,2.54485046 1.81442766,2.11097725 L4.90712967,0.325404911 C5.61687065,-0.0843642363 6.48215783,-0.107129189 7.20918172,0.257110053 Z M7.7268163,3.98582723 L7.62936075,3.99181674 L5.15448701,4.34537013 C5.02596966,4.36372975 4.90687387,4.42327765 4.81507576,4.51507576 C4.58076118,4.74939033 4.58076118,5.12928932 4.81507576,5.3636039 L5.45147186,6 L4.17867966,7.27279221 C3.94436508,7.50710678 3.94436508,7.88700577 4.17867966,8.12132034 C4.41299423,8.35563492 4.79289322,8.35563492 5.02720779,8.12132034 L6.3,6.84852814 L6.9363961,7.48492424 C7.02819421,7.57672235 7.14729001,7.63627025 7.27580736,7.65462987 C7.60384776,7.70149278 7.90776695,7.47355339 7.95462987,7.14551299 L8.30818326,4.67063925 C8.31622366,4.61435642 8.31622366,4.55721646 8.30818326,4.50093362 C8.26132034,4.17289322 7.95740115,3.94495383 7.62936075,3.99181674 Z" id="形状结合"></path>
            </g>
        </g>
    </g>
</svg>