<?xml version="1.0" encoding="UTF-8"?>
<svg width="20px" height="20px" viewBox="0 0 20 20" version="1.1" xmlns="http://www.w3.org/2000/svg" xmlns:xlink="http://www.w3.org/1999/xlink">
    <title>Icon/公司资料介绍</title>
    <g id="页面-1" stroke="none" stroke-width="1" fill="none" fill-rule="evenodd">
        <g id="团队" transform="translate(-263, -7)" fill="#BE5828" fill-rule="nonzero">
            <g id="Top/底部/all/单一备份-3" transform="translate(234, 0)">
                <g id="Icon/公司资料介绍" transform="translate(29, 7)">
                    <path d="M10,0 C15.5228475,0 20,4.4771525 20,10 C20,12.5089744 19.0760079,14.802139 17.5497438,16.5577735 C17.2836978,16.8638014 19.7061328,17.4570328 19.4051911,17.7286915 C17.6322509,19.3291168 12.576529,20 10,20 C4.4771525,20 0,15.5228475 0,10 C0,4.4771525 4.4771525,0 10,0 Z M10.625,10.75 L9.5,10.75 C9.0625,10.75 8.6875,10.875 8.3125,11.125 C7.875,11.4375 7.625,11.875 7.5625,12.375 C7.5,12.9375 7.5625,13.5625 7.5,14.1875 C7.5625,14.1875 7.6875,14.25 7.75,14.25 C8.5,14.4375 9.1875,14.625 9.9375,14.625 C10.375,14.625 10.875,14.625 11.3125,14.5625 C11.6875,14.5 12.0625,14.375 12.4375,14.25 C12.5,14.25 12.5,14.1875 12.5,14.125 C12.5625,13.625 12.5625,13.125 12.5625,12.6875 C12.5625,12.25 12.4375,11.8125 12.1875,11.5 C11.75,11 11.25,10.75 10.625,10.75 Z M8.25,9.25 L6.9375,9.25 C6.6875,9.25 6.4375,9.3125 6.25,9.375 C5.5625,9.625 5,10.3125 5,11.0625 L5.00097656,12.6621094 C5.00390625,12.6914063 5.015625,12.703125 5.0625,12.75 C5.5625,12.875 6.0625,13 6.5625,13.0625 C6.75,13.0625 7,13.125 7.1875,13.125 L7.1875,12.75 C7.1875,12.5625 7.1875,12.375 7.25,12.1875 C7.4375,11.4375 7.875,10.9375 8.5,10.625 C8.625,10.5625 8.6875,10.5625 8.8125,10.5 C8.4375,10.125 8.25,9.75 8.25,9.25 Z M13.0625,9.25 L11.875,9.25 C11.875,9.75 11.6875,10.1875 11.3125,10.5 C11.375,10.5 11.4375,10.5625 11.4375,10.5625 C11.75,10.6875 12.0625,10.875 12.3125,11.125 C12.6875,11.5625 12.875,12.0625 12.875,12.625 L12.875,13.0625 C13.1875,13 13.4375,13 13.75,12.9375 C14.125,12.875 14.5625,12.75 14.9375,12.5625 C15,12.5625 15,12.5 15,12.4375 L15,11.1875 C15,10.9375 14.9375,10.625 14.8125,10.375 C14.4375,9.625 13.875,9.25 13.0625,9.25 Z M10.0625,7.75 C9.25,7.75 8.5625,8.375 8.5625,9.1875 C8.625,10 9.25,10.6875 10.0625,10.6875 C10.875,10.6875 11.5625,10 11.5,9.1875 C11.5,8.375 10.8125,7.75 10.0625,7.75 Z M12.5,6.25 C11.6875,6.25 11,6.875 11,7.6875 C11.5,7.9375 11.8125,8.4375 11.875,9.0625 C12.0625,9.125 12.25,9.1875 12.5,9.1875 C13.3125,9.1875 14,8.5 13.9375,7.6875 C13.9375,6.875 13.25,6.25 12.5,6.25 Z M7.5,6.3125 C6.6875,6.3125 6,6.9375 6,7.75 C6,8.5 6.6875,9.1875 7.5,9.1875 C7.75,9.1875 8.0625,9.125 8.25,9 C8.3125,8.5 8.5625,8.0625 8.9375,7.8125 L8.9375,7.75 C8.9375,6.9375 8.25,6.3125 7.5,6.3125 Z" id="形状结合"></path>
                </g>
            </g>
        </g>
    </g>
</svg>