<?xml version="1.0" encoding="UTF-8"?>
<svg width="20px" height="20px" viewBox="0 0 20 20" version="1.1" xmlns="http://www.w3.org/2000/svg" xmlns:xlink="http://www.w3.org/1999/xlink">
    <title>Icon/公司资料介绍</title>
    <g id="页面-1" stroke="none" stroke-width="1" fill="none" fill-rule="evenodd">
        <g id="团队" transform="translate(-29, -7)" fill="#A7A6A5" fill-rule="nonzero">
            <g id="Icon/公司资料介绍" transform="translate(29, 7)">
                <path d="M11.7957251,0.616804159 L17.3943002,4.80018506 C18.404874,5.55530847 19,6.74291692 19,8.00445201 L19,16 C19,18.209139 17.209139,20 15,20 L5,20 C2.790861,20 1,18.209139 1,16 L1,8.00445201 C1,6.74291692 1.59512604,5.55530847 2.60569983,4.80018506 L8.20427487,0.616804159 C9.26919612,-0.178928887 10.7308039,-0.178928887 11.7957251,0.616804159 Z M9.40142496,2.21893764 L3.80284992,6.40231853 C3.29756302,6.77988024 3,7.37368447 3,8.00445201 L3,16 C3,17.1045695 3.8954305,18 5,18 L15,18 C16.1045695,18 17,17.1045695 17,16 L17,8.00445201 C17,7.37368447 16.702437,6.77988024 16.1971501,6.40231853 L10.598575,2.21893764 C10.2436013,1.95369329 9.75639871,1.95369329 9.40142496,2.21893764 Z M14,15 C14.5522847,15 15,15.4477153 15,16 C15,16.5522847 14.5522847,17 14,17 L6,17 C5.44771525,17 5,16.5522847 5,16 C5,15.4477153 5.44771525,15 6,15 L14,15 Z" id="形状结合"></path>
            </g>
        </g>
    </g>
</svg>