<?xml version="1.0" encoding="UTF-8"?>
<svg width="20px" height="20px" viewBox="0 0 20 20" version="1.1" xmlns="http://www.w3.org/2000/svg" xmlns:xlink="http://www.w3.org/1999/xlink">
    <title>Icon/公司资料介绍</title>
    <g id="页面-1" stroke="none" stroke-width="1" fill="none" fill-rule="evenodd">
        <g id="团队" transform="translate(-185, -7)" fill="#A7A6A5" fill-rule="nonzero">
            <g id="Top/底部/all/单一备份-2" transform="translate(156, 0)">
                <g id="Icon/公司资料介绍" transform="translate(29, 7)">
                    <path d="M15.007292,0.160872966 C17.7011821,0.138288113 19.9191359,2.2727692 20,4.96547364 L20,12.1770839 C19.9191359,14.8738197 17.6952537,17.0097236 14.9973322,16.9815042 L13.4519024,16.9815042 C13.0669485,16.9826302 12.7030339,17.1573127 12.4613761,17.4569663 L10.9953877,19.3192127 C10.7506984,19.6136512 10.3877018,19.78397 10.0048613,19.78397 C9.62202087,19.78397 9.25902425,19.6136512 9.01433501,19.3192127 L7.53838675,17.4569663 C7.29674291,17.1572236 6.93273575,16.9826899 6.54786042,16.9815042 L4.8327516,16.9812162 C2.21483699,16.9206991 0.0786786146,14.8198548 0,12.1770839 L0,4.96547364 C0.0784478855,2.32270281 2.21460002,0.221858461 4.83251447,0.161341376 L15.007292,0.160872966 Z M5.01091554,2.16063636 C3.39104824,2.12755188 2.04718432,3.40559442 2,4.96547364 L1.99911426,12.1175678 C2.04732441,13.7369198 3.39127766,15.0150058 5.05199255,14.9815042 L6.55402182,14.9815137 C7.54161457,14.9845562 8.47543039,15.4326635 9.10579417,16.2146966 L10.002,17.346 L10.9045542,16.2014562 C11.4803121,15.4875213 12.3265453,15.0500666 13.2400035,14.9888956 L13.4519024,14.9815042 L15.0182504,14.9816136 C16.6268068,14.9984386 17.952683,13.7250771 18,12.1770839 L18.0009012,5.02550822 C17.952686,3.41998231 16.6302731,2.14740946 15.0241928,2.16098197 L15.007292,2.16105338 L5.01091554,2.16063636 Z M6,6 C6.55228475,6 7,6.44771525 7,7 L7,10 C7,10.5522847 6.55228475,11 6,11 C5.44771525,11 5,10.5522847 5,10 L5,7 C5,6.44771525 5.44771525,6 6,6 Z M10,6 C10.5522847,6 11,6.44771525 11,7 L11,10 C11,10.5522847 10.5522847,11 10,11 C9.44771525,11 9,10.5522847 9,10 L9,7 C9,6.44771525 9.44771525,6 10,6 Z M14,6 C14.5522847,6 15,6.44771525 15,7 L15,10 C15,10.5522847 14.5522847,11 14,11 C13.4477153,11 13,10.5522847 13,10 L13,7 C13,6.44771525 13.4477153,6 14,6 Z" id="形状结合"></path>
                </g>
            </g>
        </g>
    </g>
</svg>