<?xml version="1.0" encoding="UTF-8"?>
<svg width="12px" height="12px" viewBox="0 0 12 12" version="1.1" xmlns="http://www.w3.org/2000/svg" xmlns:xlink="http://www.w3.org/1999/xlink">
    <title>Icon/充值备份</title>
    <g id="页面-1" stroke="none" stroke-width="1" fill="none" fill-rule="evenodd">
        <g id="团队" transform="translate(-24, -477)" fill="#676563" fill-rule="nonzero">
            <g id="Icon/充值备份" transform="translate(24, 477)">
                <path d="M1.44356721,2.50935032 C1.4320867,2.5781545 1.45725704,2.63308475 1.489029,2.68551638 C1.52628478,2.7469825 1.57817724,2.79499551 1.63688171,2.83544689 C1.76010327,2.92037376 1.89673848,2.97468593 2.04176381,3.00860145 C2.06651333,3.01438774 2.09255162,3.0156239 2.11810332,3.01670226 C2.15017775,3.01805678 2.18235738,3.01708363 2.21449756,3.01708363 C4.93635261,3.01708363 7.65820767,3.01720198 10.3800627,3.01679431 C10.5320448,3.016768 10.6820279,3.0286299 10.8257776,3.08119302 C11.3082617,3.25759579 11.5942356,3.60024904 11.682437,4.10554948 C11.6972315,4.19034484 11.6990857,4.27820431 11.6991383,4.36464352 C11.6999954,5.97462457 11.6998222,7.58459246 11.6998222,9.19457351 C11.6998222,9.59948192 11.6993093,10.0043772 11.6999954,10.4092856 C11.7003745,10.6320838 11.6537554,10.8435857 11.5453152,11.0386361 C11.3382057,11.4111676 11.0217485,11.6302311 10.6011777,11.6965366 C10.5349905,11.7068996 10.4665808,11.7057684 10.3991969,11.7058078 C9.50905596,11.7063601 8.61890185,11.706176 7.72876089,11.706176 C5.68496631,11.706176 3.6411586,11.7057552 1.59736402,11.7068996 C1.41142703,11.7068996 1.23297276,11.6776391 1.06269819,11.6029303 C0.591063409,11.3959786 0.303905881,10.9311427 0.300486721,10.4559704 C0.300342069,10.4366915 0.300420962,10.4174127 0.300420962,10.3981338 C0.300420962,7.98477978 0.300631373,5.57142573 0.3,3.1580717 C0.3,2.98036701 0.314860369,2.80498999 0.363162698,2.63366337 C0.46947252,2.25662119 0.693940911,1.97868227 1.05411082,1.81579837 C1.17834498,1.7596188 1.31117966,1.73676298 1.44430364,1.71413072 C1.76080025,1.66033142 2.07711275,1.60541433 2.39345156,1.55065504 C2.67182445,1.50247107 2.95011842,1.45386627 3.228465,1.40551135 C3.5479205,1.35001562 3.86738917,1.29453304 4.18685783,1.23914251 C4.49684487,1.18539583 4.80687135,1.13183323 5.1168584,1.07804709 C5.43948321,1.02207794 5.76204226,0.965674825 6.08471967,0.909942381 C6.43588138,0.849291602 6.78720091,0.789535056 7.13833631,0.728792224 C7.48947171,0.668049392 7.84043618,0.606333408 8.19155845,0.545472218 C8.5078841,0.49063402 8.82428865,0.436295551 9.14068005,0.381878177 C9.27356734,0.359022355 9.40596805,0.332234485 9.53957862,0.314980833 C9.71904549,0.291809388 9.89881482,0.290967754 10.0743102,0.345371982 C10.2707809,0.406285773 10.4212243,0.523392283 10.5119769,0.711144056 C10.5430781,0.775477019 10.5604502,0.842137645 10.5595033,0.91522894 C10.5569652,1.11122618 10.5586485,1.30726286 10.5586485,1.50328641 L10.5586485,1.59465709 C10.5350694,1.60186365 10.5150804,1.61171348 10.4943156,1.61375184 C10.206632,1.64202572 9.9187775,1.66868209 9.63108081,1.69689022 C9.40412695,1.71914111 9.1773835,1.74360132 8.95042965,1.76594426 C8.7234758,1.78828721 8.49632468,1.80868386 8.26935767,1.83090846 C8.04240382,1.85313305 7.81558146,1.87688311 7.58865391,1.89938387 C7.42883411,1.91521725 7.26888278,1.92976186 7.10904983,1.94545059 C6.94282567,1.9617574 6.7767067,1.97895844 6.61049566,1.9953836 C6.45385832,2.01086191 6.29716837,2.02566954 6.14053102,2.04104264 C5.97111124,2.05766506 5.80174407,2.07469515 5.63232429,2.09137016 C5.47568694,2.10678272 5.31902328,2.12185336 5.16238593,2.13722647 C4.99296615,2.15384888 4.82357268,2.17068171 4.65415289,2.18734358 C4.49751555,2.20274299 4.34086504,2.21801089 4.18424085,2.2334103 C4.01162546,2.25037463 3.83903637,2.26750993 3.66640783,2.28443481 C3.50977048,2.29979477 3.35310683,2.31487856 3.19646948,2.33025166 C3.0270497,2.34687408 2.85765622,2.36373321 2.68823645,2.38040822 C2.5315991,2.39582078 2.37496175,2.41107552 2.21832439,2.42651439 C2.04572506,2.44354222 1.87313159,2.46062929 1.70054399,2.47777562 C1.63022748,2.48475861 1.55988467,2.49157064 1.48964708,2.49921117 C1.47433973,2.50086815 1.45941374,2.50577334 1.44356721,2.50935032 L1.44356721,2.50935032 Z M8.97533697,7.66765194 C8.97237808,8.16545652 9.38357249,8.56377644 9.86827902,8.56128951 C10.3142569,8.55897646 10.7493197,8.19954299 10.7500175,7.66495606 C10.7506874,7.15001619 10.3412683,6.76535979 9.86083576,6.76671074 C9.34822355,6.76814772 8.9674992,7.1926243 8.97533697,7.66765194 L8.97533697,7.66765194 Z" id="形状"></path>
            </g>
        </g>
    </g>
</svg>