<?xml version="1.0" encoding="UTF-8"?>
<svg width="366px" height="74px" viewBox="0 0 366 74" version="1.1" xmlns="http://www.w3.org/2000/svg" xmlns:xlink="http://www.w3.org/1999/xlink">
    <title>形状结合</title>
    <g id="页面-1" stroke="none" stroke-width="1" fill="none" fill-rule="evenodd">
        <g id="基金-购买成功备份" transform="translate(-13, -457)" fill="#FFFFFF" stroke="#F0EFF1">
            <path d="M371,457.5 C373.071068,457.5 374.946068,458.339466 376.303301,459.696699 C377.660534,461.053932 378.5,462.928932 378.5,465 L378.5,487.518945 C376.904398,487.640324 375.469824,488.337787 374.403806,489.403806 C373.227537,490.580075 372.5,492.205075 372.5,494 C372.5,495.794925 373.227537,497.419925 374.403806,498.596194 C375.469824,499.662213 376.904398,500.359676 378.5,500.481055 L378.5,523 C378.5,525.071068 377.660534,526.946068 376.303301,528.303301 C374.946068,529.660534 373.071068,530.5 371,530.5 L21,530.5 C18.9289322,530.5 17.0539322,529.660534 15.6966991,528.303301 C14.3394661,526.946068 13.5,525.071068 13.5,523 L13.5,500.481055 C15.0956015,500.359676 16.5301755,499.662213 17.5961941,498.596194 C18.7724627,497.419925 19.5,495.794925 19.5,494 C19.5,492.205075 18.7724627,490.580075 17.5961941,489.403806 C16.5301755,488.337787 15.0956015,487.640324 13.5,487.518945 L13.5,465 C13.5,462.928932 14.3394661,461.053932 15.6966991,459.696699 C17.0539322,458.339466 18.9289322,457.5 21,457.5 Z" id="形状结合"></path>
        </g>
    </g>
</svg>