<?xml version="1.0" encoding="UTF-8"?>
<svg width="20px" height="20px" viewBox="0 0 20 20" version="1.1" xmlns="http://www.w3.org/2000/svg" xmlns:xlink="http://www.w3.org/1999/xlink">
    <title>Icon/基金备份 4</title>
    <g id="页面-1" stroke="none" stroke-width="1" fill="none" fill-rule="evenodd">
        <g id="发现备份" transform="translate(-185, -645)" fill="#212634" fill-rule="nonzero">
            <g id="Icon/基金备份-4" transform="translate(185, 645)">
                <path d="M18.2670543,10.1318335 C18.318381,10.6742053 18.6718921,11.146975 19.1874205,11.3458362 L19.995614,11.6575907 L19.7867593,12.4982734 C19.554068,13.4349034 19.1832376,14.3316749 18.6864614,15.1591013 L18.2376155,15.9066954 L17.4423487,15.5490499 C16.899874,15.3050894 16.2630676,15.4218832 15.8424754,15.8424754 C15.4218832,16.2630676 15.3050894,16.899874 15.5490499,17.4423487 L15.9086345,18.2419274 L15.1545739,18.6891631 C14.3278232,19.1795114 13.4349985,19.5487097 12.5033867,19.7854744 L11.6576426,20.0004162 L11.3451571,19.185655 C11.1315435,18.6286883 10.5967336,18.261009 10.0002081,18.261009 C9.40368257,18.261009 8.86887264,18.6286883 8.65525908,19.185655 L8.34277356,20.0004162 L7.4970295,19.7854744 C6.56541767,19.5487097 5.67259297,19.1795114 4.84584231,18.6891631 L4.09178165,18.2419274 L4.45136628,17.4423487 C4.69532674,16.899874 4.57853298,16.2630676 4.15794079,15.8424754 C3.7373486,15.4218832 3.10054221,15.3050894 2.55806744,15.5490499 L1.75848874,15.9086345 L1.31125309,15.1545739 C0.820904778,14.3278232 0.45170648,13.4349985 0.214941799,12.5033867 L0,11.6576426 L0.814761191,11.3451571 C1.37172793,11.1315435 1.73940719,10.5967336 1.73940719,10.0002081 C1.73940719,9.40368257 1.37172793,8.86887264 0.814761191,8.65525908 L0.00439621134,8.34445964 L0.213656888,7.5021428 C0.446348229,6.56551276 0.817178581,5.6687413 1.31395479,4.84131487 L1.76280067,4.0937208 L2.55806744,4.45136628 C3.10054221,4.69532674 3.7373486,4.57853298 4.15794079,4.15794079 C4.57853298,3.7373486 4.69532674,3.10054221 4.45136628,2.55806744 L4.09178165,1.75848874 L4.84584231,1.31125309 C5.67259297,0.820904778 6.56541767,0.45170648 7.4970295,0.214941799 L8.34277356,0 L8.65525908,0.814761191 C8.86887264,1.37172793 9.40368257,1.73940719 10.0002081,1.73940719 C10.5967336,1.73940719 11.1315435,1.37172793 11.3451571,0.814761191 L11.6570808,0.00146497285 L12.5016862,0.214511252 C13.4329821,0.449424628 14.3257924,0.816632071 15.1528734,1.30492839 L15.9093637,1.75154898 L15.5490499,2.55274898 C15.3050894,3.09522375 15.4218832,3.73203015 15.8424754,4.15262234 C16.2630676,4.57321453 16.899874,4.69000829 17.4423487,4.44604782 L18.2419274,4.08646319 L18.6891631,4.84052385 C19.1795114,5.66727451 19.5487097,6.56009921 19.7854744,7.49171104 L20,8.33581752 L19.1874182,8.64926245 C18.6300081,8.86427755 18.2618938,9.39957916 18.260597,9.99702022 L18.2670543,10.1318335 Z M12.7289193,2.33233322 L12.7235362,2.34076629 C12.0914236,3.18376669 11.0893517,3.7025088 10.0002081,3.7025088 C8.91106448,3.7025088 7.9089926,3.18376669 7.27688,2.34076629 L7.27149686,2.33331477 L7.03568906,2.42051106 C6.93299712,2.46053778 6.83113416,2.50265985 6.73016421,2.54685081 L6.50294258,2.65133723 L6.51729498,2.74795175 C6.62872835,3.69433078 6.33759825,4.6601054 5.69022249,5.39273238 L5.54606325,5.54606325 C4.79817216,6.29395434 3.76192928,6.63668788 2.74795175,6.51729498 L2.64839258,6.50196103 L2.54339935,6.72951104 C2.49932233,6.83001117 2.45738186,6.93143496 2.41760629,7.03371381 L2.33037012,7.26953376 L2.34076629,7.27688 C3.13417843,7.8718095 3.64035831,8.7944538 3.69716352,9.80896772 L3.7025088,10.0002081 C3.7025088,11.0893517 3.18376669,12.0914236 2.34076629,12.7235362 L2.33331477,12.7279378 L2.42051106,12.9647271 C2.46053778,13.0674191 2.50265985,13.169282 2.54685081,13.270252 L2.65133723,13.4964921 L2.74795175,13.4831212 C3.69433078,13.3716878 4.6601054,13.6628179 5.39273238,14.3101937 L5.54606325,14.4543529 C6.29395434,15.202244 6.63668788,16.2384869 6.51729498,17.2524644 L6.50294258,17.3480974 L6.73016421,17.4535654 C6.83113416,17.4977563 6.93299712,17.5398784 7.03568906,17.5799051 L7.27149686,17.6661199 C7.8718095,16.8662378 8.7944538,16.3600579 9.80896772,16.3032527 L10.0002081,16.2979074 C11.0893517,16.2979074 12.0914236,16.8166495 12.7235362,17.6596499 L12.9647271,17.5799051 C13.0674191,17.5398784 13.169282,17.4977563 13.270252,17.4535654 L13.4964921,17.3480974 L13.4831212,17.2524644 C13.3716878,16.3060854 13.6628179,15.3403108 14.3101937,14.6076838 L14.4543529,14.4543529 C15.202244,13.7064618 16.2384869,13.3637283 17.2524644,13.4831212 L17.3510421,13.4974736 L17.4570168,13.2709051 C17.5010939,13.170405 17.5430343,13.0689812 17.5828099,12.9667024 L17.6690645,12.7299009 L17.6581884,12.7211936 C16.8651733,12.1247291 16.359556,11.2012692 16.3028333,10.1862101 L16.2974977,9.99487058 C16.2998607,8.90517922 16.8182127,7.90500911 17.6595947,7.27284747 L17.6671014,7.26757066 L17.5799051,7.0303706 C17.5398784,6.92767866 17.4977563,6.8258157 17.4535654,6.72484575 L17.3480974,6.49705328 L17.2524644,6.51197653 C16.3060854,6.62340989 15.3403108,6.33227979 14.6076838,5.68490403 L14.4543529,5.54074479 C13.7064618,4.7928537 13.3637283,3.75661083 13.4831212,2.74263329 L13.4964921,2.64741103 L13.2717608,2.54462942 C13.1707859,2.50066666 13.0689234,2.45877123 12.9662372,2.41896941 L12.7289193,2.33233322 Z M9.99772073,6.5955734 C11.8761021,6.59419946 13.4007167,8.11435247 13.4048554,9.99317105 C13.4064353,10.8984904 13.0475018,11.7671867 12.4073442,12.4073442 C11.7671867,13.0475018 10.8984904,13.4064353 9.99317105,13.4048554 C8.11435247,13.4007167 6.59419946,11.8761021 6.5955734,9.99771976 C6.59695107,8.11933737 8.11933737,6.59695107 9.99772073,6.5955734 Z M9.99915859,8.55867501 C9.20384336,8.55925833 8.55925833,9.20384336 8.55867502,9.99915761 C8.55809328,10.7944729 9.20173398,11.4400027 9.99704917,11.4417547 C10.3800914,11.442423 10.7480602,11.2903833 11.0192218,11.0192218 C11.2903833,10.7480602 11.442423,10.3800914 11.4417547,9.99704917 C11.4400027,9.20173398 10.7944729,8.55809328 9.99915859,8.55867501 Z" id="形状"></path>
            </g>
        </g>
    </g>
</svg>