<?xml version="1.0" encoding="UTF-8"?>
<svg width="20px" height="20px" viewBox="0 0 20 20" version="1.1" xmlns="http://www.w3.org/2000/svg" xmlns:xlink="http://www.w3.org/1999/xlink">
    <title>Icon/基金备份 3</title>
    <g id="页面-1" stroke="none" stroke-width="1" fill="none" fill-rule="evenodd">
        <g id="发现备份" transform="translate(-302, -645)" fill="#212634" fill-rule="nonzero">
            <g id="Icon/基金备份-3" transform="translate(302, 645)">
                <path d="M10,0 C15.4242252,0 19.8397682,4.31868186 19.9957365,9.70515306 L20,10 C20,15.5228475 15.5228475,20 10,20 C4.4771525,20 0,15.5228475 0,10 C0,4.4771525 4.4771525,0 10,0 Z M10,2 C5.581722,2 2,5.581722 2,10 C2,14.418278 5.581722,18 10,18 C14.418278,18 18,14.418278 18,10 L17.9965744,9.76303992 C17.8715765,5.44614964 14.330218,2 10,2 Z M10.9508707,13.0269948 L10.9508707,15 L9.03017998,15 L9.03017998,13.0269948 L10.9508707,13.0269948 Z M12.2608496,5.57158008 C13.2871124,6.24341948 13.5744789,7.88031335 12.874889,8.96596936 C12.6120059,9.3739374 12.2503827,9.73662944 11.875207,10.0497901 C11.2304727,10.5879595 10.6187727,11.1169122 10.7669835,12.1214143 L9.21733422,12.1214143 C9.05619601,11.1384915 9.27348049,10.2946032 10.0149986,9.6046736 C10.2834681,9.35487913 10.556919,9.10496367 10.7879981,8.82229621 C10.9455061,8.62961607 11.0668539,8.39111538 11.1455071,8.15360292 C11.3111829,7.65334848 11.079277,7.09035299 10.65578,6.87359287 C10.2146365,6.64779771 9.65752991,6.76309521 9.31563055,7.18082433 C9.17689843,7.35031186 9.07620218,7.55676641 8.98677955,7.75904627 C8.9038912,7.94656354 8.8590992,8.15092066 8.77935698,8.4059385 C8.18915555,8.26268886 7.60887653,8.12185932 7,7.97407199 C7.20119083,6.82289183 7.61383772,5.8307121 8.72853491,5.36000301 C9.92097776,4.85646127 11.1445794,4.84083147 12.2608496,5.57158008 Z" id="形状结合"></path>
            </g>
        </g>
    </g>
</svg>