<?xml version="1.0" encoding="UTF-8"?>
<svg width="20px" height="20px" viewBox="0 0 20 20" version="1.1" xmlns="http://www.w3.org/2000/svg" xmlns:xlink="http://www.w3.org/1999/xlink">
    <title>Icon/排行</title>
    <g id="页面-1" stroke="none" stroke-width="1" fill="none" fill-rule="evenodd">
        <g id="发现备份" transform="translate(-235, -8)" fill="#A9AAAC" fill-rule="nonzero">
            <g id="Bar/tab/all-1备份-2" transform="translate(195, 0)">
                <g id="Icon/排行" transform="translate(40, 8)">
                    <path d="M10,0 C15.5228475,0 20,4.4771525 20,10 C20,15.5228475 15.5228475,20 10,20 C4.4771525,20 0,15.5228475 0,10 C0,4.4771525 4.4771525,0 10,0 Z M10,2 C5.581722,2 2,5.581722 2,10 C2,14.418278 5.581722,18 10,18 C14.418278,18 18,14.418278 18,10 C18,5.581722 14.418278,2 10,2 Z" id="椭圆形"></path>
                    <path d="M14.1416122,6.05961641 L13.0051458,12.9787106 L5.98107477,14.0201304 L6.98389021,7.01456348 L14.1416122,6.05961641 Z M11.7300748,8.39861641 L8.74807477,8.79661641 L8.34007477,11.6486164 L11.2670748,11.2136164 L11.7300748,8.39861641 Z" id="路径"></path>
                </g>
            </g>
        </g>
    </g>
</svg>