<?xml version="1.0" encoding="UTF-8"?>
<svg width="16px" height="16px" viewBox="0 0 16 16" version="1.1" xmlns="http://www.w3.org/2000/svg" xmlns:xlink="http://www.w3.org/1999/xlink">
    <title>Icon/基金备份 7</title>
    <g id="页面-1" stroke="none" stroke-width="1" fill="none" fill-rule="evenodd">
        <g id="个人-资产管理" transform="translate(-64, -424)" fill="#212634" fill-rule="nonzero">
            <g id="Icon/基金备份-7" transform="translate(64, 424)">
                <path d="M8,0 C12.4111498,0 16,3.58885017 16,8 C16,12.4111498 12.4111498,16 8,16 C3.58885017,16 0,12.4111498 0,8 C0,3.58885017 3.58885017,0 8,0 Z M8,1.6 C4.47250577,1.6 1.6,4.47250577 1.6,8 C1.6,11.5274942 4.47250577,14.4 8,14.4 C11.5274942,14.4 14.4,11.5274942 14.4,8 C14.4,4.47250577 11.5274942,1.6 8,1.6 Z" id="路径"></path>
                <path d="M10.9736187,7.08412145 L4.7755102,7.08412145 C4.3902439,7.08412145 4.07864609,6.77252364 4.07864609,6.38725734 C4.07864609,6.00199104 4.3902439,5.69039323 4.7755102,5.69039323 L9.41164759,5.69039323 L8.70781483,4.90592334 C8.58442223,4.76840685 8.52075575,4.58747988 8.53083896,4.40299452 C8.54092217,4.21850916 8.62392794,4.04559868 8.76157292,3.92234943 C8.89908941,3.79895683 9.08001639,3.73529034 9.26450175,3.74537355 C9.44898711,3.75545676 9.62189758,3.83846254 9.74514684,3.97610752 L11.4912892,5.92234943 C11.6744649,6.12742658 11.7212544,6.42010951 11.6087606,6.67197611 C11.4962668,6.92384271 11.2483823,7.08412145 10.9736187,7.08412145 L10.9736187,7.08412145 Z M6.52264808,11.6455951 C6.33150821,11.6455951 6.14136386,11.5679443 6.00398208,11.4136386 L4.25783972,9.46739671 C4.07466401,9.26231956 4.02787456,8.96963664 4.14036834,8.71777003 C4.25286212,8.46590343 4.50174216,8.30462917 4.77650572,8.30462917 L10.9736187,8.30462917 C11.358885,8.30462917 11.6704828,8.61622698 11.6704828,9.00149328 C11.6704828,9.38675958 11.358885,9.69835739 10.9736187,9.69835739 L6.33748133,9.69835739 L7.04131409,10.4828273 C7.16470669,10.6203438 7.22837317,10.8012707 7.21828996,10.9857561 C7.20820675,11.1702415 7.12520098,11.3431519 6.987556,11.4664012 C6.86025824,11.581861 6.69450751,11.6457478 6.52264808,11.6455951 L6.52264808,11.6455951 Z" id="形状"></path>
            </g>
        </g>
    </g>
</svg>