<?xml version="1.0" encoding="UTF-8"?>
<svg width="16px" height="16px" viewBox="0 0 16 16" version="1.1" xmlns="http://www.w3.org/2000/svg" xmlns:xlink="http://www.w3.org/1999/xlink">
    <title>Icon/基金备份 3</title>
    <g id="页面-1" stroke="none" stroke-width="1" fill="none" fill-rule="evenodd">
        <g id="个人-资产管理" transform="translate(-247, -424)" fill="#212634" fill-rule="nonzero">
            <g id="Icon/基金备份-3" transform="translate(247, 424)">
                <path d="M1.609375,1.390625 C2.15950239,1.390625 2.61197881,1.80871846 2.66638943,2.34449055 L2.671875,2.46875 C2.671875,3.05555255 2.19617755,3.53125 1.609375,3.53125 C1.05924761,3.53125 0.606771186,3.11315654 0.552360568,2.57738445 L0.546875,2.453125 C0.546875,1.90299761 0.964968465,1.45052119 1.50074055,1.39611057 L1.609375,1.390625 Z M5.8984375,1.390625 L14.3828125,1.390625 C14.9739298,1.390625 15.453125,1.86982023 15.453125,2.4609375 C15.453125,3.05205477 14.9739298,3.53125 14.3828125,3.53125 L5.8984375,3.53125 C5.30732023,3.53125 4.828125,3.05205477 4.828125,2.4609375 C4.828125,1.86982023 5.30732023,1.390625 5.8984375,1.390625 Z M1.609375,6.890625 C2.19617755,6.890625 2.671875,7.36632245 2.671875,7.953125 C2.671875,8.53992755 2.19617755,9.015625 1.609375,9.015625 C1.02257245,9.015625 0.546875,8.53992755 0.546875,7.953125 C0.546875,7.40299761 0.964968465,6.95052119 1.50074055,6.89611057 L1.609375,6.890625 Z M5.890625,6.890625 L14.390625,6.890625 C14.9774275,6.890625 15.453125,7.36632245 15.453125,7.953125 C15.453125,8.53992755 14.9774275,9.015625 14.390625,9.015625 L5.890625,9.015625 C5.30382245,9.015625 4.828125,8.53992755 4.828125,7.953125 C4.828125,7.36632245 5.30382245,6.890625 5.890625,6.890625 Z M1.6015625,12.40625 L1.6171875,12.40625 C2.19967532,12.40625 2.671875,12.8784497 2.671875,13.4609375 C2.671875,14.0070198 2.25685575,14.4561692 1.72502317,14.5101798 L1.6015625,14.515625 C1.01907468,14.515625 0.546875,14.0434253 0.546875,13.4609375 C0.546875,12.8784497 1.01907468,12.40625 1.6015625,12.40625 Z M5.8828125,12.40625 L14.3984375,12.40625 C14.9809253,12.40625 15.453125,12.8784497 15.453125,13.4609375 C15.453125,14.0434253 14.9809253,14.515625 14.3984375,14.515625 L5.8828125,14.515625 C5.30032468,14.515625 4.828125,14.0434253 4.828125,13.4609375 C4.828125,12.8784497 5.30032468,12.40625 5.8828125,12.40625 Z" id="形状"></path>
            </g>
        </g>
    </g>
</svg>