<?xml version="1.0" encoding="UTF-8"?>
<svg width="16px" height="16px" viewBox="0 0 16 16" version="1.1" xmlns="http://www.w3.org/2000/svg" xmlns:xlink="http://www.w3.org/1999/xlink">
    <title>Icon/基金备份 2</title>
    <g id="页面-1" stroke="none" stroke-width="1" fill="none" fill-rule="evenodd">
        <g id="个人-资产管理" transform="translate(-291, -236)" fill="#212634" fill-rule="nonzero">
            <g id="Icon/基金备份-2" transform="translate(291, 236)">
                <path d="M14.7657143,4.68571428 C14.6742857,4.5942857 14.5828572,4.54857142 14.4914286,4.50285714 L8.6857143,0.8 L10.6971429,4.45714284 L0.914285721,4.45714284 C0.411428571,4.45714284 0,4.86857141 0,5.37142856 C0,5.87428571 0.411428571,6.28571428 0.914285721,6.28571428 L14.1714286,6.28571428 C14.6742857,6.28571428 15.0857143,5.87428571 15.0857143,5.37142856 C15.0857143,5.09714285 14.9485714,4.86857141 14.7657143,4.68571428 Z M15.0857143,9.94285712 L1.82857144,9.94285712 C1.32571429,9.94285712 0.914285721,10.3542857 0.914285721,10.8571428 C0.914285721,11.1314286 1.05142858,11.36 1.23428571,11.5428571 C1.32571429,11.6342857 1.41714285,11.68 1.50857143,11.7257143 L7.31428573,15.4285714 L5.30285715,11.7714286 L15.0857143,11.7714286 C15.5885714,11.7714286 16,11.36 16,10.8571428 C16,10.3542857 15.5885714,9.94285712 15.0857143,9.94285712 L15.0857143,9.94285712 Z" id="形状"></path>
            </g>
        </g>
    </g>
</svg>