<?xml version="1.0" encoding="UTF-8"?>
<svg width="16px" height="16px" viewBox="0 0 16 16" version="1.1" xmlns="http://www.w3.org/2000/svg" xmlns:xlink="http://www.w3.org/1999/xlink">
    <title>Icon/基金备份</title>
    <g id="页面-1" stroke="none" stroke-width="1" fill="none" fill-rule="evenodd">
        <g id="个人-资产管理" transform="translate(-169, -236)" fill="#212634" fill-rule="nonzero">
            <g id="Icon/基金备份" transform="translate(169, 236)">
                <path d="M13.6,0 C14.9254834,0 16,1.0745166 16,2.4 L16,4 C16,5.3254834 14.9254834,6.4 13.6,6.4 L13.6,13.6 C13.6,14.9254834 12.5254834,16 11.2,16 L4.8,16 C3.4745166,16 2.4,14.9254834 2.4,13.6 L2.399,6.4 L2.23568127,6.39446313 C0.986839031,6.31002124 0,5.27025492 0,4 L0,2.4 C0,1.0745166 1.0745166,0 2.4,0 L13.6,0 Z M11.2,4 L4.8,4 C4.3581722,4 4,4.3581722 4,4.8 L4,13.6 C4,14.0418278 4.3581722,14.4 4.8,14.4 L11.2,14.4 C11.6418278,14.4 12,14.0418278 12,13.6 L12,4.8 C12,4.3581722 11.6418278,4 11.2,4 Z M9.68999999,5.774 C9.86789072,5.62720453 10.1138182,5.59444623 10.3239317,5.68955831 C10.5340453,5.7846704 10.6717129,5.99107062 10.6788,6.2216 C10.6800612,6.35736893 10.6252054,6.48763338 10.5272,6.5816 L9.29680001,7.76039999 L10.2024,7.76039999 C10.4108452,7.75258403 10.6068902,7.85933108 10.7134347,8.03865974 C10.8199791,8.21798841 10.8199791,8.44121159 10.7134347,8.62054025 C10.6068902,8.79986891 10.4108452,8.90661596 10.2024,8.8988 L8.58280001,8.8988 L8.58280001,9.88 L10.2024,9.88 C10.412063,9.8703724 10.6100543,9.97674464 10.7177641,10.1568831 C10.825474,10.3370216 10.825474,10.5617784 10.7177641,10.7419169 C10.6100543,10.9220554 10.412063,11.0284276 10.2024,11.0188 L8.58280001,11.0188 L8.58280001,12.2164 C8.5685351,12.5333222 8.30744307,12.7829266 7.9902,12.7829266 C7.67295693,12.7829266 7.41186491,12.5333222 7.3976,12.2164 L7.3976,11.0188 L5.778,11.0188 C5.56833694,11.0284276 5.37034569,10.9220554 5.26263586,10.7419169 C5.15492603,10.5617784 5.15492603,10.3370216 5.26263586,10.1568831 C5.37034569,9.97674464 5.56833694,9.8703724 5.778,9.88 L7.3976,9.88 L7.3976,8.89559999 L5.778,8.89559999 C5.56955475,8.90341605 5.37350962,8.79666902 5.26696512,8.61734032 C5.16042062,8.43801163 5.16042062,8.21478837 5.26696512,8.03545967 C5.37350962,7.85613098 5.56955475,7.74938395 5.778,7.75720001 L6.68320001,7.75720001 L5.48560001,6.60959999 C5.37482891,6.50474209 5.31207631,6.35893004 5.31207631,6.2064 C5.31207631,6.05386995 5.37482891,5.9080579 5.48560001,5.8032 C5.72101858,5.58246732 6.08738143,5.58246732 6.3228,5.8032 L7.99000001,7.40320001 Z M13.6,1.6 L2.4,1.6 C1.9581722,1.6 1.6,1.9581722 1.6,2.4 L1.6,4 C1.6,4.4414913 1.95762683,4.79945437 2.39899064,4.79999938 C2.4,3.4745166 3.4745166,2.4 4.8,2.4 L11.2,2.4 C12.5254834,2.4 13.6,3.4745166 13.6,4.8 C14.0418278,4.8 14.4,4.4418278 14.4,4 L14.4,2.4 C14.4,1.9581722 14.0418278,1.6 13.6,1.6 Z" id="形状结合"></path>
            </g>
        </g>
    </g>
</svg>