<?xml version="1.0" encoding="UTF-8"?>
<svg width="16px" height="16px" viewBox="0 0 16 16" version="1.1" xmlns="http://www.w3.org/2000/svg" xmlns:xlink="http://www.w3.org/1999/xlink">
    <title>Icon/基金</title>
    <g id="页面-1" stroke="none" stroke-width="1" fill="none" fill-rule="evenodd">
        <g id="个人-资产管理" transform="translate(-47, -236)" fill="#212634" fill-rule="nonzero">
            <g id="Icon/基金" transform="translate(47, 236)">
                <path d="M12.8,0.8 C14.5673112,0.8 16,2.2326888 16,4 L16,12 C16,13.7673112 14.5673112,15.2 12.8,15.2 L3.2,15.2 C1.4326888,15.2 0,13.7673112 0,12 L0,4 C0,2.2326888 1.4326888,0.8 3.2,0.8 L12.8,0.8 Z M12.8,2.4 L3.2,2.4 C2.3163444,2.4 1.6,3.1163444 1.6,4 L1.6,12 C1.6,12.8836556 2.3163444,13.6 3.2,13.6 L12.8,13.6 C13.6836556,13.6 14.4,12.8836556 14.4,12 L14.4,4 C14.4,3.1163444 13.6836556,2.4 12.8,2.4 Z" id="矩形"></path>
                <path d="M16,4.8 L16,11.2 L10.4,11.2 C8.6326888,11.2 7.2,9.7673112 7.2,8 C7.2,6.2326888 8.6326888,4.8 10.4,4.8 L16,4.8 Z M14.4,6.4 L10.4,6.4 C9.55651056,6.4 8.8654679,7.05270223 8.80438859,7.88059012 L8.8,8 C8.8,8.8836556 9.5163444,9.6 10.4,9.6 L14.4,9.6 L14.4,6.4 Z" id="矩形"></path>
                <path d="M10.4,7.2 C10.8418278,7.2 11.2,7.5581722 11.2,8 C11.2,8.4418278 10.8418278,8.8 10.4,8.8 C9.9581722,8.8 9.6,8.4418278 9.6,8 C9.6,7.5581722 9.9581722,7.2 10.4,7.2 Z" id="矩形"></path>
            </g>
        </g>
    </g>
</svg>