<?xml version="1.0" encoding="UTF-8"?>
<svg width="20px" height="20px" viewBox="0 0 20 20" version="1.1" xmlns="http://www.w3.org/2000/svg" xmlns:xlink="http://www.w3.org/1999/xlink">
    <title>Icon/首页备份</title>
    <defs>
        <linearGradient x1="50%" y1="0%" x2="50%" y2="100%" id="linearGradient-1">
            <stop stop-color="#1EF299" offset="0%"></stop>
            <stop stop-color="#24BF7E" offset="100%"></stop>
        </linearGradient>
        <linearGradient x1="50%" y1="0%" x2="50%" y2="100%" id="linearGradient-2">
            <stop stop-color="#007F49" offset="0%"></stop>
            <stop stop-color="#01A25E" offset="100%"></stop>
        </linearGradient>
    </defs>
    <g id="页面-1" stroke="none" stroke-width="1" fill="none" fill-rule="evenodd">
        <g id="丝绸之路" transform="translate(-137, -7)" fill-rule="nonzero">
            <g id="Bar/底部/全部/1备份" transform="translate(98, 0)">
                <g id="Icon/首页备份" transform="translate(39, 7)">
                    <path d="M14.6807244,0.45 C16.3728261,0.45 16.6824766,4.53900493 17.7841625,6.684606 C17.8611072,6.83469324 17.9308954,6.98834291 17.9932922,7.14503788 C19.4375578,9.17509769 19.9592266,11.2115123 19.9823348,11.3033676 C20.0603446,11.6128542 19.8726955,11.926982 19.5632089,12.0049918 C19.2537223,12.0830016 18.9395944,11.8953525 18.8615847,11.5858659 C18.8586961,11.572001 18.63859,10.7216173 18.1024786,9.60722197 C18.0504851,9.75338166 17.9909813,9.89607511 17.9181903,10.0318361 C17.6507123,11.8544993 17.7073275,14.7430307 18.1226983,15.6390531 C18.66632,16.8106414 18.0695494,17.4599832 17.4577584,18.5980645 C16.8459675,19.7355682 16.2861701,19.1411084 16.3029236,18.5639799 C16.3092062,18.34734 16.3972161,18.1206264 16.5056579,17.8913944 L16.7316223,17.431811 C16.8400641,17.2025789 16.928074,16.9758653 16.9343566,16.7592255 C16.9395559,16.5801366 16.6749665,16.0769544 16.3087007,15.4339673 C16.1417436,16.5899576 15.8118733,17.7667452 15.491824,18.361205 C14.8800331,19.4987086 14.3202357,18.9042489 14.3369892,18.3271203 C14.3537427,17.749414 14.9822871,16.0342041 14.9990406,15.4564979 C15.0082839,15.147425 14.2133601,13.8724273 13.47794,12.5766322 C12.5576539,12.8042484 11.5767087,12.9480973 10.6731761,12.9024585 C10.3537045,12.89957 10.0469425,12.8920598 9.75289002,12.8781948 C9.30516767,14.52408 9.44266175,17.7124408 9.41493185,18.6489027 C9.38084719,19.8037375 8.22601238,19.7696528 8.26009704,18.614818 C8.28089445,17.9111718 8.12144751,15.8123649 7.7413168,14.008766 C7.62762422,15.1133404 7.65590871,16.3835547 7.66112193,17.2059496 L7.66104182,17.5769887 L7.6581271,17.7291943 C7.62404244,18.8840291 6.46920763,18.8499444 6.50329229,17.6951096 C6.53737696,16.5437411 5.49057321,11.931912 4.37328929,10.7268167 C3.88859376,10.2490536 3.479,9.65863781 3.26004934,8.93015023 C3.00585857,8.08669908 3.51250697,6.68980533 3.34497215,6.04335203 C3.19859239,5.48168401 2.37416232,5.41748001 1.36541421,5.41339933 L1.00253607,5.41374342 C0.879561556,5.41421551 0.754839883,5.41480763 0.629175017,5.41480763 C-0.690306084,5.41480763 0.2588653,3.10513799 1.6973539,3.10513799 C3.13584248,3.10513799 3.1271769,2.51183365 3.44722616,2.57884758 C3.63911035,2.61917063 3.82495048,2.68422438 4.00009105,2.77237918 C4.1433622,2.60137812 4.40621854,2.47717128 4.7152914,2.45926239 C5.19305449,2.43095477 5.59571576,2.66723664 5.61420235,2.98555279 C5.63037812,3.26689575 5.34210269,3.51762027 4.94637391,3.59214437 C5.4894178,4.33160837 5.68063857,5.23571868 5.67197297,5.53381511 C5.66330739,5.82786761 5.67197297,6.12192009 5.82217661,6.42059424 C5.83835237,6.39228662 5.85279503,6.3616682 5.86954851,6.33336059 C6.20417249,5.7670599 6.4502914,4.97558769 6.68715628,4.156417 L6.81591389,3.70803658 C7.28815318,2.0626069 7.78101349,0.45 8.92850318,0.45 C10.7534773,0.45 10.2988224,2.9220051 11.9527955,2.9220051 C13.6067685,2.9220051 12.9886228,0.45 14.6807244,0.45 Z M3.42933425,3.17586987 C3.11805893,3.16683385 2.8556361,3.40614137 2.83601294,3.71692893 C2.82271151,3.92759433 2.92536645,4.12874333 3.10376326,4.24157691 C3.28216007,4.3544105 3.50789446,4.36096335 3.69253624,4.25866841 C3.87717801,4.15637348 3.99132857,3.96151813 3.99027006,3.75043587 C3.98870847,3.43903335 3.74060956,3.18490588 3.42933425,3.17586987 Z" id="形状结合" fill="url(#linearGradient-1)"></path>
                    <path d="M14.6807244,0.45 C16.3728261,0.45 16.6824766,4.53900493 17.7841625,6.684606 C17.8611072,6.83469324 17.9308954,6.98834291 17.9932922,7.14503788 C19.4375578,9.17509769 19.9592266,11.2115123 19.9823348,11.3033676 C20.0603446,11.6128542 19.8726955,11.926982 19.5632089,12.0049918 C19.2537223,12.0830016 18.9395944,11.8953525 18.8615847,11.5858659 C18.8586961,11.572001 18.63859,10.7216173 18.1024786,9.60722197 C18.0504851,9.75338166 17.9909813,9.89607511 17.9181903,10.0318361 C17.6507123,11.8544993 17.7073275,14.7430307 18.1226983,15.6390531 C18.66632,16.8106414 18.0695494,17.4599832 17.4577584,18.5980645 C16.8459675,19.7355682 16.2861701,19.1411084 16.3029236,18.5639799 C16.3092062,18.34734 16.3972161,18.1206264 16.5056579,17.8913944 L16.7316223,17.431811 C16.8400641,17.2025789 16.928074,16.9758653 16.9343566,16.7592255 C16.9395559,16.5801366 16.6749665,16.0769544 16.3087007,15.4339673 C16.1417436,16.5899576 15.8118733,17.7667452 15.491824,18.361205 C14.8800331,19.4987086 14.3202357,18.9042489 14.3369892,18.3271203 C14.3537427,17.749414 14.9822871,16.0342041 14.9990406,15.4564979 C15.0082839,15.147425 14.2133601,13.8724273 13.47794,12.5766322 C12.5576539,12.8042484 11.5767087,12.9480973 10.6731761,12.9024585 C10.3537045,12.89957 10.0469425,12.8920598 9.75289002,12.8781948 C9.30516767,14.52408 9.44266175,17.7124408 9.41493185,18.6489027 C9.38084719,19.8037375 8.22601238,19.7696528 8.26009704,18.614818 C8.28089445,17.9111718 8.12144751,15.8123649 7.7413168,14.008766 C7.62762422,15.1133404 7.65590871,16.3835547 7.66112193,17.2059496 L7.66104182,17.5769887 L7.6581271,17.7291943 C7.62404244,18.8840291 6.46920763,18.8499444 6.50329229,17.6951096 C6.53737696,16.5437411 5.49057321,11.931912 4.37328929,10.7268167 C3.88859376,10.2490536 3.479,9.65863781 3.26004934,8.93015023 C3.00585857,8.08669908 3.51250697,6.68980533 3.34497215,6.04335203 C3.19859239,5.48168401 2.37416232,5.41748001 1.36541421,5.41339933 L1.00253607,5.41374342 C0.879561556,5.41421551 0.754839883,5.41480763 0.629175017,5.41480763 C-0.690306084,5.41480763 0.2588653,3.10513799 1.6973539,3.10513799 C3.13584248,3.10513799 3.1271769,2.51183365 3.44722616,2.57884758 C3.63911035,2.61917063 3.82495048,2.68422438 4.00009105,2.77237918 C4.1433622,2.60137812 4.40621854,2.47717128 4.7152914,2.45926239 C5.19305449,2.43095477 5.59571576,2.66723664 5.61420235,2.98555279 C5.63037812,3.26689575 5.34210269,3.51762027 4.94637391,3.59214437 C5.4894178,4.33160837 5.68063857,5.23571868 5.67197297,5.53381511 C5.66330739,5.82786761 5.67197297,6.12192009 5.82217661,6.42059424 C5.83835237,6.39228662 5.85279503,6.3616682 5.86954851,6.33336059 C6.20417249,5.7670599 6.4502914,4.97558769 6.68715628,4.156417 L6.81591389,3.70803658 C7.28815318,2.0626069 7.78101349,0.45 8.92850318,0.45 C10.7534773,0.45 10.2988224,2.9220051 11.9527955,2.9220051 C13.6067685,2.9220051 12.9886228,0.45 14.6807244,0.45 Z M14.6807244,0.95 C14.2427364,0.95 14.0838058,1.12893282 13.7623394,1.88224856 C13.7590561,1.889943 13.7590561,1.889943 13.7557627,1.89766139 C13.2933221,2.98142037 12.9066588,3.4220051 11.9527955,3.4220051 C11.0382954,3.4220051 10.6273411,3.00718983 10.098504,1.98860533 C10.0796992,1.95236742 10.0796992,1.95236742 10.0611205,1.91659077 C9.66793672,1.16010095 9.45048707,0.95 8.92850318,0.95 C8.30654749,0.95 7.9068713,1.71570672 7.26715871,3.94834681 C7.25885248,3.97733793 7.25885248,3.97733793 7.25053954,4.00635347 C6.84740245,5.41340379 6.64258603,6.00796991 6.29983686,6.58802103 C6.29754882,6.59199817 6.29754882,6.59199817 6.28843417,6.60922418 C6.27359754,6.63754336 6.27359754,6.63754336 6.25629826,6.66866357 L5.79406505,7.47757226 L5.37548262,6.64523725 C5.2009033,6.298093 5.15851721,5.98304876 5.1721841,5.51928635 C5.18170231,5.19186034 4.9322888,4.41768836 4.5433717,3.88809913 L4.158,3.363 L4.12902392,3.39704116 L3.77529262,3.21899497 C3.6842919,3.17319091 3.58958495,3.13538884 3.49235188,3.10598714 L3.458,3.096 L3.446455,3.10580778 C3.39758385,3.14279998 3.33221622,3.19054082 3.27163352,3.23073199 L3.21343399,3.2677289 C2.84699312,3.48831285 2.37378409,3.60513799 1.6973539,3.60513799 C1.26049299,3.60513799 0.799562729,3.97389449 0.587235909,4.46008157 C0.429771246,4.82064498 0.461990981,4.91480763 0.629175017,4.91480763 L0.846607492,4.91435006 L0.938221815,4.9139929 C2.97485071,4.9058767 3.59447709,5.01810355 3.82898227,5.91791598 C3.91869885,6.26409824 3.89857875,6.5305004 3.77864339,7.38562591 C3.75816441,7.53163873 3.74577176,7.62337106 3.73408965,7.71797764 C3.67145858,8.22519037 3.67011433,8.55802425 3.73888926,8.78623244 C3.91764442,9.38098248 4.25217225,9.90536374 4.73994886,10.3868744 C5.76786159,11.4955745 6.96556208,15.7704678 7.00350748,17.531101 L7.00306828,17.805906 C7.00970254,18.010101 7.05901801,18.0781746 7.06989716,18.0784957 C7.08233047,18.0788627 7.15009808,17.9938515 7.15834752,17.7143494 C7.15987686,17.6628616 7.16090914,17.6132188 7.16147088,17.554082 L7.16127115,17.2400225 C7.16062526,17.1354101 7.15954419,17.006185 7.15805446,16.8410083 C7.15633048,16.649859 7.15512365,16.4764366 7.1545578,16.3160105 L7.15490699,15.8689908 C7.15700678,15.5210812 7.16388654,15.2248333 7.17748096,14.9063332 C7.19196055,14.567095 7.21369127,14.251496 7.24394453,13.957572 L8.2305684,13.9056502 C8.56768378,15.5051551 8.78788527,17.6820362 8.75987941,18.629569 C8.75163274,18.9089771 8.81426859,18.9978371 8.82670191,18.9982053 C8.83913522,18.9985711 8.90690283,18.9135598 8.91515092,18.6341035 C8.91998841,18.4707373 8.92003976,18.3114625 8.9172355,17.7458576 C8.91205144,16.7002567 8.91709314,16.0834703 8.9470323,15.3741531 C8.99333256,14.2772092 9.09343842,13.3975668 9.27042223,12.7469514 L9.37572213,12.3598554 L9.7764395,12.3787497 C10.0535589,12.3918163 10.3513983,12.3995287 10.6983997,12.4030951 C11.4843113,12.4427927 12.391786,12.3302066 13.3578914,12.0912578 L13.7257467,12.0002753 L13.9127875,12.3298373 C13.9316553,12.3630082 13.9458062,12.3878864 13.9576052,12.4086143 L14.0190984,12.5163186 L14.0641553,12.5949556 C14.1550328,12.7532889 14.4585017,13.2772236 14.5557809,13.4449965 L14.572,13.473 L14.6619122,13.6285219 C14.8089897,13.8837846 14.9174768,14.075203 15.0142593,14.2510608 C15.3634429,14.8855412 15.5068098,15.2041911 15.4988305,15.4709918 C15.4900492,15.7737934 15.408794,16.1052736 15.1493176,17.0272626 C14.9248206,17.8249608 14.8419591,18.1629939 14.8367787,18.3416287 C14.8355677,18.3833453 14.8412768,18.4212193 14.84708,18.4511063 L14.85,18.465 L14.8572057,18.4531862 C14.8822515,18.4110169 14.929548,18.3411658 14.9971225,18.2225834 L15.0515747,18.1241806 C15.3404832,17.5875618 15.6550882,16.4616404 15.8138353,15.362495 L16.0220818,13.9206224 L16.7431582,15.1864866 C17.2589525,16.0919741 17.4429666,16.4699136 17.4341464,16.7737194 C17.4242199,17.1160128 17.3314026,17.3551103 17.0656852,17.8855462 C16.870393,18.2753964 16.8067482,18.4393453 16.8027131,18.5784883 C16.8015021,18.6202048 16.8072112,18.6580789 16.8130144,18.6879659 L16.816,18.703 L16.8231268,18.6900704 C16.8481594,18.6479258 16.8954293,18.5781241 16.9629507,18.4596404 L17.0173579,18.3613213 C17.1217938,18.1670449 17.4705266,17.5572349 17.4467487,17.5996414 C17.5894949,17.3450624 17.6772691,17.1674488 17.7385259,17.0021847 C17.8828545,16.6128023 17.8729574,16.2887505 17.6690703,15.8493423 C17.2193771,14.8792809 17.1296895,11.9612616 17.4234889,9.95923805 L17.477534,9.79556927 C17.5329109,9.69228698 17.5829282,9.57589591 17.6313974,9.43964368 L18.0332541,8.30997978 L18.5530505,9.39046165 C18.9739806,10.2654339 19.2835695,11.1598626 19.3464198,11.4636575 C19.3569357,11.505377 19.3992809,11.5306726 19.4410005,11.5201567 C19.48272,11.5096408 19.5080156,11.4672956 19.4974997,11.425576 C19.4287853,11.1524366 19.2869305,10.7052632 19.0573604,10.1388388 C18.6823351,9.21352901 18.1955133,8.2917924 17.5858778,7.43488875 L17.5287669,7.33001429 C17.4722147,7.18799661 17.4089634,7.04873899 17.3393698,6.91299041 C17.0195525,6.29012659 16.7897677,5.6246087 16.4137104,4.34889716 C16.362094,4.17352177 16.362094,4.17352177 16.3108584,3.99933923 C15.6526208,1.76445166 15.2298885,0.95 14.6807244,0.95 Z" id="路径" fill="url(#linearGradient-2)"></path>
                </g>
            </g>
        </g>
    </g>
</svg>