<?xml version="1.0" encoding="UTF-8"?>
<svg width="20px" height="20px" viewBox="0 0 20 20" version="1.1" xmlns="http://www.w3.org/2000/svg" xmlns:xlink="http://www.w3.org/1999/xlink">
    <title>Icon/首页备份</title>
    <g id="页面-1" stroke="none" stroke-width="1" fill="none" fill-rule="evenodd">
        <g id="丝绸之路" transform="translate(-39, -7)" fill="#7B8189" fill-rule="nonzero">
            <g id="Icon/首页备份" transform="translate(39, 7)">
                <path d="M19.953125,19.3753906 L18.1601562,13.4007813 L18.1601562,12.6839844 L18.171875,10.9554687 L18.1738281,10.7738281 C18.1738281,10.4808594 17.9355469,10.240625 17.640625,10.240625 C17.3457031,10.240625 17.1074219,10.4789062 17.1074219,10.7738281 L17.1074219,11.2972656 L16.0605469,11.2972656 L16.0605469,9.15078125 L17.4277344,7.85976563 L17.4453125,7.85195313 L17.6054687,7.69375 L18.0703125,7.21523437 C18.0800781,7.20546875 18.0839844,7.18984375 18.078125,7.17617187 C18.0722656,7.1625 18.0585937,7.1546875 18.0429687,7.1546875 C18.0429687,7.1546875 18.0136719,7.15664063 17.9589844,7.15664063 C17.6699219,7.15664063 16.6953125,7.09609375 15.9316406,6.35195312 L15.5175781,5.79921875 L15.5175781,4.89882813 L16.7285156,3.50625 L17.1015625,3.10390625 C17.1113281,3.09414063 17.1132812,3.07851562 17.1074219,3.06484375 C17.1015625,3.05117188 17.0898437,3.04335938 17.0742187,3.04335938 L16.6835937,3.04335938 C16.109375,2.98867188 14.984375,2.68398438 13.9589844,1.19960937 L13.9589844,0.63515625 C13.9589844,0.625390625 13.9550781,0.617578125 13.9492187,0.609765625 C13.9433594,0.60390625 13.9335937,0.6 13.9238281,0.6 L6.02929687,0.6 C6.01953125,0.6 6.00976562,0.60390625 6.00390625,0.609765625 C5.99804687,0.615625 5.99414062,0.625390625 5.99414062,0.63515625 L5.99414062,1.19765625 C4.96484375,2.68398438 3.83984375,2.98867188 3.265625,3.04140625 L2.87890625,3.04140625 C2.86523437,3.04140625 2.8515625,3.04921875 2.84570312,3.06289062 C2.83984375,3.0765625 2.84179687,3.09023437 2.8515625,3.10195313 L3.22460937,3.50429687 L4.43359375,4.896875 L4.43359375,5.79726562 L4.03515625,6.33242188 C3.26953125,7.0921875 2.28320312,7.1546875 1.99023437,7.1546875 C1.93554687,7.1546875 1.90820312,7.15273437 1.90820312,7.15273437 C1.89453125,7.15273437 1.87890625,7.16054687 1.87304687,7.17421875 C1.8671875,7.18789062 1.86914062,7.20351562 1.87890625,7.21328125 L2.34375,7.69179687 L2.50390625,7.85195313 L2.52148437,7.85976563 L3.88867187,9.15078125 L3.88867187,11.2972656 L2.84570312,11.2972656 L2.84570312,10.7738281 C2.84570312,10.4789062 2.60742187,10.240625 2.3125,10.240625 C2.01757812,10.240625 1.77929687,10.4789062 1.77929687,10.7738281 L1.78125,10.9574219 L1.79296875,12.6859375 L1.79296875,13.4007813 L0.001953125,19.3753906 C-0.001953125,19.3871094 -2.48689958e-14,19.396875 0.0078125,19.4066406 C0.013671875,19.4164063 0.025390625,19.4203125 0.037109375,19.4203125 L8.07421875,19.4203125 C8.07617187,19.4203125 8.07617187,19.4183594 8.07617187,19.4183594 C8.08398437,19.4183594 8.09179687,19.4144531 8.09960937,19.4085937 L8.86523437,18.6214844 L8.875,18.5960938 C8.875,18.5941406 8.87890625,17.9261719 9.0234375,17.2601563 C9.16601562,16.5882812 9.453125,15.9398437 9.97851562,15.94375 C10.5039062,15.9378906 10.7910156,16.5882812 10.9335937,17.2601563 C11.078125,17.928125 11.0800781,18.5960938 11.0820312,18.5960938 L11.0917969,18.6214844 L11.8574219,19.4085937 C11.8632812,19.4144531 11.8710937,19.4164063 11.8789062,19.4164063 C11.8808594,19.4164063 11.8828125,19.4183594 11.8828125,19.4183594 L19.9199219,19.4183594 C19.9316406,19.4183594 19.9414062,19.4125 19.9492187,19.4046875 C19.9551573,19.396875 19.9570312,19.3851563 19.953125,19.3753906 L19.953125,19.3753906 Z M3.89257812,11.7523437 L2.84570312,11.7523437 L2.84570312,11.5980469 L3.89257812,11.5980469 L3.89257812,11.7523437 Z M7.9609375,8.42617187 L5.70507812,8.42617187 L5.70507812,5.54335937 L7.9609375,5.54335937 L7.9609375,8.42617187 Z M11.1054687,8.42617187 L8.84960937,8.42617187 L8.84960937,5.54335937 L11.1054687,5.54335937 L11.1054687,8.42617187 Z M14.15625,8.42617187 L11.9003906,8.42617187 L11.9003906,5.54335937 L14.15625,5.54335937 L14.15625,8.42617187 L14.15625,8.42617187 Z M17.1074219,11.7523437 L16.0605469,11.7523437 L16.0605469,11.5980469 L17.1074219,11.5980469 L17.1074219,11.7523437 Z" id="形状"></path>
            </g>
        </g>
    </g>
</svg>