<?xml version="1.0" encoding="UTF-8"?>
<svg width="222px" height="54px" viewBox="0 0 222 54" version="1.1" xmlns="http://www.w3.org/2000/svg" xmlns:xlink="http://www.w3.org/1999/xlink">
    <title>编组</title>
    <g id="页面-1" stroke="none" stroke-width="1" fill="none" fill-rule="evenodd">
        <g id="丝绸之路" transform="translate(-84, -94)">
            <g id="编组" transform="translate(84, 94)">
                <text id="丝绸之路" font-family="jiangxizhuokai-Regular, jiangxizhuokai" font-size="48" font-weight="normal" line-spacing="48" letter-spacing="6" fill="#000000">
                    <tspan x="0" y="50">丝绸之</tspan>
                    <tspan x="162" y="50">路</tspan>
                </text>
                <path d="M220.044,48.024 C219.324,49.752 218.334,51.012 217.074,51.804 C215.814,52.596 214.032,53.316 211.728,53.964 C207.912,54.036 205.014,53.334 203.034,51.858 C201.054,50.382 199.668,48.096 198.876,45 C198.732,43.704 198.66,42.768 198.66,42.192 C198.66,38.664 199.704,35.964 201.792,34.092 C203.88,32.22 206.436,31.284 209.46,31.284 C212.628,31.284 215.4,32.256 217.776,34.2 C220.152,36.144 221.34,38.772 221.34,42.084 C221.34,43.884 220.908,45.864 220.044,48.024 Z M216.696,39.492 C216.408,39.132 216.048,38.448 215.616,37.44 C215.184,36.432 214.68,35.712 214.104,35.28 C214.248,36.144 214.59,37.134 215.13,38.25 C215.67,39.366 216.192,40.212 216.696,40.788 L216.696,39.492 Z M214.104,46.62 C215.04,45.684 215.508,44.316 215.508,42.516 C215.508,41.004 215.13,39.654 214.374,38.466 C213.618,37.278 212.592,36.756 211.296,36.9 C210.936,36.828 210.432,36.792 209.784,36.792 C208.776,36.792 208.002,36.954 207.462,37.278 C206.922,37.602 206.472,37.98 206.112,38.412 C205.752,38.844 205.464,39.168 205.248,39.384 C204.24,40.392 203.736,41.544 203.736,42.84 C203.736,44.496 204.366,45.972 205.626,47.268 C206.886,48.564 208.308,49.212 209.892,49.212 C211.548,49.212 212.952,48.348 214.104,46.62 Z" id="形状" fill="#FF6565" fill-rule="nonzero"></path>
            </g>
        </g>
    </g>
</svg>