<?xml version="1.0" encoding="UTF-8"?>
<svg width="79px" height="64px" viewBox="0 0 79 64" version="1.1" xmlns="http://www.w3.org/2000/svg" xmlns:xlink="http://www.w3.org/1999/xlink">
    <title>编组备份 2</title>
    <g id="页面-1" stroke="none" stroke-width="1" fill="none" fill-rule="evenodd">
        <g id="我的" transform="translate(-112, -561)" fill="#4297FE">
            <g id="编组备份-2" transform="translate(112, 561)">
                <path d="M74.7928932,0.5 L78.5,4.20710678 L78.5,57.7928932 L74.7928932,61.5 L43.7828769,61.5 L41.9142818,63.5 L6.20710678,63.5 L2.5,59.7928932 L2.5,32.690983 L0.5,31.690983 L0.5,6.20710678 L4.20710678,2.5 L42.2071068,2.5 L44.2071068,0.5 L74.7928932,0.5 Z" id="矩形-2" stroke="#4297FE" fill-opacity="0.1"></path>
                <polygon id="矩形-6" points="58 1 69 1 69 3 58 3"></polygon>
                <polygon id="矩形-3" points="0 13 3 12 3 28 0 27"></polygon>
                <polygon id="矩形-3备份-2" points="76 24 79 23 79 39 76 38"></polygon>
                <polygon id="矩形-3备份" transform="translate(1.5, 48) scale(-1, 1) translate(-1.5, -48)" points="0 41 3 40 3 56 0 55"></polygon>
                <rect id="矩形-6备份-2" x="9" y="61" width="14" height="2"></rect>
                <rect id="矩形-6备份-3" x="24" y="61" width="14" height="2"></rect>
                <path d="M41,0 L39,2 L37,2 L39,0 L41,0 Z M37,0 L35,2 L33,2 L35,0 L37,0 Z M33,0 L31,2 L29,2 L31,0 L33,0 Z M29,0 L27,2 L25,2 L27,0 L29,0 Z M25,0 L23,2 L21,2 L23,0 L25,0 Z M21,0 L19,2 L17,2 L19,0 L21,0 Z M17,0 L15,2 L13,2 L15,0 L17,0 Z M13,0 L11,2 L9,2 L11,0 L13,0 Z" id="形状结合"></path>
                <path d="M45,62 L47,62 L47,64 L45,64 L45,62 Z M51,62 L53,62 L53,64 L51,64 L51,62 Z M57,62 L59,62 L59,64 L57,64 L57,62 Z M63,62 L65,62 L65,64 L63,64 L63,62 Z M69,62 L71,62 L71,64 L69,64 L69,62 Z" id="形状结合"></path>
            </g>
        </g>
    </g>
</svg>