<?xml version="1.0" encoding="UTF-8"?>
<svg width="32px" height="32px" viewBox="0 0 32 32" version="1.1" xmlns="http://www.w3.org/2000/svg" xmlns:xlink="http://www.w3.org/1999/xlink">
    <title>编组</title>
    <g id="页面-1" stroke="none" stroke-width="1" fill="none" fill-rule="evenodd">
        <g id="个人-未登录" transform="translate(-42, -301)">
            <g id="首页/金刚区备份-4" transform="translate(12, 289)">
                <g id="编组" transform="translate(30, 12)">
                    <rect id="矩形" stroke="#F3F1F0" stroke-width="0.5" fill-opacity="0.5" fill="#F2F4F5" x="0.25" y="0.25" width="31.5" height="31.5" rx="11"></rect>
                    <g id="Icon/公告" transform="translate(8, 8)" fill="#1E0D00" fill-rule="nonzero">
                        <path d="M12,0.8 C14.209139,0.8 16,2.590861 16,4.8 L16,11.2 C16,13.409139 14.209139,15.2 12,15.2 L4,15.2 C1.790861,15.2 0,13.409139 0,11.2 L0,4.8 C0,2.590861 1.790861,0.8 4,0.8 L12,0.8 Z M12,2.4 L4,2.4 C2.6745166,2.4 1.6,3.4745166 1.6,4.8 L1.6,11.2 C1.6,12.5254834 2.6745166,13.6 4,13.6 L12,13.6 C13.3254834,13.6 14.4,12.5254834 14.4,11.2 L14.4,4.8 C14.4,3.4745166 13.3254834,2.4 12,2.4 Z M12.0462222,8.63466667 C12.3688889,8.63466667 12.4844444,8.65777778 12.6088889,8.70666667 C12.7303815,8.75387628 12.8384308,8.83018229 12.9235556,8.92888889 C13.0097778,9.03022222 13.072,9.13244444 13.1786667,9.43555556 L13.6444444,10.7582222 C13.7165799,10.9622522 13.6851933,11.1886019 13.5602635,11.3653059 C13.4353338,11.5420099 13.2324064,11.6470803 13.016,11.6471111 L8.52977778,11.6471111 C8.31337134,11.6470803 8.11044397,11.5420099 7.98551424,11.3653059 C7.8605845,11.1886019 7.82919785,10.9622522 7.90133333,10.7582222 L8.36711111,9.43555556 C8.47377778,9.13244444 8.53511111,9.03022222 8.62222222,8.92888889 C8.70734694,8.83018229 8.81539624,8.75387628 8.93688889,8.70666667 C9.06044444,8.65777778 9.17688889,8.63466667 9.49866667,8.63466667 Z M4.8,9.6 C5.2418278,9.6 5.6,9.9581722 5.6,10.4 C5.6,10.8418278 5.2418278,11.2 4.8,11.2 L3.2,11.2 C2.7581722,11.2 2.4,10.8418278 2.4,10.4 C2.4,9.9581722 2.7581722,9.6 3.2,9.6 L4.8,9.6 Z M6.4,7.2 C6.8418278,7.2 7.2,7.5581722 7.2,8 C7.2,8.4418278 6.8418278,8.8 6.4,8.8 L3.2,8.8 C2.7581722,8.8 2.4,8.4418278 2.4,8 C2.4,7.5581722 2.7581722,7.2 3.2,7.2 L6.4,7.2 Z M10.6666667,4.19022222 C11.6485062,4.19022222 12.4444444,4.98616044 12.4444444,5.968 C12.4444444,6.94983956 11.6485062,7.74577778 10.6666667,7.74577778 C9.68482711,7.74577778 8.88888889,6.94983956 8.88888889,5.968 C8.88888889,4.98616044 9.68482711,4.19022222 10.6666667,4.19022222 Z M6.4,4.8 C6.8418278,4.8 7.2,5.1581722 7.2,5.6 C7.2,6.0418278 6.8418278,6.4 6.4,6.4 L3.2,6.4 C2.7581722,6.4 2.4,6.0418278 2.4,5.6 C2.4,5.1581722 2.7581722,4.8 3.2,4.8 L6.4,4.8 Z" id="形状结合"></path>
                    </g>
                </g>
            </g>
        </g>
    </g>
</svg>