<?xml version="1.0" encoding="UTF-8"?>
<svg width="24px" height="24px" viewBox="0 0 24 24" version="1.1" xmlns="http://www.w3.org/2000/svg" xmlns:xlink="http://www.w3.org/1999/xlink">
    <title>Icon/公告</title>
    <g id="页面-1" stroke="none" stroke-width="1" fill="none" fill-rule="evenodd">
        <g id="个人-未登录" transform="translate(-321, -186)" fill="#BE5828" fill-rule="nonzero">
            <g id="首页/金刚区备份-11" transform="translate(287, 174)">
                <g id="Icon/公告" transform="translate(34, 12)">
                    <path d="M6.13869181,0.720921118 L6.35900117,0.721200855 L17.7083129,0.721200855 C20.7793476,0.695248449 23.3078149,3.12855688 23.4,6.19823995 L23.4,14.4194757 C23.3078149,17.4937545 20.7725892,19.9286849 17.6969587,19.8965148 L15.9351688,19.8965148 C15.4963213,19.8977984 15.0814587,20.0969364 14.8059688,20.4385416 L13.1347419,22.5615025 C12.8557962,22.8971623 12.44198,23.0913258 12.0055419,23.0913258 C11.5691038,23.0913258 11.1552876,22.8971623 10.8763419,22.5615025 L9.19376089,20.4385416 C8.91828691,20.0968349 8.50331875,19.8978665 8.06456088,19.8965148 L6.13896214,19.8967945 C3.14104577,19.8430299 0.689990227,17.4421972 0.6,14.4194757 L0.6,6.19823995 C0.691914773,3.10179346 3.26174368,0.657941865 6.35900117,0.721200855 Z M7.58,7.3776 L7.3,7.3776 C6.74771525,7.3776 6.3,7.82531525 6.3,8.3776 L6.3,12.0776 C6.3,12.6298847 6.74771525,13.0776 7.3,13.0776 L7.58,13.0776 C8.13228475,13.0776 8.58,12.6298847 8.58,12.0776 L8.58,8.3776 C8.58,7.82531525 8.13228475,7.3776 7.58,7.3776 Z M12.14,7.3776 L11.86,7.3776 C11.3077153,7.3776 10.86,7.82531525 10.86,8.3776 L10.86,12.0776 C10.86,12.6298847 11.3077153,13.0776 11.86,13.0776 L12.14,13.0776 C12.6922847,13.0776 13.14,12.6298847 13.14,12.0776 L13.14,8.3776 C13.14,7.82531525 12.6922847,7.3776 12.14,7.3776 Z M16.7,7.3776 L16.42,7.3776 C15.8677153,7.3776 15.42,7.82531525 15.42,8.3776 L15.42,12.0776 C15.42,12.6298847 15.8677153,13.0776 16.42,13.0776 L16.7,13.0776 C17.2522847,13.0776 17.7,12.6298847 17.7,12.0776 L17.7,8.3776 C17.7,7.82531525 17.2522847,7.3776 16.7,7.3776 Z" id="形状结合"></path>
                </g>
            </g>
        </g>
    </g>
</svg>