<?xml version="1.0" encoding="UTF-8"?>
<svg width="24px" height="24px" viewBox="0 0 24 24" version="1.1" xmlns="http://www.w3.org/2000/svg" xmlns:xlink="http://www.w3.org/1999/xlink">
    <title>Icon/公告</title>
    <g id="页面-1" stroke="none" stroke-width="1" fill="none" fill-rule="evenodd">
        <g id="个人-未登录" transform="translate(-230, -186)" fill="#BE5828" fill-rule="nonzero">
            <g id="首页/金刚区备份-10" transform="translate(196, 174)">
                <g id="Icon/公告" transform="translate(34, 12)">
                    <path d="M2.88713442,5.01870063 C2.8641734,5.156309 2.91451407,5.2661695 2.978058,5.37103276 C3.05256955,5.493965 3.15635448,5.58999102 3.27376342,5.67089377 C3.52020654,5.84074751 3.79347696,5.94937186 4.08352763,6.0172029 C4.13302665,6.02877548 4.18510323,6.03124781 4.23620665,6.03340451 C4.3003555,6.03611356 4.36471476,6.03416725 4.42899511,6.03416725 C9.87270522,6.03416725 15.3164153,6.03440397 20.7601255,6.03358862 C21.0640895,6.033536 21.3640558,6.05725979 21.6515552,6.16238604 C22.6165233,6.51519157 23.1884712,7.20049808 23.364874,8.21109895 C23.394463,8.38068968 23.3981715,8.55640862 23.3982767,8.72928703 C23.3999909,11.9492491 23.3996443,15.1691849 23.3996443,18.389147 C23.3996443,19.1989638 23.3986186,20.0087543 23.3999909,20.8185711 C23.400749,21.2641677 23.3075109,21.6871713 23.0906304,22.0772721 C22.6764114,22.8223352 22.043497,23.2604621 21.2023554,23.3930732 C21.069981,23.4137992 20.9331617,23.4115367 20.7983938,23.4116156 C19.0181119,23.4127203 17.2378037,23.4123521 15.4575218,23.4123521 C11.3699326,23.4123521 7.2823172,23.4115104 3.19472804,23.4137992 C2.82285407,23.4137992 2.46594553,23.3552783 2.12539638,23.2058606 C1.18212682,22.7919572 0.607811763,21.8622854 0.600973442,20.9119407 C0.600684137,20.873383 0.600841924,20.8348253 0.600841924,20.7962676 C0.600841924,15.9695596 0.601262747,11.1428515 0.6,6.31614339 C0.6,5.96073401 0.629720738,5.60997998 0.726325396,5.26732674 C0.93894504,4.51324237 1.38788182,3.95736453 2.10822163,3.63159673 C2.35668995,3.51923761 2.62235932,3.47352597 2.88860729,3.42826144 C3.5216005,3.32066284 4.1542255,3.21082866 4.78690311,3.10131008 C5.34364889,3.00494214 5.90023684,2.90773255 6.45693,2.81102269 C7.09584101,2.70003124 7.73477833,2.58906608 8.37371566,2.47828503 C8.99368974,2.37079165 9.61374271,2.26366647 10.2337168,2.15609419 C10.8789664,2.04415589 11.5240845,1.93134965 12.1694393,1.81988476 C12.8717628,1.6985832 13.5744018,1.57907011 14.2766726,1.45758445 C14.9789434,1.33609878 15.6808724,1.21266682 16.3831169,1.09094444 C17.0157682,0.981268039 17.6485773,0.872591102 18.2813601,0.763756353 C18.5471347,0.71804471 18.8119361,0.66446897 19.0791572,0.629961666 C19.438091,0.583618776 19.7976296,0.581935508 20.1486204,0.690743964 C20.5415617,0.812571545 20.8424485,1.04678457 21.0239537,1.42228811 C21.0861563,1.55095404 21.1209003,1.68427529 21.1190066,1.83045788 C21.1139305,2.22245236 21.117297,2.61452572 21.117297,3.00657282 L21.117297,3.18931419 C21.0701388,3.2037273 21.0301609,3.22342696 20.9886311,3.22750368 C20.413264,3.28405145 19.837555,3.33736418 19.2621616,3.39378043 C18.8082539,3.43828222 18.354767,3.48720263 17.9008593,3.53188852 C17.4469516,3.57657441 16.9926494,3.61736772 16.5387153,3.66181692 C16.0848076,3.70626609 15.6311629,3.75376623 15.1773078,3.79876774 C14.8576682,3.83043451 14.5377656,3.85952372 14.2180997,3.89090118 C13.8856513,3.92351479 13.5534134,3.95791687 13.2209913,3.9907672 C12.9077166,4.02172381 12.5943367,4.05133907 12.281062,4.08208529 C11.9422225,4.11533012 11.6034881,4.14939031 11.2646486,4.18274031 C10.9513739,4.21356543 10.6380466,4.24370672 10.3247719,4.27445293 C9.9859323,4.30769776 9.64714535,4.34136342 9.30830579,4.37468716 C8.99503109,4.40548599 8.68173007,4.43602177 8.3684817,4.4668206 C8.02325093,4.50074927 7.67807275,4.53501985 7.33281566,4.56886961 C7.01954096,4.59958953 6.70621365,4.62975711 6.39293896,4.66050332 C6.05409939,4.69374816 5.71531244,4.72746643 5.3764729,4.76081643 C5.06319821,4.79164155 4.74992351,4.82215105 4.43664879,4.85302878 C4.09145013,4.88708443 3.74626317,4.92125859 3.40108798,4.95555123 C3.26045497,4.96951723 3.11976935,4.98314128 2.97929415,4.99842234 C2.94867946,5.00173631 2.91882748,5.01154669 2.88713442,5.01870063 L2.88713442,5.01870063 Z M17.9506739,15.3353039 C17.9447562,16.330913 18.767145,17.1275529 19.736558,17.122579 C20.6285138,17.1179529 21.4986395,16.399086 21.5000351,15.3299121 C21.5013748,14.3000324 20.6825366,13.5307196 19.7216715,13.5334215 C18.6964471,13.5362954 17.9349984,14.3852486 17.9506739,15.3353039 L17.9506739,15.3353039 Z" id="形状"></path>
                </g>
            </g>
        </g>
    </g>
</svg>