<?xml version="1.0" encoding="UTF-8"?>
<svg width="32px" height="32px" viewBox="0 0 32 32" version="1.1" xmlns="http://www.w3.org/2000/svg" xmlns:xlink="http://www.w3.org/1999/xlink">
    <title>编组</title>
    <g id="页面-1" stroke="none" stroke-width="1" fill="none" fill-rule="evenodd">
        <g id="个人-未登录" transform="translate(-317, -301)">
            <g id="首页/金刚区备份-11" transform="translate(287, 289)">
                <g id="编组" transform="translate(30, 12)">
                    <rect id="矩形" stroke="#F3F1F0" stroke-width="0.5" fill-opacity="0.5" fill="#F2F4F5" x="0.25" y="0.25" width="31.5" height="31.5" rx="11"></rect>
                    <g id="Icon/公告" transform="translate(8, 8)" fill="#1E0D00" fill-rule="nonzero">
                        <path d="M12,8.8817842e-15 C14.209139,8.8817842e-15 16,1.790861 16,4 L16,13.4646001 C16,13.8998203 15.8101876,14.2930474 15.468187,14.559882 L15.4234631,14.5923548 L13.7505023,15.7208945 C13.2021042,16.0882571 12.4696457,16.0924089 11.9043756,15.7287325 L10.4152,14.732 L8.98867578,15.7068397 C8.48485922,16.0548848 7.80555801,16.0833683 7.26047209,15.7958225 L7.13720651,15.7238574 L5.62,14.7216 L4.17346879,15.7056634 C3.66558158,16.0458886 3.00199809,16.0737234 2.45070949,15.7892439 L2.32560442,15.7180507 L0.579141907,14.574639 C0.241199084,14.3355794 0,13.9142227 0,13.4874467 L0,4 C0,1.790861 1.790861,8.8817842e-15 4,8.8817842e-15 L12,8.8817842e-15 Z M12,1.6 L4,1.6 C2.6745166,1.6 1.6,2.6745166 1.6,4 L1.6,13.3312 L3.1872321,14.3699765 C3.20734232,14.3825287 3.23511844,14.3865941 3.2554814,14.3851829 L3.27858107,14.3793348 L5.13886816,13.1151594 L5.3424166,12.9768362 L5.88046365,12.9768362 L6.08097531,13.1092214 L8.01070635,14.3833704 C8.02782969,14.3943823 8.0738988,14.3941228 8.08289516,14.3879227 L9.9345698,13.1237473 L10.1386001,12.9844517 L10.6802939,12.9844517 L10.8822273,13.1195773 L12.7819982,14.390986 C12.8007261,14.4030296 12.8433084,14.4027883 12.8578766,14.3930343 L14.4,13.352 L14.4,4 C14.4,2.72185529 13.400864,1.6770713 12.1410182,1.60407415 L12,1.6 Z M9.47531326,3.52645494 C9.69622716,3.14382084 10.1854995,3.01272072 10.5681336,3.23363462 C10.9507677,3.45454852 11.0818678,3.94382084 10.8609539,4.32645494 L10.1256,5.59928542 L11.2,5.6 C11.6418278,5.6 12,5.9581722 12,6.4 C12,6.8418278 11.6418278,7.2 11.2,7.2 L8.8,7.19928542 L8.8,7.99928542 L11.2,8 C11.6418278,8 12,8.3581722 12,8.8 C12,9.2418278 11.6418278,9.6 11.2,9.6 L8.8,9.59928542 L8.8,12 C8.8,12.4418278 8.4418278,12.8 8,12.8 C7.5581722,12.8 7.2,12.4418278 7.2,12 L7.2,9.59928542 L4.8,9.6 C4.3581722,9.6 4,9.2418278 4,8.8 C4,8.3581722 4.3581722,8 4.8,8 L7.2,7.99928542 L7.2,7.19928542 L4.8,7.2 C4.3581722,7.2 4,6.8418278 4,6.4 C4,5.9581722 4.3581722,5.6 4.8,5.6 L5.8104,5.59928542 L5.07531326,4.32645494 C4.87017892,3.97115185 4.96856688,3.52390049 5.29002719,3.28494418 L5.36813358,3.23363462 C5.75076768,3.01272072 6.24004,3.14382084 6.4609539,3.52645494 L7.6576,5.59928542 L8.2784,5.59928542 Z" id="形状结合"></path>
                    </g>
                </g>
            </g>
        </g>
    </g>
</svg>