<?xml version="1.0" encoding="UTF-8"?>
<svg width="32px" height="32px" viewBox="0 0 32 32" version="1.1" xmlns="http://www.w3.org/2000/svg" xmlns:xlink="http://www.w3.org/1999/xlink">
    <title>编组</title>
    <g id="页面-1" stroke="none" stroke-width="1" fill="none" fill-rule="evenodd">
        <g id="个人-未登录" transform="translate(-317, -377)">
            <g id="首页/金刚区备份-12" transform="translate(287, 365)">
                <g id="编组" transform="translate(30, 12)">
                    <rect id="矩形" stroke="#F3F1F0" stroke-width="0.5" fill-opacity="0.5" fill="#F2F4F5" x="0.25" y="0.25" width="31.5" height="31.5" rx="11"></rect>
                    <g id="Icon/公告" transform="translate(8, 8)" fill="#1E0D00" fill-rule="nonzero">
                        <path d="M8,0 C12.418278,0 16,3.581722 16,8 C16,10.0071795 15.2608063,11.8417112 14.039795,13.2462188 C13.8269582,13.4910412 15.7649062,13.9656262 15.5241529,14.1829532 C14.1058007,15.4632934 10.0612232,16 8,16 C3.581722,16 0,12.418278 0,8 C0,3.581722 3.581722,0 8,0 Z M8,1.6 C4.4653776,1.6 1.6,4.4653776 1.6,8 C1.6,11.5346224 4.4653776,14.4 8,14.4 C9.38812148,14.4 11.0606433,14.1781479 12.3812243,13.8459015 L12.5072,13.8128 L12.5013659,13.7950556 C12.3451162,13.320276 12.3965835,12.7771451 12.7402466,12.3112579 L12.8322986,12.1964795 C13.8380011,11.0396379 14.4,9.56546727 14.4,8 C14.4,4.4653776 11.5346224,1.6 8,1.6 Z M9.09365373,4.8 C10.297489,4.8 11.2733902,5.77590128 11.2733902,6.97973651 C11.2733902,8.18357175 10.297489,9.15947303 9.09365373,9.15947303 L7.6,9.1592 L7.6,11.8604959 C7.6,12.2707646 7.29116785,12.6089017 6.8932969,12.6551137 L6.8,12.6604959 C6.3581722,12.6604959 6,12.3023237 6,11.8604959 L6,5.6 C6,5.1581722 6.3581722,4.8 6.8,4.8 L9.09365373,4.8 Z M9.09365373,6.4 L7.6,6.4 L7.6,7.5592 L9.09365373,7.55947303 C9.38715173,7.55947303 9.62970978,7.34137315 9.66809794,7.05840333 L9.67339025,6.97973651 C9.67339025,6.65955688 9.41383337,6.4 9.09365373,6.4 Z" id="形状结合"></path>
                    </g>
                </g>
            </g>
        </g>
    </g>
</svg>