<?xml version="1.0" encoding="UTF-8"?>
<svg width="32px" height="32px" viewBox="0 0 32 32" version="1.1" xmlns="http://www.w3.org/2000/svg" xmlns:xlink="http://www.w3.org/1999/xlink">
    <title>编组</title>
    <g id="页面-1" stroke="none" stroke-width="1" fill="none" fill-rule="evenodd">
        <g id="个人-未登录" transform="translate(-134, -301)">
            <g id="首页/金刚区备份-5" transform="translate(104, 289)">
                <g id="编组" transform="translate(30, 12)">
                    <rect id="矩形" stroke="#F3F1F0" stroke-width="0.5" fill-opacity="0.5" fill="#F2F4F5" x="0.25" y="0.25" width="31.5" height="31.5" rx="11"></rect>
                    <g id="Icon/公告" transform="translate(8, 8)" fill="#1E0D00" fill-rule="nonzero">
                        <path d="M8,0 C12.4148148,0 16,3.58518519 16,8 C16,12.4148148 12.4148148,16 8,16 C3.58518519,16 0,12.4148148 0,8 C0,3.58518519 3.58518519,0 8,0 Z M8,1.6 C4.46884079,1.6 1.6,4.46884079 1.6,8 C1.6,11.5311592 4.46884079,14.4 8,14.4 C11.5311592,14.4 14.4,11.5311592 14.4,8 C14.4,4.46884079 11.5311592,1.6 8,1.6 Z M8.2,4.8 L11.2,7.27999999 L8.2,9.84 L8.2,8.68 L8.13643877,8.67960931 C7.72231405,8.68231405 5.38181818,8.77818182 4,10.56 C4.61714285,7.35428571 7.26204081,6.22040816 8.00513119,5.96186589 L8.11069647,5.9266753 C8.16843537,5.90834467 8.2,5.9 8.2,5.9 L8.2,4.8 Z" id="形状结合"></path>
                    </g>
                </g>
            </g>
        </g>
    </g>
</svg>