<?xml version="1.0" encoding="UTF-8"?>
<svg width="20px" height="20px" viewBox="0 0 20 20" version="1.1" xmlns="http://www.w3.org/2000/svg" xmlns:xlink="http://www.w3.org/1999/xlink">
    <title>Icon/推广奖励</title>
    <g id="页面-1" stroke="none" stroke-width="1" fill="none" fill-rule="evenodd">
        <g id="分享推广" transform="translate(-50, -692)" fill="#BE5828" fill-rule="nonzero">
            <g id="Icon/推广奖励" transform="translate(50, 692)">
                <path d="M10.625,10.9375 L10.625,18.3007813 C10.625,18.3867188 10.5546875,18.4570313 10.46875,18.4570313 L9.53125,18.4570313 C9.4453125,18.4570313 9.375,18.3867188 9.375,18.3007813 L9.375,10.9375 L1.25,10.9375 L1.25,18.4570313 C1.25,19.1464844 1.81054688,19.7070313 2.5,19.7070313 L17.5,19.7070313 C18.1914062,19.7070313 18.75,19.1464844 18.75,18.4570313 L18.75,10.9375 L10.625,10.9375 Z M17.5,4.08203125 L16.6796875,4.08203125 C16.5546875,4.08203125 16.4804688,3.94140625 16.5507812,3.83789063 C16.8554688,3.38476563 17.0039062,2.88671875 16.9726562,2.39257812 C16.9355469,1.80273437 16.6386719,1.29101562 16.1171875,0.912109375 C15.7421875,0.640625 15.2441406,0.443359375 14.7167969,0.353515625 C13.7597656,0.193359375 12.7460938,0.46484375 11.859375,1.12109375 C11.3828125,1.47460938 10.9492188,1.92578125 10.5625,2.47265625 C10.3144531,2.82226563 9.79296875,2.82226563 9.54492188,2.47265625 C9.15820312,1.92578125 8.72460938,1.47265625 8.24804688,1.12109375 C7.36328125,0.46484375 6.34960938,0.19140625 5.39257812,0.353515625 C4.86523438,0.443359375 4.3671875,0.640625 3.9921875,0.912109375 C3.47070312,1.2890625 3.17382812,1.80078125 3.13671875,2.39257812 C3.10546875,2.88671875 3.25195312,3.38476563 3.55859375,3.83789063 C3.62890625,3.94140625 3.55664062,4.08203125 3.4296875,4.08203125 L2.5,4.08203125 C1.11914062,4.08203125 0,5.20117188 0,6.58203125 L0,9.08203125 C0,9.37304688 0.19921875,9.61914063 0.46875,9.6875 L19.53125,9.6875 C19.8007812,9.61914063 20,9.37304688 20,9.08203125 L20,6.58203125 C20,5.20117188 18.8808594,4.08203125 17.5,4.08203125 Z M11.1738281,3.84960938 C12.2128906,1.96484375 13.5292969,1.41992188 14.5078125,1.5859375 C14.6269531,1.60546875 15.6796875,1.80273438 15.7246094,2.47265625 C15.7617187,3.05664063 15.1171875,3.83007813 14.0058594,4.08203125 L11.3105469,4.08203125 C11.1914062,4.08203125 11.1171875,3.95507813 11.1738281,3.84960938 L11.1738281,3.84960938 Z M4.3828125,2.47265625 C4.42578125,1.80273438 5.47851563,1.60742188 5.59960938,1.5859375 C6.58007813,1.421875 7.89648438,1.96484375 8.93359375,3.84960938 C8.9921875,3.953125 8.91601563,4.08203125 8.796875,4.08203125 L6.1015625,4.08203125 C4.9921875,3.828125 4.34570313,3.05664063 4.3828125,2.47265625 Z" id="形状"></path>
            </g>
        </g>
    </g>
</svg>