<?xml version="1.0" encoding="UTF-8"?>
<svg width="330px" height="455px" viewBox="0 0 330 455" version="1.1" xmlns="http://www.w3.org/2000/svg" xmlns:xlink="http://www.w3.org/1999/xlink">
    <title>形状结合</title>
    <g id="页面-1" stroke="none" stroke-width="1" fill="none" fill-rule="evenodd">
        <g id="分享推广" transform="translate(-30, -214)" fill="#FFFFFF">
            <path d="M348,214 C354.627417,214 360,219.372583 360,226 L360,503 C353.924868,503 349,507.924868 349,514 C349,520.075132 353.924868,525 360,525 L360,657 C360,663.627417 354.627417,669 348,669 L42,669 C35.372583,669 30,663.627417 30,657 L30,525 C36.0751322,525 41,520.075132 41,514 C41,507.924868 36.0751322,503 30,503 L30,226 C30,219.372583 35.372583,214 42,214 L348,214 Z M336.5,513.5 L53.5,513.5 C53.2238576,513.5 53,513.723858 53,514 C53,514.276142 53.2238576,514.5 53.5,514.5 L336.5,514.5 C336.776142,514.5 337,514.276142 337,514 C337,513.723858 336.776142,513.5 336.5,513.5 Z" id="形状结合"></path>
        </g>
    </g>
</svg>