<?xml version="1.0" encoding="UTF-8"?>
<svg width="146px" height="14px" viewBox="0 0 146 14" version="1.1" xmlns="http://www.w3.org/2000/svg" xmlns:xlink="http://www.w3.org/1999/xlink">
    <title>编组备份 3</title>
    <defs>
        <linearGradient x1="8.10931417%" y1="49.5061267%" x2="84.6194205%" y2="50%" id="linearGradient-1">
            <stop stop-color="#1114F7" offset="0%"></stop>
            <stop stop-color="#1114F7" stop-opacity="0" offset="100%"></stop>
        </linearGradient>
        <linearGradient x1="8.10931417%" y1="49.5061267%" x2="84.6194205%" y2="50%" id="linearGradient-2">
            <stop stop-color="#4297FE" offset="0%"></stop>
            <stop stop-color="#4297FE" stop-opacity="0" offset="100%"></stop>
        </linearGradient>
        <linearGradient x1="100%" y1="-7.21644966e-14%" x2="56.5945725%" y2="-7.21644966e-14%" id="linearGradient-3">
            <stop stop-color="#1114F7" stop-opacity="0" offset="0%"></stop>
            <stop stop-color="#1114F7" offset="100%"></stop>
        </linearGradient>
        <linearGradient x1="100%" y1="-7.21644966e-14%" x2="56.5945725%" y2="-7.21644966e-14%" id="linearGradient-4">
            <stop stop-color="#4297FE" stop-opacity="0" offset="0%"></stop>
            <stop stop-color="#4297FE" offset="100%"></stop>
        </linearGradient>
    </defs>
    <g id="页面-1" stroke="none" stroke-width="1" fill="none" fill-rule="evenodd" opacity="0.246748992">
        <g id="发现" transform="translate(-24, -844)">
            <g id="编组备份-3" transform="translate(24, 844)">
                <path d="M86,4 L78,14 L74,14 L82,4 L86,4 Z M94,4 L86,14 L82,14 L90,4 L94,4 Z M110,4 L102,14 L98,14 L106,4 L110,4 Z M102,4 L94,14 L90,14 L98,4 L102,4 Z" id="形状结合" fill="url(#linearGradient-2)"></path>
                <polygon id="矩形-7" fill="url(#linearGradient-4)" points="3.99152933e-13 12 69 12 79 8.95283847e-13 146 2.98427949e-13 146 2 80 2 70 14 3.99152933e-13 14"></polygon>
            </g>
        </g>
    </g>
</svg>