<?xml version="1.0" encoding="UTF-8"?>
<svg width="44px" height="44px" viewBox="0 0 44 44" version="1.1" xmlns="http://www.w3.org/2000/svg" xmlns:xlink="http://www.w3.org/1999/xlink">
    <title>Icon/播放</title>
    <defs>
        <linearGradient x1="50%" y1="0%" x2="50%" y2="100%" id="linearGradient-1">
            <stop stop-color="#01A25E" offset="0%"></stop>
            <stop stop-color="#01A25E" stop-opacity="0" offset="100%"></stop>
        </linearGradient>
        <linearGradient x1="50%" y1="0%" x2="50%" y2="100%" id="linearGradient-2">
            <stop stop-color="#1EF299" offset="0%"></stop>
            <stop stop-color="#24BF7E" offset="100%"></stop>
        </linearGradient>
        <linearGradient x1="50%" y1="0%" x2="50%" y2="100%" id="linearGradient-3">
            <stop stop-color="#007F49" offset="0%"></stop>
            <stop stop-color="#01A25E" offset="100%"></stop>
        </linearGradient>
    </defs>
    <g id="页面-1" stroke="none" stroke-width="1" fill="none" fill-rule="evenodd">
        <g id="首页" transform="translate(-217, -319)" fill-rule="nonzero">
            <g id="金刚区/图标备份-2" transform="translate(196, 319)">
                <g id="Icon/播放" transform="translate(21, -0)">
                    <path d="M22,0 C34.1502645,0 44,9.8497355 44,22 C44,34.1502645 34.1502645,44 22,44 C9.8497355,44 0,34.1502645 0,22 C0,9.8497355 9.8497355,0 22,0 Z" id="路径" fill="url(#linearGradient-1)" opacity="0.300000012"></path>
                    <path d="M32.370799,19.7936889 L27.6998801,16.0264912 L23.6559812,12.7644636 C22.5567921,11.8785121 21.0209737,11.8785121 19.9217846,12.7644636 L15.8804243,16.0264912 L11.2069668,19.7936889 C10.8109541,20.1135453 11.0216532,20.7913363 11.5141305,20.7913363 L14.5096111,20.7913363 L14.5096111,30.7805026 C14.5096111,31.399907 14.9893958,31.9 15.5808763,31.9 L27.989274,31.9 C28.5807545,31.9 29.0605391,31.399907 29.0605391,30.7805026 L29.0605391,20.7913363 L32.0560197,20.7913363 C32.5561126,20.7913363 32.7668117,20.1135453 32.370799,19.7936889 Z M24.5241629,28.7979006 C24.5241629,29.1939133 24.2144607,29.5163082 23.8362178,29.5163082 L19.7440866,29.5163082 C19.3658437,29.5163082 19.0561415,29.1939133 19.0561415,28.7979006 L19.0561415,25.9420398 C19.0561415,25.5460271 19.3658437,25.2236322 19.7440866,25.2236322 L23.8362178,25.2236322 C24.2144607,25.2236322 24.5241629,25.5460271 24.5241629,25.9420398 L24.5241629,28.7979006 Z M25.9838251,22.3170005 C25.9838251,22.6952434 25.6868155,23.0049457 25.3263425,23.0049457 L18.2514234,23.0049457 C17.8884117,23.0049457 17.5939408,22.6952434 17.5939408,22.3170005 C17.5939408,21.9387577 17.8909503,21.6290554 18.2514234,21.6290554 L25.3263425,21.6290554 C25.6893541,21.631594 25.9838251,21.9412962 25.9838251,22.3170005 Z" id="形状" fill="url(#linearGradient-2)"></path>
                    <path d="M19.5766368,12.3362429 C20.8772793,11.287919 22.7004865,11.287919 24.0012976,12.3363788 L28.0451621,15.5983787 L32.716081,19.3655764 C33.5066484,20.0041114 33.0872461,21.3413363 32.0560197,21.3413363 L29.6098,21.34 L29.6105391,30.7805026 C29.6105391,31.6215638 29.0054108,32.323521 28.21047,32.4346732 L27.989274,32.45 L15.5808763,32.45 C14.6797638,32.45 13.9596111,31.6980239 13.9596111,30.7805026 L13.959,21.34 L11.5141305,21.3413363 C10.5558279,21.3413363 10.1313789,20.1748116 10.7199874,19.5015909 L10.8617985,19.3654847 L15.5349766,15.5985124 L19.5766368,12.3362429 Z M23.3108334,13.1926843 C22.4130977,12.4691052 21.1646681,12.4691052 20.2672323,13.1924424 L16.2255927,16.4546954 L11.5525522,20.2215565 C11.5494015,20.2241014 11.5547286,20.2413363 11.5141305,20.2413363 L15.0596111,20.2413363 L15.0596111,30.7805026 C15.0596111,31.1008969 15.2981723,31.35 15.5808763,31.35 L27.989274,31.35 C28.2719779,31.35 28.5105391,31.1008969 28.5105391,30.7805026 L28.5105391,20.2413363 L32.0560197,20.2413363 C32.0230983,20.2413363 32.0284756,20.2241913 32.0252136,20.2215565 L27.3545637,16.454576 L23.3108334,13.1926843 Z M23.8362178,24.6736322 C24.5238873,24.6736322 25.0741629,25.247711 25.0741629,25.9420398 L25.0741629,28.7979006 C25.0741629,29.4922294 24.5238873,30.0663082 23.8362178,30.0663082 L19.7440866,30.0663082 C19.0564171,30.0663082 18.5061415,29.4922294 18.5061415,28.7979006 L18.5061415,25.9420398 C18.5061415,25.247711 19.0564171,24.6736322 19.7440866,24.6736322 L23.8362178,24.6736322 Z M23.8362178,25.7736322 L19.7440866,25.7736322 C19.6745955,25.7736322 19.6061415,25.8450473 19.6061415,25.9420398 L19.6061415,28.7979006 C19.6061415,28.8948931 19.6745955,28.9663082 19.7440866,28.9663082 L23.8362178,28.9663082 C23.9057089,28.9663082 23.9741629,28.8948931 23.9741629,28.7979006 L23.9741629,25.9420398 C23.9741629,25.8450473 23.9057089,25.7736322 23.8362178,25.7736322 Z M25.3301885,21.0790554 C25.9999256,21.0837523 26.5338251,21.643279 26.5338251,22.3170005 C26.5338251,22.9933245 25.996498,23.5549457 25.3263425,23.5549457 L18.2514234,23.5549457 C17.5792609,23.5549457 17.0439408,22.9939302 17.0439408,22.3170005 C17.0439408,21.6406766 17.5812679,21.0790554 18.2514234,21.0790554 L25.3301885,21.0790554 Z M25.3263425,22.1790554 L18.2514234,22.1790554 C18.1999286,22.1790554 18.1439408,22.2375747 18.1439408,22.3170005 C18.1439408,22.3976533 18.198609,22.4549457 18.2514234,22.4549457 L25.3263425,22.4549457 C25.3778372,22.4549457 25.4338251,22.3964264 25.4338251,22.3170005 C25.4338251,22.2382167 25.3777291,22.1794282 25.3263425,22.1790554 Z" id="形状" fill="url(#linearGradient-3)"></path>
                </g>
            </g>
        </g>
    </g>
</svg>