<?xml version="1.0" encoding="UTF-8"?>
<svg width="20px" height="20px" viewBox="0 0 20 20" version="1.1" xmlns="http://www.w3.org/2000/svg" xmlns:xlink="http://www.w3.org/1999/xlink">
    <title>Icon/首页备份</title>
    <defs>
        <linearGradient x1="50%" y1="0%" x2="50%" y2="100%" id="linearGradient-1">
            <stop stop-color="#1EF299" offset="0%"></stop>
            <stop stop-color="#24BF7E" offset="100%"></stop>
        </linearGradient>
        <linearGradient x1="50%" y1="0%" x2="50%" y2="100%" id="linearGradient-2">
            <stop stop-color="#007F49" offset="0%"></stop>
            <stop stop-color="#01A25E" offset="100%"></stop>
        </linearGradient>
    </defs>
    <g id="页面-1" stroke="none" stroke-width="1" fill="none" fill-rule="evenodd">
        <g id="首页" transform="translate(-39, -7)" fill-rule="nonzero">
            <g id="Icon/首页备份" transform="translate(39, 7)">
                <path d="M19.953125,19.3753906 L18.1601562,13.4007813 L18.1601562,12.6839844 L18.171875,10.9554687 L18.1738281,10.7738281 C18.1738281,10.4808594 17.9355469,10.240625 17.640625,10.240625 C17.3457031,10.240625 17.1074219,10.4789062 17.1074219,10.7738281 L17.1074219,11.2972656 L16.0605469,11.2972656 L16.0605469,9.15078125 L17.4277344,7.85976563 L17.4453125,7.85195313 L17.6054687,7.69375 L18.0703125,7.21523437 C18.0800781,7.20546875 18.0839844,7.18984375 18.078125,7.17617187 C18.0722656,7.1625 18.0585937,7.1546875 18.0429687,7.1546875 C18.0429687,7.1546875 18.0136719,7.15664063 17.9589844,7.15664063 C17.6699219,7.15664063 16.6953125,7.09609375 15.9316406,6.35195312 L15.5175781,5.79921875 L15.5175781,4.89882813 L16.7285156,3.50625 L17.1015625,3.10390625 C17.1113281,3.09414063 17.1132812,3.07851562 17.1074219,3.06484375 C17.1015625,3.05117188 17.0898437,3.04335938 17.0742187,3.04335938 L16.6835937,3.04335938 C16.109375,2.98867188 14.984375,2.68398438 13.9589844,1.19960937 L13.9589844,0.63515625 C13.9589844,0.625390625 13.9550781,0.617578125 13.9492187,0.609765625 C13.9433594,0.60390625 13.9335937,0.6 13.9238281,0.6 L6.02929687,0.6 C6.01953125,0.6 6.00976562,0.60390625 6.00390625,0.609765625 C5.99804687,0.615625 5.99414062,0.625390625 5.99414062,0.63515625 L5.99414062,1.19765625 C4.96484375,2.68398438 3.83984375,2.98867188 3.265625,3.04140625 L2.87890625,3.04140625 C2.86523437,3.04140625 2.8515625,3.04921875 2.84570312,3.06289062 C2.83984375,3.0765625 2.84179687,3.09023437 2.8515625,3.10195313 L3.22460937,3.50429687 L4.43359375,4.896875 L4.43359375,5.79726562 L4.03515625,6.33242188 C3.26953125,7.0921875 2.28320312,7.1546875 1.99023437,7.1546875 C1.93554687,7.1546875 1.90820312,7.15273437 1.90820312,7.15273437 C1.89453125,7.15273437 1.87890625,7.16054687 1.87304687,7.17421875 C1.8671875,7.18789062 1.86914062,7.20351562 1.87890625,7.21328125 L2.34375,7.69179687 L2.50390625,7.85195313 L2.52148437,7.85976563 L3.88867187,9.15078125 L3.88867187,11.2972656 L2.84570312,11.2972656 L2.84570312,10.7738281 C2.84570312,10.4789062 2.60742187,10.240625 2.3125,10.240625 C2.01757812,10.240625 1.77929687,10.4789062 1.77929687,10.7738281 L1.78125,10.9574219 L1.79296875,12.6859375 L1.79296875,13.4007813 L0.001953125,19.3753906 C-0.001953125,19.3871094 -2.48689958e-14,19.396875 0.0078125,19.4066406 C0.013671875,19.4164063 0.025390625,19.4203125 0.037109375,19.4203125 L8.07421875,19.4203125 C8.07617187,19.4203125 8.07617187,19.4183594 8.07617187,19.4183594 C8.08398437,19.4183594 8.09179687,19.4144531 8.09960937,19.4085937 L8.86523437,18.6214844 L8.875,18.5960938 C8.875,18.5941406 8.87890625,17.9261719 9.0234375,17.2601563 C9.16601562,16.5882812 9.453125,15.9398437 9.97851562,15.94375 C10.5039062,15.9378906 10.7910156,16.5882812 10.9335937,17.2601563 C11.078125,17.928125 11.0800781,18.5960938 11.0820312,18.5960938 L11.0917969,18.6214844 L11.8574219,19.4085937 C11.8632812,19.4144531 11.8710937,19.4164063 11.8789062,19.4164063 C11.8808594,19.4164063 11.8828125,19.4183594 11.8828125,19.4183594 L19.9199219,19.4183594 C19.9316406,19.4183594 19.9414062,19.4125 19.9492187,19.4046875 C19.9551573,19.396875 19.9570312,19.3851563 19.953125,19.3753906 L19.953125,19.3753906 Z M3.89257812,11.7523437 L2.84570312,11.7523437 L2.84570312,11.5980469 L3.89257812,11.5980469 L3.89257812,11.7523437 Z M7.9609375,8.42617187 L5.70507812,8.42617187 L5.70507812,5.54335937 L7.9609375,5.54335937 L7.9609375,8.42617187 Z M11.1054687,8.42617187 L8.84960937,8.42617187 L8.84960937,5.54335937 L11.1054687,5.54335937 L11.1054687,8.42617187 Z M14.15625,8.42617187 L11.9003906,8.42617187 L11.9003906,5.54335937 L14.15625,5.54335937 L14.15625,8.42617187 L14.15625,8.42617187 Z M17.1074219,11.7523437 L16.0605469,11.7523437 L16.0605469,11.5980469 L17.1074219,11.5980469 L17.1074219,11.7523437 Z" id="形状" fill="url(#linearGradient-1)"></path>
                <path d="M13.9238281,0.6 C13.9335937,0.6 13.9433594,0.60390625 13.9492187,0.609765625 C13.9550781,0.617578125 13.9589844,0.625390625 13.9589844,0.63515625 L13.9589844,1.19960938 C14.984375,2.68398438 16.109375,2.98867188 16.6835937,3.04335938 L17.0742187,3.04335938 C17.0898437,3.04335938 17.1015625,3.05117188 17.1074219,3.06484375 C17.1132812,3.07851562 17.1113281,3.09414063 17.1015625,3.10390625 L16.7285156,3.50625 L15.5175781,4.89882813 L15.5175781,5.79921875 L15.9316406,6.35195312 C16.6953125,7.09609375 17.6699219,7.15664063 17.9589844,7.15664063 C18.0136719,7.15664063 18.0429687,7.1546875 18.0429687,7.1546875 C18.0585937,7.1546875 18.0722656,7.1625 18.078125,7.17617187 C18.0839844,7.18984375 18.0800781,7.20546875 18.0703125,7.21523438 L17.6054687,7.69375 L17.4453125,7.85195313 L17.4277344,7.85976563 L16.0605469,9.15078125 L16.0605469,11.2972656 L17.1074219,11.2972656 L17.1074219,10.7738281 C17.1074219,10.4789063 17.3457031,10.240625 17.640625,10.240625 C17.9355469,10.240625 18.1738281,10.4808594 18.1738281,10.7738281 L18.171875,10.9554687 L18.1601562,12.6839844 L18.1601562,13.4007813 L19.953125,19.3753906 C19.9570312,19.3851563 19.9551766,19.396875 19.9492187,19.4046875 C19.9414062,19.4125 19.9316406,19.4183594 19.9199219,19.4183594 L11.8828125,19.4183594 C11.8710937,19.4164063 11.8632812,19.4144531 11.8574219,19.4085937 L11.0917969,18.6214844 L11.0820312,18.5960938 C11.0800781,18.5960938 11.078125,17.928125 10.9335937,17.2601563 C10.7910156,16.5882812 10.5039062,15.9378906 9.97851562,15.94375 C9.453125,15.9398438 9.16601562,16.5882812 9.0234375,17.2601563 C8.87890625,17.9261719 8.875,18.5941406 8.875,18.5960938 L8.86523437,18.6214844 L8.09960937,19.4085937 C8.09179687,19.4144531 8.08398437,19.4183594 8.07617187,19.4183594 L0.037109375,19.4203125 C0.025390625,19.4203125 0.013671875,19.4164063 0.0078125,19.4066406 C0,19.396875 -0.001953125,19.3871094 0.001953125,19.3753906 L1.79296875,13.4007813 L1.79296875,12.6859375 L1.78125,10.9574219 L1.77929687,10.7738281 C1.77929687,10.4789063 2.01757813,10.240625 2.3125,10.240625 C2.60742187,10.240625 2.84570312,10.4789063 2.84570312,10.7738281 L2.84570312,11.2972656 L3.88867187,11.2972656 L3.88867187,9.15078125 L2.52148437,7.85976563 L2.50390625,7.85195313 L2.34375,7.69179688 L1.87890625,7.21328125 C1.86914062,7.20351562 1.8671875,7.18789062 1.87304687,7.17421875 C1.87890625,7.16054687 1.89453125,7.15273437 1.90820312,7.15273437 C1.90820312,7.15273437 1.93554687,7.1546875 1.99023437,7.1546875 C2.28320312,7.1546875 3.26953125,7.0921875 4.03515625,6.33242188 L4.43359375,5.79726562 L4.43359375,4.896875 L3.22460937,3.50429687 L2.8515625,3.10195313 C2.84179687,3.09023437 2.83984375,3.0765625 2.84570312,3.06289062 C2.8515625,3.04921875 2.86523437,3.04140625 2.87890625,3.04140625 L3.265625,3.04140625 C3.83984375,2.98867188 4.96484375,2.68398438 5.99414062,1.19765625 L5.99414062,0.63515625 C5.99414062,0.625390625 5.99804687,0.615625 6.00390625,0.609765625 C6.00976562,0.60390625 6.01953125,0.6 6.02929688,0.6 L13.9238281,0.6 Z M13.458,1.1 L6.494,1.1 L6.49414062,1.35388199 L6.40519783,1.48231741 C5.63622137,2.59273693 4.75742236,3.20298982 3.85117958,3.43955864 L3.834,3.443 L4.8111586,4.56908729 L4.93359375,4.71011517 L4.93359375,5.96295707 L4.83464514,6.09585863 L4.38734896,6.68733073 C3.94741493,7.12389792 3.44355462,7.38948794 2.93495677,7.529207 L2.906,7.536 L4.23195314,8.78724587 L4.38867187,8.93523313 L4.388,11.098 L4.39257813,12.2523438 L2.34570312,12.2523438 L2.34570312,10.7738281 C2.34570312,10.7550486 2.3312795,10.740625 2.3125,10.740625 C2.2937205,10.740625 2.27929687,10.7550486 2.27926858,10.7685093 L2.28123851,10.9540321 L2.29296875,12.6859375 L2.29296875,13.4007813 L2.27191205,13.5443546 L0.66,18.92 L7.876,18.92 L8.379,18.403 L8.38345858,18.3022504 C8.39797274,18.0298321 8.43219157,17.6962008 8.49392494,17.3587978 L8.53432919,17.1563629 C8.75314954,16.1252095 9.18769874,15.4378565 9.97293976,15.4437811 C10.7687556,15.4349058 11.203449,16.1231704 11.4222849,17.1544161 C11.4908437,17.4712689 11.5346738,17.8053677 11.5598771,18.1411941 L11.5707889,18.30778 L11.574,18.4 L12.077,18.918 L19.294,18.918 L17.681256,13.5444983 L17.6601562,13.4007813 L17.6601677,12.6805946 L17.6719039,10.9500927 L17.6738281,10.7738281 C17.6738281,10.7560442 17.6584479,10.740625 17.640625,10.740625 C17.6218455,10.740625 17.6074219,10.7550486 17.6074219,10.7738281 L17.6074219,12.2523438 L15.5605469,12.2523438 L15.5605469,8.93523313 L15.7172656,8.78724587 L17.042,7.535 L17.0216722,7.53067025 C16.5770646,7.40648128 16.1296117,7.18146518 15.7096721,6.81671628 L15.531471,6.65172683 L15.1174085,6.09899246 L15.0175781,5.96572832 L15.0175781,4.71184059 L15.1402754,4.57073877 L16.115,3.449 L16.0702159,3.43862187 C15.2522164,3.21840841 14.4385888,2.67755003 13.7133514,1.71375944 L13.5475962,1.483792 L13.4589844,1.35551584 L13.458,1.1 Z M17.1074219,11.5980469 L16.0605469,11.5980469 L16.0605469,11.7523438 L17.1074219,11.7523438 L17.1074219,11.5980469 Z M3.89257812,11.5980469 L2.84570312,11.5980469 L2.84570312,11.7523438 L3.89257812,11.7523438 L3.89257812,11.5980469 Z M14.65625,5.04335938 L14.65625,8.92617188 L5.20507812,8.92617188 L5.20507812,5.04335938 L14.65625,5.04335938 Z M7.9609375,5.54335938 L5.70507812,5.54335938 L5.70507812,8.42617188 L7.9609375,8.42617188 L7.9609375,5.54335938 Z M11.1054688,5.54335938 L8.84960938,5.54335938 L8.84960938,8.42617188 L11.1054688,8.42617188 L11.1054688,5.54335938 Z M14.15625,5.54335938 L11.9003906,5.54335938 L11.9003906,8.42617188 L14.15625,8.42617188 L14.15625,5.54335938 Z" id="形状" fill="url(#linearGradient-2)"></path>
            </g>
        </g>
    </g>
</svg>