<?xml version="1.0" encoding="UTF-8"?>
<svg width="44px" height="44px" viewBox="0 0 44 44" version="1.1" xmlns="http://www.w3.org/2000/svg" xmlns:xlink="http://www.w3.org/1999/xlink">
    <title>Icon/播放</title>
    <defs>
        <linearGradient x1="50%" y1="0%" x2="50%" y2="100%" id="linearGradient-1">
            <stop stop-color="#01A25E" offset="0%"></stop>
            <stop stop-color="#01A25E" stop-opacity="0" offset="100%"></stop>
        </linearGradient>
        <linearGradient x1="50%" y1="0%" x2="50%" y2="100%" id="linearGradient-2">
            <stop stop-color="#1EF299" offset="0%"></stop>
            <stop stop-color="#24BF7E" offset="100%"></stop>
        </linearGradient>
        <linearGradient x1="50%" y1="0%" x2="50%" y2="100%" id="linearGradient-3">
            <stop stop-color="#007F49" offset="0%"></stop>
            <stop stop-color="#01A25E" offset="100%"></stop>
        </linearGradient>
        <linearGradient x1="50%" y1="0%" x2="50%" y2="100%" id="linearGradient-4">
            <stop stop-color="#007F49" offset="0%"></stop>
            <stop stop-color="#01A25E" offset="100%"></stop>
        </linearGradient>
    </defs>
    <g id="页面-1" stroke="none" stroke-width="1" fill="none" fill-rule="evenodd">
        <g id="首页" transform="translate(-304, -319)" fill-rule="nonzero">
            <g id="金刚区/图标备份-3" transform="translate(283, 319)">
                <g id="Icon/播放" transform="translate(21, -0)">
                    <path d="M22,0 C34.1502645,0 44,9.8497355 44,22 C44,34.1502645 34.1502645,44 22,44 C9.8497355,44 0,34.1502645 0,22 C0,9.8497355 9.8497355,0 22,0 Z" id="路径" fill="url(#linearGradient-1)" opacity="0.300000012"></path>
                    <path d="M26.406417,13.200927 L17.6455448,13.200927 C15.2546793,13.1520955 13.2709518,15.0385774 13.2,17.4288168 L13.2,23.7750339 C13.2711604,26.1652732 15.254888,28.0517552 17.6457534,28.0029237 L18.9621172,28.0029237 C19.3008075,28.0039671 19.6211338,28.1575568 19.8337803,28.4213303 L21.1326148,30.0601072 C21.3479413,30.319213 21.6673784,30.4690936 22.004278,30.4690936 C22.3411776,30.4690936 22.6606146,30.319213 22.8759411,30.0601072 L24.166011,28.4213303 C24.3786698,28.1576352 24.6989147,28.0039146 25.0376741,28.0029237 L26.3976523,28.0029237 C28.7718232,28.0277568 30.7288396,26.1481614 30.8,23.7750339 L30.8,17.4288168 C30.7288396,15.0592369 28.7770403,13.1808935 26.406417,13.200927 L26.406417,13.200927 Z M19.3890798,21.6830005 C19.3890798,22.0440197 19.0962995,22.3368001 18.7352802,22.3368001 C18.374261,22.3368001 18.0814807,22.0440197 18.0814807,21.6830005 L18.0814807,19.5907585 C18.0814807,19.2297393 18.374261,18.9369589 18.7352802,18.9369589 C19.0962995,18.9369589 19.3890798,19.2297393 19.3890798,19.5907585 L19.3890798,21.6830005 Z M22.6580775,21.6830005 C22.6580775,22.0440197 22.3652972,22.3368001 22.004278,22.3368001 C21.6432588,22.3368001 21.3504784,22.0440197 21.3504784,21.6830005 L21.3504784,19.5907585 C21.3504784,19.2297393 21.6432588,18.9369589 22.004278,18.9369589 C22.3652972,18.9369589 22.6580775,19.2297393 22.6580775,19.5907585 L22.6580775,21.6830005 Z M25.9270753,21.6830005 C25.9270753,22.0440197 25.6342949,22.3368001 25.2732757,22.3368001 C24.9122565,22.3368001 24.6194762,22.0440197 24.6194762,21.6830005 L24.6194762,19.5907585 C24.6194762,19.2297393 24.9122565,18.9369589 25.2732757,18.9369589 C25.6342949,18.9369589 25.9270753,19.2297393 25.9270753,19.5907585 L25.9270753,21.6830005 Z" id="形状" fill="url(#linearGradient-2)"></path>
                    <path d="M26.4017692,12.6509466 C29.0714694,12.6283858 31.2696112,14.7436824 31.35,17.4288168 L31.3497529,23.7915187 C31.2696122,26.4641275 29.0655841,28.5808595 26.3976523,28.5529237 L25.0392829,28.5529213 C24.8662833,28.5534274 24.7027388,28.6319303 24.5981708,28.7615331 L23.2989402,30.411635 C22.9791204,30.7964792 22.5046676,31.0190936 22.004278,31.0190936 C21.5038884,31.0190936 21.0294356,30.7964792 20.7015778,30.4017314 L19.4055944,28.7665214 C19.297102,28.6319439 19.1335369,28.5534544 18.9621172,28.5529237 L17.6569844,28.552809 C14.9644236,28.6078024 12.7303834,26.4832526 12.65,23.7750339 L12.6502422,17.4124978 C12.7279872,14.7934039 14.8449868,12.7113052 17.4291501,12.6512215 L26.4017692,12.6509466 Z M17.6343138,13.7508123 C15.5451005,13.7081418 13.8117541,15.3565902 13.75,17.4288168 L13.7497564,23.7586669 C13.8119368,25.8472702 15.5453287,27.4957085 17.6457534,27.4529237 L18.9638116,27.4529263 C19.4683388,27.4544806 19.945329,27.6833724 20.2648174,28.0797062 L21.5556138,29.7085793 C21.6664471,29.8419468 21.8308684,29.9190936 22.004278,29.9190936 C22.1776876,29.9190936 22.3421088,29.8419468 22.4437813,29.7199045 L23.737885,28.0760651 C24.0546008,27.68334 24.5315461,27.4544018 25.0376741,27.4529237 L26.4034049,27.4529538 C28.4779679,27.4746531 30.1880641,25.8322896 30.25,23.7750339 L30.2502478,17.4453263 C30.1880647,15.3746834 28.4825032,13.7334022 26.4110647,13.7509073 L17.6343138,13.7508123 Z" id="形状结合" fill="url(#linearGradient-3)"></path>
                    <path d="M18.7352802,18.3869589 C19.4000561,18.3869589 19.9390798,18.9259827 19.9390798,19.5907585 L19.9390798,21.6830005 C19.9390798,22.3477763 19.4000561,22.8868001 18.7352802,22.8868001 C18.0705044,22.8868001 17.5314807,22.3477763 17.5314807,21.6830005 L17.5314807,19.5907585 C17.5314807,18.9259827 18.0705044,18.3869589 18.7352802,18.3869589 Z M22.004278,18.3869589 C22.6690538,18.3869589 23.2080775,18.9259827 23.2080775,19.5907585 L23.2080775,21.6830005 C23.2080775,22.3477763 22.6690538,22.8868001 22.004278,22.8868001 C21.3395021,22.8868001 20.8004784,22.3477763 20.8004784,21.6830005 L20.8004784,19.5907585 C20.8004784,18.9259827 21.3395021,18.3869589 22.004278,18.3869589 Z M25.2732757,18.3869589 C25.9380515,18.3869589 26.4770753,18.9259827 26.4770753,19.5907585 L26.4770753,21.6830005 C26.4770753,22.3477763 25.9380515,22.8868001 25.2732757,22.8868001 C24.6084999,22.8868001 24.0694762,22.3477763 24.0694762,21.6830005 L24.0694762,19.5907585 C24.0694762,18.9259827 24.6084999,18.3869589 25.2732757,18.3869589 Z M18.7352802,19.0051465 C18.4315236,19.0051465 18.1852802,19.2513899 18.1852802,19.5551465 L18.1852802,21.5774714 C18.1852802,21.8812281 18.4315236,22.1274714 18.7352802,22.1274714 C19.0390369,22.1274714 19.2852802,21.8812281 19.2852802,21.5774714 L19.2852802,19.5551465 C19.2852802,19.2513899 19.0390369,19.0051465 18.7352802,19.0051465 Z M22.0179344,19.0051465 C21.7141778,19.0051465 21.4679344,19.2513899 21.4679344,19.5551465 L21.4679344,21.5774714 C21.4679344,21.8812281 21.7141778,22.1274714 22.0179344,22.1274714 C22.321691,22.1274714 22.5679344,21.8812281 22.5679344,21.5774714 L22.5679344,19.5551465 C22.5679344,19.2513899 22.321691,19.0051465 22.0179344,19.0051465 Z M25.255151,19.0051465 C24.9513944,19.0051465 24.705151,19.2513899 24.705151,19.5551465 L24.705151,21.5774714 C24.705151,21.8812281 24.9513944,22.1274714 25.255151,22.1274714 C25.5589076,22.1274714 25.805151,21.8812281 25.805151,21.5774714 L25.805151,19.5551465 C25.805151,19.2513899 25.5589076,19.0051465 25.255151,19.0051465 Z" id="形状结合" fill="url(#linearGradient-4)"></path>
                </g>
            </g>
        </g>
    </g>
</svg>