<?xml version="1.0" encoding="UTF-8"?>
<svg width="44px" height="44px" viewBox="0 0 44 44" version="1.1" xmlns="http://www.w3.org/2000/svg" xmlns:xlink="http://www.w3.org/1999/xlink">
    <title>Icon/播放</title>
    <defs>
        <linearGradient x1="50%" y1="0%" x2="50%" y2="100%" id="linearGradient-1">
            <stop stop-color="#01A25E" offset="0%"></stop>
            <stop stop-color="#01A25E" stop-opacity="0" offset="100%"></stop>
        </linearGradient>
        <linearGradient x1="50%" y1="0%" x2="50%" y2="100%" id="linearGradient-2">
            <stop stop-color="#1EF299" offset="0%"></stop>
            <stop stop-color="#24BF7E" offset="100%"></stop>
        </linearGradient>
        <linearGradient x1="50%" y1="0%" x2="50%" y2="100%" id="linearGradient-3">
            <stop stop-color="#007F49" offset="0%"></stop>
            <stop stop-color="#01A25E" offset="100%"></stop>
        </linearGradient>
    </defs>
    <g id="页面-1" stroke="none" stroke-width="1" fill="none" fill-rule="evenodd">
        <g id="首页" transform="translate(-43, -319)" fill-rule="nonzero">
            <g id="金刚区/图标" transform="translate(22, 319)">
                <g id="Icon/播放" transform="translate(21, -0)">
                    <path d="M22,0 C34.1502645,0 44,9.8497355 44,22 C44,34.1502645 34.1502645,44 22,44 C9.8497355,44 0,34.1502645 0,22 C0,9.8497355 9.8497355,0 22,0 Z" id="路径" fill="url(#linearGradient-1)" opacity="0.300000012"></path>
                    <path d="M26.759858,14.9571684 C29.52042,14.9571684 31.7582976,17.099807 31.7582976,19.7428856 L31.7582976,26.9851695 C31.7582976,29.6282481 29.52042,31.7708866 26.759858,31.7708866 L16.8055232,31.7708866 C14.0449612,31.7708866 11.8070836,29.6282481 11.8070836,26.9851695 L11.8070836,19.7428856 C11.8070836,17.099807 14.0449612,14.9571684 16.8055232,14.9571684 L26.759858,14.9571684 Z" id="路径" fill="url(#linearGradient-2)"></path>
                    <path d="M18.4153846,12.650383 C18.8295982,12.650383 19.1653846,12.9861694 19.1653846,13.400383 L19.165,14.3975929 L24.727,14.3975929 L24.7271401,13.400383 C24.7271401,12.9861694 25.0629265,12.650383 25.4771401,12.650383 L25.6694477,12.650383 C26.0836613,12.650383 26.4194477,12.9861694 26.4194477,13.400383 L26.419,14.3975929 L28.1117554,14.3982517 C30.4483448,14.3982517 32.3425247,16.2924316 32.3425247,18.6290209 L32.3425247,27.9230769 C32.3425247,30.2596662 30.4483448,32.1538462 28.1117554,32.1538462 L15.7807692,32.1538462 C13.4441799,32.1538462 11.55,30.2596662 11.55,27.9230769 L11.55,18.6290209 C11.55,16.2924316 13.4441799,14.3982517 15.7807692,14.3982517 L17.473,14.3975929 L17.4730769,13.400383 C17.4730769,12.9861694 17.8088634,12.650383 18.2230769,12.650383 L18.4153846,12.650383 Z M31.242,20.2955929 L12.649,20.2955929 L12.65,27.9230769 C12.65,29.652153 14.0516931,31.0538462 15.7807692,31.0538462 L28.1117554,31.0538462 C29.8408315,31.0538462 31.2425247,29.652153 31.2425247,27.9230769 L31.242,20.2955929 Z M25.9014201,22.0831622 L26.0810651,22.5018131 C24.1166864,24.3084167 22.5069112,26.8500025 22,28.1504758 L19.0514793,25.1480616 L19.8067692,24.540393 L21.5157396,25.8791386 C22.2147929,25.0496474 23.7652071,23.3945705 25.9014201,22.0831622 Z M17.473,15.4975929 L15.7807692,15.4982517 C14.0516931,15.4982517 12.65,16.8999448 12.65,18.6290209 L12.649,19.1955929 L31.242,19.1955929 L31.2425247,18.6290209 C31.2425247,16.8999448 29.8408315,15.4982517 28.1117554,15.4982517 L26.419,15.4975929 L26.4194477,16.300383 C26.4194477,16.7145965 26.0836613,17.050383 25.6694477,17.050383 L25.4771401,17.050383 C25.0629265,17.050383 24.7271401,16.7145965 24.7271401,16.300383 L24.727,15.4975929 L19.165,15.4975929 L19.1653846,16.300383 C19.1653846,16.7145965 18.8295982,17.050383 18.4153846,17.050383 L18.2230769,17.050383 C17.8088634,17.050383 17.4730769,16.7145965 17.4730769,16.300383 L17.473,15.4975929 Z" id="形状结合" fill="url(#linearGradient-3)"></path>
                </g>
            </g>
        </g>
    </g>
</svg>