<?xml version="1.0" encoding="UTF-8"?>
<svg width="20px" height="20px" viewBox="0 0 20 20" version="1.1" xmlns="http://www.w3.org/2000/svg" xmlns:xlink="http://www.w3.org/1999/xlink">
    <title>Icon/首页备份</title>
    <g id="页面-1" stroke="none" stroke-width="1" fill="none" fill-rule="evenodd">
        <g id="首页" transform="translate(-137, -7)" fill="#7B8189">
            <g id="Bar/底部/全部/1备份" transform="translate(98, 0)">
                <g id="Icon/首页备份" transform="translate(39, 7)">
                    <g id="编组" transform="translate(0, 0.45)">
                        <path d="M14.6807244,1.77635684e-15 C16.3728261,1.77635684e-15 16.6824766,4.08900493 17.7841625,6.234606 C17.8611072,6.38469324 17.9308954,6.53834291 17.9932922,6.69503788 C19.4375578,8.72509769 19.9592266,10.7615123 19.9823348,10.8533676 C20.0603446,11.1628542 19.8726955,11.476982 19.5632089,11.5549918 C19.2537223,11.6330016 18.9395944,11.4453525 18.8615847,11.1358659 C18.8586961,11.122001 18.63859,10.2716173 18.1024786,9.15722197 C18.0504851,9.30338166 17.9909813,9.44607511 17.9181903,9.58183608 C17.6507123,11.4044993 17.7073275,14.2930307 18.1226983,15.1890531 C18.66632,16.3606414 18.0695494,17.0099832 17.4577584,18.1480645 C16.8459675,19.2855682 16.2861701,18.6911084 16.3029236,18.1139799 C16.3092062,17.89734 16.3972161,17.6706264 16.5056579,17.4413944 L16.7316223,16.981811 C16.8400641,16.7525789 16.928074,16.5258653 16.9343566,16.3092255 C16.9395559,16.1301366 16.6749665,15.6269544 16.3087007,14.9839673 C16.1417436,16.1399576 15.8118733,17.3167452 15.491824,17.911205 C14.8800331,19.0487086 14.3202357,18.4542489 14.3369892,17.8771203 C14.3537427,17.299414 14.9822871,15.5842041 14.9990406,15.0064979 C15.0082839,14.697425 14.2133601,13.4224273 13.47794,12.1266322 C12.5576539,12.3542484 11.5767087,12.4980973 10.6731761,12.4524585 C10.3537045,12.44957 10.0469425,12.4420598 9.75289002,12.4281948 C9.30516767,14.07408 9.44266175,17.2624408 9.41493185,18.1989027 C9.38084719,19.3537375 8.22601238,19.3196528 8.26009704,18.164818 C8.28089445,17.4611718 8.12144751,15.3623649 7.7413168,13.558766 C7.62762422,14.6633404 7.65590871,15.9335547 7.66112193,16.7559496 L7.66104182,17.1269887 L7.6581271,17.2791943 C7.62404244,18.4340291 6.46920763,18.3999444 6.50329229,17.2451096 C6.53737696,16.0937411 5.49057321,11.481912 4.37328929,10.2768167 C3.88859376,9.79905363 3.479,9.20863781 3.26004934,8.48015023 C3.00585857,7.63669908 3.51250697,6.23980533 3.34497215,5.59335203 C3.19859239,5.03168401 2.37416232,4.96748001 1.36541421,4.96339933 L1.00253607,4.96374342 C0.879561556,4.96421551 0.754839883,4.96480763 0.629175017,4.96480763 C-0.690306084,4.96480763 0.2588653,2.65513799 1.6973539,2.65513799 C3.13584248,2.65513799 3.1271769,2.06183365 3.44722616,2.12884758 C3.63911035,2.16917063 3.82495048,2.23422438 4.00009105,2.32237918 C4.1433622,2.15137812 4.40621854,2.02717128 4.7152914,2.00926239 C5.19305449,1.98095477 5.59571576,2.21723664 5.61420235,2.53555279 C5.63037812,2.81689575 5.34210269,3.06762027 4.94637391,3.14214437 C5.4894178,3.88160837 5.68063857,4.78571868 5.67197297,5.08381511 C5.66330739,5.37786761 5.67197297,5.67192009 5.82217661,5.97059424 C5.83835237,5.94228662 5.85279503,5.9116682 5.86954851,5.88336059 C6.20417249,5.3170599 6.4502914,4.52558769 6.68715628,3.706417 L6.81591389,3.25803658 C7.28815318,1.6126069 7.78101349,1.77635684e-15 8.92850318,1.77635684e-15 C10.7534773,1.77635684e-15 10.2988224,2.4720051 11.9527955,2.4720051 C13.6067685,2.4720051 12.9886228,1.77635684e-15 14.6807244,1.77635684e-15 Z M3.42933425,2.72586987 C3.11805893,2.71683385 2.8556361,2.95614137 2.83601294,3.26692893 C2.82271151,3.47759433 2.92536645,3.67874333 3.10376326,3.79157691 C3.28216007,3.9044105 3.50789446,3.91096335 3.69253624,3.80866841 C3.87717801,3.70637348 3.99132857,3.51151813 3.99027735,3.30043587 C3.98870847,2.98903335 3.74060956,2.73490588 3.42933425,2.72586987 Z" id="形状结合" fill-rule="nonzero"></path>
                    </g>
                </g>
            </g>
        </g>
    </g>
</svg>