<?xml version="1.0" encoding="UTF-8"?>
<svg width="44px" height="44px" viewBox="0 0 44 44" version="1.1" xmlns="http://www.w3.org/2000/svg" xmlns:xlink="http://www.w3.org/1999/xlink">
    <title>Icon/播放</title>
    <defs>
        <linearGradient x1="50%" y1="0%" x2="50%" y2="100%" id="linearGradient-1">
            <stop stop-color="#01A25E" offset="0%"></stop>
            <stop stop-color="#01A25E" stop-opacity="0" offset="100%"></stop>
        </linearGradient>
        <linearGradient x1="50%" y1="0%" x2="50%" y2="100%" id="linearGradient-2">
            <stop stop-color="#1EF299" offset="0%"></stop>
            <stop stop-color="#24BF7E" offset="100%"></stop>
        </linearGradient>
        <linearGradient x1="50%" y1="0%" x2="50%" y2="100%" id="linearGradient-3">
            <stop stop-color="#007F49" offset="0%"></stop>
            <stop stop-color="#01A25E" offset="100%"></stop>
        </linearGradient>
    </defs>
    <g id="页面-1" stroke="none" stroke-width="1" fill="none" fill-rule="evenodd">
        <g id="首页" transform="translate(-130, -319)" fill-rule="nonzero">
            <g id="金刚区/图标备份" transform="translate(109, 319)">
                <g id="Icon/播放" transform="translate(21, -0)">
                    <path d="M22,0 C34.1502645,0 44,9.8497355 44,22 C44,34.1502645 34.1502645,44 22,44 C9.8497355,44 0,34.1502645 0,22 C0,9.8497355 9.8497355,0 22,0 Z" id="路径" fill="url(#linearGradient-1)" opacity="0.300000012"></path>
                    <path d="M30.303334,21.2850422 C30.7590099,21.3867069 31.1556198,21.6652603 31.40588,22.0594 C31.5849393,22.3414617 31.68,22.6686627 31.68,23.00276 L31.68,29.04 C31.68,30.4980317 30.4980317,31.68 29.04,31.68 L14.96,31.68 C13.5019683,31.68 12.32,30.4980317 12.32,29.04 L12.32,23.00936 C12.32,22.3667637 12.6702335,21.7752495 13.2336537,21.4662387 C13.7970739,21.157228 14.4841219,21.1798445 15.026,21.52524 L21.98152,25.96 L28.9762,21.51732 C29.370259,21.2669328 29.8476581,21.1833774 30.303334,21.2850422 Z M26.4,13.2 C27.8580317,13.2 29.04,14.3819683 29.04,15.84 L29.04,20.24 L22.01452,24.64 L14.96,20.24 L14.96,15.84 C14.96,14.3819683 16.1419683,13.2 17.6,13.2 L26.4,13.2 Z M24.55156,16.36536 C23.8452238,15.6649851 22.7063362,15.6649851 22,16.36536 C21.2936638,15.6649851 20.1547762,15.6649851 19.44844,16.36536 C18.7550839,17.0531198 18.7425412,18.1702055 19.42028,18.87336 L19.44844,18.90152 L21.45308,20.89472 C21.7558465,21.1950542 22.2441535,21.1950542 22.54692,20.89472 L24.55156,18.90196 L24.58368,18.86896 C25.2574438,18.1652825 25.2431548,17.0515206 24.55156,16.36536 Z" id="形状结合" fill="url(#linearGradient-2)"></path>
                    <path d="M30.303334,21.2850422 C30.7590099,21.3867069 31.1556198,21.6652603 31.40588,22.0594 C31.5849393,22.3414617 31.68,22.6686627 31.68,23.00276 L31.68,29.04 C31.68,30.4980317 30.4980317,31.68 29.04,31.68 L14.96,31.68 C13.5019683,31.68 12.32,30.4980317 12.32,29.04 L12.32,23.00936 C12.32,22.3667637 12.6702335,21.7752495 13.2336537,21.4662387 C13.7970739,21.157228 14.4841219,21.1798445 15.026,21.52524 L21.98152,25.96 L28.9762,21.51732 C29.370259,21.2669328 29.8476581,21.1833774 30.303334,21.2850422 Z M29.5659616,22.4458572 L22.5712816,26.8885372 L21.9803891,27.2638433 L21.3901485,26.8875127 L14.43475,22.4528301 C14.2315457,22.3233068 13.9739027,22.3148256 13.7626201,22.4307046 C13.5513339,22.5465857 13.42,22.7684014 13.42,23.00936 L13.42,29.04 C13.42,29.8905185 14.1094815,30.58 14.96,30.58 L29.04,30.58 C29.8905185,30.58 30.58,29.8905185 30.58,29.04 L30.58,23.00276 C30.58,22.8774188 30.5443432,22.7547034 30.477205,22.6489445 C30.383412,22.5012281 30.2346833,22.3967706 30.0638048,22.3586463 C29.8929264,22.320522 29.7139017,22.3518553 29.5659616,22.4458572 Z M26.4,13.2 C27.8580317,13.2 29.04,14.3819683 29.04,15.84 L29.04,20.24 L22.01452,24.64 L14.96,20.24 L14.96,15.84 C14.96,14.3819683 16.1419683,13.2 17.6,13.2 L26.4,13.2 Z M26.4,14.3 L17.6,14.3 C16.7494815,14.3 16.06,14.9894815 16.06,15.84 L16.06,19.6284 L22.0132,23.342 L27.94,19.6306 L27.94,15.84 C27.94,15.060358 27.360644,14.4160319 26.6089689,14.3140584 L26.4,14.3 Z M24.55156,16.36536 C25.2431548,17.0515206 25.2574438,18.1652825 24.58368,18.86896 L24.55156,18.90196 L22.54692,20.89516 C22.2441535,21.1950542 21.7558465,21.1950542 21.45308,20.89472 L19.44844,18.90152 L19.42028,18.87336 C18.7425412,18.1702055 18.7550839,17.0531198 19.44844,16.36536 C20.1547762,15.6649851 21.2936638,15.6649851 22,16.36536 C22.7063362,15.6649851 23.8452238,15.6649851 24.55156,16.36536 Z M22.7745143,17.1464666 L22,17.9144443 L21.2254857,17.1464666 C20.9479597,16.8712829 20.5004803,16.8712829 20.2230994,17.1463228 C19.9566867,17.4105851 19.9518673,17.8398102 20.1980975,18.0955425 L20.2240285,18.12148 L22.0000862,19.8880788 L23.7633035,18.1347236 L23.7891581,18.1082137 C24.0480428,17.8378351 24.0425524,17.4098872 23.7770457,17.1464666 C23.4995197,16.8712829 23.0520403,16.8712829 22.7745143,17.1464666 Z" id="形状结合" fill="url(#linearGradient-3)"></path>
                </g>
            </g>
        </g>
    </g>
</svg>