<?xml version="1.0" encoding="UTF-8"?>
<svg width="20px" height="20px" viewBox="0 0 20 20" version="1.1" xmlns="http://www.w3.org/2000/svg" xmlns:xlink="http://www.w3.org/1999/xlink">
    <title>Icon/首页备份</title>
    <g id="页面-1" stroke="none" stroke-width="1" fill="none" fill-rule="evenodd">
        <g id="首页" transform="translate(-234, -7)" fill="#7B8189" fill-rule="nonzero">
            <g id="Bar/底部/全部/1备份-2" transform="translate(195, 0)">
                <g id="Icon/首页备份" transform="translate(39, 7)">
                    <path d="M17.9176232,4.36048087 L10.7681377,0.232335906 C10.2277225,-0.0774453021 9.56356973,-0.0774453021 9.02315453,0.232335906 L1.87249156,4.36048087 C1.33380632,4.67372032 1.00169936,5.24919309 1,5.8723286 L1,14.1286185 C1,14.7491355 1.33439623,15.3296191 1.87249156,15.6404663 L9.02197708,19.7686112 C9.56272829,20.0775493 10.2266264,20.0771013 10.7669602,19.7674338 L17.9164457,15.6392888 C18.4545411,15.3284416 18.7889373,14.7491355 18.7889373,14.1274411 L18.7889373,5.8723286 C18.7884436,5.24917653 18.4565607,4.67331485 17.9176232,4.36048087 L17.9176232,4.36048087 Z M16.4505186,6.94380947 L10.4855493,10.3148531 L10.4855493,17.2665268 C10.4855493,17.591671 10.2219678,17.8552525 9.89682355,17.8552525 C9.57167931,17.8552525 9.30809782,17.591671 9.3080978,17.2665268 L9.3080978,10.3007237 L3.36667752,6.94380947 C3.08347689,6.78351334 2.98384309,6.42398819 3.1441392,6.14078755 C3.30443532,5.85758691 3.66396047,5.7579531 3.94716111,5.91824921 L9.90977551,9.28693796 L15.8712125,5.91824921 C16.154547,5.75904912 16.5132593,5.85845766 16.6742344,6.14078754 C16.83324,6.42443003 16.7332785,6.78323948 16.4505186,6.94380947 Z" id="形状"></path>
                </g>
            </g>
        </g>
    </g>
</svg>