<?xml version="1.0" encoding="UTF-8"?>
<svg width="16px" height="16px" viewBox="0 0 16 16" version="1.1" xmlns="http://www.w3.org/2000/svg" xmlns:xlink="http://www.w3.org/1999/xlink">
    <title>Icon/显示</title>
    <g id="页面-1" stroke="none" stroke-width="1" fill="none" fill-rule="evenodd">
        <g id="登录" transform="translate(-334, -379)" fill="#A9AAAC">
            <g id="Icon/显示" transform="translate(334, 379)">
                <path d="M8,0 C12.3393802,0 15.8718146,3.45494549 15.9965892,7.76412244 L16,8 C16,12.418278 12.418278,16 8,16 C3.581722,16 0,12.418278 0,8 C0,3.581722 3.581722,0 8,0 Z M8,1.6 C4.4653776,1.6 1.6,4.4653776 1.6,8 C1.6,11.5346224 4.4653776,14.4 8,14.4 C11.5346224,14.4 14.4,11.5346224 14.4,8 L14.3972596,7.81043193 C14.2972612,4.35691971 11.4641744,1.6 8,1.6 Z" id="路径" fill-rule="nonzero"></path>
                <path d="M4,7.2 L12,7.2 C12.4418278,7.2 12.8,7.5581722 12.8,8 C12.8,8.4418278 12.4418278,8.8 12,8.8 L4,8.8 C3.5581722,8.8 3.2,8.4418278 3.2,8 C3.2,7.5581722 3.5581722,7.2 4,7.2 Z" id="矩形" fill-rule="evenodd" transform="translate(8, 8) rotate(45) translate(-8, -8)"></path>
                <path d="M8,3.2 C8.4418278,3.2 8.8,3.5581722 8.8,4 L8.8,12 C8.8,12.4418278 8.4418278,12.8 8,12.8 C7.5581722,12.8 7.2,12.4418278 7.2,12 L7.2,4 C7.2,3.5581722 7.5581722,3.2 8,3.2 Z" id="矩形备份" fill-rule="evenodd" transform="translate(8, 8) rotate(45) translate(-8, -8)"></path>
            </g>
        </g>
    </g>
</svg>