<?xml version="1.0" encoding="UTF-8"?>
<svg width="100px" height="69px" viewBox="0 0 100 69" version="1.1" xmlns="http://www.w3.org/2000/svg" xmlns:xlink="http://www.w3.org/1999/xlink">
    <title>矩形备份 4</title>
    <g id="页面-1" stroke="none" stroke-width="1" fill="none" fill-rule="evenodd">
        <g id="基金" transform="translate(-136, -24)" fill="#FFFFFF">
            <g id="矩形备份-4" transform="translate(136, 24)">
                <path d="M7,0 L93,0 C96.8659932,-8.8817842e-16 100,3.13400675 100,7 L100,53 C100,56.8659932 96.8659932,60 93,60 L65.4411135,60 C61.1105227,60 56.9332042,61.6029875 53.7143014,64.5 C50.8718125,67.05824 46.5567904,67.05824 43.7143014,64.5 C40.4953987,61.6029875 36.3180802,60 31.9874894,60 L7,60 C3.13400675,60 0,56.8659932 0,53 L8.8817842e-16,7 C0,3.13400675 3.13400675,8.8817842e-16 7,0 Z"></path>
            </g>
        </g>
    </g>
</svg>