<?xml version="1.0" encoding="UTF-8"?>
<svg width="100px" height="19px" viewBox="0 0 100 19" version="1.1" xmlns="http://www.w3.org/2000/svg" xmlns:xlink="http://www.w3.org/1999/xlink">
    <title>矩形备份 4</title>
    <defs>
        <rect id="path-1" x="0" y="48" width="100" height="19"></rect>
    </defs>
    <g id="页面-1" stroke="none" stroke-width="1" fill="none" fill-rule="evenodd">
        <g id="基金" transform="translate(-136, -72)">
            <g id="矩形备份-4" transform="translate(136, 24)">
                <mask id="mask-2" fill="white">
                    <use xlink:href="#path-1"></use>
                </mask>
                <g id="蒙版"></g>
                <path d="M7,0 L93,0 C96.8659932,-8.8817842e-16 100,3.13400675 100,7 L100,53 C100,56.8659932 96.8659932,60 93,60 L65.4411135,60 C61.1105227,60 56.9332042,61.6029875 53.7143014,64.5 C50.8718125,67.05824 46.5567904,67.05824 43.7143014,64.5 C40.4953987,61.6029875 36.3180802,60 31.9874894,60 L7,60 C3.13400675,60 0,56.8659932 0,53 L8.8817842e-16,7 C0,3.13400675 3.13400675,8.8817842e-16 7,0 Z" fill="#FFFFFF" mask="url(#mask-2)"></path>
            </g>
        </g>
    </g>
</svg>