<?xml version="1.0" encoding="UTF-8"?>
<svg width="21px" height="20px" viewBox="0 0 21 20" version="1.1" xmlns="http://www.w3.org/2000/svg" xmlns:xlink="http://www.w3.org/1999/xlink">
    <title>Icon/排行</title>
    <g id="页面-1" stroke="none" stroke-width="1" fill="none" fill-rule="evenodd">
        <g id="基金" transform="translate(-333, -8)" fill="#A9AAAC" fill-rule="nonzero">
            <g id="Bar/tab/all-1备份-3" transform="translate(293, 0)">
                <g id="Icon/排行" transform="translate(40, 8)">
                    <path d="M16.089116,0 L15.9963673,1.0851596 L15.2271366,10.0851596 L15.1489451,11 L4.85105493,11 L4.77286345,10.0851596 L4.00363268,1.0851596 L3.91088399,0 L5,0 L16.089116,0 Z M13.91,2 L6.089,2 L6.687,9 L13.312,9 L13.91,2 Z" id="矩形-2"></path>
                    <polygon id="路径-2" points="15.5910032 11.9650027 15.8760244 12.4827359 19.2035683 18.5271285 20.0195821 20.0093953 13.0506406 20.0093953 13.0506406 18.0093953 16.6354841 18.0090027 14.4084841 13.9650027 5.59448406 13.9650027 3.39748406 18.0090027 7.11072801 18.0093953 7.11072801 20.0093953 0.036469348 20.0093953 0.838708313 18.5321603 4.12122426 12.4877677 4.40512121 11.9650027"></polygon>
                </g>
            </g>
        </g>
    </g>
</svg>