<?xml version="1.0" encoding="UTF-8"?>
<svg width="20px" height="20px" viewBox="0 0 20 20" version="1.1" xmlns="http://www.w3.org/2000/svg" xmlns:xlink="http://www.w3.org/1999/xlink">
    <title>Icon/排行</title>
    <g id="页面-1" stroke="none" stroke-width="1" fill="none" fill-rule="evenodd">
        <g id="基金" transform="translate(-137, -8)" fill="#4297FE" fill-rule="nonzero">
            <g id="Bar/tab/all-1备份" transform="translate(98, 0)">
                <g id="Icon/排行" transform="translate(39, 8)">
                    <path d="M10,0 C15.5228475,0 20,4.4771525 20,10 C20,15.5228475 15.5228475,20 10,20 C4.4771525,20 0,15.5228475 0,10 C0,4.4771525 4.4771525,0 10,0 Z M7.5,7 L4.5,7 L4.5,14 L7.5,14 L7.5,7 Z M15.5,7 L12.5,7 L12.5,14 L15.5,14 L15.5,7 Z M11.5,5 L8.5,5 L8.5,12 L11.5,12 L11.5,5 Z" id="形状结合"></path>
                </g>
            </g>
        </g>
    </g>
</svg>