<?xml version="1.0" encoding="UTF-8"?>
<svg width="16px" height="16px" viewBox="0 0 16 16" version="1.1" xmlns="http://www.w3.org/2000/svg" xmlns:xlink="http://www.w3.org/1999/xlink">
    <title>Icon/爱心基金备份 4</title>
    <g id="页面-1" stroke="none" stroke-width="1" fill="none" fill-rule="evenodd">
        <g id="注册" transform="translate(-48, -385)" fill="#A7A6A5" fill-rule="nonzero">
            <g id="Icon/爱心基金备份-4" transform="translate(48, 385)">
                <path d="M8.4,0 C10.8300529,0 12.8,1.9699471 12.8,4.4 L12.8011625,6.24282724 L12.79,6.236 L12.9695639,6.34497626 C14.3102604,7.19631917 15.2,8.69425467 15.2,10.4 L15.2,11.2 C15.2,13.8509668 13.0509668,16 10.4,16 L5.6,16 C2.9490332,16 0.8,13.8509668 0.8,11.2 L0.8,10.4 C0.8,8.69704379 1.68683231,7.20121837 3.02386305,6.34915761 L3.199,6.241 L3.2,4.4 C3.2,1.9699471 5.1699471,0 7.6,0 L8.4,0 Z M10.4,7.2 L5.6,7.2 C3.8326888,7.2 2.4,8.6326888 2.4,10.4 L2.4,11.2 C2.4,12.9673112 3.8326888,14.4 5.6,14.4 L10.4,14.4 C12.1673112,14.4 13.6,12.9673112 13.6,11.2 L13.6,10.4 C13.6,8.6326888 12.1673112,7.2 10.4,7.2 Z M9.6,10.4 C10.0418278,10.4 10.4,10.7581722 10.4,11.2 C10.4,11.6418278 10.0418278,12 9.6,12 L6.4,12 C5.9581722,12 5.6,11.6418278 5.6,11.2 C5.6,10.7581722 5.9581722,10.4 6.4,10.4 L9.6,10.4 Z M8.4,1.6 L7.6,1.6 C6.0536027,1.6 4.8,2.8536027 4.8,4.4 L4.8,5.666 L5.0527998,5.63084861 C5.23238118,5.61046956 5.41496794,5.6 5.6,5.6 L10.4,5.6 C10.6785915,5.6 10.9516396,5.62373396 11.2172327,5.66929023 L11.2003123,5.66641915 L11.2,4.4 C11.2,2.90514928 10.0285779,1.68389884 8.55362816,1.60414309 L8.4,1.6 Z" id="形状结合"></path>
            </g>
        </g>
    </g>
</svg>