<?xml version="1.0" encoding="UTF-8"?>
<svg width="16px" height="16px" viewBox="0 0 16 16" version="1.1" xmlns="http://www.w3.org/2000/svg" xmlns:xlink="http://www.w3.org/1999/xlink">
    <title>Icon/爱心基金备份 2</title>
    <g id="页面-1" stroke="none" stroke-width="1" fill="none" fill-rule="evenodd">
        <g id="注册" transform="translate(-48, -329)" fill="#A7A6A5" fill-rule="nonzero">
            <g id="Icon/爱心基金备份-2" transform="translate(48, 329)">
                <path d="M11.2,7.2 C13.409139,7.2 15.2,8.990861 15.2,11.2 L15.2,14.4 C15.2,15.2836556 14.4836556,16 13.6,16 L2.4,16 C1.5163444,16 0.8,15.2836556 0.8,14.4 L0.8,11.2 C0.8,9.04899624 2.49784537,7.29454551 4.6264883,7.20369561 L4.8,7.2 L11.2,7.2 Z M4.83407054,8.79963721 L4.69471375,8.80224035 C3.41503035,8.85685689 2.4,9.91348947 2.4,11.2 L2.4,14.4 L13.6,14.4 L13.6,11.2 C13.6,9.8745166 12.5254834,8.8 11.2,8.8 L4.8,8.8 L4.83407054,8.79963721 Z M8,0 C9.7673112,0 11.2,1.4326888 11.2,3.2 C11.2,4.9673112 9.7673112,6.4 8,6.4 C6.2326888,6.4 4.8,4.9673112 4.8,3.2 C4.8,1.4326888 6.2326888,0 8,0 Z M8,1.6 C7.1163444,1.6 6.4,2.3163444 6.4,3.2 C6.4,4.0836556 7.1163444,4.8 8,4.8 C8.8836556,4.8 9.6,4.0836556 9.6,3.2 C9.6,2.3163444 8.8836556,1.6 8,1.6 Z" id="形状"></path>
            </g>
        </g>
    </g>
</svg>