<?xml version="1.0" encoding="UTF-8"?>
<svg width="16px" height="16px" viewBox="0 0 16 16" version="1.1" xmlns="http://www.w3.org/2000/svg" xmlns:xlink="http://www.w3.org/1999/xlink">
    <title>Icon/爱心基金备份 6</title>
    <g id="页面-1" stroke="none" stroke-width="1" fill="none" fill-rule="evenodd">
        <g id="注册" transform="translate(-48, -497)" fill="#A7A6A5" fill-rule="nonzero">
            <g id="Icon/爱心基金备份-6" transform="translate(48, 497)">
                <path d="M12.8,2 C14.5673112,2 16,3.39289189 16,5.11111111 L16,6.66666667 C15.1163444,6.66666667 14.4,7.36311261 14.4,8.22222222 C14.4,9.08133183 15.1163444,9.77777778 16,9.77777778 L16,11.3333333 C16,13.0515526 14.5673112,14.4444444 12.8,14.4444444 L3.2,14.4444444 C1.4326888,14.4444444 0,13.0515526 0,11.3333333 L0,9.77777778 C0.8836556,9.77777778 1.6,9.08133183 1.6,8.22222222 C1.6,7.36311261 0.8836556,6.66666667 0,6.66666667 L0,5.11111111 C0,3.39289189 1.4326888,2 3.2,2 L12.8,2 Z M12.8,3.55555556 L3.2,3.55555556 C2.3163444,3.55555556 1.6,4.2520015 1.6,5.11111111 L1.6,5.528 L1.61510127,5.53586898 C2.52015178,6.05130845 3.1414702,6.98670507 3.19608375,8.0669464 L3.2,8.22222222 C3.2,9.3677017 2.56324942,10.3685913 1.61510127,10.9085755 L1.6,10.9156667 L1.6,11.3333333 C1.6,12.1533925 2.25270223,12.8252395 3.08059012,12.8846222 L3.2,12.8888889 L12.8,12.8888889 C13.6836556,12.8888889 14.4,12.1924429 14.4,11.3333333 L14.4,10.9164444 L14.3848987,10.9085755 C13.4798482,10.393136 12.8585298,9.45773938 12.8039162,8.37749804 L12.8,8.22222222 C12.8,7.07674274 13.4367506,6.07585319 14.3848987,5.53586898 L14.4,5.52722222 L14.4,5.11111111 C14.4,4.29105194 13.7472978,3.61920491 12.9194099,3.55982224 L12.8,3.55555556 Z M10.4222222,7.44444444 C10.851777,7.44444444 11.2,7.79266742 11.2,8.22222222 C11.2,8.65177703 10.851777,9 10.4222222,9 L5.57777778,9 C5.14822297,9 4.8,8.65177703 4.8,8.22222222 C4.8,7.79266742 5.14822297,7.44444444 5.57777778,7.44444444 L10.4222222,7.44444444 Z" id="形状结合"></path>
            </g>
        </g>
    </g>
</svg>