<?xml version="1.0" encoding="UTF-8"?>
<svg width="16px" height="16px" viewBox="0 0 16 16" version="1.1" xmlns="http://www.w3.org/2000/svg" xmlns:xlink="http://www.w3.org/1999/xlink">
    <title>Icon/爱心基金</title>
    <g id="页面-1" stroke="none" stroke-width="1" fill="none" fill-rule="evenodd">
        <g id="注册" transform="translate(-48, -273)" fill="#A7A6A5" fill-rule="nonzero">
            <g id="Icon/爱心基金" transform="translate(48, 273)">
                <path d="M10.4,0 C13.0509668,0 15.2,2.1490332 15.2,4.8 L15.2,11.2 C15.2,13.8509668 13.0509668,16 10.4,16 L5.6,16 C2.9490332,16 0.8,13.8509668 0.8,11.2 L0.8,4.8 C0.8,2.1490332 2.9490332,0 5.6,0 L10.4,0 Z M10.4,1.6 L5.6,1.6 C3.8326888,1.6 2.4,3.0326888 2.4,4.8 L2.4,11.2 C2.4,12.9673112 3.8326888,14.4 5.6,14.4 L10.4,14.4 C12.1673112,14.4 13.6,12.9673112 13.6,11.2 L13.6,4.8 C13.6,3.0326888 12.1673112,1.6 10.4,1.6 Z M9.6,12 C10.0418278,12 10.4,12.3581722 10.4,12.8 C10.4,13.2418278 10.0418278,13.6 9.6,13.6 L6.4,13.6 C5.9581722,13.6 5.6,13.2418278 5.6,12.8 C5.6,12.3581722 5.9581722,12 6.4,12 L9.6,12 Z" id="形状结合"></path>
            </g>
        </g>
    </g>
</svg>