<?xml version="1.0" encoding="UTF-8"?>
<svg width="16px" height="16px" viewBox="0 0 16 16" version="1.1" xmlns="http://www.w3.org/2000/svg" xmlns:xlink="http://www.w3.org/1999/xlink">
    <title>Icon/爱心基金备份 5</title>
    <g id="页面-1" stroke="none" stroke-width="1" fill="none" fill-rule="evenodd">
        <g id="注册" transform="translate(-48, -553)" fill="#A7A6A5" fill-rule="nonzero">
            <g id="Icon/爱心基金备份-5" transform="translate(48, 553)">
                <path d="M12.8,0 C14.1254834,0 15.2,1.0745166 15.2,2.4 L15.2,13.6 C15.2,14.9254834 14.1254834,16 12.8,16 L3.2,16 C1.8745166,16 0.8,14.9254834 0.8,13.6 L0.8,8.8 C0.8,7.4745166 1.8745166,6.4 3.2,6.4 L4.8,6.4 C5.0806817,6.4 5.35010969,6.44818288 5.60046392,6.53672859 L5.6,2.4 C5.6,1.0745166 6.6745166,0 8,0 L12.8,0 Z M12.8,1.6 L8,1.6 C7.5581722,1.6 7.2,1.9581722 7.2,2.4 L7.2,14.4 L12.8,14.4 C13.2102687,14.4 13.5484057,14.0911678 13.5946178,13.6932969 L13.6,13.6 L13.6,2.4 C13.6,1.9581722 13.2418278,1.6 12.8,1.6 Z M5.6,12 L2.399,11.999 L2.4,13.6 C2.4,14.0418278 2.7581722,14.4 3.2,14.4 L5.6,14.4 L5.6,12 Z M11.2,10.4 C11.6418278,10.4 12,10.7581722 12,11.2 C12,11.6418278 11.6418278,12 11.2,12 L9.6,12 C9.1581722,12 8.8,11.6418278 8.8,11.2 C8.8,10.7581722 9.1581722,10.4 9.6,10.4 L11.2,10.4 Z M4.8,8 L3.2,8 C2.7581722,8 2.4,8.3581722 2.4,8.8 L2.39899064,10.4000006 L5.6,10.4 L5.6,8.8 C5.6,8.38973133 5.29116785,8.05159427 4.8932969,8.00538219 L4.8,8 Z M11.2,7.2 C11.6418278,7.2 12,7.5581722 12,8 C12,8.4418278 11.6418278,8.8 11.2,8.8 L9.6,8.8 C9.1581722,8.8 8.8,8.4418278 8.8,8 C8.8,7.5581722 9.1581722,7.2 9.6,7.2 L11.2,7.2 Z M11.2,4 C11.6418278,4 12,4.3581722 12,4.8 C12,5.2418278 11.6418278,5.6 11.2,5.6 L9.6,5.6 C9.1581722,5.6 8.8,5.2418278 8.8,4.8 C8.8,4.3581722 9.1581722,4 9.6,4 L11.2,4 Z" id="形状结合"></path>
            </g>
        </g>
    </g>
</svg>