<?xml version="1.0" encoding="UTF-8"?>
<svg width="20px" height="20px" viewBox="0 0 20 20" version="1.1" xmlns="http://www.w3.org/2000/svg" xmlns:xlink="http://www.w3.org/1999/xlink">
    <title>Icon/首页备份</title>
    <g id="页面-1" stroke="none" stroke-width="1" fill="none" fill-rule="evenodd">
        <g id="产品" transform="translate(-332, -7)" fill="#7B8189" fill-rule="nonzero">
            <g id="Bar/底部/全部/1备份-3" transform="translate(293, 0)">
                <g id="Icon/首页备份" transform="translate(39, 7)">
                    <path d="M17.9956811,0.000325857615 C18.5540501,-0.00964501321 19.0376375,0.209714231 19.4165308,0.588607472 C19.7979167,0.969993426 20.0048124,1.47352261 19.999915,2.00945713 C19.9898561,3.91140152 19.9699143,8.11412526 19.9699143,9.98864975 C19.9674216,12.6409025 18.9130016,15.1859683 17.0359844,17.0604927 C15.1589672,18.9325245 12.6139014,19.9844518 9.96164871,19.9844518 C9.59272633,19.9844518 9.22131125,19.96451 8.85238888,19.9221338 C4.26329372,19.4161119 0.571577302,15.7169173 0.0605699626,11.1278222 C-0.251019874,8.28861557 0.648851577,5.44691623 2.54581052,3.33558349 C4.43529132,1.22175802 7.149862,0.0102967284 9.98657589,0.0102967284 L10.6526344,0.010136822 C10.7748252,0.010084489 10.902153,0.0100197996 11.0339375,0.0099434807 L11.8726816,0.00935182724 C12.0195714,0.0092318975 12.1695571,0.00910179192 12.3219586,0.00896223733 L13.2599128,0.00801733667 C15.012684,0.0060984618 16.8931123,0.00321215611 17.9956811,0.000325857615 Z M6.76598331,9.04889479 C6.46685705,9.04889479 6.22257062,9.2931812 6.22257062,9.59230745 L6.22257062,12.1024752 C6.22257062,12.4016015 6.46685705,12.6458879 6.76598331,12.6458879 C7.06261685,12.6458879 7.30690328,12.4065869 7.30939599,12.1024752 L7.30939599,9.59230745 C7.30939599,9.29318122 7.06510956,9.04889479 6.76598331,9.04889479 Z M11.7788406,9.04889479 C11.4797144,9.04889479 11.235428,9.2931812 11.235428,9.59230745 L11.235428,12.1024752 C11.235428,12.4016015 11.4797144,12.6458879 11.7788406,12.6458879 C12.0829523,12.6458879 12.3197606,12.4065869 12.3222533,12.1024752 L12.3222533,9.59230745 C12.3222533,9.29318122 12.0779669,9.04889479 11.7788406,9.04889479 Z" id="形状结合"></path>
                </g>
            </g>
        </g>
    </g>
</svg>