<?xml version="1.0" encoding="UTF-8"?>
<svg width="319px" height="29px" viewBox="0 0 319 29" version="1.1" xmlns="http://www.w3.org/2000/svg" xmlns:xlink="http://www.w3.org/1999/xlink">
    <title>形状结合</title>
    <defs>
        <linearGradient x1="50%" y1="0%" x2="50%" y2="100%" id="linearGradient-1">
            <stop stop-color="#F3F3F3" offset="0%"></stop>
            <stop stop-color="#FAFAFA" offset="47.1973339%"></stop>
            <stop stop-color="#F3F3F3" offset="100%"></stop>
        </linearGradient>
    </defs>
    <g id="页面-1" stroke="none" stroke-width="1" fill="none" fill-rule="evenodd">
        <g id="产品" transform="translate(-35, -483)" fill="url(#linearGradient-1)" fill-rule="nonzero">
            <path d="M35,483.508772 L354,483.508772 L354,483 L35,483 L35,483.508772 Z M35,485.54386 L354,485.54386 L354,485.035088 L35,485.035088 L35,485.54386 Z M35,487.578947 L354,487.578947 L354,487.070175 L35,487.070175 L35,487.578947 Z M35,489.614035 L354,489.614035 L354,489.105263 L35,489.105263 L35,489.614035 Z M35,491.649123 L354,491.649123 L354,491.140351 L35,491.140351 L35,491.649123 Z M35,493.684211 L354,493.684211 L354,493.175439 L35,493.175439 L35,493.684211 Z M35,495.719298 L354,495.719298 L354,495.210526 L35,495.210526 L35,495.719298 Z M35,497.754386 L354,497.754386 L354,497.245614 L35,497.245614 L35,497.754386 Z M35,499.789474 L354,499.789474 L354,499.280702 L35,499.280702 L35,499.789474 Z M35,501.824561 L354,501.824561 L354,501.315789 L35,501.315789 L35,501.824561 Z M35,503.859649 L354,503.859649 L354,503.350877 L35,503.350877 L35,503.859649 Z M35,505.894737 L354,505.894737 L354,505.385965 L35,505.385965 L35,505.894737 Z M35,507.929825 L354,507.929825 L354,507.421053 L35,507.421053 L35,507.929825 Z M35,509.964912 L354,509.964912 L354,509.45614 L35,509.45614 L35,509.964912 Z M35,512 L354,512 L354,511.491228 L35,511.491228 L35,512 Z" id="形状结合"></path>
        </g>
    </g>
</svg>