<?xml version="1.0" encoding="UTF-8"?>
<svg width="24px" height="24px" viewBox="0 0 24 24" version="1.1" xmlns="http://www.w3.org/2000/svg" xmlns:xlink="http://www.w3.org/1999/xlink">
    <title>编组</title>
    <g id="页面-1" stroke="none" stroke-width="1" fill="none" fill-rule="evenodd">
        <g id="交易记录" transform="translate(-24, -108)" fill="#BE5828">
            <g id="编组" transform="translate(24, 108)">
                <rect id="矩形-4" opacity="0.100000001" x="0" y="0" width="24" height="24" rx="12"></rect>
                <g id="Icon/公告" transform="translate(6, 6)" fill-rule="nonzero">
                    <path d="M9.23333493,0 L2.76666507,0 C1.23870226,0 0,1.23870226 0,2.76666507 L0,9.23333493 C0,10.7612977 1.23870226,12 2.76666507,12 L9.23333493,12 C10.7612977,12 12,10.7612977 12,9.23333493 L12,2.76666507 C12,1.23870226 10.7612977,0 9.23333493,0 L9.23333493,0 Z M8.85973068,8.03661283 L7.61930321,9.2770403 C7.50697273,9.38937078 7.35975464,9.44553601 7.21272823,9.44553601 C7.06570183,9.44553601 6.91829204,9.38937078 6.80615326,9.2770403 C6.58149231,9.05237935 6.58149231,8.68835961 6.80615326,8.46369866 L7.34806153,7.92179039 L3.49834667,7.92179039 C3.18071596,7.92179039 2.92327599,7.66435041 2.92327599,7.3467197 C2.92327599,7.02908899 3.18071596,6.77164902 3.49834667,6.77164902 L8.33603297,6.77164902 C8.63679494,6.77164902 8.90554464,6.95126276 9.02055878,7.2290219 C9.13557291,7.50697273 9.07269852,7.82383668 8.85992237,8.03642114 L8.85973068,8.03661283 Z M8.50203671,5.22815929 L3.66435041,5.22815929 C3.36358844,5.22815929 3.09483874,5.04854555 2.9798246,4.77078641 C2.86481047,4.49302727 2.92787655,4.17597163 3.14046101,3.96319548 L4.38088848,2.7229597 C4.60554943,2.49829875 4.96956918,2.49829875 5.19423012,2.7229597 C5.41889107,2.94762065 5.41889107,3.31164039 5.19423012,3.53630134 L4.65232185,4.07820961 L8.5022284,4.07820961 C8.81985911,4.07820961 9.07729908,4.33564959 9.07729908,4.6532803 C9.07729908,4.97091101 8.81985911,5.22835098 8.5022284,5.22835098 L8.50203671,5.22815929 Z" id="形状"></path>
                </g>
            </g>
        </g>
    </g>
</svg>