<?xml version="1.0" encoding="UTF-8"?>
<svg width="24px" height="24px" viewBox="0 0 24 24" version="1.1" xmlns="http://www.w3.org/2000/svg" xmlns:xlink="http://www.w3.org/1999/xlink">
    <title>编组</title>
    <g id="页面-1" stroke="none" stroke-width="1" fill="none" fill-rule="evenodd">
        <g id="资金流水" transform="translate(-24, -258)" fill="#4961FF">
            <g id="编组" transform="translate(24, 258)">
                <rect id="矩形-4备份-4" opacity="0.100000001" x="0" y="0" width="24" height="24" rx="12"></rect>
                <g id="Icon/公告备份-2" transform="translate(6, 6)" fill-rule="nonzero">
                    <path d="M12.0000001,3.76499994 C12.0002274,4.7575604 11.3500374,5.63301578 10.3997659,5.91965222 C9.44949441,6.20628865 8.42365839,5.83638367 7.87499997,5.00924991 C7.45829495,5.63781403 6.75414564,6.01551972 6.00000006,6.01499989 C5.24585436,6.01551972 4.54170505,5.63781403 4.12500003,5.00924991 C3.57634161,5.83638367 2.55050559,6.20628865 1.60023411,5.91965222 C0.649962641,5.63301578 -0.000227408617,4.7575604 5.96656475e-08,3.76499994 C5.96656475e-08,3.53737495 0.20625011,2.60812496 0.619500096,0.977249989 C0.695765996,0.634168843 1.00004432,0.390060312 1.35150009,0.39 L10.6484999,0.39 C10.9999557,0.390060312 11.304234,0.634168843 11.3804999,0.977249989 C11.7933749,2.60812496 12.0000001,3.53737495 12.0000001,3.76499994 Z M4.12500003,6.1068749 C4.65658381,6.53379099 5.31820999,6.76602177 6,6.76499989 C6.70949999,6.76499989 7.36124997,6.51862489 7.87499997,6.1068749 C8.40658375,6.53379098 9.06820992,6.76602177 9.75000009,6.76499989 C10.2963749,6.76499989 10.8086249,6.61874989 11.2500001,6.36374989 L11.2500001,10.2554998 C11.2500001,10.9957498 10.8146249,11.6399998 10.1786249,11.6399998 L1.82137508,11.6399998 C1.18537509,11.6399998 0.750000093,10.9957498 0.750000093,10.2554998 L0.750000093,6.36374989 C1.20586995,6.62743045 1.72336545,6.76586049 2.25000009,6.76499989 C2.95950007,6.76499989 3.61125005,6.51862489 4.12500003,6.1068749 L4.12500003,6.1068749 Z M3.37500006,7.88999986 C3.27554387,7.88999986 3.18016115,7.92950867 3.10983501,7.99983481 C3.03950887,8.07016095 3.00000005,8.16554367 3.00000005,8.26499985 L3.00000005,9.38999986 C3.00000005,9.59710661 3.16789327,9.76499983 3.37500005,9.76499983 C3.58210683,9.76499983 3.75000004,9.59710661 3.75000004,9.38999986 L3.75000004,8.26499985 C3.75000004,8.05789308 3.58210683,7.88999986 3.37500006,7.88999986 L3.37500006,7.88999986 Z" id="形状"></path>
                </g>
            </g>
        </g>
    </g>
</svg>