<?xml version="1.0" encoding="UTF-8"?>
<svg width="24px" height="24px" viewBox="0 0 24 24" version="1.1" xmlns="http://www.w3.org/2000/svg" xmlns:xlink="http://www.w3.org/1999/xlink">
    <title>编组</title>
    <g id="页面-1" stroke="none" stroke-width="1" fill="none" fill-rule="evenodd">
        <g id="资金流水" transform="translate(-24, -108)" fill="#FF00FF">
            <g id="编组" transform="translate(24, 108)">
                <rect id="矩形-4" opacity="0.100000001" x="0" y="0" width="24" height="24" rx="12"></rect>
                <g id="Icon/公告" transform="translate(6, 6)">
                    <path d="M7.14,1.44 L7.14,2.58 C7.14,3.20960461 7.65039539,3.72 8.28,3.72 C8.90960461,3.72 9.42,3.20960461 9.42,2.58 L9.42,1.444 L9.46431873,1.44553687 C10.713161,1.52997876 11.7,2.56974508 11.7,3.84 L11.7,9.3 C11.7,10.6254834 10.6254834,11.7 9.3,11.7 L2.7,11.7 C1.3745166,11.7 0.3,10.6254834 0.3,9.3 L0.3,3.84 C0.3,2.55468276 1.31038108,1.50535267 2.58021579,1.44293718 L2.58,2.58 C2.58,3.20960461 3.09039539,3.72 3.72,3.72 C4.34960461,3.72 4.86,3.20960461 4.86,2.58 L4.86,1.44 L7.14,1.44 Z M8.96129863,4.77482544 L5.03432026,8.14380775 L3.55018264,6.41962533 C3.34482941,6.1810241 2.98493322,6.15407126 2.74633199,6.35942448 C2.50773076,6.56477771 2.48077792,6.9246739 2.68613115,7.16327513 L4.54155072,9.31909908 C4.74668093,9.55744119 5.10608037,9.58463442 5.3447373,9.37987057 L9.70362029,5.64001822 C9.94253668,5.43503175 9.97004232,5.07517739 9.76505585,4.836261 C9.56006938,4.59734461 9.20021502,4.56983897 8.96129863,4.77482544 Z M3.72,0.3 C4.03480231,0.3 4.29,0.555197693 4.29,0.87 L4.29,2.58 C4.29,2.89480231 4.03480231,3.15 3.72,3.15 C3.40519769,3.15 3.15,2.89480231 3.15,2.58 L3.15,0.87 C3.15,0.555197693 3.40519769,0.3 3.72,0.3 Z M8.28,0.3 C8.59480231,0.3 8.85,0.555197693 8.85,0.87 L8.85,2.58 C8.85,2.89480231 8.59480231,3.15 8.28,3.15 C7.96519769,3.15 7.71,2.89480231 7.71,2.58 L7.71,0.87 C7.71,0.555197693 7.96519769,0.3 8.28,0.3 Z" id="形状结合"></path>
                </g>
            </g>
        </g>
    </g>
</svg>