<?xml version="1.0" encoding="UTF-8"?>
<svg width="24px" height="24px" viewBox="0 0 24 24" version="1.1" xmlns="http://www.w3.org/2000/svg" xmlns:xlink="http://www.w3.org/1999/xlink">
    <title>编组</title>
    <g id="页面-1" stroke="none" stroke-width="1" fill="none" fill-rule="evenodd">
        <g id="资金流水" transform="translate(-24, -333)" fill="#1C95ED">
            <g id="编组" transform="translate(24, 333)">
                <rect id="矩形-4备份-6" opacity="0.100000001" x="0" y="0" width="24" height="24" rx="12"></rect>
                <g id="Icon/公告备份-3" transform="translate(6, 6)" fill-rule="nonzero">
                    <path d="M5.99869502,12 C2.25027837,12 0.678,10.6592048 0.678,7.90377277 C0.678,5.62107379 2.46087741,3.23886716 4.6222043,2.4873357 L7.3752216,2.4873357 C9.53662022,3.23886716 11.3194259,5.62106184 11.3194259,7.90377277 C11.3194259,10.6591929 9.74713558,12 5.99868307,12 L5.99869502,12 Z M7.47323497,7.4722103 L7.47323497,7.47128982 C7.72199216,7.4699868 7.92323098,7.26788728 7.92323098,7.01892686 C7.92323098,6.76972736 7.72202803,6.56785497 7.47323497,6.56628895 L7.47323497,6.56521307 L6.56061921,6.56521307 C6.5624004,6.55503995 6.55941183,6.54597858 6.56029645,6.53580547 L7.62987227,5.44244057 C7.80434539,5.24588784 7.7155727,5.08335708 7.53923471,4.90515421 C7.36179692,4.72604282 7.07179737,4.68847043 6.92842935,4.84456978 L6.00873664,5.82495451 L5.01532171,4.83151567 C4.88961021,4.70592372 4.64506094,4.74684331 4.46908157,4.92283463 C4.2929468,5.09906504 4.25217066,5.34381753 4.37776262,5.46942145 L5.39377119,6.48517898 C5.37476384,6.50948208 5.3624509,6.53648686 5.35508705,6.56523697 L4.52936715,6.56523697 L4.52936715,6.56607378 C4.52860207,6.56607378 4.52778918,6.56607378 4.52704801,6.56607378 C4.27696389,6.56607378 4.07420688,6.76862757 4.07420688,7.01891491 C4.07420688,7.26873603 4.27696389,7.47172018 4.52704801,7.47172018 C4.52780113,7.47172018 4.52860207,7.47126591 4.52936715,7.47126591 L4.52936715,7.47218639 L5.4344517,7.47218639 L5.4344517,7.92323438 L4.52936715,7.92323438 L4.52936715,7.92454935 C4.52860207,7.92454935 4.52778918,7.92454935 4.52704801,7.92454935 C4.27696389,7.92454935 4.07420688,8.12710315 4.07420688,8.37736658 C4.07420688,8.62721161 4.27696389,8.83020771 4.52704801,8.83020771 C4.52780113,8.83020771 4.52860207,8.82975345 4.52936715,8.82975345 L4.52936715,8.83020771 L5.4344517,8.83020771 L5.4344517,9.28613305 L5.44383583,9.28613305 C5.43674692,9.3214939 5.43268246,9.35843271 5.43268246,9.39623223 C5.43268246,9.70888519 5.68606596,9.9622687 5.99869502,9.9622687 C6.31137189,9.9622687 6.56473149,9.70887324 6.56473149,9.39623223 C6.56473149,9.35845662 6.56061921,9.3214939 6.55355422,9.28613305 L6.55884997,9.28613305 L6.55884997,8.83020771 L7.47325888,8.82975345 C7.72201607,8.82818743 7.92323098,8.62632699 7.92323098,8.37735462 C7.92323098,8.12819099 7.72201607,7.92630664 7.47325888,7.92476453 L7.47325888,7.92319852 L6.55884997,7.92319852 L6.55884997,7.47216249 L7.47325888,7.47216249 L7.47323497,7.4722103 Z M8.1495858,0.679342282 L8.05442951,0.798287644 C8.0523136,0.800499191 8.05086712,0.803141093 8.04876317,0.80535264 L7.24395135,1.81137936 L4.52701215,1.81137936 L3.72371853,0.807086015 C3.71775333,0.801324039 3.71388013,0.794282951 3.70835724,0.788078666 L3.62135379,0.679294465 L3.63670312,0.64855994 C3.62930341,0.620682494 3.61946501,0.593498398 3.61946501,0.563433314 C3.61946501,0.419276317 3.71012648,0.297461921 3.83703341,0.24792327 L3.84776838,0.226453333 C3.84776838,0.226453333 4.96072639,0.00380435107 5.88546382,5.06984304e-05 C6.85326067,-0.00391813174 7.92318316,0.226453333 7.92318316,0.226453333 L7.93415722,0.248126493 C8.06027517,0.298107454 8.15015961,0.419718626 8.15015961,0.563409406 C8.15015961,0.593056089 8.14041684,0.619391429 8.1333638,0.646539662 L8.14957384,0.679294465 L8.1495858,0.679342282 Z" id="形状"></path>
                </g>
            </g>
        </g>
    </g>
</svg>