<?xml version="1.0" encoding="UTF-8"?>
<svg width="24px" height="24px" viewBox="0 0 24 24" version="1.1" xmlns="http://www.w3.org/2000/svg" xmlns:xlink="http://www.w3.org/1999/xlink">
    <title>编组</title>
    <g id="页面-1" stroke="none" stroke-width="1" fill="none" fill-rule="evenodd">
        <g id="资金流水" transform="translate(-24, -483)" fill="#FF5049">
            <g id="编组" transform="translate(24, 483)">
                <rect id="矩形-4备份-10" opacity="0.100000001" x="0" y="0" width="24" height="24" rx="12"></rect>
                <g id="Icon/公告备份-5" transform="translate(6, 6)" fill-rule="nonzero">
                    <path d="M10.3132127,0 L1.68065787,0 C0.802426457,0 0.09,0.712426457 0.09,1.59065787 L0.09,8.09235158 C0.09,8.97058299 0.802426457,9.68300945 1.68065787,9.68300945 L5.33050633,9.68300945 L5.33050633,10.6671421 L3.74733642,10.6671421 C3.37927788,10.6671421 3.08090747,10.9655125 3.08090747,11.333571 C3.08090747,11.7016296 3.37927788,12 3.74733642,12 L8.24546443,12 C8.61352298,12 8.91189339,11.7016296 8.91189339,11.333571 C8.91189339,10.9655125 8.61352298,10.6671421 8.24546443,10.6671421 L6.66229453,10.6671421 L6.66229453,9.68300945 L10.312143,9.68300945 C11.1903744,9.68300945 11.9028021,8.97058299 11.9028021,8.09235158 L11.9028021,1.59065787 C11.9038706,0.712426457 11.1914441,0 10.3132127,0 Z M9.87784097,4.91959351 C9.87784097,5.28765206 9.57947056,5.58602246 9.21141202,5.58602246 C8.84335347,5.58602246 8.54498306,5.28765206 8.54498306,4.91959351 L8.54498306,4.66393296 L6.47402567,6.71028704 C6.21237859,6.96820228 5.79138083,6.96581025 5.5326814,6.70493849 L4.82453378,5.99037262 L3.12155643,7.52861473 C2.99957516,7.6396869 2.84046148,7.70111928 2.67548761,7.7008389 C2.49363701,7.7008389 2.31285612,7.62702799 2.18128187,7.48154751 C2.06260159,7.35044336 2.00097569,7.17749808 2.01000697,7.00088623 C2.01903826,6.82427438 2.09798416,6.65851743 2.22941879,6.54020324 L4.4052077,4.57514709 C4.6693671,4.33627545 5.07473151,4.34758794 5.32515778,4.60082011 L6.01298092,5.29506151 L7.52020146,3.80495632 L7.3308629,3.80174719 C7.15423032,3.79884979 6.98599287,3.72586191 6.86320244,3.59885808 C6.74041201,3.47185425 6.67313951,3.30125096 6.67620075,3.12462114 C6.68261901,2.76091995 6.97892851,2.46995899 7.34155999,2.46995899 L7.3533268,2.46995899 L9.22424853,2.50205028 C9.58794972,2.50846853 9.87891068,2.80477804 9.87891068,3.16847923 L9.87891068,4.91959351 L9.87784097,4.91959351 Z" id="形状"></path>
                </g>
            </g>
        </g>
    </g>
</svg>