<?xml version="1.0" encoding="UTF-8"?>
<svg width="44px" height="44px" viewBox="0 0 44 44" version="1.1" xmlns="http://www.w3.org/2000/svg" xmlns:xlink="http://www.w3.org/1999/xlink">
    <title>编组</title>
    <g id="页面-1" stroke="none" stroke-width="1" fill="none" fill-rule="evenodd">
        <g id="提现记录" transform="translate(-24, -224)" fill="#BE5828">
            <g id="编组" transform="translate(24, 224)">
                <rect id="矩形-4" opacity="0.100000001" x="0" y="0" width="44" height="44" rx="22"></rect>
                <g id="Icon/公告" transform="translate(12, 12)" fill-rule="nonzero">
                    <path d="M2.40594535,4.18225053 C2.38681117,4.29692416 2.42876173,4.38847458 2.481715,4.47586063 C2.54380796,4.57830416 2.6302954,4.65832585 2.72813619,4.72574481 C2.93350545,4.86728959 3.1612308,4.95780988 3.40293969,5.01433575 C3.44418888,5.02397957 3.48758603,5.02603984 3.5301722,5.02783709 C3.58362959,5.03009463 3.6372623,5.02847271 3.69082926,5.02847271 C8.22725435,5.02847271 12.7636795,5.02866997 17.3001046,5.02799051 C17.5534079,5.02794667 17.8033798,5.04771649 18.0429626,5.1353217 C18.8471028,5.42932631 19.323726,6.00041507 19.4707283,6.84258246 C19.4953858,6.98390807 19.4984762,7.13034052 19.4985639,7.27440586 C19.5,9.95770761 19.4997036,12.6409874 19.4997036,15.3242892 C19.4997036,15.9991365 19.4988488,16.6739619 19.5,17.3488093 C19.5006242,17.7201397 19.4229257,18.0726428 19.242192,18.3977268 C18.8970095,19.0186126 18.3695809,19.3837184 17.6686295,19.4942277 C17.5583175,19.5114993 17.4443014,19.5096139 17.3319949,19.5096797 C15.8484266,19.5106002 14.3648364,19.5102934 12.8812682,19.5102934 C9.47494386,19.5102934 6.06859767,19.509592 2.66227337,19.5114993 C2.35237839,19.5114993 2.05495461,19.4627319 1.77116365,19.3382172 C0.985105682,18.9932976 0.506509802,18.2185711 0.500811202,17.4266173 C0.500570115,17.3944859 0.500701603,17.3623545 0.500701603,17.330223 C0.500701603,13.3079663 0.501052289,9.28570956 0.5,5.26345283 C0.5,4.96727834 0.524767282,4.67498332 0.605271163,4.38943895 C0.7824542,3.76103531 1.15656819,3.29780378 1.75685136,3.02633061 C1.9639083,2.93269801 2.18529943,2.89460497 2.40717274,2.85688453 C2.93466708,2.76721903 3.46185458,2.67569055 3.98908593,2.58442506 C4.45304074,2.50411845 4.91686403,2.42311046 5.380775,2.34251891 C5.91320084,2.25002603 6.44564861,2.15755507 6.97809638,2.06523752 C7.49474145,1.97565971 8.01145226,1.88638872 8.52809733,1.79674516 C9.06580534,1.70346324 9.60340376,1.60945804 10.1411994,1.51657064 C10.726469,1.415486 11.3120015,1.31589176 11.8972272,1.21465371 C12.4824529,1.11341565 13.0673936,1.01055568 13.6525974,0.909120363 C14.1798068,0.817723366 14.7071477,0.727159252 15.2344668,0.636463628 C15.4559456,0.598370592 15.6766134,0.553724141 15.8992977,0.524968055 C16.1984092,0.48634898 16.4980247,0.484946257 16.790517,0.57561997 C17.1179681,0.677142954 17.3687071,0.872320472 17.5199614,1.18524009 C17.5717969,1.2924617 17.6007503,1.40356274 17.5991722,1.52538157 C17.5949421,1.85204363 17.5977475,2.17877144 17.5977475,2.50547735 L17.5977475,2.65776182 C17.558449,2.66977275 17.525134,2.68618913 17.4905259,2.6895864 C17.0110534,2.73670954 16.5312958,2.78113681 16.0518013,2.82815036 C15.6735449,2.86523518 15.2956392,2.90600219 14.9173827,2.94324044 C14.5391263,2.98047868 14.1605411,3.0144731 13.7822628,3.0515141 C13.4040064,3.08855508 13.0259691,3.12813852 12.6477565,3.16563979 C12.3813902,3.19202876 12.1148046,3.21626977 11.8484164,3.24241765 C11.5713761,3.26959566 11.2945112,3.29826406 11.0174928,3.32563933 C10.7564305,3.35143651 10.4952806,3.3761159 10.2342184,3.40173774 C9.95185206,3.42944177 9.66957345,3.45782526 9.38720714,3.48561693 C9.1261449,3.51130453 8.8650388,3.53642226 8.60397656,3.56204411 C8.32161025,3.58974814 8.03928779,3.61780285 7.75692149,3.64557263 C7.49585924,3.67123832 7.23477506,3.69668481 6.97373475,3.7223505 C6.68604244,3.75062439 6.39839396,3.77918321 6.11067972,3.80739135 C5.84961747,3.83299128 5.58851138,3.85813093 5.32744913,3.88375277 C5.04508283,3.9114568 4.76276037,3.93955536 4.48039409,3.96734703 C4.21933184,3.99303463 3.95826959,4.01845921 3.69720732,4.04419065 C3.40954177,4.07257036 3.12188598,4.10104882 2.83423998,4.12962603 C2.71704581,4.14126436 2.59980779,4.15261774 2.48274513,4.16535195 C2.45723288,4.16811359 2.43235623,4.17628891 2.40594535,4.18225053 L2.40594535,4.18225053 Z M14.958895,12.7794199 C14.9539635,13.6090942 15.6392875,14.2729607 16.4471317,14.2688159 C17.1904282,14.2649608 17.9155329,13.665905 17.9166959,12.7749268 C17.9178123,11.9166937 17.2354472,11.2755996 16.4347263,11.2778512 C15.5803726,11.2802462 14.945832,11.9877072 14.958895,12.7794199 L14.958895,12.7794199 Z" id="形状"></path>
                </g>
            </g>
        </g>
    </g>
</svg>