<?xml version="1.0" encoding="UTF-8"?>
<svg width="16px" height="16px" viewBox="0 0 16 16" version="1.1" xmlns="http://www.w3.org/2000/svg" xmlns:xlink="http://www.w3.org/1999/xlink">
    <title>Icon/资产</title>
    <g id="页面-1" stroke="none" stroke-width="1" fill="none" fill-rule="evenodd">
        <g id="奖金池" transform="translate(-151, -233)" fill="#7B531D">
            <g id="编组" transform="translate(151, 233)">
                <path d="M10.7724032,0 L4.55715515,0 C3.45136127,0 2.55492639,0.895764439 2.55492639,2.00076104 L2.55492639,7.08602492 C2.55492639,9.68733862 4.66525934,11.7961495 7.26849377,11.7961495 L8.06106455,11.7961495 C10.6642809,11.7961495 12.7746319,9.68733862 12.7746319,7.08602492 L12.7746319,2.00076104 C12.7746319,0.895764439 11.8781971,0 10.7724032,0 Z" id="路径" fill-rule="nonzero"></path>
                <path d="M13.9186954,1.52208381 C14.6702786,1.52208381 15.2809966,2.12551755 15.293137,2.87452775 L15.2933182,2.8972684 L15.2933182,4.02837599 C15.2933182,5.34847565 14.7394609,6.60731144 13.7678641,7.49874519 L13.7382922,7.52565345 L12.5734451,8.57634428 C12.3513296,8.77669762 12.0089151,8.75897622 11.8086523,8.5367701 C11.6115062,8.31802492 11.6255855,7.98267724 11.8379524,7.78116421 L11.8482084,7.77165119 L13.0130374,6.72097848 C13.767306,6.04054961 14.2015764,5.07493467 14.2101563,4.05914383 L14.2102831,4.02837599 L14.2102831,2.8972684 C14.2102831,2.73951529 14.0851099,2.61100793 13.9287157,2.60571687 L13.9186954,2.60555379 L12.2108267,2.60555379 C11.9117554,2.60555379 11.6693044,2.36301699 11.6693044,2.0638188 C11.6693044,1.76889694 11.9048698,1.52902378 12.1980521,1.52222877 L12.2108267,1.52208381 L13.9186954,1.52208381 L13.9186954,1.52208381 Z M1.37462288,1.54020385 C0.623039638,1.54020385 0.0123216308,2.1436376 0.000181200453,2.89264779 L0,2.91538845 L0,4.04649604 C0,5.3665957 0.553857305,6.62543148 1.52545413,7.51686523 L1.55502605,7.5437735 L2.71987316,8.59446433 C2.94198867,8.79481767 3.28440317,8.77709626 3.48466591,8.55489015 C3.681812,8.33614496 3.66773273,8.00079728 3.4553658,7.79928426 L3.44510985,7.78977123 L2.28028086,6.73909853 C1.52601221,6.05866966 1.09174184,5.09305472 1.08316195,4.07726387 L1.08303511,4.04649604 L1.08303511,2.91538845 C1.08303511,2.75763533 1.20820838,2.62912797 1.36460249,2.62383692 L1.37462288,2.62367384 L3.08249151,2.62367384 C3.38156285,2.62367384 3.62401379,2.38113703 3.62401379,2.08193884 C3.62401379,1.78701699 3.38844847,1.54714383 3.09526614,1.54034881 L3.08249151,1.54020385 L1.37462288,1.54020385 L1.37462288,1.54020385 Z M7.62853907,10.7089468 C7.92447565,10.7089468 8.16518233,10.9441631 8.17199547,11.2368924 L8.17214043,11.2496489 L8.17214043,13.2667724 C8.17214043,13.5653907 7.9287701,13.8074745 7.62853907,13.8074745 C7.33260249,13.8074745 7.09189581,13.5722582 7.08508267,13.2795289 L7.08493771,13.2667724 L7.08493771,11.2496489 C7.08493771,10.9510306 7.32830804,10.7089468 7.62853907,10.7089468 Z" id="形状" fill-rule="nonzero"></path>
                <path d="M9.8018573,12.7021518 L5.45522084,12.7021518 C4.06082899,12.7021518 2.91732729,13.7783918 2.91732729,15.1233522 L2.91732729,15.4573046 C2.91732729,15.7570283 3.15999094,16 3.45933409,16 L11.7977441,16 C12.0970872,16 12.3397508,15.7570283 12.3397508,15.4573046 L12.3397508,15.1233522 C12.3397508,13.7783918 11.1962492,12.7021518 9.8018573,12.7021518 Z" id="路径" fill-rule="nonzero"></path>
            </g>
        </g>
    </g>
</svg>