<?xml version="1.0" encoding="UTF-8"?>
<svg width="12px" height="12px" viewBox="0 0 12 12" version="1.1" xmlns="http://www.w3.org/2000/svg" xmlns:xlink="http://www.w3.org/1999/xlink">
    <title>Icon/密码备份 4</title>
    <g id="页面-1" stroke="none" stroke-width="1" fill="none" fill-rule="evenodd" opacity="0.95">
        <g id="注册-2" transform="translate(-36, -618)" fill="#313334">
            <g id="Icon/密码备份-4" transform="translate(36, 618)">
                <g id="编组" transform="translate(-0, 1.2)">
                    <path d="M11.8124245,3.83652178 C11.923618,3.81779579 12.0051747,3.7217247 12.0056012,3.60896626 L12.0056012,0.545970764 C12.0056012,0.244440116 11.7611623,6.12854159e-07 11.4596316,6.12854159e-07 L0.545970764,6.12854159e-07 C0.401104017,-0.000216451427 0.262108017,0.0572352682 0.159671643,0.159671643 C0.0572352682,0.262108017 -0.000216451427,0.401104017 6.1285416e-07,0.545970764 L6.1285416e-07,3.69409494 C0.000936014871,3.76426701 0.0545601724,3.82247745 0.124420078,3.82915487 C0.124420078,3.82915487 0.252113104,3.84879995 0.312685431,3.86680794 C0.445716745,3.90486413 0.570396198,3.96762038 0.680212155,4.05179912 C0.849194611,4.18081659 0.97413837,4.35894007 1.03791633,4.56175267 C1.13786124,4.86323838 1.10221045,5.19324511 0.940183621,5.46642989 C0.778156787,5.73961467 0.505665204,5.9291503 0.193177862,5.98602102 C0.0819844025,6.00474701 0.000427650193,6.1008181 6.1285416e-07,6.21357654 L6.1285416e-07,9.27657203 C-0.000216451427,9.42143878 0.0572352682,9.56043478 0.159671643,9.66287115 C0.262108017,9.76530753 0.401104017,9.82275925 0.545970764,9.82254218 L11.4596316,9.82254218 C11.7611623,9.82254218 12.0056012,9.57810268 12.0056012,9.27657203 L12.0056012,6.21357654 C12.0052434,6.10107896 11.9241113,6.00510141 11.8132431,5.98602102 C11.4180659,5.92155218 11.0920465,5.6416557 10.9685046,5.26079012 C10.8682659,4.95942218 10.9036823,4.62939151 11.0655831,4.35615436 C11.227484,4.08291722 11.4999479,3.89334402 11.8124245,3.83652178 Z M10.912025,3.27418134 C10.420898,3.54675684 9.82090447,3.96012207 9.82090447,4.9112714 C9.82090447,5.86242072 10.4192609,6.27578596 10.912025,6.54836145 L10.912025,8.73142104 L1.08948466,8.73142104 L1.08948466,6.54836145 C1.63709128,6.27578596 2.18306082,5.80430402 2.18306082,4.9112714 C2.18306082,4.01823877 1.63709129,3.54675684 1.09112176,3.27418134 L1.09112176,1.09112176 L10.9136621,1.09112176 L10.912025,3.27418134 Z" id="形状" fill-rule="nonzero"></path>
                    <path d="M3.80950979,5.45724093 L4.90063031,5.45724093 C5.20216096,5.45724093 5.44659985,5.21280204 5.44659985,4.9112714 C5.44659985,4.60974075 5.20216096,4.36530186 4.90063031,4.36530186 L3.80950979,4.36530186 C3.50797914,4.36530186 3.26354025,4.60974075 3.26354025,4.9112714 C3.26354025,5.21280204 3.50797914,5.45724093 3.80950979,5.45724093 Z M7.10497207,5.45724093 L8.1960926,5.45724093 C8.49762324,5.45724093 8.74206213,5.21280204 8.74206213,4.9112714 C8.74206213,4.60974075 8.49762324,4.36530186 8.1960926,4.36530186 L7.10497207,4.36530186 C6.80344142,4.36530186 6.55900253,4.60974075 6.55900253,4.9112714 C6.55900253,5.21280204 6.80344142,5.45724093 7.10497207,5.45724093 Z" id="形状" fill-rule="nonzero"></path>
                </g>
            </g>
        </g>
    </g>
</svg>