<?xml version="1.0" encoding="UTF-8"?>
<svg width="14px" height="14px" viewBox="0 0 14 14" version="1.1" xmlns="http://www.w3.org/2000/svg" xmlns:xlink="http://www.w3.org/1999/xlink">
    <title>Icon/多选</title>
    <g id="页面-1" stroke="none" stroke-width="1" fill="none" fill-rule="evenodd">
        <g id="注册-2" transform="translate(-36, -698)" fill="#01A25E" fill-rule="nonzero">
            <g id="Icon/多选" transform="translate(36, 698)">
                <path d="M7,0 C10.8659932,0 14,3.13400675 14,7 C14,10.8659932 10.8659932,14 7,14 C3.13400675,14 0,10.8659932 0,7 C0,3.13400675 3.13400675,0 7,0 Z M9.63471845,4.75717431 L6.06453828,8.58938965 L4.38838177,6.80622151 C4.16408395,6.56756202 3.79884979,6.54078511 3.54324985,6.73366388 L3.49024782,6.77835996 C3.23454123,7.01867904 3.22206719,7.42078731 3.46238627,7.6764939 L5.60345006,9.95464891 C5.85513195,10.2224459 6.28083894,10.221514 6.53134605,9.95261784 L10.5645149,5.62338455 C10.8037123,5.36662835 10.789478,4.96457854 10.5327218,4.72538119 C10.2759656,4.48618383 9.87391581,4.5004181 9.63471845,4.75717431 Z" id="形状结合"></path>
            </g>
        </g>
    </g>
</svg>