<?xml version="1.0" encoding="UTF-8"?>
<svg width="12px" height="12px" viewBox="0 0 12 12" version="1.1" xmlns="http://www.w3.org/2000/svg" xmlns:xlink="http://www.w3.org/1999/xlink">
    <title>Icon/密码</title>
    <g id="页面-1" stroke="none" stroke-width="1" fill="none" fill-rule="evenodd">
        <g id="登录-2" transform="translate(-36, -365)" fill="#313334" fill-rule="nonzero">
            <g id="Icon/密码" transform="translate(36, 365)">
                <path d="M9,0 C9.99411255,0 10.8,0.80588745 10.8,1.8 L10.8,10.2 C10.8,11.1941125 9.99411255,12 9,12 L3,12 C2.00588745,12 1.2,11.1941125 1.2,10.2 L1.2,1.8 C1.2,0.80588745 2.00588745,0 3,0 L9,0 Z M9,1.2 L3,1.2 C2.66862915,1.2 2.4,1.46862915 2.4,1.8 L2.4,10.2 C2.4,10.5313708 2.66862915,10.8 3,10.8 L9,10.8 C9.33137085,10.8 9.6,10.5313708 9.6,10.2 L9.6,1.8 C9.6,1.46862915 9.33137085,1.2 9,1.2 Z M6,9 C6.33137085,9 6.6,9.26862915 6.6,9.6 C6.6,9.93137085 6.33137085,10.2 6,10.2 C5.66862915,10.2 5.4,9.93137085 5.4,9.6 C5.4,9.26862915 5.66862915,9 6,9 Z M7.2,1.8 C7.53137085,1.8 7.8,2.06862915 7.8,2.4 C7.8,2.73137085 7.53137085,3 7.2,3 L4.8,3 C4.46862915,3 4.2,2.73137085 4.2,2.4 C4.2,2.06862915 4.46862915,1.8 4.8,1.8 L7.2,1.8 Z" id="形状结合"></path>
            </g>
        </g>
    </g>
</svg>