<?xml version="1.0" encoding="UTF-8"?>
<svg width="16px" height="16px" viewBox="0 0 16 16" version="1.1" xmlns="http://www.w3.org/2000/svg" xmlns:xlink="http://www.w3.org/1999/xlink">
    <title>Icon/显示备份 2</title>
    <g id="页面-1" stroke="none" stroke-width="1" fill="none" fill-rule="evenodd">
        <g id="个人-安全设置-4" transform="translate(-350, -332)" fill="#A9AAAC" fill-rule="nonzero">
            <g id="Icon/显示备份-2" transform="translate(350, 332)">
                <path d="M3.51016375,1.07748407 L13.6719696,13.3417054 C13.9420645,13.6676814 13.896764,14.1508923 13.5707881,14.4209872 C13.2448122,14.6910822 12.7616012,14.6457817 12.4915063,14.3198057 L2.32970046,2.05558439 C2.05960551,1.72960845 2.10490601,1.24639753 2.43088195,0.97630258 C2.75685788,0.706207635 3.24006881,0.751508131 3.51016375,1.07748407 Z M3.00471509,3.6692719 L3.98139195,4.8499538 C3.19773087,5.55870124 2.42499976,6.4884301 1.6625676,7.64954352 L1.629,7.70053423 L1.66361909,7.75328417 C3.62967463,10.7421499 5.66229347,12.1958503 7.77349823,12.2925515 L8,12.2977279 C8.62500956,12.2977279 9.24308959,12.1799839 9.85451757,11.9399212 L10.8741313,13.1691828 C9.94683434,13.6102313 8.98879058,13.8307556 8,13.8307556 C5.12706212,13.8307556 2.51368793,11.9690964 0.157862227,8.24705055 C-0.0522090323,7.91436891 -0.0526516223,7.49063676 0.156724204,7.157517 L0.377783666,6.81326949 C1.22059595,5.52979393 2.09623976,4.48179473 3.00471509,3.6692719 Z M8,1.56653423 C10.8729379,1.56653423 13.4863121,3.4281934 15.8421378,7.15023925 C16.052209,7.48292089 16.0526516,7.90665305 15.8432758,8.2397728 L15.6222163,8.58402031 C14.7797128,9.86702574 13.9044017,10.9147273 12.9962832,11.7271249 L12.018608,10.547336 C12.8022691,9.83858857 13.5750002,8.9088597 14.3374324,7.74774628 L14.369219,7.69660087 L14.3363809,7.64400564 C12.3703254,4.6551399 10.3377065,3.20143952 8.22650177,3.10473826 L8,3.0995619 C7.37533216,3.0995619 6.75758628,3.21717723 6.14648533,3.456975 L5.12687157,2.22763006 C6.05385639,1.78689951 7.01156587,1.56653423 8,1.56653423 Z M5.2379002,6.36604867 L6.47551469,7.86144763 C6.54098695,8.48169582 6.9763286,8.99165361 7.55687345,9.16665482 L8.79573798,10.6604294 C8.54197311,10.7284375 8.27522136,10.7647002 8,10.7647002 C6.3066644,10.7647002 4.93394466,9.39198051 4.93394466,7.6986449 C4.93394466,7.22107744 5.04313023,6.76901164 5.2379002,6.36604867 Z M8,4.63258957 C9.6933356,4.63258957 11.0660553,6.0053093 11.0660553,7.6986449 C11.0660553,8.17582219 10.9570481,8.62753948 10.762577,9.03025339 L9.52427092,7.53382387 C9.45814528,6.9152082 9.02405297,6.40663055 8.44514933,6.23124627 L7.2062657,4.73632413 C7.45943091,4.66866165 7.72550291,4.63258957 8,4.63258957 Z" id="形状结合备份-2"></path>
            </g>
        </g>
    </g>
</svg>