<?xml version="1.0" encoding="UTF-8"?>
<svg width="14px" height="14px" viewBox="0 0 14 14" version="1.1" xmlns="http://www.w3.org/2000/svg" xmlns:xlink="http://www.w3.org/1999/xlink">
    <title>Icon/复制备份</title>
    <g id="页面-1" stroke="none" stroke-width="1" fill="none" fill-rule="evenodd">
        <g id="个人资料-实名认证-认证中" transform="translate(-112, -374)" fill="#EC7C3B">
            <g id="Icon/复制备份" transform="translate(112, 374)">
                <path d="M7,0 C10.8659932,0 14,3.13400675 14,7 C14,10.8659932 10.8659932,14 7,14 C3.13400675,14 0,10.8659932 0,7 C0,3.13400675 3.13400675,0 7,0 Z M7,9.1 C6.61340068,9.1 6.3,9.41340068 6.3,9.8 C6.3,10.1865993 6.61340068,10.5 7,10.5 C7.38659932,10.5 7.7,10.1865993 7.7,9.8 C7.7,9.41340068 7.38659932,9.1 7,9.1 Z M7,3.5 C6.94254479,3.5 6.88516203,3.50407807 6.82828427,3.51220346 C6.16443242,3.60703944 5.70315392,4.22207744 5.7979899,4.88592929 L6.21414214,7.79899495 C6.26340701,8.14384907 6.55875152,8.4 6.90710678,8.4 L7.09289322,8.4 C7.44124848,8.4 7.73659299,8.14384907 7.78585786,7.79899495 L8.2020101,4.88592929 C8.2101355,4.82905153 8.21421356,4.77166877 8.21421356,4.71421356 C8.21421356,4.04362193 7.67059163,3.5 7,3.5 Z" id="形状结合"></path>
            </g>
        </g>
    </g>
</svg>