<?xml version="1.0" encoding="UTF-8"?>
<svg width="20px" height="20px" viewBox="0 0 20 20" version="1.1" xmlns="http://www.w3.org/2000/svg" xmlns:xlink="http://www.w3.org/1999/xlink">
    <title>Icon/首页备份</title>
    <defs>
        <linearGradient x1="50%" y1="0%" x2="50%" y2="100%" id="linearGradient-1">
            <stop stop-color="#1EF299" offset="0%"></stop>
            <stop stop-color="#24BF7E" offset="100%"></stop>
        </linearGradient>
        <linearGradient x1="50%" y1="0%" x2="50%" y2="100%" id="linearGradient-2">
            <stop stop-color="#007F49" offset="0%"></stop>
            <stop stop-color="#01A25E" offset="100%"></stop>
        </linearGradient>
    </defs>
    <g id="页面-1" stroke="none" stroke-width="1" fill="none" fill-rule="evenodd">
        <g id="我的-2" transform="translate(-332, -7)" fill-rule="nonzero">
            <g id="Bar/底部/全部/1备份-3" transform="translate(293, 0)">
                <g id="Icon/首页备份" transform="translate(39, 7)">
                    <path d="M17.9956811,0.000325857615 C18.5540501,-0.00964501321 19.0376375,0.209714231 19.4165308,0.588607472 C19.7979167,0.969993426 20.0048124,1.47352261 19.999915,2.00945713 C19.9898561,3.91140152 19.9699143,8.11412526 19.9699143,9.98864975 C19.9674216,12.6409025 18.9130016,15.1859683 17.0359844,17.0604927 C15.1589672,18.9325245 12.6139014,19.9844518 9.96164871,19.9844518 C9.59272633,19.9844518 9.22131125,19.96451 8.85238888,19.9221338 C4.26329372,19.4161119 0.571577302,15.7169173 0.0605699626,11.1278222 C-0.251019874,8.28861557 0.648851577,5.44691623 2.54581052,3.33558349 C4.43529132,1.22175802 7.149862,0.0102967284 9.98657589,0.0102967284 L10.6526344,0.010136822 C10.7748252,0.010084489 10.902153,0.0100197996 11.0339375,0.0099434807 L11.8726816,0.00935182724 C12.0195714,0.0092318975 12.1695571,0.00910179192 12.3219586,0.00896223733 L13.2599128,0.00801733667 C15.012684,0.0060984618 16.8931123,0.00321215611 17.9956811,0.000325857615 Z M6.76598331,9.04889479 C6.46685705,9.04889479 6.22257062,9.2931812 6.22257062,9.59230745 L6.22257062,12.1024752 C6.22257062,12.4016015 6.46685705,12.6458879 6.76598331,12.6458879 C7.06261685,12.6458879 7.30690328,12.4065869 7.30939599,12.1024752 L7.30939599,9.59230745 C7.30939599,9.29318122 7.06510956,9.04889479 6.76598331,9.04889479 Z M11.7788406,9.04889479 C11.4797144,9.04889479 11.235428,9.2931812 11.235428,9.59230745 L11.235428,12.1024752 C11.235428,12.4016015 11.4797144,12.6458879 11.7788406,12.6458879 C12.0829523,12.6458879 12.3197606,12.4065869 12.3222533,12.1024752 L12.3222533,9.59230745 C12.3222533,9.29318122 12.0779669,9.04889479 11.7788406,9.04889479 Z" id="形状结合" fill="url(#linearGradient-1)"></path>
                    <path d="M17.9956811,0.000325857615 C18.5540501,-0.00964501321 19.0376375,0.209714231 19.4165308,0.588607472 C19.7979167,0.969993426 20.0048124,1.47352261 20,2.00945713 C19.9898561,3.91140152 19.9699143,8.11412526 19.9699143,9.98864975 C19.9674216,12.6409025 18.9130016,15.1859683 17.0359844,17.0604927 C15.1589672,18.9325245 12.6139014,19.9844518 9.96164871,19.9844518 C9.59272633,19.9844518 9.22131125,19.96451 8.85238888,19.9221338 C4.26329372,19.4161119 0.571577302,15.7169173 0.0605699626,11.1278222 C-0.251019874,8.28861557 0.648851577,5.44691623 2.54581052,3.33558349 C4.43529132,1.22175802 7.149862,0.0102967284 9.98657589,0.0102967284 L10.6526344,0.010136822 C10.7748252,0.010084489 10.902153,0.0100197996 11.0339375,0.0099434807 L11.8726816,0.00935182724 C12.0195714,0.0092318975 12.1695571,0.00910179192 12.3219586,0.00896223733 L13.2599128,0.00801733667 C15.012684,0.0060984618 16.8931123,0.00321215611 17.9956811,0.000325857615 Z M17.99699,0.500324144 C17.0875846,0.502704781 15.598068,0.505167617 14.088094,0.507050183 L13.3339932,0.507940043 C12.9586815,0.508357728 12.5879208,0.508732245 12.2304559,0.509053244 L11.0027323,0.509967324 L10.8161438,0.51006583 L9.98657589,0.510296728 C7.29071613,0.510296728 4.71223063,1.66219746 2.91774131,3.66975035 C1.11994443,5.6707148 0.260853346,8.36945012 0.557498649,11.0724879 C1.04291865,15.4317963 4.55338739,18.945069 8.90944614,19.4254 C9.25330269,19.464897 9.60528781,19.4844518 9.96164871,19.4844518 C12.4815389,19.4844518 14.8996248,18.4850097 16.682666,16.7067045 C18.4649209,14.9268164 19.4675451,12.5092388 19.4699143,9.98864975 C19.4699143,8.4436422 19.4838272,5.05002273 19.5,2.00488831 C19.5036033,1.60355263 19.3497659,1.22894939 19.0629774,0.942160863 C18.7655299,0.64471338 18.4078914,0.493044677 17.99699,0.500324144 Z M6.76598331,8.54889479 C7.34125193,8.54889479 7.80939599,9.01703884 7.80939599,9.59230745 L7.80939599,12.1065734 C7.80465211,12.6832794 7.33909709,13.1458879 6.76598331,13.1458879 C6.19071468,13.1458879 5.72257062,12.6777438 5.72257062,12.1024752 L5.72257062,9.59230745 C5.72257062,9.01703882 6.19071468,8.54889479 6.76598331,8.54889479 Z M11.7788406,8.54889479 C12.3541092,8.54889479 12.8222533,9.01703885 12.8222533,9.59230745 L12.8222533,12.1065734 C12.8174967,12.6848318 12.357909,13.1458879 11.7788406,13.1458879 C11.203572,13.1458879 10.735428,12.6777438 10.735428,12.1024752 L10.735428,9.59230745 C10.735428,9.01703883 11.203572,8.54889479 11.7788406,8.54889479 Z M6.76598331,9.04889479 C6.46685705,9.04889479 6.22257062,9.2931812 6.22257062,9.59230745 L6.22257062,12.1024752 C6.22257062,12.4016015 6.46685705,12.6458879 6.76598331,12.6458879 C7.06261685,12.6458879 7.30690328,12.4065869 7.30939599,12.1024752 L7.30939599,9.59230745 C7.30939599,9.29318122 7.06510956,9.04889479 6.76598331,9.04889479 Z M11.7788406,9.04889479 C11.4797144,9.04889479 11.235428,9.2931812 11.235428,9.59230745 L11.235428,12.1024752 C11.235428,12.4016015 11.4797144,12.6458879 11.7788406,12.6458879 C12.0829523,12.6458879 12.3197606,12.4065869 12.3222533,12.1024752 L12.3222533,9.59230745 C12.3222533,9.29318122 12.0779669,9.04889479 11.7788406,9.04889479 Z" id="形状结合" fill="url(#linearGradient-2)"></path>
                </g>
            </g>
        </g>
    </g>
</svg>