<?xml version="1.0" encoding="UTF-8"?>
<svg width="21px" height="20px" viewBox="0 0 21 20" version="1.1" xmlns="http://www.w3.org/2000/svg" xmlns:xlink="http://www.w3.org/1999/xlink">
    <title>Icon/播放</title>
    <g id="页面-1" stroke="none" stroke-width="1" fill="none" fill-rule="evenodd">
        <g id="我的-2" transform="translate(-230, -586)" fill="#313334" fill-rule="nonzero">
            <g id="金刚区/图标备份-2" transform="translate(195, 582)">
                <g id="Icon/播放" transform="translate(35.5, 4)">
                    <path d="M9.99965965,0 C14.0312597,0 17.4329986,2.99983813 17.9373895,6.99976176 L17.9993874,6.99976176 C19.0459765,6.99943055 19.9158253,7.80605727 19.9943195,8.84969879 L19.9993194,8.99969368 L19.9993194,10.9996256 C19.9996505,12.0462148 19.1930238,12.9160636 18.1493823,12.9945577 L17.9993874,12.9995575 L15.9994554,12.9995575 L15.9994554,7.99972773 C15.9994554,4.68613202 13.3132554,1.99993194 9.99965965,1.99993194 C6.68606394,1.99993194 3.99986387,4.68613202 3.99986387,7.99972773 L3.99986387,12.9995575 C3.99986387,15.2086214 5.79066392,16.9994214 7.99972773,16.9994214 L8.26771859,16.9994214 C8.72048148,16.2157357 9.64312122,15.8337998 10.517321,16.0681762 C11.3915208,16.3025526 11.9993536,17.0948141 11.9993536,17.9998874 C11.9993536,18.9049606 11.3915208,19.6972221 10.517321,19.9315985 C9.64312122,20.1659749 8.72048148,19.784039 8.26771859,19.0003533 L7.99972773,18.9993533 C4.77359476,18.9994718 2.12491178,16.4484137 2.00393179,13.2245499 L1.99993194,12.9995575 C1.46951702,12.9995576 0.960826501,12.788851 0.585766506,12.4137911 C0.210706511,12.0387311 0,11.5300406 0,10.9996256 L0,8.99969368 C0,8.46927875 0.210706511,7.96058824 0.585766506,7.58552825 C0.960826501,7.21046826 1.46951702,6.99976175 1.99993194,6.99976176 L2.06192983,6.99876179 C2.56678256,2.99923498 5.96839546,0 9.99965965,0 L9.99965965,0 Z M6.49977879,7.99972773 C7.32817771,7.99972773 7.99972773,8.67127775 7.99972773,9.49967668 C7.99972773,10.3280756 7.32817771,10.9996256 6.49977879,10.9996256 C5.67137986,10.9996256 4.99982984,10.3280756 4.99982984,9.49967668 C4.99982984,8.67127775 5.67137986,7.99972773 6.49977879,7.99972773 Z M13.4995405,7.99972773 C14.3279394,7.99972773 14.9994895,8.67127775 14.9994895,9.49967668 C14.9994895,10.3280756 14.3279394,10.9996256 13.4995405,10.9996256 C12.6711416,10.9996256 11.9995916,10.3280756 11.9995916,9.49967668 C11.9995916,8.67127775 12.6711416,7.99972773 13.4995405,7.99972773 Z" id="形状"></path>
                </g>
            </g>
        </g>
    </g>
</svg>