<?xml version="1.0" encoding="UTF-8"?>
<svg width="12px" height="12px" viewBox="0 0 12 12" version="1.1" xmlns="http://www.w3.org/2000/svg" xmlns:xlink="http://www.w3.org/1999/xlink">
    <title>Icon/爱心基金</title>
    <g id="页面-1" stroke="none" stroke-width="1" fill="none" fill-rule="evenodd">
        <g id="我的资产" transform="translate(-124, -126)" fill="#EC7C3B" fill-rule="nonzero">
            <g id="Icon/爱心基金" transform="translate(124, 126)">
                <path d="M1.08058603,3.1906899 C1.08058603,2.59646896 1.08117001,2.00223379 1.08000102,1.40801287 C1.07981689,1.31048823 1.10450072,1.22465742 1.17553262,1.15616085 C1.25855748,1.07609863 1.35838954,1.03966398 1.47034277,1.07349208 C1.77706042,1.1661882 2.08453296,1.14223078 2.39274616,1.08854737 C2.663371,1.04140168 2.91556487,0.947010589 3.15586547,0.81132784 C3.67100697,0.52042038 4.20846791,0.279963093 4.78353144,0.13092002 C5.11563085,0.0448470749 5.45260151,-0.00406479755 5.79620959,0.000265200407 C6.03233688,0.00322783059 6.26899118,0 6.50444904,0.014893186 C6.98865384,0.0456019838 7.45217721,0.170231836 7.9019557,0.348630588 C8.24033645,0.482832014 8.56606904,0.643697127 8.87057897,0.842549404 C9.08615301,0.983317046 9.32172482,1.05550267 9.57089908,1.09609639 C9.81578607,1.13600643 10.0615704,1.15537748 10.3086224,1.11717664 C10.3622346,1.10887272 10.4156047,1.09663764 10.4677213,1.08152538 C10.6954735,1.01542171 10.892816,1.16126001 10.8937133,1.39915348 C10.8946391,1.64630517 10.8939412,1.8934711 10.8939269,2.14063704 C10.8939269,2.96208313 10.8978439,3.78354346 10.8929442,4.60496107 C10.8859079,5.78525569 10.6097139,6.90428939 10.0862827,7.95909955 C9.2126915,9.71954261 7.89754024,11.0495213 6.15134061,11.9529667 C6.03128288,12.0150679 5.9190163,12.0161647 5.79910101,11.9533228 C3.763404,10.8870751 2.34005979,9.28135827 1.54831121,7.12205692 C1.31715488,6.49165773 1.17530472,5.83858302 1.13073708,5.16872956 C1.10363187,4.76126826 1.10700756,4.35167045 1.10051256,3.94296997 C1.09652441,3.69227167 1.0997719,3.44145942 1.0997719,3.1906899 C1.09337661,3.1906899 1.08696708,3.1906899 1.08058603,3.1906899 Z M5.96760059,5.99685581 C5.96760059,4.35352208 5.96760059,2.71709642 5.96760059,1.08235147 C5.96106285,1.07897578 5.95800053,1.07612711 5.95479576,1.0759277 C5.93667814,1.0748452 5.91850355,1.07383307 5.90037168,1.07383307 C5.2624947,1.07346358 4.65109621,1.19456108 4.07883863,1.48287624 C3.58021949,1.7340873 3.07262699,1.96025845 2.52788769,2.09413229 C2.40532312,2.12425711 2.28540783,2.16513571 2.16241597,2.20162733 C2.16241597,2.22679545 2.16252991,2.24666499 2.16240172,2.26650608 C2.16012278,2.59542921 2.1560634,2.92435233 2.15587824,3.25327546 C2.15547943,3.97085859 2.13941285,4.68919661 2.23814819,5.40289128 C2.26669198,5.60923559 2.3014744,5.81473954 2.33416304,6.02554206 C3.55006617,6.01597047 4.75753722,6.00642738 5.96760059,5.99685581 Z M5.98036267,5.99624335 C5.98915085,7.63330996 5.99789631,9.26316943 6.00668449,10.8977719 C6.0314253,10.8872176 6.04981354,10.8798395 6.06780298,10.871621 C6.48479314,10.6807451 6.85063518,10.4144787 7.18927231,10.1086299 C7.63073263,9.70995678 8.01378074,9.25892489 8.3665046,8.7818133 C8.62871159,8.42715232 8.89650198,8.07538276 9.09304683,7.67762123 C9.18773704,7.48594763 9.29198458,7.2965957 9.36229005,7.09583481 C9.47727712,6.76741021 9.57024388,6.43105201 9.62614927,6.08617627 C9.63987993,6.00144221 9.63433923,5.99624335 9.54939153,5.99624335 C8.38291302,5.99624335 7.21644874,5.99624335 6.04997022,5.99624335 C6.02843419,5.99624335 6.00685542,5.99624335 5.98036267,5.99624335 Z" id="形状"></path>
            </g>
        </g>
    </g>
</svg>