<?xml version="1.0" encoding="UTF-8"?>
<svg width="380px" height="8px" viewBox="0 0 380 8" version="1.1" xmlns="http://www.w3.org/2000/svg" xmlns:xlink="http://www.w3.org/1999/xlink">
    <title>形状结合</title>
    <g id="页面-1" stroke="none" stroke-width="1" fill="none" fill-rule="evenodd" opacity="0.2">
        <g id="详情页-1" transform="translate(-5, -203)" fill="#BE5828">
            <path d="M6,203 C6.55228475,203 7,203.447715 7,204 L7,210 C7,210.552285 6.55228475,211 6,211 C5.44771525,211 5,210.552285 5,210 L5,204 C5,203.447715 5.44771525,203 6,203 Z M13,203 C13.5522847,203 14,203.447715 14,204 L14,210 C14,210.552285 13.5522847,211 13,211 C12.4477153,211 12,210.552285 12,210 L12,204 C12,203.447715 12.4477153,203 13,203 Z M20,203 C20.5522847,203 21,203.447715 21,204 L21,210 C21,210.552285 20.5522847,211 20,211 C19.4477153,211 19,210.552285 19,210 L19,204 C19,203.447715 19.4477153,203 20,203 Z M27,203 C27.5522847,203 28,203.447715 28,204 L28,210 C28,210.552285 27.5522847,211 27,211 C26.4477153,211 26,210.552285 26,210 L26,204 C26,203.447715 26.4477153,203 27,203 Z M34,203 C34.5522847,203 35,203.447715 35,204 L35,210 C35,210.552285 34.5522847,211 34,211 C33.4477153,211 33,210.552285 33,210 L33,204 C33,203.447715 33.4477153,203 34,203 Z M90,203 C90.5522847,203 91,203.447715 91,204 L91,210 C91,210.552285 90.5522847,211 90,211 C89.4477153,211 89,210.552285 89,210 L89,204 C89,203.447715 89.4477153,203 90,203 Z M97,203 C97.5522847,203 98,203.447715 98,204 L98,210 C98,210.552285 97.5522847,211 97,211 C96.4477153,211 96,210.552285 96,210 L96,204 C96,203.447715 96.4477153,203 97,203 Z M104,203 C104.552285,203 105,203.447715 105,204 L105,210 C105,210.552285 104.552285,211 104,211 C103.447715,211 103,210.552285 103,210 L103,204 C103,203.447715 103.447715,203 104,203 Z M111,203 C111.552285,203 112,203.447715 112,204 L112,210 C112,210.552285 111.552285,211 111,211 C110.447715,211 110,210.552285 110,210 L110,204 C110,203.447715 110.447715,203 111,203 Z M118,203 C118.552285,203 119,203.447715 119,204 L119,210 C119,210.552285 118.552285,211 118,211 C117.447715,211 117,210.552285 117,210 L117,204 C117,203.447715 117.447715,203 118,203 Z M125,203 C125.552285,203 126,203.447715 126,204 L126,210 C126,210.552285 125.552285,211 125,211 C124.447715,211 124,210.552285 124,210 L124,204 C124,203.447715 124.447715,203 125,203 Z M132,203 C132.552285,203 133,203.447715 133,204 L133,210 C133,210.552285 132.552285,211 132,211 C131.447715,211 131,210.552285 131,210 L131,204 C131,203.447715 131.447715,203 132,203 Z M139,203 C139.552285,203 140,203.447715 140,204 L140,210 C140,210.552285 139.552285,211 139,211 C138.447715,211 138,210.552285 138,210 L138,204 C138,203.447715 138.447715,203 139,203 Z M146,203 C146.552285,203 147,203.447715 147,204 L147,210 C147,210.552285 146.552285,211 146,211 C145.447715,211 145,210.552285 145,210 L145,204 C145,203.447715 145.447715,203 146,203 Z M153,203 C153.552285,203 154,203.447715 154,204 L154,210 C154,210.552285 153.552285,211 153,211 C152.447715,211 152,210.552285 152,210 L152,204 C152,203.447715 152.447715,203 153,203 Z M160,203 C160.552285,203 161,203.447715 161,204 L161,210 C161,210.552285 160.552285,211 160,211 C159.447715,211 159,210.552285 159,210 L159,204 C159,203.447715 159.447715,203 160,203 Z M167,203 C167.552285,203 168,203.447715 168,204 L168,210 C168,210.552285 167.552285,211 167,211 C166.447715,211 166,210.552285 166,210 L166,204 C166,203.447715 166.447715,203 167,203 Z M223,203 C223.552285,203 224,203.447715 224,204 L224,210 C224,210.552285 223.552285,211 223,211 C222.447715,211 222,210.552285 222,210 L222,204 C222,203.447715 222.447715,203 223,203 Z M230,203 C230.552285,203 231,203.447715 231,204 L231,210 C231,210.552285 230.552285,211 230,211 C229.447715,211 229,210.552285 229,210 L229,204 C229,203.447715 229.447715,203 230,203 Z M237,203 C237.552285,203 238,203.447715 238,204 L238,210 C238,210.552285 237.552285,211 237,211 C236.447715,211 236,210.552285 236,210 L236,204 C236,203.447715 236.447715,203 237,203 Z M244,203 C244.552285,203 245,203.447715 245,204 L245,210 C245,210.552285 244.552285,211 244,211 C243.447715,211 243,210.552285 243,210 L243,204 C243,203.447715 243.447715,203 244,203 Z M251,203 C251.552285,203 252,203.447715 252,204 L252,210 C252,210.552285 251.552285,211 251,211 C250.447715,211 250,210.552285 250,210 L250,204 C250,203.447715 250.447715,203 251,203 Z M258,203 C258.552285,203 259,203.447715 259,204 L259,210 C259,210.552285 258.552285,211 258,211 C257.447715,211 257,210.552285 257,210 L257,204 C257,203.447715 257.447715,203 258,203 Z M265,203 C265.552285,203 266,203.447715 266,204 L266,210 C266,210.552285 265.552285,211 265,211 C264.447715,211 264,210.552285 264,210 L264,204 C264,203.447715 264.447715,203 265,203 Z M272,203 C272.552285,203 273,203.447715 273,204 L273,210 C273,210.552285 272.552285,211 272,211 C271.447715,211 271,210.552285 271,210 L271,204 C271,203.447715 271.447715,203 272,203 Z M279,203 C279.552285,203 280,203.447715 280,204 L280,210 C280,210.552285 279.552285,211 279,211 C278.447715,211 278,210.552285 278,210 L278,204 C278,203.447715 278.447715,203 279,203 Z M286,203 C286.552285,203 287,203.447715 287,204 L287,210 C287,210.552285 286.552285,211 286,211 C285.447715,211 285,210.552285 285,210 L285,204 C285,203.447715 285.447715,203 286,203 Z M293,203 C293.552285,203 294,203.447715 294,204 L294,210 C294,210.552285 293.552285,211 293,211 C292.447715,211 292,210.552285 292,210 L292,204 C292,203.447715 292.447715,203 293,203 Z M300,203 C300.552285,203 301,203.447715 301,204 L301,210 C301,210.552285 300.552285,211 300,211 C299.447715,211 299,210.552285 299,210 L299,204 C299,203.447715 299.447715,203 300,203 Z M356,203 C356.552285,203 357,203.447715 357,204 L357,210 C357,210.552285 356.552285,211 356,211 C355.447715,211 355,210.552285 355,210 L355,204 C355,203.447715 355.447715,203 356,203 Z M363,203 C363.552285,203 364,203.447715 364,204 L364,210 C364,210.552285 363.552285,211 363,211 C362.447715,211 362,210.552285 362,210 L362,204 C362,203.447715 362.447715,203 363,203 Z M370,203 C370.552285,203 371,203.447715 371,204 L371,210 C371,210.552285 370.552285,211 370,211 C369.447715,211 369,210.552285 369,210 L369,204 C369,203.447715 369.447715,203 370,203 Z M377,203 C377.552285,203 378,203.447715 378,204 L378,210 C378,210.552285 377.552285,211 377,211 C376.447715,211 376,210.552285 376,210 L376,204 C376,203.447715 376.447715,203 377,203 Z M384,203 C384.552285,203 385,203.447715 385,204 L385,210 C385,210.552285 384.552285,211 384,211 C383.447715,211 383,210.552285 383,210 L383,204 C383,203.447715 383.447715,203 384,203 Z" id="形状结合"></path>
        </g>
    </g>
</svg>