<?xml version="1.0" encoding="UTF-8"?>
<svg width="390px" height="298px" viewBox="0 0 390 298" version="1.1" xmlns="http://www.w3.org/2000/svg" xmlns:xlink="http://www.w3.org/1999/xlink">
    <title>编组</title>
    <defs>
        <linearGradient x1="-1.30104261e-16%" y1="19.9083548%" x2="100%" y2="79.1926364%" id="linearGradient-1">
            <stop stop-color="#FEE5D9" offset="0%"></stop>
            <stop stop-color="#FCF4F0" offset="32.6404687%"></stop>
            <stop stop-color="#FAC098" offset="100%"></stop>
        </linearGradient>
        <rect id="path-2" x="0" y="0" width="390" height="298"></rect>
        <linearGradient x1="50%" y1="0%" x2="50%" y2="100%" id="linearGradient-4">
            <stop stop-color="#FBF9F5" stop-opacity="0" offset="0%"></stop>
            <stop stop-color="#F2F4F5" offset="100%"></stop>
        </linearGradient>
        <radialGradient cx="78.4052871%" cy="39.101725%" fx="78.4052871%" fy="39.101725%" r="40.0247245%" gradientTransform="translate(0.7841, 0.391), scale(0.9065, 1), rotate(90), translate(-0.7841, -0.391)" id="radialGradient-5">
            <stop stop-color="#F1C0A0" stop-opacity="0.484620848" offset="0%"></stop>
            <stop stop-color="#F1C0A0" stop-opacity="0" offset="100%"></stop>
        </radialGradient>
        <linearGradient x1="96.4721661%" y1="36.1230694%" x2="-1.60725839%" y2="64.4387845%" id="linearGradient-6">
            <stop stop-color="#E5AA84" offset="0%"></stop>
            <stop stop-color="#E5AA84" stop-opacity="0" offset="100%"></stop>
        </linearGradient>
        <linearGradient x1="96.4721661%" y1="36.1230694%" x2="7.77037636%" y2="64.5027724%" id="linearGradient-7">
            <stop stop-color="#FFC9A7" offset="0%"></stop>
            <stop stop-color="#FFC9A7" stop-opacity="0" offset="100%"></stop>
        </linearGradient>
        <linearGradient x1="100%" y1="34.6421832%" x2="-4.12652241e-17%" y2="64.0661027%" id="linearGradient-8">
            <stop stop-color="#FFFFFF" offset="0%"></stop>
            <stop stop-color="#FFFFFF" stop-opacity="0" offset="100%"></stop>
        </linearGradient>
    </defs>
    <g id="页面-1" stroke="none" stroke-width="1" fill="none" fill-rule="evenodd">
        <g id="编组">
            <mask id="mask-3" fill="white">
                <use xlink:href="#path-2"></use>
            </mask>
            <use id="矩形" fill="url(#linearGradient-1)" xlink:href="#path-2"></use>
            <rect id="矩形-3" fill="url(#linearGradient-4)" mask="url(#mask-3)" x="0" y="196" width="390" height="104"></rect>
            <path d="M390.5,-28 L390.5,326 L390,326 L390,323.5 L377.5,323.5 L377.5,326 L377,326 L377,323.5 L364.5,323.5 L364.5,326 L364,326 L364,323.5 L351.5,323.5 L351.5,326 L351,326 L351,323.5 L338.5,323.5 L338.5,326 L338,326 L338,323.5 L325.5,323.5 L325.5,326 L325,326 L325,323.5 L312.5,323.5 L312.5,326 L312,326 L312,323.5 L299.5,323.5 L299.5,326 L299,326 L299,323.5 L286.5,323.5 L286.5,326 L286,326 L286,323.5 L273.5,323.5 L273.5,326 L273,326 L273,323.5 L260.5,323.5 L260.5,326 L260,326 L260,323.5 L247.5,323.5 L247.5,326 L247,326 L247,323.5 L234.5,323.5 L234.5,326 L234,326 L234,323.5 L221.5,323.5 L221.5,326 L221,326 L221,323.5 L208.5,323.5 L208.5,326 L208,326 L208,323.5 L195.5,323.5 L195.5,326 L195,326 L195,323.5 L182.5,323.5 L182.5,326 L182,326 L182,323.5 L169.5,323.5 L169.5,326 L169,326 L169,323.5 L156.5,323.5 L156.5,326 L156,326 L156,323.5 L143.5,323.5 L143.5,326 L143,326 L143,323.5 L130.5,323.5 L130.5,326 L130,326 L130,323.5 L117.5,323.5 L117.5,326 L117,326 L117,323.5 L104.5,323.5 L104.5,326 L104,326 L104,323.5 L91.5,323.5 L91.5,326 L91,326 L91,323.5 L78.5,323.5 L78.5,326 L78,326 L78,323.5 L65.5,323.5 L65.5,326 L65,326 L65,323.5 L52.5,323.5 L52.5,326 L52,326 L52,323.5 L39.5,323.5 L39.5,326 L39,326 L39,323.5 L26.5,323.5 L26.5,326 L26,326 L26,323.5 L13.5,323.5 L13.5,326 L13,326 L13,323.5 L0.5,323.5 L0.5,326 L0,326 L0,-28 L390.5,-28 Z M13,310.5 L0.5,310.5 L0.5,323 L13,323 L13,310.5 Z M26,310.5 L13.5,310.5 L13.5,323 L26,323 L26,310.5 Z M39,310.5 L26.5,310.5 L26.5,323 L39,323 L39,310.5 Z M52,310.5 L39.5,310.5 L39.5,323 L52,323 L52,310.5 Z M65,310.5 L52.5,310.5 L52.5,323 L65,323 L65,310.5 Z M78,310.5 L65.5,310.5 L65.5,323 L78,323 L78,310.5 Z M91,310.5 L78.5,310.5 L78.5,323 L91,323 L91,310.5 Z M104,310.5 L91.5,310.5 L91.5,323 L104,323 L104,310.5 Z M117,310.5 L104.5,310.5 L104.5,323 L117,323 L117,310.5 Z M130,310.5 L117.5,310.5 L117.5,323 L130,323 L130,310.5 Z M143,310.5 L130.5,310.5 L130.5,323 L143,323 L143,310.5 Z M156,310.5 L143.5,310.5 L143.5,323 L156,323 L156,310.5 Z M169,310.5 L156.5,310.5 L156.5,323 L169,323 L169,310.5 Z M182,310.5 L169.5,310.5 L169.5,323 L182,323 L182,310.5 Z M195,310.5 L182.5,310.5 L182.5,323 L195,323 L195,310.5 Z M208,310.5 L195.5,310.5 L195.5,323 L208,323 L208,310.5 Z M221,310.5 L208.5,310.5 L208.5,323 L221,323 L221,310.5 Z M234,310.5 L221.5,310.5 L221.5,323 L234,323 L234,310.5 Z M247,310.5 L234.5,310.5 L234.5,323 L247,323 L247,310.5 Z M260,310.5 L247.5,310.5 L247.5,323 L260,323 L260,310.5 Z M273,310.5 L260.5,310.5 L260.5,323 L273,323 L273,310.5 Z M286,310.5 L273.5,310.5 L273.5,323 L286,323 L286,310.5 Z M299,310.5 L286.5,310.5 L286.5,323 L299,323 L299,310.5 Z M312,310.5 L299.5,310.5 L299.5,323 L312,323 L312,310.5 Z M325,310.5 L312.5,310.5 L312.5,323 L325,323 L325,310.5 Z M338,310.5 L325.5,310.5 L325.5,323 L338,323 L338,310.5 Z M351,310.5 L338.5,310.5 L338.5,323 L351,323 L351,310.5 Z M364,310.5 L351.5,310.5 L351.5,323 L364,323 L364,310.5 Z M377,310.5 L364.5,310.5 L364.5,323 L377,323 L377,310.5 Z M390,310.5 L377.5,310.5 L377.5,323 L390,323 L390,310.5 Z M26,297.5 L13.5,297.5 L13.5,310 L26,310 L26,297.5 Z M39,297.5 L26.5,297.5 L26.5,310 L39,310 L39,297.5 Z M52,297.5 L39.5,297.5 L39.5,310 L52,310 L52,297.5 Z M65,297.5 L52.5,297.5 L52.5,310 L65,310 L65,297.5 Z M78,297.5 L65.5,297.5 L65.5,310 L78,310 L78,297.5 Z M91,297.5 L78.5,297.5 L78.5,310 L91,310 L91,297.5 Z M104,297.5 L91.5,297.5 L91.5,310 L104,310 L104,297.5 Z M117,297.5 L104.5,297.5 L104.5,310 L117,310 L117,297.5 Z M130,297.5 L117.5,297.5 L117.5,310 L130,310 L130,297.5 Z M143,297.5 L130.5,297.5 L130.5,310 L143,310 L143,297.5 Z M156,297.5 L143.5,297.5 L143.5,310 L156,310 L156,297.5 Z M169,297.5 L156.5,297.5 L156.5,310 L169,310 L169,297.5 Z M182,297.5 L169.5,297.5 L169.5,310 L182,310 L182,297.5 Z M195,297.5 L182.5,297.5 L182.5,310 L195,310 L195,297.5 Z M208,297.5 L195.5,297.5 L195.5,310 L208,310 L208,297.5 Z M221,297.5 L208.5,297.5 L208.5,310 L221,310 L221,297.5 Z M234,297.5 L221.5,297.5 L221.5,310 L234,310 L234,297.5 Z M247,297.5 L234.5,297.5 L234.5,310 L247,310 L247,297.5 Z M260,297.5 L247.5,297.5 L247.5,310 L260,310 L260,297.5 Z M273,297.5 L260.5,297.5 L260.5,310 L273,310 L273,297.5 Z M286,297.5 L273.5,297.5 L273.5,310 L286,310 L286,297.5 Z M299,297.5 L286.5,297.5 L286.5,310 L299,310 L299,297.5 Z M312,297.5 L299.5,297.5 L299.5,310 L312,310 L312,297.5 Z M325,297.5 L312.5,297.5 L312.5,310 L325,310 L325,297.5 Z M338,297.5 L325.5,297.5 L325.5,310 L338,310 L338,297.5 Z M351,297.5 L338.5,297.5 L338.5,310 L351,310 L351,297.5 Z M364,297.5 L351.5,297.5 L351.5,310 L364,310 L364,297.5 Z M377,297.5 L364.5,297.5 L364.5,310 L377,310 L377,297.5 Z M390,297.5 L377.5,297.5 L377.5,310 L390,310 L390,297.5 Z M13,297.5 L0.5,297.5 L0.5,310 L13,310 L13,297.5 Z M13,284.5 L0.5,284.5 L0.5,297 L13,297 L13,284.5 Z M26,284.5 L13.5,284.5 L13.5,297 L26,297 L26,284.5 Z M65,284.5 L52.5,284.5 L52.5,297 L65,297 L65,284.5 Z M78,284.5 L65.5,284.5 L65.5,297 L78,297 L78,284.5 Z M91,284.5 L78.5,284.5 L78.5,297 L91,297 L91,284.5 Z M104,284.5 L91.5,284.5 L91.5,297 L104,297 L104,284.5 Z M117,284.5 L104.5,284.5 L104.5,297 L117,297 L117,284.5 Z M130,284.5 L117.5,284.5 L117.5,297 L130,297 L130,284.5 Z M143,284.5 L130.5,284.5 L130.5,297 L143,297 L143,284.5 Z M156,284.5 L143.5,284.5 L143.5,297 L156,297 L156,284.5 Z M169,284.5 L156.5,284.5 L156.5,297 L169,297 L169,284.5 Z M182,284.5 L169.5,284.5 L169.5,297 L182,297 L182,284.5 Z M195,284.5 L182.5,284.5 L182.5,297 L195,297 L195,284.5 Z M208,284.5 L195.5,284.5 L195.5,297 L208,297 L208,284.5 Z M221,284.5 L208.5,284.5 L208.5,297 L221,297 L221,284.5 Z M234,284.5 L221.5,284.5 L221.5,297 L234,297 L234,284.5 Z M247,284.5 L234.5,284.5 L234.5,297 L247,297 L247,284.5 Z M260,284.5 L247.5,284.5 L247.5,297 L260,297 L260,284.5 Z M273,284.5 L260.5,284.5 L260.5,297 L273,297 L273,284.5 Z M286,284.5 L273.5,284.5 L273.5,297 L286,297 L286,284.5 Z M299,284.5 L286.5,284.5 L286.5,297 L299,297 L299,284.5 Z M312,284.5 L299.5,284.5 L299.5,297 L312,297 L312,284.5 Z M325,284.5 L312.5,284.5 L312.5,297 L325,297 L325,284.5 Z M338,284.5 L325.5,284.5 L325.5,297 L338,297 L338,284.5 Z M351,284.5 L338.5,284.5 L338.5,297 L351,297 L351,284.5 Z M364,284.5 L351.5,284.5 L351.5,297 L364,297 L364,284.5 Z M377,284.5 L364.5,284.5 L364.5,297 L377,297 L377,284.5 Z M390,284.5 L377.5,284.5 L377.5,297 L390,297 L390,284.5 Z M39,284.5 L26.5,284.5 L26.5,297 L39,297 L39,284.5 Z M52,284.5 L39.5,284.5 L39.5,297 L52,297 L52,284.5 Z M208,271.5 L195.5,271.5 L195.5,284 L208,284 L208,271.5 Z M65,271.5 L52.5,271.5 L52.5,284 L65,284 L65,271.5 Z M78,271.5 L65.5,271.5 L65.5,284 L78,284 L78,271.5 Z M91,271.5 L78.5,271.5 L78.5,284 L91,284 L91,271.5 Z M104,271.5 L91.5,271.5 L91.5,284 L104,284 L104,271.5 Z M117,271.5 L104.5,271.5 L104.5,284 L117,284 L117,271.5 Z M130,271.5 L117.5,271.5 L117.5,284 L130,284 L130,271.5 Z M143,271.5 L130.5,271.5 L130.5,284 L143,284 L143,271.5 Z M156,271.5 L143.5,271.5 L143.5,284 L156,284 L156,271.5 Z M169,271.5 L156.5,271.5 L156.5,284 L169,284 L169,271.5 Z M182,271.5 L169.5,271.5 L169.5,284 L182,284 L182,271.5 Z M195,271.5 L182.5,271.5 L182.5,284 L195,284 L195,271.5 Z M39,271.5 L26.5,271.5 L26.5,284 L39,284 L39,271.5 Z M26,271.5 L13.5,271.5 L13.5,284 L26,284 L26,271.5 Z M234,271.5 L221.5,271.5 L221.5,284 L234,284 L234,271.5 Z M247,271.5 L234.5,271.5 L234.5,284 L247,284 L247,271.5 Z M260,271.5 L247.5,271.5 L247.5,284 L260,284 L260,271.5 Z M273,271.5 L260.5,271.5 L260.5,284 L273,284 L273,271.5 Z M286,271.5 L273.5,271.5 L273.5,284 L286,284 L286,271.5 Z M299,271.5 L286.5,271.5 L286.5,284 L299,284 L299,271.5 Z M312,271.5 L299.5,271.5 L299.5,284 L312,284 L312,271.5 Z M325,271.5 L312.5,271.5 L312.5,284 L325,284 L325,271.5 Z M338,271.5 L325.5,271.5 L325.5,284 L338,284 L338,271.5 Z M351,271.5 L338.5,271.5 L338.5,284 L351,284 L351,271.5 Z M364,271.5 L351.5,271.5 L351.5,284 L364,284 L364,271.5 Z M377,271.5 L364.5,271.5 L364.5,284 L377,284 L377,271.5 Z M390,271.5 L377.5,271.5 L377.5,284 L390,284 L390,271.5 Z M13,271.5 L0.5,271.5 L0.5,284 L13,284 L13,271.5 Z M221,271.5 L208.5,271.5 L208.5,284 L221,284 L221,271.5 Z M52,271.5 L39.5,271.5 L39.5,284 L52,284 L52,271.5 Z M260,258.5 L247.5,258.5 L247.5,271 L260,271 L260,258.5 Z M78,258.5 L65.5,258.5 L65.5,271 L78,271 L78,258.5 Z M91,258.5 L78.5,258.5 L78.5,271 L91,271 L91,258.5 Z M104,258.5 L91.5,258.5 L91.5,271 L104,271 L104,258.5 Z M117,258.5 L104.5,258.5 L104.5,271 L117,271 L117,258.5 Z M130,258.5 L117.5,258.5 L117.5,271 L130,271 L130,258.5 Z M143,258.5 L130.5,258.5 L130.5,271 L143,271 L143,258.5 Z M156,258.5 L143.5,258.5 L143.5,271 L156,271 L156,258.5 Z M169,258.5 L156.5,258.5 L156.5,271 L169,271 L169,258.5 Z M182,258.5 L169.5,258.5 L169.5,271 L182,271 L182,258.5 Z M195,258.5 L182.5,258.5 L182.5,271 L195,271 L195,258.5 Z M39,258.5 L26.5,258.5 L26.5,271 L39,271 L39,258.5 Z M26,258.5 L13.5,258.5 L13.5,271 L26,271 L26,258.5 Z M234,258.5 L221.5,258.5 L221.5,271 L234,271 L234,258.5 Z M208,258.5 L195.5,258.5 L195.5,271 L208,271 L208,258.5 Z M247,258.5 L234.5,258.5 L234.5,271 L247,271 L247,258.5 Z M273,258.5 L260.5,258.5 L260.5,271 L273,271 L273,258.5 Z M286,258.5 L273.5,258.5 L273.5,271 L286,271 L286,258.5 Z M299,258.5 L286.5,258.5 L286.5,271 L299,271 L299,258.5 Z M312,258.5 L299.5,258.5 L299.5,271 L312,271 L312,258.5 Z M325,258.5 L312.5,258.5 L312.5,271 L325,271 L325,258.5 Z M338,258.5 L325.5,258.5 L325.5,271 L338,271 L338,258.5 Z M351,258.5 L338.5,258.5 L338.5,271 L351,271 L351,258.5 Z M364,258.5 L351.5,258.5 L351.5,271 L364,271 L364,258.5 Z M377,258.5 L364.5,258.5 L364.5,271 L377,271 L377,258.5 Z M390,258.5 L377.5,258.5 L377.5,271 L390,271 L390,258.5 Z M13,258.5 L0.5,258.5 L0.5,271 L13,271 L13,258.5 Z M221,258.5 L208.5,258.5 L208.5,271 L221,271 L221,258.5 Z M52,258.5 L39.5,258.5 L39.5,271 L52,271 L52,258.5 Z M65,258.5 L52.5,258.5 L52.5,271 L65,271 L65,258.5 Z M247,245.5 L234.5,245.5 L234.5,258 L247,258 L247,245.5 Z M91,245.5 L78.5,245.5 L78.5,258 L91,258 L91,245.5 Z M104,245.5 L91.5,245.5 L91.5,258 L104,258 L104,245.5 Z M117,245.5 L104.5,245.5 L104.5,258 L117,258 L117,245.5 Z M130,245.5 L117.5,245.5 L117.5,258 L130,258 L130,245.5 Z M143,245.5 L130.5,245.5 L130.5,258 L143,258 L143,245.5 Z M156,245.5 L143.5,245.5 L143.5,258 L156,258 L156,245.5 Z M169,245.5 L156.5,245.5 L156.5,258 L169,258 L169,245.5 Z M182,245.5 L169.5,245.5 L169.5,258 L182,258 L182,245.5 Z M195,245.5 L182.5,245.5 L182.5,258 L195,258 L195,245.5 Z M39,245.5 L26.5,245.5 L26.5,258 L39,258 L39,245.5 Z M26,245.5 L13.5,245.5 L13.5,258 L26,258 L26,245.5 Z M234,245.5 L221.5,245.5 L221.5,258 L234,258 L234,245.5 Z M208,245.5 L195.5,245.5 L195.5,258 L208,258 L208,245.5 Z M260,245.5 L247.5,245.5 L247.5,258 L260,258 L260,245.5 Z M273,245.5 L260.5,245.5 L260.5,258 L273,258 L273,245.5 Z M286,245.5 L273.5,245.5 L273.5,258 L286,258 L286,245.5 Z M299,245.5 L286.5,245.5 L286.5,258 L299,258 L299,245.5 Z M312,245.5 L299.5,245.5 L299.5,258 L312,258 L312,245.5 Z M325,245.5 L312.5,245.5 L312.5,258 L325,258 L325,245.5 Z M338,245.5 L325.5,245.5 L325.5,258 L338,258 L338,245.5 Z M351,245.5 L338.5,245.5 L338.5,258 L351,258 L351,245.5 Z M364,245.5 L351.5,245.5 L351.5,258 L364,258 L364,245.5 Z M377,245.5 L364.5,245.5 L364.5,258 L377,258 L377,245.5 Z M390,245.5 L377.5,245.5 L377.5,258 L390,258 L390,245.5 Z M13,245.5 L0.5,245.5 L0.5,258 L13,258 L13,245.5 Z M221,245.5 L208.5,245.5 L208.5,258 L221,258 L221,245.5 Z M52,245.5 L39.5,245.5 L39.5,258 L52,258 L52,245.5 Z M65,245.5 L52.5,245.5 L52.5,258 L65,258 L65,245.5 Z M78,245.5 L65.5,245.5 L65.5,258 L78,258 L78,245.5 Z M260,232.5 L247.5,232.5 L247.5,245 L260,245 L260,232.5 Z M273,232.5 L260.5,232.5 L260.5,245 L273,245 L273,232.5 Z M117,232.5 L104.5,232.5 L104.5,245 L117,245 L117,232.5 Z M130,232.5 L117.5,232.5 L117.5,245 L130,245 L130,232.5 Z M143,232.5 L130.5,232.5 L130.5,245 L143,245 L143,232.5 Z M156,232.5 L143.5,232.5 L143.5,245 L156,245 L156,232.5 Z M169,232.5 L156.5,232.5 L156.5,245 L169,245 L169,232.5 Z M182,232.5 L169.5,232.5 L169.5,245 L182,245 L182,232.5 Z M195,232.5 L182.5,232.5 L182.5,245 L195,245 L195,232.5 Z M39,232.5 L26.5,232.5 L26.5,245 L39,245 L39,232.5 Z M26,232.5 L13.5,232.5 L13.5,245 L26,245 L26,232.5 Z M234,232.5 L221.5,232.5 L221.5,245 L234,245 L234,232.5 Z M208,232.5 L195.5,232.5 L195.5,245 L208,245 L208,232.5 Z M247,232.5 L234.5,232.5 L234.5,245 L247,245 L247,232.5 Z M65,232.5 L52.5,232.5 L52.5,245 L65,245 L65,232.5 Z M286,232.5 L273.5,232.5 L273.5,245 L286,245 L286,232.5 Z M299,232.5 L286.5,232.5 L286.5,245 L299,245 L299,232.5 Z M312,232.5 L299.5,232.5 L299.5,245 L312,245 L312,232.5 Z M325,232.5 L312.5,232.5 L312.5,245 L325,245 L325,232.5 Z M338,232.5 L325.5,232.5 L325.5,245 L338,245 L338,232.5 Z M351,232.5 L338.5,232.5 L338.5,245 L351,245 L351,232.5 Z M364,232.5 L351.5,232.5 L351.5,245 L364,245 L364,232.5 Z M377,232.5 L364.5,232.5 L364.5,245 L377,245 L377,232.5 Z M390,232.5 L377.5,232.5 L377.5,245 L390,245 L390,232.5 Z M13,232.5 L0.5,232.5 L0.5,245 L13,245 L13,232.5 Z M221,232.5 L208.5,232.5 L208.5,245 L221,245 L221,232.5 Z M52,232.5 L39.5,232.5 L39.5,245 L52,245 L52,232.5 Z M78,232.5 L65.5,232.5 L65.5,245 L78,245 L78,232.5 Z M91,232.5 L78.5,232.5 L78.5,245 L91,245 L91,232.5 Z M104,232.5 L91.5,232.5 L91.5,245 L104,245 L104,232.5 Z M299,219.5 L286.5,219.5 L286.5,232 L299,232 L299,219.5 Z M117,219.5 L104.5,219.5 L104.5,232 L117,232 L117,219.5 Z M130,219.5 L117.5,219.5 L117.5,232 L130,232 L130,219.5 Z M143,219.5 L130.5,219.5 L130.5,232 L143,232 L143,219.5 Z M156,219.5 L143.5,219.5 L143.5,232 L156,232 L156,219.5 Z M169,219.5 L156.5,219.5 L156.5,232 L169,232 L169,219.5 Z M182,219.5 L169.5,219.5 L169.5,232 L182,232 L182,219.5 Z M195,219.5 L182.5,219.5 L182.5,232 L195,232 L195,219.5 Z M208,219.5 L195.5,219.5 L195.5,232 L208,232 L208,219.5 Z M221,219.5 L208.5,219.5 L208.5,232 L221,232 L221,219.5 Z M39,219.5 L26.5,219.5 L26.5,232 L39,232 L39,219.5 Z M234,219.5 L221.5,219.5 L221.5,232 L234,232 L234,219.5 Z M260,219.5 L247.5,219.5 L247.5,232 L260,232 L260,219.5 Z M273,219.5 L260.5,219.5 L260.5,232 L273,232 L273,219.5 Z M247,219.5 L234.5,219.5 L234.5,232 L247,232 L247,219.5 Z M286,219.5 L273.5,219.5 L273.5,232 L286,232 L286,219.5 Z M312,219.5 L299.5,219.5 L299.5,232 L312,232 L312,219.5 Z M325,219.5 L312.5,219.5 L312.5,232 L325,232 L325,219.5 Z M338,219.5 L325.5,219.5 L325.5,232 L338,232 L338,219.5 Z M351,219.5 L338.5,219.5 L338.5,232 L351,232 L351,219.5 Z M364,219.5 L351.5,219.5 L351.5,232 L364,232 L364,219.5 Z M377,219.5 L364.5,219.5 L364.5,232 L377,232 L377,219.5 Z M390,219.5 L377.5,219.5 L377.5,232 L390,232 L390,219.5 Z M13,219.5 L0.5,219.5 L0.5,232 L13,232 L13,219.5 Z M26,219.5 L13.5,219.5 L13.5,232 L26,232 L26,219.5 Z M52,219.5 L39.5,219.5 L39.5,232 L52,232 L52,219.5 Z M78,219.5 L65.5,219.5 L65.5,232 L78,232 L78,219.5 Z M91,219.5 L78.5,219.5 L78.5,232 L91,232 L91,219.5 Z M65,219.5 L52.5,219.5 L52.5,232 L65,232 L65,219.5 Z M104,219.5 L91.5,219.5 L91.5,232 L104,232 L104,219.5 Z M286,206.5 L273.5,206.5 L273.5,219 L286,219 L286,206.5 Z M130,206.5 L117.5,206.5 L117.5,219 L130,219 L130,206.5 Z M143,206.5 L130.5,206.5 L130.5,219 L143,219 L143,206.5 Z M156,206.5 L143.5,206.5 L143.5,219 L156,219 L156,206.5 Z M169,206.5 L156.5,206.5 L156.5,219 L169,219 L169,206.5 Z M182,206.5 L169.5,206.5 L169.5,219 L182,219 L182,206.5 Z M195,206.5 L182.5,206.5 L182.5,219 L195,219 L195,206.5 Z M208,206.5 L195.5,206.5 L195.5,219 L208,219 L208,206.5 Z M221,206.5 L208.5,206.5 L208.5,219 L221,219 L221,206.5 Z M39,206.5 L26.5,206.5 L26.5,219 L39,219 L39,206.5 Z M78,206.5 L65.5,206.5 L65.5,219 L78,219 L78,206.5 Z M234,206.5 L221.5,206.5 L221.5,219 L234,219 L234,206.5 Z M273,206.5 L260.5,206.5 L260.5,219 L273,219 L273,206.5 Z M91,206.5 L78.5,206.5 L78.5,219 L91,219 L91,206.5 Z M299,206.5 L286.5,206.5 L286.5,219 L299,219 L299,206.5 Z M312,206.5 L299.5,206.5 L299.5,219 L312,219 L312,206.5 Z M325,206.5 L312.5,206.5 L312.5,219 L325,219 L325,206.5 Z M338,206.5 L325.5,206.5 L325.5,219 L338,219 L338,206.5 Z M351,206.5 L338.5,206.5 L338.5,219 L351,219 L351,206.5 Z M364,206.5 L351.5,206.5 L351.5,219 L364,219 L364,206.5 Z M377,206.5 L364.5,206.5 L364.5,219 L377,219 L377,206.5 Z M390,206.5 L377.5,206.5 L377.5,219 L390,219 L390,206.5 Z M13,206.5 L0.5,206.5 L0.5,219 L13,219 L13,206.5 Z M26,206.5 L13.5,206.5 L13.5,219 L26,219 L26,206.5 Z M52,206.5 L39.5,206.5 L39.5,219 L52,219 L52,206.5 Z M65,206.5 L52.5,206.5 L52.5,219 L65,219 L65,206.5 Z M260,206.5 L247.5,206.5 L247.5,219 L260,219 L260,206.5 Z M247,206.5 L234.5,206.5 L234.5,219 L247,219 L247,206.5 Z M104,206.5 L91.5,206.5 L91.5,219 L104,219 L104,206.5 Z M117,206.5 L104.5,206.5 L104.5,219 L117,219 L117,206.5 Z M247,193.5 L234.5,193.5 L234.5,206 L247,206 L247,193.5 Z M130,193.5 L117.5,193.5 L117.5,206 L130,206 L130,193.5 Z M143,193.5 L130.5,193.5 L130.5,206 L143,206 L143,193.5 Z M156,193.5 L143.5,193.5 L143.5,206 L156,206 L156,193.5 Z M169,193.5 L156.5,193.5 L156.5,206 L169,206 L169,193.5 Z M182,193.5 L169.5,193.5 L169.5,206 L182,206 L182,193.5 Z M195,193.5 L182.5,193.5 L182.5,206 L195,206 L195,193.5 Z M208,193.5 L195.5,193.5 L195.5,206 L208,206 L208,193.5 Z M221,193.5 L208.5,193.5 L208.5,206 L221,206 L221,193.5 Z M39,193.5 L26.5,193.5 L26.5,206 L39,206 L39,193.5 Z M78,193.5 L65.5,193.5 L65.5,206 L78,206 L78,193.5 Z M52,193.5 L39.5,193.5 L39.5,206 L52,206 L52,193.5 Z M273,193.5 L260.5,193.5 L260.5,206 L273,206 L273,193.5 Z M104,193.5 L91.5,193.5 L91.5,206 L104,206 L104,193.5 Z M117,193.5 L104.5,193.5 L104.5,206 L117,206 L117,193.5 Z M286,193.5 L273.5,193.5 L273.5,206 L286,206 L286,193.5 Z M325,193.5 L312.5,193.5 L312.5,206 L325,206 L325,193.5 Z M338,193.5 L325.5,193.5 L325.5,206 L338,206 L338,193.5 Z M351,193.5 L338.5,193.5 L338.5,206 L351,206 L351,193.5 Z M364,193.5 L351.5,193.5 L351.5,206 L364,206 L364,193.5 Z M377,193.5 L364.5,193.5 L364.5,206 L377,206 L377,193.5 Z M390,193.5 L377.5,193.5 L377.5,206 L390,206 L390,193.5 Z M13,193.5 L0.5,193.5 L0.5,206 L13,206 L13,193.5 Z M26,193.5 L13.5,193.5 L13.5,206 L26,206 L26,193.5 Z M65,193.5 L52.5,193.5 L52.5,206 L65,206 L65,193.5 Z M234,193.5 L221.5,193.5 L221.5,206 L234,206 L234,193.5 Z M260,193.5 L247.5,193.5 L247.5,206 L260,206 L260,193.5 Z M91,193.5 L78.5,193.5 L78.5,206 L91,206 L91,193.5 Z M299,193.5 L286.5,193.5 L286.5,206 L299,206 L299,193.5 Z M312,193.5 L299.5,193.5 L299.5,206 L312,206 L312,193.5 Z M273,180.5 L260.5,180.5 L260.5,193 L273,193 L273,180.5 Z M130,180.5 L117.5,180.5 L117.5,193 L130,193 L130,180.5 Z M143,180.5 L130.5,180.5 L130.5,193 L143,193 L143,180.5 Z M156,180.5 L143.5,180.5 L143.5,193 L156,193 L156,180.5 Z M169,180.5 L156.5,180.5 L156.5,193 L169,193 L169,180.5 Z M182,180.5 L169.5,180.5 L169.5,193 L182,193 L182,180.5 Z M195,180.5 L182.5,180.5 L182.5,193 L195,193 L195,180.5 Z M13,180.5 L0.5,180.5 L0.5,193 L13,193 L13,180.5 Z M221,180.5 L208.5,180.5 L208.5,193 L221,193 L221,180.5 Z M39,180.5 L26.5,180.5 L26.5,193 L39,193 L39,180.5 Z M247,180.5 L234.5,180.5 L234.5,193 L247,193 L247,180.5 Z M260,180.5 L247.5,180.5 L247.5,193 L260,193 L260,180.5 Z M91,180.5 L78.5,180.5 L78.5,193 L91,193 L91,180.5 Z M78,180.5 L65.5,180.5 L65.5,193 L78,193 L78,180.5 Z M299,180.5 L286.5,180.5 L286.5,193 L299,193 L299,180.5 Z M312,180.5 L299.5,180.5 L299.5,193 L312,193 L312,180.5 Z M325,180.5 L312.5,180.5 L312.5,193 L325,193 L325,180.5 Z M338,180.5 L325.5,180.5 L325.5,193 L338,193 L338,180.5 Z M351,180.5 L338.5,180.5 L338.5,193 L351,193 L351,180.5 Z M364,180.5 L351.5,180.5 L351.5,193 L364,193 L364,180.5 Z M377,180.5 L364.5,180.5 L364.5,193 L377,193 L377,180.5 Z M390,180.5 L377.5,180.5 L377.5,193 L390,193 L390,180.5 Z M26,180.5 L13.5,180.5 L13.5,193 L26,193 L26,180.5 Z M208,180.5 L195.5,180.5 L195.5,193 L208,193 L208,180.5 Z M65,180.5 L52.5,180.5 L52.5,193 L65,193 L65,180.5 Z M234,180.5 L221.5,180.5 L221.5,193 L234,193 L234,180.5 Z M52,180.5 L39.5,180.5 L39.5,193 L52,193 L52,180.5 Z M286,180.5 L273.5,180.5 L273.5,193 L286,193 L286,180.5 Z M104,180.5 L91.5,180.5 L91.5,193 L104,193 L104,180.5 Z M117,180.5 L104.5,180.5 L104.5,193 L117,193 L117,180.5 Z M325,167.5 L312.5,167.5 L312.5,180 L325,180 L325,167.5 Z M143,167.5 L130.5,167.5 L130.5,180 L143,180 L143,167.5 Z M156,167.5 L143.5,167.5 L143.5,180 L156,180 L156,167.5 Z M169,167.5 L156.5,167.5 L156.5,180 L169,180 L169,167.5 Z M182,167.5 L169.5,167.5 L169.5,180 L182,180 L182,167.5 Z M195,167.5 L182.5,167.5 L182.5,180 L195,180 L195,167.5 Z M13,167.5 L0.5,167.5 L0.5,180 L13,180 L13,167.5 Z M221,167.5 L208.5,167.5 L208.5,180 L221,180 L221,167.5 Z M65,167.5 L52.5,167.5 L52.5,180 L65,180 L65,167.5 Z M208,167.5 L195.5,167.5 L195.5,180 L208,180 L208,167.5 Z M260,167.5 L247.5,167.5 L247.5,180 L260,180 L260,167.5 Z M273,167.5 L260.5,167.5 L260.5,180 L273,180 L273,167.5 Z M286,167.5 L273.5,167.5 L273.5,180 L286,180 L286,167.5 Z M299,167.5 L286.5,167.5 L286.5,180 L299,180 L299,167.5 Z M247,167.5 L234.5,167.5 L234.5,180 L247,180 L247,167.5 Z M312,167.5 L299.5,167.5 L299.5,180 L312,180 L312,167.5 Z M338,167.5 L325.5,167.5 L325.5,180 L338,180 L338,167.5 Z M351,167.5 L338.5,167.5 L338.5,180 L351,180 L351,167.5 Z M364,167.5 L351.5,167.5 L351.5,180 L364,180 L364,167.5 Z M377,167.5 L364.5,167.5 L364.5,180 L377,180 L377,167.5 Z M390,167.5 L377.5,167.5 L377.5,180 L390,180 L390,167.5 Z M26,167.5 L13.5,167.5 L13.5,180 L26,180 L26,167.5 Z M39,167.5 L26.5,167.5 L26.5,180 L39,180 L39,167.5 Z M52,167.5 L39.5,167.5 L39.5,180 L52,180 L52,167.5 Z M78,167.5 L65.5,167.5 L65.5,180 L78,180 L78,167.5 Z M234,167.5 L221.5,167.5 L221.5,180 L234,180 L234,167.5 Z M91,167.5 L78.5,167.5 L78.5,180 L91,180 L91,167.5 Z M104,167.5 L91.5,167.5 L91.5,180 L104,180 L104,167.5 Z M117,167.5 L104.5,167.5 L104.5,180 L117,180 L117,167.5 Z M130,167.5 L117.5,167.5 L117.5,180 L130,180 L130,167.5 Z M312,154.5 L299.5,154.5 L299.5,167 L312,167 L312,154.5 Z M156,154.5 L143.5,154.5 L143.5,167 L156,167 L156,154.5 Z M169,154.5 L156.5,154.5 L156.5,167 L169,167 L169,154.5 Z M182,154.5 L169.5,154.5 L169.5,167 L182,167 L182,154.5 Z M195,154.5 L182.5,154.5 L182.5,167 L195,167 L195,154.5 Z M13,154.5 L0.5,154.5 L0.5,167 L13,167 L13,154.5 Z M221,154.5 L208.5,154.5 L208.5,167 L221,167 L221,154.5 Z M65,154.5 L52.5,154.5 L52.5,167 L65,167 L65,154.5 Z M39,154.5 L26.5,154.5 L26.5,167 L39,167 L39,154.5 Z M260,154.5 L247.5,154.5 L247.5,167 L260,167 L260,154.5 Z M273,154.5 L260.5,154.5 L260.5,167 L273,167 L273,154.5 Z M286,154.5 L273.5,154.5 L273.5,167 L286,167 L286,154.5 Z M299,154.5 L286.5,154.5 L286.5,167 L299,167 L299,154.5 Z M234,154.5 L221.5,154.5 L221.5,167 L234,167 L234,154.5 Z M325,154.5 L312.5,154.5 L312.5,167 L325,167 L325,154.5 Z M338,154.5 L325.5,154.5 L325.5,167 L338,167 L338,154.5 Z M351,154.5 L338.5,154.5 L338.5,167 L351,167 L351,154.5 Z M364,154.5 L351.5,154.5 L351.5,167 L364,167 L364,154.5 Z M377,154.5 L364.5,154.5 L364.5,167 L377,167 L377,154.5 Z M390,154.5 L377.5,154.5 L377.5,167 L390,167 L390,154.5 Z M26,154.5 L13.5,154.5 L13.5,167 L26,167 L26,154.5 Z M52,154.5 L39.5,154.5 L39.5,167 L52,167 L52,154.5 Z M208,154.5 L195.5,154.5 L195.5,167 L208,167 L208,154.5 Z M78,154.5 L65.5,154.5 L65.5,167 L78,167 L78,154.5 Z M247,154.5 L234.5,154.5 L234.5,167 L247,167 L247,154.5 Z M91,154.5 L78.5,154.5 L78.5,167 L91,167 L91,154.5 Z M104,154.5 L91.5,154.5 L91.5,167 L104,167 L104,154.5 Z M117,154.5 L104.5,154.5 L104.5,167 L117,167 L117,154.5 Z M130,154.5 L117.5,154.5 L117.5,167 L130,167 L130,154.5 Z M143,154.5 L130.5,154.5 L130.5,167 L143,167 L143,154.5 Z M312,141.5 L299.5,141.5 L299.5,154 L312,154 L312,141.5 Z M156,141.5 L143.5,141.5 L143.5,154 L156,154 L156,141.5 Z M169,141.5 L156.5,141.5 L156.5,154 L169,154 L169,141.5 Z M182,141.5 L169.5,141.5 L169.5,154 L182,154 L182,141.5 Z M195,141.5 L182.5,141.5 L182.5,154 L195,154 L195,141.5 Z M13,141.5 L0.5,141.5 L0.5,154 L13,154 L13,141.5 Z M221,141.5 L208.5,141.5 L208.5,154 L221,154 L221,141.5 Z M234,141.5 L221.5,141.5 L221.5,154 L234,154 L234,141.5 Z M247,141.5 L234.5,141.5 L234.5,154 L247,154 L247,141.5 Z M260,141.5 L247.5,141.5 L247.5,154 L260,154 L260,141.5 Z M91,141.5 L78.5,141.5 L78.5,154 L91,154 L91,141.5 Z M65,141.5 L52.5,141.5 L52.5,154 L65,154 L65,141.5 Z M299,141.5 L286.5,141.5 L286.5,154 L299,154 L299,141.5 Z M143,141.5 L130.5,141.5 L130.5,154 L143,154 L143,141.5 Z M117,141.5 L104.5,141.5 L104.5,154 L117,154 L117,141.5 Z M338,141.5 L325.5,141.5 L325.5,154 L338,154 L338,141.5 Z M351,141.5 L338.5,141.5 L338.5,154 L351,154 L351,141.5 Z M364,141.5 L351.5,141.5 L351.5,154 L364,154 L364,141.5 Z M377,141.5 L364.5,141.5 L364.5,154 L377,154 L377,141.5 Z M390,141.5 L377.5,141.5 L377.5,154 L390,154 L390,141.5 Z M26,141.5 L13.5,141.5 L13.5,154 L26,154 L26,141.5 Z M52,141.5 L39.5,141.5 L39.5,154 L52,154 L52,141.5 Z M208,141.5 L195.5,141.5 L195.5,154 L208,154 L208,141.5 Z M39,141.5 L26.5,141.5 L26.5,154 L39,154 L39,141.5 Z M78,141.5 L65.5,141.5 L65.5,154 L78,154 L78,141.5 Z M286,141.5 L273.5,141.5 L273.5,154 L286,154 L286,141.5 Z M104,141.5 L91.5,141.5 L91.5,154 L104,154 L104,141.5 Z M130,141.5 L117.5,141.5 L117.5,154 L130,154 L130,141.5 Z M273,141.5 L260.5,141.5 L260.5,154 L273,154 L273,141.5 Z M325,141.5 L312.5,141.5 L312.5,154 L325,154 L325,141.5 Z M312,128.5 L299.5,128.5 L299.5,141 L312,141 L312,128.5 Z M156,128.5 L143.5,128.5 L143.5,141 L156,141 L156,128.5 Z M169,128.5 L156.5,128.5 L156.5,141 L169,141 L169,128.5 Z M182,128.5 L169.5,128.5 L169.5,141 L182,141 L182,128.5 Z M195,128.5 L182.5,128.5 L182.5,141 L195,141 L195,128.5 Z M208,128.5 L195.5,128.5 L195.5,141 L208,141 L208,128.5 Z M52,128.5 L39.5,128.5 L39.5,141 L52,141 L52,128.5 Z M26,128.5 L13.5,128.5 L13.5,141 L26,141 L26,128.5 Z M247,128.5 L234.5,128.5 L234.5,141 L247,141 L247,128.5 Z M78,128.5 L65.5,128.5 L65.5,141 L78,141 L78,128.5 Z M91,128.5 L78.5,128.5 L78.5,141 L91,141 L91,128.5 Z M260,128.5 L247.5,128.5 L247.5,141 L260,141 L260,128.5 Z M130,128.5 L117.5,128.5 L117.5,141 L130,141 L130,128.5 Z M104,128.5 L91.5,128.5 L91.5,141 L104,141 L104,128.5 Z M325,128.5 L312.5,128.5 L312.5,141 L325,141 L325,128.5 Z M338,128.5 L325.5,128.5 L325.5,141 L338,141 L338,128.5 Z M351,128.5 L338.5,128.5 L338.5,141 L351,141 L351,128.5 Z M364,128.5 L351.5,128.5 L351.5,141 L364,141 L364,128.5 Z M377,128.5 L364.5,128.5 L364.5,141 L377,141 L377,128.5 Z M390,128.5 L377.5,128.5 L377.5,141 L390,141 L390,128.5 Z M13,128.5 L0.5,128.5 L0.5,141 L13,141 L13,128.5 Z M39,128.5 L26.5,128.5 L26.5,141 L39,141 L39,128.5 Z M234,128.5 L221.5,128.5 L221.5,141 L234,141 L234,128.5 Z M221,128.5 L208.5,128.5 L208.5,141 L221,141 L221,128.5 Z M273,128.5 L260.5,128.5 L260.5,141 L273,141 L273,128.5 Z M286,128.5 L273.5,128.5 L273.5,141 L286,141 L286,128.5 Z M117,128.5 L104.5,128.5 L104.5,141 L117,141 L117,128.5 Z M299,128.5 L286.5,128.5 L286.5,141 L299,141 L299,128.5 Z M143,128.5 L130.5,128.5 L130.5,141 L143,141 L143,128.5 Z M65,128.5 L52.5,128.5 L52.5,141 L65,141 L65,128.5 Z M156,115.5 L143.5,115.5 L143.5,128 L156,128 L156,115.5 Z M169,115.5 L156.5,115.5 L156.5,128 L169,128 L169,115.5 Z M182,115.5 L169.5,115.5 L169.5,128 L182,128 L182,115.5 Z M195,115.5 L182.5,115.5 L182.5,128 L195,128 L195,115.5 Z M208,115.5 L195.5,115.5 L195.5,128 L208,128 L208,115.5 Z M26,115.5 L13.5,115.5 L13.5,128 L26,128 L26,115.5 Z M13,115.5 L0.5,115.5 L0.5,128 L13,128 L13,115.5 Z M247,115.5 L234.5,115.5 L234.5,128 L247,128 L247,115.5 Z M78,115.5 L65.5,115.5 L65.5,128 L78,128 L78,115.5 Z M221,115.5 L208.5,115.5 L208.5,128 L221,128 L221,115.5 Z M260,115.5 L247.5,115.5 L247.5,128 L260,128 L260,115.5 Z M286,115.5 L273.5,115.5 L273.5,128 L286,128 L286,115.5 Z M143,115.5 L130.5,115.5 L130.5,128 L143,128 L143,115.5 Z M117,115.5 L104.5,115.5 L104.5,128 L117,128 L117,115.5 Z M338,115.5 L325.5,115.5 L325.5,128 L338,128 L338,115.5 Z M351,115.5 L338.5,115.5 L338.5,128 L351,128 L351,115.5 Z M364,115.5 L351.5,115.5 L351.5,128 L364,128 L364,115.5 Z M377,115.5 L364.5,115.5 L364.5,128 L377,128 L377,115.5 Z M390,115.5 L377.5,115.5 L377.5,128 L390,128 L390,115.5 Z M39,115.5 L26.5,115.5 L26.5,128 L39,128 L39,115.5 Z M52,115.5 L39.5,115.5 L39.5,128 L52,128 L52,115.5 Z M234,115.5 L221.5,115.5 L221.5,128 L234,128 L234,115.5 Z M65,115.5 L52.5,115.5 L52.5,128 L65,128 L65,115.5 Z M273,115.5 L260.5,115.5 L260.5,128 L273,128 L273,115.5 Z M91,115.5 L78.5,115.5 L78.5,128 L91,128 L91,115.5 Z M104,115.5 L91.5,115.5 L91.5,128 L104,128 L104,115.5 Z M130,115.5 L117.5,115.5 L117.5,128 L130,128 L130,115.5 Z M299,115.5 L286.5,115.5 L286.5,128 L299,128 L299,115.5 Z M325,115.5 L312.5,115.5 L312.5,128 L325,128 L325,115.5 Z M312,115.5 L299.5,115.5 L299.5,128 L312,128 L312,115.5 Z M156,102.5 L143.5,102.5 L143.5,115 L156,115 L156,102.5 Z M169,102.5 L156.5,102.5 L156.5,115 L169,115 L169,102.5 Z M182,102.5 L169.5,102.5 L169.5,115 L182,115 L182,102.5 Z M195,102.5 L182.5,102.5 L182.5,115 L195,115 L195,102.5 Z M208,102.5 L195.5,102.5 L195.5,115 L208,115 L208,102.5 Z M221,102.5 L208.5,102.5 L208.5,115 L221,115 L221,102.5 Z M234,102.5 L221.5,102.5 L221.5,115 L234,115 L234,102.5 Z M247,102.5 L234.5,102.5 L234.5,115 L247,115 L247,102.5 Z M260,102.5 L247.5,102.5 L247.5,115 L260,115 L260,102.5 Z M13,102.5 L0.5,102.5 L0.5,115 L13,115 L13,102.5 Z M273,102.5 L260.5,102.5 L260.5,115 L273,115 L273,102.5 Z M299,102.5 L286.5,102.5 L286.5,115 L299,115 L299,102.5 Z M143,102.5 L130.5,102.5 L130.5,115 L143,115 L143,102.5 Z M117,102.5 L104.5,102.5 L104.5,115 L117,115 L117,102.5 Z M338,102.5 L325.5,102.5 L325.5,115 L338,115 L338,102.5 Z M351,102.5 L338.5,102.5 L338.5,115 L351,115 L351,102.5 Z M364,102.5 L351.5,102.5 L351.5,115 L364,115 L364,102.5 Z M377,102.5 L364.5,102.5 L364.5,115 L377,115 L377,102.5 Z M390,102.5 L377.5,102.5 L377.5,115 L390,115 L390,102.5 Z M39,102.5 L26.5,102.5 L26.5,115 L39,115 L39,102.5 Z M52,102.5 L39.5,102.5 L39.5,115 L52,115 L52,102.5 Z M26,102.5 L13.5,102.5 L13.5,115 L26,115 L26,102.5 Z M65,102.5 L52.5,102.5 L52.5,115 L65,115 L65,102.5 Z M78,102.5 L65.5,102.5 L65.5,115 L78,115 L78,102.5 Z M91,102.5 L78.5,102.5 L78.5,115 L91,115 L91,102.5 Z M104,102.5 L91.5,102.5 L91.5,115 L104,115 L104,102.5 Z M130,102.5 L117.5,102.5 L117.5,115 L130,115 L130,102.5 Z M286,102.5 L273.5,102.5 L273.5,115 L286,115 L286,102.5 Z M325,102.5 L312.5,102.5 L312.5,115 L325,115 L325,102.5 Z M312,102.5 L299.5,102.5 L299.5,115 L312,115 L312,102.5 Z M143,89.5 L130.5,89.5 L130.5,102 L143,102 L143,89.5 Z M195,89.5 L182.5,89.5 L182.5,102 L195,102 L195,89.5 Z M39,89.5 L26.5,89.5 L26.5,102 L39,102 L39,89.5 Z M26,89.5 L13.5,89.5 L13.5,102 L26,102 L26,89.5 Z M234,89.5 L221.5,89.5 L221.5,102 L234,102 L234,89.5 Z M247,89.5 L234.5,89.5 L234.5,102 L247,102 L247,89.5 Z M208,89.5 L195.5,89.5 L195.5,102 L208,102 L208,89.5 Z M260,89.5 L247.5,89.5 L247.5,102 L260,102 L260,89.5 Z M286,89.5 L273.5,89.5 L273.5,102 L286,102 L286,89.5 Z M130,89.5 L117.5,89.5 L117.5,102 L130,102 L130,89.5 Z M104,89.5 L91.5,89.5 L91.5,102 L104,102 L104,89.5 Z M325,89.5 L312.5,89.5 L312.5,102 L325,102 L325,89.5 Z M338,89.5 L325.5,89.5 L325.5,102 L338,102 L338,89.5 Z M351,89.5 L338.5,89.5 L338.5,102 L351,102 L351,89.5 Z M364,89.5 L351.5,89.5 L351.5,102 L364,102 L364,89.5 Z M377,89.5 L364.5,89.5 L364.5,102 L377,102 L377,89.5 Z M390,89.5 L377.5,89.5 L377.5,102 L390,102 L390,89.5 Z M13,89.5 L0.5,89.5 L0.5,102 L13,102 L13,89.5 Z M221,89.5 L208.5,89.5 L208.5,102 L221,102 L221,89.5 Z M52,89.5 L39.5,89.5 L39.5,102 L52,102 L52,89.5 Z M65,89.5 L52.5,89.5 L52.5,102 L65,102 L65,89.5 Z M78,89.5 L65.5,89.5 L65.5,102 L78,102 L78,89.5 Z M91,89.5 L78.5,89.5 L78.5,102 L91,102 L91,89.5 Z M117,89.5 L104.5,89.5 L104.5,102 L117,102 L117,89.5 Z M273,89.5 L260.5,89.5 L260.5,102 L273,102 L273,89.5 Z M312,89.5 L299.5,89.5 L299.5,102 L312,102 L312,89.5 Z M299,89.5 L286.5,89.5 L286.5,102 L299,102 L299,89.5 Z M156,89.5 L143.5,89.5 L143.5,102 L156,102 L156,89.5 Z M169,89.5 L156.5,89.5 L156.5,102 L169,102 L169,89.5 Z M182,89.5 L169.5,89.5 L169.5,102 L182,102 L182,89.5 Z M299,76.5 L286.5,76.5 L286.5,89 L299,89 L299,76.5 Z M169,76.5 L156.5,76.5 L156.5,89 L169,89 L169,76.5 Z M182,76.5 L169.5,76.5 L169.5,89 L182,89 L182,76.5 Z M195,76.5 L182.5,76.5 L182.5,89 L195,89 L195,76.5 Z M39,76.5 L26.5,76.5 L26.5,89 L39,89 L39,76.5 Z M26,76.5 L13.5,76.5 L13.5,89 L26,89 L26,76.5 Z M234,76.5 L221.5,76.5 L221.5,89 L234,89 L234,76.5 Z M208,76.5 L195.5,76.5 L195.5,89 L208,89 L208,76.5 Z M247,76.5 L234.5,76.5 L234.5,89 L247,89 L247,76.5 Z M273,76.5 L260.5,76.5 L260.5,89 L273,89 L273,76.5 Z M260,76.5 L247.5,76.5 L247.5,89 L260,89 L260,76.5 Z M91,76.5 L78.5,76.5 L78.5,89 L91,89 L91,76.5 Z M312,76.5 L299.5,76.5 L299.5,89 L312,89 L312,76.5 Z M143,76.5 L130.5,76.5 L130.5,89 L143,89 L143,76.5 Z M156,76.5 L143.5,76.5 L143.5,89 L156,89 L156,76.5 Z M325,76.5 L312.5,76.5 L312.5,89 L325,89 L325,76.5 Z M364,76.5 L351.5,76.5 L351.5,89 L364,89 L364,76.5 Z M377,76.5 L364.5,76.5 L364.5,89 L377,89 L377,76.5 Z M390,76.5 L377.5,76.5 L377.5,89 L390,89 L390,76.5 Z M13,76.5 L0.5,76.5 L0.5,89 L13,89 L13,76.5 Z M221,76.5 L208.5,76.5 L208.5,89 L221,89 L221,76.5 Z M52,76.5 L39.5,76.5 L39.5,89 L52,89 L52,76.5 Z M65,76.5 L52.5,76.5 L52.5,89 L65,89 L65,76.5 Z M78,76.5 L65.5,76.5 L65.5,89 L78,89 L78,76.5 Z M104,76.5 L91.5,76.5 L91.5,89 L104,89 L104,76.5 Z M117,76.5 L104.5,76.5 L104.5,89 L117,89 L117,76.5 Z M130,76.5 L117.5,76.5 L117.5,89 L130,89 L130,76.5 Z M286,76.5 L273.5,76.5 L273.5,89 L286,89 L286,76.5 Z M338,76.5 L325.5,76.5 L325.5,89 L338,89 L338,76.5 Z M351,76.5 L338.5,76.5 L338.5,89 L351,89 L351,76.5 Z M351,63.5 L338.5,63.5 L338.5,76 L351,76 L351,63.5 Z M169,63.5 L156.5,63.5 L156.5,76 L169,76 L169,63.5 Z M182,63.5 L169.5,63.5 L169.5,76 L182,76 L182,63.5 Z M195,63.5 L182.5,63.5 L182.5,76 L195,76 L195,63.5 Z M208,63.5 L195.5,63.5 L195.5,76 L208,76 L208,63.5 Z M221,63.5 L208.5,63.5 L208.5,76 L221,76 L221,63.5 Z M39,63.5 L26.5,63.5 L26.5,76 L39,76 L39,63.5 Z M234,63.5 L221.5,63.5 L221.5,76 L234,76 L234,63.5 Z M260,63.5 L247.5,63.5 L247.5,76 L260,76 L260,63.5 Z M104,63.5 L91.5,63.5 L91.5,76 L104,76 L104,63.5 Z M78,63.5 L65.5,63.5 L65.5,76 L78,76 L78,63.5 Z M299,63.5 L286.5,63.5 L286.5,76 L299,76 L299,63.5 Z M312,63.5 L299.5,63.5 L299.5,76 L312,76 L312,63.5 Z M325,63.5 L312.5,63.5 L312.5,76 L325,76 L325,63.5 Z M273,63.5 L260.5,63.5 L260.5,76 L273,76 L273,63.5 Z M338,63.5 L325.5,63.5 L325.5,76 L338,76 L338,63.5 Z M364,63.5 L351.5,63.5 L351.5,76 L364,76 L364,63.5 Z M377,63.5 L364.5,63.5 L364.5,76 L377,76 L377,63.5 Z M390,63.5 L377.5,63.5 L377.5,76 L390,76 L390,63.5 Z M13,63.5 L0.5,63.5 L0.5,76 L13,76 L13,63.5 Z M26,63.5 L13.5,63.5 L13.5,76 L26,76 L26,63.5 Z M52,63.5 L39.5,63.5 L39.5,76 L52,76 L52,63.5 Z M65,63.5 L52.5,63.5 L52.5,76 L65,76 L65,63.5 Z M91,63.5 L78.5,63.5 L78.5,76 L91,76 L91,63.5 Z M247,63.5 L234.5,63.5 L234.5,76 L247,76 L247,63.5 Z M286,63.5 L273.5,63.5 L273.5,76 L286,76 L286,63.5 Z M117,63.5 L104.5,63.5 L104.5,76 L117,76 L117,63.5 Z M130,63.5 L117.5,63.5 L117.5,76 L130,76 L130,63.5 Z M143,63.5 L130.5,63.5 L130.5,76 L143,76 L143,63.5 Z M156,63.5 L143.5,63.5 L143.5,76 L156,76 L156,63.5 Z M325,50.5 L312.5,50.5 L312.5,63 L325,63 L325,50.5 Z M221,50.5 L208.5,50.5 L208.5,63 L221,63 L221,50.5 Z M39,50.5 L26.5,50.5 L26.5,63 L39,63 L39,50.5 Z M247,50.5 L234.5,50.5 L234.5,63 L247,63 L247,50.5 Z M234,50.5 L221.5,50.5 L221.5,63 L234,63 L234,50.5 Z M65,50.5 L52.5,50.5 L52.5,63 L65,63 L65,50.5 Z M286,50.5 L273.5,50.5 L273.5,63 L286,63 L286,50.5 Z M299,50.5 L286.5,50.5 L286.5,63 L299,63 L299,50.5 Z M273,50.5 L260.5,50.5 L260.5,63 L273,63 L273,50.5 Z M312,50.5 L299.5,50.5 L299.5,63 L312,63 L312,50.5 Z M338,50.5 L325.5,50.5 L325.5,63 L338,63 L338,50.5 Z M169,50.5 L156.5,50.5 L156.5,63 L169,63 L169,50.5 Z M364,50.5 L351.5,50.5 L351.5,63 L364,63 L364,50.5 Z M351,50.5 L338.5,50.5 L338.5,63 L351,63 L351,50.5 Z M390,50.5 L377.5,50.5 L377.5,63 L390,63 L390,50.5 Z M26,50.5 L13.5,50.5 L13.5,63 L26,63 L26,50.5 Z M208,50.5 L195.5,50.5 L195.5,63 L208,63 L208,50.5 Z M52,50.5 L39.5,50.5 L39.5,63 L52,63 L52,50.5 Z M78,50.5 L65.5,50.5 L65.5,63 L78,63 L78,50.5 Z M91,50.5 L78.5,50.5 L78.5,63 L91,63 L91,50.5 Z M104,50.5 L91.5,50.5 L91.5,63 L104,63 L104,50.5 Z M260,50.5 L247.5,50.5 L247.5,63 L260,63 L260,50.5 Z M117,50.5 L104.5,50.5 L104.5,63 L117,63 L117,50.5 Z M130,50.5 L117.5,50.5 L117.5,63 L130,63 L130,50.5 Z M143,50.5 L130.5,50.5 L130.5,63 L143,63 L143,50.5 Z M156,50.5 L143.5,50.5 L143.5,63 L156,63 L156,50.5 Z M182,50.5 L169.5,50.5 L169.5,63 L182,63 L182,50.5 Z M195,50.5 L182.5,50.5 L182.5,63 L195,63 L195,50.5 Z M377,50.5 L364.5,50.5 L364.5,63 L377,63 L377,50.5 Z M13,50.5 L0.5,50.5 L0.5,63 L13,63 L13,50.5 Z M26,37.5 L13.5,37.5 L13.5,50 L26,50 L26,37.5 Z M221,37.5 L208.5,37.5 L208.5,50 L221,50 L221,37.5 Z M234,37.5 L221.5,37.5 L221.5,50 L234,50 L234,37.5 Z M78,37.5 L65.5,37.5 L65.5,50 L78,50 L78,37.5 Z M52,37.5 L39.5,37.5 L39.5,50 L52,50 L52,37.5 Z M273,37.5 L260.5,37.5 L260.5,50 L273,50 L273,37.5 Z M91,37.5 L78.5,37.5 L78.5,50 L91,50 L91,37.5 Z M286,37.5 L273.5,37.5 L273.5,50 L286,50 L286,37.5 Z M312,37.5 L299.5,37.5 L299.5,50 L312,50 L312,37.5 Z M143,37.5 L130.5,37.5 L130.5,50 L143,50 L143,37.5 Z M156,37.5 L143.5,37.5 L143.5,50 L156,50 L156,37.5 Z M325,37.5 L312.5,37.5 L312.5,50 L325,50 L325,37.5 Z M364,37.5 L351.5,37.5 L351.5,50 L364,50 L364,37.5 Z M377,37.5 L364.5,37.5 L364.5,50 L377,50 L377,37.5 Z M299,37.5 L286.5,37.5 L286.5,50 L299,50 L299,37.5 Z M390,37.5 L377.5,37.5 L377.5,50 L390,50 L390,37.5 Z M39,37.5 L26.5,37.5 L26.5,50 L39,50 L39,37.5 Z M65,37.5 L52.5,37.5 L52.5,50 L65,50 L65,37.5 Z M208,37.5 L195.5,37.5 L195.5,50 L208,50 L208,37.5 Z M260,37.5 L247.5,37.5 L247.5,50 L260,50 L260,37.5 Z M247,37.5 L234.5,37.5 L234.5,50 L247,50 L247,37.5 Z M104,37.5 L91.5,37.5 L91.5,50 L104,50 L104,37.5 Z M117,37.5 L104.5,37.5 L104.5,50 L117,50 L117,37.5 Z M130,37.5 L117.5,37.5 L117.5,50 L130,50 L130,37.5 Z M338,37.5 L325.5,37.5 L325.5,50 L338,50 L338,37.5 Z M351,37.5 L338.5,37.5 L338.5,50 L351,50 L351,37.5 Z M169,37.5 L156.5,37.5 L156.5,50 L169,50 L169,37.5 Z M182,37.5 L169.5,37.5 L169.5,50 L182,50 L182,37.5 Z M195,37.5 L182.5,37.5 L182.5,50 L195,50 L195,37.5 Z M13,37.5 L0.5,37.5 L0.5,50 L13,50 L13,37.5 Z M247,24.5 L234.5,24.5 L234.5,37 L247,37 L247,24.5 Z M195,24.5 L182.5,24.5 L182.5,37 L195,37 L195,24.5 Z M208,24.5 L195.5,24.5 L195.5,37 L208,37 L208,24.5 Z M221,24.5 L208.5,24.5 L208.5,37 L221,37 L221,24.5 Z M65,24.5 L52.5,24.5 L52.5,37 L65,37 L65,24.5 Z M39,24.5 L26.5,24.5 L26.5,37 L39,37 L39,24.5 Z M260,24.5 L247.5,24.5 L247.5,37 L260,37 L260,24.5 Z M273,24.5 L260.5,24.5 L260.5,37 L273,37 L273,24.5 Z M286,24.5 L273.5,24.5 L273.5,37 L286,37 L286,24.5 Z M117,24.5 L104.5,24.5 L104.5,37 L117,37 L117,24.5 Z M312,24.5 L299.5,24.5 L299.5,37 L312,37 L312,24.5 Z M299,24.5 L286.5,24.5 L286.5,37 L299,37 L299,24.5 Z M338,24.5 L325.5,24.5 L325.5,37 L338,37 L338,24.5 Z M351,24.5 L338.5,24.5 L338.5,37 L351,37 L351,24.5 Z M364,24.5 L351.5,24.5 L351.5,37 L364,37 L364,24.5 Z M377,24.5 L364.5,24.5 L364.5,37 L377,37 L377,24.5 Z M390,24.5 L377.5,24.5 L377.5,37 L390,37 L390,24.5 Z M13,24.5 L0.5,24.5 L0.5,37 L13,37 L13,24.5 Z M52,24.5 L39.5,24.5 L39.5,37 L52,37 L52,24.5 Z M26,24.5 L13.5,24.5 L13.5,37 L26,37 L26,24.5 Z M78,24.5 L65.5,24.5 L65.5,37 L78,37 L78,24.5 Z M234,24.5 L221.5,24.5 L221.5,37 L234,37 L234,24.5 Z M91,24.5 L78.5,24.5 L78.5,37 L91,37 L91,24.5 Z M104,24.5 L91.5,24.5 L91.5,37 L104,37 L104,24.5 Z M130,24.5 L117.5,24.5 L117.5,37 L130,37 L130,24.5 Z M143,24.5 L130.5,24.5 L130.5,37 L143,37 L143,24.5 Z M325,24.5 L312.5,24.5 L312.5,37 L325,37 L325,24.5 Z M156,24.5 L143.5,24.5 L143.5,37 L156,37 L156,24.5 Z M169,24.5 L156.5,24.5 L156.5,37 L169,37 L169,24.5 Z M182,24.5 L169.5,24.5 L169.5,37 L182,37 L182,24.5 Z M65,11.5 L52.5,11.5 L52.5,24 L65,24 L65,11.5 Z M195,11.5 L182.5,11.5 L182.5,24 L195,24 L195,11.5 Z M208,11.5 L195.5,11.5 L195.5,24 L208,24 L208,11.5 Z M26,11.5 L13.5,11.5 L13.5,24 L26,24 L26,11.5 Z M13,11.5 L0.5,11.5 L0.5,24 L13,24 L13,11.5 Z M247,11.5 L234.5,11.5 L234.5,24 L247,24 L247,11.5 Z M260,11.5 L247.5,11.5 L247.5,24 L260,24 L260,11.5 Z M91,11.5 L78.5,11.5 L78.5,24 L91,24 L91,11.5 Z M104,11.5 L91.5,11.5 L91.5,24 L104,24 L104,11.5 Z M273,11.5 L260.5,11.5 L260.5,24 L273,24 L273,11.5 Z M312,11.5 L299.5,11.5 L299.5,24 L312,24 L312,11.5 Z M325,11.5 L312.5,11.5 L312.5,24 L325,24 L325,11.5 Z M338,11.5 L325.5,11.5 L325.5,24 L338,24 L338,11.5 Z M169,11.5 L156.5,11.5 L156.5,24 L169,24 L169,11.5 Z M182,11.5 L169.5,11.5 L169.5,24 L182,24 L182,11.5 Z M351,11.5 L338.5,11.5 L338.5,24 L351,24 L351,11.5 Z M390,11.5 L377.5,11.5 L377.5,24 L390,24 L390,11.5 Z M39,11.5 L26.5,11.5 L26.5,24 L39,24 L39,11.5 Z M52,11.5 L39.5,11.5 L39.5,24 L52,24 L52,11.5 Z M234,11.5 L221.5,11.5 L221.5,24 L234,24 L234,11.5 Z M221,11.5 L208.5,11.5 L208.5,24 L221,24 L221,11.5 Z M78,11.5 L65.5,11.5 L65.5,24 L78,24 L78,11.5 Z M286,11.5 L273.5,11.5 L273.5,24 L286,24 L286,11.5 Z M299,11.5 L286.5,11.5 L286.5,24 L299,24 L299,11.5 Z M117,11.5 L104.5,11.5 L104.5,24 L117,24 L117,11.5 Z M130,11.5 L117.5,11.5 L117.5,24 L130,24 L130,11.5 Z M143,11.5 L130.5,11.5 L130.5,24 L143,24 L143,11.5 Z M156,11.5 L143.5,11.5 L143.5,24 L156,24 L156,11.5 Z M364,11.5 L351.5,11.5 L351.5,24 L364,24 L364,11.5 Z M377,11.5 L364.5,11.5 L364.5,24 L377,24 L377,11.5 Z M208,-1.5 L195.5,-1.5 L195.5,11 L208,11 L208,-1.5 Z M234,-1.5 L221.5,-1.5 L221.5,11 L234,11 L234,-1.5 Z M247,-1.5 L234.5,-1.5 L234.5,11 L247,11 L247,-1.5 Z M78,-1.5 L65.5,-1.5 L65.5,11 L78,11 L78,-1.5 Z M91,-1.5 L78.5,-1.5 L78.5,11 L91,11 L91,-1.5 Z M260,-1.5 L247.5,-1.5 L247.5,11 L260,11 L260,-1.5 Z M299,-1.5 L286.5,-1.5 L286.5,11 L299,11 L299,-1.5 Z M312,-1.5 L299.5,-1.5 L299.5,11 L312,11 L312,-1.5 Z M325,-1.5 L312.5,-1.5 L312.5,11 L325,11 L325,-1.5 Z M156,-1.5 L143.5,-1.5 L143.5,11 L156,11 L156,-1.5 Z M169,-1.5 L156.5,-1.5 L156.5,11 L169,11 L169,-1.5 Z M338,-1.5 L325.5,-1.5 L325.5,11 L338,11 L338,-1.5 Z M377,-1.5 L364.5,-1.5 L364.5,11 L377,11 L377,-1.5 Z M390,-1.5 L377.5,-1.5 L377.5,11 L390,11 L390,-1.5 Z M13,-1.5 L0.5,-1.5 L0.5,11 L13,11 L13,-1.5 Z M221,-1.5 L208.5,-1.5 L208.5,11 L221,11 L221,-1.5 Z M52,-1.5 L39.5,-1.5 L39.5,11 L52,11 L52,-1.5 Z M65,-1.5 L52.5,-1.5 L52.5,11 L65,11 L65,-1.5 Z M273,-1.5 L260.5,-1.5 L260.5,11 L273,11 L273,-1.5 Z M286,-1.5 L273.5,-1.5 L273.5,11 L286,11 L286,-1.5 Z M104,-1.5 L91.5,-1.5 L91.5,11 L104,11 L104,-1.5 Z M117,-1.5 L104.5,-1.5 L104.5,11 L117,11 L117,-1.5 Z M130,-1.5 L117.5,-1.5 L117.5,11 L130,11 L130,-1.5 Z M143,-1.5 L130.5,-1.5 L130.5,11 L143,11 L143,-1.5 Z M351,-1.5 L338.5,-1.5 L338.5,11 L351,11 L351,-1.5 Z M364,-1.5 L351.5,-1.5 L351.5,11 L364,11 L364,-1.5 Z M182,-1.5 L169.5,-1.5 L169.5,11 L182,11 L182,-1.5 Z M195,-1.5 L182.5,-1.5 L182.5,11 L195,11 L195,-1.5 Z M39,-1.5 L26.5,-1.5 L26.5,11 L39,11 L39,-1.5 Z M26,-1.5 L13.5,-1.5 L13.5,11 L26,11 L26,-1.5 Z M377,-14.5 L364.5,-14.5 L364.5,-2 L377,-2 L377,-14.5 Z M195,-14.5 L182.5,-14.5 L182.5,-2 L195,-2 L195,-14.5 Z M13,-14.5 L0.5,-14.5 L0.5,-2 L13,-2 L13,-14.5 Z M221,-14.5 L208.5,-14.5 L208.5,-2 L221,-2 L221,-14.5 Z M39,-14.5 L26.5,-14.5 L26.5,-2 L39,-2 L39,-14.5 Z M234,-14.5 L221.5,-14.5 L221.5,-2 L234,-2 L234,-14.5 Z M247,-14.5 L234.5,-14.5 L234.5,-2 L247,-2 L247,-14.5 Z M260,-14.5 L247.5,-14.5 L247.5,-2 L260,-2 L260,-14.5 Z M273,-14.5 L260.5,-14.5 L260.5,-2 L273,-2 L273,-14.5 Z M286,-14.5 L273.5,-14.5 L273.5,-2 L286,-2 L286,-14.5 Z M299,-14.5 L286.5,-14.5 L286.5,-2 L299,-2 L299,-14.5 Z M312,-14.5 L299.5,-14.5 L299.5,-2 L312,-2 L312,-14.5 Z M325,-14.5 L312.5,-14.5 L312.5,-2 L325,-2 L325,-14.5 Z M338,-14.5 L325.5,-14.5 L325.5,-2 L338,-2 L338,-14.5 Z M351,-14.5 L338.5,-14.5 L338.5,-2 L351,-2 L351,-14.5 Z M364,-14.5 L351.5,-14.5 L351.5,-2 L364,-2 L364,-14.5 Z M390,-14.5 L377.5,-14.5 L377.5,-2 L390,-2 L390,-14.5 Z M26,-14.5 L13.5,-14.5 L13.5,-2 L26,-2 L26,-14.5 Z M208,-14.5 L195.5,-14.5 L195.5,-2 L208,-2 L208,-14.5 Z M52,-14.5 L39.5,-14.5 L39.5,-2 L52,-2 L52,-14.5 Z M65,-14.5 L52.5,-14.5 L52.5,-2 L65,-2 L65,-14.5 Z M78,-14.5 L65.5,-14.5 L65.5,-2 L78,-2 L78,-14.5 Z M91,-14.5 L78.5,-14.5 L78.5,-2 L91,-2 L91,-14.5 Z M104,-14.5 L91.5,-14.5 L91.5,-2 L104,-2 L104,-14.5 Z M117,-14.5 L104.5,-14.5 L104.5,-2 L117,-2 L117,-14.5 Z M130,-14.5 L117.5,-14.5 L117.5,-2 L130,-2 L130,-14.5 Z M143,-14.5 L130.5,-14.5 L130.5,-2 L143,-2 L143,-14.5 Z M156,-14.5 L143.5,-14.5 L143.5,-2 L156,-2 L156,-14.5 Z M169,-14.5 L156.5,-14.5 L156.5,-2 L169,-2 L169,-14.5 Z M182,-14.5 L169.5,-14.5 L169.5,-2 L182,-2 L182,-14.5 Z M26,-27.5 L13.5,-27.5 L13.5,-15 L26,-15 L26,-27.5 Z M208,-27.5 L195.5,-27.5 L195.5,-15 L208,-15 L208,-27.5 Z M221,-27.5 L208.5,-27.5 L208.5,-15 L221,-15 L221,-27.5 Z M234,-27.5 L221.5,-27.5 L221.5,-15 L234,-15 L234,-27.5 Z M247,-27.5 L234.5,-27.5 L234.5,-15 L247,-15 L247,-27.5 Z M260,-27.5 L247.5,-27.5 L247.5,-15 L260,-15 L260,-27.5 Z M273,-27.5 L260.5,-27.5 L260.5,-15 L273,-15 L273,-27.5 Z M286,-27.5 L273.5,-27.5 L273.5,-15 L286,-15 L286,-27.5 Z M299,-27.5 L286.5,-27.5 L286.5,-15 L299,-15 L299,-27.5 Z M312,-27.5 L299.5,-27.5 L299.5,-15 L312,-15 L312,-27.5 Z M325,-27.5 L312.5,-27.5 L312.5,-15 L325,-15 L325,-27.5 Z M338,-27.5 L325.5,-27.5 L325.5,-15 L338,-15 L338,-27.5 Z M351,-27.5 L338.5,-27.5 L338.5,-15 L351,-15 L351,-27.5 Z M364,-27.5 L351.5,-27.5 L351.5,-15 L364,-15 L364,-27.5 Z M377,-27.5 L364.5,-27.5 L364.5,-15 L377,-15 L377,-27.5 Z M390,-27.5 L377.5,-27.5 L377.5,-15 L390,-15 L390,-27.5 Z M13,-27.5 L0.5,-27.5 L0.5,-15 L13,-15 L13,-27.5 Z M39,-27.5 L26.5,-27.5 L26.5,-15 L39,-15 L39,-27.5 Z M52,-27.5 L39.5,-27.5 L39.5,-15 L52,-15 L52,-27.5 Z M65,-27.5 L52.5,-27.5 L52.5,-15 L65,-15 L65,-27.5 Z M78,-27.5 L65.5,-27.5 L65.5,-15 L78,-15 L78,-27.5 Z M91,-27.5 L78.5,-27.5 L78.5,-15 L91,-15 L91,-27.5 Z M104,-27.5 L91.5,-27.5 L91.5,-15 L104,-15 L104,-27.5 Z M117,-27.5 L104.5,-27.5 L104.5,-15 L117,-15 L117,-27.5 Z M130,-27.5 L117.5,-27.5 L117.5,-15 L130,-15 L130,-27.5 Z M143,-27.5 L130.5,-27.5 L130.5,-15 L143,-15 L143,-27.5 Z M156,-27.5 L143.5,-27.5 L143.5,-15 L156,-15 L156,-27.5 Z M169,-27.5 L156.5,-27.5 L156.5,-15 L169,-15 L169,-27.5 Z M182,-27.5 L169.5,-27.5 L169.5,-15 L182,-15 L182,-27.5 Z M195,-27.5 L182.5,-27.5 L182.5,-15 L195,-15 L195,-27.5 Z" id="形状结合" fill="url(#radialGradient-5)" mask="url(#mask-3)"></path>
            <g mask="url(#mask-3)">
                <g transform="translate(201.3894, 81.8419)">
                    <path d="M12.1256982,98.6504342 C27.8066386,99.3194496 42.1831306,96.888231 55.2551744,91.3567783 C63.1680234,88.0084457 75.4129484,82.7032684 89.335906,73.7144689 C95.3877717,69.8073243 105.300699,62.4599107 119.074687,51.672228 L107.780057,38.4911249 C106.342622,36.8136041 106.53725,34.2884336 108.214771,32.8509987 C108.725498,32.4133669 109.33833,32.111583 109.996595,31.9735558 L166.771307,20.0688315 C168.933426,19.6154706 171.053692,21.0006929 171.507053,23.162812 C171.652671,23.8572803 171.610934,24.5779854 171.386123,25.2510018 L153.084576,80.040281 C152.384662,82.1356127 150.118667,83.2668218 148.023335,82.5669073 C147.334903,82.3369468 146.722016,81.924002 146.250349,81.3723227 L135.471704,68.7652255 L135.471704,68.7652255 C115.513388,83.3735235 100.49728,92.5429956 90.4233805,96.2736419 C82.8180019,99.0901258 70.0869403,104.186688 57.2080364,107.088021 C44.4983151,109.951242 31.6413533,110.637994 23.9108228,110.637994 C13.5348466,110.637994 8.09627253,110.637994 7.59510056,110.637994 L12.1256982,98.6504342 Z" id="路径备份" stroke="none" fill="url(#linearGradient-6)" opacity="0.370287298" transform="translate(90.5951, 64.638) rotate(-10) translate(-90.5951, -64.638)"></path>
                    <path d="M11.2574574,93.7263955 C26.9383977,94.3954109 41.3148898,91.9641922 54.3869335,86.4327396 C62.2997825,83.084407 74.5447075,77.7792297 88.4676651,68.7904301 C94.5195308,64.8832855 104.432458,57.5358719 118.206446,46.7481893 L106.911816,33.5670861 C105.474381,31.8895653 105.669009,29.3643948 107.34653,27.9269599 C107.857257,27.4893281 108.470089,27.1875443 109.128354,27.049517 L165.903066,15.1447927 C168.065186,14.6914319 170.185451,16.0766541 170.638812,18.2387732 C170.78443,18.9332416 170.742694,19.6539467 170.517882,20.326963 L152.216335,75.1162422 C151.516421,77.2115739 149.250426,78.342783 147.155094,77.6428685 C146.466662,77.4129081 145.853775,76.9999632 145.382108,76.4482839 L134.603463,63.8411867 L134.603463,63.8411867 C114.645147,78.4494847 99.6290395,87.6189569 89.5551396,91.3496031 C81.949761,94.1660871 69.2186994,99.262649 56.3397955,102.163983 C43.6300742,105.027203 30.7731124,105.713955 23.0425819,105.713955 C12.6666057,105.713955 7.22803165,105.713955 6.72685967,105.713955 L11.2574574,93.7263955 Z" id="路径" stroke="url(#linearGradient-8)" stroke-width="1" fill="url(#linearGradient-7)" opacity="0.440498992" transform="translate(89.7269, 59.714) rotate(-10) translate(-89.7269, -59.714)"></path>
                </g>
            </g>
        </g>
    </g>
</svg>