<?xml version="1.0" encoding="UTF-8"?>
<svg width="14px" height="14px" viewBox="0 0 14 14" version="1.1" xmlns="http://www.w3.org/2000/svg" xmlns:xlink="http://www.w3.org/1999/xlink">
    <title>Icon/充值</title>
    <g id="页面-1" stroke="none" stroke-width="1" fill="none" fill-rule="evenodd">
        <g id="团队-二级/三级" transform="translate(-24, -165)" fill="#49B609">
            <g id="Icon/充值" transform="translate(24, 165)">
                <path d="M8.41071201,0.299961729 L8.55864916,0.379639063 L12.1668015,2.46280679 C13.0435404,2.96899221 13.5836338,3.90446144 13.5836338,4.91683227 L13.5836338,9.08316773 C13.5836338,10.0955386 13.0435404,11.0310078 12.1668015,11.5371932 L8.55864916,13.6203609 C7.6819103,14.1265464 6.60172348,14.1265464 5.72498462,13.6203609 L2.11683227,11.5371932 C1.24009341,11.0310078 0.7,10.0955386 0.7,9.08316773 L0.7,4.91683227 C0.7,3.90446144 1.24009341,2.96899221 2.11683227,2.46280679 L5.72498462,0.379639063 C6.55301576,-0.0984249423 7.56251747,-0.124984054 8.41071201,0.299961729 Z M8.99585578,4.65001245 L8.90092087,4.65711953 L6.01356818,5.06959849 C5.86363128,5.09101805 5.72468618,5.16049059 5.61758839,5.26758839 C5.34422138,5.54095539 5.34422138,5.98417088 5.61758839,6.25753788 L6.36005051,7 L4.87512627,8.48492424 C4.60175926,8.75829124 4.60175926,9.20150673 4.87512627,9.47487373 C5.14849327,9.74824074 5.59170876,9.74824074 5.86507576,9.47487373 L7.35,7.98994949 L8.09246212,8.73241161 C8.19955991,8.83950941 8.33850501,8.90898195 8.48844192,8.93040151 C8.87115572,8.98507491 9.22572811,8.71914562 9.28040151,8.33643182 L9.69288047,5.44907913 C9.70226094,5.38341582 9.70226094,5.31675254 9.69288047,5.25108923 C9.63820707,4.86837542 9.28363468,4.60244613 8.90092087,4.65711953 Z" id="形状结合"></path>
            </g>
        </g>
    </g>
</svg>