<?xml version="1.0" encoding="UTF-8"?>
<svg width="28px" height="28px" viewBox="0 0 28 28" version="1.1" xmlns="http://www.w3.org/2000/svg" xmlns:xlink="http://www.w3.org/1999/xlink">
    <title>Icon/签到</title>
    <g id="页面-1" stroke="none" stroke-width="1" fill="none" fill-rule="evenodd">
        <g id="签到" transform="translate(-181, -284)" fill="#4297FE">
            <g id="编组" transform="translate(181, 284)">
                <path d="M24.4548136,1.82213775 L21.0087162,1.82213775 L21.0087162,1.26430303 C21.0087162,0.565174651 20.4233567,0 19.7003736,0 C18.9773904,0 18.3920309,0.565174651 18.3920309,1.26430303 L18.3920309,1.82213775 L9.71990301,1.82213775 L9.71990301,1.26430303 C9.71990301,0.565174651 9.13454355,0 8.41156039,0 C7.68857723,0 7.10321777,0.565174651 7.10321777,1.26430303 L7.10321777,1.82213775 L3.54518645,1.82213775 C1.58725998,1.82213775 0,3.35434825 0,5.24621535 L0,24.1410315 C0,26.0328986 1.58725998,27.5651091 3.54518645,27.5651091 L24.4548136,27.5651091 C26.41274,27.5651091 28,26.0328986 28,24.1410315 L28,5.24621535 C27.998165,3.35618324 26.410905,1.82213775 24.4548136,1.82213775 Z M21.3298381,15.2743954 L13.0045219,23.240055 C12.7254821,23.5084016 12.3530545,23.6577675 11.9659218,23.6566029 C11.5787404,23.6566029 11.1933941,23.5079625 10.8997968,23.2125303 L6.36371977,18.6507635 C6.08271664,18.3681127 5.92559918,17.9853501 5.92696694,17.5867872 C5.92835264,17.1882244 6.08811062,16.8065563 6.3710597,16.5258536 C6.65371047,16.2448505 7.03647312,16.087733 7.43503594,16.0891097 C7.83359875,16.0904865 8.21526685,16.2502444 8.49596959,16.5331935 L11.9916115,20.0508552 L19.2526378,13.105446 C19.8526771,12.5310964 20.8031981,12.5531162 21.3775477,13.1531555 C21.9500623,13.7495249 21.9298774,14.7018809 21.3298381,15.2743954 Z M25.1631168,7.77298643 C25.1631168,8.24641195 24.7649256,8.62992332 24.2749853,8.62992332 L3.72501475,8.62992332 C3.23507438,8.62992332 2.83688315,8.24641195 2.83688315,7.77298643 L2.83688315,5.39301396 C2.83688315,4.91958844 3.23507438,4.53607707 3.72501475,4.53607707 L7.10321777,4.53607707 L7.10321777,5.28108002 C7.10321777,5.9802084 7.68857723,6.54538305 8.41156039,6.54538305 C9.13454355,6.54538305 9.71990301,5.9802084 9.71990301,5.28108002 L9.71990301,4.53607707 L18.3901959,4.53607707 L18.3901959,5.28108002 C18.3901959,5.9802084 18.9755554,6.54538305 19.6985386,6.54538305 C20.4215217,6.54538305 21.0068812,5.9802084 21.0068812,5.28108002 L21.0068812,4.53607707 L24.2749853,4.53607707 C24.7649256,4.53607707 25.1631168,4.91958844 25.1631168,5.39301396 L25.1631168,7.77298643 L25.1631168,7.77298643 Z" id="形状" fill-rule="nonzero"></path>
            </g>
        </g>
    </g>
</svg>