<?xml version="1.0" encoding="UTF-8"?>
<svg width="28px" height="28px" viewBox="0 0 28 28" version="1.1" xmlns="http://www.w3.org/2000/svg" xmlns:xlink="http://www.w3.org/1999/xlink">
    <title>Icon/签到</title>
    <g id="页面-1" stroke="none" stroke-width="1" fill="none" fill-rule="evenodd">
        <g id="签到" transform="translate(-181, -292)" fill="#4297FE" fill-rule="nonzero">
            <g id="Icon/签到" transform="translate(181, 292)">
                <path d="M21,1.4 L21,0 L18.2,0 L18.2,1.4 L9.8,1.4 L9.8,0 L7,0 L7,1.4 L0,1.4 L0,28 L28,28 L28,1.4 L21,1.4 Z M14,22.162 L12.026,24.136 L10.038,22.162 L6.076,18.2 L8.05,16.226 L12.012,20.188 L19.936,12.264 L21.91,14.238 L14,22.162 Z M2.8,8.4 L2.8,4.2 L7,4.2 L7,5.6 L9.8,5.6 L9.8,4.2 L18.2,4.2 L18.2,5.6 L21,5.6 L21,4.2 L25.2,4.2 L25.2,8.4 L2.8,8.4 Z" id="形状"></path>
            </g>
        </g>
    </g>
</svg>