<?xml version="1.0" encoding="UTF-8"?>
<svg width="319px" height="29px" viewBox="0 0 319 29" version="1.1" xmlns="http://www.w3.org/2000/svg" xmlns:xlink="http://www.w3.org/1999/xlink">
    <title>形状结合</title>
    <defs>
        <linearGradient x1="50%" y1="0%" x2="50%" y2="100%" id="linearGradient-1">
            <stop stop-color="#F3F3F3" offset="0%"></stop>
            <stop stop-color="#FAFAFA" offset="47.1973339%"></stop>
            <stop stop-color="#F3F3F3" offset="100%"></stop>
        </linearGradient>
    </defs>
    <g id="页面-1" stroke="none" stroke-width="1" fill="none" fill-rule="evenodd">
        <g id="我的持有-我的绿色基金" transform="translate(-35, -224)" fill="url(#linearGradient-1)" fill-rule="nonzero">
            <path d="M35,224.508772 L354,224.508772 L354,224 L35,224 L35,224.508772 Z M35,226.54386 L354,226.54386 L354,226.035088 L35,226.035088 L35,226.54386 Z M35,228.578947 L354,228.578947 L354,228.070175 L35,228.070175 L35,228.578947 Z M35,230.614035 L354,230.614035 L354,230.105263 L35,230.105263 L35,230.614035 Z M35,232.649123 L354,232.649123 L354,232.140351 L35,232.140351 L35,232.649123 Z M35,234.684211 L354,234.684211 L354,234.175439 L35,234.175439 L35,234.684211 Z M35,236.719298 L354,236.719298 L354,236.210526 L35,236.210526 L35,236.719298 Z M35,238.754386 L354,238.754386 L354,238.245614 L35,238.245614 L35,238.754386 Z M35,240.789474 L354,240.789474 L354,240.280702 L35,240.280702 L35,240.789474 Z M35,242.824561 L354,242.824561 L354,242.315789 L35,242.315789 L35,242.824561 Z M35,244.859649 L354,244.859649 L354,244.350877 L35,244.350877 L35,244.859649 Z M35,246.894737 L354,246.894737 L354,246.385965 L35,246.385965 L35,246.894737 Z M35,248.929825 L354,248.929825 L354,248.421053 L35,248.421053 L35,248.929825 Z M35,250.964912 L354,250.964912 L354,250.45614 L35,250.45614 L35,250.964912 Z M35,253 L354,253 L354,252.491228 L35,252.491228 L35,253 Z" id="形状结合"></path>
        </g>
    </g>
</svg>