<?xml version="1.0" encoding="UTF-8"?>
<svg width="108px" height="71px" viewBox="0 0 108 71" version="1.1" xmlns="http://www.w3.org/2000/svg" xmlns:xlink="http://www.w3.org/1999/xlink">
    <title>编组</title>
    <g id="页面-1" stroke="none" stroke-width="1" fill="none" fill-rule="evenodd">
        <g id="爱心保障基金" transform="translate(-53, -706)">
            <g id="编组" transform="translate(54, 707)">
                <rect id="矩形-7" fill="#F2F4F5" x="3" y="3" width="100" height="63" rx="1"></rect>
                <path d="M98.5089541,52.3520265 C98.5089541,53.2864727 98.2980934,54.1654292 97.9296419,54.9556022 L63.5793123,54.9556022 C63.1976744,54.1407076 63,53.2518601 63,52.3520265 C63,47.7552617 69.2237222,44.9918758 75.7382103,44.0463317 L75.5206908,39.6471101 C74.519657,39.3230504 70.9638785,34.9105113 70.9638785,34.9105113 L69.0106419,33.9649672 C69.0106419,33.9649672 68.8175378,30.5823165 69.0106419,29.2283683 C69.816352,28.3782665 70.9638785,28.2806047 70.9638785,28.2806047 L70.8728754,20.705154 C70.8728754,20.705154 73.6074067,14.5790936 81.6201161,15.023011 C84.0771989,15.0296698 83.6421599,16.2548818 84.5521906,16.9163188 C85.4577821,17.5799753 89.3686945,16.3170303 90.4141201,17.8640825 C91.457326,19.4111347 91.3907384,28.2806047 91.3907384,28.2806047 C91.3907384,28.2806047 92.5382649,28.3782665 93.343975,29.2283683 C93.5370791,30.5823165 93.343975,33.9649672 93.343975,33.9649672 L91.3907384,34.9105113 C91.3907384,34.9105113 87.8327403,39.3230504 86.8361457,39.6471101 L86.8361457,44.2105811 C92.9466689,45.2937396 98.5089541,48.006075 98.5089541,52.3520265 L98.5089541,52.3520265 Z M83.4845692,43.2361824 C83.2315363,42.6590897 82.7054941,42.8344371 82.7054941,42.8344371 L79.5891939,42.8344371 C79.0032229,42.9809299 78.8478518,43.2561587 78.8478518,43.2561587 L78.8478518,43.5047524 L80.3482927,44.9452645 L78.2152695,51.5551948 L78.2152695,52.1322874 C79.169692,53.2842531 80.9120678,54.0877436 80.9120678,54.0877436 L81.3626439,54.0877436 C83.0561889,53.3685974 84.168202,52.0901153 84.168202,52.0901152 L84.168202,51.6373195 L82.0618139,44.9674603 L83.4845692,43.4625803 L83.4845692,43.2361824 L83.4845692,43.2361824 Z M84.9850101,48.7340996 L82.9785034,45.1938582 C82.803156,45.1716624 82.8808415,45.3159355 82.8808415,45.3159355 L84.3413298,49.8239168 C84.7719297,49.8239168 84.9850101,49.3111922 84.9850101,49.3111922 L84.9850101,48.7340996 Z" id="形状" fill="#F1D5A5" fill-rule="nonzero"></path>
                <rect id="矩形-8" fill="#F1D5A5" x="12" y="18" width="24" height="4"></rect>
                <rect id="矩形-8备份" fill="#F1D5A5" x="12" y="28" width="15" height="4"></rect>
                <rect id="矩形-8备份-3" fill="#F1D5A5" x="12" y="38" width="41" height="4"></rect>
                <rect id="矩形-8备份-4" fill="#F1D5A5" x="12" y="48" width="41" height="4"></rect>
                <rect id="矩形-8备份-2" fill="#F1D5A5" x="29" y="28" width="15" height="4"></rect>
                <polyline id="路径" stroke="#BE5828" stroke-linecap="round" stroke-linejoin="round" points="0 8 0 0 8 0"></polyline>
                <polyline id="路径备份" stroke="#BE5828" stroke-linecap="round" stroke-linejoin="round" transform="translate(102, 4) scale(-1, 1) translate(-102, -4)" points="98 8 98 0 106 0"></polyline>
                <polyline id="路径备份-3" stroke="#BE5828" stroke-linecap="round" stroke-linejoin="round" transform="translate(4, 65) scale(1, -1) translate(-4, -65)" points="0 69 0 61 8 61"></polyline>
                <polyline id="路径备份-2" stroke="#BE5828" stroke-linecap="round" stroke-linejoin="round" transform="translate(102, 65) scale(-1, -1) translate(-102, -65)" points="98 69 98 61 106 61"></polyline>
            </g>
        </g>
    </g>
</svg>