<?xml version="1.0" encoding="UTF-8"?>
<svg width="12px" height="12px" viewBox="0 0 12 12" version="1.1" xmlns="http://www.w3.org/2000/svg" xmlns:xlink="http://www.w3.org/1999/xlink">
    <title>Icon/多选备份</title>
    <g id="页面-1" stroke="none" stroke-width="1" fill="none" fill-rule="evenodd">
        <g id="个人资料-绑定银行卡" transform="translate(-28, -502)" fill="#BE5828" fill-rule="nonzero">
            <g id="Icon/多选备份" transform="translate(28, 502)">
                <path d="M6,0 C9.31111111,0 12,2.68888889 12,6 C12,9.31111111 9.31111111,12 6,12 C2.68888889,12 0,9.31111111 0,6 C0,2.68888889 2.68888889,0 6,0 Z M8.03587454,3.87562693 C7.87164546,3.8748116 7.70710225,3.93663944 7.58117142,4.06131374 L5.02973681,6.58729024 L4.28501846,5.84915264 C4.15718396,5.7493669 4.00028458,5.70467258 3.84643429,5.71524154 C3.69713572,5.72549782 3.55073293,5.78770705 3.43665305,5.90189455 C3.31138792,6.02727786 3.24884272,6.19156041 3.24884272,6.35582235 C3.24884272,6.5200843 3.31160394,6.68432565 3.4369515,6.80962656 L5.02544423,8.39752822 L8.48412346,4.973629 C8.61008453,4.84893457 8.67358268,4.6849898 8.67441776,4.52071593 C8.67523638,4.3564636 8.61340825,4.19187977 8.48870723,4.06587856 C8.36401856,3.93993321 8.20010362,3.87645849 8.03587454,3.87562693 Z" id="形状结合"></path>
            </g>
        </g>
    </g>
</svg>