<?xml version="1.0" encoding="UTF-8"?>
<svg width="14px" height="14px" viewBox="0 0 14 14" version="1.1" xmlns="http://www.w3.org/2000/svg" xmlns:xlink="http://www.w3.org/1999/xlink">
    <title>Icon/多选备份</title>
    <g id="页面-1" stroke="none" stroke-width="1" fill="none" fill-rule="evenodd">
        <g id="个人资料-修改资金密码" transform="translate(-156, -370)" fill="#BE5828" fill-rule="nonzero">
            <g id="Icon/多选备份" transform="translate(156, 370)">
                <path d="M1.90757475,0.885765016 L13.1296459,12.1078361 C13.4030129,12.3812031 13.4030129,12.8244186 13.1296459,13.0977856 C12.8562789,13.3711526 12.4130634,13.3711526 12.1396964,13.0977856 L10.7264714,11.6856039 C9.54683896,12.761868 8.30468181,13.3 7,13.3 C4.42267117,13.3 2.08933783,11.2 0,7 C0.748293479,5.49577576 1.52788437,4.26091945 2.33877267,3.29543106 L0.917625253,1.87571451 C0.644258249,1.60234751 0.644258249,1.15913202 0.917625253,0.885765016 C1.19099226,0.612398012 1.63420774,0.612398012 1.90757475,0.885765016 Z M1.63851511,6.87946009 L1.5743,7 L1.63851511,7.12053991 C3.35357317,10.302723 5.11698118,11.8249273 6.86864795,11.8972881 L7,11.9 C7.91150705,11.9 8.82660274,11.5085543 9.73681088,10.6960223 L8.44164116,9.4008391 C8.02052924,9.6542497 7.52728553,9.8 7,9.8 C5.4536027,9.8 4.2,8.5463973 4.2,7 C4.2,6.47271447 4.3457503,5.97947076 4.5991609,5.55835884 L3.3307976,4.28727442 C2.76294712,4.97945137 2.19815699,5.84107953 1.63851511,6.87946009 Z M7,0.7 C9.57732883,0.7 11.9106622,2.8 14,7 C13.3174501,8.37206612 12.6088606,9.5200173 11.8742316,10.4438536 L10.8786488,9.44954003 C11.3759481,8.80585963 11.8706962,8.0311677 12.3614849,7.12053991 L12.425,7 L12.3614849,6.87946009 C10.6464268,3.69727697 8.88301882,2.17507273 7.13135205,2.10271189 L7,2.1 C6.17371888,2.1 5.34448882,2.42166742 4.51862382,3.08708194 L3.52510903,2.09381739 C4.62942424,1.1646058 5.78772124,0.7 7,0.7 Z M5.6,7 C5.6,7.77319865 6.22680135,8.4 7,8.4 C7.13426652,8.4 7.26411849,8.38109907 7.38704034,8.34581277 L5.65423142,6.61280574 C5.61891671,6.73577311 5.6,6.86567744 5.6,7 Z M7,4.2 C8.5463973,4.2 9.8,5.4536027 9.8,7 C9.8,7.4021028 9.71523981,7.78440879 9.56261156,8.13002584 L8.398,6.96673976 L8.39359119,6.86517066 C8.32678853,6.16607521 7.74586594,5.61700144 7.03326143,5.60038736 L5.86898365,4.43782609 C6.21486071,4.28492223 6.59751303,4.2 7,4.2 Z" id="形状结合"></path>
            </g>
        </g>
    </g>
</svg>