<?xml version="1.0" encoding="UTF-8"?>
<svg width="14px" height="14px" viewBox="0 0 14 14" version="1.1" xmlns="http://www.w3.org/2000/svg" xmlns:xlink="http://www.w3.org/1999/xlink">
    <title>Icon/提醒备份</title>
    <g id="页面-1" stroke="none" stroke-width="1" fill="none" fill-rule="evenodd">
        <g id="基金-购买" transform="translate(-340, -565)" fill="#A9AAAC" fill-rule="nonzero">
            <g id="Icon/提醒备份" transform="translate(340, 565)">
                <path d="M7,0 C10.7969577,0 13.8878378,3.0230773 13.9970156,6.79360714 L14,7 C14,10.8659932 10.8659932,14 7,14 C3.13400675,14 0,10.8659932 0,7 C0,3.13400675 3.13400675,0 7,0 Z M7,1.4 C3.9072054,1.4 1.4,3.9072054 1.4,7 C1.4,10.0927946 3.9072054,12.6 7,12.6 C10.0927946,12.6 12.6,10.0927946 12.6,7 L12.5976021,6.83412794 C12.5101035,3.81230475 10.0311526,1.4 7,1.4 Z" id="路径"></path>
            </g>
        </g>
    </g>
</svg>