<?xml version="1.0" encoding="UTF-8"?>
<svg width="16px" height="16px" viewBox="0 0 16 16" version="1.1" xmlns="http://www.w3.org/2000/svg" xmlns:xlink="http://www.w3.org/1999/xlink">
    <title>Icon/加息券</title>
    <g id="页面-1" stroke="none" stroke-width="1" fill="none" fill-rule="evenodd">
        <g id="基金-购买" transform="translate(-24, -557)" fill="#212634" fill-rule="nonzero">
            <g id="Icon/加息券" transform="translate(24, 557)">
                <path d="M13.8369964,0.8 C15.0303991,0.8 16,1.76951167 16,2.96359826 L16,5.73050306 C16,6.45756199 15.8072437,6.91415917 15.1670831,7.33889164 L15.1029425,7.37725775 C14.4980271,7.70172796 14.4435601,7.77199056 14.4435678,8.06646463 C14.4435678,8.35867074 14.5120047,8.44768395 15.0707074,8.73498948 L15.1806741,8.80331835 C15.7617316,9.23322159 16,9.66134175 16,10.4003117 L16,13.1017783 C16,14.2952923 15.030212,15.2660538 13.837013,15.2660538 L2.16292096,15.2660538 C0.969784121,15.2660538 0,14.2952718 0,13.1017783 L0,10.4002951 C0,9.78825754 0.238157797,9.17610223 0.879628722,8.77513052 L0.965697783,8.72839991 L1.008335,8.70852677 L1.08922389,8.67606308 C1.45676621,8.55133744 1.55636609,8.444379 1.55636609,8.06646463 C1.55636609,7.81828316 1.31935183,7.57881396 0.923062419,7.39094135 C0.216910868,7.01087178 0,6.49896719 0,5.73048655 L0,2.96359827 C0,1.76953183 0.969564259,0.8 2.16290443,0.8 L13.8369964,0.8 Z M13.8369964,2.4 L2.16290443,2.4 C1.85320788,2.4 1.6,2.65319941 1.6,2.96359827 L1.6,5.73048655 C1.6,5.96938513 1.58291271,5.92905951 1.64301497,5.96271734 C2.50322234,6.36775797 3.15636609,7.02766684 3.15636609,8.06646463 C3.15636609,9.22567613 2.55936101,9.86678863 1.60338598,10.1911992 L1.6936,10.1584 L1.67977954,10.1703451 C1.63793702,10.2132763 1.61398229,10.2691046 1.60462008,10.3333753 L1.6,10.4002951 L1.6,13.1017783 C1.6,13.4119844 1.85380829,13.6660538 2.16292096,13.6660538 L13.837013,13.6660538 C14.1461968,13.6660538 14.4,13.4119958 14.4,13.1017783 L14.4004396,10.2944987 C14.3985045,10.2020814 14.3776394,10.1994936 14.2290388,10.0895494 L14.2776,10.1248 L14.1702405,10.0677722 C13.2993076,9.58424546 12.8925937,9.04842331 12.8477586,8.22442073 L12.8435678,8.06648554 C12.8435424,7.09556451 13.2708533,6.54433146 14.3466488,5.9672862 L14.316,5.984 L14.3233154,5.97955059 C14.405728,5.92841864 14.4026302,5.93599955 14.400568,5.79877338 L14.4,2.96359826 C14.4,2.65320025 14.1467764,2.4 13.8369964,2.4 Z" id="路径"></path>
                <path d="M10.5308356,7.43778113 C10.5308356,7.65329653 10.3558264,7.82899955 10.1409883,7.82899955 L8.58607599,7.82899955 L8.58607599,8.21451871 L10.1409883,8.21451871 C10.3558264,8.21451871 10.5308356,8.39022174 10.5308356,8.60573713 L10.5308356,8.99414721 C10.5308356,9.20966261 10.3558264,9.38681936 10.1409883,9.38681936 L8.58607599,9.38681936 L8.58607599,10.5512567 C8.58607599,10.7674659 8.41106678,10.9417317 8.19485757,10.9417317 L7.80507634,10.9417317 C7.58880104,10.9417317 7.41377532,10.7674659 7.41377532,10.5512567 L7.41377532,9.38681936 L5.85886296,9.38681936 C5.64410746,9.38681936 5.46908174,9.20966259 5.46908174,8.99414721 L5.46908174,8.60573713 C5.46908174,8.39022172 5.64410746,8.21451871 5.85886296,8.21451871 L7.41377532,8.21451871 L7.41377532,7.82899955 L5.85886296,7.82899955 C5.64410746,7.82899955 5.46908174,7.65329652 5.46908174,7.43778113 L5.46908174,7.04938757 C5.46908174,6.83387217 5.64410746,6.65815262 5.85886296,6.65815262 L6.8817764,6.65815262 L5.58851883,5.27041915 C5.45195087,5.11885134 5.45195087,4.8827029 5.58851883,4.73265488 L5.83608236,4.46300458 C5.97265033,4.3150876 6.23727865,4.31226274 6.37384664,4.46300458 L7.99848844,6.20648877 L9.62313025,4.46164997 C9.75834361,4.3136504 10.0257638,4.3136504 10.1608945,4.46302109 L10.4112829,4.73480243 C10.5478509,4.88630417 10.5478509,5.12388983 10.4112829,5.27393783 L9.12240305,6.65815262 L10.1409883,6.65815262 C10.3558264,6.65815262 10.5308356,6.83385565 10.5308356,7.04938757 L10.5308356,7.43778113 Z" id="路径"></path>
            </g>
        </g>
    </g>
</svg>