<?xml version="1.0" encoding="UTF-8"?>
<svg width="16px" height="16px" viewBox="0 0 16 16" version="1.1" xmlns="http://www.w3.org/2000/svg" xmlns:xlink="http://www.w3.org/1999/xlink">
    <title>Icon/基金备份 9</title>
    <g id="页面-1" stroke="none" stroke-width="1" fill="none" fill-rule="evenodd">
        <g id="个人-资产管理-4备份-2" transform="translate(-76, -371)" fill="#4297FE" fill-rule="nonzero">
            <g id="Icon/基金备份-9" transform="translate(76, 371)">
                <path d="M12,0 C14.209139,0 16,1.790861 16,4 L16,4.07752619 C16,4.51935399 15.6418278,4.87752619 15.2,4.87752619 C14.7581722,4.87752619 14.4,4.51935399 14.4,4.07752619 L14.4,4 C14.4,2.6745166 13.3254834,1.6 12,1.6 L4,1.6 C2.6745166,1.6 1.6,2.6745166 1.6,4 L1.6,12 C1.6,13.3254834 2.6745166,14.4 4,14.4 L12.0538859,14.4 C13.3496089,14.4 14.4,13.3496089 14.4,12.0538859 C14.4,11.6120581 14.7581722,11.2538859 15.2,11.2538859 C15.6418278,11.2538859 16,11.6120581 16,12.0538859 C16,14.2332645 14.2332645,16 12.0538859,16 L4,16 C1.790861,16 0,14.209139 0,12 L0,4 C0,1.790861 1.790861,0 4,0 L12,0 Z" id="路径"></path>
                <path d="M4.59033193,3.83431458 C4.90275136,3.52189514 5.40928334,3.52189514 5.72170278,3.83431458 L8.92170278,7.03431458 C9.23412221,7.34673401 9.23412221,7.85326599 8.92170278,8.16568542 L5.72170278,11.3656854 C5.40928334,11.6781049 4.90275136,11.6781049 4.59033193,11.3656854 C4.27791249,11.053266 4.27791249,10.546734 4.59033193,10.2343146 L7.22401735,7.6 L4.59033193,4.96568542 C4.30194476,4.67729826 4.27976113,4.22351341 4.52378104,3.90968045 L4.59033193,3.83431458 Z" id="路径" transform="translate(6.756, 7.6) scale(-1, 1) translate(-6.756, -7.6)"></path>
                <path d="M14.9780087,6.8 C15.4198365,6.8 15.7780087,7.1581722 15.7780087,7.6 C15.7780087,8.0418278 15.4198365,8.4 14.9780087,8.4 L5.15601735,8.4 C4.71418955,8.4 4.35601735,8.0418278 4.35601735,7.6 C4.35601735,7.1581722 4.71418955,6.8 5.15601735,6.8 L14.9780087,6.8 Z" id="路径-5" transform="translate(10.067, 7.6) scale(-1, 1) translate(-10.067, -7.6)"></path>
                <path d="M10.5920033,10.4040071 L10.5880086,10.407669 C10.5273277,10.4668974 10.4926729,10.5478136 10.4916739,10.6326026 C10.4906749,10.7173916 10.5234137,10.7991017 10.5826822,10.8597434 L10.9249005,11.2102841 L10.5657045,11.2102841 C10.3963749,11.2102841 10.2591062,11.3475528 10.2591062,11.5168824 C10.2591062,11.686212 10.3963749,11.8234807 10.5657045,11.8234807 L11.2577977,11.8234807 L11.2577977,12.130079 L10.5657045,12.130079 C10.3963749,12.130079 10.2591062,12.2673477 10.2591062,12.4366773 C10.2591062,12.6060069 10.3963749,12.7432756 10.5657045,12.7432756 L11.2577977,12.7432756 L11.2577977,13.1770406 C11.2577977,13.3608947 11.4068408,13.5099378 11.5906949,13.5099378 C11.7745489,13.5099378 11.9235921,13.3608947 11.9235921,13.1770406 L11.9235921,12.7432756 L12.6156853,12.7432756 C12.7850149,12.7432756 12.9222836,12.6060069 12.9222836,12.4366773 C12.9222836,12.2673477 12.7850149,12.130079 12.6156853,12.130079 L11.9235921,12.130079 L11.9235921,11.8238136 L12.6156853,11.8238136 C12.7851068,11.8238136 12.92245,11.6864704 12.92245,11.5170489 C12.92245,11.3476274 12.7851068,11.2102841 12.6156853,11.2102841 L12.2564892,11.2102841 L12.5977088,10.8587447 C12.6571011,10.7976605 12.6894903,10.7152938 12.6876128,10.6301164 C12.6857353,10.544939 12.6497481,10.4640794 12.5877219,10.4056716 C12.4559763,10.2812994 12.2500825,10.2812994 12.1183369,10.4056716 L11.5906949,10.9033529 L11.0643844,10.4040071 C10.9319012,10.2785814 10.7244866,10.2785814 10.5920033,10.4040071 Z" id="路径备份"></path>
            </g>
        </g>
    </g>
</svg>