<?xml version="1.0" encoding="UTF-8"?>
<svg width="16px" height="16px" viewBox="0 0 16 16" version="1.1" xmlns="http://www.w3.org/2000/svg" xmlns:xlink="http://www.w3.org/1999/xlink">
    <title>Icon/资产备份 2</title>
    <g id="页面-1" stroke="none" stroke-width="1" fill="none" fill-rule="evenodd">
        <g id="个人-资产管理-4备份-2" transform="translate(-24, -120)" fill="#FFFFFF" fill-rule="nonzero">
            <g id="Icon/资产备份-2" transform="translate(24, 120)">
                <path d="M12.7479062,1.99999969 C13.5962112,1.99999969 14.2971528,2.66187417 14.3455062,3.5088 L14.9135062,13.4632 C14.9511248,14.1221007 14.7157501,14.7674156 14.2627434,15.2473637 C13.8097366,15.7273117 13.1790797,15.9995331 12.5191062,15.9999997 L3.19990617,15.9999997 C2.53965459,15.9999997 1.90857602,15.7279439 1.45521842,15.2479449 C1.00186081,14.767946 0.766271841,14.1223781 0.803906182,13.4632 L1.37270618,3.5088 C1.42107701,2.66156571 2.12249237,1.99946893 2.97110618,1.99999969 L12.7487062,1.99999969 L12.7479062,1.99999969 Z M5.45910617,5.736 L5.44950617,5.74480001 C5.30368128,5.88713441 5.22040076,6.0815876 5.21800005,6.2853478 C5.21559934,6.48910799 5.29427527,6.68546935 5.43670617,6.8312 L6.25910618,7.6736 L5.39590617,7.6736 C4.98898276,7.6736 4.65910617,8.0034766 4.65910617,8.4104 C4.65910617,8.8173234 4.98898276,9.1472 5.39590617,9.1472 L7.05910616,9.1472 L7.05910616,9.884 L5.39590617,9.884 C4.98898276,9.884 4.65910617,10.2138766 4.65910617,10.6208 C4.65910617,11.0277234 4.98898276,11.3576 5.39590617,11.3576 L7.05910616,11.3576 L7.05910616,12.4 C7.05910616,12.8418278 7.41727837,13.2 7.85910617,13.2 C8.30093397,13.2 8.65910617,12.8418278 8.65910617,12.4 L8.65910617,11.3576 L10.3223062,11.3576 C10.7292296,11.3576 11.0591062,11.0277234 11.0591062,10.6208 C11.0591062,10.2138766 10.7292296,9.884 10.3223062,9.884 L8.65910617,9.884 L8.65910617,9.14800001 L10.3223062,9.14800001 C10.7294505,9.14800001 11.0595062,8.81794432 11.0595062,8.4108 C11.0595062,8.00365568 10.7294505,7.6736 10.3223062,7.6736 L9.45910616,7.6736 L10.2791062,6.8288 C10.4218343,6.68200598 10.4996704,6.48406669 10.4951584,6.27937314 C10.4906464,6.07467959 10.404164,5.88036231 10.2551062,5.74000001 C9.9385024,5.44111556 9.44370995,5.44111556 9.12710618,5.74000001 L7.85910617,6.93599999 L6.59430617,5.736 C6.27592979,5.43458376 5.77748255,5.43458376 5.45910617,5.736 Z M11.8591062,0 C13.1299523,-7.07961228e-05 14.1805499,0.99054278 14.2551062,2.2592 L14.2591062,2.4 C14.2591062,1.7372583 13.7218479,1.2 13.0591062,1.2 L2.65910618,1.2 C2.04100865,1.20002966 1.52404353,1.66955725 1.46470617,2.2848 L1.45910618,2.4 C1.45910618,1.0745166 2.53362278,0 3.85910618,0 L11.8591062,0 L11.8591062,0 Z" id="形状"></path>
            </g>
        </g>
    </g>
</svg>