<?xml version="1.0" encoding="UTF-8"?>
<svg width="16px" height="16px" viewBox="0 0 16 16" version="1.1" xmlns="http://www.w3.org/2000/svg" xmlns:xlink="http://www.w3.org/1999/xlink">
    <title>Icon/基金备份 8</title>
    <g id="页面-1" stroke="none" stroke-width="1" fill="none" fill-rule="evenodd">
        <g id="个人-资产管理-4备份-2" transform="translate(-263, -371)" fill="#FFFFFF">
            <g id="Icon/基金备份-8" transform="translate(263, 371)">
                <path d="M12,0 C14.209139,0 16,1.790861 16,4 L16,4.07752619 C16,4.51935399 15.6418278,4.87752619 15.2,4.87752619 C14.7581722,4.87752619 14.4,4.51935399 14.4,4.07752619 L14.4,4 C14.4,2.6745166 13.3254834,1.6 12,1.6 L4,1.6 C2.6745166,1.6 1.6,2.6745166 1.6,4 L1.6,12 C1.6,13.3254834 2.6745166,14.4 4,14.4 L12.0538859,14.4 C13.3496089,14.4 14.4,13.3496089 14.4,12.0538859 C14.4,11.6120581 14.7581722,11.2538859 15.2,11.2538859 C15.6418278,11.2538859 16,11.6120581 16,12.0538859 C16,14.2332645 14.2332645,16 12.0538859,16 L4,16 C1.790861,16 0,14.209139 0,12 L0,4 C0,1.790861 1.790861,0 4,0 L12,0 Z" id="路径" fill-rule="nonzero"></path>
                <g id="编组" stroke-width="1" fill-rule="evenodd" transform="translate(9.956, 7.2) scale(-1, 1) translate(-9.956, -7.2)translate(3.556, 2.8)">
                    <path d="M1.03431458,1.03431458 C1.34673401,0.721895142 1.85326599,0.721895142 2.16568542,1.03431458 L5.36568542,4.23431458 C5.67810486,4.54673401 5.67810486,5.05326599 5.36568542,5.36568542 L2.16568542,8.56568542 C1.85326599,8.87810486 1.34673401,8.87810486 1.03431458,8.56568542 C0.721895142,8.25326599 0.721895142,7.74673401 1.03431458,7.43431458 L3.668,4.8 L1.03431458,2.16568542 C0.745927406,1.87729826 0.723743777,1.42351341 0.96776369,1.10968045 L1.03431458,1.03431458 Z" id="路径" fill-rule="nonzero" transform="translate(3.2, 4.8) scale(-1, 1) translate(-3.2, -4.8)"></path>
                    <path d="M11.4219913,4 C11.8638191,4 12.2219913,4.3581722 12.2219913,4.8 C12.2219913,5.2418278 11.8638191,5.6 11.4219913,5.6 L1.6,5.6 C1.1581722,5.6 0.8,5.2418278 0.8,4.8 C0.8,4.3581722 1.1581722,4 1.6,4 L11.4219913,4 Z" id="路径-5" fill-rule="nonzero" transform="translate(6.511, 4.8) scale(-1, 1) translate(-6.511, -4.8)"></path>
                </g>
                <path d="M4.19200335,10.4040071 L4.18800858,10.407669 C4.12732771,10.4668974 4.0926729,10.5478136 4.09167391,10.6326026 C4.09067493,10.7173916 4.12341367,10.7991017 4.18268222,10.8597434 L4.52490053,11.2102841 L4.16570447,11.2102841 C3.9963749,11.2102841 3.85910617,11.3475528 3.85910617,11.5168824 C3.85910617,11.686212 3.9963749,11.8234807 4.16570447,11.8234807 L4.8577977,11.8234807 L4.8577977,12.130079 L4.16570447,12.130079 C3.9963749,12.130079 3.85910617,12.2673477 3.85910617,12.4366773 C3.85910617,12.6060069 3.9963749,12.7432756 4.16570447,12.7432756 L4.8577977,12.7432756 L4.8577977,13.1770406 C4.8577977,13.3608947 5.00684084,13.5099378 5.19069488,13.5099378 C5.37454891,13.5099378 5.52359206,13.3608947 5.52359206,13.1770406 L5.52359206,12.7432756 L6.21568529,12.7432756 C6.38501486,12.7432756 6.52228359,12.6060069 6.52228359,12.4366773 C6.52228359,12.2673477 6.38501486,12.130079 6.21568529,12.130079 L5.52359206,12.130079 L5.52359206,11.8238136 L6.21568529,11.8238136 C6.38510678,11.8238136 6.52245004,11.6864704 6.52245004,11.5170489 C6.52245004,11.3476274 6.38510678,11.2102841 6.21568529,11.2102841 L5.85648923,11.2102841 L6.19770884,10.8587447 C6.25710109,10.7976605 6.28949034,10.7152938 6.28761281,10.6301164 C6.28573528,10.544939 6.24974809,10.4640794 6.18772193,10.4056716 C6.0559763,10.2812994 5.85008254,10.2812994 5.71833691,10.4056716 L5.19069488,10.9033529 L4.66438444,10.4040071 C4.53190119,10.2785814 4.32448659,10.2785814 4.19200335,10.4040071 Z" id="路径" fill-rule="nonzero"></path>
            </g>
        </g>
    </g>
</svg>