<?xml version="1.0" encoding="UTF-8"?>
<svg width="128px" height="84px" viewBox="0 0 128 84" version="1.1" xmlns="http://www.w3.org/2000/svg" xmlns:xlink="http://www.w3.org/1999/xlink">
    <title>编组备份 5</title>
    <g id="页面-1" stroke="none" stroke-width="1" fill="none" fill-rule="evenodd">
        <g id="资讯备份-7" transform="translate(-207, -685)" fill="#4297FE">
            <g id="编组备份-5" transform="translate(207, 685)">
                <path d="M123.792893,0.5 L127.5,4.20710678 L127.5,77.7928932 L123.792893,81.5 L92.7828769,81.5 L90.9142818,83.5 L6.20710678,83.5 L2.5,79.7928932 L2.5,42.690983 L0.5,41.690983 L0.5,6.20710678 L4.20710678,2.5 L49.2071068,2.5 L51.2071068,0.5 L123.792893,0.5 Z" id="矩形-2" stroke="#4297FE" fill-opacity="0.1"></path>
                <polygon id="矩形-6" points="85 1 118 1 118 3 85 3"></polygon>
                <polygon id="矩形-3" points="0 13 3 12 3 28 0 27"></polygon>
                <polygon id="矩形-3备份-2" points="125 24 128 23 128 59 125 48"></polygon>
                <polygon id="矩形-3备份" transform="translate(1.5, 68) scale(-1, 1) translate(-1.5, -68)" points="0 61 3 60 3 76 0 75"></polygon>
                <rect id="矩形-6备份-2" x="9" y="81" width="14" height="2"></rect>
                <rect id="矩形-6备份-3" x="24" y="81" width="14" height="2"></rect>
                <rect id="矩形-6备份-4" x="39" y="81" width="14" height="2"></rect>
                <path d="M48,0 L46,2 L44,2 L46,0 L48,0 Z M44,0 L42,2 L40,2 L42,0 L44,0 Z M40,0 L38,2 L36,2 L38,0 L40,0 Z M36,0 L34,2 L32,2 L34,0 L36,0 Z M32,0 L30,2 L28,2 L30,0 L32,0 Z M28,0 L26,2 L24,2 L26,0 L28,0 Z M24,0 L22,2 L20,2 L22,0 L24,0 Z M20,0 L18,2 L16,2 L18,0 L20,0 Z" id="形状结合"></path>
                <path d="M94,82 L96,82 L96,84 L94,84 L94,82 Z M100,82 L102,82 L102,84 L100,84 L100,82 Z M106,82 L108,82 L108,84 L106,84 L106,82 Z M112,82 L114,82 L114,84 L112,84 L112,82 Z M118,82 L120,82 L120,84 L118,84 L118,82 Z" id="形状结合"></path>
            </g>
        </g>
    </g>
</svg>