<?xml version="1.0" encoding="UTF-8"?>
<svg width="32px" height="32px" viewBox="0 0 32 32" version="1.1" xmlns="http://www.w3.org/2000/svg" xmlns:xlink="http://www.w3.org/1999/xlink">
    <title>编组</title>
    <defs>
        <linearGradient x1="7.61890551e-13%" y1="50%" x2="100%" y2="50%" id="linearGradient-1">
            <stop stop-color="#EF984B" offset="0%"></stop>
            <stop stop-color="#EF7A4E" offset="100%"></stop>
        </linearGradient>
    </defs>
    <g id="页面-1" stroke="none" stroke-width="1" fill="none" fill-rule="evenodd">
        <g id="资讯备份-7" transform="translate(-103, -698)">
            <g id="编组" transform="translate(103, 698)">
                <rect id="矩形-3" fill="url(#linearGradient-1)" x="0" y="0" width="32" height="32" rx="8"></rect>
                <path d="M17.3439375,8 C18.9405144,8 20.1932933,8 21.1817125,8.11069253 C22.1909679,8.22529185 23.0100926,8.46230408 23.6898749,9.00013953 C23.8930282,9.16031812 24.0818567,9.33872843 24.2537556,9.53016139 C24.8319613,10.1799916 25.0898098,10.9652574 25.213525,11.9302358 C25.2265476,12.0409283 25.2343612,12.0969257 25.2213385,12.1451095 C25.2001709,12.2246849 25.1434662,12.2900394 25.0676713,12.3222176 C25.0207897,12.3404493 24.9621878,12.3404493 24.844984,12.3404493 L7.15501605,12.3404493 C7.03781219,12.3404493 6.97921027,12.3404493 6.93363099,12.3222176 C6.85671771,12.2908574 6.79889855,12.225329 6.77735919,12.1451095 C6.76760857,12.0735122 6.77069545,12.0007501 6.78647505,11.9302358 C6.90888796,10.9665597 7.1680387,10.1799916 7.74624436,9.53016139 C7.91847021,9.3374613 8.10714251,9.16011805 8.31012511,9.00013953 C8.98990745,8.46230408 9.80772987,8.22529185 10.8169853,8.11069253 C11.8067067,8 13.0594856,8 14.6560625,8 L17.3439375,8 L17.3439375,8 Z M25.3333333,15.6416911 C25.3333333,17.1392958 25.3333333,18.324357 25.213525,19.2619878 C25.0898098,20.2256639 24.8319613,21.012232 24.2537556,21.66076 C24.0815626,21.8538885 23.8928907,22.031667 23.6898749,22.1920841 C23.0100926,22.7299195 22.1922701,22.9669318 21.1830147,23.0815311 C20.1932933,23.1922236 18.9405144,23.1922236 17.3439375,23.1922236 L14.6560625,23.1922236 C13.0594856,23.1922236 11.8054044,23.1922236 10.8169853,23.0815311 C9.80903214,22.9669318 8.98990745,22.7299195 8.31012511,22.1920841 C8.10710065,22.031677 7.91842796,21.8538977 7.74624436,21.66076 C7.1680387,21.012232 6.90888796,20.2269662 6.78647505,19.2619878 C6.66666667,18.324357 6.66666667,17.1392958 6.66666667,15.6416911 L6.66666667,15.5505325 C6.66666667,15.0504628 6.66666667,14.5855542 6.67187573,14.1518999 C6.67448026,13.9135854 6.67448026,13.793777 6.75001163,13.7182457 C6.82814753,13.6427143 6.94795591,13.6427143 7.18887494,13.6427143 L24.8111251,13.6427143 C25.0520441,13.6427143 25.1718525,13.6427143 25.2486861,13.7182457 C25.3242175,13.793777 25.326822,13.9135854 25.3281243,14.1518999 C25.3333333,14.5855542 25.3333333,15.0504628 25.3333333,15.5492303 L25.3333333,15.6416911 Z M14.4802567,19.0692526 C14.4802567,19.4288631 14.7717787,19.7203851 15.1313892,19.7203851 L16.4336542,19.7203851 C16.7932648,19.7203851 17.0847868,19.4288631 17.0847868,19.0692526 C17.0847868,18.709642 16.7932648,18.4181201 16.4336542,18.4181201 L15.1313892,18.4181201 C14.7717787,18.4181201 14.4802567,18.709642 14.4802567,19.0692526 Z M19.0381843,18.4181201 C18.6785737,18.4181201 18.3870518,18.709642 18.3870518,19.0692526 C18.3870518,19.4288631 18.6785737,19.7203851 19.0381843,19.7203851 L22.0776708,19.7203851 C22.4372814,19.7203851 22.7288033,19.4288631 22.7288033,19.0692526 C22.7288033,18.709642 22.4372814,18.4181201 22.0776708,18.4181201 L19.0381843,18.4181201 Z" id="形状" fill="#FFFFFF" fill-rule="nonzero"></path>
            </g>
        </g>
    </g>
</svg>