<?xml version="1.0" encoding="UTF-8"?>
<svg width="366px" height="55px" viewBox="0 0 366 55" version="1.1" xmlns="http://www.w3.org/2000/svg" xmlns:xlink="http://www.w3.org/1999/xlink">
    <title>编组</title>
    <g id="页面-1" stroke="none" stroke-width="1" fill="none" fill-rule="evenodd">
        <g id="资讯备份-12" transform="translate(-12, -288)">
            <g id="编组" transform="translate(12, 287)">
                <g id="编组备份-5" transform="translate(0, 1)">
                    <g id="编组">
                        <path d="M0,47 L0,36 L4,33 L4,46 L9,51 L42,51 L39,55 L8,55 L0,47 Z" id="形状结合" fill="#FFBF3D"></path>
                        <path d="M7.5,26.5 L7.5,-4.5 L11.5,-7.5 L11.5,25.5 L16.5,30.5 L34.5,30.5 L31.5,34.5 L15.5,34.5 L7.5,26.5 Z" id="形状结合备份" fill="#FFBF3D" transform="translate(21, 13.5) rotate(90) translate(-21, -13.5)"></path>
                        <path d="M357.792893,0.5 L365.5,8.20710678 L365.5,46.7928932 L357.792893,54.5 L155.207107,54.5 L152.207107,51.5 L109.792893,51.5 L106.792893,54.5 L8.20710678,54.5 L0.5,46.7928932 L0.5,11.2071068 L8.20710678,3.5 L268.207107,3.5 L271.207107,0.5 L357.792893,0.5 Z" id="蒙版" stroke="#FFBF3D"></path>
                        <polygon id="矩形" fill="#FFBF3D" points="44 51 50 51 47 55 41 55"></polygon>
                        <polygon id="矩形备份" fill="#FFBF3D" points="52 51 56 51 53 55 49 55"></polygon>
                        <polygon id="矩形备份-2" fill="#FFBF3D" points="58 51 61 51 58 55 55 55"></polygon>
                        <polygon id="矩形-5" fill="#FFBF3D" points="110 53 152 53 154.046997 55 108.14663 55"></polygon>
                        <rect id="矩形-6" fill="#FFBF3D" x="286" y="0" width="33" height="4"></rect>
                        <polygon id="矩形-6备份" fill="#FFBF3D" points="84 0 117 0 120 4 81 4"></polygon>
                        <path d="M269,0 L267,2 L265,2 L267,0 L269,0 Z M265,0 L263,2 L261,2 L263,0 L265,0 Z M261,0 L259,2 L257,2 L259,0 L261,0 Z M257,0 L255,2 L253,2 L255,0 L257,0 Z M253,0 L251,2 L249,2 L251,0 L253,0 Z M249,0 L247,2 L245,2 L247,0 L249,0 Z M245,0 L243,2 L241,2 L243,0 L245,0 Z M241,0 L239,2 L237,2 L239,0 L241,0 Z" id="形状结合" fill="#FFBF3D"></path>
                        <path d="M49,0 L51,0 L51,2 L49,2 Z M55,0 L57,0 L57,2 L55,2 Z M61,0 L63,0 L63,2 L61,2 Z M67,0 L69,0 L69,2 L67,2 Z M73,0 L75,0 L75,2 L73,2 Z" id="形状结合" fill="#FFBF3D"></path>
                    </g>
                    <rect id="矩形" fill="#FFBF3D" x="290" y="52" width="65" height="1"></rect>
                    <polygon id="矩形-5" fill="#FFBF3D" points="362 10 363 10 363 23 362 23"></polygon>
                </g>
                <path d="M353.792893,5.5 L361.5,13.2071068 L361.5,43.7928932 L353.792893,51.5 L12.2071068,51.5 L4.5,43.7928932 L4.5,13.2071068 L12.2071068,5.5 L353.792893,5.5 Z" id="矩形-2" stroke="#FFBF3D" fill="#FFFFFF"></path>
            </g>
        </g>
    </g>
</svg>