<?xml version="1.0" encoding="UTF-8"?>
<svg width="16px" height="16px" viewBox="0 0 16 16" version="1.1" xmlns="http://www.w3.org/2000/svg" xmlns:xlink="http://www.w3.org/1999/xlink">
    <title>Icon/爱心基金备份 9</title>
    <g id="页面-1" stroke="none" stroke-width="1" fill="none" fill-rule="evenodd">
        <g id="登录-3" transform="translate(-326, -519)" fill="#A7A6A5" fill-rule="nonzero">
            <g id="Icon/爱心基金备份-9" transform="translate(326, 519)">
                <path d="M2.18008542,1.01230288 L15.0053096,13.837527 C15.317729,14.1499465 15.317729,14.6564784 15.0053096,14.9688979 C14.6928901,15.2813173 14.1863582,15.2813173 13.8739387,14.9688979 L12.2587038,13.355086 C10.9105883,14.5850287 9.49102042,15.2 8,15.2 C5.05448133,15.2 2.38781467,12.8 0,8 C0.855079499,6.28111384 1.74591801,4.86999534 2.67251554,3.76664452 L1.04871458,2.14367373 C0.736295142,1.83125429 0.736295142,1.32472231 1.04871458,1.01230288 C1.36113401,0.699883442 1.86766599,0.699883442 2.18008542,1.01230288 Z M1.8725887,7.8622401 L1.7992,8 L1.8725887,8.1377599 C3.83265505,11.7745406 5.8479785,13.5142026 7.84988337,13.5969007 L8,13.6 C9.04174147,13.6 10.0875844,13.1526171 11.1278412,12.2239743 L9.64787116,10.7436468 C9.16653877,11.0333633 8.60272942,11.2 8,11.2 C6.2326888,11.2 4.8,9.7673112 4.8,8 C4.8,7.39727058 4.96663668,6.83346123 5.25635315,6.35212884 L3.80680429,4.89952468 C3.15777218,5.69062105 2.51223805,6.67541068 1.8725887,7.8622401 Z M8,0.8 C10.9455187,0.8 13.6121853,3.2 16,8 C15.220161,9.56763714 14.4105793,10.8792861 13.5712546,11.934947 L12.4337544,10.7981631 C13.0017554,10.0627876 13.5668431,9.1778591 14.1274113,8.1377599 L14.2,8 L14.1274113,7.8622401 C12.167345,4.2254594 10.1520215,2.4857974 8.15011663,2.4030993 L8,2.4 C7.05593047,2.4 6.10849253,2.76742392 5.16489638,3.52748552 L4.02958988,2.39218214 C5.29139559,1.33072738 6.61486563,0.8 8,0.8 Z M6.4,8 C6.4,8.8836556 7.1163444,9.6 8,9.6 C8.15334703,9.6 8.30165546,9.5784272 8.442056,9.53815089 L6.46184911,7.557944 C6.4215728,7.69834454 6.4,7.84665297 6.4,8 Z M8,4.8 C9.7673112,4.8 11.2,6.2326888 11.2,8 C11.2,8.45976319 11.1030396,8.89688008 10.9284516,9.29201798 L9.598,7.9619883 L9.59346132,7.85436739 C9.52102395,7.05153167 8.85554797,6.41974216 8.03848836,6.40045385 L6.70798202,5.07154839 C7.10311992,4.89696036 7.54023681,4.8 8,4.8 Z" id="形状结合"></path>
            </g>
        </g>
    </g>
</svg>