<?xml version="1.0" encoding="UTF-8"?>
<svg width="14px" height="14px" viewBox="0 0 14 14" version="1.1" xmlns="http://www.w3.org/2000/svg" xmlns:xlink="http://www.w3.org/1999/xlink">
    <title>Icon/多选</title>
    <g id="页面-1" stroke="none" stroke-width="1" fill="none" fill-rule="evenodd">
        <g id="登录-3" transform="translate(-28, -561)" fill="#BE5828" fill-rule="nonzero">
            <g id="Icon/多选" transform="translate(28, 561)">
                <path d="M7,0 C10.862963,0 14,3.13703704 14,7 C14,10.862963 10.862963,14 7,14 C3.13703704,14 0,10.862963 0,7 C0,3.13703704 3.13703704,0 7,0 Z M9.37518696,4.52156475 C9.18358637,4.52061354 8.99161929,4.59274601 8.84469999,4.73819936 L5.86802628,7.68517195 L4.9991882,6.82401141 C4.85004795,6.70759471 4.66699868,6.65545134 4.48750667,6.6677818 C4.313325,6.67974746 4.14252175,6.75232489 4.00942856,6.88554364 C3.8632859,7.03182417 3.79031651,7.22348714 3.79031651,7.41512608 C3.79031651,7.60676502 3.86353793,7.79837992 4.00977675,7.94456432 L5.86301827,9.79711626 L9.89814403,5.80256717 C10.0450986,5.65709034 10.1191798,5.46582143 10.1201541,5.27416859 C10.1211091,5.08254086 10.0489763,4.8905264 9.90349177,4.74352499 C9.75802166,4.59658875 9.56678755,4.5225349 9.37518696,4.52156475 Z" id="形状结合"></path>
            </g>
        </g>
    </g>
</svg>