<?xml version="1.0" encoding="UTF-8"?>
<svg width="16px" height="16px" viewBox="0 0 16 16" version="1.1" xmlns="http://www.w3.org/2000/svg" xmlns:xlink="http://www.w3.org/1999/xlink">
    <title>Icon/资产</title>
    <g id="页面-1" stroke="none" stroke-width="1" fill="none" fill-rule="evenodd">
        <g id="个人-我的持有" transform="translate(-20, -233)" fill="#7B531D" fill-rule="nonzero">
            <g id="Icon/资产" transform="translate(20, 233)">
                <path d="M8,0 C5.14187533,0 2.50085916,1.52479132 1.07179678,4 C-0.357265594,6.47520855 -0.357265594,9.52479133 1.07179678,12 C2.50085916,14.4752086 5.14187533,16 8,16 C12.418278,16 16,12.4182779 16,8 C16,3.58172197 12.418278,0 8,0 L8,0 Z M3.6880001,7.29299994 C3.78561026,7.17307202 3.92693323,7.09691797 4.08077719,7.08134596 C4.23462115,7.06577395 4.38833787,7.11206423 4.50800009,7.20999995 L5.08700008,7.68599995 L6.29200008,6.08799996 C6.38869677,5.9609945 6.53309315,5.87901874 6.69170854,5.86108009 C6.85032393,5.84314145 7.00938112,5.89079806 7.13200007,5.99299996 L8.33400005,7.00899996 L9.91300005,4.97599997 L9.45900005,4.55799997 C9.16600005,4.28699997 9.24700005,4.01399998 9.64100005,3.95099997 L11.912,3.58699997 C12.306,3.52399997 12.416,3.72199998 12.158,4.02699998 L11.677,4.59699996 C11.6622852,4.62559405 11.6448728,4.65271722 11.625,4.67799997 L8.88100005,8.20999994 C8.78452438,8.33616116 8.64038632,8.41706578 8.48243974,8.43371165 C8.32449316,8.45035751 8.16665615,8.40127781 8.04600007,8.29799994 L6.85100007,7.28699994 L5.65100008,8.87799993 C5.54044278,9.02348178 5.36871767,9.10952899 5.18600008,9.11099994 C5.05128695,9.11086463 4.92082209,9.06384071 4.81700009,8.97799994 L3.77000009,8.11699995 C3.52006034,7.91197097 3.48336876,7.54326537 3.6880001,7.29299994 Z M12.408,11.8939999 C12.408007,12.0883431 12.2513362,12.2463529 12.057,12.2479999 L3.9800001,12.2419999 C3.78572721,12.2398199 3.62907935,12.082282 3.62800009,11.8879999 L3.62100009,9.56799993 C3.62100009,9.19399993 3.80800009,8.99699993 4.00300008,9.18499994 L5.09400008,10.0509999 C5.24000008,10.1779999 5.46100007,10.3499999 5.58300008,10.1989999 L6.83300007,8.66799994 C6.95600007,8.51799995 7.17700007,8.30599995 7.32400006,8.43099994 L8.40000006,9.37599993 C8.54700006,9.50199993 8.85400007,9.71999993 8.97400004,9.56699993 L11.651,6.31199996 C12.012,5.89499996 12.416,5.99399996 12.4150865,6.50299996 C12.416,6.88299996 12.408,11.8939999 12.408,11.8939999 L12.408,11.8939999 Z" id="形状"></path>
            </g>
        </g>
    </g>
</svg>