<?xml version="1.0" encoding="UTF-8"?>
<svg width="179px" height="47px" viewBox="0 0 179 47" version="1.1" xmlns="http://www.w3.org/2000/svg" xmlns:xlink="http://www.w3.org/1999/xlink">
    <title>编组备份 14</title>
    <g id="页面-1" stroke="none" stroke-width="1" fill="none" fill-rule="evenodd">
        <g id="资讯备份-16" transform="translate(-11, -742)">
            <g id="编组备份-14" transform="translate(12, 742)">
                <path d="M170.896447,3.25 L174.75,7.10355339 L174.75,38.8964466 L170.896447,42.75 L6.10355339,42.75 L2.25,38.8964466 L2.25,7.10355339 L6.10355339,3.25 L170.896447,3.25 Z" id="矩形-4" stroke="#4297FE" stroke-width="0.5" fill-opacity="0.1" fill="#4297FE"></path>
                <g id="编组备份-8">
                    <path d="M5,1 L172,1 L177,6 L177,40 L172,45 L148,45 L148,45 L147,46 L138,46 L137,45 L5,45 L0,40 L0,6 L5,1 Z" id="矩形" stroke="#4297FE" stroke-width="0.5"></path>
                    <polygon id="矩形-6" fill="#4297FE" points="138 44 140 44 141 45 139 45"></polygon>
                    <polygon id="矩形-6备份" fill="#4297FE" points="141 44 143 44 144 45 142 45"></polygon>
                    <polygon id="矩形-6备份-2" fill="#4297FE" points="144 44 146 44 147 45 145 45"></polygon>
                    <polygon id="矩形-5" fill="#4297FE" points="11 0 17 0 16 2 10 2"></polygon>
                    <polygon id="矩形-5备份" fill="#4297FE" points="18 0 24 0 23 2 17 2"></polygon>
                    <polygon id="矩形-5备份-2" fill="#4297FE" points="25 0 31 0 30 2 24 2"></polygon>
                    <polygon id="矩形-5备份-5" fill="#4297FE" transform="translate(153.5, 45) scale(1, -1) translate(-153.5, -45)" points="151 44 157 44 156 46 150 46"></polygon>
                    <polygon id="矩形-5备份-4" fill="#4297FE" transform="translate(160.5, 45) scale(1, -1) translate(-160.5, -45)" points="158 44 164 44 163 46 157 46"></polygon>
                    <polygon id="矩形-5备份-3" fill="#4297FE" transform="translate(167.5, 45) scale(1, -1) translate(-167.5, -45)" points="165 44 171 44 170 46 164 46"></polygon>
                    <path d="M176.027048,7.04555505 L176.027048,39.2571508 L171.385586,44 L171.385586,44.8193568" id="路径" stroke="#4297FE" stroke-width="0.5" stroke-dasharray="2,2"></path>
                    <path d="M5.53528813,1 L5.53528813,32.6949341 L1.20621607,37 L1,38" id="路径备份" stroke="#4297FE" stroke-width="0.5" stroke-dasharray="2,2" transform="translate(3.2676, 19.5) scale(-1, -1) translate(-3.2676, -19.5)"></path>
                </g>
            </g>
        </g>
    </g>
</svg>