<?xml version="1.0" encoding="UTF-8"?>
<svg width="21px" height="20px" viewBox="0 0 21 20" version="1.1" xmlns="http://www.w3.org/2000/svg" xmlns:xlink="http://www.w3.org/1999/xlink">
    <title>Icon/播放</title>
    <g id="页面-1" stroke="none" stroke-width="1" fill="none" fill-rule="evenodd">
        <g id="我的" transform="translate(-230, -659)" fill="#313334">
            <g id="金刚区/图标备份-5" transform="translate(195, 655)">
                <g id="Icon/播放" transform="translate(35.5, 4)">
                    <g id="编组" transform="translate(0.9375, 0.439)">
                        <path d="M9.0625,19.2485955 C8.92818514,19.2508021 8.79527985,19.2207913 8.675,19.1609692 L3.3625,16.7109692 C1.325,15.7734692 0,13.6359692 0,11.2609692 L0,4.54846916 C0,3.48596916 0.7125,2.59846916 1.6875,2.39846916 L8.0375,0.173469161 C8.7,-0.0640308393 9.4375,-0.0515308393 10.1,0.173469161 L16.4375,2.39846916 C17.425,2.59846916 18.125,3.48596916 18.125,4.54846916 L18.125,11.2609692 C18.125,13.6234692 16.8125,15.7609692 14.7625,16.7109692 L9.45,19.1609692 C9.325,19.2234692 9.1875,19.2485955 9.0625,19.2485955 Z M9.0625,1.87346916 C8.9216642,1.87406909 8.78203348,1.89945649 8.65,1.94846916 L2.2375,4.19846916 C2.2375,4.19846916 2.125,4.23596916 2.075,4.23596916 C1.975,4.24846916 1.875,4.37346916 1.875,4.54846916 L1.875,11.2609692 C1.875,12.8984692 2.7625,14.3734692 4.15,15.0109692 L9.0625,17.2859692 L13.975,15.0109692 C15.35,14.3734692 16.25,12.8984692 16.25,11.2609692 L16.25,4.54846916 C16.25,4.37346916 16.15,4.24846916 16.05,4.23596916 C15.9875,4.23596916 15.9375,4.21096916 15.8875,4.19846916 L9.475,1.94846916 C9.34296652,1.89945649 9.2033358,1.87406909 9.0625,1.87346916 Z" id="形状" fill-rule="nonzero"></path>
                        <path d="M7.8125,12.9984692 C7.575,12.9984692 7.3375,12.9109692 7.15,12.7234692 L4.65,10.2234692 C4.2875,9.86096916 4.2875,9.26096916 4.65,8.89846916 C5.0125,8.53596916 5.6125,8.53596916 5.975,8.89846916 L7.8125,10.7359692 L12.15,6.39846916 C12.5125,6.03596916 13.1125,6.03596916 13.475,6.39846916 C13.8375,6.76096916 13.8375,7.36096916 13.475,7.72346916 L8.475,12.7234692 C8.2875,12.9109692 8.05,12.9984692 7.8125,12.9984692 Z" id="路径" fill-rule="nonzero"></path>
                    </g>
                </g>
            </g>
        </g>
    </g>
</svg>