<?xml version="1.0" encoding="UTF-8"?>
<svg width="21px" height="20px" viewBox="0 0 21 20" version="1.1" xmlns="http://www.w3.org/2000/svg" xmlns:xlink="http://www.w3.org/1999/xlink">
    <title>Icon/播放</title>
    <g id="页面-1" stroke="none" stroke-width="1" fill="none" fill-rule="evenodd">
        <g id="我的" transform="translate(-48, -659)" fill="#313334" fill-rule="nonzero">
            <g id="金刚区/图标备份-7" transform="translate(13, 655)">
                <g id="Icon/播放" transform="translate(35.5, 4)">
                    <path d="M10,0 C13.0375661,0 15.5,2.46243388 15.5,5.5 C15.5,7.23023006 14.7010478,8.77385483 13.4519427,9.78207498 C16.141901,11.0693763 18,13.817697 18,17 L18,20 L16,20 L16,17 C16,13.6862915 13.3137085,11 10,11 C6.6862915,11 4,13.6862915 4,17 L4,20 L2,20 L2,17 C2,13.817697 3.858099,11.0693763 6.54856461,9.78077028 C5.29895221,8.77385483 4.5,7.23023006 4.5,5.5 C4.5,2.46243388 6.96243388,0 10,0 Z M15.7374876,3.56866954 C16.0733621,3.13114882 16.7031267,3.0493899 17.1384377,3.38305469 C18.0797702,4.10562678 18.6211468,5.19942857 18.6211468,6.38603779 C18.6211468,7.34946724 18.2477074,8.27312209 17.6002652,8.96696807 C19.0763452,9.90388112 19.9977903,11.5478984 20,13.3267073 C20,13.8769228 19.5536405,14.325492 19.0012153,14.325492 C18.4509999,14.325492 18.0024307,13.8791325 18.0024307,13.3267073 C18.0024307,12.089275 17.2754392,10.960118 16.1484919,10.4474675 C15.6579383,10.2242877 15.3176445,9.74920208 15.2646116,9.21224483 C15.2115788,8.66644879 15.4413877,8.14937885 15.8855375,7.82897227 C16.3473649,7.49530748 16.6235775,6.95614054 16.6235775,6.38603779 C16.6235775,5.82698354 16.3672522,5.3099136 15.9231024,4.96961971 C15.4855817,4.63374522 15.4016131,4.00619025 15.7374876,3.56866954 Z M2.86377196,3.38084499 C3.30129267,3.0449705 3.92884764,3.12672942 4.26472213,3.56645984 C4.60059662,4.00398055 4.516628,4.63153552 4.07910728,4.96741001 C3.63274776,5.3099136 3.3786322,5.82477384 3.3786322,6.38382808 C3.3786322,6.95393084 3.65484477,7.49309778 4.11667219,7.82897227 C4.55198321,8.14495945 4.79063087,8.67528759 4.73538835,9.21224483 C4.68235554,9.75141178 4.34206165,10.2242877 3.85150812,10.4474675 C2.72456082,10.9579083 1.99756933,12.089275 1.99756933,13.3267073 C1.99756933,13.8769228 1.55120981,14.325492 0.998784665,14.325492 C0.448569219,14.325492 -7.10542736e-15,13.8791325 -7.10542736e-15,13.3267073 C-7.10542736e-15,11.5478984 0.921445144,9.90388112 2.39973484,8.96475837 C1.75229256,8.27091238 1.38106287,7.34725754 1.38106287,6.38382808 C1.38106287,5.19721887 1.92022981,4.10341708 2.86377196,3.38084499 Z M10,2 C8.06700338,2 6.5,3.56700338 6.5,5.5 C6.5,7.43299662 8.06700338,9 10,9 C11.9329966,9 13.5,7.43299662 13.5,5.5 C13.5,3.56700338 11.9329966,2 10,2 Z" id="形状结合"></path>
                </g>
            </g>
        </g>
    </g>
</svg>