<?xml version="1.0" encoding="UTF-8"?>
<svg width="21px" height="20px" viewBox="0 0 21 20" version="1.1" xmlns="http://www.w3.org/2000/svg" xmlns:xlink="http://www.w3.org/1999/xlink">
    <title>Icon/播放</title>
    <g id="页面-1" stroke="none" stroke-width="1" fill="none" fill-rule="evenodd">
        <g id="我的" transform="translate(-48, -586)" fill="#313334" fill-rule="nonzero">
            <g id="金刚区/图标" transform="translate(13, 582)">
                <g id="Icon/播放" transform="translate(35.5, 4)">
                    <path d="M20,16.7693272 C20,18.4261815 18.6568542,19.7693272 17,19.7693272 L3,19.7693272 C1.34314575,19.7693272 0,18.4261815 0,16.7693272 L0,7.76932723 C0,6.72191546 0.536771478,5.79987339 1.35023901,5.26327643 C1.46446462,5.06857855 1.64468425,4.91124809 1.87344588,4.82869748 L14.2866522,0.349285166 C15.3256431,-0.0256436537 16.4718515,0.512685053 16.8467803,1.55167599 C16.9253443,1.76939 16.9655208,1.99908908 16.9655208,2.23054467 L16.965,4.769 L17,4.76932723 C18.6568542,4.76932723 20,6.11247298 20,7.76932723 L20,16.7693272 Z M17,6.76932723 L3,6.76932723 C2.44771525,6.76932723 2,7.21704248 2,7.76932723 L2,16.7693272 C2,17.321612 2.44771525,17.7693272 3,17.7693272 L17,17.7693272 C17.5522847,17.7693272 18,17.321612 18,16.7693272 L18,15.769 L12.5,15.7693272 C10.5670034,15.7693272 9,14.2023239 9,12.2693272 C9,10.3363306 10.5670034,8.76932723 12.5,8.76932723 L18,8.769 L18,7.76932723 C18,7.21704248 17.5522847,6.76932723 17,6.76932723 Z M18,10.7693272 L12.5,10.7693272 C11.7203039,10.7693272 11.0795513,11.3642153 11.0068666,12.1248672 L11,12.2693272 C11,13.0977544 11.6715729,13.7693272 12.5,13.7693272 L18,13.7693272 L18,10.7693272 Z M14.9655208,2.23054467 L7.928,4.769 L14.965,4.769 L14.9655208,2.23054467 Z" id="形状结合"></path>
                </g>
            </g>
        </g>
    </g>
</svg>