<?xml version="1.0" encoding="UTF-8"?>
<svg width="21px" height="20px" viewBox="0 0 21 20" version="1.1" xmlns="http://www.w3.org/2000/svg" xmlns:xlink="http://www.w3.org/1999/xlink">
    <title>Icon/播放</title>
    <g id="页面-1" stroke="none" stroke-width="1" fill="none" fill-rule="evenodd">
        <g id="我的" transform="translate(-321, -658)" fill="#313334" fill-rule="nonzero">
            <g id="金刚区/图标备份-4" transform="translate(286, 654)">
                <g id="Icon/播放" transform="translate(35.5, 4)">
                    <path d="M13,6.3 C13,4.6 11.7,3.3 10,3.3 C8.3,3.3 7,4.6 7,6.3 C7,8 8.3,9.3 10,9.3 C11.7,9.3 13,8 13,6.3 L13,6.3 Z M9,6.3 C9,5.7 9.4,5.3 10,5.3 C10.6,5.3 11,5.7 11,6.3 C11,6.9 10.6,7.3 10,7.3 C9.4,7.3 9,6.9 9,6.3 Z M18.5104001,12 L14.1,12 C15.2,10.1 16.2,8 16.2,6.2 C16.2,2.8 13.4,0 10,0 C6.6,0 3.8,2.8 3.8,6.2 C3.8,8 4.7,10.2 5.8,12 L1.43518174,12 C0.835181744,12 0.435181744,12.4 0.435181744,13 L0.435181744,19 C0.435181744,19.6 0.835181744,20 1.43518174,20 L18.5104001,20 C19.1104001,20 19.5104001,19.6 19.5104001,19 L19.5104001,13 C19.5104001,12.4 19.1104001,12 18.5104001,12 Z M10,2 C12.3,2 14.2,3.9 14.2,6.2 C14.2,8.6 11.6,12.4 10,14.5 C8.4,12.5 5.8,8.8 5.8,6.2 C5.8,3.9 7.7,2 10,2 Z M18,18 L2,18 L2,14 L7.2,14 C8.3,15.5 9.2,16.6 9.3,16.7 C9.4,16.9 9.7,17 10,17 C10.3,17 10.6,16.9 10.8,16.7 C10.9,16.6 11.8,15.5 12.8,14 L18,14 L18,18 L18,18 Z" id="形状"></path>
                </g>
            </g>
        </g>
    </g>
</svg>