<?xml version="1.0" encoding="UTF-8"?>
<svg width="21px" height="20px" viewBox="0 0 21 20" version="1.1" xmlns="http://www.w3.org/2000/svg" xmlns:xlink="http://www.w3.org/1999/xlink">
    <title>Icon/播放</title>
    <g id="页面-1" stroke="none" stroke-width="1" fill="none" fill-rule="evenodd">
        <g id="我的" transform="translate(-321, -586)" fill="#313334" fill-rule="nonzero">
            <g id="金刚区/图标备份-3" transform="translate(286, 582)">
                <g id="Icon/播放" transform="translate(35.5, 4)">
                    <path d="M14,0 C15.6568542,0 17,1.34314575 17,3 L17,11 C18.6568542,11 20,12.3431458 20,14 L20,17 C20,18.6568542 18.6568542,20 17,20 L3,20 C1.34314575,20 0,18.6568542 0,17 L0,14 C0,12.3431458 1.34314575,11 3,11 L3,3 C3,1.34314575 4.34314575,0 6,0 L14,0 Z M17,13 L3,13 C2.44771525,13 2,13.4477153 2,14 L2,17 C2,17.5522847 2.44771525,18 3,18 L17,18 C17.5522847,18 18,17.5522847 18,17 L18,14 C18,13.4477153 17.5522847,13 17,13 Z M14,14.5 C14.5522847,14.5 15,14.9477153 15,15.5 C15,16.0522847 14.5522847,16.5 14,16.5 L6,16.5 C5.44771525,16.5 5,16.0522847 5,15.5 C5,14.9477153 5.44771525,14.5 6,14.5 L14,14.5 Z M14,2 L6,2 C5.44771525,2 5,2.44771525 5,3 L5,11 L15,11 L15,3 C15,2.48716416 14.6139598,2.06449284 14.1166211,2.00672773 L14,2 Z M10.8689655,7.36103448 C11.4482759,7.40172413 12.1931034,7.48379311 12.4827586,7.64724138 C12.7724138,7.81103448 12.8551724,8.71172414 13.1034483,10.1034483 L6.89655172,10.1034483 C6.93793103,9.53034483 7.02068965,8.75275862 7.18620689,8.01586207 C7.26896552,7.81103448 7.39310345,7.64724138 7.39310345,7.64724138 C7.39310345,7.54085058 8.44983908,7.52666513 8.73163525,7.52477374 L8.8,7.52448276 L9.04827586,7.48379311 C9.00689655,7.68827587 9.00689655,7.97482759 9.08965517,8.26137931 C9.2137931,8.58896552 9.37931034,8.95724138 9.62758621,9.12103448 L9.66896552,8.22034483 L10.1655172,8.22034483 L10.2482759,9.08 C10.4137931,8.83448277 10.6206897,8.4662069 10.662069,7.97482758 C10.662069,7.60655172 10.7862069,7.44275862 10.8689655,7.36103448 Z M9.91724138,7.48379311 L10.2896552,7.89310345 L10.0827586,8.13862069 L9.79310345,8.13862069 L9.54482759,7.93379311 L9.91724138,7.48379311 Z M9.63222696,3.55240832 L9.79310345,3.5537931 C10.7034483,3.59482758 11.5310345,4.00448275 11.6551724,4.29068965 C11.8206897,4.53655173 11.3655172,4.86413794 11.1586207,4.9462069 C11.1586207,4.9462069 11.2,5.06896551 11.2,5.19172414 C11.2,5.27344827 11.2,5.31448275 11.2413793,5.35551724 C11.2413793,5.56 11.3655172,7.07448276 9.95862069,7.19758621 L9.93456821,7.19692973 C9.73166784,7.1883955 8.3182266,7.06891626 8.51034483,5.3962069 L8.42758621,5.31448276 C8.42758621,5.31448276 8.3862069,5.02793104 8.42758621,4.9462069 C8.42758621,4.9462069 7.93103448,4.78241379 7.93103448,4.4137931 C7.93103448,4.08853955 8.67199618,3.63603388 9.4717042,3.56201562 L9.63222696,3.55240832 Z M10.9103448,4.65931034 L8.59310345,4.65931034 L8.59310345,4.94586206 L10.9103448,4.94586206 L10.9103448,4.65931034 Z M9.87586207,3.84068965 C9.71034483,3.84068965 9.54482759,3.96344828 9.54482759,4.12689655 L9.29655172,4.12689655 C9.50344828,4.20896552 9.62758621,4.29068965 9.62758621,4.29068965 C9.6937931,4.35634482 9.76,4.36947586 9.8262069,4.37210206 L9.95862069,4.37275862 C10,4.33172414 10,4.33172414 10.0413793,4.33172414 C10.2068966,4.29068965 10.4551724,4.16827586 10.4551724,4.16827586 L10.1655172,4.16827586 L10.1655172,4.12689655 C10.1655172,3.96344828 10.0413793,3.84068965 9.87586207,3.84068965 Z" id="形状结合"></path>
                </g>
            </g>
        </g>
    </g>
</svg>