<?xml version="1.0" encoding="UTF-8"?>
<svg width="16px" height="16px" viewBox="0 0 16 16" version="1.1" xmlns="http://www.w3.org/2000/svg" xmlns:xlink="http://www.w3.org/1999/xlink">
    <title>Icon/退出</title>
    <g id="页面-1" stroke="none" stroke-width="1" fill="none" fill-rule="evenodd">
        <g id="我的" transform="translate(-33, -749)" fill-rule="nonzero">
            <g id="Icon/退出" transform="translate(33, 749)">
                <path d="M15.6921612,7.48286263 C16.0800102,7.7973348 16.0904926,8.10656576 15.7236084,8.41055553 C15.5139603,8.56779161 15.285968,8.76171611 15.0396315,8.99232904 C14.7932949,9.22294196 14.536476,9.46141669 14.2691747,9.70775322 C14.0018733,9.95408975 13.7371926,10.1978057 13.4751324,10.438901 C13.2130723,10.6799963 12.971977,10.8896445 12.7518464,11.0678454 C12.5107511,11.2565287 12.3037236,11.3508703 12.1307639,11.3508703 C11.9578042,11.3508703 11.8713244,11.2250814 11.8713244,10.9735037 C11.8922892,10.82675 11.8949098,10.6433079 11.8791862,10.4231774 C11.8634626,10.2030469 11.8556008,10.0143636 11.8556008,9.8571275 C11.8556008,9.67892661 11.7927063,9.56886135 11.6669175,9.52693172 C11.5411286,9.4850021 11.3891337,9.46403729 11.2109328,9.46403729 L10.5819885,9.46403729 L9.62284837,9.46403729 C9.26644658,9.46403729 8.89170058,9.46141669 8.49861036,9.45617549 C8.10552015,9.45093428 7.73077415,9.44831368 7.37437236,9.44831368 L6.41523225,9.44831368 L5.7705643,9.44831368 C5.68670505,9.44831368 5.59498401,9.44045188 5.49540115,9.42472827 C5.3958183,9.40900466 5.30671785,9.37493684 5.22809981,9.32252481 C5.14948177,9.27011279 5.08658733,9.19673595 5.03941651,9.1023943 C4.99224568,9.00805265 4.96866027,8.88750498 4.96866027,8.7407513 C4.96866027,8.5415856 4.96603967,8.30573147 4.96079846,8.03318892 C4.95555726,7.76064638 4.95817786,7.51955105 4.96866027,7.30990293 C4.96866027,7.02687798 5.03679591,6.83295348 5.17306718,6.72812942 C5.30933845,6.62330537 5.52946897,6.57613454 5.83345873,6.58661695 L6.35233781,6.58661695 L7.2643071,6.58661695 C7.59974408,6.58661695 7.95876647,6.58923755 8.34137428,6.59447875 C8.72398209,6.59971995 9.08824568,6.60234055 9.43416507,6.60234055 L10.3775816,6.60234055 L10.9750787,6.60234055 C11.2371388,6.61282296 11.45989,6.59185815 11.6433321,6.53944612 C11.8267742,6.48703409 11.9184952,6.37172763 11.9184952,6.19352673 C11.9184952,6.04677306 11.9237364,5.88167517 11.9342188,5.69823307 C11.9447012,5.51479097 11.9499424,5.34969308 11.9499424,5.2029394 C11.9499424,4.96184407 12.0154575,4.80984919 12.1464875,4.74695476 C12.2775176,4.68406032 12.4426155,4.73123115 12.6417812,4.88846723 C12.8409469,5.05618572 13.0741804,5.25273083 13.3414818,5.47810255 C13.6087831,5.70347427 13.8787051,5.93408719 14.1512476,6.16994132 C14.4237901,6.40579545 14.6937121,6.63902897 14.9610134,6.8696419 C15.2283148,7.10025482 15.4720307,7.30466173 15.6921612,7.48286263 L15.6921612,7.48286263 Z" id="路径" fill="#01A25E"></path>
                <path d="M8,0 C9.3254834,0 10.4,1.0745166 10.4,2.4 L10.4,4.81549585 C10.4,5.25732365 10.0418278,5.61549585 9.6,5.61549585 C9.1581722,5.61549585 8.8,5.25732365 8.8,4.81549585 L8.8,2.4 C8.8,1.9581722 8.4418278,1.6 8,1.6 L2.4,1.6 C1.9581722,1.6 1.6,1.9581722 1.6,2.4 L1.6,13.6 C1.6,14.0418278 1.9581722,14.4 2.4,14.4 L8,14.4 C8.4418278,14.4 8.8,14.0418278 8.8,13.6 L8.8,11.2209819 C8.8,10.7791541 9.1581722,10.4209819 9.6,10.4209819 C10.0418278,10.4209819 10.4,10.7791541 10.4,11.2209819 L10.4,13.6 C10.4,14.9254834 9.3254834,16 8,16 L2.4,16 C1.0745166,16 0,14.9254834 0,13.6 L0,2.4 C0,1.0745166 1.0745166,0 2.4,0 L8,0 Z" id="路径" fill="#313334"></path>
            </g>
        </g>
    </g>
</svg>