<?xml version="1.0" encoding="UTF-8"?>
<svg width="10px" height="10px" viewBox="0 0 10 10" version="1.1" xmlns="http://www.w3.org/2000/svg" xmlns:xlink="http://www.w3.org/1999/xlink">
    <title>Icon/复制</title>
    <g id="页面-1" stroke="none" stroke-width="1" fill="none" fill-rule="evenodd">
        <g id="我的" transform="translate(-168, -134)" fill="#01A25E" fill-rule="nonzero">
            <g id="Icon/复制" transform="translate(168, 134)">
                <path d="M5.5,0 C6.69181314,0 7.6888414,0.833973243 7.93934541,1.95018037 L7.95813501,2.04196734 C9.1199966,2.25701227 10,3.27573823 10,4.5 L10,7.5 C10,8.88071187 8.88071187,10 7.5,10 L4.5,10 C3.27573823,10 2.25701227,9.1199966 2.04186499,7.95803266 L2.05906296,7.96123875 C0.888645787,7.75296311 0,6.73025873 0,5.5 L0,2.5 C0,1.11928813 1.11928813,0 2.5,0 L5.5,0 Z M3.08551212,8.00045036 C3.29155742,8.58281128 3.84705889,9 4.5,9 L7.5,9 C8.32842712,9 9,8.32842712 9,7.5 L9,4.5 C9,3.84705889 8.58281128,3.29155742 8.00045036,3.08551212 L8,5.5 C8,6.88071187 6.88071187,8 5.5,8 L3.08551212,8.00045036 Z M5.5,1 L2.5,1 C1.67157288,1 1,1.67157288 1,2.5 L1,5.5 C1,6.32842712 1.67157288,7 2.5,7 L5.5,7 C6.32842712,7 7,6.32842712 7,5.5 L7,2.5 C7,1.67157288 6.32842712,1 5.5,1 Z M4,2 C4.27614237,2 4.5,2.22385763 4.5,2.5 L4.5,3.5 L5.5,3.5 C5.77614237,3.5 6,3.72385763 6,4 C6,4.27614237 5.77614237,4.5 5.5,4.5 L4.5,4.5 L4.5,5.5 C4.5,5.77614237 4.27614237,6 4,6 C3.72385763,6 3.5,5.77614237 3.5,5.5 L3.5,4.5 L2.5,4.5 C2.22385763,4.5 2,4.27614237 2,4 C2,3.72385763 2.22385763,3.5 2.5,3.5 L3.5,3.5 L3.5,2.5 C3.5,2.22385763 3.72385763,2 4,2 Z" id="形状"></path>
            </g>
        </g>
    </g>
</svg>