<?xml version="1.0" encoding="UTF-8"?>
<svg width="16px" height="16px" viewBox="0 0 16 16" version="1.1" xmlns="http://www.w3.org/2000/svg" xmlns:xlink="http://www.w3.org/1999/xlink">
    <title>Icon/实名认证</title>
    <defs>
        <polygon id="path-1" points="0 0 16 0 16 16 0 16"></polygon>
    </defs>
    <g id="页面-1" stroke="none" stroke-width="1" fill="none" fill-rule="evenodd">
        <g id="我的" transform="translate(-206, -105)">
            <g id="Icon/实名认证" transform="translate(206, 105)">
                <mask id="mask-2" fill="white">
                    <use xlink:href="#path-1"></use>
                </mask>
                <g id="矩形"></g>
                <path d="M8,0 C3.581,0 0,3.5825 0,8 C0,12.419 3.5815,16 8,16 C12.417,16 16,12.4185 16,8 C16,3.583 12.418,0 8,0 L8,0 Z M5.5,5 C6.328,5 7,5.6715 7,6.4995 C7,7.3275 6.328,7.999 5.5,7.999 C4.672,7.999 4,7.328 4,6.4995 C4,5.6715 4.6715,5 5.5,5 L5.5,5 Z M3,10.9995 C3,10.1 3.1135,9.916 3.499,9.5265 C3.9255,9.0945 4.735,9 5.46,9 C6.1145,9 7.061,9.11 7.5065,9.5265 C7.999,9.988 7.99600022,10.267 7.99600022,10.9995 L3,10.9995 L3,10.9995 Z M11.9995,10 L8.999,10 L8.999,9 L11.9995,9 L11.9995,10 Z M12.9995,7.999 L9,7.999 L9,6.999 L12.9995,6.999 L12.9995,7.999 Z M12.9995,5.9995 L9,5.9995 L9,5 L12.9995,5 L12.9995,5.9995 Z" id="形状" fill="#01A25E" fill-rule="nonzero" mask="url(#mask-2)"></path>
            </g>
        </g>
    </g>
</svg>