<?xml version="1.0" encoding="UTF-8"?>
<svg width="21px" height="20px" viewBox="0 0 21 20" version="1.1" xmlns="http://www.w3.org/2000/svg" xmlns:xlink="http://www.w3.org/1999/xlink">
    <title>Icon/播放</title>
    <g id="页面-1" stroke="none" stroke-width="1" fill="none" fill-rule="evenodd">
        <g id="我的" transform="translate(-139, -659)" fill="#313334" fill-rule="nonzero">
            <g id="金刚区/图标备份-6" transform="translate(104, 655)">
                <g id="Icon/播放" transform="translate(35.5, 4)">
                    <path d="M3.30896732,0 L6.16692683,4.9499299 C6.76406359,4.62852161 7.39988907,4.38487813 8.05890003,4.22494017 L5.61793461,0 L7.9279019,0 L9.94287335,3.48995058 L11.9578448,0 L14.2678121,0 L11.8298466,4.22194022 C12.4978372,4.38293793 13.1328282,4.62793447 13.7238198,4.94392998 L16.5767794,0 L18.8857467,0 L15.3617966,6.1079135 C17.7899619,8.33782611 18.6015398,11.8289398 17.4059821,14.901258 C16.2104244,17.9735761 13.2525899,19.9978658 9.95585024,20 C6.65911057,20.0021275 3.69866174,17.9816631 2.49913343,14.910893 C1.29960511,11.840123 2.10666934,8.34796306 4.53194999,6.11491341 L1,0 L3.30796732,0 L3.30896732,0 Z M9.94987326,5.99991503 C6.63621169,5.99991503 3.94995823,8.68616849 3.94995823,11.9998301 C3.94995823,15.3134916 6.63621169,17.9997451 9.94987326,17.9997451 C13.2635348,17.9997451 15.9497883,15.3134916 15.9497883,11.9998301 C15.9497883,8.68616849 13.2635348,5.99991503 9.94987326,5.99991503 Z M9.94987326,7.99988672 C11.3789883,7.99977733 12.6995919,8.7621383 13.414181,9.99977 C14.1287701,11.2374017 14.1287701,12.7622584 13.414181,13.9998867 C12.6995919,15.2375218 11.3789883,15.9998867 9.94987326,15.9997734 C7.74088512,15.9996043 5.95023608,14.2088182 5.95023608,11.9998301 C5.95023608,9.79084192 7.74088512,8.00005581 9.94987326,7.99988672 L9.94987326,7.99988672 Z M9.94987326,9.99985839 C8.8453194,9.99985839 7.94990158,10.8952762 7.94990158,11.9998301 C7.94990158,13.1043839 8.8453194,13.9998018 9.94987326,13.9998018 C11.0544271,13.9998018 11.9498449,13.1043839 11.9498449,11.9998301 C11.9498449,10.8952762 11.0544271,9.99985839 9.94987326,9.99985839 L9.94987326,9.99985839 Z" id="形状"></path>
                </g>
            </g>
        </g>
    </g>
</svg>