<?xml version="1.0" encoding="UTF-8"?>
<svg width="21px" height="20px" viewBox="0 0 21 20" version="1.1" xmlns="http://www.w3.org/2000/svg" xmlns:xlink="http://www.w3.org/1999/xlink">
    <title>Icon/播放</title>
    <g id="页面-1" stroke="none" stroke-width="1" fill="none" fill-rule="evenodd">
        <g id="我的" transform="translate(-139, -586)" fill="#313334" fill-rule="nonzero">
            <g id="金刚区/图标备份" transform="translate(104, 582)">
                <g id="Icon/播放" transform="translate(35.5, 4)">
                    <path d="M12.1855415,0.775963408 L19.455431,6.6397339 C20.502421,7.48537933 19.9488578,9.25036352 18.5650547,9.25036352 L17.066,9.25 L17.0662073,18.0691946 C17.0662073,19.0779384 16.3063953,19.9193618 15.3218518,19.99721 L15.1725517,20.0030859 L4.82139375,20.0030859 C3.76543089,20.0030859 2.92773814,19.1283756 2.92773814,18.0691946 L2.927,9.25 L1.42889069,9.25036352 C0.0932985739,9.25036352 -0.461712693,7.59877328 0.445934064,6.7268819 L0.54507409,6.63956726 L4.44319172,3.49735864 L7.81506334,0.775716352 C9.0982923,-0.258572117 10.9020061,-0.258572117 12.1855415,0.775963408 Z M9.07069166,2.33244273 L5.69885735,5.05405495 L2.974,7.25 L4.92773814,7.25036352 L4.927,18.003 L15.066,18.003 L15.0662073,7.25036352 L17.026,7.25 L10.930152,2.3328825 C10.379481,1.88903917 9.62081739,1.88903917 9.07069166,2.33244273 Z M11.5,12 C12.0522847,12 12.5,12.4477153 12.5,13 L12.5,16 C12.5,16.5522847 12.0522847,17 11.5,17 L8.5,17 C7.94771525,17 7.5,16.5522847 7.5,16 L7.5,13 C7.5,12.4477153 7.94771525,12 8.5,12 L11.5,12 Z M13,9 C13.5522847,9 14,9.44771525 14,10 C14,10.5522847 13.5522847,11 13,11 L7,11 C6.44771525,11 6,10.5522847 6,10 C6,9.44771525 6.44771525,9 7,9 L13,9 Z" id="形状"></path>
                </g>
            </g>
        </g>
    </g>
</svg>