<?xml version="1.0" encoding="UTF-8"?>
<svg width="14px" height="14px" viewBox="0 0 14 14" version="1.1" xmlns="http://www.w3.org/2000/svg" xmlns:xlink="http://www.w3.org/1999/xlink">
    <title>Icon/人名币</title>
    <g id="页面-1" stroke="none" stroke-width="1" fill="none" fill-rule="evenodd">
        <g id="我的" transform="translate(-24, -364)" fill="#313334" fill-rule="nonzero">
            <g id="Icon/人名币" transform="translate(24, 364)">
                <path d="M14,12.2879258 C14,12.4832268 13.9665932,12.6656791 13.8997797,12.8352826 C13.8329662,13.0048861 13.7378855,13.1539316 13.6145374,13.2824191 C13.4911894,13.4109067 13.3472834,13.5111269 13.1828194,13.5830799 C13.0183554,13.655033 12.8384728,13.6910095 12.6431718,13.6910095 L1.44933921,13.6910095 C1.25403818,13.6910095 1.06901615,13.655033 0.894273128,13.5830799 C0.719530103,13.5111269 0.565345081,13.4109067 0.431718062,13.2824191 C0.298091043,13.1539316 0.192731278,13.0048861 0.115638767,12.8352826 C0.0385462555,12.6656791 0,12.4832268 0,12.2879258 L0,4.59409316 C0,4.2034911 0.136196769,3.8719933 0.408590308,3.59959976 C0.680983847,3.32720622 1.01248164,3.19100946 1.4030837,3.19100946 L12.5969163,3.19100946 C12.9875184,3.19100946 13.3190162,3.32720622 13.5914097,3.59959976 C13.8638032,3.8719933 14,4.2034911 14,4.59409316 L14,6.69100946 L10.5,6.69100946 C10.1093979,6.69100946 9.77790015,6.82463647 9.50550661,7.09189051 C9.23311307,7.35914455 9.0969163,7.6880726 9.0969163,8.07867465 C9.1071953,8.34592869 9.16372981,8.58234573 9.26651982,8.78792575 C9.34875184,8.96266878 9.4849486,9.1219933 9.67511013,9.26589932 C9.86527166,9.40980534 10.1402349,9.48175835 10.5,9.48175835 L14,9.48175835 L14,12.2879258 L14,12.2879258 Z M11.9030837,2.48175835 L4.9030837,2.48175835 C5.45814978,2.19394631 5.98237885,1.91641327 6.47577093,1.64915923 C6.90748899,1.4230212 7.33406755,1.19688317 7.75550661,0.970745138 C8.17694567,0.744607106 8.50587372,0.569864081 8.74229075,0.446516063 C9.1020558,0.251215035 9.4232746,0.161273772 9.70594714,0.176692275 C9.98861968,0.192110777 10.2276065,0.240936034 10.4229075,0.323168046 C10.6490455,0.436237062 10.8443465,0.585282583 11.0088106,0.770304609 L11.9030837,2.48175835 Z M9.8061674,8.07867465 C9.8061674,7.88337363 9.87298091,7.7189096 10.0066079,7.58528258 C10.1402349,7.45165556 10.304699,7.38484205 10.5,7.38484205 C10.695301,7.38484205 10.8597651,7.45165556 10.9933921,7.58528258 C11.1270191,7.7189096 11.1938326,7.88337363 11.1938326,8.07867465 C11.1938326,8.27397568 11.1270191,8.44100946 10.9933921,8.57977598 C10.8597651,8.71854249 10.695301,8.78792575 10.5,8.78792575 C10.304699,8.78792575 10.1402349,8.71854249 10.0066079,8.57977598 C9.87298091,8.44100946 9.8061674,8.27397568 9.8061674,8.07867465 Z" id="形状"></path>
            </g>
        </g>
    </g>
</svg>