<?xml version="1.0" encoding="UTF-8"?>
<svg width="20px" height="20px" viewBox="0 0 20 20" version="1.1" xmlns="http://www.w3.org/2000/svg" xmlns:xlink="http://www.w3.org/1999/xlink">
    <title>Icon/首页备份</title>
    <defs>
        <linearGradient x1="50%" y1="0%" x2="50%" y2="100%" id="linearGradient-1">
            <stop stop-color="#1EF299" offset="0%"></stop>
            <stop stop-color="#24BF7E" offset="100%"></stop>
        </linearGradient>
        <linearGradient x1="50%" y1="0%" x2="50%" y2="100%" id="linearGradient-2">
            <stop stop-color="#7B8189" offset="0%"></stop>
            <stop stop-color="#7B8189" offset="100%"></stop>
        </linearGradient>
        <linearGradient x1="50%" y1="0%" x2="50%" y2="100%" id="linearGradient-3">
            <stop stop-color="#007F49" offset="0%"></stop>
            <stop stop-color="#01A25E" offset="100%"></stop>
        </linearGradient>
    </defs>
    <g id="页面-1" stroke="none" stroke-width="1" fill="none" fill-rule="evenodd">
        <g id="我的" transform="translate(-234, -7)" fill="url(#linearGradient-2)" fill-rule="nonzero">
            <g id="Bar/底部/全部/1备份-2" transform="translate(195, 0)">
                <g id="Icon/首页备份" transform="translate(39, 7)">
                    <path d="M9.02315453,0.232335906 C9.56356973,-0.0774453021 10.2277225,-0.0774453021 10.7681377,0.232335906 L17.9176232,4.36048087 C18.4565607,4.67331485 18.7884436,5.24917653 18.7889373,5.8723286 L18.7889373,14.1274411 C18.7889373,14.7491355 18.4545411,15.3284416 17.9164457,15.6392888 L10.7669602,19.7674338 C10.2266264,20.0771013 9.56272829,20.0775493 9.02197708,19.7686112 L1.87249156,15.6404663 C1.33439623,15.3296191 1,14.7491355 1,14.1286185 L1,5.8723286 C1.00169936,5.24919309 1.33380632,4.67372032 1.87249156,4.36048087 Z M16.6742344,6.14078754 C16.5132593,5.85845766 16.154547,5.75904912 15.8712125,5.91824921 L9.90977551,9.28693796 L3.94716111,5.91824921 C3.66396047,5.7579531 3.30443532,5.85758691 3.1441392,6.14078755 C2.98384309,6.42398819 3.08347689,6.78351334 3.36667752,6.94380947 L9.3080978,10.3007237 L9.3080978,17.2665268 C9.30809782,17.591671 9.57167931,17.8552525 9.89682355,17.8552525 C10.2219678,17.8552525 10.4855493,17.591671 10.4855493,17.2665268 L10.4855493,10.3148531 L16.4505186,6.94380947 C16.7332785,6.78323948 16.83324,6.42443003 16.6742344,6.14078754 Z" id="形状结合"></path>
                    <path d="M10.7681377,0.232335906 L17.9176232,4.36048087 C18.4565607,4.67331485 18.7884436,5.24917653 18.7889373,5.8723286 L18.7889373,14.1274411 C18.7889373,14.7491355 18.4545411,15.3284416 17.9164457,15.6392888 L10.7669602,19.7674338 C10.2266264,20.0771013 9.56272829,20.0775493 9.02197708,19.7686112 L1.87249156,15.6404663 C1.33439623,15.3296191 1,14.7491355 1,14.1286185 L1,5.8723286 C1.00169936,5.24919309 1.33380632,4.67372032 1.87249156,4.36048087 L9.02315453,0.232335906 C9.56356973,-0.0774453021 10.2277225,-0.0774453021 10.7681377,0.232335906 Z M9.27314126,0.665356271 L2.12383199,4.79271691 C1.73867057,5.01668397 1.50121319,5.42814857 1.5,5.8723286 L1.5,14.1286185 C1.5,14.5709772 1.73951588,14.9862159 2.12250917,15.2074637 L9.27000865,19.334468 C9.65685382,19.5554776 10.1317964,19.5551571 10.5169426,19.3344312 L17.6663385,15.206338 C18.0498299,14.9848025 18.2889374,14.5705052 18.2889374,14.1274411 L18.2889374,5.87272473 C18.2885848,5.42764736 18.0515423,5.01634646 17.6666139,4.7929093 L10.5194799,0.666120806 C10.1330816,0.444626398 9.65821059,0.444626398 9.27314126,0.665356271 Z M4.07013435,5.70058529 L9.90959326,8.99970328 L15.7487498,5.70029763 C16.1519219,5.47376321 16.662353,5.615217 16.8923065,6.01853964 C17.1185643,6.42214989 16.9763235,6.93271928 16.5739692,7.161203 L10.7345933,10.4597033 L10.7355493,17.2665268 C10.7355493,17.6941103 10.4155878,18.0469627 10.0020315,18.0987176 L9.89682355,18.1052525 C9.43360813,18.1052525 9.05809782,17.7297422 9.0580978,17.2665268 L9.05759326,10.4457033 L3.24353153,7.1613757 C2.87378565,6.95209357 2.72373204,6.5043747 2.8771459,6.12051898 L2.92657297,6.01764157 C3.15488073,5.61428242 3.66694793,5.47237522 4.07013435,5.70058529 Z M15.9942041,6.13590273 L10.0327672,9.50459147 L9.90978766,9.57408473 L9.78680228,9.50460188 L3.82401513,6.13581545 C3.660973,6.04353099 3.4539899,6.10089141 3.36170544,6.26393354 C3.26942097,6.42697567 3.32678139,6.63395877 3.4896563,6.72614868 L9.43107658,10.0830629 L9.5580978,10.1548301 L9.5580978,17.2665268 C9.55809781,17.4535998 9.70975049,17.6052525 9.89682355,17.6052525 C10.0838966,17.6052525 10.2355493,17.4535998 10.2355493,17.2665268 L10.2355493,10.1689771 L10.3625477,10.0972052 L16.327068,6.72641594 C16.4902334,6.63375969 16.5479158,6.42671017 16.4570556,6.26461561 C16.3641656,6.10169832 16.1571722,6.04433503 15.9942041,6.13590273 Z" id="形状结合"></path>
                </g>
            </g>
        </g>
    </g>
</svg>